<svg width="32" height="26" viewBox="0 0 32 26" fill="none" xmlns="http://www.w3.org/2000/svg">
<path d="M31.8318 3.06951C30.6612 3.58822 29.4037 3.9387 28.0817 4.09711C29.4457 3.28091 30.4663 1.9963 30.9528 0.482984C29.6712 1.24421 28.2686 1.78003 26.8059 2.06714C25.8223 1.01692 24.5195 0.32082 23.0997 0.0869078C21.68 -0.147004 20.2227 0.0943625 18.9542 0.773534C17.6856 1.45271 16.6768 2.53168 16.0843 3.84295C15.4919 5.15422 15.3489 6.62441 15.6776 8.02527C13.0808 7.89488 10.5404 7.21994 8.2214 6.04423C5.90236 4.86853 3.85644 3.21834 2.21642 1.20076C1.65566 2.16808 1.33322 3.28961 1.33322 4.48404C1.33259 5.5593 1.59738 6.61809 2.1041 7.56647C2.61081 8.51485 3.34378 9.32349 4.23798 9.92065C3.20095 9.88765 2.1868 9.60744 1.27995 9.10334V9.18745C1.27984 10.6955 1.8015 12.1572 2.75641 13.3245C3.71133 14.4917 5.04067 15.2927 6.51889 15.5914C5.55687 15.8517 4.54827 15.8901 3.56927 15.7035C3.98633 17.0012 4.79874 18.1359 5.89275 18.9489C6.98676 19.7618 8.30761 20.2123 9.67038 20.2373C7.357 22.0534 4.49998 23.0385 1.55893 23.0341C1.03795 23.0343 0.517412 23.0038 0 22.943C2.98534 24.8625 6.46048 25.8812 10.0096 25.8772C22.024 25.8772 28.592 15.9264 28.592 7.29627C28.592 7.01589 28.585 6.7327 28.5724 6.45232C29.8499 5.52843 30.9527 4.38436 31.829 3.07372L31.8318 3.06951Z" fill="white"/>
</svg>
