<svg width="718" height="203" viewBox="0 0 718 203" fill="none" xmlns="http://www.w3.org/2000/svg">
<g clip-path="url(#clip0)">
<path d="M1057.82 -365H-322V554.496H1057.82V-365Z" fill="url(#paint0_linear)"/>
<path opacity="0.15" d="M1004.1 -365L774.31 217.409H603.213L909.532 -365H1004.1Z" fill="#FFF8BB"/>
<path opacity="0.15" d="M806.137 -365L539.373 217.409H194.051L514.536 -365H806.137Z" fill="#FFF8BB"/>
<path opacity="0.2" d="M744.138 -365L480.685 217.409H376.003L687.473 -365H744.138Z" fill="#FFF8BB"/>
<path opacity="0.2" d="M616.459 -365L314.003 217.409H261.938L587.575 -365H616.459Z" fill="#FFF8BB"/>
<path opacity="0.15" d="M358.709 -365L61.2207 217.409H-28.9272L313.819 -365H358.709Z" fill="#FFF8BB"/>
<path opacity="0.15" d="M45.2151 -365L-279.318 217.409H-322V33.1416L-61.8587 -365H45.2151Z" fill="#FFF8BB"/>
<path d="M1057.82 46.5653C1006.12 25.7847 876.048 18.9804 747.082 22.4745C487.86 29.6465 157.808 113.321 -109.324 180.996H1057.82V46.5653Z" fill="#FBB62B"/>
<path d="M667.604 87.2079C767.135 78.1969 815.336 65.8757 815.336 65.8757C815.336 65.8757 744.322 100.449 769.342 104.127C794.363 107.989 1086.33 46.934 970.244 28.9119V28.728C908.244 21.9238 827.479 20.0848 747.265 22.4754C640.008 25.4178 520.424 41.601 398.448 64.2206C395.136 66.2434 392.377 68.2663 390.169 70.657C374.163 88.6791 567.889 96.219 667.604 87.2079Z" fill="#FCC64F"/>
<path d="M1057.82 46.5662C1043.83 40.8654 1023.96 36.2679 999.864 32.5899C1115.4 73.0477 975.947 194.237 667.604 171.434C375.083 149.734 326.514 99.1614 356.686 72.1282C297.63 83.7138 238.39 96.5868 179.701 110.195L175.102 180.629H1057.82V46.5662Z" fill="#EC9C19"/>
<path d="M1057.82 46.5653C1006.12 25.7847 876.048 18.9804 747.082 22.4745C487.86 29.6465 157.808 113.321 -109.324 180.996H1057.82V46.5653Z" fill="url(#paint1_linear)"/>
<path d="M454.745 180.629C454.745 180.629 295.79 94.0122 53.8619 50.4281C-188.066 7.02792 -322 31.3026 -322 31.3026V180.629H454.745Z" fill="#EEC61D"/>
<path d="M100.408 82.4266C314.003 122.884 454.745 180.445 454.745 180.445C454.745 180.445 295.79 93.8284 53.8619 50.2443C-188.066 6.66019 -322 31.3027 -322 31.3027V59.807C-322 59.807 -149.799 35.1646 100.408 82.4266Z" fill="#FBE367"/>
<path d="M-322 88.3114C-322 88.3114 -117.787 82.0588 -23.4078 99.7131C70.9716 117.367 -60.5709 139.987 -30.0309 148.446C0.509003 156.906 454.56 180.629 454.56 180.629H-322V88.3114Z" fill="#DAB20E"/>
<path d="M454.745 180.629C454.745 180.629 295.79 94.0122 53.8619 50.4281C-188.066 7.02792 -322 31.3026 -322 31.3026V180.629H454.745Z" fill="url(#paint2_linear)"/>
<path d="M1057.82 180.629H-322V554.496H1057.82V180.629Z" fill="#B4A30B"/>
<path d="M1057.82 265.958C674.043 208.214 271.321 199.019 -322 198.099V180.629H1057.82V265.958Z" fill="#D2BE07"/>
<path d="M561.082 180.629C618.85 194.237 761.615 250.878 796.755 281.222C815.888 297.589 788.476 300.347 712.494 332.346C638.168 363.608 581.319 407.376 533.486 453.535C485.652 499.694 397.896 554.496 199.386 554.496H656.749C656.749 554.496 675.699 530.405 702.191 482.223C730.523 430.548 739.354 407.56 829.134 367.47C918.73 327.38 951.294 319.105 932.529 300.163C908.98 276.624 766.031 205.639 615.539 180.445H561.082V180.629Z" fill="#EDBD05"/>
<path d="M807.058 235.063C752.049 213.179 684.53 192.031 615.355 180.445H561.083C590.151 187.249 640.744 204.903 688.21 224.765C728.5 227.891 768.055 231.385 807.058 235.063Z" fill="#FFD039"/>
<path d="M1057.82 180.629H-322V554.496H1057.82V180.629Z" fill="url(#paint3_linear)"/>
<path d="M646.999 180.445L647.183 180.629H800.619C798.595 177.135 793.444 175.663 789.948 177.686C787.556 174.192 782.221 173.457 778.91 176.031C778.174 174.192 776.334 172.721 774.31 172.537C772.287 172.537 770.263 173.824 769.527 175.663C768.607 174.192 767.319 172.721 765.479 172.353C763.824 171.985 761.616 172.905 761.248 174.744C760.512 172.721 758.672 171.066 756.465 170.698C754.257 170.33 752.049 171.434 750.761 173.089C751.129 171.25 750.209 169.043 748.37 168.307C746.53 167.572 744.322 168.124 743.218 169.595C743.586 165.917 742.666 162.974 739.355 161.503C736.963 160.4 733.284 160.216 730.892 161.503C727.58 163.158 726.477 165.181 725.373 169.411C723.533 165.917 717.83 166.652 715.622 169.963C716.726 166.101 713.598 161.687 709.735 161.503C705.687 161.319 702.376 165.733 703.296 169.595C702.928 167.204 699.8 165.733 697.96 167.02C698.88 164.813 699.616 162.239 699.064 159.664C698.512 157.274 696.673 155.067 694.281 154.515C692.257 154.147 689.865 155.435 689.129 157.274C689.313 154.883 686.922 152.492 684.53 153.044C688.026 150.285 688.026 144.217 684.53 141.458C681.219 138.7 675.331 139.619 673.124 143.481C673.492 141.642 672.572 139.619 670.916 138.516C669.26 137.412 667.052 137.596 665.581 138.516C665.765 134.838 663.741 130.976 660.613 128.953C657.486 126.93 653.254 126.562 649.943 128.218C648.287 128.953 646.999 129.505 646.079 130.976C645.159 132.447 644.791 134.286 644.607 136.125C642.768 147.159 642.768 158.377 644.423 169.411C644.423 172.537 644.791 178.606 646.999 180.445Z" fill="#83831C"/>
<path d="M437.635 180.629C440.026 178.054 441.13 174.376 441.498 170.514C442.234 161.503 441.682 152.308 440.21 143.481C438.923 135.573 434.691 129.137 425.676 130.057C421.077 130.424 416.845 132.999 413.534 136.125C410.59 138.884 410.406 142.562 410.958 146.24C408.383 143.849 403.231 145.688 402.863 149.366C401.392 147.711 399.736 146.056 397.712 145.136C395.688 144.217 393.113 144.217 391.273 145.688C389.433 147.159 388.881 149.918 390.537 151.573C388.513 151.021 386.306 151.389 384.65 152.676C382.994 153.963 382.626 156.538 383.73 158.193C382.074 156.354 379.131 155.986 377.107 157.457C375.083 158.929 374.347 161.871 375.635 164.078C374.163 161.503 370.3 162.791 369.196 165.181C367.172 161.687 362.757 160.032 358.709 159.664C356.502 159.48 354.11 159.48 352.086 160.584C348.039 162.607 346.751 167.756 346.015 172.353C345.095 171.25 343.991 169.963 342.703 169.411C339.392 167.756 336.08 170.146 334.425 172.905C331.113 169.043 326.698 166.101 321.73 165.549C316.763 165.181 311.244 168.124 310.14 173.089C308.116 172.169 306.092 171.25 303.885 171.434C301.677 171.434 299.469 172.721 298.917 174.744C296.526 173.457 293.214 173.457 290.822 174.744C288.431 176.031 286.775 178.422 286.407 181.18H437.635V180.629Z" fill="#83831C"/>
<path d="M667.604 121.045H645.711V107.805L585.183 33.6934L591.622 29.2798L647.919 65.6918L658.774 107.805L667.604 121.045Z" fill="#A8A274"/>
<path d="M667.604 121.045L656.566 109.092H645.711V121.045H667.604Z" fill="#878752"/>
<path d="M524.471 107.805L534.774 65.6918L586.287 30.0154L642.952 69.5537L652.334 107.805V180.629H524.471V107.805Z" fill="#CF6842"/>
<path d="M528.151 107.805H426.045V180.629H528.151V107.805Z" fill="#AB473C"/>
<path d="M424.573 107.805L434.875 65.6918H538.453L528.151 107.805H424.573Z" fill="#EDE8C0"/>
<path d="M434.875 65.6918L487.86 29.2798H591.623L538.454 65.6918H434.875Z" fill="#FCF9DE"/>
<path d="M515.273 121.045H411.694L424.573 107.805H528.151L515.273 121.045Z" fill="#FCF9DE"/>
<path d="M597.878 29.2798L543.237 66.9791L532.934 109.092L521.712 121.045H515.273L528.151 107.805L538.454 65.6918L591.623 29.2798H597.878Z" fill="white"/>
<path d="M591.623 29.2798L646.263 66.9791L656.566 109.092L667.605 121.045H674.044L661.165 107.805L650.863 65.6918L597.878 29.2798H591.623Z" fill="white"/>
<path d="M642.951 69.5537L646.263 66.9791L594.934 31.3027L591.438 33.5095L642.951 69.5537Z" fill="#878752"/>
<path d="M543.237 22.1077H540.661V19.9009L543.237 22.1077Z" fill="#878752"/>
<path d="M522.999 18.6136H501.474V36.6358H522.999V18.6136Z" fill="#AB473C"/>
<path d="M523 36.6358L534.406 29.2798H540.661V18.6137L531.831 10.706L523 18.6137V36.6358Z" fill="#CF6842"/>
<path d="M496.139 20.6366L507.546 10.7061H531.831L520.424 20.6366H496.139Z" fill="#FCF9DE"/>
<path d="M520.608 20.6365H496.139V22.1077H520.608V20.6365Z" fill="#EDE8C0"/>
<path d="M520.424 22.1077L531.83 12.1772V10.706L520.424 20.6365V22.1077Z" fill="#A8A274"/>
<path d="M543.237 22.1077L531.831 12.1772V10.706L543.237 20.6365V22.1077Z" fill="#A8A274"/>
<path d="M614.251 125.275H565.13V180.629H614.251V125.275Z" fill="#9C453B"/>
<path d="M566.785 126.746H563.657V180.445H566.785V126.746Z" fill="#722828"/>
<path d="M612.595 126.746H609.468V180.445H612.595V126.746Z" fill="#722828"/>
<path d="M589.783 126.746H586.655V180.445H589.783V126.746Z" fill="#722828"/>
<path d="M563.707 126.738V129.864H612.829V126.738H563.707Z" fill="#722828"/>
<path d="M563.543 152.831V155.957H612.665V152.831H563.543Z" fill="#722828"/>
<path d="M609.468 126.746L586.655 154.515H589.783L612.596 126.746H609.468Z" fill="#722828"/>
<path d="M566.785 126.746L589.782 154.515H586.654L563.657 126.746H566.785Z" fill="#722828"/>
<path d="M608.18 180.629L586.655 154.515H589.783L611.308 180.629H608.18Z" fill="#722828"/>
<path d="M568.073 180.629L589.782 154.515H586.655L564.946 180.629H568.073Z" fill="#722828"/>
<path d="M568.258 125.275H565.13V180.628H568.258V125.275Z" fill="#FCF9DE"/>
<path d="M614.251 125.275H611.124V180.629H614.251V125.275Z" fill="#FCF9DE"/>
<path d="M591.255 125.275H588.127V180.629H591.255V125.275Z" fill="#FCF9DE"/>
<path d="M565.217 125.266V128.393H614.338V125.266H565.217Z" fill="#FCF9DE"/>
<path d="M565.236 151.36V154.486H614.358V151.36H565.236Z" fill="#FCF9DE"/>
<path d="M611.124 125.275L588.127 152.86H591.255L614.252 125.275H611.124Z" fill="#FCF9DE"/>
<path d="M568.442 125.275L591.254 152.859H588.127L565.13 125.275H568.442Z" fill="#FCF9DE"/>
<path d="M611.124 180.629L588.127 152.86H591.255L614.252 180.629H611.124Z" fill="#FCF9DE"/>
<path d="M568.442 180.629L591.255 152.86H588.127L565.13 180.629H568.442Z" fill="#FCF9DE"/>
<path d="M604.501 72.1283H575.064V104.311H604.501V72.1283Z" fill="#9C453B"/>
<path d="M573.735 102.709V105.651H603.171V102.709H573.735Z" fill="#722828"/>
<path d="M573.734 73.4707V76.4131H603.17V73.4707H573.734Z" fill="#722828"/>
<path d="M573.707 105.51H576.651V73.3275H573.707V105.51Z" fill="#722828"/>
<path d="M600.178 105.51H603.122V73.3275H600.178V105.51Z" fill="#722828"/>
<path d="M576.72 73.4156L600.085 102.656V105.598L576.72 76.358V73.4156Z" fill="#722828"/>
<path d="M600.085 73.4156L576.72 102.656V105.598L600.085 76.358V73.4156Z" fill="#722828"/>
<path d="M574.988 101.339V104.282H604.424V101.339H574.988Z" fill="#FCF9DE"/>
<path d="M574.986 72.1012V75.0436H604.422V72.1012H574.986Z" fill="#FCF9DE"/>
<path d="M575.061 104.361H578.005V72.1782H575.061V104.361Z" fill="#FCF9DE"/>
<path d="M601.532 104.361H604.476V72.1782H601.532V104.361Z" fill="#FCF9DE"/>
<path d="M578.008 72.1282L601.373 101.368V104.311L578.008 75.0706V72.1282Z" fill="#FCF9DE"/>
<path d="M601.373 72.1282L578.008 101.368V104.311L601.373 75.0706V72.1282Z" fill="#FCF9DE"/>
<path d="M471.67 140.539H451.801V161.135H471.67V140.539Z" fill="#9C453B"/>
<path d="M450.627 159.577V161.967H470.497V159.577H450.627Z" fill="#722828"/>
<path d="M450.734 141.448V143.839H470.604V141.448H450.734Z" fill="#722828"/>
<path d="M450.683 162.114H453.075V141.518H450.683V162.114Z" fill="#722828"/>
<path d="M468.242 162.07H470.634V142.945H468.242V162.07Z" fill="#722828"/>
<path d="M451.724 158.738V161.129H471.594V158.738H451.724Z" fill="#FCF9DE"/>
<path d="M451.647 140.609V143H471.516V140.609H451.647Z" fill="#FCF9DE"/>
<path d="M451.677 161.098H454.069V140.502H451.677V161.098Z" fill="#FCF9DE"/>
<path d="M469.236 161.098H471.628V140.502H469.236V161.098Z" fill="#FCF9DE"/>
<path d="M489.148 140.539H469.279V161.135H489.148V140.539Z" fill="#9C453B"/>
<path d="M469.222 159.59V161.98H488.171V159.59H469.222Z" fill="#722828"/>
<path d="M469.329 141.461V143.852H488.278V141.461H469.329Z" fill="#722828"/>
<path d="M485.801 162.114H488.192V141.518H485.801V162.114Z" fill="#722828"/>
<path d="M469.243 158.778V161.169H489.113V158.778H469.243Z" fill="#FCF9DE"/>
<path d="M469.166 140.65V143.041H489.035V140.65H469.166Z" fill="#FCF9DE"/>
<path d="M469.236 161.098H471.628V140.502H469.236V161.098Z" fill="#FCF9DE"/>
<path d="M486.795 161.098H489.187V140.502H486.795V161.098Z" fill="#FCF9DE"/>
<g clip-path="url(#clip1)">
<rect width="1380" height="400" transform="translate(-132 -98)" fill="#B3B3B3"/>
<path d="M16.14 23.26C16.14 23.78 14.92 24.2 12.48 24.52C10.08 24.84 7.64 25 5.16 25C2.72 25 1.14 24.86 0.42 24.58C-0.26 24.3 -0.6 23.86 -0.6 23.26V-13.64C-0.6 -14.64 0.56 -15.54 2.88 -16.34C5.2 -17.18 7.72 -17.6 10.44 -17.6C14.24 -17.6 16.14 -16.7 16.14 -14.9V-1.7H21.48V-13.64C21.48 -14.64 22.64 -15.54 24.96 -16.34C27.32 -17.18 29.86 -17.6 32.58 -17.6C36.34 -17.6 38.22 -16.7 38.22 -14.9V23.26C38.22 23.78 37 24.2 34.56 24.52C32.12 24.84 29.68 25 27.24 25C24.8 25 23.22 24.86 22.5 24.58C21.82 24.3 21.48 23.86 21.48 23.26V9.52H16.14V23.26ZM61.4738 11.44C61.4738 14.04 62.7138 15.34 65.1938 15.34C66.6338 15.34 68.5138 14.86 70.8338 13.9C73.1538 12.9 74.3738 12.4 74.4938 12.4C75.2538 12.4 76.2538 13.54 77.4937 15.82C78.7338 18.1 79.3538 19.78 79.3538 20.86C79.3538 22.42 77.7538 23.6 74.5538 24.4C71.3538 25.2 68.2138 25.6 65.1338 25.6C62.0938 25.6 59.5338 25.36 57.4538 24.88C55.4138 24.4 53.7338 23.8 52.4137 23.08C51.1338 22.32 49.9938 21.4 48.9938 20.32C48.0338 19.24 47.3138 18.22 46.8338 17.26C46.3538 16.26 45.9738 15.16 45.6938 13.96C45.2938 12.2 45.0938 10.38 45.0938 8.5C45.0938 1.22 46.9938 -3.8 50.7938 -6.56C52.6738 -7.96 54.7738 -8.94 57.0938 -9.5C59.4138 -10.06 62.1538 -10.34 65.3138 -10.34C75.4338 -10.34 80.4938 -6.82 80.4938 0.219999C80.4938 7.7 74.8138 11.44 63.4538 11.44H61.4738ZM61.3538 2.68V6.64C62.5138 6.64 63.4538 6.18 64.1738 5.26C64.9338 4.34 65.3138 3.22 65.3138 1.9C65.3138 -0.500001 64.6938 -1.7 63.4538 -1.7C62.0538 -1.7 61.3538 -0.240001 61.3538 2.68ZM98.4727 25.54C94.8327 25.54 91.9727 24.68 89.8927 22.96C89.0527 22.24 88.3127 21.18 87.6727 19.78C87.0727 18.38 86.7727 16.74 86.7727 14.86C86.7727 12.98 87.2127 11.34 88.0927 9.94C89.0127 8.54 90.1127 7.46 91.3927 6.7C92.6727 5.94 94.1727 5.32 95.8927 4.84C98.4927 4.16 101.353 3.82 104.473 3.82H106.453C106.453 2.18 105.893 1.02 104.773 0.339999C104.293 0.0599992 103.553 -0.0800008 102.553 -0.0800008C101.593 -0.0800008 100.413 0.179999 99.0127 0.699998C97.6527 1.22 96.5127 1.76 95.5927 2.32C94.6727 2.84 94.0527 3.1 93.7327 3.1C93.0127 3.1 92.0327 2.16 90.7927 0.279998C89.5527 -1.64 88.9327 -3.38 88.9327 -4.94C88.9327 -5.46 89.6727 -6.14 91.1527 -6.98C92.6327 -7.82 94.7127 -8.58 97.3927 -9.26C100.113 -9.98 102.753 -10.34 105.313 -10.34C107.873 -10.34 110.073 -10.12 111.913 -9.68C113.793 -9.28 115.313 -8.78 116.473 -8.18C117.673 -7.58 118.673 -6.78 119.473 -5.78C120.313 -4.78 120.933 -3.88 121.333 -3.08C121.773 -2.28 122.093 -1.24 122.293 0.0399995C122.573 1.52 122.713 3.34 122.713 5.5V23.56C122.713 24 121.633 24.36 119.473 24.64C117.353 24.88 115.233 25 113.113 25C111.033 25 109.673 24.94 109.033 24.82C108.433 24.7 108.073 24.56 107.953 24.4C107.833 24.24 107.733 23.96 107.653 23.56L107.173 20.14H106.693C105.693 23.74 102.953 25.54 98.4727 25.54ZM106.513 15.58V8.56C105.473 8.56 104.633 9 103.993 9.88C103.353 10.76 103.033 11.76 103.033 12.88C103.033 15.52 103.633 16.84 104.833 16.84C105.353 16.84 105.753 16.72 106.033 16.48C106.353 16.2 106.513 15.9 106.513 15.58ZM141.196 25.54C139.716 25.54 138.336 25.32 137.056 24.88C135.776 24.44 134.716 23.9 133.876 23.26C133.076 22.62 132.376 21.76 131.776 20.68C131.176 19.6 130.716 18.58 130.396 17.62C130.076 16.62 129.836 15.4 129.676 13.96C129.436 11.84 129.316 9.42 129.316 6.7C129.316 1.14 130.336 -3.08 132.376 -5.96C134.416 -8.88 137.216 -10.34 140.776 -10.34C144.416 -10.34 147.056 -9.48 148.696 -7.76C149.056 -7.36 149.336 -6.88 149.536 -6.32H150.016L149.296 -10.46V-17.96C149.296 -18.84 150.416 -19.7 152.656 -20.54C154.896 -21.38 157.316 -21.8 159.916 -21.8C162.636 -21.8 164.376 -21.28 165.136 -20.24C165.416 -19.84 165.556 -19.44 165.556 -19.04V23.56C165.556 24 164.436 24.36 162.196 24.64C159.996 24.88 157.856 25 155.776 25C153.736 25 152.416 24.94 151.816 24.82C151.256 24.66 150.896 24.5 150.736 24.34C150.616 24.18 150.536 23.92 150.496 23.56L150.016 20.14H149.536C149.176 21.54 148.456 22.72 147.376 23.68C146.016 24.92 143.956 25.54 141.196 25.54ZM147.916 16.78C148.556 16.78 149.036 16.38 149.356 15.58V-0.440001C149.356 -0.840001 149.136 -1.14 148.696 -1.34C148.296 -1.58 147.936 -1.7 147.616 -1.7C146.256 -1.7 145.576 1.42 145.576 7.66C145.576 10.98 145.756 13.34 146.116 14.74C146.516 16.1 147.116 16.78 147.916 16.78ZM188.54 11.44C188.54 14.04 189.78 15.34 192.26 15.34C193.7 15.34 195.58 14.86 197.9 13.9C200.22 12.9 201.44 12.4 201.56 12.4C202.32 12.4 203.32 13.54 204.56 15.82C205.8 18.1 206.42 19.78 206.42 20.86C206.42 22.42 204.82 23.6 201.62 24.4C198.42 25.2 195.28 25.6 192.2 25.6C189.16 25.6 186.6 25.36 184.52 24.88C182.48 24.4 180.8 23.8 179.48 23.08C178.2 22.32 177.06 21.4 176.06 20.32C175.1 19.24 174.38 18.22 173.9 17.26C173.42 16.26 173.04 15.16 172.76 13.96C172.36 12.2 172.16 10.38 172.16 8.5C172.16 1.22 174.06 -3.8 177.86 -6.56C179.74 -7.96 181.84 -8.94 184.16 -9.5C186.48 -10.06 189.22 -10.34 192.38 -10.34C202.5 -10.34 207.56 -6.82 207.56 0.219999C207.56 7.7 201.88 11.44 190.52 11.44H188.54ZM188.42 2.68V6.64C189.58 6.64 190.52 6.18 191.24 5.26C192 4.34 192.38 3.22 192.38 1.9C192.38 -0.500001 191.76 -1.7 190.52 -1.7C189.12 -1.7 188.42 -0.240001 188.42 2.68ZM230.339 6.04V23.56C230.339 24 229.199 24.36 226.919 24.64C224.679 24.88 222.339 25 219.899 25C217.499 25 215.939 24.9 215.219 24.7C214.499 24.46 214.139 24.08 214.139 23.56V-6.02C214.139 -6.78 215.239 -7.6 217.439 -8.48C219.679 -9.36 222.099 -9.8 224.699 -9.8C227.339 -9.8 228.819 -9.08 229.139 -7.64L229.739 -4.88H230.159C230.719 -6.4 232.059 -7.68 234.179 -8.72C236.299 -9.8 238.419 -10.34 240.539 -10.34C242.659 -10.34 244.139 -10 244.979 -9.32C245.859 -8.64 246.299 -7.76 246.299 -6.68C246.299 -5.64 246.219 -4.3 246.059 -2.66C245.899 -1.02 245.499 0.759999 244.859 2.68C244.259 4.6 243.459 5.56 242.459 5.56C242.059 5.56 240.799 5.26 238.679 4.66C236.559 4.06 234.799 3.76 233.399 3.76C232.039 3.76 231.179 3.96 230.819 4.36C230.499 4.76 230.339 5.32 230.339 6.04Z" fill="#A16552"/>
<g clip-path="url(#clip2)">
<path d="M757 -122H-4V639H757V-122Z" fill="#49B4E5"/>
<path opacity="0.5" d="M663.341 63.3985C637.971 63.5728 612.523 63.4372 587.23 61.1325C574.661 59.9899 562.034 58.6149 549.736 55.6517C527.967 50.4033 506.47 43.7605 485.302 36.5173C460.707 28.0927 435.723 18.9516 413.142 5.89835C403.942 0.572475 381.535 -11.9966 387.907 -25.9988C391.741 -34.4234 402.316 -38.2774 410.74 -39.4588C427.977 -41.8602 446.143 -38.2386 463.089 -35.2755C483.346 -31.7314 503.72 -28.8264 524.036 -25.6696C537.999 -23.5005 551.982 -21.4282 566.023 -19.937C579.599 -18.5038 593.214 -17.8454 606.79 -16.4316C656.641 -11.1832 706.82 -2.27445 757 -5.79921V-26.328C719.622 -24.1396 682.418 -23.1712 644.962 -25.0498C586.223 -28.013 529.284 -43.4483 471.416 -52.5895C441.805 -57.2569 411.844 -60.3362 381.845 -59.0773C352.136 -57.8185 322.757 -53.1705 293.687 -47.0699C236.807 -35.1206 180.507 -18.039 122.233 -14.1851C80.0323 -11.3769 37.9869 -14.4756 -3.98096 -18.6394V0.049572C14.3401 7.7382 35.0432 8.78401 54.6618 7.9706C77.4565 7.02163 100.019 3.5356 122.601 0.495007C146.209 -2.68115 169.856 -5.12137 193.444 -8.62677C219.667 -12.5389 246.18 -16.3929 272.771 -15.7925C324.713 -14.5917 372.839 8.51288 418.932 30.4555C465.393 52.5918 512.687 75.6383 564.377 82.1068C622.962 89.4468 682.011 85.6316 740.848 85.1474C746.27 85.1087 751.654 85.128 757.038 85.2636V63.9214C725.838 62.3333 694.464 63.1854 663.341 63.3985Z" fill="#ACEBFF"/>
<path opacity="0.5" d="M123.724 129.943C135.944 125.024 150.76 119.194 159.494 108.833C162.651 105.076 164.859 100.079 162.322 95.3536C159.301 89.7566 153.258 85.767 147.351 83.7335C131.374 78.2333 113.15 79.7439 96.6104 81.1771C80.6521 82.5521 64.5002 85.4959 48.4451 85.2635C31.2086 85.0117 13.5074 83.4623 -3.47734 80.5767C-3.65164 80.538 -3.82594 80.5186 -4.00024 80.4799V156.94C4.42432 156.514 12.8102 155.817 21.1573 154.868C56.0563 150.936 91.0715 143.093 123.724 129.943Z" fill="#ACEBFF"/>
<path opacity="0.5" d="M530.33 169.025C540.246 161.743 553.842 160.155 565.733 159.09C581.672 157.676 597.708 157.851 613.685 156.94C662.064 154.171 709.183 142.415 757 135.385V120.337C731.532 122.37 706.181 125.489 680.946 129.42C656.447 133.255 632.142 138.6 607.488 141.214C544.216 147.954 480.887 140.73 417.654 137.438C386.28 135.811 354.383 134.494 323.086 137.903C294.133 141.059 265.818 148.032 238.201 157.115C211.514 165.888 185.427 176.326 159.127 186.204C133.272 195.906 107.185 205.628 79.9743 210.761C52.4153 215.951 24.2172 218.217 -3.98088 218.178V243.917C-3.05127 243.975 -2.12166 244.033 -1.19205 244.091C13.6042 245.001 28.4005 246.415 43.2161 247.112C53.1706 247.577 62.8928 247.751 72.6149 245.33C85.0484 242.232 97.2883 238.397 109.664 235.047C123.743 231.231 138.21 227.261 152.813 226.119C160.153 225.538 169.604 224.995 172.974 232.897C178.474 245.737 165.769 259.12 157.229 266.983C139.857 282.999 118.921 295.258 98.3147 306.568C72.9054 320.493 46.6634 332.849 20.0921 344.353C12.0742 347.839 4.03699 351.189 -4.00024 354.482V387.773C35.0239 383.706 70.8332 363.7 101.878 340.635C136.99 314.547 168.035 283.444 198.402 252.089C211.63 238.436 224.722 224.627 238.279 211.303C254.682 195.19 273.081 181.923 294.307 172.84C315.378 163.854 337.844 158.548 360.619 156.398C383.143 154.268 407.545 153.338 429.604 159.148C470.08 169.819 499.324 201.019 527.619 229.914C541.931 244.536 556.34 259.294 573.228 270.972C589.341 282.108 606.791 291.269 624.821 298.88C665.046 315.864 708.292 326.419 751.732 330.68C753.475 330.854 755.237 331.009 756.98 331.164V302.327C751.519 301.92 746.038 301.533 740.538 301.281C721.365 300.41 702.114 299.771 683.096 297.001C638.92 290.552 594.996 271.243 560.775 242.445C546.269 230.244 531.473 215.157 524.695 197.068C520.918 187.017 520.957 175.9 530.33 169.025Z" fill="#ACEBFF"/>
<path d="M644.149 8.16453C633.575 10.9727 633.769 17.6349 638.01 22.5153C638.455 23.1932 638.94 23.7935 639.404 24.2777C641.457 26.4081 647.403 29.7004 653.465 28.6933C660.301 27.5507 663.865 24.7812 665.453 21.7988C668.106 16.7828 661.153 3.65207 644.149 8.16453Z" fill="white"/>
<path d="M695.956 9.46212C691.462 10.6629 691.54 13.4904 693.341 15.5433C693.535 15.8338 693.728 16.0856 693.941 16.2986C694.813 17.2089 697.331 18.6033 699.906 18.1772C702.811 17.693 704.322 16.5116 705 15.2528C706.123 13.1225 703.179 7.5448 695.956 9.46212Z" fill="white"/>
<g style="mix-blend-mode:multiply" opacity="0.5">
<path d="M710.734 -15.5629C712.032 -14.259 713.614 -13.4502 714.866 -12.0591C715.739 -11.0966 716.719 -9.75345 717.557 -8.71189C717.963 -8.20627 718.609 -7.52696 719.069 -6.831C717.764 -8.57864 713.598 -9.90815 711.633 -10.8417C708.89 -12.1827 706.065 -13.3573 703.191 -14.4264C695.204 -17.3547 686.947 -19.4887 678.542 -20.7974C665.085 -23.1773 651.222 -21.4146 638.789 -15.7426C626.754 -9.9087 616.222 -1.38513 608.008 9.16903C595.888 24.5553 589.501 46.4709 591.251 66.0227C591.83 72.4164 594.596 78.4665 596.624 84.5103C601.546 99.2747 610.711 112.26 622.974 121.843C629.5 126.742 636.696 130.679 644.341 133.533C638.413 133.987 632.445 131.16 626.835 129.711C625.837 129.464 623.557 128.533 622.762 129.655C622.214 130.445 623.845 131.748 624.267 132.108C626.355 133.69 628.619 135.026 631.014 136.09C634.137 137.593 637.373 138.849 640.692 139.846C647.088 141.983 653.614 143.71 660.23 145.015C666.953 146.343 673.782 147.054 680.634 147.141C683.609 147.186 686.584 147.078 689.547 146.818C692.378 146.59 695.12 145.901 697.935 145.552C698.853 145.43 700.909 145.109 701.163 143.955C701.348 143.108 700.432 142.445 699.765 142.216C696.951 141.486 694.087 140.962 691.196 140.648C688.408 140.35 685.638 139.904 682.897 139.312C695.053 138.197 707.252 135.915 717.661 129.211C728.362 122.373 737.132 111.394 743.195 100.361C750.515 87.1013 751.16 71.8335 752.235 57.1016C753.152 44.5951 749.86 33.1907 743.938 22.3862C746.98 25.246 749.692 28.4382 752.021 31.9029C752.904 33.1247 755.774 37.7095 757.748 36.9551C761.019 35.7234 752.777 22.4888 751.951 21.1717C746.555 12.7803 740.266 4.99841 733.193 -2.03784C726.795 -8.54739 719.712 -14.107 710.813 -16.6249C710.19 -16.7571 710.551 -15.7489 710.734 -15.5629ZM696.272 33.0869C696.329 33.1577 696.378 33.2183 696.497 33.2221C700.514 35.8316 703.823 39.3932 706.131 43.5902C708.252 47.7037 709.391 52.2532 709.457 56.881C709.514 66.6953 706.217 76.2347 700.113 83.9201C696.49 88.6239 691.734 92.3328 686.289 94.7005C682.947 96.3846 679.334 97.4634 675.616 97.8869C669.23 98.6523 662.754 98.0741 656.605 96.1894C651.594 94.6046 647.02 91.877 643.243 88.2217C639.467 84.5664 636.592 80.0835 634.845 75.1268C634.142 73.5589 633.571 71.9349 633.139 70.2718C628.462 52.1737 637.49 29.4007 655.872 22.9641C669.811 18.084 685.718 23.0432 696.272 33.0869Z" fill="#49B4E5"/>
</g>
<path d="M730.216 7.86394L730.346 8.02575C733.623 12.0999 736.485 16.4919 738.888 21.136C739.498 22.3098 740.034 23.4109 740.553 24.5748C741.073 25.7387 741.674 27.0868 742.163 28.3581C742.652 29.6295 743.132 30.909 743.591 32.2048C744.36 34.5494 745.036 36.9024 745.589 39.2881C748.253 50.7727 748.309 62.7085 745.751 74.2174C743.599 83.9301 739.616 93.1438 734.014 101.365C732.993 102.869 731.92 104.331 730.785 105.776C723.449 115.003 714.15 122.479 703.562 127.66C692.993 132.856 681.39 135.607 669.612 135.708C657.834 135.795 646.189 133.221 635.545 128.178C624.901 123.135 615.533 115.752 608.142 106.582L607.987 106.39C600.577 97.212 595.336 86.4791 592.654 74.9923C589.971 63.5054 589.918 51.5612 592.497 40.0507C593.352 36.2935 594.481 32.6039 595.875 29.0114C598.704 21.6381 602.637 14.7377 607.54 8.54626C608.31 7.57788 609.116 6.61347 609.939 5.66927C616.858 -2.25686 625.291 -8.71983 634.744 -13.3397C641.747 -16.7703 649.227 -19.1244 656.932 -20.3224C660.86 -20.9394 664.828 -21.2638 668.804 -21.2928C680.573 -21.357 692.205 -18.7692 702.837 -13.7216C713.468 -8.67393 722.826 -1.29614 730.216 7.86394Z" fill="white"/>
<path d="M703.626 127.759C714.213 122.578 723.512 115.102 730.848 105.875C735.73 99.6934 739.646 92.807 742.463 85.4509L699.149 68.8467C698.001 71.8274 696.413 74.6192 694.438 77.1293C691.412 80.9268 687.582 84.0059 683.223 86.1447C680.384 87.5427 677.348 88.501 674.221 88.9867L681.412 134.813C689.128 133.587 696.616 131.21 703.626 127.759ZM644.273 77.5362L644.119 77.344C641.09 73.6069 638.95 69.2311 637.859 64.5465C636.41 58.2472 636.875 51.6585 639.196 45.6256L595.905 28.9869C590.252 43.6542 589.13 59.6803 592.685 74.992C595.34 86.4843 600.561 97.2267 607.957 106.414L608.111 106.606L644.273 77.5362ZM668.967 25.0891C673.817 25.0732 678.61 26.1396 682.996 28.2108C687.328 30.2658 691.138 33.2767 694.138 37.0171L730.216 7.86386C722.827 -1.29623 713.469 -8.67402 702.837 -13.7217C692.205 -18.7693 680.573 -21.3571 668.804 -21.2929C664.839 -21.2704 660.881 -20.9542 656.963 -20.3469L664.143 25.4876C665.739 25.2368 667.351 25.1036 668.967 25.0891Z" fill="#FF2E35"/>
<path d="M699.069 33.1695C705.445 41.101 708.41 51.24 707.312 61.3572C706.214 71.4743 701.142 80.7412 693.213 87.1199L692.354 87.8109C684.39 93.8053 674.407 96.4666 664.517 95.2318C654.627 93.997 645.605 88.9629 639.36 81.1947C633.115 73.4264 630.137 63.5333 631.056 53.6086C631.975 43.6839 636.72 34.5061 644.285 28.017L645.145 27.326C653.072 20.9534 663.205 17.9893 673.316 19.085C683.428 20.1808 692.691 25.2468 699.069 33.1695Z" fill="#49B4E5"/>
<g opacity="0.25">
<path d="M730.216 7.86382L730.346 8.02563C733.624 12.0998 736.485 16.4918 738.888 21.1359C739.499 22.3097 740.034 23.4107 740.554 24.5746C741.073 25.7386 741.674 27.0867 742.163 28.358C742.653 29.6294 743.132 30.9089 743.591 32.2046C744.36 34.5493 745.037 36.9023 745.589 39.2879C748.254 50.7726 748.309 62.7084 745.751 74.2173C743.599 83.93 739.616 93.1437 734.015 101.365C726.495 110.011 717.174 116.905 706.705 121.564C696.237 126.222 684.875 128.531 673.419 128.329C661.962 128.126 650.689 125.418 640.392 120.393C630.094 115.368 621.022 108.149 613.812 99.2434L613.658 99.0513C605.041 88.3363 599.39 75.5456 597.272 61.9598C595.153 48.3741 596.641 34.4701 601.586 21.6402C603.74 15.9966 606.554 10.6275 609.969 5.64475C616.888 -2.28138 625.322 -8.74435 634.775 -13.3643C641.777 -16.7948 649.257 -19.1489 656.963 -20.3469C660.881 -20.9543 664.839 -21.2705 668.804 -21.293C680.573 -21.3572 692.205 -18.7693 702.837 -13.7217C713.469 -8.67405 722.827 -1.29626 730.216 7.86382Z" fill="white"/>
</g>
<g opacity="0.22">
<path opacity="0.22" d="M602.315 98.3812C604.037 101.166 605.932 103.841 607.987 106.39L608.077 106.501L607.243 107.721L606.974 108.153L606.397 109.133L606.179 109.525C605.933 110.006 605.677 110.495 605.447 110.996C605.338 111.233 605.229 111.47 605.139 111.71L604.987 111.832L604.896 111.905L604.684 112.076C604.289 112.633 603.731 113.053 603.086 113.277L602.554 115.619C602.498 115.855 602.353 116.06 602.15 116.192C601.947 116.325 601.7 116.374 601.462 116.33L601.127 116.349L600.793 116.285C600.55 116.231 600.335 116.09 600.19 115.888C600.102 115.777 600.039 115.649 600.006 115.511C599.973 115.373 599.971 115.23 600 115.092L600.481 112.791C599.969 112.399 599.595 111.854 599.413 111.235C599.105 109.994 599.042 108.705 599.226 107.44C599.598 104.953 600.318 102.53 601.365 100.244C601.669 99.5999 601.985 98.9791 602.315 98.3812Z" fill="black"/>
</g>
<g opacity="0.5">
<path opacity="0.5" d="M604.756 97.4006L604.837 97.3356L605.302 96.9617L605.515 96.7909L605.879 96.4983C606.293 96.165 606.659 95.771 607.063 95.4458L607.124 95.3971C607.306 95.2507 607.478 95.1125 607.66 94.9662L608.51 94.2834L608.965 93.9175L609.177 93.7468L609.42 93.5517L609.925 93.1453L610.35 92.8038L611.165 92.348L611.368 92.1854L611.965 91.8719L612.374 91.6764L613.161 91.3098L613.442 91.1835L613.503 91.1348L613.987 90.929L614.507 90.7271C614.902 90.5762 615.305 90.4355 615.706 90.3129L616.032 90.2007L617.261 89.8452L617.352 89.772L617.423 89.7151L617.801 89.6271L618.407 89.4899L618.605 89.4469C619.095 89.3525 619.604 89.2601 620.088 89.2205C620.572 89.1808 621.156 89.0781 621.686 89.0343L621.747 88.9855L622.851 88.9302L623.23 88.9253L623.591 88.9183C623.988 88.9154 624.383 88.9306 624.778 88.9459L625.218 88.9753L625.978 89.0302L626.361 89.0718C626.459 89.0733 626.557 89.0839 626.653 89.1036L626.945 89.1353L627.263 89.1791C627.636 89.2289 627.999 89.2868 628.37 89.3548C628.704 89.4188 629.029 89.491 629.361 89.5733C631.612 90.1652 633.906 90.5811 636.221 90.8174C636.897 90.8652 637.575 90.7489 638.196 90.4784C638.353 90.3932 638.494 90.2803 638.611 90.1451C638.669 90.0806 638.717 90.0081 638.754 89.9299C638.801 89.856 638.837 89.7762 638.863 89.6926C638.925 89.5053 638.965 89.3114 638.981 89.1148C639.007 88.7294 638.971 88.3423 638.875 87.9682C638.83 87.7772 638.774 87.5892 638.706 87.4053C638.272 86.3561 637.639 85.4005 636.843 84.5911C634.003 82.1984 630.689 80.433 627.119 79.4106C623.549 78.3882 619.803 78.1319 616.127 78.6586C612.451 79.1852 608.928 80.4829 605.788 82.4665C602.649 84.4501 599.964 87.0749 597.91 90.1688C599.388 93.3619 601.078 96.4528 602.968 99.4211C603.248 99.0455 603.537 98.6801 603.844 98.3167C604.152 97.9532 604.455 97.7094 604.756 97.4006Z" fill="black"/>
</g>
<path d="M594.396 101.784L596.95 102.311L595.913 107.357C595.854 107.591 595.708 107.795 595.506 107.927C595.303 108.058 595.058 108.109 594.82 108.069L594.161 107.932C593.928 107.871 593.727 107.725 593.595 107.523C593.464 107.321 593.412 107.078 593.45 106.84L594.396 101.784Z" fill="#AC752C"/>
<path d="M594.396 101.784L595.677 102.052L594.445 108.037L594.111 107.973C593.878 107.911 593.676 107.765 593.545 107.564C593.413 107.362 593.361 107.118 593.399 106.881L594.396 101.784Z" fill="#7D551F"/>
<path d="M592.592 99.1883C592.954 96.6988 593.675 94.2748 594.731 91.9918C596.451 88.2829 599.011 85.0251 602.207 82.476C605.403 79.9268 609.149 78.1564 613.147 77.3046C617.146 76.4528 621.288 76.543 625.245 77.5682C629.203 78.5933 632.868 80.5253 635.95 83.2112C636.746 84.0207 637.379 84.9762 637.813 86.0254C638.12 86.7455 638.179 87.5473 637.98 88.3046C637.949 88.386 637.913 88.4653 637.872 88.5419C637.834 88.6201 637.786 88.6926 637.728 88.7571C637.395 89.0256 637.011 89.2229 636.598 89.3368C636.186 89.4508 635.754 89.4788 635.331 89.4193C633.012 89.1844 630.715 88.765 628.463 88.1651C628.13 88.0828 627.806 88.0106 627.471 87.9466C627.1 87.8786 626.737 87.8207 626.364 87.7709L626.046 87.7271L625.768 87.6507C625.672 87.6311 625.575 87.6204 625.476 87.619L625.093 87.5774L624.333 87.5224L623.894 87.4931C623.498 87.4778 623.103 87.4625 622.706 87.4655L622.315 87.4968L621.936 87.5018L620.832 87.5571L620.771 87.6059C620.238 87.6463 619.705 87.7084 619.173 87.792C618.669 87.8479 618.16 87.9403 617.69 88.0184L617.492 88.0615C617.162 88.1271 616.821 88.2008 616.508 88.2867L616.437 88.3436L616.346 88.4168C615.413 88.6635 614.494 88.9579 613.592 89.2987L613.072 89.5005L612.351 89.5975L612.29 89.6462L612.009 89.7725L611.144 90.1677L610.721 90.3247L610.124 90.6382L609.922 90.8008L609.106 91.2566C607.92 91.9691 606.792 92.7754 605.734 93.6678L605.674 93.7166C605.269 94.0418 604.854 94.3751 604.489 94.7691C604.296 94.9235 604.104 95.078 603.961 95.2931L603.496 95.667L603.415 95.7321L602.542 96.7169C600.98 98.5488 599.677 100.587 598.672 102.775L598.422 103.541L598.261 103.671L598.17 103.744L598.109 103.793C597.699 104.367 597.12 104.798 596.452 105.025C595.735 105.178 594.988 105.104 594.316 104.811C593.94 104.634 593.609 104.374 593.348 104.05C593.088 103.725 592.904 103.346 592.812 102.941C592.483 101.718 592.408 100.441 592.592 99.1883Z" fill="#FFD54F"/>
<path d="M594.326 104.803C594.617 102.407 595.235 100.061 596.164 97.8325L596.587 96.9095C598.259 93.2861 600.732 90.0897 603.819 87.5615C606.907 85.0333 610.528 83.2393 614.41 82.3149C618.292 81.3905 622.333 81.3599 626.229 82.2252C630.124 83.0906 633.772 84.8293 636.898 87.3104C637.085 87.5429 637.373 87.6942 637.6 87.8943C637.828 88.0944 637.897 88.1388 638.039 88.2742C638.008 88.3557 637.972 88.4349 637.93 88.5115C637.893 88.5897 637.845 88.6622 637.787 88.7267C637.454 88.9952 637.069 89.1925 636.657 89.3064C636.244 89.4203 635.813 89.4484 635.389 89.3889C633.07 89.154 630.773 88.7346 628.521 88.1347C628.189 88.0524 627.864 87.9802 627.53 87.9162C627.159 87.8482 626.796 87.7903 626.423 87.7405C626.403 87.7503 626.386 87.7642 626.372 87.7811L626.145 87.7472L625.768 87.6509C625.669 87.6308 625.568 87.6291 625.476 87.6191L625.093 87.5775L624.333 87.5226L623.893 87.4932L623.148 87.4767L622.706 87.4656L622.315 87.497L621.936 87.5019L620.832 87.5572L620.771 87.606L620.329 87.5949C619.892 87.6304 619.452 87.6841 619.021 87.7479C618.589 87.8118 618.148 87.8837 617.714 87.9658L617.518 87.9906L617.319 88.0336L616.714 88.1708L616.295 88.2914L616.224 88.3483L616.133 88.4215L615.6 88.5666L615.209 88.681L615.078 88.7867L614.533 88.9582L614.025 89.1336L613.42 89.3539L612.899 89.5558L612.35 89.5976L612.29 89.6464L612.008 89.7727L611.144 90.1678L610.721 90.3249L610.124 90.6383L609.922 90.8009L609.709 90.9716L609.139 91.2972L608.714 91.6386L608.208 92.0451L607.956 92.2483L607.753 92.4109L607.298 92.7767L606.823 93.1588L605.852 93.9392L605.347 94.3457L605.033 94.5977L604.619 94.931L604.254 95.2236L604.042 95.3943L603.577 95.7683L603.496 95.8333L603.161 96.2029L602.906 96.5075L602.593 96.7595L602.221 97.2082L601.988 97.3951L601.526 98.0001L601.223 98.4101L600.796 99.019L600.52 99.4412L600.116 100.099L599.868 100.515C599.712 100.756 599.583 101.01 599.446 101.253L599.295 101.541L599.194 101.623L598.649 102.726L598.422 103.541L598.26 103.671L598.169 103.745L598.109 103.793C597.699 104.367 597.12 104.798 596.452 105.025C595.738 105.174 594.995 105.096 594.326 104.803Z" fill="#FFB300"/>
<path d="M635.359 89.4132C636.036 89.1093 636.623 88.6339 637.06 88.0341C637.498 87.4343 637.771 86.7308 637.853 85.993C638.161 86.7131 638.219 87.5149 638.021 88.2722C637.99 88.3536 637.954 88.4329 637.912 88.5095C637.875 88.5877 637.827 88.6601 637.769 88.7247C637.436 88.9994 637.051 89.2024 636.636 89.3209C636.221 89.4394 635.787 89.4709 635.359 89.4132Z" fill="#7D551F"/>
<g opacity="0.5">
<path opacity="0.5" d="M738.92 21.1763C738.669 21.1951 738.447 21.4571 738.306 22.0693C737.871 23.8677 735.495 29.5896 732.424 31.4429C731.575 31.9606 730.576 32.1771 729.588 32.0575C728.511 31.1637 727.603 30.0835 726.908 28.8684C726.562 26.7917 725.971 24.7634 725.147 22.826C724.806 21.907 724.212 21.1033 723.433 20.5079C723.274 20.0199 723.082 19.4915 722.915 18.9935C722.796 18.521 722.554 18.0883 722.215 17.7388C721.875 17.3893 721.45 17.1352 720.981 17.0021C720.903 16.9763 720.82 16.9674 720.738 16.976C720.656 16.9845 720.577 17.0104 720.505 17.0519C720.403 17.1249 720.305 17.2036 720.212 17.2876C719.994 17.4513 719.837 17.6842 719.768 17.9482C719.699 18.2123 719.722 18.4919 719.832 18.7414L720.845 21.0571C720.19 21.735 719.713 22.5646 719.457 23.4717C718.388 26.8887 718.069 30.4957 718.519 34.0473C718.606 35.0549 718.613 36.0678 718.541 37.0766C717.85 38.8198 716.815 40.4055 715.496 41.7383C713.604 43.5259 708.374 47.747 704.755 42.1488C704.701 42.0673 704.627 42.0015 704.539 41.9579C704.452 41.9144 704.354 41.8947 704.256 41.9007C705.189 43.9608 705.939 46.099 706.496 48.2904C708.212 49.5751 710.923 50.2759 715.391 47.7992L715.502 47.7098C713.779 49.8759 711.624 51.6594 709.174 52.9466C708.533 53.2953 707.938 53.5906 707.389 53.8323C707.479 54.8757 707.532 55.915 707.538 56.9586C711.584 56.5625 715.399 54.8892 718.431 52.181C722.014 49.3607 724.71 45.5693 726.198 41.2589C726.417 40.5999 726.582 39.9349 726.738 39.2597C731.823 39.7664 734.618 39.1843 738.634 36.5385C740.471 35.3304 742.147 33.8938 743.621 32.2633C743.172 30.9594 742.703 29.6718 742.194 28.4167C740.778 29.8288 739.215 31.0852 737.532 32.1643C739.326 30.0341 740.388 27.383 740.559 24.603L738.92 21.1763Z" fill="black"/>
</g>
<path d="M699.069 33.1695C705.445 41.1009 708.41 51.24 707.312 61.3571C706.214 71.4743 701.142 80.7411 693.213 87.1199L692.354 87.8109C699.919 81.3218 704.663 72.1439 705.583 62.2192C706.502 52.2945 703.524 42.4015 697.279 34.6332C691.034 26.8649 682.012 21.8308 672.122 20.596C662.231 19.3612 652.248 22.0225 644.285 28.0169L645.145 27.3259C653.072 20.9534 663.205 17.9892 673.316 19.085C683.428 20.1808 692.691 25.2468 699.069 33.1695Z" fill="#5BAFC7"/>
<path d="M719.101 34.2121C719.527 35.8123 719.701 37.4689 719.619 39.1227C719.616 40.6579 719.209 42.1651 718.437 43.4925C717.666 44.8198 716.558 45.9204 715.226 46.6832C708.659 50.2975 705.904 47.1186 704.514 45.3064C704.078 44.7127 703.781 44.0284 703.645 43.3043C703.51 42.5803 703.54 41.835 703.732 41.1239C703.77 41.0321 703.832 40.9525 703.912 40.8935C703.992 40.8346 704.086 40.7985 704.185 40.7893C704.284 40.7801 704.383 40.7981 704.473 40.8413C704.562 40.8845 704.638 40.9513 704.692 41.0345C708.32 46.6246 713.56 42.3954 715.491 40.6765C717.167 38.8218 718.401 36.6118 719.101 34.2121Z" fill="#FFD54F"/>
<path d="M719.619 39.1227C719.616 40.6579 719.209 42.1652 718.437 43.4925C717.666 44.8199 716.558 45.9204 715.226 46.6832C708.659 50.2976 705.904 47.1187 704.514 45.3064C704.251 44.9504 704.042 44.5576 703.893 44.1407C706.296 45.7217 709.247 47.6944 714.444 44.2819C716.373 42.7796 718.111 41.047 719.619 39.1227Z" fill="#FFB300"/>
<path d="M725.035 21.7342C727.486 27.5833 727.85 34.0977 726.066 40.1834C724.568 44.518 721.849 48.3276 718.238 51.1543C716.486 52.7773 714.427 54.0345 712.183 54.8522C709.939 55.67 707.555 56.0319 705.169 55.9168C704.802 55.8786 704.446 55.7682 704.121 55.592C703.797 55.4158 703.51 55.1772 703.278 54.8899C703.198 54.8239 703.139 54.7353 703.11 54.6357C703.081 54.5361 703.082 54.4299 703.114 54.3309C703.145 54.232 703.206 54.1448 703.288 54.0807C703.369 54.0166 703.468 53.9784 703.572 53.9712C705.471 53.5188 707.296 52.7973 708.991 51.8287C712.739 49.7813 715.669 46.9436 716.736 44.088C718.073 40.5081 718.643 36.6868 718.407 32.8724C717.961 29.3269 718.28 25.7269 719.343 22.3151C719.49 21.6101 719.804 20.9504 720.258 20.3914C720.712 19.8323 721.293 19.3899 721.953 19.1013C722.455 18.9805 723.76 19.0301 725.035 21.7342Z" fill="#FFD54F"/>
<path d="M725.035 21.7341C727.486 27.5832 727.85 34.0976 726.066 40.1833C724.568 44.5179 721.849 48.3275 718.238 51.1542C716.486 52.7772 714.427 54.0344 712.183 54.8521C709.939 55.6699 707.555 56.0318 705.169 55.9167C704.802 55.8785 704.446 55.7681 704.121 55.5919C703.797 55.4157 703.51 55.1771 703.278 54.8898C703.278 54.8898 715.032 55.18 720.584 44.8569C724.965 36.723 723.029 24.1462 722.01 19.1719C722.455 18.9804 723.76 19.03 725.035 21.7341Z" fill="#FFB300"/>
<g opacity="0.5">
<path opacity="0.5" d="M658.299 -17.1101C657.103 -16.7801 656 -16.1745 655.08 -15.3419C654.159 -14.5094 653.446 -13.4729 652.998 -12.3154C651.917 -13.0132 650.797 -13.6466 649.642 -14.2122C648.802 -14.6357 647.95 -15.0329 647.045 -15.3712C638.083 -19.1958 628.022 -19.5696 618.8 -16.4206L615.642 -20.0585L613.301 -13.7146L612.765 -13.2837C612.421 -13.0073 612.049 -12.8079 611.697 -12.5416L608.715 -14.9053L607.856 -15.5801C607.633 -15.4012 607.411 -15.2224 607.199 -15.0517C603.26 -11.3362 604.24 -5.83096 604.445 -4.91353C599.371 3.42353 597.572 13.3466 599.396 22.934C599.552 23.8738 599.757 24.7913 599.97 25.7188C600.277 26.9678 600.654 28.1982 601.102 29.404L600.848 29.4411C599.671 29.6642 598.559 30.1495 597.595 30.8611C596.631 31.5727 595.84 32.4923 595.28 33.5516C591.859 39.4644 597.109 48.7284 605.198 50.5491C607.85 51.2661 610.659 51.1426 613.238 50.1956L613.405 50.5276C614.211 52.1383 615.188 53.6583 616.317 55.0616C619.434 58.9035 623.581 61.7776 628.272 63.3472L629.317 68.1674C629.678 69.8738 630.64 71.3939 632.027 72.4509C633.415 73.5079 635.135 74.0316 636.876 73.9265L653.348 73.0039L675.151 100.125C676.397 101.675 677.953 102.947 679.719 103.861C678.136 106.033 675.975 109.868 676.91 113.661C677.205 114.82 677.438 115.994 677.607 117.179L677.526 117.244C677.186 117.235 676.827 117.223 676.507 117.198C676.102 117.12 675.685 117.13 675.284 117.226C674.883 117.322 674.507 117.502 674.181 117.755C673.855 118.007 673.587 118.326 673.394 118.691C673.201 119.055 673.087 119.456 673.061 119.867C673.035 120.279 673.096 120.691 673.242 121.077C673.387 121.463 673.613 121.813 673.904 122.105C674.195 122.397 674.545 122.623 674.93 122.77C675.316 122.916 675.728 122.979 676.139 122.953C680.592 123.253 681.553 122.48 682.078 122.058C683.545 120.879 684.158 118.722 682.551 112.188C682.134 110.51 683.991 107.518 685.38 106.036C685.566 105.837 685.721 105.611 685.84 105.366C689.24 105.5 692.575 104.409 695.237 102.29L703.974 95.2664C706.644 93.1222 708.454 90.0894 709.074 86.7215C709.184 86.6983 709.293 86.6669 709.398 86.6275C711.925 85.6286 716.372 84.617 718.096 85.4782C721.653 87.2306 723.99 88.3983 726.184 86.6343C726.7 86.2197 727.661 85.4474 728.335 81.0264C728.428 80.6374 728.439 80.2334 728.368 79.8399C728.298 79.4463 728.146 79.0717 727.923 78.7398C727.7 78.4078 727.41 78.1257 727.073 77.9112C726.735 77.6968 726.357 77.5546 725.962 77.4937C725.566 77.4328 725.163 77.4545 724.776 77.5575C724.39 77.6604 724.029 77.8424 723.716 78.0918C723.404 78.3413 723.146 78.6528 722.96 79.0068C722.774 79.3607 722.663 79.7494 722.635 80.1483C722.593 80.4483 722.539 80.7747 722.469 81.0808C722.021 80.8752 721.459 80.6111 720.724 80.2359C717.073 78.427 711.736 79.7203 708.944 80.6165C708.438 78.6109 707.501 76.7395 706.2 75.1317L678.845 41.1038L682.013 42.2695C683.001 38.7779 691.605 33.8254 688.256 30.5912L680.421 21.5076C679.901 16.5919 677.988 11.927 674.906 8.06189C673.778 6.65719 672.504 5.37702 671.104 4.2432L670.824 4.01894C672.297 1.69462 673.015 -1.02852 672.88 -3.77713C672.721 -12.0725 664.769 -19.1478 658.299 -17.1101Z" fill="black"/>
</g>
<path d="M690.664 30.7699L686.215 46.6486L684.425 52.9324L681.639 52.1589L678.845 51.3753L681.714 41.1112L685.055 29.2189C685.152 28.8696 685.121 28.4972 684.967 28.1691C684.813 27.8409 684.547 27.5786 684.216 27.4296L682.204 26.5003L677.895 24.5369L673.246 22.398L668.379 20.134L667.298 19.6381L666.438 19.2308L663.395 17.848L664.311 15.8803L664.613 15.221L665.218 13.9025L665.823 12.5839L666.5 12.8883L666.798 13.0315L668.593 13.8357L670.466 14.6945L671.02 14.9485L675.265 16.8958L682.156 20.0628L686.631 22.1089C688.233 22.8256 689.523 24.096 690.264 25.687C691.004 27.2779 691.146 29.0826 690.664 30.7699Z" fill="#A16552"/>
<path d="M661.69 71.2254L638.709 72.52C636.967 72.6278 635.245 72.1052 633.857 71.0478C632.469 69.9903 631.508 68.4687 631.149 66.7609L626.285 44.3513L631.956 43.122L636.802 65.5297C636.878 65.8847 637.079 66.2006 637.368 66.42C637.658 66.6395 638.016 66.7478 638.379 66.7255L661.35 65.439L661.69 71.2254Z" fill="#A16552"/>
<path d="M660.551 14.7241L707.985 73.7293C709.916 76.1222 711.023 79.0747 711.14 82.1473C711.176 83.2025 711.092 84.2584 710.89 85.2947C710.27 88.6562 708.457 91.6806 705.784 93.8113L697.047 100.835C694.382 102.988 691.029 104.105 687.606 103.98C686.5 103.951 685.402 103.788 684.336 103.495C681.428 102.709 678.842 101.023 676.951 98.6781L629.516 39.6729L660.551 14.7241Z" fill="#A16552"/>
<path d="M681.254 55.6977C677.416 61.6818 671.708 66.2297 665.017 68.6338C664.382 68.8703 663.812 69.2543 663.354 69.7541C662.897 70.254 662.564 70.8553 662.384 71.5088C662.204 72.1623 662.181 72.8492 662.319 73.513C662.456 74.1768 662.749 74.7985 663.173 75.327L678.928 94.9246C680.749 97.1909 683.397 98.6406 686.288 98.9548C689.178 99.2691 692.076 98.4221 694.342 96.6003L702.138 90.3326C704.405 88.5108 705.854 85.8633 706.169 82.9726C706.483 80.0819 705.636 77.1847 703.814 74.9185L688.125 55.4018C687.705 54.8802 687.169 54.4645 686.559 54.1884C685.949 53.9123 685.283 53.7834 684.614 53.8122C683.946 53.841 683.293 54.0267 682.709 54.3542C682.126 54.6817 681.627 55.142 681.254 55.6977Z" fill="#F5DCB4"/>
<path d="M728.002 85.1894C725.808 86.9535 723.481 85.7776 719.915 84.0333C718.18 83.1803 713.694 84.2062 711.216 85.1827C710.512 85.4135 709.746 85.3664 709.075 85.051C708.404 84.7355 707.879 84.1756 707.607 83.4858C707.335 82.7959 707.338 82.0284 707.613 81.3401C707.889 80.6519 708.417 80.095 709.09 79.7835C710.517 79.2188 717.858 76.5469 722.5 78.8419C723.218 79.1968 723.788 79.471 724.237 79.6766C724.307 79.3705 724.361 79.0441 724.403 78.7441C724.431 78.3452 724.542 77.9565 724.728 77.6026C724.914 77.2486 725.171 76.937 725.484 76.6876C725.797 76.4382 726.157 76.2562 726.544 76.1533C726.93 76.0503 727.334 76.0286 727.729 76.0895C728.124 76.1504 728.503 76.2926 728.84 76.507C729.178 76.7215 729.467 77.0036 729.69 77.3356C729.913 77.6675 730.065 78.0421 730.136 78.4357C730.207 78.8292 730.196 79.2332 730.103 79.6222C729.479 84.0025 728.518 84.7748 728.002 85.1894Z" fill="#A16552"/>
<path d="M683.842 120.69C683.326 121.104 682.376 121.869 677.903 121.585C677.184 121.48 676.531 121.108 676.074 120.544C675.617 119.979 675.389 119.263 675.435 118.538C675.482 117.814 675.799 117.133 676.324 116.631C676.849 116.129 677.544 115.843 678.27 115.83L679.364 115.866C679.22 114.644 679.006 113.432 678.726 112.234C677.384 106.837 682.375 101.326 682.949 100.715C683.488 100.202 684.201 99.9153 684.945 99.9129C685.688 99.9106 686.403 100.193 686.945 100.702C687.486 101.211 687.812 101.908 687.855 102.65C687.898 103.391 687.656 104.122 687.178 104.69C685.789 106.173 683.932 109.164 684.349 110.843C685.956 117.376 685.308 119.511 683.842 120.69Z" fill="#A16552"/>
<path d="M603.786 30.0927C604.912 32.6817 606.373 35.1117 608.131 37.3204L608.497 37.7754C610.657 40.4158 612.49 43.3078 613.956 46.3885C612.017 46.9983 609.944 47.0419 607.981 46.5141C601.588 45.044 597.445 37.7368 600.196 33.0616C600.963 31.6177 602.263 30.5304 603.82 30.0318L603.786 30.0927Z" fill="#A16552"/>
<path d="M603.786 30.0927C604.912 32.6817 606.373 35.1117 608.131 37.3204L608.497 37.7754C610.657 40.4158 612.49 43.3078 613.956 46.3885C612.017 46.9983 609.944 47.0419 607.981 46.5141C601.588 45.044 597.445 37.7368 600.196 33.0616C600.963 31.6177 602.263 30.5304 603.82 30.0318L603.786 30.0927Z" fill="#F5DCB4"/>
<path d="M671.86 -4.83845C671.954 -2.80779 671.466 -0.792598 670.454 0.970281C667.764 -1.12803 665.334 -3.53911 663.215 -6.21204L662.849 -6.6671C661.064 -8.86592 659 -10.8216 656.707 -12.4843C657.528 -13.8986 658.87 -14.9354 660.445 -15.3725C665.552 -17.0138 671.808 -11.4056 671.86 -4.83845Z" fill="#A16552"/>
<path d="M671.86 -4.83845C671.954 -2.80779 671.466 -0.792598 670.454 0.970281C667.764 -1.12803 665.334 -3.53911 663.215 -6.21204L662.849 -6.6671C661.064 -8.86592 659 -10.8216 656.707 -12.4843C657.528 -13.8986 658.87 -14.9354 660.445 -15.3725C665.552 -17.0138 671.808 -11.4056 671.86 -4.83845Z" fill="#F5DCB4"/>
<path d="M662.034 7.87168C662.174 9.22285 662.614 10.5256 663.324 11.684C664.033 12.8423 664.993 13.8269 666.133 14.565C667.864 15.5759 669.437 16.8352 670.803 18.3026C678.387 27.7374 675.602 42.5787 664.58 51.4396C653.557 60.3005 638.412 59.8907 630.827 50.4559C629.682 48.8099 628.79 47.0021 628.18 45.0924C627.704 43.8202 626.949 42.6709 625.97 41.7292C624.991 40.7875 623.813 40.0773 622.524 39.651C621.895 39.4458 621.284 39.1912 620.696 38.8894C618.894 38.0025 617.306 36.7341 616.043 35.172C614.85 33.613 613.976 31.8341 613.472 29.9371C612.967 28.0401 612.841 26.0622 613.102 24.1165C613.362 22.1708 614.003 20.2956 614.989 18.598C615.975 16.9005 617.286 15.4139 618.846 14.2234C620.967 12.5079 623.498 11.374 626.19 10.9334C627.747 10.6834 629.211 10.0325 630.44 9.04469C631.669 8.05692 632.619 6.76632 633.198 5.29983C634.216 2.77108 635.869 0.547722 637.997 -1.15525C644.58 -6.44741 653.984 -5.68352 659.041 0.606326C660.295 2.17546 661.192 3.99872 661.671 5.94956C661.837 6.58104 661.958 7.22331 662.034 7.87168Z" fill="#A16552"/>
<path d="M662.034 7.87168C662.174 9.22285 662.614 10.5256 663.324 11.684C664.033 12.8423 664.993 13.8269 666.133 14.565C667.864 15.5759 669.437 16.8352 670.803 18.3026C678.387 27.7374 675.602 42.5787 664.58 51.4396C653.557 60.3005 638.412 59.8907 630.827 50.4559C629.682 48.8099 628.79 47.0021 628.18 45.0924C627.704 43.8202 626.949 42.6709 625.97 41.7292C624.991 40.7875 623.813 40.0773 622.524 39.651C621.895 39.4458 621.284 39.1912 620.696 38.8894C618.894 38.0025 617.306 36.7341 616.043 35.172C614.85 33.613 613.976 31.8341 613.472 29.9371C612.967 28.0401 612.841 26.0622 613.102 24.1165C613.362 22.1708 614.003 20.2956 614.989 18.598C615.975 16.9005 617.286 15.4139 618.846 14.2234C620.967 12.5079 623.498 11.374 626.19 10.9334C627.747 10.6834 629.211 10.0325 630.44 9.04469C631.669 8.05692 632.619 6.76632 633.198 5.29983C634.216 2.77108 635.869 0.547722 637.997 -1.15525C644.58 -6.44741 653.984 -5.68352 659.041 0.606326C660.295 2.17546 661.192 3.99872 661.671 5.94956C661.837 6.58104 661.958 7.22331 662.034 7.87168Z" fill="#F5DCB4"/>
<path d="M642.345 44.6759C642.182 44.8074 642.049 44.9719 641.954 45.1587C641.859 45.3455 641.805 45.5502 641.795 45.7594C641.786 45.9686 641.821 46.1775 641.898 46.3722C641.975 46.5669 642.092 46.7431 642.243 46.8889C647.015 51.376 654.955 51.4362 660.769 46.7619C666.584 42.0876 668.221 34.329 664.914 28.6631C664.806 28.4843 664.661 28.3307 664.489 28.2125C664.316 28.0944 664.121 28.0145 663.915 27.9781C663.709 27.9418 663.498 27.9498 663.296 28.0017C663.093 28.0537 662.904 28.1483 662.741 28.2792L642.345 44.6759Z" fill="#4E3F3F"/>
<path d="M652.684 50.1647C655.645 49.8112 658.447 48.6332 660.772 46.7647C663.096 44.8963 664.849 42.4126 665.83 39.5967C662.7 37.4015 660.622 40.221 657.517 42.7167C654.413 45.2124 651.213 46.6363 652.684 50.1647Z" fill="#E6646E"/>
<path d="M660.091 -18.5672C658.896 -18.2372 657.796 -17.6312 656.878 -16.7981C655.961 -15.9649 655.251 -14.9279 654.808 -13.7705C653.722 -14.459 652.602 -15.092 651.452 -15.6673C650.612 -16.0908 649.75 -16.4798 648.855 -16.8262C639.888 -20.6483 629.824 -21.0192 620.6 -17.8675L620.551 -17.9282L617.452 -21.5135L615.111 -15.1696L614.565 -14.7307C614.231 -14.4624 613.849 -14.2548 613.497 -13.9885L610.525 -16.3604L609.666 -17.0351C609.433 -16.8481 609.221 -16.6774 609.009 -16.5067C605.094 -12.7609 606.074 -7.25568 606.269 -6.33011C601.202 1.99806 599.395 11.9064 601.196 21.4871C601.362 22.4188 601.557 23.3443 601.77 24.2719C602.079 25.5202 602.457 26.7505 602.901 27.9571L602.648 27.9942C601.472 28.2186 600.36 28.7032 599.395 29.4127C598.43 30.1222 597.636 31.0385 597.071 32.0945C593.659 38.0174 598.901 47.2713 606.98 49.1002C609.632 49.812 612.44 49.6886 615.02 48.7467L615.186 49.0787C615.989 50.6919 616.965 52.2123 618.099 53.6127C624.944 62.1273 636.432 65.1942 648.09 62.7977C649.799 62.4426 651.483 61.9784 653.132 61.4079C656.113 60.3797 658.972 59.0254 661.655 57.3695L661.979 57.1093C663.433 56.2033 664.837 55.2191 666.185 54.1612L666.498 53.9092C671.908 49.611 676.223 44.0938 679.092 37.8085C680.737 34.2083 681.779 30.3619 682.175 26.4234C682.377 24.2971 682.362 22.1559 682.132 20.0325C682.06 19.4248 681.979 18.807 681.86 18.2034C681.741 17.5998 681.622 16.9963 681.465 16.407C681.307 15.8177 681.15 15.2284 680.964 14.6453L680.67 13.7828L680.338 12.9345L680 12.141C679.979 12.1185 679.96 12.0949 679.943 12.0702C679.706 11.5277 679.45 11.0015 679.173 10.4915C678.986 10.259 678.89 9.95321 678.725 9.68613L678.255 8.91522C678.085 8.70286 677.914 8.49051 677.804 8.22937C677.804 8.22937 677.755 8.1687 677.723 8.12825C677.56 7.926 677.389 7.71364 677.219 7.50129C677.199 7.4672 677.175 7.43647 677.146 7.41028C676.959 7.17769 676.772 6.94511 676.577 6.70241C675.449 5.29669 674.17 4.01887 672.764 2.89185C672.675 2.8122 672.581 2.73735 672.484 2.6676C673.956 0.346381 674.677 -2.37247 674.548 -5.11836C674.531 -13.5275 666.609 -20.6272 660.091 -18.5672ZM603.753 30.0523C604.879 32.6413 606.34 35.0713 608.099 37.28L608.465 37.7351C610.625 40.3754 612.458 43.2675 613.924 46.3481C611.984 46.9579 609.911 47.0015 607.948 46.4738C601.588 45.0441 597.456 37.7288 600.196 33.0617C600.964 31.6199 602.26 30.5307 603.812 30.0218L603.753 30.0523ZM674.981 32.6735C674.601 36.3482 673.482 39.9081 671.69 43.1391C669.899 46.37 667.473 49.2052 664.557 51.4741C661.466 53.9695 657.9 55.811 654.076 56.8869C650.779 57.8035 647.332 58.0501 643.938 57.6121C638.807 57.0114 634.108 54.4466 630.827 50.4559C629.687 48.8071 628.795 47 628.18 45.0924C627.704 43.8202 626.949 42.6709 625.97 41.7292C624.991 40.7875 623.813 40.0773 622.524 39.651C619.996 38.7801 617.762 37.2203 616.073 35.1476C613.669 32.0043 612.61 28.035 613.13 24.1117C613.65 20.1883 615.706 16.6318 618.846 14.2234C620.967 12.5106 623.493 11.3739 626.182 10.9233C628.252 10.5973 630.143 9.55946 631.53 7.98867C632.245 7.19861 632.807 6.28367 633.19 5.28973C634.207 2.76098 635.86 0.537613 637.989 -1.16536C641.014 -3.71359 644.927 -4.95754 648.868 -4.62423C652.81 -4.29092 656.458 -2.4076 659.012 0.612474C660.267 2.18138 661.164 4.00472 661.643 5.95571C661.806 6.59613 661.923 7.24725 661.994 7.90419C662.231 10.2517 663.373 12.4146 665.177 13.9351C665.466 14.1694 665.782 14.3977 666.101 14.6076C667.832 15.6185 669.405 16.8778 670.77 18.3452C671.769 19.5805 672.607 20.9367 673.266 22.3818C674.702 25.6113 675.292 29.153 674.981 32.6735ZM671.903 -4.80611C671.993 -2.77186 671.502 -0.753968 670.486 1.01076C667.797 -1.08755 665.367 -3.49862 663.247 -6.17156L662.881 -6.62661C661.099 -8.83445 659.027 -10.7918 656.722 -12.4458C657.556 -13.8549 658.901 -14.8885 660.478 -15.3321C665.552 -17.0138 671.808 -11.4056 671.87 -4.84656L671.903 -4.80611Z" fill="#A16552"/>
<path d="M641.603 30.491C640.943 30.6585 640.544 31.3292 640.711 31.989C640.879 32.6488 641.55 33.0479 642.209 32.8804L645.24 32.1109C645.9 31.9434 646.299 31.2727 646.132 30.6129C645.964 29.9531 645.293 29.554 644.634 29.7215L641.603 30.491Z" fill="#4E3F3F"/>
<path d="M647.592 27.3314C647.287 27.9398 647.532 28.6806 648.141 28.986C648.749 29.2914 649.49 29.0457 649.795 28.4373L651.198 25.6427C651.504 25.0343 651.258 24.2935 650.649 23.9881C650.041 23.6827 649.3 23.9284 648.995 24.5368L647.592 27.3314Z" fill="#4E3F3F"/>
<path d="M630.922 30.6524C630.495 31.0158 630 31.2914 629.466 31.4635C628.932 31.6357 628.37 31.7009 627.811 31.6556C627.252 31.6102 626.707 31.4552 626.208 31.1993C625.709 30.9434 625.265 30.5916 624.902 30.1642L624.033 29.0821C623.346 28.1796 623.046 27.0418 623.198 25.9181C623.349 24.7945 623.94 23.7768 624.841 23.0884C625.707 22.3565 626.828 21.9979 627.958 22.0913C629.088 22.1848 630.135 22.7225 630.868 23.5867L631.738 24.6688C632.078 25.1152 632.326 25.6241 632.469 26.1665C632.611 26.7089 632.646 27.2741 632.57 27.8298C632.494 28.3855 632.309 28.9208 632.027 29.4051C631.744 29.8894 631.368 30.3132 630.922 30.6524Z" fill="#4E3F3F"/>
<path d="M624.841 23.0885L627.881 26.8705C628.245 27.3238 628.775 27.6137 629.353 27.6766C629.931 27.7394 630.511 27.57 630.964 27.2057C631.417 26.8413 631.707 26.3118 631.77 25.7337C631.833 25.1555 631.663 24.5761 631.299 24.1229L630.868 23.5869C630.134 22.7227 629.087 22.1849 627.958 22.0915C626.828 21.9981 625.707 22.3566 624.841 23.0885Z" fill="#5D5360"/>
<path d="M627.45 26.3345C628.082 25.8271 628.204 24.9314 627.723 24.3338C627.243 23.7362 626.342 23.6631 625.711 24.1704C625.08 24.6778 624.958 25.5735 625.438 26.1711C625.918 26.7686 626.819 26.8418 627.45 26.3345Z" fill="white"/>
<path d="M651.44 14.158C650.575 14.8886 649.457 15.2474 648.329 15.1559C647.201 15.0644 646.155 14.5301 645.42 13.6698L644.551 12.5878C643.864 11.6852 643.564 10.5474 643.715 9.42374C643.867 8.3001 644.458 7.28245 645.359 6.59403C646.226 5.86129 647.348 5.50154 648.479 5.5934C649.61 5.68527 650.659 6.22127 651.396 7.08426L652.266 8.16628C652.95 9.07091 653.247 10.2098 653.092 11.3331C652.937 12.4564 652.343 13.4723 651.44 14.158Z" fill="#4E3F3F"/>
<path d="M645.359 6.59416L648.399 10.3761C648.779 10.7813 649.299 11.028 649.853 11.0668C650.407 11.1056 650.956 10.9338 651.389 10.5856C651.822 10.2374 652.108 9.73852 652.189 9.18876C652.27 8.639 652.141 8.07884 651.827 7.62031L651.396 7.08436C650.659 6.22137 649.61 5.68537 648.479 5.59351C647.347 5.50165 646.226 5.86141 645.359 6.59416Z" fill="#5D5360"/>
<path d="M647.968 9.84019C648.599 9.33286 648.722 8.43715 648.241 7.83957C647.761 7.24199 646.86 7.16883 646.229 7.67617C645.598 8.18351 645.475 9.07922 645.956 9.6768C646.436 10.2744 647.337 10.3475 647.968 9.84019Z" fill="white"/>
<path d="M630.24 14.1702L631.467 15.6971C633.961 18.7999 635.24 22.7035 635.068 26.6801C634.895 30.6566 633.282 34.4348 630.53 37.31C630.029 37.8461 629.491 38.3458 628.919 38.8052C627.481 39.9644 625.856 40.8706 624.114 41.4853C623.552 41.6825 622.989 41.852 622.426 41.9939C621.688 42.1727 620.938 42.2917 620.181 42.3497C619.554 42.4202 618.922 42.4441 618.291 42.4211C615.894 42.3728 613.538 41.7994 611.387 40.7412C609.236 39.683 607.344 38.1658 605.843 36.2967L604.615 34.7698C604.527 34.6598 604.486 34.5192 604.501 34.379C604.516 34.2387 604.587 34.1103 604.697 34.0219L629.492 14.0889C629.602 14.0005 629.743 13.9594 629.883 13.9746C630.023 13.9899 630.152 14.0602 630.24 14.1702Z" fill="#4E3F3F"/>
<path d="M661.072 -10.6163L662.3 -9.08935C664.746 -6.04543 666.027 -2.22914 665.912 1.67411C665.797 5.57735 664.294 9.3118 661.674 12.2067C661.093 12.8534 660.46 13.4513 659.781 13.9944C659.247 14.4308 658.679 14.8258 658.084 15.1757C657.522 15.5373 656.935 15.859 656.328 16.1383C655.63 16.4583 654.91 16.7255 654.173 16.9378C653.617 17.1028 653.051 17.2354 652.478 17.3349C650.076 17.7695 647.607 17.6681 645.248 17.038C641.886 16.1378 638.9 14.1867 636.726 11.4696L635.498 9.94266C635.454 9.88736 635.421 9.82373 635.402 9.7555C635.382 9.68727 635.376 9.61583 635.385 9.54538C635.393 9.47493 635.416 9.40689 635.451 9.34528C635.486 9.28367 635.534 9.22972 635.59 9.18662L660.314 -10.6895C660.369 -10.7353 660.431 -10.7698 660.499 -10.7909C660.567 -10.8121 660.638 -10.8195 660.709 -10.8126C660.78 -10.8058 660.848 -10.7849 660.911 -10.7512C660.973 -10.7175 661.028 -10.6716 661.072 -10.6163Z" fill="#4E3F3F"/>
<g opacity="0.46">
<path opacity="0.46" d="M630.255 15.9066L631.482 17.4335C633.974 20.5384 635.253 24.4424 635.082 28.4197C634.911 32.3971 633.302 36.177 630.553 39.0565C630.045 39.5851 629.504 40.0811 628.933 40.5416C627.495 41.7008 625.871 42.607 624.129 43.2217C623.577 43.4245 623.013 43.5943 622.44 43.7303C619.42 44.4408 616.261 44.283 613.327 43.2749C610.393 42.2669 607.803 40.4497 605.858 38.0331L604.63 36.5062C604.542 36.3962 604.501 36.2556 604.516 36.1154C604.531 35.9751 604.602 35.8466 604.711 35.7583L629.507 15.8253C629.617 15.7369 629.757 15.6958 629.898 15.711C630.038 15.7263 630.166 15.7966 630.255 15.9066Z" fill="#4E3F3F"/>
<path opacity="0.46" d="M661.087 -8.8799L662.314 -7.35294C664.757 -4.31619 666.04 -0.509272 665.932 3.38658C665.825 7.28243 664.335 11.013 661.729 13.9106C661.147 14.5564 660.514 15.1543 659.836 15.6983C659.3 16.1327 658.736 16.5307 658.147 16.8897C657.583 17.241 656.997 17.5564 656.393 17.8341C655.699 18.1837 654.978 18.4788 654.239 18.7166C651.115 19.6464 647.785 19.6244 644.674 18.6533C641.563 17.6823 638.811 15.8063 636.771 13.2647L635.503 11.6872C635.458 11.6319 635.425 11.5683 635.406 11.5C635.386 11.4318 635.381 11.3604 635.389 11.2899C635.398 11.2195 635.42 11.1514 635.455 11.0898C635.491 11.0282 635.538 10.9743 635.594 10.9312L660.329 -8.95308C660.383 -8.99887 660.446 -9.03336 660.514 -9.05451C660.581 -9.07566 660.653 -9.08304 660.723 -9.07622C660.794 -9.0694 660.863 -9.04852 660.925 -9.0148C660.987 -8.98109 661.043 -8.93522 661.087 -8.8799Z" fill="#4E3F3F"/>
</g>
<path d="M638.376 10.0432L629.71 17.01L631.888 19.7201L640.555 12.7533L638.376 10.0432Z" fill="#4E3F3F"/>
<path d="M615.092 25.6648L618.342 42.3802C616.909 42.3528 615.487 42.1361 614.111 41.7358L611.533 28.5263L615.092 25.6648Z" fill="white"/>
<path d="M626.539 16.4625L630.581 37.2693C630.08 37.8054 629.541 38.3051 628.969 38.7645C627.531 39.9237 625.907 40.8299 624.165 41.4446L620.29 21.4864L626.539 16.4625Z" fill="white"/>
<path d="M618.743 22.7302L622.517 41.9206C621.78 42.0995 621.029 42.2185 620.273 42.2765L616.781 24.3073L618.743 22.7302Z" fill="white"/>
<path d="M658.403 -9.15285L661.674 12.2069C661.093 12.8536 660.46 13.4515 659.781 13.9946C659.247 14.431 658.679 14.826 658.084 15.1759L654.763 -6.2263L658.403 -9.15285Z" fill="white"/>
<path d="M649.464 -1.96678L652.479 17.3349C650.076 17.7694 647.607 17.6681 645.248 17.0379L643.104 3.14654L649.464 -1.96678Z" fill="white"/>
<path d="M653.084 -4.87691L656.338 16.1303C655.641 16.4503 654.921 16.7175 654.184 16.9297L651.052 -3.24293L653.084 -4.87691Z" fill="white"/>
<path opacity="0.2" d="M660.091 -18.5672C658.896 -18.2372 657.796 -17.6312 656.878 -16.798C655.961 -15.9649 655.251 -14.9279 654.808 -13.7705C653.722 -14.459 652.602 -15.092 651.452 -15.6672C650.612 -16.0908 649.75 -16.4798 648.855 -16.8262C639.888 -20.6483 629.824 -21.0192 620.6 -17.8675L620.551 -17.9282C618.841 -14.3858 618.535 -10.3274 619.695 -6.56865C621.751 -0.531055 627.16 1.49661 631.571 7.95617C631.88 8.34044 632.144 8.79371 632.409 9.24697C636.955 16.7457 638.125 21.8655 636.99 27.8884C636.515 30.046 636.194 32.2346 636.029 34.4377C635.806 38.5293 636.657 42.8393 640.557 47.8776C644.042 52.1855 648.758 55.3284 654.076 56.887C656.541 57.6677 659.157 57.8477 661.706 57.4119C663.01 57.1541 664.235 56.5916 665.281 55.7702C680.642 88.7526 701.415 97.3232 701.415 97.3232L705.784 93.8114C708.455 91.673 710.263 88.6411 710.874 85.2746L711.208 85.1725C713.735 84.1736 718.182 83.162 719.906 84.0232C723.453 85.7837 725.8 86.9433 727.994 85.1792C728.51 84.7646 729.471 83.9924 730.145 79.5714C730.238 79.1824 730.249 78.7784 730.178 78.3848C730.107 77.9913 729.956 77.6167 729.733 77.2847C729.51 76.9528 729.22 76.6707 728.883 76.4562C728.545 76.2417 728.167 76.0996 727.772 76.0387C727.376 75.9778 726.973 75.9995 726.586 76.1025C726.2 76.2054 725.839 76.3873 725.526 76.6368C725.214 76.8862 724.956 77.1978 724.77 77.5517C724.584 77.9057 724.473 78.2944 724.445 78.6933C724.403 78.9933 724.349 79.3197 724.279 79.6258C723.831 79.4202 723.269 79.1561 722.524 78.7891C718.883 76.972 713.546 78.2653 710.754 79.1615C710.248 77.1559 709.311 75.2845 708.01 73.6767L686.256 46.6162L690.704 30.7375C691.183 29.0574 691.043 27.2612 690.309 25.6757C689.576 24.0902 688.297 22.8208 686.706 22.0987L682.231 20.0526C682.161 19.4266 682.07 18.8169 681.97 18.2153C681.869 17.6138 681.732 17.0082 681.574 16.4189C681.417 15.8296 681.259 15.2404 681.074 14.6572L680.78 13.7947L680.447 12.9465L680.109 12.1529C680.089 12.1304 680.07 12.1068 680.052 12.0822C679.809 11.5451 679.553 11.0189 679.283 10.5035C679.096 10.2709 679 9.96513 678.835 9.69805L678.365 8.92713C678.194 8.71478 678.024 8.50242 677.913 8.24129C677.913 8.24129 677.865 8.18061 677.832 8.14017C677.67 7.93792 677.499 7.72556 677.328 7.5132C677.309 7.47912 677.284 7.44839 677.255 7.42219C677.068 7.18961 676.881 6.95703 676.686 6.71433C675.558 5.30861 674.28 4.03078 672.874 2.90377C672.784 2.82412 672.691 2.74926 672.593 2.67951C674.066 0.358294 674.787 -2.36056 674.658 -5.10646C674.531 -13.5275 666.609 -20.6272 660.091 -18.5672ZM684.247 27.4054C684.577 27.5543 684.843 27.8166 684.997 28.1448C685.151 28.4729 685.183 28.8453 685.086 29.1946L681.744 41.0869L679.151 37.8611C680.796 34.2609 681.838 30.4145 682.234 26.476L684.247 27.4054Z" fill="#FFF9F8"/>
</g>
</g>
</g>
<defs>
<linearGradient id="paint0_linear" x1="367.908" y1="113.465" x2="367.908" y2="-354.067" gradientUnits="userSpaceOnUse">
<stop stop-color="#F8F4C7"/>
<stop offset="1" stop-color="#FCB422"/>
</linearGradient>
<linearGradient id="paint1_linear" x1="474.298" y1="19.9275" x2="474.298" y2="176.096" gradientUnits="userSpaceOnUse">
<stop stop-color="#FBB62B" stop-opacity="0"/>
<stop offset="1" stop-color="#E28C10" stop-opacity="0.5"/>
</linearGradient>
<linearGradient id="paint2_linear" x1="66.354" y1="45.1934" x2="66.354" y2="178.719" gradientUnits="userSpaceOnUse">
<stop stop-color="#EEC61D" stop-opacity="0"/>
<stop offset="1" stop-color="#C99A06" stop-opacity="0.5"/>
</linearGradient>
<linearGradient id="paint3_linear" x1="396.42" y1="194.802" x2="347.501" y2="491.398" gradientUnits="userSpaceOnUse">
<stop stop-color="#97880F" stop-opacity="0"/>
<stop offset="1" stop-color="#395E11" stop-opacity="0.4"/>
</linearGradient>
<clipPath id="clip0">
<rect width="718" height="203" rx="30" fill="white"/>
</clipPath>
<clipPath id="clip1">
<rect width="1380" height="400" fill="white" transform="translate(-132 -98)"/>
</clipPath>
<clipPath id="clip2">
<rect width="761" height="761" fill="white" transform="translate(-4 -122)"/>
</clipPath>
</defs>
</svg>
