<?xml version="1.0" encoding="utf-8"?>
<!-- Generator: Adobe Illustrator 25.0.0, SVG Export Plug-In . SVG Version: 6.00 Build 0)  -->
<svg version="1.1" id="Capa_1" xmlns="http://www.w3.org/2000/svg" xmlns:xlink="http://www.w3.org/1999/xlink" x="0px" y="0px"
	 viewBox="0 0 383 339" style="enable-background:new 0 0 383 339;" xml:space="preserve">
<style type="text/css">
	.st0{fill:#AC752C;}
	.st1{fill:#7D551F;}
	.st2{fill:#FFB300;}
	.st3{fill:#FFD54F;}
	.st4{clip-path:url(#SVGID_2_);}
	.st5{fill:#92D166;}
	.st6{fill:#65B22E;}
	.st7{fill:#93C01F;}
	.st8{fill:#634419;}
	.st9{clip-path:url(#SVGID_4_);}
	.st10{clip-path:url(#SVGID_6_);}
	.st11{fill:#A16552;}
	.st12{fill:#F5DCB4;}
	.st13{fill:#4E3F3F;}
	.st14{fill:#E6646E;}
	.st15{fill:#5D5360;}
	.st16{fill:#FFFFFF;}
	.st17{opacity:0.35;fill:#4E3F3F;enable-background:new    ;}
	.st18{clip-path:url(#SVGID_8_);}
</style>
<g>
	<path class="st0" d="M232.8,110.7l4.1,8.5l-16.8,8.1c-1.7,0.8-3.8,0.1-4.7-1.6l-1.1-2.2c-0.8-1.7-0.1-3.8,1.7-4.7L232.8,110.7z"/>
	<path class="st1" d="M232.8,110.7l2.1,4.2l-20,9.7l-0.6-1.1c-0.8-1.7-0.1-3.8,1.7-4.7L232.8,110.7z"/>
	<path class="st2" d="M236.3,99.8c7.8-4.3,16.3-7.7,25.4-9.7c51.5-11.6,102.4,20.5,113.9,71.9c2,9.1,2.7,18.3,2.2,27.1
		c-0.1,0.7-1,6.7-4,11.5c-1.5,2.4-3.6,4.5-6.2,5.5l-0.1,0c-0.3,0.1-0.6,0.2-0.9,0.2c-0.3,0-0.6,0-0.9,0c-2.5-0.2-4.9-2.3-7.1-5.4
		c-5-6.7-9.2-17.9-11.5-22.4l0-0.1c-0.5-1.1-1-2.2-1.6-3.3c0-0.1-0.1-0.1-0.1-0.2c-0.6-1.2-1.2-2.4-1.9-3.6
		c-0.2-0.4-0.4-0.7-0.6-1.1c-0.2-0.3-0.3-0.6-0.5-0.9c-0.2-0.3-0.3-0.6-0.5-0.9c-0.2-0.4-0.5-0.8-0.7-1.2c-0.4-0.8-1-1.6-1.5-2.3
		c-0.3-0.5-0.6-0.9-0.9-1.3c-0.8-1.2-1.7-2.3-2.5-3.4c-0.3-0.4-0.6-0.7-0.8-1c-0.3-0.4-0.6-0.7-0.8-1c-0.8-1-1.7-2.1-2.6-3
		c0-0.1-0.1-0.2-0.2-0.2l-0.2-0.3c-1.3-1.4-2.7-2.9-4-4.2c-1.3-1.3-2.7-2.6-4-3.7c-0.2-0.1-0.4-0.3-0.5-0.5l-0.2-0.2
		c-0.9-0.8-1.8-1.5-2.8-2.3c-0.1-0.1-0.2-0.1-0.3-0.2c-0.1-0.1-0.3-0.2-0.4-0.3c-2.7-2.1-5.6-4.2-8.6-6c-0.5-0.4-1.1-0.7-1.7-1.1
		c-0.6-0.3-1.1-0.6-1.6-0.9c-0.1,0-0.2-0.1-0.3-0.2c-0.3-0.1-0.6-0.4-0.9-0.5c-0.9-0.5-1.8-1-2.8-1.4c-0.5-0.3-1-0.5-1.5-0.7
		c-0.8-0.4-1.5-0.7-2.3-1.1c-0.3-0.1-0.6-0.2-0.8-0.4c-1-0.5-2.1-0.9-3.1-1.3c-4.6-1.8-9.4-3.3-14.3-4.4c-0.1,0-0.2-0.1-0.3-0.1
		c-1.9-0.4-3.7-0.8-5.7-1.1c-0.9-0.1-1.7-0.3-2.7-0.4c-0.7-0.1-1.4-0.2-2.1-0.3c-0.2,0-0.2,0-0.4,0c-1.6-0.1-3.1-0.3-4.7-0.4
		c-8.5-0.5-17.2,0.3-25.9,2.2c-0.9,0.2-1.9,0.5-2.8,0.7c0,0-0.3,0-0.8,0c-0.2,0-0.3,0-0.5,0c-0.1,0-0.2,0-0.2,0c-0.1,0-0.2,0-0.2,0
		c-1.7-0.1-4.4-0.5-6.8-2.4c-1.7-1.3-3.2-3.4-4.1-6.6c-0.8-3.1,0.1-5.9,1.9-8.4C228.6,104.7,233.3,101.6,236.3,99.8z"/>
	<path class="st3" d="M223.9,117.2c0.1,0,0.1-0.1,0.1-0.1c7.3-4.3,15.4-7.7,24-10c1.1-0.3,2.3-0.6,3.4-0.9
		c51.4-11.6,102.4,20.6,113.9,71.9c1.7,7.6,2.5,15.2,2.3,22.7c0,1.1-0.1,2.2-0.1,3.3c0,0.7-0.1,1.4-0.1,2.1
		c-0.3,0.1-0.6,0.2-0.9,0.2c-0.3,0-0.6,0-0.9,0c-2.5-0.2-4.9-2.3-7.1-5.4c-5-6.7-9.2-17.9-11.5-22.4l0-0.1c-0.5-1.1-1.1-2.2-1.6-3.3
		c0-0.1-0.1-0.1-0.1-0.2c-0.6-1.2-1.2-2.4-1.9-3.6c-0.1-0.1-0.1-0.2-0.2-0.3c-0.1-0.2-0.3-0.5-0.4-0.7c-0.2-0.3-0.3-0.6-0.5-0.9
		c-0.2-0.3-0.3-0.6-0.5-0.9c-0.2-0.4-0.5-0.8-0.7-1.2c-0.5-0.8-1-1.6-1.5-2.3c-0.3-0.5-0.6-0.9-0.9-1.3c-0.5-0.7-1-1.5-1.6-2.2
		c-0.3-0.4-0.6-0.8-1-1.3c-0.3-0.4-0.6-0.7-0.8-1c-0.3-0.4-0.6-0.7-0.8-1c-0.8-1-1.7-2.1-2.6-3.1c0-0.1-0.1-0.2-0.2-0.2l-0.2-0.3
		c-0.2-0.3-0.5-0.5-0.7-0.8c-1.1-1.2-2.2-2.3-3.3-3.4c-1.1-1.2-2.3-2.2-3.5-3.3c-0.2-0.1-0.4-0.3-0.5-0.5c-0.2-0.1-0.4-0.3-0.5-0.5
		l-0.2-0.2c-0.6-0.5-1.2-1-1.8-1.4c-0.3-0.3-0.7-0.6-1.1-0.9c-0.1-0.1-0.2-0.1-0.3-0.2c-0.1-0.1-0.3-0.2-0.4-0.3
		c-0.5-0.4-1-0.8-1.6-1.2c-0.4-0.3-0.8-0.6-1.2-0.9c-0.2-0.1-0.4-0.3-0.5-0.4c-0.5-0.4-1.1-0.8-1.7-1.2c-0.5-0.3-1.1-0.7-1.6-1
		c-0.6-0.4-1.3-0.8-2-1.2c-0.6-0.4-1.1-0.7-1.7-1.1c-0.6-0.3-1.1-0.6-1.6-0.9c-0.1,0-0.2-0.1-0.3-0.2c-0.3-0.1-0.6-0.4-0.9-0.5
		c-0.9-0.5-1.8-1-2.8-1.4c-0.5-0.3-1-0.5-1.5-0.7c-0.8-0.4-1.5-0.7-2.3-1.1c-0.3-0.1-0.6-0.2-0.8-0.4c-0.3-0.1-0.6-0.2-0.8-0.4
		c-0.7-0.3-1.5-0.6-2.2-0.9c-0.6-0.3-1.2-0.5-1.9-0.7c-0.7-0.3-1.4-0.6-2.2-0.8c-0.4-0.1-0.8-0.3-1.2-0.4c-0.3-0.1-0.6-0.2-0.9-0.3
		c-0.7-0.2-1.3-0.4-2-0.6c-0.7-0.2-1.4-0.4-2.1-0.6c-0.6-0.1-1.1-0.3-1.7-0.4c-0.8-0.2-1.6-0.4-2.4-0.6c-0.1,0-0.2-0.1-0.3-0.1
		c-0.7-0.2-1.5-0.3-2.3-0.5c-0.5-0.1-1-0.2-1.5-0.2c-0.6-0.1-1.2-0.2-1.9-0.3c-0.6-0.1-1.1-0.1-1.6-0.2c-0.3,0-0.7-0.1-1-0.1
		c-0.7-0.1-1.4-0.2-2.1-0.3c-0.2,0-0.2,0-0.4,0c-0.6-0.1-1.2-0.1-1.8-0.2c-0.5,0-1-0.1-1.5-0.1c-0.5,0-1-0.1-1.5-0.1
		c-0.7,0-1.4-0.1-2.1-0.1c-0.4,0-0.7,0-1.1,0c-0.9,0-1.8,0-2.8,0c-0.6,0-1.3,0-1.8,0c-0.9,0.1-1.8,0.1-2.7,0.1
		c-0.6,0-1.2,0.1-1.8,0.1c-0.9,0.1-1.8,0.2-2.8,0.3c-0.6,0-1.2,0.1-1.8,0.2c-1,0.1-2,0.3-3.1,0.4c-0.4,0.1-0.8,0.1-1.2,0.2
		c-0.2,0-0.3,0-0.5,0.1c-1.4,0.3-2.9,0.6-4.4,0.9c-0.9,0.2-1.9,0.4-2.8,0.7c0,0-0.3,0-0.8,0c-0.2,0-0.3,0-0.5,0c-0.1,0-0.2,0-0.2,0
		c-0.1,0-0.2,0-0.2,0c-1.7-0.1-4.4-0.5-6.8-2.4C226.4,122.5,224.8,120.4,223.9,117.2z"/>
	<path class="st1" d="M358.4,201c5.2,2.4,10.3,2.6,15.3-0.4c-1.5,2.4-3.6,4.5-6.2,5.5l-0.1,0c-0.3,0.1-0.6,0.2-0.9,0.2
		c-0.3,0-0.6,0-0.9,0C363.1,206.3,360.7,204.1,358.4,201z"/>
	<path class="st0" d="M358.4,201c3.1,1.4,6.2,2.1,9.2,1.8c0,0.5,0,0.9-0.1,1.3c0,0.7-0.1,1.4-0.2,2.1c-0.3,0.1-0.6,0.2-1,0.2
		c-0.3,0-0.6,0-0.9,0C363.1,206.3,360.7,204.1,358.4,201z"/>
</g>
<g>
	<defs>
		<rect id="SVGID_1_" x="277.6" y="234" transform="matrix(0.5 -0.866 0.866 0.5 -72.4059 415.2679)" width="91.7" height="72.6"/>
	</defs>
	<clipPath id="SVGID_2_">
		<use xlink:href="#SVGID_1_"  style="overflow:visible;"/>
	</clipPath>
	<g class="st4">
		<path class="st0" d="M322.8,317.8l3.1-4.5l9,6.1c0.9,0.6,1.2,1.9,0.5,2.8l-0.8,1.2c-0.6,0.9-1.9,1.1-2.8,0.5L322.8,317.8z"/>
		<path class="st1" d="M322.8,317.8l1.5-2.3l10.7,7.3l-0.4,0.6c-0.6,0.9-1.9,1.1-2.8,0.5L322.8,317.8z"/>
		<path class="st2" d="M316.3,319.2c-4.4-2.6-8.6-6-12.3-10c-20.8-22.5-19.4-57.5,3.1-78.2c4-3.7,8.4-6.7,13-9
			c0.4-0.2,3.6-1.5,7-1.3c1.7,0,3.3,0.5,4.6,1.5l0,0c0.2,0.1,0.3,0.2,0.4,0.4c0.1,0.1,0.2,0.3,0.3,0.5c0.6,1.3,0.3,3.1-0.6,5.2
			c-1.9,4.5-6.4,9.8-8,12.3l0,0c-0.4,0.6-0.8,1.2-1.2,1.8c0,0,0,0.1-0.1,0.1c-0.4,0.7-0.8,1.3-1.2,2c-0.1,0.2-0.2,0.4-0.4,0.6
			c-0.1,0.2-0.2,0.3-0.3,0.5c-0.1,0.2-0.2,0.3-0.3,0.5c-0.1,0.2-0.3,0.5-0.4,0.7c-0.3,0.4-0.5,0.9-0.7,1.4c-0.2,0.3-0.3,0.5-0.4,0.8
			c-0.3,0.8-0.7,1.5-1,2.3c-0.1,0.3-0.2,0.5-0.3,0.7c-0.1,0.3-0.2,0.5-0.3,0.7c-0.3,0.7-0.5,1.5-0.8,2.2c0,0-0.1,0.1,0,0.2l-0.1,0.2
			c-0.3,1.1-0.7,2.2-1,3.2c-0.3,1-0.5,2.1-0.7,3.1c0,0.1-0.1,0.3-0.1,0.4l0,0.2c-0.1,0.7-0.2,1.4-0.3,2.1c0,0.1,0,0.1,0,0.2
			c0,0.1,0,0.2,0,0.3c-0.3,2-0.5,4-0.5,6.1c0,0.4,0,0.8,0,1.2c0,0.4,0,0.7,0,1.1c0,0.1,0,0.1,0,0.2c0,0.2,0,0.4,0,0.6
			c0,0.6,0,1.2,0.1,1.8c0,0.3,0.1,0.6,0.1,0.9c0,0.5,0.1,1,0.1,1.4c0,0.2,0.1,0.4,0.1,0.5c0.1,0.6,0.2,1.3,0.3,1.9
			c0.4,2.8,1.1,5.7,1.9,8.5c0,0.1,0,0.1,0,0.2c0.3,1.1,0.7,2.1,1.1,3.2c0.2,0.5,0.4,0.9,0.6,1.4c0.2,0.4,0.3,0.8,0.5,1.1
			c0,0.1,0.1,0.1,0.1,0.2c0.4,0.8,0.8,1.6,1.2,2.5c2.2,4.4,5.1,8.6,8.7,12.4c0.4,0.4,0.8,0.8,1.1,1.2c0,0,0.1,0.1,0.2,0.4
			c0,0.1,0.1,0.1,0.1,0.2c0,0.1,0,0.1,0.1,0.1c0,0.1,0,0.1,0.1,0.1c0.4,0.9,1,2.4,0.8,4.1c-0.2,1.2-0.8,2.6-2.1,4
			c-1.3,1.3-3,1.6-4.8,1.5C321,321.6,318.1,320.1,316.3,319.2z"/>
		<path class="st3" d="M328.6,320.3C328.6,320.3,328.6,320.3,328.6,320.3c-4.4-2.5-8.4-5.5-12.1-9.2c-0.5-0.5-1-1-1.4-1.5
			c-20.7-22.5-19.4-57.5,3.1-78.2c3.3-3.1,6.9-5.7,10.8-7.7c0.6-0.3,1.1-0.6,1.7-0.9c0.4-0.2,0.7-0.4,1.1-0.6
			c0.2,0.1,0.3,0.2,0.4,0.4s0.2,0.3,0.3,0.5c0.6,1.3,0.3,3.1-0.6,5.2c-1.9,4.5-6.4,9.8-8,12.3l0,0c-0.4,0.6-0.8,1.2-1.2,1.8
			c0,0,0,0.1-0.1,0.1c-0.4,0.7-0.8,1.3-1.2,2c0,0.1-0.1,0.1-0.1,0.2c-0.1,0.1-0.2,0.3-0.2,0.4c-0.1,0.2-0.2,0.3-0.3,0.5
			c-0.1,0.2-0.2,0.3-0.3,0.5c-0.1,0.2-0.3,0.5-0.4,0.7c-0.2,0.5-0.5,0.9-0.7,1.4c-0.2,0.3-0.3,0.5-0.4,0.8c-0.2,0.5-0.4,0.9-0.6,1.4
			c-0.1,0.3-0.2,0.6-0.4,0.8c-0.1,0.3-0.2,0.5-0.3,0.7c-0.1,0.3-0.2,0.5-0.3,0.7c-0.3,0.7-0.5,1.5-0.8,2.2c0,0-0.1,0.1,0,0.2
			l-0.1,0.2c-0.1,0.2-0.1,0.4-0.2,0.6c-0.3,0.9-0.5,1.8-0.8,2.7c-0.2,0.9-0.4,1.8-0.6,2.7c0,0.1-0.1,0.3-0.1,0.4
			c0,0.1-0.1,0.3-0.1,0.4l0,0.2c-0.1,0.4-0.1,0.9-0.2,1.3c0,0.2-0.1,0.5-0.1,0.8c0,0.1,0,0.1,0,0.2c0,0.1,0,0.2,0,0.3
			c0,0.4-0.1,0.8-0.2,1.1c0,0.3-0.1,0.6-0.1,0.9c0,0.1,0,0.3,0,0.4c0,0.4,0,0.8-0.1,1.2c0,0.4-0.1,0.7,0,1.1c0,0.4-0.1,0.9,0,1.3
			c0,0.4,0,0.8,0,1.2c0,0.4,0,0.7,0,1.1c0,0.1,0,0.1,0,0.2c0,0.2,0,0.4,0,0.6c0,0.6,0,1.2,0.1,1.8c0,0.3,0.1,0.6,0.1,0.9
			c0,0.5,0.1,1,0.1,1.4c0,0.2,0.1,0.4,0.1,0.5c0,0.2,0.1,0.4,0.1,0.5c0.1,0.4,0.1,0.9,0.2,1.4c0,0.4,0.1,0.8,0.2,1.2
			c0.1,0.4,0.1,0.9,0.2,1.3c0.1,0.2,0.1,0.5,0.2,0.7c0,0.2,0.1,0.4,0.1,0.5c0.1,0.4,0.2,0.8,0.3,1.2c0.1,0.4,0.2,0.8,0.3,1.2
			c0.1,0.3,0.2,0.6,0.3,1c0.2,0.5,0.2,0.9,0.4,1.4c0,0.1,0,0.1,0,0.2c0.1,0.4,0.3,0.9,0.4,1.3c0.1,0.3,0.2,0.6,0.3,0.8
			c0.1,0.3,0.2,0.7,0.4,1.1c0.1,0.3,0.2,0.6,0.4,0.9c0.1,0.2,0.2,0.4,0.2,0.5c0.2,0.4,0.3,0.8,0.5,1.1c0,0.1,0.1,0.1,0.1,0.2
			c0.1,0.3,0.3,0.6,0.4,0.9c0.1,0.3,0.3,0.5,0.4,0.8c0.1,0.3,0.3,0.5,0.4,0.8c0.2,0.4,0.4,0.7,0.6,1.1c0.1,0.2,0.2,0.4,0.3,0.6
			c0.2,0.5,0.5,0.9,0.8,1.4c0.2,0.3,0.4,0.6,0.5,0.9c0.3,0.4,0.6,0.9,0.8,1.3c0.2,0.3,0.4,0.6,0.6,0.9c0.3,0.4,0.6,0.9,0.9,1.3
			c0.2,0.3,0.4,0.6,0.6,0.8c0.4,0.5,0.7,0.9,1.1,1.4c0.1,0.2,0.3,0.4,0.4,0.5c0,0.1,0.1,0.1,0.2,0.2c0.5,0.6,1.1,1.3,1.7,2
			c0.4,0.4,0.8,0.8,1.1,1.2c0,0,0.1,0.1,0.2,0.4c0,0.1,0.1,0.1,0.1,0.2c0,0.1,0,0.1,0.1,0.1c0,0.1,0,0.1,0.1,0.1
			c0.4,0.9,1,2.4,0.8,4.1C330.6,317.6,330,319,328.6,320.3z"/>
		<path class="st1" d="M331.8,228.3c-0.3-3.3-1.7-6-4.6-7.6c1.7,0,3.3,0.5,4.6,1.5l0,0c0.2,0.1,0.3,0.2,0.4,0.4
			c0.1,0.1,0.2,0.3,0.3,0.5C333,224.4,332.7,226.3,331.8,228.3z"/>
		<path class="st0" d="M331.8,228.3c-0.2-2-0.7-3.7-1.8-5.2c0.2-0.1,0.5-0.2,0.7-0.3c0.4-0.2,0.7-0.4,1.1-0.5
			c0.2,0.1,0.3,0.2,0.4,0.4c0.1,0.1,0.2,0.3,0.3,0.5C333,224.4,332.7,226.3,331.8,228.3z"/>
	</g>
</g>
<g>
	<path class="st5" d="M242.5,166.2c-17.7-0.1-35.6,1-53.4,0.4c-8.8-0.3-22.1-0.4-27-8.4c-15.5-25.1,45.3-46.5,59.2-48.5
		c22-3.2,45.9,0,67,9.9c12.6,5.9,29.7,16.3,32.3,31C325,174.5,253.3,166.3,242.5,166.2z"/>
	<path class="st6" d="M235.8,141.7c-17.9,1-35.9,4.4-53.4,10c-6.3,2-20.3,6.5-20.3,6.5c-0.9-1.7,51.2-22.5,70.8-24.1
		c20.1-1.6,41,0.3,61,5.7c8.5,2.3,26.7,10.7,26.7,10.7c-0.2,0.6-17.4-3-25.4-4.5C275.5,142.3,255.4,140.6,235.8,141.7z"/>
	<path class="st5" d="M183.9,85.4c3.9,13.6,9.2,77.7-20,73.9c-9.4-1.2-14.7-13.2-18.7-21.2c-7.9-15.9-14.2-32.8-21.5-48.9
		c-4.5-9.9-41.5-71.5-17.7-77.7c14.4-3.7,31.1,8,41.5,16.9C165.2,43.6,177.8,64,183.9,85.4z"/>
	<path class="st6" d="M156.9,84.9c6.9,19.4,7,74.5,7,74.5c-0.5,0-1.6-14.5-2.4-21.2c-2-18.2-6.3-36.1-12.7-52.8
		c-7-18.4-16.9-36-28.3-52.5c-4.6-6.7-14.5-21.3-14.5-21.3c0.5-0.4,15.3,13.3,20.8,20C139.8,47.6,150.1,65.9,156.9,84.9z"/>
	<path class="st6" d="M173,143.3c11.9,7.7,38.2-11.9,58.8-43.8s27.7-63.9,15.9-71.6c-11.9-7.7-38.2,11.9-58.8,43.8
		C168.3,103.5,161.2,135.6,173,143.3z"/>
	<path class="st7" d="M173,143.3c1.6,1,19.6-24,40.2-55.8c20.6-31.9,36-58.5,34.4-59.6c-1.6-1-19.6,24-40.2,55.8
		S171.4,142.2,173,143.3z"/>
	<path class="st0" d="M180.5,131.7c-10.3-6.6-23.7-5.4-32.5,3.1l-19.4,20c-5.4,5.5-4.3,14.5,2.1,18.6l32.3,20.9
		c6.4,4.1,15,1.4,17.8-5.7l10.3-25.9C195.2,151.1,190.8,138.3,180.5,131.7z"/>
	<path class="st1" d="M173,147l-3.3-2.2c-9.5-6.1-21.8-5.6-30.7,1.4l-10.4,9.5c-5.3,4.8-4.6,13.3,1.5,17.2l33.5,21.7
		c6,3.9,14,1.1,16.3-5.7l4.4-13.3C186.9,164.6,182.4,153.1,173,147z"/>
	<path class="st8" d="M171.7,167.7l-20.4-13.2c-5.7-3.7-13.1-3.5-18.7,0.5l-3.4,2.4c-5.3,3.8-5.1,11.7,0.4,15.3l34.4,22.3
		c5.5,3.5,12.8,0.4,14.1-5.9l0.8-4.1C180.3,178.2,177.4,171.4,171.7,167.7z"/>
</g>
<g>
	<path class="st0" d="M289.4,86.8l-28.2-2.1l2.3-31.3c0.2-3.2,5-5.5,10.9-5.1l7.3,0.6c5.7,0.5,10.2,3.5,10,6.7L289.4,86.8z"/>
	<path class="st1" d="M289.4,86.8l-14.1-1l2.8-37.3l3.7,0.2c5.7,0.5,10.2,3.5,10,6.7L289.4,86.8z"/>
	<path class="st2" d="M296.8,102.1c-0.2,15-2.5,30.2-7.2,45.3c-26.4,84.8-116,132.1-200.3,105.7c-15-4.7-28.9-11.4-41.2-19.7
		c-0.9-0.7-8.9-7-13.4-15.5c-2.3-4.3-3.6-9-2.7-13.7V204c0.1-0.6,0.2-1,0.5-1.5c0.2-0.5,0.5-0.9,0.8-1.4c2.3-3.5,7.4-5.2,13.9-5.9
		c14-1.6,33.8,1.7,42.3,2.2h0.1c2.1,0.2,4.1,0.3,6.2,0.5c0.1,0,0.2,0,0.3,0c2.3,0.1,4.5,0.2,6.8,0.2c0.7,0,1.4,0,2.1,0
		c0.6,0,1.1,0,1.8,0c0.6,0,1.1,0,1.7,0c0.8,0,1.6,0,2.4,0c1.5,0,3.1-0.1,4.6-0.2c0.9,0,1.7-0.1,2.6-0.2c2.4-0.2,4.8-0.5,7.1-0.8
		c0.8-0.1,1.5-0.2,2.2-0.3c0.8-0.1,1.5-0.2,2.2-0.3c2.2-0.3,4.5-0.8,6.6-1.3c0.1,0,0.3,0,0.5-0.1l0.5-0.3c3.2-0.7,6.4-1.5,9.5-2.3
		c3-0.8,6-1.7,8.8-2.8c0.3-0.1,0.8-0.2,1.1-0.3l0.5-0.1c1.9-0.7,3.8-1.4,5.7-2.2c0.2-0.1,0.3-0.1,0.6-0.2c0.2-0.1,0.5-0.2,0.7-0.3
		c5.4-2.2,10.8-4.7,15.9-7.5c1-0.5,1.9-1,3-1.6c0.9-0.6,1.8-1,2.8-1.6c0.1-0.1,0.3-0.2,0.5-0.2c0.5-0.3,1-0.6,1.5-0.9
		c1.5-0.9,3-1.8,4.5-2.9c0.8-0.5,1.5-1,2.3-1.5c1.1-0.8,2.3-1.6,3.4-2.4c0.5-0.3,0.8-0.7,1.3-0.9c1.5-1,3-2.3,4.5-3.5
		c6.5-5.2,12.7-10.9,18.4-17.2c0.1-0.1,0.2-0.2,0.3-0.3c2.2-2.4,4.2-4.8,6.3-7.4c0.9-1.2,1.8-2.3,2.8-3.6c0.7-0.9,1.5-2,2.2-2.9
		c0.1-0.2,0.2-0.3,0.3-0.6c1.5-2.2,3-4.3,4.5-6.6c7.8-12,14.1-25.3,18.6-39.7c0.5-1.5,0.9-3.1,1.4-4.6c0,0,0.2-0.5,0.6-1.2
		c0.1-0.2,0.2-0.5,0.3-0.7c0.1-0.1,0.1-0.2,0.2-0.3s0.1-0.2,0.2-0.3c1.6-2.4,4.5-6,9.2-7.8c3.3-1.4,7.7-1.8,13.1-0.5
		c5.2,1.4,8.5,5.2,10.7,9.9C296.1,86.7,296.7,96.2,296.8,102.1z"/>
	<path class="st3" d="M281.9,69.4c0,0.1,0,0.2,0,0.2c0.1,14.3-1.7,28.9-5.6,43.4c-0.5,2-1,3.8-1.6,5.8
		c-26.4,84.8-115.9,132.1-200.3,105.7c-12.5-3.9-24.2-9.2-34.9-15.8c-1.6-0.9-3.2-2-4.7-3c-1-0.6-1.9-1.3-3-2c0.1-0.6,0.2-1,0.5-1.5
		c0.2-0.5,0.5-0.9,0.8-1.4c2.3-3.5,7.4-5.2,13.9-5.9c14-1.6,33.8,1.7,42.3,2.2h0.1c2.1,0.2,4.1,0.3,6.2,0.5c0.1,0,0.2,0,0.3,0
		c2.3,0.1,4.5,0.2,6.8,0.2c0.2,0,0.5,0,0.6,0c0.5,0,0.9,0,1.4,0c0.6,0,1.1,0,1.8,0c0.6,0,1.1,0,1.7,0c0.8,0,1.6,0,2.4,0
		c1.6-0.1,3.1-0.1,4.6-0.2c0.9,0,1.7-0.1,2.6-0.2c1.5-0.1,3-0.2,4.5-0.5c0.9-0.1,1.7-0.2,2.6-0.3c0.8-0.1,1.5-0.2,2.2-0.3
		c0.8-0.1,1.5-0.2,2.2-0.3c2.2-0.3,4.5-0.8,6.6-1.3c0.1,0,0.3,0,0.5-0.1l0.7-0.1c0.6-0.1,1.1-0.2,1.7-0.3c2.6-0.6,5.3-1.3,7.8-2
		c2.6-0.7,5.2-1.5,7.7-2.3c0.3-0.1,0.8-0.2,1.1-0.3c0.3-0.1,0.8-0.2,1.1-0.3l0.5-0.1c1.1-0.5,2.4-0.9,3.6-1.4
		c0.7-0.2,1.5-0.6,2.2-0.8c0.2-0.1,0.3-0.1,0.6-0.2c0.2-0.1,0.5-0.2,0.7-0.3c1-0.5,2.1-0.8,3.1-1.3c0.8-0.3,1.5-0.7,2.3-1
		c0.3-0.1,0.7-0.3,1-0.5c1-0.5,2.1-1,3.2-1.5c0.9-0.5,1.9-0.9,2.9-1.5c1.1-0.6,2.3-1.2,3.4-1.8c1-0.6,1.9-1,3-1.6
		c0.9-0.6,1.8-1,2.8-1.6c0.1-0.1,0.3-0.2,0.5-0.2c0.5-0.3,1-0.6,1.5-0.9c1.5-0.9,3-1.8,4.5-2.9c0.8-0.5,1.5-1,2.3-1.5
		c1.1-0.8,2.3-1.6,3.4-2.4c0.5-0.3,0.8-0.7,1.3-0.9c0.5-0.3,0.8-0.7,1.3-0.9c1-0.8,2.2-1.6,3.2-2.4c0.9-0.7,1.7-1.4,2.6-2.2
		c1-0.8,2.1-1.6,3-2.5c0.5-0.5,1-0.9,1.5-1.4c0.3-0.3,0.8-0.7,1.1-1c0.9-0.8,1.7-1.6,2.6-2.4c0.9-0.8,1.7-1.7,2.6-2.5
		c0.7-0.7,1.4-1.4,2.1-2.1c0.9-1,1.9-2,2.9-3c0.1-0.1,0.2-0.2,0.3-0.3c0.9-0.9,1.7-2,2.6-3c0.6-0.7,1.1-1.3,1.6-2
		c0.7-0.8,1.4-1.6,2.1-2.5c0.6-0.8,1.1-1.5,1.7-2.2c0.3-0.5,0.7-0.9,1-1.4c0.7-0.9,1.5-2,2.2-2.9c0.1-0.2,0.2-0.3,0.3-0.6
		c0.6-0.8,1.1-1.6,1.7-2.4c0.5-0.7,0.9-1.4,1.4-2.1c0.5-0.7,0.9-1.4,1.4-2.1c0.7-1,1.3-2,1.8-3c0.3-0.6,0.7-1,0.9-1.6
		c0.8-1.3,1.6-2.6,2.3-4c0.5-0.9,1-1.8,1.5-2.6c0.7-1.4,1.4-2.6,2.1-4c0.5-0.9,0.9-1.8,1.4-2.8c0.7-1.4,1.3-2.8,1.9-4.3
		c0.5-0.9,0.8-1.8,1.1-2.8c0.7-1.6,1.3-3.2,1.9-4.8c0.2-0.6,0.5-1.3,0.7-1.8c0.1-0.2,0.2-0.5,0.2-0.8c0.8-2.3,1.6-4.7,2.4-7.1
		c0.5-1.5,0.9-3.1,1.4-4.6c0,0,0.2-0.5,0.6-1.2c0.1-0.2,0.2-0.5,0.3-0.7c0.1-0.1,0.1-0.2,0.2-0.3c0.1-0.1,0.1-0.2,0.2-0.3
		c1.6-2.4,4.5-6,9.2-7.8C272.2,68.5,276.5,68,281.9,69.4z"/>
	<path class="st1" d="M46.9,195c-7.9,5.5-12.5,12.9-12.4,22.7c-2.3-4.3-3.6-9-2.7-13.7v-0.1c0.1-0.6,0.2-1,0.5-1.5
		c0.2-0.5,0.5-0.9,0.8-1.4C35.3,197.5,40.5,195.7,46.9,195z"/>
	<path class="st2" d="M303.1,89.2c7.7,12.9,13.6,27.1,17.4,42.4c21.9,86-29.7,173.6-115.3,195.7c-15.2,3.9-30.5,5.5-45.4,5
		c-1.1-0.1-11.2-1.3-19.6-6.2c-4.1-2.4-7.7-5.8-9.5-10.2c0,0,0,0,0-0.1c-0.2-0.5-0.3-1-0.5-1.5c-0.1-0.6-0.1-1-0.1-1.6
		c0.1-4.1,3.7-8.4,8.7-12.3c11.1-8.8,29.7-16.4,37.1-20.5c1.8-0.9,3.7-1.8,5.5-2.9c0.1,0,0.2-0.1,0.3-0.1c1.9-1,3.9-2.2,5.8-3.3
		c0.6-0.3,1.1-0.7,1.7-1c0.5-0.3,1-0.7,1.5-0.9c0.5-0.3,1-0.6,1.5-0.9c0.7-0.5,1.4-0.8,1.9-1.3c1.3-0.8,2.5-1.7,3.8-2.6
		c0.7-0.5,1.5-1,2.2-1.6c1.9-1.4,3.9-2.9,5.7-4.4c0.6-0.5,1.1-0.9,1.7-1.4c0.6-0.5,1.1-1,1.7-1.5c1.7-1.5,3.3-3,5-4.5
		c0.1-0.1,0.2-0.2,0.3-0.3l0.5-0.5c2.4-2.3,4.7-4.6,6.9-7c2.1-2.3,4.1-4.6,6.1-7c0.2-0.3,0.5-0.6,0.8-0.9l0.3-0.3
		c1.3-1.6,2.5-3.2,3.8-4.8c0.1-0.1,0.2-0.3,0.3-0.5c0.1-0.2,0.3-0.5,0.5-0.6c3.4-4.7,6.6-9.7,9.6-14.7c0.6-0.9,1.1-2,1.6-3
		c0.6-0.9,1-1.8,1.5-2.9c0.1-0.1,0.1-0.3,0.2-0.5c0.2-0.6,0.6-1,0.8-1.6c0.8-1.6,1.6-3.2,2.4-4.8c0.3-0.8,0.8-1.6,1.1-2.4
		c0.6-1.3,1.1-2.5,1.6-3.8c0.2-0.5,0.3-1,0.6-1.5c0.7-1.7,1.4-3.5,2.1-5.3c2.9-7.8,5.2-16,6.8-24.4c0-0.1,0.1-0.3,0.1-0.5
		c0.6-3.1,1.1-6.3,1.5-9.6c0.2-1.5,0.3-3,0.6-4.5c0.1-1.2,0.2-2.4,0.3-3.7c0-0.2,0-0.5,0-0.7c0.2-2.6,0.3-5.3,0.3-7.9
		c0.3-14.4-1.3-29-4.9-43.5c-0.3-1.5-0.8-3.1-1.3-4.6c0,0-0.1-0.5-0.1-1.3c0-0.2,0-0.5,0-0.8c0-0.1,0-0.2,0-0.5c0-0.1,0-0.3,0-0.5
		c0-2.9,0.7-7.5,3.8-11.5c2.2-2.9,5.6-5.6,10.9-7.3c5-1.5,10-0.1,14.2,2.8C294.5,76.4,300,84.3,303.1,89.2z"/>
	<path class="st3" d="M273.4,69.3c0,0.1,0.1,0.1,0.1,0.2c7.6,12.1,13.6,25.5,17.9,39.8c0.6,1.8,1.1,3.8,1.6,5.8
		c21.9,86-29.7,173.6-115.3,195.7c-12.7,3.2-25.4,4.8-37.9,5.1c-1.8,0-3.7,0-5.5,0c-1.1,0-2.4-0.1-3.6-0.1c-0.2-0.5-0.3-1-0.5-1.5
		c-0.1-0.6-0.1-1-0.1-1.6c0.1-4.1,3.7-8.4,8.7-12.3c11.1-8.8,29.7-16.4,37.1-20.5c1.8-0.9,3.7-1.8,5.5-2.9c0.1,0,0.2-0.1,0.3-0.1
		c1.9-1,3.9-2.2,5.8-3.3c0.2-0.1,0.3-0.2,0.6-0.3c0.3-0.2,0.8-0.5,1.1-0.7c0.5-0.3,1-0.7,1.5-0.9c0.5-0.2,1-0.7,1.5-0.9
		c0.7-0.5,1.4-0.8,1.9-1.3c1.3-0.9,2.5-1.7,3.8-2.6c0.7-0.5,1.5-1,2.2-1.6c1.3-0.9,2.4-1.8,3.6-2.8c0.7-0.6,1.4-1.2,2.1-1.7
		c0.6-0.5,1.1-0.9,1.7-1.4c0.6-0.5,1.1-1,1.7-1.5c1.7-1.5,3.3-3,5-4.5c0.1-0.1,0.2-0.2,0.3-0.3l0.5-0.5c0.5-0.5,0.8-0.8,1.3-1.3
		c1.9-1.8,3.8-3.8,5.6-5.8c1.8-2,3.6-4,5.3-6.1c0.2-0.3,0.6-0.6,0.8-0.9c0.2-0.3,0.5-0.6,0.8-0.9l0.3-0.3c0.8-1,1.6-2,2.3-3
		c0.5-0.6,0.9-1.3,1.5-1.8c0.1-0.1,0.2-0.3,0.3-0.5c0.1-0.2,0.3-0.5,0.5-0.6c0.7-0.9,1.3-1.8,1.9-2.8c0.5-0.7,0.9-1.4,1.4-2.1
		c0.2-0.3,0.5-0.6,0.6-0.9c0.7-1,1.3-2,1.9-3c0.6-0.9,1.1-1.8,1.7-2.8c0.7-1.2,1.4-2.2,2.1-3.3c0.6-0.9,1.1-2,1.6-3
		c0.5-0.9,1-1.8,1.5-2.9c0.1-0.1,0.1-0.3,0.2-0.5c0.2-0.6,0.6-1,0.8-1.6c0.8-1.6,1.6-3.2,2.4-4.8c0.3-0.8,0.8-1.6,1.1-2.4
		c0.6-1.3,1.1-2.5,1.6-3.8c0.2-0.5,0.3-1,0.6-1.5c0.2-0.5,0.3-1,0.6-1.5c0.5-1.3,1-2.5,1.5-3.8c0.3-1,0.7-2.1,1-3.2
		c0.5-1.3,0.8-2.4,1.3-3.7c0.2-0.7,0.3-1.3,0.6-2c0.1-0.5,0.3-1,0.5-1.5c0.3-1.2,0.7-2.3,0.9-3.5c0.3-1.2,0.6-2.4,0.9-3.6
		c0.2-0.9,0.5-2,0.7-2.9c0.3-1.4,0.6-2.8,0.9-4.1c0-0.1,0.1-0.3,0.1-0.5c0.2-1.3,0.5-2.6,0.7-3.9c0.1-0.8,0.2-1.6,0.3-2.5
		c0.1-1,0.3-2.1,0.5-3.2c0.1-0.9,0.2-1.8,0.3-2.9c0.1-0.6,0.1-1.2,0.2-1.7c0.1-1.2,0.2-2.4,0.3-3.7c0-0.2,0-0.5,0-0.7
		c0.1-1,0.1-2,0.1-3c0.1-0.8,0.1-1.6,0.1-2.4s0.1-1.6,0.1-2.5c0-1.2,0-2.4,0-3.6c0-0.6,0-1.3,0-1.8c0-1.5,0-3.1-0.1-4.6
		c0-1-0.1-2.1-0.1-3.1c-0.1-1.5-0.2-3-0.3-4.6c-0.1-1-0.2-2.1-0.3-3.1c-0.2-1.5-0.3-3.1-0.6-4.6c-0.1-1-0.2-2-0.5-3
		c-0.2-1.7-0.6-3.5-0.9-5.1c-0.1-0.7-0.2-1.3-0.3-2c0-0.2-0.1-0.6-0.1-0.8c-0.5-2.4-1-5-1.7-7.4c-0.3-1.5-0.8-3.1-1.3-4.6
		c0,0-0.1-0.5-0.1-1.3c0-0.2,0-0.5,0-0.8c0-0.1,0-0.2,0-0.5c0-0.1,0-0.3,0-0.5c0-2.9,0.7-7.5,3.8-11.5
		C264.7,73.5,268,70.9,273.4,69.3z"/>
	<path class="st1" d="M138.9,300.1c-3.9,8.9-3.9,17.5,1.4,25.8c-4.1-2.4-7.8-5.8-9.5-10.2c0,0,0,0,0-0.1c-0.2-0.5-0.3-1-0.5-1.5
		c-0.1-0.6-0.1-1-0.1-1.6C130.3,308.3,133.9,304.1,138.9,300.1z"/>
</g>
<g>
	<defs>
		
			<rect id="SVGID_3_" x="30.5" y="14.4" transform="matrix(0.2588 -0.9659 0.9659 0.2588 -21.2547 158.9994)" width="125" height="157.9"/>
	</defs>
	<clipPath id="SVGID_4_">
		<use xlink:href="#SVGID_3_"  style="overflow:visible;"/>
	</clipPath>
	<g class="st9">
		<path class="st0" d="M172.1,73.2l-8.9-3.1l6.1-17.6c0.6-1.8,2.6-2.8,4.5-2.1l2.3,0.8c1.8,0.6,2.8,2.6,2.1,4.5L172.1,73.2z"/>
		<path class="st1" d="M172.1,73.2l-4.5-1.5l7.3-21l1.2,0.4c1.8,0.6,2.8,2.6,2.1,4.5L172.1,73.2z"/>
		<path class="st2" d="M177.4,83.4c-2.4,8.5-6.1,16.9-11.1,24.8c-28.2,44.6-87,57.9-131.4,29.7c-7.9-5-14.8-11-20.7-17.6
			c-0.4-0.5-4.1-5.4-5.3-11c-0.7-2.8-0.7-5.7,0.5-8.3l0-0.1c0.2-0.3,0.3-0.6,0.5-0.8c0.2-0.2,0.4-0.5,0.7-0.7
			c1.8-1.6,5.1-1.8,8.9-1.2c8.3,1.2,19.2,6.2,24,7.8l0.1,0c1.2,0.4,2.3,0.8,3.5,1.2c0.1,0,0.1,0,0.2,0.1c1.3,0.4,2.5,0.8,3.9,1.2
			c0.4,0.1,0.8,0.2,1.2,0.3c0.3,0.1,0.7,0.2,1.1,0.3c0.3,0.1,0.7,0.2,1,0.3c0.5,0.1,0.9,0.2,1.4,0.4c0.9,0.2,1.8,0.4,2.7,0.6
			c0.5,0.1,1,0.2,1.6,0.3c1.4,0.2,2.8,0.5,4.2,0.6c0.5,0.1,0.9,0.1,1.3,0.1c0.5,0.1,0.9,0.1,1.3,0.1c1.3,0.1,2.7,0.2,4,0.3
			c0.1,0,0.2,0.1,0.3,0l0.3,0c2,0.1,3.9,0.1,5.8,0.1c1.8,0,3.7-0.1,5.5-0.2c0.2,0,0.5,0,0.7,0l0.3,0c1.2-0.1,2.4-0.2,3.6-0.4
			c0.1,0,0.2,0,0.4,0c0.1,0,0.3-0.1,0.4-0.1c3.4-0.4,6.9-1,10.3-1.8c0.7-0.1,1.3-0.3,2-0.5c0.6-0.2,1.2-0.3,1.8-0.5
			c0.1,0,0.2-0.1,0.3-0.1c0.3-0.1,0.7-0.2,1-0.3c1-0.3,2-0.6,3-1c0.5-0.1,1-0.4,1.5-0.5c0.8-0.3,1.6-0.6,2.3-0.9
			c0.3-0.1,0.6-0.3,0.9-0.3c1-0.4,2.1-0.9,3.1-1.3c4.6-2,9-4.3,13.2-7c0.1,0,0.2-0.1,0.2-0.1c1.6-1.1,3.2-2.1,4.8-3.3
			c0.7-0.5,1.4-1,2.1-1.6c0.5-0.4,1.2-0.9,1.7-1.3c0.1-0.1,0.2-0.2,0.3-0.3c1.2-1,2.4-2,3.6-3.1c6.3-5.7,12-12.3,16.8-19.9
			c0.5-0.8,1-1.6,1.5-2.4c0,0,0.2-0.2,0.5-0.6c0.1-0.1,0.2-0.2,0.3-0.3c0.1,0,0.1-0.1,0.2-0.2c0.1,0,0.1-0.1,0.2-0.2
			c1.3-1.1,3.5-2.7,6.5-3.1c2.1-0.3,4.7,0.1,7.6,1.7c2.8,1.6,4.1,4.3,4.6,7.3C179.3,74.5,178.2,80.1,177.4,83.4z"/>
		<path class="st3" d="M173.8,62.4c0,0.1,0,0.1,0,0.1c-2.1,8.2-5.4,16.3-9.9,24c-0.6,1.1-1.2,2-1.8,3.1
			c-28.2,44.5-86.9,57.8-131.4,29.7c-6.6-4.2-12.5-9-17.7-14.4c-0.8-0.8-1.5-1.6-2.2-2.4c-0.5-0.5-0.9-1-1.4-1.6
			c0.2-0.3,0.3-0.6,0.5-0.8c0.2-0.2,0.4-0.5,0.7-0.7c1.8-1.6,5.1-1.8,8.9-1.2c8.3,1.2,19.2,6.2,24,7.8l0.1,0
			c1.2,0.4,2.3,0.8,3.5,1.2c0.1,0,0.1,0,0.2,0.1c1.3,0.4,2.5,0.8,3.9,1.2c0.1,0,0.3,0.1,0.3,0.1c0.3,0.1,0.5,0.1,0.8,0.2
			c0.3,0.1,0.7,0.2,1.1,0.3c0.3,0.1,0.7,0.2,1,0.3c0.5,0.1,0.9,0.2,1.4,0.4c0.9,0.2,1.8,0.4,2.7,0.6c0.5,0.1,1,0.2,1.6,0.3
			c0.9,0.2,1.7,0.3,2.6,0.4c0.5,0.1,1,0.1,1.6,0.2c0.5,0.1,0.9,0.1,1.3,0.1c0.5,0.1,0.9,0.1,1.3,0.1c1.3,0.1,2.7,0.2,4,0.3
			c0.1,0,0.2,0.1,0.3,0l0.3,0c0.3,0,0.7,0,1,0.1c1.6,0.1,3.2,0.1,4.8,0.1c1.6,0,3.2-0.1,4.8-0.1c0.2,0,0.5,0,0.7,0
			c0.2,0,0.5,0,0.7,0l0.3,0c0.7-0.1,1.5-0.2,2.3-0.2c0.4,0,0.9-0.1,1.4-0.1c0.1,0,0.2,0,0.4,0c0.1,0,0.3-0.1,0.4-0.1
			c0.7-0.1,1.3-0.1,2-0.2c0.5-0.1,1-0.2,1.5-0.2c0.2,0,0.4-0.1,0.7-0.1c0.7-0.1,1.3-0.3,2.1-0.4c0.6-0.1,1.3-0.2,1.9-0.4
			c0.7-0.2,1.5-0.3,2.3-0.5c0.7-0.2,1.3-0.3,2-0.5c0.6-0.2,1.2-0.3,1.8-0.5c0.1,0,0.2-0.1,0.3-0.1c0.3-0.1,0.7-0.2,1-0.3
			c1-0.3,2-0.6,3-1c0.5-0.1,1-0.4,1.5-0.5c0.8-0.3,1.6-0.6,2.3-0.9c0.3-0.1,0.6-0.3,0.9-0.3c0.3-0.1,0.6-0.3,0.9-0.3
			c0.7-0.3,1.5-0.6,2.2-0.9c0.6-0.3,1.2-0.5,1.9-0.8c0.7-0.3,1.4-0.6,2.1-1c0.3-0.2,0.7-0.4,1.1-0.6c0.3-0.1,0.6-0.3,0.8-0.4
			c0.7-0.3,1.2-0.7,1.9-1s1.3-0.7,1.9-1c0.5-0.3,1-0.6,1.5-0.9c0.7-0.5,1.4-0.8,2.1-1.3c0.1,0,0.2-0.1,0.3-0.1
			c0.7-0.4,1.3-0.9,2-1.3c0.4-0.3,0.9-0.5,1.2-0.9c0.5-0.4,1-0.7,1.6-1.1c0.5-0.4,0.9-0.7,1.3-1c0.3-0.2,0.5-0.4,0.8-0.6
			c0.5-0.4,1.2-0.9,1.7-1.3c0.1-0.1,0.2-0.2,0.3-0.3c0.5-0.4,0.9-0.7,1.4-1.1c0.4-0.3,0.7-0.7,1.1-1c0.4-0.3,0.7-0.7,1.1-1
			c0.6-0.5,1-0.9,1.5-1.4c0.3-0.3,0.6-0.5,0.8-0.8c0.7-0.6,1.3-1.3,1.9-2c0.4-0.5,0.9-0.9,1.3-1.3c0.6-0.7,1.2-1.3,1.8-2
			c0.4-0.5,0.8-0.9,1.2-1.4c0.6-0.7,1.1-1.4,1.8-2.1c0.4-0.5,0.7-0.9,1.1-1.4c0.6-0.8,1.2-1.7,1.9-2.5c0.2-0.3,0.5-0.7,0.7-0.9
			c0.1-0.1,0.2-0.2,0.3-0.4c0.8-1.2,1.6-2.5,2.5-3.7c0.5-0.8,1-1.6,1.5-2.4c0,0,0.2-0.2,0.5-0.6c0.1-0.1,0.2-0.2,0.3-0.3
			c0.1,0,0.1-0.1,0.2-0.2c0.1,0,0.1-0.1,0.2-0.2c1.3-1.1,3.5-2.7,6.5-3.1C168.4,60.4,170.9,60.8,173.8,62.4z"/>
		<path class="st1" d="M19.4,98.2c-5.4,1.9-9.2,5.5-10.6,11.1c-0.7-2.8-0.7-5.7,0.5-8.3l0-0.1c0.2-0.3,0.3-0.6,0.5-0.8
			c0.2-0.2,0.4-0.5,0.7-0.7C12.4,97.8,15.6,97.6,19.4,98.2z"/>
		<path class="st0" d="M19.4,98.2c-3.2,1.2-5.9,2.9-7.8,5.3c-0.3-0.3-0.6-0.7-0.9-1c-0.5-0.5-0.9-1-1.3-1.6c0.2-0.3,0.3-0.6,0.5-0.9
			c0.2-0.2,0.4-0.5,0.7-0.7C12.4,97.8,15.6,97.6,19.4,98.2z"/>
	</g>
</g>
<g>
	<defs>
		<rect id="SVGID_5_" x="43" y="40" width="276" height="272"/>
	</defs>
	<clipPath id="SVGID_6_">
		<use xlink:href="#SVGID_5_"  style="overflow:visible;"/>
	</clipPath>
	<g class="st10">
		<path class="st11" d="M95.6,200.3c-5.5,3.3-12.8,5.5-20.7,4.1c-1.2-0.2-2.4-0.5-3.6-0.8c-6.3-2-13-6.3-19.2-14.2
			c-15.4-19.6-10.3-51,8.7-58.4c8.6-3.4,15.5-1.8,20.6,0.9c0.2,0.1,0.4,0.2,0.6,0.4c5.5,3.2,8.5,7.7,8.5,7.7l2.5,29.2l2.5,29.2
			L95.6,200.3z"/>
		<path class="st12" d="M89.3,146c0,0-8.5-12.9-23.4-7c-14.9,5.8-19,30.6-6.9,45.9c12.1,15.4,25.8,13.7,34.3,8.7L89.3,146z"/>
		<path class="st11" d="M271.6,139.8c0,0,10.8-16.3,29.7-8.9c19,7.4,24.1,38.8,8.7,58.4s-32.8,17.4-43.5,11L271.6,139.8z"/>
		<path class="st12" d="M272.7,146c0,0,8.5-12.9,23.4-7c14.9,5.8,19,30.6,6.9,45.9c-12.1,15.4-25.8,13.7-34.3,8.7L272.7,146z"/>
		<path class="st11" d="M292.7,220.6c0,50.5-50,91.4-111.7,91.4c-0.4,0-0.8,0-1.2,0c-5.2-0.1-10.3-0.4-15.2-1
			c-10-1.2-19.6-3.5-28.5-6.7c-39.3-14.1-66.7-46.3-66.7-83.7c0-5.5,0.6-10.8,1.7-16c0.1-0.4,0.2-0.7,0.3-1.1
			c0.2-0.8,0.4-1.6,0.6-2.3c0.5-1.7,0.9-3.5,1.3-5.3c2.3-10,3.5-20.1,3.4-30.3c0-0.6,0-1.2,0-1.7c0-8.4,1.2-16.7,3.4-25
			c0-0.1,0-0.1,0-0.1c0.6-2.2,1.3-4.4,2-6.6c1.2-3.6,2.6-7.2,4.2-10.7c1.2-2.5,2.4-5.1,3.8-7.6c13.8-25.4,37-46.4,63.6-55.3
			c0.7-0.2,1.3-0.4,2-0.6c3.2-1,6.3-1.8,9.5-2.4c0.8-0.2,1.6-0.3,2.5-0.4c3.7-0.6,7.6-1,11.4-1.1c0.6,0,1.3,0,1.9,0
			c1.2,0,2.4,0,3.6,0.1h0.1c1.3,0.1,2.5,0.2,3.8,0.3c0.7,0.1,1.4,0.2,2.1,0.2c5.3,0.6,10.6,1.7,15.8,3.3c0.7,0.2,1.4,0.4,2,0.6
			c26.6,8.9,49.9,30,63.7,55.3c1.4,2.5,2.6,5,3.8,7.6c1.6,3.5,3,7.1,4.3,10.7c0.7,2.1,1.3,4.1,1.9,6.2c0.1,0.1,0.1,0.2,0.1,0.3
			c2.2,8.3,3.4,16.7,3.4,25.1c0,0.6,0,1.2,0,1.7c-0.1,10.2,1.1,20.3,3.4,30.3c0.4,1.8,0.8,3.5,1.3,5.3c0.2,0.8,0.4,1.6,0.6,2.4
			c0.1,0.4,0.2,0.7,0.3,1.1C292.1,209.8,292.7,215.1,292.7,220.6z"/>
		<path class="st12" d="M259.3,190.9c2.4-5.3,3.8-11.2,3.8-17.4c0-24-20.3-43.5-45.5-43.5c-8.5,0-16.4,2.2-23.2,6
			c-8.3,4.7-18.4,4.7-26.8,0c-6.8-3.9-14.7-6-23.2-6c-25.1,0-45.5,19.5-45.5,43.5c0,6.2,1.4,12.1,3.8,17.4c0.8,1.8,1.7,3.5,2.8,5.2
			c4.4,6.9,5.6,15.5,3,23.3c-2,5.9-3.7,12.6-3.7,17.5c0,36.2,34.2,65.5,76.2,65.5s76.2-29.3,76.2-65.5c0-4.9-1.8-11.6-3.7-17.5
			c-2.6-7.8-1.4-16.4,3-23.3C257.5,194.5,258.4,192.7,259.3,190.9z"/>
		<path class="st13" d="M142.2,245c-2.6,0-4.7,2.3-4.3,5c2.7,19.4,21,34.4,43.2,34.4c22.2,0,40.5-15,43.2-34.4c0.4-2.6-1.7-5-4.3-5
			H142.2z"/>
		<path class="st14" d="M155.9,277.2c7.1,4.6,15.7,7.2,25.1,7.2s18-2.7,25.1-7.2c-3.2-11-13.2-8.4-25.1-8.4S159.1,266.2,155.9,277.2
			z"/>
		<path class="st11" d="M208.6,64.1l-29.7,5.2l-5.1,0.9l-13.2-7.3l-7-3.9l-0.2-0.1c0,0,0.1-0.1,0.2-0.4c1.3-2.5,9.2-17.2,25.3-18.5
			c0.8-0.1,1.7-0.1,2.5-0.1l0.7,3.2l2.5,10.9l0.3,1.1l0.6,2.4l3.6-2.2l1.5-0.9l17.2-10.4l0.5,14.4V59L208.6,64.1z"/>
		<path class="st13" d="M177.2,219.3c-0.8,1.9-3,2.6-4.9,1.8l-8.5-3.9c-1.8-0.8-2.6-3-1.8-4.9c0.8-1.9,3-2.6,4.8-1.8l8.5,3.9
			C177.2,215.3,178,217.5,177.2,219.3z"/>
		<path class="st13" d="M184.8,219.3c0.8,1.9,3,2.6,4.8,1.8l8.5-3.9c1.8-0.8,2.6-3,1.8-4.9c-0.8-1.9-3-2.6-4.9-1.8l-8.5,3.9
			C184.8,215.3,184,217.5,184.8,219.3z"/>
		<path class="st13" d="M141.8,190.9c-7.2,0-13.1-5.6-13.1-12.4v-4.1c0-6.9,5.9-12.4,13.1-12.4c7.2,0,13.1,5.6,13.1,12.4v4.1
			C154.9,185.4,149.1,190.9,141.8,190.9z"/>
		<path class="st15" d="M141.8,161.9v14.5c0,3.4,2.9,6.2,6.5,6.2c3.6,0,6.5-2.8,6.5-6.2v-2.1C154.9,167.5,149.1,161.9,141.8,161.9z"
			/>
		<path class="st16" d="M141.8,174.4c2.4,0,4.4-1.8,4.4-4.1c0-2.3-2-4.1-4.4-4.1s-4.4,1.9-4.4,4.1
			C137.5,172.5,139.4,174.4,141.8,174.4z"/>
		<path class="st13" d="M220.2,190.9c-7.2,0-13.1-5.6-13.1-12.4v-4.1c0-6.9,5.9-12.4,13.1-12.4c7.2,0,13.1,5.6,13.1,12.4v4.1
			C233.2,185.4,227.4,190.9,220.2,190.9z"/>
		<path class="st15" d="M220.2,161.9v14.5c0,3.4,2.9,6.2,6.5,6.2c3.6,0,6.5-2.8,6.5-6.2v-2.1C233.2,167.5,227.4,161.9,220.2,161.9z"
			/>
		<path class="st16" d="M220.2,174.4c2.4,0,4.4-1.8,4.4-4.1c0-2.3-2-4.1-4.4-4.1s-4.4,1.9-4.4,4.1
			C215.8,172.5,217.7,174.4,220.2,174.4z"/>
		<path class="st17" d="M182.2,43.2c-2.9-0.3-9.3,4.3-17,12.3c-1.9,2-3.9,4.2-6,6.6c-15,17.7-32.4,45.6-38.4,74.2
			c-10,48-14.1,103.8,3.6,134.7c15,26.2,40.1,39.9,40.1,39.9c-10-1.2-19.6-3.5-28.5-6.7c-39.3-14.1-66.7-46.3-66.7-83.7
			c0-5.5,0.6-10.8,1.7-16c0.1-0.4,0.2-0.7,0.3-1.1c-6.3-2-13-6.3-19.2-14.2c-15.4-19.5-10.3-50.9,8.7-58.3
			c8.6-3.3,15.5-1.8,20.6,0.9c0.2,0.1,0.4,0.2,0.6,0.4c1.2-3.6,2.6-7.2,4.2-10.7c1.2-2.5,2.4-5.1,3.8-7.6
			c13.8-25.4,37-46.4,63.6-55.3c1.3-2.5,9.2-17.2,25.3-18.5c0.8-0.1,1.7-0.1,2.5-0.1L182.2,43.2z"/>
	</g>
</g>
<g>
	<defs>
		<rect id="SVGID_7_" x="34.4" y="240.4" transform="matrix(0.866 -0.5 0.5 0.866 -125.0114 71.2393)" width="72" height="57"/>
	</defs>
	<clipPath id="SVGID_8_">
		<use xlink:href="#SVGID_7_"  style="overflow:visible;"/>
	</clipPath>
	<g class="st18">
		<path class="st0" d="M89.5,236.9l-3.9,1.9l-3.7-7.7c-0.4-0.8,0-1.7,0.7-2.1l1-0.5c0.8-0.4,1.7,0,2.1,0.8L89.5,236.9z"/>
		<path class="st1" d="M89.5,236.9l-1.9,0.9l-4.4-9.1l0.5-0.3c0.8-0.4,1.7,0,2.1,0.8L89.5,236.9z"/>
		<path class="st2" d="M94.4,238.5c2,3.5,3.5,7.4,4.4,11.6c5.3,23.5-9.4,46.7-32.8,52c-4.2,0.9-8.3,1.2-12.4,1
			c-0.3,0-3.1-0.4-5.3-1.8c-1.1-0.7-2.1-1.6-2.5-2.8l0,0c-0.1-0.2-0.1-0.3-0.1-0.4c0-0.1,0-0.3,0-0.4c0.1-1.1,1-2.2,2.5-3.3
			c3.1-2.3,8.2-4.2,10.2-5.2l0,0c0.5-0.2,1-0.5,1.5-0.7c0,0,0.1,0,0.1,0c0.6-0.3,1.1-0.6,1.6-0.9c0.2-0.1,0.3-0.2,0.5-0.3
			c0.1-0.1,0.3-0.2,0.4-0.2c0.1-0.1,0.3-0.2,0.4-0.2c0.2-0.1,0.4-0.2,0.6-0.3c0.4-0.2,0.7-0.4,1-0.7c0.2-0.1,0.4-0.3,0.6-0.4
			c0.5-0.4,1.1-0.8,1.6-1.2c0.2-0.1,0.3-0.3,0.5-0.4c0.2-0.1,0.3-0.3,0.5-0.4c0.5-0.4,0.9-0.8,1.4-1.2c0,0,0.1,0,0.1-0.1l0.1-0.1
			c0.7-0.6,1.3-1.2,1.9-1.8c0.6-0.6,1.2-1.2,1.7-1.8c0.1-0.1,0.2-0.2,0.2-0.2l0.1-0.1c0.4-0.4,0.7-0.8,1.1-1.3
			c0-0.1,0.1-0.1,0.1-0.1c0-0.1,0.1-0.1,0.1-0.2c1-1.2,1.9-2.6,2.7-3.9c0.2-0.2,0.3-0.5,0.5-0.8c0.1-0.3,0.3-0.5,0.4-0.8
			c0,0,0-0.1,0.1-0.1c0.1-0.1,0.2-0.3,0.2-0.4c0.2-0.4,0.5-0.8,0.7-1.3c0.1-0.2,0.2-0.4,0.3-0.7c0.2-0.3,0.3-0.7,0.5-1
			c0.1-0.1,0.1-0.3,0.2-0.4c0.2-0.4,0.4-0.9,0.6-1.4c0.8-2.1,1.5-4.3,2-6.5c0,0,0-0.1,0-0.1c0.2-0.9,0.3-1.7,0.5-2.6
			c0.1-0.4,0.1-0.8,0.2-1.2c0-0.3,0.1-0.7,0.1-1c0-0.1,0-0.1,0-0.2c0.1-0.7,0.1-1.4,0.2-2.1c0.2-3.9-0.1-7.9-1-11.8
			c-0.1-0.4-0.2-0.9-0.3-1.3c0,0,0-0.1,0-0.3c0-0.1,0-0.1,0-0.2c0,0,0-0.1,0-0.1c0,0,0-0.1,0-0.1c0-0.8,0.2-2,1.1-3.1
			c0.6-0.8,1.6-1.5,3-1.9c1.4-0.4,2.7,0.1,3.8,0.9C92.2,235,93.6,237.1,94.4,238.5z"/>
		<path class="st3" d="M86.5,232.8C86.5,232.9,86.6,232.9,86.5,232.8c2,3.4,3.5,7.1,4.6,11c0.2,0.5,0.3,1,0.4,1.6
			c5.3,23.4-9.4,46.7-32.8,52c-3.5,0.8-6.9,1.1-10.4,1c-0.5,0-1,0-1.5-0.1c-0.3,0-0.6,0-1-0.1c-0.1-0.2-0.1-0.3-0.1-0.4
			c0-0.1,0-0.3,0-0.4c0.1-1.1,1-2.2,2.5-3.3c3.1-2.3,8.2-4.2,10.2-5.2l0,0c0.5-0.2,1-0.5,1.5-0.7c0,0,0.1,0,0.1,0
			c0.6-0.3,1.1-0.6,1.6-0.9c0.1,0,0.1-0.1,0.1-0.1c0.1-0.1,0.2-0.1,0.3-0.2c0.1-0.1,0.3-0.2,0.4-0.2c0.1-0.1,0.3-0.2,0.4-0.2
			c0.2-0.1,0.4-0.2,0.6-0.3c0.4-0.2,0.7-0.4,1-0.7c0.2-0.1,0.4-0.3,0.6-0.4c0.3-0.2,0.7-0.5,1-0.7c0.2-0.2,0.4-0.3,0.6-0.4
			c0.2-0.1,0.3-0.3,0.5-0.4c0.2-0.1,0.3-0.3,0.5-0.4c0.5-0.4,0.9-0.8,1.4-1.2c0,0,0.1,0,0.1-0.1l0.1-0.1c0.1-0.1,0.2-0.2,0.4-0.3
			c0.5-0.5,1.1-1,1.6-1.5c0.5-0.5,1-1.1,1.5-1.6c0.1-0.1,0.2-0.2,0.2-0.2s0.2-0.2,0.2-0.2l0.1-0.1c0.2-0.3,0.4-0.5,0.6-0.8
			c0.1-0.1,0.3-0.3,0.4-0.5c0-0.1,0.1-0.1,0.1-0.1c0-0.1,0.1-0.1,0.1-0.2c0.2-0.2,0.4-0.5,0.6-0.7c0.1-0.2,0.3-0.4,0.4-0.6
			c0.1-0.1,0.1-0.2,0.2-0.2c0.2-0.2,0.3-0.5,0.6-0.8c0.2-0.2,0.3-0.5,0.5-0.7c0.2-0.3,0.4-0.6,0.6-0.9c0.2-0.3,0.3-0.5,0.5-0.8
			c0.1-0.3,0.3-0.5,0.4-0.8c0,0,0-0.1,0.1-0.1c0.1-0.1,0.2-0.3,0.2-0.4c0.2-0.4,0.5-0.8,0.7-1.3c0.1-0.2,0.2-0.4,0.3-0.7
			c0.2-0.3,0.3-0.7,0.5-1c0.1-0.1,0.1-0.3,0.2-0.4c0.1-0.1,0.1-0.3,0.2-0.4c0.1-0.3,0.3-0.7,0.4-1c0.1-0.3,0.2-0.6,0.3-0.9
			c0.1-0.3,0.3-0.7,0.4-1c0-0.2,0.1-0.4,0.2-0.5c0-0.1,0.1-0.3,0.1-0.4c0.1-0.3,0.2-0.6,0.3-0.9c0.1-0.3,0.2-0.6,0.3-1
			c0.1-0.3,0.1-0.5,0.2-0.8c0.1-0.4,0.2-0.7,0.3-1.1c0,0,0-0.1,0-0.1c0.1-0.3,0.1-0.7,0.2-1.1c0-0.2,0.1-0.5,0.1-0.7
			c0.1-0.3,0.1-0.6,0.1-0.9c0-0.3,0.1-0.5,0.1-0.7c0-0.2,0-0.3,0.1-0.5c0-0.3,0.1-0.7,0.1-1c0-0.1,0-0.1,0-0.2
			c0-0.3,0.1-0.5,0.1-0.8c0-0.2,0-0.4,0-0.7c0-0.2,0-0.4,0-0.7c0-0.3,0-0.6,0-1c0-0.2,0-0.3,0-0.5c0-0.4,0-0.8,0-1.3
			c0-0.3,0-0.6,0-0.8c0-0.4,0-0.8-0.1-1.2c0-0.3,0-0.6-0.1-0.8c0-0.4-0.1-0.8-0.1-1.3c0-0.3-0.1-0.5-0.1-0.8
			c-0.1-0.5-0.1-0.9-0.2-1.4c0-0.2-0.1-0.4-0.1-0.5c0-0.1,0-0.1-0.1-0.2c-0.1-0.6-0.3-1.3-0.4-2c-0.1-0.4-0.2-0.9-0.3-1.3
			c0,0,0-0.1,0-0.3c0-0.1,0-0.1,0-0.2c0,0,0-0.1,0-0.1c0,0,0-0.1,0-0.1c0-0.8,0.2-2,1.1-3.1C84.1,234,85.1,233.3,86.5,232.8z"/>
		<path class="st1" d="M48.3,294.2c-1.1,2.4-1.2,4.7,0.2,7c-1.1-0.7-2.1-1.6-2.5-2.8l0,0c-0.1-0.2-0.1-0.3-0.1-0.4
			c0-0.1,0-0.3,0-0.4C45.9,296.3,46.9,295.2,48.3,294.2z"/>
		<path class="st0" d="M48.3,294.2c-0.7,1.4-1,2.8-0.8,4.2c-0.2,0-0.4,0-0.6,0c-0.3,0-0.6,0-0.9-0.1c-0.1-0.2-0.1-0.3-0.1-0.4
			c0-0.1,0-0.3,0-0.4C45.9,296.3,46.9,295.2,48.3,294.2z"/>
	</g>
</g>
</svg>
