<svg width="718" height="203" viewBox="0 0 718 203" fill="none" xmlns="http://www.w3.org/2000/svg">
<g clip-path="url(#clip0)">
<g clip-path="url(#clip1)">
<path d="M769 -452H-184V501H769V-452Z" fill="#03415D"/>
<path opacity="0.5" d="M485.142 -87.5493C497.56 -96.6684 514.585 -98.6572 529.477 -99.9911C549.437 -101.762 569.518 -101.543 589.527 -102.683C650.111 -106.151 709.119 -120.873 769 -129.677V-148.521C737.107 -145.975 705.36 -142.07 673.758 -137.147C643.078 -132.345 612.64 -125.651 581.766 -122.377C502.531 -113.937 423.224 -122.983 344.038 -127.106C304.748 -129.143 264.803 -130.792 225.61 -126.524C189.352 -122.571 153.894 -113.84 119.309 -102.465C85.8881 -91.4783 53.2192 -78.4059 20.2836 -66.0368C-12.0943 -53.886 -44.7632 -41.711 -78.8387 -35.2839C-113.351 -28.7841 -148.663 -25.9465 -183.976 -25.995V6.23732C-182.812 6.31009 -181.647 6.38283 -180.483 6.4556C-161.954 7.59549 -143.425 9.36595 -124.871 10.2391C-112.405 10.8211 -100.23 11.0394 -88.0549 8.00778C-72.4844 4.1273 -57.1565 -0.674805 -41.6588 -4.87059C-24.0268 -9.64844 -5.90973 -14.6203 12.3771 -16.0512C21.569 -16.7788 33.4045 -17.4579 37.6245 -7.56267C44.5124 8.51711 28.6024 25.276 17.9068 35.1227C-3.84824 55.18 -30.0658 70.5322 -55.871 84.696C-87.6911 102.134 -120.554 117.607 -153.829 132.014C-163.87 136.379 -173.935 140.575 -184 144.698V186.389C-135.13 181.296 -90.2862 156.243 -51.4085 127.357C-7.43768 94.6882 31.44 55.7378 69.4688 16.4721C86.0336 -0.626297 102.429 -17.9187 119.406 -34.6048C139.948 -54.7834 162.989 -71.3967 189.57 -82.7714C215.957 -94.0248 244.091 -100.67 272.612 -103.362C300.819 -106.03 331.378 -107.194 359.002 -99.9183C409.691 -86.5549 446.313 -47.4832 481.747 -11.2976C499.67 7.01343 517.714 25.4943 538.863 40.1189C559.041 54.0644 580.893 65.5361 603.473 75.0675C653.846 96.3375 708.003 109.555 762.403 114.891C764.586 115.109 766.793 115.303 768.976 115.497V79.3846C762.136 78.8753 755.273 78.3902 748.385 78.0749C724.374 76.9835 700.267 76.1832 676.45 72.715C621.129 64.6387 566.123 40.4584 523.268 4.39407C505.102 -10.8854 486.573 -29.7785 478.084 -52.4308C473.355 -65.0182 473.404 -78.9394 485.142 -87.5493Z" fill="#446671"/>
<path opacity="0.5" d="M547.109 175.96C519.484 166.647 494.601 153.453 469.571 138.659C443.499 123.234 416.651 108.925 388.566 97.4774C333.73 75.1161 274.165 63.8627 214.866 68.301C120.036 75.4314 41.8929 134.269 -34.3587 185.346C-71.9025 210.497 -110.441 235.138 -152.641 251.824C-162.948 255.898 -173.426 259.415 -184.024 262.325V303.168C-170.127 297.686 -156.352 291.744 -142.479 286.506C-112.017 275.01 -82.4283 260.943 -55.1436 243.093C-3.5816 209.333 38.449 157.188 99.2757 138.95C130.198 129.686 162.479 131.626 193.717 138.417C227.332 145.717 259.831 157.722 291.36 171.401C322.525 184.91 350.125 204.676 378.865 222.526C408.866 241.177 440.25 256.772 475.077 263.878C548.297 278.793 624.355 268.413 697.162 256.359C721.124 252.406 745.038 248.04 768.976 244.039V183.042C696.532 201.814 617.758 199.753 547.109 175.96ZM540.803 231.621C538.062 235.744 533.139 237.709 528.482 238.703C518.975 240.789 508.886 240.595 499.233 239.867C472.021 237.806 445.9 228.371 421.453 216.657C394.727 203.851 369.479 188.329 344.377 172.638C333.584 165.895 322.913 158.231 311.49 152.605C302.589 148.215 293.615 143.898 285.078 138.805C273.534 131.917 251.924 118.82 258.182 102.28C264.9 84.5021 290.293 86.2241 305.16 88.8191C308.774 89.4497 312.363 90.2258 315.953 91.0746C322.38 91.3657 328.782 92.4571 335.04 93.985C358.589 99.7572 380.878 110.307 402.39 121.294C421.211 130.898 439.934 140.769 458.658 150.567C471.439 157.261 483.565 165.386 495.231 173.85C508.304 183.357 521.497 193.544 532.023 205.889C537.092 211.928 546.357 223.278 540.803 231.621Z" fill="#446671"/>
<path opacity="0.2" d="M363.659 35.2926C355 37.5966 355.17 43.0293 358.638 47.0068C359.002 47.5647 359.39 48.0497 359.778 48.4378C361.452 50.184 366.302 52.8761 371.274 52.0515C376.852 51.1299 379.763 48.8501 381.072 46.4005C383.255 42.326 377.556 31.6061 363.659 35.2926Z" fill="white"/>
<path opacity="0.2" d="M411.219 5.53421C405.058 7.18341 405.155 11.0639 407.629 13.9015C407.896 14.2896 408.163 14.6534 408.454 14.9202C409.642 16.1571 413.11 18.0731 416.651 17.491C420.629 16.8362 422.715 15.2112 423.636 13.465C425.188 10.5546 421.138 2.89062 411.219 5.53421Z" fill="white"/>
<path opacity="0.2" d="M689.717 2.7934C679.021 5.63101 679.215 12.3491 683.508 17.2725C683.969 17.9516 684.454 18.5579 684.914 19.043C687 21.2015 692.991 24.4999 699.102 23.5055C706.015 22.3656 709.604 19.5523 711.205 16.5206C713.921 11.476 706.888 -1.76618 689.717 2.7934Z" fill="white"/>
</g>
<g style="mix-blend-mode:multiply" opacity="0.5">
<path d="M743.177 -49.5723C744.783 -48.3008 746.639 -47.614 748.206 -46.2399C749.298 -45.2902 750.558 -43.9335 751.62 -42.8916C752.136 -42.3859 752.94 -41.7194 753.539 -41.0101C751.867 -42.7715 747.086 -43.6951 744.79 -44.4695C741.581 -45.5925 738.303 -46.5207 734.985 -47.3259C725.768 -49.516 716.359 -50.7925 706.892 -51.1368C691.699 -52.0028 676.601 -48.2348 663.597 -40.3313C651.054 -32.3011 640.526 -21.4938 632.827 -8.74516C621.444 9.85914 617.256 34.9316 621.757 56.3224C623.236 63.3167 627.089 69.644 630.125 76.061C637.504 91.7418 649.343 104.899 664.161 113.887C672.02 118.448 680.494 121.857 689.322 124.01C682.826 125.289 675.856 122.947 669.462 122.08C668.326 121.938 665.683 121.208 664.951 122.553C664.449 123.498 666.423 124.725 666.937 125.067C669.454 126.543 672.133 127.724 674.92 128.585C678.571 129.838 682.314 130.803 686.116 131.469C693.469 132.994 700.912 134.047 708.399 134.622C716.007 135.208 723.653 135.099 731.241 134.295C734.536 133.955 737.811 133.445 741.054 132.769C744.154 132.146 747.096 131.024 750.164 130.268C751.162 130.013 753.394 129.388 753.524 128.079C753.617 127.118 752.517 126.506 751.75 126.339C748.542 125.901 745.306 125.697 742.068 125.729C738.946 125.766 735.824 125.636 732.716 125.341C746.011 122.513 759.201 118.389 769.833 109.611C780.769 100.645 789.026 87.3536 794.283 74.3572C800.638 58.7345 799.347 41.7667 798.603 25.3351C797.976 11.385 792.84 -0.794172 784.874 -11.9647C788.613 -9.20152 792.03 -6.02732 795.061 -2.50175C796.197 -1.26645 799.972 3.4269 802.056 2.33366C805.512 0.542436 794.661 -13.011 793.575 -14.3592C786.507 -22.9303 778.531 -30.7104 769.787 -37.5631C761.858 -43.9219 753.296 -49.1404 743.125 -50.7569C742.419 -50.8215 742.95 -49.754 743.177 -49.5723ZM733.568 6.12228C733.641 6.19308 733.702 6.25378 733.835 6.24226C738.619 8.6008 742.746 12.105 745.848 16.4433C748.734 20.7137 750.59 25.5951 751.27 30.7039C752.621 41.5492 750.227 52.5304 744.485 61.8298C741.096 67.5067 736.323 72.2321 730.613 75.5647C727.139 77.8654 723.284 79.5325 719.229 80.4886C712.267 82.173 705.031 82.3832 697.984 81.1059C692.234 80.0109 686.818 77.5949 682.163 74.0483C677.508 70.5018 673.74 65.9219 671.158 60.6699C670.175 59.0284 669.331 57.3074 668.635 55.525C661.088 36.1257 668.083 9.7588 687.565 0.229286C702.339 -6.99607 720.579 -3.59925 733.568 6.12228Z" fill="#235367"/>
</g>
<path d="M767.794 -26.223L767.959 -26.0612C772.118 -21.9859 775.858 -17.5047 779.125 -12.6845C779.954 -11.4666 780.691 -10.3194 781.418 -9.10048C782.145 -7.8816 782.986 -6.46971 783.694 -5.12803C784.402 -3.78636 785.1 -2.43436 785.778 -1.06173C786.936 1.43002 787.993 3.94322 788.917 6.5088C793.37 18.859 794.997 32.0504 793.679 45.1125C792.574 56.1353 789.378 66.8465 784.263 76.6729C783.33 78.47 782.336 80.2268 781.27 81.9742C774.369 93.1394 765.066 102.626 754.039 109.745C743.033 116.878 730.563 121.442 717.553 123.099C704.54 124.741 691.324 123.423 678.893 119.242C666.461 115.062 655.134 108.128 645.757 98.957L645.561 98.7648C636.163 89.5879 628.958 78.4072 624.485 66.057C620.012 53.7067 618.385 40.5058 619.727 27.4391C620.18 23.1721 620.944 18.944 622.014 14.7885C624.175 6.26393 627.619 -1.88274 632.228 -9.37248C632.952 -10.5443 633.717 -11.7166 634.503 -12.8686C641.114 -22.5411 649.592 -30.7945 659.439 -37.1435C666.732 -41.8558 674.695 -45.4404 683.058 -47.7762C687.321 -48.9738 691.666 -49.8532 696.059 -50.407C709.065 -52.0221 722.267 -50.6867 734.686 -46.5C747.105 -42.3132 758.421 -35.3827 767.794 -26.223Z" fill="white"/>
<path d="M754.122 109.847C765.149 102.728 774.452 93.2407 781.353 82.0755C785.94 74.5989 789.367 66.47 791.517 57.966L741.442 45.2881C740.563 48.7348 739.173 52.0304 737.318 55.0653C734.471 59.6616 730.64 63.569 726.1 66.506C723.144 68.4244 719.913 69.8824 716.518 70.8298L730.483 120.561C738.854 118.193 746.823 114.582 754.122 109.847ZM681.9 62.0971L681.704 61.905C677.865 58.1698 674.924 53.6118 673.103 48.5746C670.674 41.799 670.324 34.4521 672.099 27.4764L622.044 14.7575C617.717 31.7183 618.58 49.5872 624.52 66.0525C628.963 78.4124 636.146 89.6064 645.53 98.7957L645.726 98.9879L681.9 62.0971ZM702.325 0.860982C707.686 0.206935 713.126 0.757369 718.248 2.47216C723.308 4.17618 727.916 7.00593 731.724 10.7483L767.794 -26.2231C758.421 -35.3828 747.105 -42.3133 734.686 -46.5001C722.267 -50.6868 709.065 -52.0222 696.059 -50.4071C691.677 -49.8619 687.342 -48.9929 683.089 -47.8072L697.043 1.93454C698.775 1.44786 700.54 1.08904 702.325 0.860982Z" fill="#FF2E35"/>
<path d="M736.671 5.8468C744.763 13.7808 749.372 24.6036 749.485 35.9353C749.598 47.2669 745.206 58.1796 737.275 66.2737L736.415 67.1506C728.396 74.824 717.706 79.0767 706.607 79.009C695.508 78.9412 684.871 74.5583 676.946 66.7875C669.021 59.0167 664.43 48.4676 664.145 37.3722C663.859 26.2768 667.901 15.5055 675.415 7.33712L676.275 6.46024C684.205 -1.62661 695.021 -6.23392 706.346 -6.34895C717.672 -6.46398 728.579 -2.07732 736.671 5.8468Z" fill="#03415E"/>
<g opacity="0.25">
<path d="M767.794 -26.2231L767.959 -26.0612C772.118 -21.986 775.858 -17.5048 779.125 -12.6846C779.954 -11.4667 780.691 -10.3195 781.418 -9.10058C782.145 -7.88169 782.986 -6.4698 783.694 -5.12812C784.402 -3.78644 785.1 -2.43447 785.778 -1.06184C786.936 1.42992 787.993 3.94311 788.917 6.50869C793.37 18.8588 794.997 32.0503 793.679 45.1124C792.574 56.1352 789.378 66.8464 784.263 76.6728C777.082 87.2199 767.679 96.0666 756.714 102.591C745.749 109.116 733.488 113.16 720.793 114.439C708.098 115.719 695.277 114.203 683.231 109.998C671.184 105.792 660.205 99 651.064 90.0979L650.868 89.9057C639.934 79.1876 632.007 65.785 627.881 51.0398C623.756 36.2946 623.577 20.7244 627.362 5.88813C629.004 -0.635191 631.411 -6.94154 634.533 -12.8996C641.145 -22.5722 649.623 -30.8255 659.469 -37.1745C666.763 -41.8868 674.726 -45.4714 683.089 -47.8072C687.342 -48.9929 691.677 -49.8619 696.059 -50.407C709.065 -52.0222 722.267 -50.6868 734.686 -46.5001C747.105 -42.3134 758.421 -35.3828 767.794 -26.2231Z" fill="white"/>
</g>
<g opacity="0.22">
<path opacity="0.22" d="M638.237 90.6529C640.507 93.5066 642.953 96.2158 645.561 98.7647L645.674 98.8759L644.912 100.334L644.672 100.847L644.162 102.007L643.972 102.469C643.763 103.033 643.544 103.607 643.356 104.191C643.267 104.468 643.177 104.745 643.109 105.021L642.957 105.176L642.866 105.269L642.653 105.485C642.291 106.153 641.728 106.691 641.044 107.023L640.764 109.683C640.732 109.951 640.599 110.197 640.392 110.37C640.185 110.543 639.919 110.63 639.649 110.613L639.282 110.678L638.904 110.651C638.628 110.623 638.372 110.495 638.185 110.29C638.073 110.18 637.986 110.046 637.932 109.898C637.877 109.75 637.856 109.592 637.87 109.435L638.1 106.828C637.482 106.461 636.997 105.908 636.715 105.247C636.212 103.916 635.972 102.499 636.01 101.076C636.095 98.2763 636.573 95.5029 637.431 92.837C637.683 92.0853 637.951 91.3572 638.237 90.6529Z" fill="black"/>
</g>
<g opacity="0.5">
<path opacity="0.5" d="M640.808 89.2484L640.889 89.1658L641.354 88.6913L641.567 88.4747L641.931 88.1033C642.345 87.6803 642.698 87.1966 643.103 86.784L643.164 86.7221C643.346 86.5364 643.518 86.361 643.7 86.1753L644.549 85.3088L645.005 84.8445L645.217 84.6279L645.46 84.3803L645.966 83.8645L646.39 83.4312L647.232 82.8202L647.435 82.6138L648.054 82.1889L648.48 81.919L649.303 81.4103L649.597 81.2338L649.658 81.1719L650.166 80.8808L650.715 80.5893C651.132 80.3707 651.559 80.1622 651.986 79.9741L652.332 79.8072L653.644 79.2528L653.735 79.16L653.806 79.0878L654.213 78.9407L654.865 78.7096L655.079 78.6359C655.608 78.4673 656.159 78.2984 656.689 78.191C657.219 78.0837 657.851 77.8935 658.432 77.7755L658.492 77.7136L659.706 77.5075L660.125 77.4523L660.522 77.3973C660.961 77.3419 661.4 77.307 661.839 77.272L662.329 77.2468L663.177 77.2078L663.606 77.2036C663.715 77.1923 663.824 77.1912 663.933 77.2004L664.26 77.1972L664.618 77.2039C665.037 77.21 665.445 77.2264 665.864 77.2529C666.243 77.2799 666.611 77.3171 666.989 77.3645C669.556 77.7236 672.147 77.8826 674.739 77.8401C675.492 77.8043 676.226 77.5868 676.878 77.2061C677.04 77.0913 677.181 76.948 677.293 76.7831C677.348 76.7042 677.392 76.6178 677.423 76.5264C677.465 76.4386 677.495 76.3455 677.512 76.2497C677.556 76.0345 677.575 75.8148 677.567 75.5953C677.545 75.1657 677.455 74.7424 677.299 74.3412C677.225 74.136 677.137 73.9355 677.038 73.741C676.42 72.6378 675.595 71.6641 674.609 70.8735C671.154 68.6003 667.258 67.0828 663.177 66.4207C659.095 65.7586 654.919 65.9667 650.923 67.0314C646.927 68.0961 643.201 69.9933 639.99 72.5987C636.779 75.2041 634.154 78.4589 632.289 82.1495C634.342 85.4865 636.616 88.6828 639.095 91.7172C639.356 91.2651 639.628 90.8231 639.92 90.3809C640.212 89.9387 640.515 89.6293 640.808 89.2484Z" fill="black"/>
</g>
<path d="M629.927 95.4547L632.82 95.7022L632.335 101.418C632.301 101.685 632.167 101.929 631.96 102.102C631.753 102.274 631.489 102.362 631.22 102.349L630.474 102.284C630.208 102.247 629.966 102.112 629.794 101.906C629.623 101.7 629.533 101.438 629.543 101.17L629.927 95.4547Z" fill="#AC752C"/>
<path d="M629.927 95.4547L631.379 95.5835L630.802 102.363L630.423 102.336C630.158 102.298 629.916 102.163 629.744 101.958C629.572 101.752 629.483 101.489 629.493 101.221L629.927 95.4547Z" fill="#7D551F"/>
<path d="M627.592 92.8211C627.665 90.0207 628.144 87.2457 629.013 84.5826C630.428 80.2556 632.831 76.3172 636.031 73.079C639.231 69.8408 643.14 67.3916 647.45 65.925C651.76 64.4585 656.352 64.0148 660.863 64.6292C665.374 65.2435 669.68 66.899 673.441 69.4647C674.427 70.2553 675.252 71.229 675.87 72.3322C676.304 73.0882 676.474 73.9671 676.354 74.8306C676.33 74.9247 676.301 75.0172 676.265 75.1073C676.234 75.1987 676.19 75.2851 676.134 75.364C675.801 75.7047 675.402 75.9734 674.961 76.1534C674.52 76.3335 674.046 76.4211 673.57 76.4109C670.975 76.4554 668.38 76.293 665.811 75.9251C665.432 75.8778 665.064 75.8405 664.686 75.8136C664.267 75.7871 663.858 75.7706 663.439 75.7645L663.081 75.7578L662.764 75.7099C662.655 75.7007 662.546 75.7018 662.437 75.7131L662.008 75.7173L661.16 75.7563L660.67 75.7815C660.231 75.8165 659.792 75.8514 659.353 75.9068L658.925 75.9928L658.507 76.048L657.293 76.254L657.232 76.3159C656.648 76.4306 656.067 76.5691 655.489 76.7315C654.939 76.8595 654.389 77.0283 653.879 77.1764L653.666 77.25C653.309 77.3659 652.943 77.4921 652.607 77.6282L652.536 77.7004L652.445 77.7933C651.446 78.1885 650.469 78.6345 649.516 79.1298L648.967 79.4212L648.182 79.6231L648.121 79.685L647.827 79.8615L646.923 80.4119L646.476 80.6411L645.857 81.066L645.654 81.2724L644.812 81.8834C643.594 82.827 642.452 83.8666 641.4 84.9922L641.339 85.0541C640.934 85.4668 640.52 85.8897 640.167 86.3734C639.975 86.5694 639.782 86.7654 639.652 87.0221L639.187 87.4966L639.106 87.5792L638.27 88.7828C636.783 91.0135 635.61 93.4384 634.785 95.9892L634.61 96.8696L634.448 97.0346L634.357 97.1275L634.296 97.1894C633.918 97.8775 633.334 98.4299 632.626 98.769C631.853 99.0324 631.017 99.0478 630.236 98.8129C629.796 98.6664 629.396 98.4218 629.065 98.0975C628.735 97.7732 628.482 97.3779 628.327 96.9415C627.803 95.6328 627.552 94.2304 627.592 92.8211Z" fill="#FFD54F"/>
<path d="M630.246 98.8028C630.253 96.1143 630.629 93.4396 631.363 90.8533L631.71 89.7771C633.083 85.551 635.398 81.6919 638.481 78.4911C641.563 75.2903 645.332 72.8314 649.504 71.2999C653.675 69.7683 658.14 69.2041 662.561 69.6499C666.982 70.0957 671.245 71.5398 675.026 73.8732C675.264 74.1059 675.602 74.2354 675.88 74.4268C676.158 74.6182 676.24 74.6582 676.415 74.7893C676.391 74.8835 676.361 74.9759 676.326 75.0661C676.295 75.1574 676.251 75.2439 676.195 75.3228C675.862 75.6634 675.463 75.9321 675.022 76.1122C674.581 76.2922 674.107 76.3799 673.631 76.3696C671.036 76.4141 668.441 76.2517 665.871 75.8839C665.493 75.8365 665.125 75.7993 664.747 75.7723C664.327 75.7458 663.919 75.7294 663.5 75.7233C663.479 75.7367 663.462 75.7543 663.449 75.7749L663.194 75.7672L662.764 75.7101C662.651 75.701 662.539 75.7123 662.437 75.7133L662.008 75.7175L661.16 75.7565L660.67 75.7817L659.843 75.8614L659.353 75.907L658.925 75.993L658.507 76.0482L657.293 76.2542L657.232 76.3161L656.742 76.3618C656.263 76.4584 655.784 76.5755 655.315 76.7027C654.847 76.8299 654.368 76.9675 653.899 77.1151L653.685 77.1683L653.471 77.2419L652.82 77.4731L652.372 77.6614L652.301 77.7336L652.21 77.8264L651.64 78.0568L651.223 78.2346L651.092 78.3687L650.512 78.6298L649.973 78.8905L649.332 79.2135L648.784 79.505L648.182 79.6233L648.121 79.6852L647.827 79.8618L646.923 80.4121L646.475 80.6413L645.856 81.0663L645.654 81.2726L645.442 81.4892L644.853 81.9241L644.429 82.3574L643.923 82.8732L643.67 83.1311L643.468 83.3374L643.012 83.8017L642.537 84.2865L641.566 85.2769L641.06 85.7927L640.746 86.1125L640.332 86.5354L639.968 86.9068L639.755 87.1235L639.29 87.598L639.209 87.6805L638.886 88.1332L638.645 88.5034L638.331 88.8232L637.979 89.3682L637.746 89.6055L637.314 90.3351L637.033 90.8283L636.642 91.5575L636.391 92.0606L636.031 92.8406L635.811 93.3332C635.671 93.6206 635.561 93.918 635.442 94.2052L635.312 94.5437L635.211 94.6468L634.754 95.9387L634.61 96.8698L634.448 97.0349L634.357 97.1277L634.296 97.1896C633.918 97.8777 633.334 98.4301 632.626 98.7692C631.855 99.0271 631.023 99.0389 630.246 98.8028Z" fill="#FFB300"/>
<path d="M673.601 76.4005C674.31 75.9755 674.896 75.3729 675.301 74.6523C675.706 73.9316 675.916 73.1178 675.91 72.2911C676.344 73.0471 676.514 73.926 676.394 74.7895C676.371 74.8836 676.341 74.9761 676.305 75.0662C676.274 75.1576 676.23 75.244 676.175 75.3229C675.843 75.6704 675.443 75.9455 675 76.1309C674.557 76.3164 674.081 76.4082 673.601 76.4005Z" fill="#7D551F"/>
<path d="M736.671 5.84684C744.763 13.7809 749.372 24.6037 749.485 35.9353C749.598 47.267 745.206 58.1797 737.275 66.2737L736.415 67.1506C743.93 58.9823 747.972 48.2109 747.686 37.1155C747.4 26.0201 742.809 15.4711 734.884 7.70026C726.96 -0.0705436 716.322 -4.45349 705.224 -4.52126C694.125 -4.58902 683.435 -0.336293 675.416 7.33716L676.275 6.46028C684.205 -1.62657 695.021 -6.23388 706.346 -6.34891C717.672 -6.46394 728.579 -2.07728 736.671 5.84684Z" fill="#235367"/>
<g opacity="0.5">
<path opacity="0.5" d="M684.992 -44.4034C683.712 -43.8814 682.572 -43.0671 681.663 -42.0257C680.755 -40.9842 680.102 -39.7445 679.758 -38.4058C678.472 -39.0357 677.15 -39.589 675.798 -40.0629C674.814 -40.4211 673.82 -40.7485 672.775 -41.0038C662.362 -44.0571 651.188 -43.1504 641.404 -38.4583L637.435 -42.0668L635.678 -34.7445L635.142 -34.1977C634.798 -33.8469 634.412 -33.5775 634.058 -33.2369L630.45 -35.4594L629.412 -36.0929C629.189 -35.8659 628.967 -35.639 628.754 -35.4223C624.887 -30.797 626.692 -24.8378 627.039 -23.8502C622.523 -13.9654 621.836 -2.75639 625.11 7.60607C625.407 8.62485 625.753 9.61248 626.111 10.6102C626.613 11.9511 627.193 13.2621 627.845 14.5369L627.57 14.6111C626.297 15.0123 625.132 15.6949 624.159 16.6082C623.186 17.5216 622.432 18.6423 621.951 19.8871C618.945 26.8743 625.966 36.4297 635.15 37.3816C638.176 37.8265 641.266 37.3214 643.994 35.936L644.222 36.2811C645.325 37.9565 646.604 39.5092 648.037 40.9127C651.988 44.7522 656.95 47.3863 662.344 48.5064L664.132 53.6995C664.755 55.5391 666.018 57.0939 667.691 58.0806C669.364 59.0674 671.335 59.4206 673.247 59.076L691.34 55.8946L719.008 83.0246C720.589 84.575 722.477 85.778 724.55 86.5563C723.084 89.1658 721.197 93.69 722.729 97.7617C723.208 99.0047 723.62 100.273 723.962 101.56L723.881 101.643C723.503 101.677 723.105 101.712 722.748 101.726C722.29 101.693 721.83 101.759 721.399 101.917C720.969 102.076 720.577 102.325 720.249 102.647C719.922 102.969 719.667 103.357 719.501 103.785C719.335 104.213 719.263 104.671 719.288 105.13C719.312 105.588 719.435 106.036 719.646 106.444C719.857 106.851 720.153 107.209 720.513 107.494C720.873 107.778 721.29 107.983 721.735 108.094C722.181 108.205 722.645 108.22 723.097 108.138C728.059 107.885 729.02 106.905 729.546 106.369C731.013 104.873 731.408 102.407 728.775 95.3933C728.093 93.5916 729.754 90.0402 731.095 88.2187C731.275 87.9745 731.417 87.7044 731.516 87.4176C735.293 87.1198 738.837 85.4751 741.504 82.7833L750.243 73.8701C752.915 71.1487 754.519 67.5575 754.762 63.7519C754.881 63.7118 754.997 63.6629 755.108 63.6055C757.771 62.1694 762.556 60.4673 764.576 61.1933C768.738 62.6645 771.476 63.6491 773.671 61.4105C774.187 60.8843 775.148 59.9043 775.314 54.9271C775.365 54.4848 775.325 54.0365 775.195 53.6106C775.065 53.1847 774.848 52.7904 774.558 52.4526C774.267 52.1148 773.91 51.8408 773.509 51.6479C773.108 51.4551 772.671 51.3475 772.225 51.332C771.78 51.3166 771.337 51.3935 770.923 51.5581C770.509 51.7226 770.134 51.9712 769.821 52.288C769.508 52.6049 769.264 52.9831 769.105 53.399C768.946 53.8148 768.874 54.2592 768.895 54.704C768.888 55.0412 768.871 55.4092 768.834 55.757C768.311 55.5884 767.655 55.3701 766.794 55.0516C762.519 53.5304 756.787 55.6607 753.817 57.018C752.994 54.8668 751.713 52.9201 750.063 51.313L715.349 17.2741L719.005 18.1475C719.64 14.1567 728.505 7.55126 724.377 4.41435L714.521 -4.60233C713.301 -9.96989 710.573 -14.8773 706.658 -18.747C705.227 -20.1524 703.649 -21.4007 701.953 -22.4708L701.613 -22.6821C702.938 -25.4456 703.375 -28.5511 702.864 -31.5728C701.6 -40.7249 691.878 -47.5054 684.992 -44.4034Z" fill="black"/>
</g>
<path d="M727.062 4.296L724.227 22.4384L723.071 29.6219L719.889 29.1321L716.696 28.6322L718.522 16.9057L720.657 3.31677C720.718 2.91781 720.635 2.51013 720.421 2.16743C720.208 1.82473 719.879 1.56963 719.494 1.44828L717.147 0.684627L712.125 -0.921201L706.703 -2.67635L701.025 -4.54136L699.764 -4.94788L698.76 -5.28539L695.213 -6.41529L695.967 -8.71127L696.215 -9.47997L696.711 -11.0174L697.207 -12.5548L697.996 -12.3071L698.344 -12.1879L700.435 -11.5341L702.618 -10.8302L703.264 -10.622L708.214 -9.02565L716.25 -6.42772L721.467 -4.75229C723.332 -4.16991 724.925 -2.9343 725.953 -1.27222C726.981 0.38985 727.375 2.36688 727.062 4.296Z" fill="#A16552"/>
<path d="M700.331 52.8334L675.088 57.2803C673.177 57.6281 671.204 57.2762 669.53 56.289C667.856 55.3018 666.594 53.7452 665.973 51.9038L657.655 27.7613L663.764 25.6579L672.062 49.8007C672.193 50.1832 672.457 50.5062 672.806 50.7108C673.155 50.9155 673.565 50.9883 673.963 50.9161L699.196 46.4794L700.331 52.8334Z" fill="#A16552"/>
<path d="M691.658 -9.49634L751.853 49.5281C754.303 51.9208 755.914 55.0405 756.446 58.4227C756.624 59.5849 756.67 60.7635 756.583 61.936C756.338 65.7345 754.73 69.3168 752.054 72.0237L743.314 80.9369C740.65 83.6676 737.089 85.3428 733.287 85.6533C732.06 85.766 730.825 85.7301 729.607 85.5464C726.288 85.0589 723.208 83.5334 720.809 81.1885L660.614 22.1641L691.658 -9.49634Z" fill="#A16552"/>
<path d="M719.928 33.096C716.469 40.2168 710.754 45.9948 703.671 49.5311C702.999 49.876 702.42 50.3754 701.979 50.9882C701.538 51.601 701.249 52.3096 701.136 53.0559C701.022 53.8021 701.088 54.5646 701.327 55.2806C701.566 55.9966 701.971 56.6457 702.51 57.1745L722.502 76.7785C724.814 79.0455 727.932 80.3012 731.17 80.2694C734.408 80.2376 737.5 78.9209 739.767 76.609L747.566 68.6552C749.833 66.3432 751.089 63.2254 751.057 59.9876C751.025 56.7498 749.709 53.6573 747.397 51.3903L727.487 31.8672C726.954 31.3455 726.307 30.9562 725.596 30.7309C724.886 30.5056 724.132 30.4505 723.397 30.5701C722.661 30.6897 721.964 30.9806 721.361 31.4194C720.759 31.8582 720.268 32.4325 719.928 33.096Z" fill="#F5DCB4"/>
<path d="M731.317 104.625C730.801 105.151 729.85 106.121 724.867 106.395C724.058 106.372 723.288 106.047 722.708 105.482C722.129 104.918 721.782 104.157 721.738 103.349C721.694 102.541 721.956 101.747 722.471 101.123C722.986 100.499 723.716 100.092 724.518 99.9818L725.733 99.8779C725.412 98.5461 725.017 97.2333 724.55 95.9458C722.358 90.154 727.154 83.4046 727.709 82.6533C728.237 82.0161 728.989 81.6052 729.81 81.5051C730.631 81.405 731.46 81.6233 732.125 82.1151C732.791 82.607 733.242 83.335 733.388 84.1495C733.533 84.9641 733.361 85.8034 732.906 86.4949C731.565 88.3165 729.904 91.8678 730.586 93.6695C733.219 100.683 732.784 103.129 731.317 104.625Z" fill="#A16552"/>
<path d="M630.904 14.9463C632.488 17.6615 634.423 20.1569 636.657 22.3685L637.121 22.8237C639.857 25.46 642.263 28.4175 644.288 31.6318C642.224 32.5606 639.937 32.8807 637.697 32.5547C630.435 31.7678 624.895 24.2311 627.324 18.7003C627.982 17.003 629.277 15.6301 630.934 14.8744L630.904 14.9463Z" fill="#A16552"/>
<path d="M630.904 14.9463C632.488 17.6615 634.423 20.1569 636.657 22.3685L637.121 22.8237C639.857 25.46 642.263 28.4175 644.288 31.6318C642.224 32.5606 639.937 32.8807 637.697 32.5547C630.435 31.7678 624.895 24.2311 627.324 18.7003C627.982 17.003 629.277 15.6301 630.934 14.8744L630.904 14.9463Z" fill="#F5DCB4"/>
<path d="M692.399 -17.2685C692.731 -15.7926 693.389 -14.4098 694.325 -13.222C695.262 -12.0341 696.453 -11.0714 697.81 -10.4048C699.857 -9.51403 701.762 -8.32794 703.464 -6.88438C713.089 2.55345 711.956 19.3305 700.93 30.5751C689.904 41.8198 673.102 43.3538 663.477 33.916C661.996 32.246 660.772 30.364 659.847 28.3323C659.154 26.9879 658.168 25.8161 656.962 24.9032C655.756 23.9903 654.36 23.3595 652.878 23.0573C652.156 22.9129 651.447 22.7115 650.757 22.4549C648.648 21.7107 646.726 20.5164 645.124 18.9548C643.6 17.3873 642.401 15.5348 641.594 13.5033C640.787 11.4718 640.388 9.30117 640.421 7.11548C640.453 4.92979 640.917 2.77198 641.784 0.765473C642.651 -1.24103 643.906 -3.05686 645.475 -4.57814C647.596 -6.75343 650.245 -8.33929 653.164 -9.17971C654.853 -9.66045 656.387 -10.5724 657.616 -11.8259C658.845 -13.0794 659.727 -14.6313 660.174 -16.3288C660.968 -19.2587 662.504 -21.9342 664.635 -24.0966C671.22 -30.8124 681.719 -31.2016 688.136 -24.9097C689.728 -23.3391 690.96 -21.4407 691.746 -19.3463C692.012 -18.6697 692.23 -17.9754 692.399 -17.2685Z" fill="#A16552"/>
<path d="M692.4 -17.2685C692.731 -15.7926 693.389 -14.4098 694.325 -13.222C695.262 -12.0341 696.453 -11.0714 697.81 -10.4048C699.857 -9.51403 701.762 -8.32795 703.464 -6.88439C713.089 2.55345 711.956 19.3305 700.93 30.5751C689.904 41.8198 673.102 43.3538 663.477 33.916C661.996 32.246 660.772 30.364 659.847 28.3323C659.154 26.9879 658.168 25.8161 656.962 24.9032C655.756 23.9903 654.36 23.3595 652.878 23.0573C652.156 22.9129 651.447 22.7115 650.757 22.4549C648.648 21.7107 646.726 20.5164 645.124 18.9548C643.6 17.3873 642.401 15.5349 641.594 13.5033C640.787 11.4718 640.388 9.30117 640.421 7.11548C640.453 4.92979 640.917 2.77198 641.784 0.765472C642.651 -1.24103 643.906 -3.05686 645.475 -4.57814C647.596 -6.75343 650.245 -8.3393 653.164 -9.17972C654.853 -9.66046 656.387 -10.5724 657.616 -11.8259C658.845 -13.0794 659.727 -14.6313 660.174 -16.3288C660.968 -19.2587 662.504 -21.9342 664.635 -24.0966C671.22 -30.8124 681.719 -31.2016 688.136 -24.9097C689.728 -23.3391 690.96 -21.4407 691.746 -19.3463C692.012 -18.6697 692.23 -17.9754 692.4 -17.2685Z" fill="#F5DCB4"/>
<path d="M686.782 -46.2498C685.504 -45.7281 684.367 -44.9137 683.461 -43.8719C682.556 -42.8302 681.908 -41.5904 681.569 -40.2524C680.278 -40.8712 678.956 -41.4243 677.609 -41.9095C676.625 -42.2676 675.62 -42.5847 674.586 -42.8504C664.168 -45.9003 652.991 -44.99 643.204 -40.2946L643.142 -40.3553L639.245 -43.9134L637.488 -36.591L636.942 -36.034C636.608 -35.6935 636.213 -35.4138 635.858 -35.0732L632.261 -37.306L631.222 -37.9394C630.99 -37.7022 630.777 -37.4855 630.565 -37.2689C626.728 -32.6132 628.534 -26.654 628.871 -25.6561C624.36 -15.7819 623.662 -4.58819 626.911 5.76981C627.217 6.77827 627.554 7.77622 627.911 8.77397C628.416 10.1138 628.995 11.4247 629.646 12.7006L629.371 12.7749C628.099 13.1774 626.934 13.8591 625.96 14.7703C624.986 15.6814 624.228 16.7988 623.742 18.0407C620.745 25.0381 627.756 34.5833 636.93 35.5456C639.956 35.9847 643.045 35.4799 645.774 34.0999L646.002 34.445C647.101 36.1237 648.38 37.6769 649.817 39.0767C658.504 47.594 671.61 49.478 684.187 45.2984C686.03 44.6816 687.831 43.9472 689.58 43.0999C692.742 41.5718 695.725 39.6992 698.475 37.5159L698.799 37.1858C700.288 35.9931 701.711 34.7206 703.063 33.3739L703.376 33.0541C708.794 27.5914 712.842 20.9243 715.19 13.5976C716.537 9.40056 717.184 5.01051 717.106 0.603336C717.05 -1.77437 716.753 -4.14026 716.219 -6.45804C716.059 -7.12057 715.889 -7.79321 715.679 -8.44502C715.468 -9.09684 715.257 -9.74864 715.006 -10.3796C714.754 -11.0106 714.503 -11.6416 714.221 -12.262L713.783 -13.1773L713.304 -14.0716L712.826 -14.9047C712.801 -14.927 712.777 -14.9506 712.754 -14.9755C712.421 -15.5444 712.069 -16.0927 711.696 -16.6203C711.458 -16.8529 711.312 -17.1784 711.095 -17.4522L710.474 -18.243C710.257 -18.4554 710.041 -18.6678 709.885 -18.9422C709.885 -18.9422 709.823 -19.0029 709.782 -19.0433C709.575 -19.2456 709.359 -19.4581 709.142 -19.6705C709.116 -19.7056 709.085 -19.7364 709.049 -19.7615C708.812 -19.9942 708.575 -20.2268 708.327 -20.4696C706.896 -21.8761 705.314 -23.1214 703.611 -24.1831C703.502 -24.2595 703.389 -24.33 703.272 -24.3943C704.596 -27.1544 705.036 -30.2555 704.533 -33.275C703.41 -42.5715 693.719 -49.383 686.782 -46.2498ZM630.863 14.9058C632.447 17.621 634.382 20.1164 636.616 22.328L637.08 22.7832C639.816 25.4195 642.222 28.377 644.247 31.5913C642.183 32.5201 639.896 32.8402 637.656 32.5142C630.436 31.7678 624.906 24.2207 627.324 18.7003C627.984 17.0052 629.274 15.6307 630.924 14.8643L630.863 14.9058ZM709.97 8.45866C710.032 12.572 709.262 16.6554 707.705 20.4633C706.148 24.2711 703.837 27.7246 700.911 30.6161C697.82 33.7811 694.118 36.2853 690.03 37.9769C686.505 39.423 682.725 40.1479 678.915 40.1089C673.162 40.1179 667.629 37.8983 663.478 33.9158C662.001 32.2421 660.778 30.3609 659.847 28.3322C659.154 26.9878 658.168 25.816 656.962 24.9031C655.756 23.9902 654.36 23.3594 652.878 23.0572C649.969 22.4258 647.294 20.9941 645.155 18.9237C642.083 15.7633 640.392 11.513 640.452 7.1063C640.512 2.69963 642.319 -1.50296 645.476 -4.57826C647.596 -6.75051 650.241 -8.33894 653.154 -9.18996C655.401 -9.8221 657.356 -11.2179 658.684 -13.1369C659.37 -14.1042 659.872 -15.1898 660.164 -16.3391C660.958 -19.2689 662.494 -21.9444 664.624 -24.1068C667.635 -27.3216 671.799 -29.2105 676.201 -29.3591C680.603 -29.5077 684.884 -27.9038 688.105 -24.8993C689.698 -23.329 690.93 -21.4305 691.715 -19.3359C691.979 -18.6491 692.194 -17.9445 692.359 -17.2273C692.93 -14.6626 694.476 -12.4207 696.671 -10.9761C697.02 -10.7547 697.4 -10.5439 697.78 -10.3535C699.827 -9.46277 701.732 -8.27669 703.434 -6.83313C704.7 -5.59817 705.805 -4.20848 706.724 -2.69695C708.735 0.685889 709.852 4.52491 709.97 8.45866ZM701.649 -32.5826C702.016 -30.345 701.737 -28.0491 700.845 -25.9643C697.596 -27.9318 694.593 -30.2791 691.898 -32.9568L691.434 -33.412C689.174 -35.6196 686.626 -37.5122 683.859 -39.0386C684.597 -40.7063 685.949 -42.0258 687.634 -42.7231C693.024 -45.2485 700.678 -39.8679 701.608 -32.623L701.649 -32.5826Z" fill="#A16552"/>
<path d="M672.774 10.4248C672.066 10.6966 671.713 11.4906 671.985 12.1983C672.257 12.9059 673.051 13.2592 673.758 12.9874L677.009 11.7388C677.716 11.467 678.07 10.673 677.798 9.96537C677.526 9.25773 676.732 8.90442 676.024 9.17623L672.774 10.4248Z" fill="#4E3F3F"/>
<path d="M678.983 6.14508C678.725 6.85793 679.094 7.64484 679.806 7.90271C680.519 8.16058 681.306 7.79175 681.564 7.07891L682.749 3.80457C683.006 3.09172 682.638 2.3048 681.925 2.04693C681.212 1.78906 680.425 2.15789 680.167 2.87074L678.983 6.14508Z" fill="#4E3F3F"/>
<path d="M660.984 12.0047C660.559 12.4626 660.049 12.8323 659.481 13.0927C658.913 13.353 658.3 13.499 657.676 13.5222C657.052 13.5454 656.429 13.4454 655.844 13.2279C655.258 13.0104 654.721 12.6797 654.264 12.2546L653.16 11.1722C652.283 10.2643 651.801 9.04543 651.821 7.78302C651.842 6.52061 652.362 5.31774 653.268 4.43827C654.129 3.5153 655.321 2.97172 656.583 2.92677C657.845 2.88182 659.073 3.33917 659.998 4.1985L661.102 5.28087C661.536 5.72999 661.877 6.26022 662.106 6.84127C662.335 7.42232 662.447 8.04279 662.436 8.66723C662.425 9.29166 662.291 9.90781 662.042 10.4805C661.793 11.0531 661.433 11.5711 660.984 12.0047Z" fill="#4E3F3F"/>
<path d="M653.267 4.43833L657.126 8.22155C657.588 8.67495 658.212 8.92609 658.859 8.91973C659.507 8.91338 660.125 8.65004 660.579 8.18765C661.032 7.72526 661.283 7.1017 661.277 6.45415C661.27 5.80659 661.007 5.18808 660.545 4.73468L659.998 4.19855C659.073 3.33923 657.845 2.88188 656.583 2.92683C655.321 2.97178 654.129 3.51536 653.267 4.43833Z" fill="#5D5360"/>
<path d="M656.579 7.68529C657.21 7.04147 657.228 6.03496 656.618 5.43719C656.009 4.83941 655.003 4.87674 654.371 5.52055C653.74 6.16437 653.722 7.17087 654.332 7.76865C654.942 8.36642 655.948 8.3291 656.579 7.68529Z" fill="white"/>
<g clip-path="url(#clip2)">
<path d="M694.603 24.5187C696.082 23.0101 696.058 20.5879 694.55 19.1086C693.041 17.6293 690.619 17.6531 689.14 19.1617C687.66 20.6703 687.684 23.0925 689.193 24.5718C690.701 26.0511 693.124 26.0273 694.603 24.5187Z" fill="#4E3F3F"/>
</g>
<path opacity="0.2" d="M686.782 -46.2497C685.504 -45.728 684.366 -44.9135 683.461 -43.8718C682.555 -42.8301 681.907 -41.5903 681.569 -40.2522C680.277 -40.8711 678.956 -41.4242 677.609 -41.9094C676.624 -42.2675 675.62 -42.5846 674.585 -42.8503C664.168 -45.9002 652.991 -44.9899 643.204 -40.2944L643.142 -40.3551C641.716 -36.2136 641.91 -31.6856 643.685 -27.6813C646.752 -21.2748 652.999 -19.7423 658.724 -13.178C659.116 -12.7936 659.468 -12.3271 659.82 -11.8606C665.831 -4.16498 667.796 1.34306 667.332 8.15205C667.09 10.6003 667.022 13.0626 667.128 15.5204C667.418 20.0743 668.925 24.7286 673.899 29.7882C678.318 34.0946 683.945 36.9512 690.03 37.977C692.859 38.5169 695.775 38.3727 698.537 37.5563C699.945 37.1001 701.226 36.3173 702.274 35.2719C723.587 69.7285 747.684 76.4802 747.684 76.4802L752.054 72.0236C754.727 69.3086 756.328 65.7186 756.562 61.9158L756.918 61.759C759.581 60.3229 764.366 58.6208 766.386 59.3468C770.539 60.8284 773.286 61.8026 775.481 59.564C775.997 59.0379 776.958 58.0579 777.124 53.0806C777.176 52.6383 777.135 52.1901 777.005 51.7642C776.875 51.3383 776.658 50.944 776.368 50.6062C776.078 50.2684 775.721 49.9944 775.319 49.8015C774.918 49.6086 774.481 49.5011 774.036 49.4856C773.591 49.4701 773.147 49.5471 772.733 49.7116C772.32 49.8762 771.944 50.1247 771.632 50.4416C771.319 50.7584 771.075 51.1367 770.915 51.5525C770.756 51.9684 770.685 52.4127 770.706 52.8576C770.699 53.1948 770.682 53.5628 770.644 53.9105C770.122 53.7419 769.466 53.5236 768.594 53.2154C764.329 51.6839 758.598 53.8142 755.628 55.1716C754.804 53.0203 753.523 51.0737 751.873 49.4666L724.267 22.3973L727.103 4.2549C727.412 2.33418 727.021 0.366278 726.002 -1.29068C724.983 -2.94763 723.402 -4.18349 721.548 -4.77336L716.331 -6.44879C716.171 -7.13175 715.991 -7.79407 715.801 -8.44609C715.611 -9.0981 715.379 -9.7497 715.128 -10.3807C714.877 -11.0117 714.625 -11.6426 714.343 -12.2631L713.905 -13.1783L713.426 -14.0727L712.948 -14.9058C712.923 -14.9281 712.899 -14.9517 712.876 -14.9766C712.537 -15.5386 712.184 -16.0868 711.818 -16.6213C711.581 -16.854 711.434 -17.1795 711.217 -17.4532L710.596 -18.244C710.38 -18.4565 710.163 -18.6689 710.007 -18.9432C710.007 -18.9432 709.945 -19.0039 709.904 -19.0444C709.698 -19.2467 709.481 -19.4591 709.264 -19.6716C709.238 -19.7067 709.207 -19.7374 709.171 -19.7626C708.934 -19.9952 708.697 -20.2279 708.449 -20.4707C707.018 -21.8772 705.436 -23.1224 703.734 -24.1842C703.624 -24.2605 703.511 -24.3311 703.394 -24.3954C704.718 -27.1554 705.159 -30.2565 704.656 -33.276C703.41 -42.5714 693.719 -49.3828 686.782 -46.2497ZM719.525 1.4175C719.91 1.53886 720.239 1.79395 720.452 2.13665C720.665 2.47935 720.749 2.88704 720.687 3.28599L718.553 16.875L715.262 13.6481C716.609 9.45108 717.256 5.06102 717.178 0.653853L719.525 1.4175Z" fill="#FFF9F8"/>
<path opacity="0.2" d="M793.098 31.0818C793.683 36.8139 793.673 42.5912 793.069 48.3214C792.696 52.5094 791.974 56.659 790.912 60.7271C789.936 64.4689 788.748 68.1523 787.354 71.7595C774.41 85.361 757.422 100.885 748.215 111.675C747.822 112.075 747.53 112.574 747.138 112.974C745.963 114.373 744.787 115.771 743.512 117.072C739.675 118.79 735.715 120.22 731.665 121.349C727.597 122.563 723.427 123.399 719.206 123.849C706.795 125.485 694.174 124.254 682.314 120.249C672.308 110.241 662.385 98.5483 660.451 93.3162C660.347 93.0631 660.278 92.7972 660.245 92.5256C657.968 82.6403 681.195 56.7515 704.855 34.6233L705.052 34.4232C711.826 28.1149 718.604 22.2028 724.894 16.9891C725.582 16.4869 726.073 15.9867 726.663 15.5846C738.064 6.15951 747.412 -0.372247 750.774 -0.999721C757.499 -2.25467 779.283 16.5541 793.098 31.0818Z" fill="black"/>
<path d="M804.918 44.2421C804.346 56.6323 764.352 90.2156 748.091 109.2C747.699 109.6 747.407 110.098 747.014 110.498C740.157 118.492 733.493 125.889 727.505 131.595C726.819 132.295 726.032 132.897 725.443 133.498C718.765 139.508 713.351 143.029 710.465 141.769C708.774 141.092 697.489 131.989 690.692 125.913L689.592 124.834C677.693 113.755 662.869 97.4538 660.428 90.9387C660.324 90.6856 660.255 90.4197 660.222 90.1482C657.945 80.2629 681.172 54.374 704.932 32.3439L705.128 32.1438C711.903 25.8355 718.681 19.9234 724.971 14.7097C725.659 14.2075 726.15 13.7074 726.74 13.3053C738.14 3.88013 747.489 -2.65162 750.951 -3.181C760.838 -5.25961 805.158 38.3942 804.918 44.2421Z" fill="#3995B5"/>
<path d="M687.713 91.1561C687.256 90.485 686.669 89.9103 685.99 89.4656C684.183 88.1672 681.954 87.6099 679.769 87.9102C677.584 88.2105 675.612 89.3452 674.265 91.0771C673.814 91.7053 673.446 92.3897 673.17 93.1136C673.036 93.4746 672.966 93.8571 672.963 94.2439C672.967 94.3313 672.989 94.417 673.03 94.4951C673.07 94.5731 673.127 94.6415 673.197 94.6953L672.983 95.3737C672.871 95.487 672.986 95.5997 673.101 95.7124L673.216 95.8251L673.331 95.9378C673.446 96.0505 673.557 95.9372 673.668 95.8239L673.883 95.1455C674.126 95.1392 674.361 95.0599 674.557 94.9178L674.779 94.6913C675.968 93.0834 677.653 91.9133 679.581 91.3574C682.246 90.5937 686.401 93.0236 687.51 92.4672C688.12 91.7765 687.828 91.2688 687.713 91.1561Z" stroke="#FFD54F" stroke-opacity="0.4" stroke-width="3" stroke-miterlimit="10"/>
<path d="M677.435 103.968C677.585 104.761 677.893 105.515 678.339 106.188C679.477 108.082 681.303 109.462 683.435 110.041C685.567 110.62 687.84 110.353 689.779 109.294C690.447 108.896 691.062 108.413 691.609 107.859C691.878 107.581 692.097 107.259 692.255 106.906C692.287 106.824 692.301 106.737 692.295 106.65C692.29 106.563 692.265 106.478 692.222 106.401L692.694 105.865C692.842 105.804 692.781 105.656 692.721 105.508L692.661 105.36L692.601 105.212C692.54 105.064 692.392 105.125 692.244 105.185L691.773 105.722C691.547 105.632 691.298 105.613 691.061 105.667L690.765 105.787C689.022 106.794 686.998 107.206 685 106.961C682.239 106.619 679.397 102.772 678.152 102.848C677.312 103.242 677.375 103.82 677.435 103.968Z" stroke="#FFD54F" stroke-opacity="0.4" stroke-width="3" stroke-miterlimit="10"/>
<path d="M686.439 101.573C687.234 101.715 688.048 101.697 688.836 101.52C691.011 101.132 692.952 99.9184 694.253 98.1331C695.554 96.3478 696.115 94.129 695.818 91.9403C695.684 91.1735 695.452 90.427 695.129 89.7187C694.966 89.3682 694.742 89.0487 694.469 88.7746C694.405 88.7157 694.328 88.6717 694.245 88.6459C694.161 88.6201 694.073 88.6132 693.986 88.6255L693.653 87.9938C693.649 87.8341 693.49 87.8376 693.33 87.8411L693.17 87.8446L693.01 87.8481C692.851 87.8517 692.854 88.0113 692.858 88.171L693.191 88.8028C693.027 88.9825 692.92 89.2076 692.886 89.4486L692.893 89.7679C693.211 91.7556 692.875 93.7929 691.934 95.5726C690.629 98.0298 686.022 99.3135 685.649 100.504C685.717 101.429 686.28 101.577 686.439 101.573Z" stroke="#FFD54F" stroke-opacity="0.4" stroke-width="3" stroke-miterlimit="10"/>
<path d="M719.054 99.2649C718.596 98.5939 718.01 98.0192 717.33 97.5745C715.523 96.2761 713.295 95.7188 711.11 96.0191C708.925 96.3194 706.953 97.4541 705.606 99.186C705.155 99.8142 704.787 100.499 704.511 101.222C704.377 101.583 704.307 101.966 704.304 102.353C704.307 102.44 704.33 102.526 704.371 102.604C704.411 102.682 704.468 102.75 704.538 102.804L704.323 103.483C704.212 103.596 704.327 103.709 704.442 103.821L704.557 103.934L704.672 104.047C704.787 104.159 704.898 104.046 705.009 103.933L705.223 103.254C705.467 103.248 705.702 103.169 705.898 103.027L706.12 102.8C707.309 101.192 708.994 100.022 710.922 99.4663C713.587 98.7026 717.742 101.133 718.851 100.576C719.46 99.8853 719.169 99.3776 719.054 99.2649Z" stroke="#FFD54F" stroke-opacity="0.4" stroke-width="3" stroke-miterlimit="10"/>
<path d="M708.776 112.077C708.926 112.87 709.234 113.624 709.68 114.297C710.818 116.191 712.644 117.571 714.776 118.15C716.908 118.729 719.181 118.461 721.12 117.403C721.788 117.005 722.403 116.522 722.95 115.968C723.219 115.69 723.438 115.368 723.596 115.015C723.628 114.933 723.642 114.846 723.636 114.759C723.631 114.672 723.606 114.587 723.563 114.51L724.035 113.973C724.183 113.913 724.122 113.765 724.062 113.617L724.002 113.469L723.942 113.321C723.881 113.173 723.733 113.233 723.585 113.294L723.114 113.831C722.888 113.741 722.64 113.722 722.402 113.776L722.106 113.896C720.363 114.902 718.339 115.314 716.341 115.07C713.58 114.727 710.738 110.881 709.493 110.957C708.653 111.351 708.716 111.929 708.776 112.077Z" stroke="#FFD54F" stroke-opacity="0.4" stroke-width="3" stroke-miterlimit="10"/>
<path d="M717.78 109.682C718.575 109.824 719.39 109.806 720.177 109.629C722.352 109.241 724.293 108.027 725.594 106.242C726.895 104.457 727.456 102.238 727.159 100.049C727.025 99.2825 726.793 98.5359 726.47 97.8277C726.307 97.4771 726.083 97.1577 725.81 96.8836C725.746 96.8246 725.669 96.7806 725.586 96.7549C725.502 96.7291 725.414 96.7221 725.327 96.7344L724.994 96.1027C724.99 95.943 724.831 95.9465 724.671 95.9501L724.511 95.9536L724.351 95.9571C724.192 95.9606 724.195 96.1203 724.199 96.28L724.532 96.9117C724.368 97.0915 724.261 97.3165 724.227 97.5575L724.234 97.8769C724.552 99.8646 724.216 101.902 723.275 103.682C721.97 106.139 717.363 107.422 716.99 108.613C717.058 109.538 717.621 109.685 717.78 109.682Z" stroke="#FFD54F" stroke-opacity="0.4" stroke-width="3" stroke-miterlimit="10"/>
<path d="M710.725 67.2834C710.267 66.6124 709.681 66.0377 709.001 65.593C707.194 64.2946 704.965 63.7373 702.78 64.0376C700.595 64.3379 698.623 65.4726 697.276 67.2044C696.825 67.8327 696.457 68.517 696.181 69.2409C696.047 69.6019 695.977 69.9844 695.974 70.3713C695.978 70.4586 696.001 70.5444 696.041 70.6225C696.081 70.7005 696.139 70.7689 696.208 70.8226L695.994 71.5011C695.883 71.6144 695.998 71.7271 696.113 71.8397L696.227 71.9524L696.342 72.0651C696.457 72.1778 696.568 72.0646 696.679 71.9513L696.894 71.2729C697.137 71.2666 697.372 71.1873 697.568 71.0452L697.79 70.8187C698.979 69.2108 700.664 68.0407 702.592 67.4848C705.257 66.721 709.412 69.151 710.521 68.5946C711.131 67.9038 710.84 67.3961 710.725 67.2834Z" stroke="#FFD54F" stroke-opacity="0.4" stroke-width="3" stroke-miterlimit="10"/>
<path d="M700.446 80.0953C700.597 80.8881 700.904 81.6429 701.35 82.3153C702.489 84.2092 704.315 85.5898 706.446 86.1687C708.578 86.7476 710.851 86.48 712.79 85.4218C713.459 85.0232 714.074 84.5409 714.62 83.9865C714.889 83.7086 715.108 83.386 715.267 83.0331C715.299 82.9519 715.313 82.8645 715.307 82.7773C715.301 82.6902 715.276 82.6053 715.234 82.5289L715.705 81.992C715.853 81.9317 715.793 81.7837 715.733 81.6357L715.672 81.4877L715.612 81.3397C715.552 81.1917 715.404 81.252 715.256 81.3122L714.785 81.8491C714.558 81.7597 714.31 81.7405 714.072 81.794L713.777 81.9145C712.033 82.921 710.01 83.333 708.011 83.0885C705.251 82.746 702.408 78.8996 701.163 78.9753C700.323 79.3691 700.386 79.9473 700.446 80.0953Z" stroke="#FFD54F" stroke-opacity="0.4" stroke-width="3" stroke-miterlimit="10"/>
<path d="M709.451 77.7004C710.245 77.8426 711.06 77.8247 711.847 77.6477C714.023 77.2594 715.964 76.0458 717.265 74.2605C718.566 72.4752 719.126 70.2564 718.829 68.0677C718.695 67.3009 718.464 66.5544 718.141 65.8461C717.977 65.4956 717.754 65.1761 717.481 64.902C717.416 64.843 717.34 64.7991 717.256 64.7733C717.173 64.7475 717.084 64.7405 716.998 64.7529L716.664 64.1211C716.661 63.9614 716.501 63.965 716.341 63.9685L716.182 63.972L716.022 63.9755C715.862 63.979 715.866 64.1387 715.869 64.2984L716.203 64.9301C716.038 65.1099 715.932 65.3349 715.897 65.5759L715.904 65.8953C716.223 67.883 715.886 69.9203 714.945 71.7C713.64 74.1572 709.033 75.4409 708.66 76.6314C708.728 77.5565 709.291 77.7039 709.451 77.7004Z" stroke="#FFD54F" stroke-opacity="0.4" stroke-width="3" stroke-miterlimit="10"/>
<path d="M736.518 40.979C736.06 40.308 735.474 39.7332 734.794 39.2886C732.987 37.9902 730.758 37.4329 728.573 37.7332C726.388 38.0335 724.416 39.1681 723.069 40.9C722.618 41.5282 722.25 42.2126 721.974 42.9365C721.84 43.2975 721.77 43.68 721.767 44.0669C721.771 44.1542 721.794 44.24 721.834 44.318C721.874 44.3961 721.931 44.4644 722.001 44.5182L721.787 45.1967C721.676 45.3099 721.791 45.4226 721.906 45.5353L722.02 45.648L722.135 45.7607C722.25 45.8734 722.361 45.7601 722.472 45.6469L722.687 44.9684C722.93 44.9622 723.165 44.8828 723.361 44.7407L723.583 44.5142C724.772 42.9063 726.457 41.7362 728.385 41.1803C731.05 40.4166 735.205 42.8466 736.314 42.2901C736.924 41.5994 736.633 41.0917 736.518 40.979Z" stroke="#FFD54F" stroke-opacity="0.4" stroke-width="3" stroke-miterlimit="10"/>
<path d="M714.712 126.361C714.254 125.69 713.667 125.115 712.988 124.67C711.181 123.372 708.952 122.815 706.767 123.115C704.582 123.415 702.61 124.55 701.263 126.282C700.812 126.91 700.444 127.594 700.168 128.318C700.034 128.679 699.964 129.062 699.961 129.449C699.965 129.536 699.987 129.622 700.028 129.7C700.068 129.778 700.125 129.846 700.195 129.9L699.981 130.578C699.87 130.692 699.984 130.804 700.099 130.917L700.214 131.03L700.329 131.143C700.444 131.255 700.555 131.142 700.666 131.029L700.881 130.35C701.124 130.344 701.359 130.265 701.555 130.123L701.777 129.896C702.966 128.288 704.651 127.118 706.579 126.562C709.244 125.798 713.399 128.228 714.508 127.672C715.118 126.981 714.826 126.474 714.712 126.361Z" stroke="#FFD54F" stroke-opacity="0.4" stroke-width="3" stroke-miterlimit="10"/>
<path d="M713.438 136.778C714.232 136.92 715.047 136.902 715.834 136.725C718.009 136.337 719.95 135.123 721.251 133.338C722.553 131.552 723.113 129.334 722.816 127.145C722.682 126.378 722.451 125.632 722.128 124.923C721.964 124.573 721.741 124.253 721.467 123.979C721.403 123.92 721.326 123.876 721.243 123.851C721.159 123.825 721.071 123.818 720.985 123.83L720.651 123.198C720.648 123.039 720.488 123.042 720.328 123.046L720.168 123.049L720.009 123.053C719.849 123.056 719.852 123.216 719.856 123.376L720.189 124.007C720.025 124.187 719.919 124.412 719.884 124.653L719.891 124.973C720.21 126.96 719.873 128.998 718.932 130.777C717.627 133.234 713.02 134.518 712.647 135.709C712.715 136.634 713.278 136.781 713.438 136.778Z" stroke="#FFD54F" stroke-opacity="0.4" stroke-width="3" stroke-miterlimit="10"/>
<path d="M691.519 120.427C692.313 120.569 693.128 120.551 693.915 120.374C696.091 119.986 698.032 118.772 699.333 116.987C700.634 115.202 701.194 112.983 700.897 110.794C700.763 110.027 700.532 109.281 700.209 108.573C700.045 108.222 699.822 107.903 699.549 107.629C699.484 107.57 699.408 107.526 699.324 107.5C699.241 107.474 699.153 107.467 699.066 107.479L698.732 106.848C698.729 106.688 698.569 106.691 698.409 106.695L698.25 106.699L698.09 106.702C697.93 106.706 697.934 106.865 697.937 107.025L698.271 107.657C698.106 107.836 698 108.061 697.965 108.302L697.972 108.622C698.291 110.609 697.954 112.647 697.013 114.427C695.709 116.884 691.102 118.167 690.728 119.358C690.797 120.283 691.359 120.43 691.519 120.427Z" stroke="#FFD54F" stroke-opacity="0.4" stroke-width="3" stroke-miterlimit="10"/>
<path d="M750.751 -3.37748C759.661 16.1522 717.643 65.6076 696.901 82.1588C686.972 90.0834 669.163 92.6361 660.33 91.0385L660.024 90.1498C657.747 80.2645 680.974 54.3757 704.734 32.3456L710.037 27.5378C717.792 20.2291 742.345 -1.8088 750.751 -3.37748Z" fill="white"/>
<path opacity="0.2" d="M804.918 44.242C804.346 56.6322 764.352 90.2155 748.092 109.2C747.699 109.6 747.407 110.098 747.015 110.498C746.232 111.497 745.251 112.497 744.468 113.496L705.029 32.0457C711.803 25.7373 718.581 19.8253 724.871 14.6116C725.461 14.2094 726.05 13.6092 726.64 13.2071C738.041 3.78198 747.389 -2.74977 750.851 -3.27915C760.839 -5.25967 805.256 38.2941 804.918 44.242Z" fill="white"/>
<g clip-path="url(#clip3)">
<path d="M659.004 -75.957C657.879 -76.2507 656.652 -76.4411 655.629 -76.6338L639.49 -67.5476L626.718 -56.3754L615.554 -33.4988C613.154 -28.5672 612.024 -23.1172 612.266 -17.6447C612.507 -12.1723 614.114 -6.85127 616.94 -2.16586L625.637 12.2361L631.408 18.502C631.408 18.502 638.963 -18.2416 686.791 -37.7738C684.329 -39.1756 683.804 -40.9057 681.547 -42.1056C672.314 -47.3113 665.032 -51.2116 661.03 -53.5151C655.925 -53.4575 649.576 -55.6324 645.271 -57.6261C647.498 -59.8977 650.573 -58.5028 653.327 -58.8402C651.896 -60.908 650.236 -62.8075 648.379 -64.5027C653.065 -65.7809 657.271 -63.4797 661.272 -61.1763C663.007 -61.2979 664.744 -61.2154 666.582 -61.2361C665.106 -66.7336 662.814 -72.2218 659.004 -75.957Z" fill="#3995B5"/>
<g opacity="0.5">
<path d="M632.597 -11.7064C632.139 -12.3774 631.553 -12.9521 630.873 -13.3968C629.066 -14.6952 626.837 -15.2525 624.652 -14.9522C622.467 -14.6519 620.495 -13.5172 619.148 -11.7854C618.697 -11.1571 618.329 -10.4728 618.053 -9.74888C617.919 -9.38786 617.849 -9.00537 617.846 -8.6185C617.85 -8.53116 617.873 -8.44538 617.913 -8.36734C617.953 -8.2893 618.011 -8.22094 618.08 -8.16716L617.866 -7.4887C617.755 -7.37544 617.87 -7.26275 617.985 -7.15006L618.1 -7.03736L618.214 -6.92467C618.329 -6.81198 618.44 -6.92524 618.552 -7.0385L618.766 -7.71695C619.009 -7.72319 619.244 -7.80253 619.44 -7.94463L619.662 -8.17116C620.851 -9.77902 622.537 -10.9491 624.464 -11.505C627.129 -12.2688 631.284 -9.83879 632.393 -10.3952C633.003 -11.086 632.712 -11.5937 632.597 -11.7064Z" stroke="#FFD54F" stroke-width="3" stroke-miterlimit="10"/>
<path d="M622.318 1.1054C622.469 1.89821 622.776 2.65299 623.222 3.32542C624.361 5.21924 626.187 6.59986 628.319 7.17876C630.45 7.75766 632.723 7.49004 634.662 6.43184C635.331 6.03323 635.946 5.55093 636.492 4.99659C636.761 4.71869 636.98 4.39609 637.139 4.0432C637.171 3.96196 637.185 3.8746 637.179 3.78741C637.173 3.70022 637.148 3.61538 637.106 3.53897L637.577 3.00203C637.725 2.9418 637.665 2.79381 637.605 2.6458L637.544 2.4978L637.484 2.3498C637.424 2.2018 637.276 2.26203 637.128 2.32226L636.657 2.85919C636.43 2.76979 636.182 2.7506 635.944 2.80411L635.649 2.92457C633.905 3.93103 631.882 4.34306 629.883 4.09853C627.123 3.75604 624.28 -0.0902992 623.035 -0.0145913C622.195 0.379151 622.258 0.957395 622.318 1.1054Z" stroke="#FFD54F" stroke-width="3" stroke-miterlimit="10"/>
<path d="M631.323 -1.28951C632.117 -1.14734 632.932 -1.16527 633.719 -1.34225C635.895 -1.73053 637.836 -2.94412 639.137 -4.72941C640.438 -6.51471 640.998 -8.73356 640.701 -10.9222C640.567 -11.689 640.336 -12.4356 640.013 -13.1438C639.849 -13.4944 639.626 -13.8138 639.353 -14.0879C639.288 -14.1469 639.212 -14.1909 639.128 -14.2166C639.045 -14.2424 638.956 -14.2494 638.87 -14.237L638.536 -14.8688C638.533 -15.0285 638.373 -15.025 638.213 -15.0214L638.054 -15.0179L637.894 -15.0144C637.734 -15.0109 637.738 -14.8512 637.741 -14.6915L638.075 -14.0598C637.91 -13.88 637.804 -13.655 637.769 -13.414L637.776 -13.0946C638.095 -11.1069 637.758 -9.06963 636.817 -7.2899C635.513 -4.83272 630.906 -3.54905 630.532 -2.35855C630.6 -1.4334 631.163 -1.286 631.323 -1.28951Z" stroke="#FFD54F" stroke-width="3" stroke-miterlimit="10"/>
</g>
<path d="M688.427 -37.5882C640.6 -17.8518 632.546 20.2249 632.546 20.2249L625.842 12.2336C632.263 -1.3177 647.682 -25.6922 681.853 -42.2113C684.029 -40.888 685.964 -38.9901 688.427 -37.5882Z" fill="#82BBCE"/>
</g>
<path opacity="0.2" d="M672.516 -37.6872C662.043 -34.2142 654.782 -26.6096 651.738 -23.7052C650.239 -22.2948 648.83 -20.7912 647.52 -19.2033C645.959 -17.8618 644.483 -16.4237 643.102 -14.8976C640.456 -11.7989 632.797 -4.38862 629.53 6.15043C628.621 9.17324 628.449 12.3698 629.027 15.4729C630.248 21.9858 633.792 27.8336 639.002 31.9284C640 32.6763 641.039 33.3676 642.115 33.9992C649.886 38.086 660.581 36.9898 662.379 28.3485C664.274 19.4089 665.262 8.99133 670.46 3.29033C675.859 -2.01618 686.454 -3.21054 695.354 -5.28039C696.639 -5.5788 697.849 -6.13297 698.915 -6.90981C699.98 -7.68665 700.878 -8.67022 701.555 -9.80177C702.151 -10.8198 702.575 -11.9291 702.811 -13.0851C703.303 -15.8317 703.19 -18.6527 702.478 -21.3508C701.767 -24.049 700.475 -26.5592 698.693 -28.706C691.555 -36.8829 681.21 -40.548 672.516 -37.6872Z" fill="black"/>
<path d="M668.825 -9.69852C654.154 0.258654 646.363 14.4105 642.264 31.0042L641.975 31.8992C649.747 35.986 660.441 34.8898 662.24 26.2485C664.135 17.3088 665.123 6.89128 670.32 1.19027C675.72 -4.11624 686.314 -5.3106 695.215 -7.38044C696.499 -7.67885 697.71 -8.23303 698.775 -9.00987C699.841 -9.7867 700.738 -10.7703 701.415 -11.9018C696.275 -14.4545 690.548 -15.5956 684.822 -15.2085C679.096 -14.8213 673.575 -12.9198 668.825 -9.69852Z" fill="#23B4DB"/>
<path d="M664.309 -22.3458C647.837 -16.5958 635.403 -2.10726 628.874 13.5916C630.069 20.156 633.613 26.0368 638.846 30.14C639.843 30.8819 640.881 31.5672 641.955 32.1928L642.251 31.2883C646.476 14.5244 654.51 0.10265 669.264 -9.92118C674.053 -13.2042 679.623 -15.1495 685.391 -15.5537C691.158 -15.9579 696.124 -14.2049 701.262 -11.6176C701.869 -12.6479 702.584 -14.2729 702.827 -15.4405C691.793 -23.4729 678.786 -27.0655 664.309 -22.3458Z" fill="#28AEDC"/>
<path d="M672.496 -39.6695C662.023 -36.1965 654.763 -28.5919 651.718 -25.6875C650.219 -24.2771 648.81 -22.7735 647.5 -21.1856C645.939 -19.844 644.463 -18.406 643.082 -16.8799C640.436 -13.7811 632.777 -6.37088 629.511 4.16817C628.601 7.19097 628.429 10.3875 629.008 13.4906C635.297 -2.13336 647.647 -16.33 663.947 -21.9418C678.373 -26.6431 691.789 -23.1073 702.771 -15.0871C703.264 -17.8336 703.15 -20.6546 702.439 -23.3527C701.728 -26.0509 700.436 -28.5611 698.653 -30.7079C691.535 -38.8652 681.191 -42.5303 672.496 -39.6695Z" fill="#26A5D1"/>
<path d="M668.825 -9.69853C654.843 -0.24373 647.046 13.3135 642.739 28.918C647.722 31.6445 654.263 31.5802 657.305 28.4776C658.191 27.532 658.797 26.3595 659.056 25.0902C659.437 23.5005 659.718 21.8127 659.999 20.1249C661.507 12.1803 663.013 4.03743 667.818 -1.26323C672.825 -6.16939 681.037 -7.73685 688.95 -9.40051C690.632 -9.71439 692.314 -10.0283 693.896 -10.4403C695.16 -10.7245 696.32 -11.3535 697.248 -12.2574C697.562 -12.5452 697.827 -12.8827 698.031 -13.2563C693.235 -15.0521 688.077 -15.6663 682.993 -15.047C677.91 -14.4277 673.05 -12.5932 668.825 -9.69853Z" fill="#1894BF"/>
<path d="M663.749 -21.9398C650.018 -17.1463 639.123 -6.23494 632.307 6.3214C630.495 13.5751 633.75 22.0677 640.743 27.5499L642.839 29.0161C647.046 13.3135 654.845 -0.045476 668.925 -9.60036C673.185 -12.5006 678.078 -14.3375 683.195 -14.9568C688.311 -15.5762 693.501 -14.9601 698.33 -13.1601C699.042 -14.3103 699.325 -15.9701 699.502 -17.3114C688.93 -23.948 676.791 -26.231 663.749 -21.9398Z" fill="#1686AC"/>
<path d="M696.094 -28.8984C690.275 -35.9781 681.324 -39.0621 673.814 -36.6094C665.12 -33.7486 658.737 -27.6395 655.3 -24.3347C655.3 -24.3347 653.63 -22.8315 653.433 -22.6313C652.55 -21.7305 651.374 -20.3312 650.1 -18.8319L649.904 -18.6317C648.43 -17.3287 647.152 -16.2258 646.171 -15.2249C645.975 -15.0247 644.505 -13.3252 644.505 -13.3252C641.268 -9.82417 635.285 -3.32247 632.596 5.42671C632.497 5.68199 632.433 5.94931 632.405 6.22156C639.319 -6.43486 650.116 -17.2461 663.847 -22.0397C676.791 -26.2308 689.108 -23.5763 699.48 -17.1361C699.726 -19.2233 699.553 -21.3386 698.971 -23.3582C698.39 -25.3778 697.411 -27.2612 696.094 -28.8984Z" fill="#147DA1"/>
<path d="M673.815 -36.6098C665.12 -33.749 658.737 -27.6398 655.3 -24.335C655.3 -24.335 653.63 -22.8318 653.434 -22.6316C652.55 -21.7308 651.375 -20.3316 650.101 -18.8322L649.904 -18.6321C648.43 -17.329 647.153 -16.2261 646.171 -15.2253C645.975 -15.0251 644.505 -13.3256 644.505 -13.3256C641.268 -9.82451 635.286 -3.32281 632.596 5.42637C632.497 5.68165 632.433 5.94897 632.406 6.22122C630.593 13.4749 633.849 21.9675 640.841 27.4497L642.937 28.916C647.92 31.6425 654.461 31.5782 657.504 28.4756C658.389 27.53 658.995 26.3575 659.255 25.0882C659.636 23.4985 659.916 21.8107 660.197 20.1228C661.705 12.1782 663.211 4.03542 668.016 -1.26525C673.023 -6.1714 681.235 -7.73887 689.148 -9.40253C690.83 -9.71641 692.512 -10.0303 694.094 -10.4423C695.358 -10.7266 696.519 -11.3555 697.447 -12.2594C697.761 -12.5472 698.025 -12.8847 698.23 -13.2583C698.942 -14.4085 699.403 -15.6969 699.58 -17.0383C699.826 -19.148 699.643 -21.2856 699.044 -23.3234C698.445 -25.3611 697.442 -27.2573 696.094 -28.8987C690.077 -35.9764 681.126 -39.0605 673.815 -36.6098ZM695.425 -28.3767C696.678 -26.8236 697.605 -25.0343 698.152 -23.1154C698.698 -21.1965 698.853 -19.1872 698.607 -17.2071C698.497 -15.9577 698.065 -14.7582 697.353 -13.7255C697.206 -13.4265 697.008 -13.1561 696.766 -12.9268C695.975 -12.0896 694.94 -11.5243 693.808 -11.3118C692.226 -10.8998 690.544 -10.5859 688.862 -10.272C680.751 -8.60639 672.541 -6.8407 667.336 -1.93259C662.234 3.4701 660.73 11.8112 659.322 19.8539C659.042 21.5417 658.761 23.2296 658.38 24.8193C658.19 25.955 657.645 27.0013 656.823 27.8082C654.173 30.5105 648.129 30.669 643.246 28.0407C642.507 27.7018 641.832 27.2391 641.25 26.6725C634.558 21.4848 631.308 13.5869 633.122 6.53137L633.12 6.33315C633.118 6.13492 633.217 6.03484 633.313 5.73653C635.904 -2.91257 641.789 -9.31418 645.025 -12.8152C645.025 -12.8152 646.495 -14.5148 646.692 -14.7149C647.825 -15.9006 649.039 -17.0055 650.327 -18.0217L650.719 -18.422C652.189 -20.1215 653.169 -21.3206 653.954 -22.1213C654.15 -22.3215 655.821 -23.8247 655.821 -23.8247C659.159 -27.0294 665.444 -33.0385 674.139 -35.8992C681.135 -38.0693 689.688 -35.1797 695.425 -28.3767Z" fill="#15738C"/>
</g>
<defs>
<clipPath id="clip0">
<rect width="718" height="203" rx="30" fill="white"/>
</clipPath>
<clipPath id="clip1">
<rect width="953" height="953" fill="white" transform="translate(-184 -452)"/>
</clipPath>
<clipPath id="clip2">
<rect width="7.65144" height="7.65144" fill="white" transform="translate(686.461 21.8933) rotate(-45.5626)"/>
</clipPath>
<clipPath id="clip3">
<rect width="98.3352" height="65.4624" fill="white" transform="translate(591.261 -20.2568) rotate(-45.5626)"/>
</clipPath>
</defs>
</svg>
