<svg width="309" height="294" viewBox="0 0 309 294" fill="none" xmlns="http://www.w3.org/2000/svg">
<g clip-path="url(#clip0_3514:7209)">
<path d="M180.977 121.384L184.183 128.002L171.106 134.325C169.761 134.979 168.128 134.387 167.476 133.045L166.658 131.308C166.006 129.966 166.601 128.334 167.946 127.68L180.977 121.384Z" fill="#AC752C"/>
<path d="M180.977 121.384L182.581 124.693L166.998 132.217L166.566 131.362C165.914 130.019 166.509 128.387 167.854 127.733L180.977 121.384Z" fill="#7D551F"/>
<path d="M183.694 112.88C189.743 109.511 196.363 106.916 203.495 105.315C243.601 96.2756 283.341 121.327 292.293 161.331C293.883 168.453 294.424 175.567 293.973 182.456C293.909 182.984 293.232 187.671 290.855 191.437C289.68 193.343 288.082 194.941 286.004 195.711L285.958 195.737C285.701 195.824 285.49 195.885 285.252 195.899C285.015 195.914 284.777 195.928 284.513 195.897C282.598 195.775 280.71 194.103 278.945 191.685C275.057 186.442 271.797 177.706 270.015 174.193L269.988 174.147C269.602 173.266 269.17 172.41 268.737 171.555C268.711 171.509 268.684 171.463 268.658 171.417C268.172 170.47 267.713 169.569 267.182 168.648C267.022 168.372 266.863 168.096 266.703 167.819C266.571 167.589 266.438 167.359 266.278 167.083C266.145 166.853 266.013 166.623 265.88 166.392C265.694 166.07 265.508 165.748 265.322 165.426C264.976 164.827 264.558 164.21 264.166 163.638C263.954 163.27 263.721 162.974 263.463 162.632C262.812 161.719 262.162 160.806 261.492 159.965C261.26 159.669 261.054 159.42 260.849 159.17C260.617 158.874 260.411 158.625 260.205 158.375C259.562 157.581 258.846 156.767 258.157 155.998C258.13 155.952 258.077 155.86 258.004 155.841L257.825 155.637C256.804 154.508 255.737 153.406 254.697 152.349C253.683 151.339 252.623 150.355 251.544 149.444C251.418 149.333 251.265 149.175 251.139 149.064L250.987 148.906C250.258 148.284 249.557 147.707 248.782 147.111C248.683 147.045 248.656 146.999 248.557 146.934C248.457 146.868 248.358 146.803 248.259 146.737C246.133 145.08 243.87 143.502 241.567 142.07C241.143 141.762 240.7 141.527 240.23 141.246C239.787 141.011 239.39 140.749 238.946 140.514C238.874 140.495 238.774 140.429 238.748 140.383C238.503 140.279 238.278 140.102 238.033 139.998C237.319 139.613 236.604 139.227 235.844 138.868C235.473 138.653 235.083 138.51 234.713 138.294C234.124 138.02 233.535 137.746 232.947 137.472C232.702 137.368 232.484 137.31 232.285 137.179C231.525 136.82 230.672 136.515 229.865 136.183C226.275 134.757 222.533 133.603 218.714 132.74C218.641 132.72 218.568 132.701 218.496 132.681C217.022 132.366 215.575 132.097 214.082 131.854C213.408 131.752 212.734 131.65 212.014 131.575C211.486 131.512 210.885 131.429 210.356 131.366C210.237 131.373 210.165 131.354 210.046 131.361C208.824 131.268 207.648 131.149 206.38 131.084C199.776 130.723 192.964 131.28 186.162 132.814C185.456 132.976 184.704 133.165 183.998 133.327C183.998 133.327 183.76 133.341 183.404 133.363C183.285 133.37 183.166 133.377 183.047 133.385C182.975 133.365 182.929 133.392 182.856 133.372C182.783 133.353 182.737 133.38 182.664 133.36C181.324 133.275 179.229 132.95 177.402 131.489C176.078 130.473 174.883 128.831 174.188 126.347C173.545 123.957 174.297 121.743 175.683 119.776C177.719 116.698 181.414 114.258 183.694 112.88Z" fill="#FFB300"/>
<path d="M174.095 126.401C174.141 126.374 174.188 126.347 174.188 126.347C179.88 122.999 186.163 120.354 192.879 118.563C193.769 118.295 194.64 118.099 195.557 117.876C235.617 108.864 275.357 133.915 284.355 173.893C285.683 179.816 286.272 185.736 286.141 191.581C286.144 192.438 286.101 193.322 286.032 194.16C286.04 194.708 285.976 195.236 285.939 195.81C285.681 195.897 285.47 195.957 285.233 195.972C284.995 195.986 284.757 196.001 284.493 195.969C282.578 195.847 280.69 194.176 278.925 191.758C275.037 186.515 271.777 177.779 269.995 174.266L269.968 174.22C269.582 173.338 269.15 172.483 268.718 171.628C268.691 171.582 268.664 171.536 268.638 171.49C268.153 170.542 267.694 169.641 267.162 168.721C267.109 168.628 267.056 168.536 267.029 168.49C266.923 168.306 266.817 168.122 266.71 167.938C266.577 167.708 266.445 167.478 266.285 167.202C266.152 166.971 266.019 166.741 265.887 166.511C265.7 166.189 265.514 165.867 265.328 165.544C264.91 164.927 264.565 164.328 264.173 163.756C263.961 163.388 263.728 163.093 263.47 162.751C263.078 162.179 262.686 161.607 262.249 161.062C261.99 160.721 261.758 160.425 261.499 160.083C261.267 159.788 261.061 159.538 260.856 159.289C260.624 158.993 260.418 158.744 260.212 158.494C259.569 157.699 258.853 156.885 258.164 156.117C258.137 156.071 258.084 155.979 258.011 155.96L257.832 155.756C257.653 155.553 257.474 155.349 257.295 155.145C256.453 154.22 255.565 153.321 254.704 152.468C253.816 151.569 252.908 150.743 252.001 149.917C251.875 149.805 251.722 149.648 251.597 149.536C251.471 149.425 251.318 149.267 251.192 149.156L251.04 148.998C250.59 148.644 250.113 148.245 249.663 147.891C249.411 147.668 249.087 147.426 248.835 147.203C248.736 147.137 248.709 147.091 248.61 147.026C248.51 146.96 248.411 146.895 248.312 146.829C247.888 146.522 247.511 146.187 247.087 145.88C246.763 145.637 246.465 145.441 246.14 145.199C246.014 145.087 245.842 145.002 245.717 144.891C245.293 144.583 244.823 144.302 244.373 143.948C243.976 143.686 243.552 143.379 243.109 143.144C242.612 142.816 242.116 142.489 241.574 142.189C241.104 141.908 240.707 141.646 240.237 141.365C239.794 141.13 239.396 140.868 238.953 140.633C238.881 140.613 238.781 140.548 238.755 140.502C238.51 140.398 238.285 140.221 238.04 140.117C237.326 139.731 236.611 139.346 235.851 138.987C235.48 138.771 235.09 138.628 234.719 138.413C234.131 138.139 233.542 137.865 232.954 137.591C232.709 137.487 232.491 137.428 232.292 137.298C232.048 137.193 231.829 137.135 231.631 137.004C231.069 136.776 230.48 136.503 229.918 136.275C229.429 136.066 228.966 135.904 228.431 135.722C227.868 135.494 227.306 135.266 226.725 135.111C226.434 135.033 226.117 134.91 225.826 134.832C225.608 134.774 225.363 134.67 225.145 134.611C224.609 134.43 224.101 134.294 223.565 134.112C223.03 133.93 222.475 133.821 221.939 133.639C221.503 133.523 221.067 133.406 220.63 133.29C220.003 133.161 219.395 132.96 218.767 132.831C218.694 132.812 218.621 132.793 218.549 132.773C217.967 132.618 217.366 132.536 216.738 132.407C216.329 132.337 215.965 132.24 215.582 132.215C215.1 132.125 214.617 132.036 214.089 131.972C213.633 131.929 213.224 131.858 212.814 131.788C212.55 131.756 212.285 131.725 212.021 131.693C211.493 131.63 210.892 131.548 210.363 131.484C210.244 131.492 210.172 131.472 210.053 131.479C209.597 131.436 209.141 131.392 208.686 131.348C208.302 131.324 207.919 131.3 207.536 131.275C207.153 131.251 206.77 131.227 206.387 131.202C205.813 131.166 205.311 131.149 204.763 131.158C204.452 131.153 204.188 131.122 203.904 131.163C203.211 131.133 202.471 131.131 201.759 131.174C201.283 131.203 200.781 131.186 200.352 131.188C199.639 131.232 198.972 131.248 198.259 131.292C197.784 131.321 197.309 131.349 196.834 131.378C196.121 131.422 195.434 131.511 194.675 131.581C194.2 131.61 193.751 131.685 193.302 131.76C192.497 131.857 191.719 131.999 190.913 132.096C190.63 132.137 190.3 132.205 190.016 132.246C189.897 132.253 189.778 132.26 189.64 132.34C188.531 132.551 187.377 132.788 186.222 133.025C185.516 133.187 184.764 133.375 184.058 133.537C184.058 133.537 183.82 133.552 183.464 133.574C183.345 133.581 183.226 133.588 183.108 133.595C183.035 133.576 182.989 133.602 182.916 133.583C182.843 133.564 182.797 133.59 182.724 133.571C181.384 133.486 179.29 133.16 177.462 131.699C175.985 130.526 174.791 128.884 174.095 126.401Z" fill="#FFD54F"/>
<path d="M278.925 191.757C282.973 193.655 286.988 193.792 290.882 191.483C289.707 193.389 288.108 194.987 286.031 195.756L285.985 195.783C285.727 195.87 285.516 195.931 285.279 195.945C285.041 195.96 284.803 195.974 284.539 195.943C282.578 195.847 280.69 194.175 278.925 191.757Z" fill="#7D551F"/>
<path d="M278.925 191.757C281.352 192.873 283.745 193.394 286.114 193.131C286.135 193.487 286.084 193.824 286.032 194.16C286.04 194.708 285.976 195.236 285.912 195.764C285.655 195.851 285.444 195.911 285.16 195.952C284.923 195.967 284.685 195.981 284.421 195.95C282.578 195.847 280.69 194.175 278.925 191.757Z" fill="#AC752C"/>
</g>
<g clip-path="url(#clip1_3514:7209)">
<path d="M251.186 282.75L253.584 279.214L260.563 283.957C261.282 284.443 261.459 285.436 260.973 286.154L260.337 287.07C259.851 287.788 258.857 287.963 258.138 287.476L251.186 282.75Z" fill="#AC752C"/>
<path d="M251.186 282.75L252.385 280.982L260.695 286.636L260.391 287.101C259.905 287.819 258.911 287.994 258.192 287.507L251.186 282.75Z" fill="#7D551F"/>
<path d="M246.119 283.853C242.667 281.788 239.439 279.212 236.562 276.089C220.367 258.539 221.427 231.272 238.951 215.15C242.072 212.281 245.494 209.943 249.09 208.169C249.375 208.048 251.929 207.027 254.514 207.129C255.814 207.167 257.082 207.507 258.072 208.328L258.099 208.344C258.218 208.448 258.309 208.536 258.386 208.652C258.462 208.767 258.538 208.882 258.599 209.024C259.094 210.023 258.801 211.459 258.098 213.049C256.589 216.527 253.142 220.705 251.892 222.621L251.877 222.648C251.545 223.098 251.241 223.564 250.936 224.03C250.921 224.057 250.905 224.084 250.89 224.11C250.554 224.63 250.234 225.122 249.925 225.657C249.833 225.817 249.74 225.978 249.647 226.138C249.57 226.272 249.493 226.406 249.4 226.566C249.323 226.7 249.246 226.833 249.169 226.967C249.061 227.154 248.953 227.341 248.845 227.529C248.644 227.876 248.455 228.266 248.281 228.629C248.157 228.843 248.076 229.046 247.979 229.275C247.709 229.867 247.438 230.46 247.21 231.041C247.128 231.244 247.063 231.42 246.997 231.596C246.915 231.798 246.85 231.974 246.784 232.15C246.571 232.704 246.369 233.301 246.183 233.871C246.168 233.898 246.137 233.951 246.148 233.993L246.098 234.143C245.826 234.984 245.582 235.841 245.352 236.671C245.139 237.475 244.951 238.294 244.807 239.101C244.787 239.197 244.752 239.319 244.733 239.415L244.698 239.538C244.596 240.085 244.51 240.606 244.435 241.168C244.431 241.237 244.415 241.264 244.411 241.333C244.407 241.402 244.403 241.471 244.399 241.54C244.183 243.09 244.046 244.687 243.995 246.262C243.963 246.564 243.973 246.856 243.968 247.174C243.979 247.465 243.963 247.741 243.973 248.032C243.984 248.074 243.98 248.143 243.965 248.17C243.984 248.323 243.96 248.488 243.979 248.641C243.992 249.113 244.006 249.584 244.046 250.071C244.045 250.32 244.087 250.558 244.086 250.807C244.119 251.182 244.152 251.558 244.185 251.934C244.204 252.087 244.238 252.214 244.23 252.351C244.27 252.838 244.364 253.356 244.432 253.858C244.757 256.079 245.263 258.296 245.938 260.468C245.95 260.51 245.961 260.552 245.972 260.595C246.242 261.428 246.527 262.234 246.838 263.055C246.982 263.424 247.127 263.793 247.298 264.177C247.42 264.461 247.553 264.787 247.675 265.071C247.713 265.129 247.724 265.171 247.762 265.229C248.071 265.87 248.352 266.496 248.687 267.153C250.424 270.58 252.683 273.845 255.43 276.822C255.717 277.13 256.03 277.453 256.316 277.761C256.316 277.761 256.393 277.877 256.507 278.05C256.545 278.107 256.584 278.165 256.622 278.223C256.633 278.265 256.66 278.28 256.671 278.323C256.683 278.365 256.709 278.38 256.721 278.423C257.067 279.122 257.512 280.27 257.308 281.613C257.181 282.575 256.702 283.652 255.655 284.724C254.639 285.741 253.307 286.006 251.915 285.88C249.775 285.75 247.474 284.6 246.119 283.853Z" fill="#FFB300"/>
<path d="M255.708 284.754C255.681 284.739 255.655 284.724 255.655 284.724C252.317 282.832 249.161 280.44 246.31 277.582C245.916 277.212 245.565 276.831 245.187 276.434C229.018 258.899 230.078 231.632 247.576 215.495C250.169 213.106 252.976 211.09 255.955 209.459C256.385 209.208 256.842 208.973 257.284 208.765C257.557 208.601 257.841 208.48 258.141 208.332C258.26 208.436 258.351 208.525 258.428 208.64C258.504 208.756 258.58 208.871 258.641 209.013C259.136 210.012 258.843 211.447 258.14 213.037C256.631 216.516 253.184 220.693 251.934 222.61L251.919 222.637C251.587 223.087 251.283 223.553 250.978 224.019C250.962 224.046 250.947 224.072 250.932 224.099C250.596 224.618 250.276 225.111 249.967 225.646C249.936 225.699 249.905 225.753 249.89 225.779C249.828 225.886 249.766 225.993 249.705 226.1C249.628 226.234 249.55 226.368 249.458 226.528C249.381 226.662 249.303 226.795 249.226 226.929C249.118 227.116 249.01 227.303 248.902 227.491C248.713 227.88 248.512 228.228 248.338 228.591C248.215 228.805 248.133 229.008 248.037 229.237C247.863 229.6 247.689 229.963 247.542 230.342C247.445 230.571 247.364 230.774 247.267 231.003C247.186 231.206 247.12 231.382 247.054 231.557C246.973 231.76 246.907 231.936 246.841 232.112C246.628 232.666 246.427 233.263 246.24 233.833C246.225 233.86 246.194 233.913 246.206 233.955L246.155 234.105C246.105 234.254 246.054 234.403 246.004 234.552C245.783 235.244 245.589 235.952 245.41 236.633C245.215 237.341 245.063 238.037 244.911 238.734C244.892 238.83 244.857 238.952 244.837 239.048C244.818 239.143 244.783 239.266 244.763 239.362L244.728 239.484C244.681 239.813 244.618 240.169 244.571 240.499C244.532 240.69 244.505 240.923 244.465 241.115C244.461 241.184 244.446 241.211 244.442 241.279C244.438 241.348 244.434 241.417 244.43 241.486C244.398 241.789 244.339 242.076 244.308 242.378C244.28 242.612 244.268 242.819 244.24 243.052C244.22 243.148 244.228 243.259 244.208 243.355C244.176 243.657 244.171 243.975 244.124 244.305C244.108 244.58 244.076 244.883 244.087 245.174C244.066 245.519 244.046 245.864 244.052 246.224C244.047 246.542 244.031 246.818 244.026 247.136C244.036 247.427 244.02 247.703 244.03 247.994C244.042 248.036 244.038 248.105 244.022 248.132C244.041 248.285 244.017 248.45 244.036 248.603C244.05 249.075 244.063 249.546 244.104 250.033C244.103 250.282 244.144 250.52 244.143 250.769C244.176 251.144 244.21 251.52 244.243 251.896C244.261 252.049 244.295 252.176 244.287 252.313C244.306 252.467 244.34 252.593 244.332 252.731C244.38 253.08 244.414 253.456 244.462 253.805C244.499 254.112 244.552 254.392 244.616 254.714C244.665 255.063 244.713 255.412 244.804 255.749C244.85 255.918 244.88 256.114 244.925 256.282C244.959 256.409 244.978 256.562 245.012 256.689C245.076 257.011 245.155 257.307 245.219 257.629C245.284 257.951 245.39 258.262 245.454 258.584C245.522 258.837 245.59 259.091 245.658 259.344C245.776 259.697 245.851 260.061 245.969 260.415C245.98 260.457 245.992 260.499 246.003 260.541C246.094 260.879 246.227 261.205 246.345 261.558C246.428 261.785 246.485 261.996 246.584 262.196C246.679 262.464 246.774 262.733 246.895 263.017C247.006 263.259 247.089 263.486 247.173 263.712C247.234 263.854 247.295 263.996 247.355 264.139C247.477 264.423 247.61 264.749 247.732 265.033C247.77 265.091 247.782 265.133 247.82 265.191C247.93 265.433 248.04 265.675 248.151 265.917C248.25 266.117 248.349 266.316 248.448 266.516C248.547 266.716 248.646 266.916 248.745 267.115C248.893 267.415 249.03 267.672 249.194 267.945C249.282 268.103 249.343 268.245 249.446 268.376C249.633 268.733 249.846 269.106 250.075 269.452C250.228 269.683 250.365 269.94 250.491 270.155C250.719 270.501 250.922 270.832 251.15 271.178C251.303 271.409 251.456 271.64 251.608 271.87C251.837 272.216 252.081 272.536 252.337 272.897C252.49 273.128 252.658 273.332 252.826 273.536C253.108 273.913 253.406 274.263 253.689 274.64C253.792 274.771 253.922 274.917 254.025 275.048C254.063 275.106 254.101 275.163 254.181 275.21C254.609 275.706 255.064 276.218 255.518 276.73C255.805 277.038 256.118 277.362 256.405 277.67C256.405 277.67 256.481 277.785 256.595 277.958C256.634 278.016 256.672 278.074 256.71 278.131C256.721 278.173 256.748 278.189 256.759 278.231C256.771 278.273 256.798 278.289 256.809 278.331C257.155 279.03 257.6 280.178 257.396 281.522C257.235 282.605 256.755 283.683 255.708 284.754Z" fill="#FFD54F"/>
<path d="M258.14 213.038C257.919 210.45 256.822 208.391 254.529 207.103C255.829 207.14 257.097 207.48 258.088 208.302L258.114 208.317C258.233 208.421 258.325 208.51 258.401 208.625C258.477 208.74 258.553 208.856 258.614 208.998C259.136 210.012 258.843 211.447 258.14 213.038Z" fill="#7D551F"/>
<path d="M258.14 213.038C257.996 211.493 257.563 210.138 256.743 209.022C256.916 208.908 257.1 208.837 257.284 208.765C257.557 208.601 257.842 208.48 258.126 208.359C258.244 208.463 258.336 208.552 258.439 208.683C258.516 208.798 258.592 208.914 258.653 209.056C259.136 210.012 258.844 211.447 258.14 213.038Z" fill="#AC752C"/>
</g>
<g clip-path="url(#clip2_3514:7209)">
<path d="M188.572 164.627C174.773 164.513 160.816 165.406 146.941 164.934C140.118 164.711 129.738 164.651 125.891 158.401C113.838 138.824 161.176 122.173 172.066 120.589C189.231 118.073 207.842 120.562 224.286 128.307C234.111 132.94 247.4 140.986 249.48 152.443C252.834 171.075 196.999 164.656 188.572 164.627Z" fill="#92D166"/>
<path d="M183.315 145.503C169.371 146.281 155.309 148.956 141.715 153.29C136.812 154.864 125.919 158.357 125.919 158.357C125.227 157.046 165.836 140.788 181.11 139.575C196.757 138.357 213.058 139.844 228.619 143.997C235.248 145.759 249.465 152.371 249.465 152.371C249.298 152.818 235.937 150.028 229.705 148.893C214.304 146.015 198.622 144.62 183.315 145.503Z" fill="#65B22E"/>
<path d="M142.894 101.647C145.909 112.23 150.063 162.207 127.31 159.258C119.961 158.324 115.829 148.991 112.728 142.73C106.587 130.309 101.642 117.182 95.9586 104.625C92.437 96.9204 63.5874 48.9012 82.1998 44.054C93.4168 41.2025 106.404 50.2861 114.509 57.1964C128.309 69.0255 138.159 84.957 142.894 101.647Z" fill="#92D166"/>
<path d="M121.841 101.215C127.243 116.303 127.31 159.257 127.31 159.257C126.893 159.234 126.051 147.961 125.464 142.772C123.893 128.623 120.53 114.671 115.529 101.631C110.066 87.3057 102.37 73.5703 93.4377 60.6988C89.8493 55.4786 82.1717 44.0975 82.1717 44.0975C82.5833 43.7473 94.0851 54.4591 98.3483 59.6845C108.511 72.1803 116.543 86.4424 121.841 101.215Z" fill="#65B22E"/>
<path d="M134.433 146.727C143.672 152.707 164.194 137.419 180.27 112.581C196.345 87.743 201.887 62.76 192.648 56.7802C183.408 50.8005 162.887 66.0883 146.811 90.9265C130.736 115.765 125.194 140.748 134.433 146.727Z" fill="#65B22E"/>
<path d="M134.433 146.728C135.681 147.535 149.724 128.055 165.8 103.216C181.875 78.378 193.896 57.5879 192.648 56.7803C191.4 55.9726 177.356 75.4532 161.281 100.291C145.205 125.13 133.185 145.92 134.433 146.728Z" fill="#93C01F"/>
<path d="M140.282 137.689C132.287 132.515 121.791 133.49 114.932 140.087L99.7823 155.683C95.605 159.947 96.4324 166.956 101.386 170.162L126.589 186.473C131.586 189.708 138.276 187.564 140.454 182.007L148.478 161.798C151.687 152.839 148.278 142.864 140.282 137.689Z" fill="#AC752C"/>
<path d="M134.387 149.657L131.78 147.97C124.393 143.189 114.794 143.635 107.876 149.084L99.8079 156.502C95.7099 160.261 96.2588 166.844 100.952 169.881L127.067 186.783C131.716 189.792 137.989 187.625 139.741 182.347L143.203 171.948C145.254 163.349 141.73 154.41 134.387 149.657Z" fill="#7D551F"/>
<path d="M133.386 165.779L117.482 155.486C113.006 152.589 107.237 152.74 102.886 155.842L100.255 157.716C96.1317 160.658 96.3023 166.872 100.561 169.628L127.371 186.98C131.629 189.736 137.325 187.318 138.363 182.38L138.995 179.213C140.087 174.001 137.818 168.648 133.386 165.779Z" fill="#634419"/>
</g>
<g clip-path="url(#clip3_3514:7209)">
<path d="M225.092 102.717L203.124 101.101L204.91 76.686C205.088 74.1726 208.839 72.3774 213.393 72.7364L219.108 73.1852C223.574 73.5443 227.056 75.8781 226.878 78.3914L225.092 102.717Z" fill="#AC752C"/>
<path d="M225.092 102.717L214.108 101.909L216.251 72.8262L219.109 73.0057C223.574 73.3647 227.056 75.6986 226.878 78.2119L225.092 102.717Z" fill="#7D551F"/>
<path d="M230.897 114.656C230.719 126.325 228.933 138.174 225.271 149.933C204.732 215.998 134.898 252.89 69.1726 232.334C57.4741 228.654 46.6687 223.448 37.0241 216.985C36.3097 216.447 30.0586 211.51 26.5758 204.867C24.7898 201.546 23.8075 197.866 24.4326 194.186V194.096C24.5219 193.647 24.6112 193.288 24.7898 192.929C24.9684 192.57 25.147 192.211 25.4149 191.852C27.201 189.159 31.2195 187.812 36.2204 187.274C47.1152 186.017 62.5643 188.62 69.1726 188.979H69.2619C70.8693 189.159 72.4768 189.249 74.0842 189.338C74.1735 189.338 74.2628 189.338 74.3521 189.338C76.1381 189.428 77.8348 189.518 79.6209 189.518C80.1567 189.518 80.6925 189.518 81.2283 189.518C81.6748 189.518 82.1213 189.518 82.6571 189.518C83.1036 189.518 83.5501 189.518 83.9966 189.518C84.6218 189.518 85.2469 189.518 85.872 189.518C87.0329 189.518 88.2831 189.428 89.444 189.338C90.1584 189.338 90.7836 189.249 91.498 189.159C93.3733 188.979 95.2486 188.8 97.0346 188.531C97.6598 188.441 98.1956 188.351 98.7314 188.261C99.3565 188.171 99.8923 188.082 100.428 187.992C102.125 187.723 103.911 187.364 105.608 187.005C105.697 187.005 105.875 187.005 105.965 186.915L106.322 186.646C108.822 186.107 111.323 185.479 113.734 184.85C116.056 184.222 118.378 183.504 120.61 182.696C120.878 182.606 121.235 182.516 121.503 182.427L121.86 182.337C123.379 181.798 124.807 181.26 126.326 180.631C126.504 180.542 126.593 180.542 126.772 180.452C126.951 180.362 127.129 180.272 127.308 180.183C131.505 178.477 135.702 176.502 139.721 174.348C140.524 173.989 141.239 173.54 142.043 173.091C142.757 172.643 143.471 172.284 144.186 171.835C144.275 171.745 144.454 171.655 144.543 171.655C144.9 171.386 145.347 171.206 145.704 170.937C146.865 170.219 148.026 169.501 149.187 168.693C149.812 168.334 150.348 167.885 150.973 167.526C151.866 166.898 152.759 166.27 153.652 165.641C154.009 165.372 154.277 165.103 154.634 164.923C155.795 164.115 156.956 163.128 158.117 162.23C163.207 158.191 168.029 153.703 172.494 148.856C172.584 148.766 172.673 148.676 172.762 148.586C174.459 146.701 176.066 144.816 177.674 142.842C178.388 141.944 179.103 141.046 179.817 140.059C180.353 139.341 180.978 138.533 181.514 137.815C181.603 137.635 181.692 137.546 181.782 137.366C182.943 135.661 184.104 134.045 185.264 132.25C191.337 122.914 196.249 112.502 199.731 101.282C200.088 100.115 200.446 98.8582 200.803 97.6913C200.803 97.6913 200.981 97.3322 201.249 96.7937C201.339 96.6141 201.428 96.4346 201.517 96.2551C201.607 96.1653 201.607 96.0756 201.696 95.9858C201.785 95.896 201.785 95.8063 201.874 95.7165C203.125 93.8315 205.357 91.0489 209.019 89.6127C211.608 88.5356 215.002 88.1765 219.199 89.2536C223.218 90.3308 225.807 93.2929 227.504 96.9732C230.362 102.628 230.808 110.078 230.897 114.656Z" fill="#FFB300"/>
<path d="M219.287 89.1627C219.287 89.2525 219.287 89.3423 219.287 89.3423C219.376 100.473 217.947 111.873 214.911 123.183C214.554 124.709 214.107 126.145 213.661 127.671C193.121 193.736 123.288 230.628 57.5617 210.072C47.8278 207.02 38.7191 202.891 30.3247 197.775C29.0745 197.057 27.8243 196.249 26.6634 195.441C25.8597 194.992 25.1453 194.454 24.3416 193.915C24.4309 193.466 24.5202 193.107 24.6988 192.748C24.8774 192.389 25.056 192.03 25.3239 191.671C27.1099 188.978 31.1285 187.632 36.1293 187.093C47.0241 185.837 62.4733 188.44 69.0816 188.799H69.1709C70.7783 188.978 72.3857 189.068 73.9931 189.158C74.0824 189.158 74.1717 189.158 74.261 189.158C76.0471 189.247 77.7438 189.337 79.5298 189.337C79.7084 189.337 79.887 189.337 79.9763 189.337C80.3335 189.337 80.6907 189.337 81.0479 189.337C81.4945 189.337 81.941 189.337 82.4768 189.337C82.9233 189.337 83.3698 189.337 83.8163 189.337C84.4414 189.337 85.0665 189.337 85.6916 189.337C86.9418 189.247 88.1028 189.247 89.2637 189.158C89.9781 189.158 90.6032 189.068 91.3176 188.978C92.4785 188.888 93.6394 188.799 94.8004 188.619C95.5148 188.529 96.1399 188.44 96.8543 188.35C97.4794 188.26 98.0152 188.17 98.551 188.081C99.1761 187.991 99.7119 187.901 100.248 187.811C101.944 187.542 103.731 187.183 105.427 186.824C105.517 186.824 105.695 186.824 105.784 186.734L106.32 186.644C106.767 186.555 107.213 186.465 107.66 186.375C109.714 185.926 111.768 185.388 113.732 184.849C115.786 184.311 117.751 183.682 119.715 183.054C119.983 182.964 120.341 182.874 120.608 182.785C120.876 182.695 121.234 182.605 121.501 182.515L121.859 182.426C122.752 182.067 123.734 181.707 124.627 181.348C125.163 181.169 125.788 180.9 126.324 180.72C126.502 180.63 126.592 180.63 126.77 180.541C126.949 180.451 127.127 180.361 127.306 180.271C128.11 179.912 128.913 179.643 129.717 179.284C130.342 179.015 130.878 178.745 131.503 178.476C131.771 178.386 132.039 178.207 132.307 178.117C133.111 177.758 133.914 177.309 134.807 176.95C135.522 176.591 136.326 176.232 137.04 175.783C137.933 175.334 138.826 174.886 139.719 174.347C140.523 173.898 141.237 173.539 142.041 173.09C142.755 172.641 143.47 172.282 144.184 171.834C144.273 171.744 144.452 171.654 144.541 171.654C144.898 171.385 145.345 171.205 145.702 170.936C146.863 170.218 148.024 169.5 149.185 168.692C149.81 168.333 150.346 167.884 150.971 167.525C151.864 166.897 152.757 166.268 153.65 165.64C154.007 165.371 154.275 165.101 154.632 164.922C154.99 164.653 155.257 164.383 155.615 164.204C156.418 163.576 157.311 162.947 158.115 162.319C158.829 161.78 159.455 161.242 160.169 160.613C160.973 159.985 161.776 159.357 162.491 158.639C162.848 158.28 163.295 157.92 163.652 157.561C163.92 157.292 164.277 157.023 164.545 156.754C165.259 156.125 165.884 155.497 166.599 154.869C167.313 154.24 167.938 153.522 168.653 152.894C169.188 152.355 169.724 151.817 170.26 151.278C170.974 150.47 171.778 149.752 172.493 148.944C172.582 148.855 172.671 148.765 172.76 148.675C173.475 147.957 174.1 147.149 174.814 146.341C175.261 145.803 175.707 145.354 176.065 144.815C176.6 144.187 177.136 143.559 177.672 142.84C178.119 142.212 178.565 141.674 179.012 141.135C179.279 140.776 179.547 140.417 179.815 140.058C180.351 139.34 180.976 138.532 181.512 137.814C181.601 137.634 181.691 137.545 181.78 137.365C182.226 136.737 182.673 136.108 183.119 135.48C183.477 134.941 183.834 134.403 184.191 133.864C184.548 133.326 184.905 132.787 185.263 132.249C185.798 131.441 186.245 130.723 186.692 129.915C186.959 129.466 187.227 129.107 187.406 128.658C188.031 127.671 188.656 126.594 189.192 125.516C189.549 124.798 189.996 124.08 190.353 123.452C190.889 122.375 191.424 121.387 191.96 120.31C192.317 119.592 192.675 118.874 193.032 118.156C193.568 117.079 194.014 116.002 194.55 114.835C194.907 114.117 195.175 113.399 195.443 112.68C195.979 111.424 196.425 110.167 196.961 108.91C197.14 108.462 197.318 107.923 197.497 107.474C197.586 107.295 197.676 107.115 197.676 106.846C198.301 105.051 198.926 103.166 199.551 101.281C199.908 100.114 200.265 98.857 200.623 97.6901C200.623 97.6901 200.801 97.3311 201.069 96.7925C201.158 96.613 201.248 96.4335 201.337 96.2539C201.426 96.1642 201.426 96.0744 201.516 95.9847C201.605 95.8949 201.605 95.8051 201.694 95.7154C202.944 93.8304 205.177 91.0477 208.838 89.6115C211.696 88.4446 215.089 88.0856 219.287 89.1627Z" fill="#FFD54F"/>
<path d="M36.1298 187.093C29.968 191.402 26.396 197.147 26.4853 204.776C24.6992 201.455 23.7169 197.775 24.342 194.095V194.005C24.4313 193.556 24.5206 193.197 24.6992 192.838C24.8778 192.479 25.0564 192.12 25.3243 191.761C27.1104 188.978 31.1289 187.632 36.1298 187.093Z" fill="#7D551F"/>
<path d="M235.808 104.602C241.791 114.655 246.435 125.696 249.382 137.634C266.438 204.687 226.253 272.906 159.544 290.14C147.667 293.192 135.79 294.449 124.181 294C123.288 293.91 115.43 293.013 108.911 289.153C105.696 287.268 102.927 284.665 101.499 281.164C101.499 281.164 101.499 281.164 101.499 281.074C101.32 280.715 101.231 280.266 101.141 279.907C101.052 279.458 101.052 279.099 101.052 278.651C101.141 275.419 103.91 272.098 107.839 269.046C116.501 262.224 130.968 256.3 136.773 253.068C138.201 252.35 139.63 251.632 141.059 250.824C141.148 250.824 141.238 250.735 141.327 250.735C142.845 249.927 144.363 249.029 145.881 248.132C146.328 247.862 146.774 247.593 147.221 247.324C147.578 247.054 148.025 246.785 148.382 246.606C148.739 246.336 149.185 246.157 149.543 245.887C150.078 245.528 150.614 245.259 151.061 244.9C152.043 244.272 153.025 243.554 154.008 242.836C154.544 242.477 155.169 242.028 155.704 241.579C157.223 240.502 158.741 239.335 160.17 238.168C160.616 237.809 161.063 237.45 161.509 237.091C161.956 236.732 162.402 236.283 162.849 235.924C164.188 234.757 165.438 233.59 166.778 232.423C166.867 232.333 166.956 232.244 167.046 232.154L167.403 231.795C169.278 230 171.064 228.204 172.761 226.319C174.368 224.524 175.976 222.729 177.494 220.844C177.673 220.575 177.851 220.395 178.119 220.126L178.387 219.856C179.369 218.6 180.352 217.343 181.334 216.086C181.423 215.997 181.513 215.817 181.602 215.727C181.691 215.548 181.87 215.368 181.959 215.279C184.638 211.598 187.139 207.739 189.46 203.789C189.907 203.071 190.353 202.263 190.711 201.455C191.157 200.737 191.514 200.019 191.872 199.211C191.961 199.121 191.961 198.942 192.05 198.852C192.229 198.403 192.497 198.044 192.675 197.595C193.3 196.339 193.925 195.082 194.551 193.825C194.819 193.197 195.176 192.569 195.444 191.94C195.89 190.953 196.337 189.966 196.694 188.978C196.872 188.619 196.962 188.17 197.14 187.811C197.676 186.465 198.212 185.119 198.748 183.682C200.98 177.579 202.766 171.205 204.017 164.653C204.017 164.563 204.106 164.384 204.106 164.294C204.552 161.87 204.999 159.357 205.267 156.844C205.445 155.677 205.535 154.51 205.713 153.343C205.803 152.445 205.892 151.458 205.981 150.47C205.981 150.291 205.981 150.111 205.981 149.932C206.16 147.867 206.249 145.803 206.249 143.738C206.517 132.518 205.267 121.118 202.409 109.808C202.141 108.641 201.784 107.385 201.427 106.218C201.427 106.218 201.338 105.859 201.338 105.23C201.338 105.051 201.338 104.871 201.338 104.602C201.338 104.512 201.338 104.422 201.338 104.243C201.338 104.153 201.338 103.974 201.338 103.884C201.338 101.64 201.873 98.0494 204.284 94.9077C205.981 92.6636 208.66 90.5093 212.768 89.2527C216.697 88.0858 220.537 89.1629 223.841 91.407C229.11 94.6384 233.397 100.742 235.808 104.602Z" fill="#FFB300"/>
<path d="M212.679 89.0762C212.679 89.1659 212.768 89.1659 212.768 89.2557C218.662 98.6807 223.395 109.093 226.699 120.313C227.146 121.75 227.592 123.276 227.949 124.801C245.006 191.854 204.82 260.073 138.112 277.307C128.2 279.821 118.287 281.077 108.553 281.257C107.124 281.257 105.696 281.257 104.267 281.257C103.374 281.257 102.392 281.167 101.499 281.167C101.32 280.808 101.231 280.359 101.141 280C101.052 279.551 101.052 279.192 101.052 278.743C101.141 275.512 103.91 272.191 107.839 269.139C116.501 262.317 130.968 256.393 136.773 253.161C138.201 252.443 139.63 251.725 141.059 250.917C141.148 250.917 141.238 250.827 141.327 250.827C142.845 250.02 144.363 249.122 145.881 248.224C146.06 248.135 146.149 248.045 146.328 247.955C146.596 247.776 146.953 247.596 147.221 247.416C147.578 247.147 148.025 246.878 148.382 246.698C148.739 246.519 149.185 246.16 149.543 245.98C150.078 245.621 150.614 245.352 151.061 244.993C152.043 244.275 153.025 243.646 154.008 242.928C154.544 242.569 155.169 242.121 155.704 241.672C156.687 240.954 157.58 240.236 158.473 239.517C159.009 239.069 159.544 238.62 160.08 238.171C160.527 237.812 160.973 237.453 161.42 237.094C161.866 236.735 162.313 236.286 162.759 235.927C164.099 234.76 165.349 233.593 166.689 232.426C166.778 232.336 166.867 232.247 166.956 232.157L167.314 231.798C167.671 231.439 167.939 231.17 168.296 230.81C169.814 229.374 171.243 227.848 172.672 226.322C174.101 224.796 175.44 223.181 176.78 221.565C176.958 221.296 177.226 221.116 177.405 220.847C177.583 220.578 177.762 220.398 178.03 220.129L178.298 219.86C178.923 219.052 179.548 218.334 180.084 217.526C180.441 217.077 180.798 216.538 181.245 216.09C181.334 216 181.423 215.82 181.513 215.73C181.602 215.551 181.78 215.371 181.87 215.282C182.406 214.564 182.852 213.845 183.388 213.127C183.745 212.589 184.102 212.05 184.46 211.512C184.638 211.242 184.817 211.063 184.906 210.794C185.442 209.986 185.888 209.268 186.424 208.46C186.871 207.742 187.317 207.024 187.764 206.305C188.299 205.408 188.835 204.6 189.371 203.702C189.818 202.984 190.264 202.176 190.621 201.369C190.979 200.65 191.425 199.932 191.782 199.124C191.872 199.035 191.872 198.855 191.961 198.765C192.139 198.317 192.407 197.958 192.586 197.509C193.211 196.252 193.836 194.995 194.461 193.739C194.729 193.11 195.086 192.482 195.354 191.854C195.801 190.866 196.247 189.879 196.604 188.892C196.783 188.533 196.872 188.084 197.051 187.725C197.23 187.366 197.319 186.917 197.498 186.558C197.855 185.57 198.301 184.583 198.658 183.596C198.926 182.788 199.194 181.98 199.462 181.082C199.819 180.095 200.087 179.197 200.444 178.21C200.623 177.671 200.712 177.223 200.891 176.684C200.98 176.325 201.159 175.876 201.248 175.517C201.516 174.619 201.784 173.722 201.963 172.824C202.23 171.927 202.409 170.939 202.677 170.042C202.856 169.323 203.034 168.516 203.213 167.798C203.481 166.72 203.659 165.643 203.927 164.566C203.927 164.476 204.017 164.297 204.017 164.207C204.195 163.22 204.374 162.143 204.552 161.155C204.642 160.527 204.731 159.898 204.82 159.18C204.91 158.373 205.088 157.565 205.177 156.667C205.267 155.949 205.356 155.231 205.445 154.423C205.535 153.974 205.535 153.525 205.624 153.077C205.713 152.179 205.803 151.192 205.892 150.204C205.892 150.025 205.892 149.845 205.892 149.666C205.981 148.858 205.981 148.14 205.981 147.332C206.07 146.703 206.07 146.075 206.07 145.447C206.07 144.818 206.16 144.19 206.16 143.472C206.16 142.574 206.16 141.587 206.16 140.689C206.16 140.241 206.16 139.702 206.16 139.253C206.16 138.086 206.16 136.83 206.07 135.663C206.07 134.855 205.981 134.047 205.981 133.239C205.892 132.072 205.803 130.905 205.713 129.649C205.624 128.841 205.535 128.033 205.445 127.225C205.267 126.058 205.177 124.801 204.999 123.635C204.91 122.827 204.82 122.109 204.642 121.301C204.463 119.954 204.195 118.608 203.927 117.351C203.838 116.813 203.749 116.364 203.659 115.825C203.659 115.646 203.57 115.376 203.57 115.197C203.213 113.312 202.766 111.337 202.23 109.452C201.963 108.285 201.605 107.029 201.248 105.862C201.248 105.862 201.159 105.503 201.159 104.874C201.159 104.695 201.159 104.515 201.159 104.246C201.159 104.156 201.159 104.066 201.159 103.887C201.159 103.797 201.159 103.618 201.159 103.528C201.159 101.284 201.695 97.6933 204.106 94.5517C205.892 92.3974 208.482 90.3328 212.679 89.0762Z" fill="#FFD54F"/>
<path d="M107.839 268.956C104.803 275.868 104.803 282.6 108.911 289.063C105.696 287.178 102.838 284.575 101.499 281.074C101.499 281.074 101.499 281.074 101.499 280.984C101.32 280.625 101.231 280.177 101.141 279.818C101.052 279.369 101.052 279.01 101.052 278.561C101.141 275.329 103.91 272.098 107.839 268.956Z" fill="#7D551F"/>
</g>
<g clip-path="url(#clip4_3514:7209)">
<path d="M133.717 92.1308L126.77 89.7179L131.546 75.9999C132.034 74.5869 133.607 73.8505 135.017 74.3386L136.824 74.9882C138.234 75.4763 138.968 77.0513 138.479 78.4642L133.717 92.1308Z" fill="#AC752C"/>
<path d="M133.717 92.1309L130.243 90.9244L135.942 74.5863L136.852 74.8853C138.262 75.3734 138.996 76.9484 138.507 78.3614L133.717 92.1309Z" fill="#7D551F"/>
<path d="M137.809 100.065C135.914 106.725 133.068 113.241 129.157 119.416C107.189 154.167 61.3749 164.553 26.7582 142.596C20.5977 138.685 15.1849 134.036 10.6325 128.846C10.3045 128.428 7.46876 124.635 6.48652 120.292C5.96973 118.113 5.97015 115.852 6.89472 113.839L6.9085 113.788C7.02877 113.545 7.13525 113.353 7.29307 113.174C7.45089 112.996 7.60871 112.818 7.81788 112.653C9.25824 111.385 11.7754 111.232 14.7332 111.694C21.1898 112.652 29.6721 116.524 33.4162 117.748L33.4676 117.762C34.3641 118.112 35.2745 118.411 36.1849 118.71C36.2362 118.724 36.2875 118.738 36.3389 118.751C37.3519 119.078 38.3136 119.391 39.3404 119.666C39.6485 119.749 39.9565 119.831 40.2646 119.914C40.5213 119.982 40.778 120.051 41.086 120.134C41.3427 120.203 41.5995 120.271 41.8562 120.34C42.2156 120.436 42.5749 120.533 42.9343 120.629C43.6018 120.808 44.3343 120.949 45.0155 121.076C45.4263 121.186 45.7995 121.231 46.224 121.29C47.3297 121.476 48.4354 121.662 49.5036 121.783C49.8768 121.828 50.1986 121.859 50.5205 121.89C50.8936 121.935 51.2155 121.966 51.5373 121.997C52.5541 122.104 53.6361 122.173 54.6667 122.229C54.7181 122.243 54.8208 122.27 54.8859 122.232L55.1564 122.25C56.6766 122.326 58.2107 122.351 59.6934 122.363C61.1248 122.36 62.5699 122.306 63.9775 122.187C64.1453 122.177 64.3645 122.181 64.5323 122.17L64.7514 122.174C65.7069 122.099 66.6111 122.011 67.5804 121.884C67.6969 121.86 67.7482 121.874 67.8647 121.85C67.9811 121.826 68.0976 121.802 68.2141 121.779C70.889 121.448 73.6053 120.962 76.2465 120.347C76.7637 120.265 77.2434 120.118 77.7744 119.984C78.254 119.837 78.7199 119.741 79.1996 119.594C79.2647 119.556 79.3811 119.533 79.4325 119.546C79.6792 119.447 79.9635 119.413 80.2102 119.314C80.9879 119.081 81.7656 118.848 82.5571 118.564C82.9717 118.454 83.3486 118.28 83.7632 118.17C84.3731 117.948 84.983 117.725 85.5929 117.503C85.8396 117.403 86.035 117.29 86.2679 117.242C87.0594 116.958 87.8785 116.571 88.6838 116.236C92.2305 114.705 95.6922 112.875 99.0036 110.785C99.0688 110.747 99.1339 110.71 99.199 110.672C100.464 109.853 101.678 109.02 102.905 108.136C103.454 107.732 104.002 107.327 104.565 106.871C104.983 106.542 105.466 106.176 105.885 105.847C105.964 105.758 106.029 105.72 106.108 105.631C107.037 104.832 107.952 104.085 108.896 103.235C113.82 98.82 118.243 93.609 121.969 87.7148C122.353 87.1011 122.752 86.4359 123.136 85.8221C123.136 85.8221 123.294 85.6438 123.531 85.3764C123.61 85.2873 123.689 85.1982 123.767 85.109C123.833 85.0714 123.846 85.0199 123.911 84.9822C123.977 84.9445 123.99 84.8931 124.056 84.8554C125.064 83.9676 126.775 82.7168 129.1 82.4577C130.754 82.2393 132.761 82.5562 135.008 83.8202C137.153 85.0566 138.187 87.1532 138.597 89.5239C139.334 93.1399 138.447 97.4787 137.809 100.065Z" fill="#FFB300"/>
<path d="M135.036 83.7172C135.022 83.7686 135.008 83.8201 135.008 83.8201C133.35 90.213 130.778 96.5265 127.296 102.541C126.856 103.36 126.379 104.115 125.888 104.921C103.934 139.62 58.1191 150.006 23.4887 128.1C18.3611 124.852 13.7584 121.082 9.71807 116.857C9.10957 116.252 8.51486 115.597 7.97148 114.955C7.57834 114.574 7.25031 114.155 6.87095 113.723C6.99122 113.479 7.0977 113.287 7.25552 113.109C7.41334 112.931 7.57116 112.752 7.78032 112.588C9.22069 111.32 11.7378 111.167 14.6956 111.629C21.1523 112.587 29.6346 116.459 33.3787 117.683L33.43 117.696C34.3266 118.047 35.2369 118.346 36.1473 118.645C36.1986 118.659 36.25 118.672 36.3013 118.686C37.3144 119.013 38.2761 119.326 39.3029 119.601C39.4056 119.628 39.5083 119.656 39.5596 119.67C39.765 119.725 39.9703 119.78 40.1757 119.835C40.4324 119.903 40.6891 119.972 40.9972 120.055C41.2539 120.123 41.5106 120.192 41.7673 120.261C42.1267 120.357 42.4861 120.454 42.8454 120.55C43.578 120.691 44.2454 120.87 44.9267 120.997C45.3374 121.107 45.7106 121.152 46.1351 121.211C46.8163 121.338 47.4975 121.466 48.1925 121.542C48.617 121.6 48.9902 121.645 49.4147 121.704C49.7879 121.749 50.1097 121.78 50.4316 121.811C50.8047 121.856 51.1266 121.887 51.4484 121.918C52.4652 122.025 53.5472 122.094 54.5778 122.15C54.6292 122.164 54.7319 122.191 54.797 122.153L55.0675 122.171C55.338 122.188 55.6085 122.205 55.879 122.223C57.1287 122.282 58.3923 122.29 59.6045 122.284C60.8681 122.291 62.0941 122.234 63.3201 122.176C63.4879 122.166 63.707 122.17 63.8748 122.16C64.0426 122.149 64.2618 122.153 64.4296 122.143L64.6487 122.146C65.2173 122.078 65.8372 122.024 66.4057 121.956C66.7414 121.935 67.1421 121.877 67.4777 121.857C67.5942 121.833 67.6455 121.847 67.762 121.823C67.8785 121.799 67.9949 121.775 68.1114 121.751C68.6286 121.669 69.132 121.638 69.6492 121.556C70.05 121.498 70.3994 121.427 70.8001 121.369C70.9679 121.358 71.1495 121.297 71.3173 121.287C71.8346 121.205 72.3656 121.071 72.9341 121.003C73.4 120.907 73.9172 120.825 74.3968 120.678C74.9792 120.558 75.5615 120.439 76.1576 120.268C76.6886 120.134 77.1545 120.039 77.6855 119.905C78.1651 119.758 78.631 119.662 79.1107 119.515C79.1758 119.477 79.2923 119.453 79.3436 119.467C79.5903 119.368 79.8746 119.334 80.1213 119.235C80.899 119.002 81.6767 118.769 82.4682 118.485C82.8828 118.375 83.2597 118.201 83.6743 118.091C84.2842 117.869 84.8941 117.646 85.504 117.424C85.7507 117.324 85.9461 117.211 86.179 117.163C86.4257 117.064 86.6211 116.951 86.8541 116.903C87.4126 116.667 88.0225 116.444 88.5811 116.208C89.0745 116.009 89.5166 115.797 90.0239 115.547C90.5824 115.311 91.141 115.074 91.662 114.773C91.9225 114.622 92.2343 114.485 92.4949 114.334C92.6902 114.221 92.9369 114.122 93.1323 114.009C93.6395 113.759 94.0954 113.495 94.6026 113.245C95.1099 112.995 95.5795 112.68 96.0868 112.429C96.4775 112.203 96.8683 111.977 97.259 111.751C97.7938 111.398 98.3662 111.11 98.901 110.757C98.9661 110.72 99.0312 110.682 99.0964 110.644C99.6174 110.343 100.101 109.976 100.636 109.623C100.975 109.383 101.301 109.195 101.589 108.941C101.993 108.664 102.398 108.386 102.816 108.057C103.169 107.766 103.509 107.526 103.848 107.286C104.057 107.121 104.266 106.957 104.476 106.792C104.894 106.463 105.377 106.097 105.796 105.768C105.875 105.679 105.94 105.641 106.019 105.552C106.372 105.26 106.725 104.969 107.078 104.678C107.366 104.424 107.654 104.17 107.943 103.917C108.231 103.663 108.519 103.409 108.807 103.156C109.239 102.775 109.606 102.433 109.987 102.038C110.21 101.822 110.419 101.658 110.59 101.428C111.101 100.959 111.626 100.438 112.1 99.9027C112.415 99.5462 112.782 99.2034 113.084 98.8983C113.558 98.3635 114.017 97.8802 114.491 97.3454C114.806 96.9888 115.122 96.6323 115.438 96.2758C115.911 95.741 116.333 95.1924 116.82 94.6061C117.136 94.2496 117.4 93.8793 117.665 93.509C118.166 92.8713 118.615 92.2199 119.116 91.5822C119.288 91.3525 119.473 91.0713 119.645 90.8416C119.724 90.7525 119.803 90.6633 119.844 90.509C120.479 89.5764 121.128 88.5923 121.777 87.6083C122.162 86.9945 122.56 86.3293 122.945 85.7155C122.945 85.7155 123.102 85.5373 123.339 85.2699C123.418 85.1807 123.497 85.0916 123.576 85.0025C123.641 84.9648 123.655 84.9133 123.72 84.8757C123.785 84.838 123.799 84.7865 123.864 84.7488C124.872 83.8611 126.583 82.6102 128.909 82.3511C130.782 82.1363 132.788 82.4533 135.036 83.7172Z" fill="#FFD54F"/>
<path d="M14.6958 111.629C10.4916 113.149 7.55576 115.891 6.43539 120.278C5.9186 118.099 5.91902 115.839 6.84359 113.826L6.85737 113.774C6.97764 113.531 7.08412 113.339 7.24194 113.161C7.39976 112.982 7.55758 112.804 7.76674 112.639C9.2209 111.32 11.738 111.167 14.6958 111.629Z" fill="#7D551F"/>
<path d="M14.6954 111.629C12.1907 112.557 10.1304 113.88 8.64111 115.741C8.37442 115.504 8.17285 115.23 7.97128 114.955C7.57813 114.574 7.25011 114.155 6.92209 113.737C7.04235 113.493 7.14884 113.301 7.32044 113.072C7.47826 112.893 7.63608 112.715 7.84525 112.55C9.22049 111.32 11.7376 111.167 14.6954 111.629Z" fill="#AC752C"/>
</g>
<g clip-path="url(#clip5_3514:7209)">
<g clip-path="url(#clip6_3514:7209)">
<path d="M62.6521 141.557C60.9306 147.782 60.0457 154.204 60.0201 160.658V161.999C60.0726 169.797 59.1891 177.574 57.3881 185.165C53.7583 183.885 50.0429 181.301 46.4561 176.824C37.0788 165.044 40.2005 146.143 51.7752 141.696C56.1516 140.016 59.8119 140.374 62.6765 141.472C62.6654 141.499 62.6572 141.528 62.6521 141.557V141.557Z" fill="#A16552"/>
<path d="M62.6521 141.557C60.9306 147.782 60.0457 154.204 60.0201 160.658V161.999C60.0726 169.797 59.1891 177.574 57.3881 185.165C53.7583 183.885 50.0429 181.301 46.4561 176.824C37.0788 165.044 40.2005 146.143 51.7752 141.696C56.1516 140.016 59.8119 140.374 62.6765 141.472C62.6654 141.499 62.6572 141.528 62.6521 141.557V141.557Z" fill="#F5DCB4"/>
<path d="M235.556 176.836C232 181.301 228.26 183.885 224.63 185.177C222.829 177.586 221.946 169.809 221.998 162.011V160.671C221.976 154.189 221.085 147.739 219.348 141.49C222.206 140.392 225.873 140.034 230.249 141.715C241.812 146.155 244.94 165.05 235.556 176.836Z" fill="#A16552"/>
<path d="M235.556 176.836C232 181.301 228.26 183.885 224.63 185.177C222.829 177.586 221.946 169.809 221.998 162.011V160.671C221.976 154.189 221.085 147.739 219.348 141.49C222.206 140.392 225.873 140.034 230.249 141.715C241.812 146.155 244.94 165.05 235.556 176.836Z" fill="#F5DCB4"/>
<path d="M199.498 185.408C197.796 188.019 196.706 190.976 196.31 194.061C195.914 197.145 196.221 200.278 197.208 203.229C198.751 207.724 200.128 212.807 200.128 216.574C200.128 244.265 173.649 266.685 141.006 266.685C108.363 266.685 81.8902 244.241 81.8902 216.568C81.8902 212.783 83.2674 207.706 84.8098 203.223C85.7985 200.276 86.1077 197.147 85.7147 194.066C85.3217 190.985 84.2365 188.03 82.539 185.42C79.2078 180.262 77.4324 174.268 77.4219 168.144C77.4219 149.77 93.2078 134.866 112.666 134.866C118.958 134.849 125.148 136.448 130.631 139.507C133.794 141.287 137.369 142.223 141.006 142.223C144.643 142.223 148.218 141.287 151.381 139.507C156.86 136.448 163.045 134.849 169.334 134.866C188.792 134.866 204.609 149.77 204.609 168.144C204.599 174.265 202.826 180.257 199.498 185.414V185.408Z" fill="#A16552"/>
<path d="M199.498 185.408C197.796 188.019 196.706 190.976 196.31 194.061C195.914 197.145 196.221 200.278 197.208 203.229C198.751 207.724 200.128 212.807 200.128 216.574C200.128 244.265 173.649 266.685 141.006 266.685C108.363 266.685 81.8902 244.241 81.8902 216.568C81.8902 212.783 83.2674 207.706 84.8098 203.223C85.7985 200.276 86.1077 197.147 85.7147 194.066C85.3217 190.985 84.2365 188.03 82.539 185.42C79.2078 180.262 77.4324 174.268 77.4219 168.144C77.4219 149.77 93.2078 134.866 112.666 134.866C118.958 134.849 125.148 136.448 130.631 139.507C133.794 141.287 137.369 142.223 141.006 142.223C144.643 142.223 148.218 141.287 151.381 139.507C156.86 136.448 163.045 134.849 169.334 134.866C188.792 134.866 204.609 149.77 204.609 168.144C204.599 174.265 202.826 180.257 199.498 185.414V185.408Z" fill="#F5DCB4"/>
<path d="M110.897 222.773C109.997 222.772 109.134 223.124 108.496 223.753C107.858 224.382 107.497 225.236 107.494 226.128C107.485 226.277 107.485 226.427 107.494 226.577C109.6 241.408 123.8 252.872 140.976 252.872C158.151 252.872 172.364 241.408 174.457 226.577C174.516 226.139 174.486 225.693 174.371 225.266C174.255 224.839 174.056 224.439 173.784 224.089C173.512 223.738 173.173 223.444 172.787 223.224C172.4 223.003 171.974 222.861 171.531 222.804C171.385 222.785 171.238 222.774 171.091 222.773H110.897Z" fill="#4E3F3F"/>
<path d="M121.56 247.365C127.393 250.973 134.13 252.885 141.006 252.885C147.882 252.885 154.619 250.973 160.452 247.365C158.004 238.994 150.212 240.923 140.988 240.923C131.763 240.923 123.996 238.994 121.56 247.365Z" fill="#E6646E"/>
<path d="M234.245 135.522C227.249 132.835 221.697 134.248 217.792 136.474C216.84 133.694 215.743 130.965 214.505 128.298C213.599 126.344 212.622 124.417 211.573 122.517C200.874 103.106 182.872 87.0009 162.214 80.1889L161.81 69.1732L148.436 77.1256L146.826 76.9497C145.841 76.8587 144.861 76.792 143.857 76.7495L141.911 68.4089L141.336 65.9825C140.682 65.9698 140.028 65.9941 139.377 66.0553C126.921 67.0744 120.745 78.2781 119.778 80.2253C99.1256 87.0069 81.1361 103.136 70.4306 122.517C69.3778 124.413 68.4026 126.34 67.5048 128.298C66.2675 130.966 65.1683 133.695 64.2118 136.474L63.7099 136.201C59.8353 134.139 54.4611 132.95 47.7954 135.522C33.0685 141.176 29.1266 165.184 41.0624 180.143C45.9224 186.209 51.0518 189.569 55.9546 191.062L55.771 191.887C54.8836 195.916 54.4363 200.028 54.4366 204.152C54.4366 232.734 75.7069 257.326 106.189 268.129C113.344 270.665 120.764 272.393 128.31 273.279C132.231 273.74 136.175 273.983 140.124 274.007H140.999C188.828 274.007 227.604 242.731 227.604 204.152C227.604 200.032 227.157 195.924 226.27 191.899C226.208 191.62 226.153 191.341 226.08 191.074C231.013 189.557 236.124 186.221 240.978 180.155C252.914 165.184 248.941 141.169 234.245 135.522ZM62.6509 141.558C60.9295 147.782 60.0446 154.205 60.0189 160.659V162C60.0715 169.798 59.188 177.574 57.3869 185.165C53.7572 183.886 50.0418 181.301 46.4549 176.825C37.0777 165.045 40.1994 146.143 51.774 141.697C56.1505 140.017 59.8108 140.375 62.6754 141.473C62.6643 141.5 62.656 141.529 62.6509 141.558V141.558ZM201.688 181.441C201.055 182.813 200.325 184.139 199.503 185.408C197.801 188.02 196.711 190.977 196.315 194.061C195.919 197.146 196.226 200.279 197.213 203.23C198.756 207.725 200.133 212.808 200.133 216.575C200.133 244.266 173.654 266.685 141.011 266.685C108.368 266.685 81.8951 244.241 81.8951 216.569C81.8951 212.784 83.2724 207.706 84.8148 203.224C85.8035 200.277 86.1127 197.147 85.7197 194.066C85.3267 190.985 84.2415 188.031 82.544 185.42C79.2127 180.262 77.4374 174.269 77.4269 168.145C77.4269 149.771 93.2127 134.867 112.671 134.867C118.963 134.85 125.153 136.449 130.636 139.507C133.799 141.288 137.374 142.224 141.011 142.224C144.648 142.224 148.223 141.288 151.386 139.507C156.865 136.448 163.05 134.849 169.339 134.867C188.797 134.867 204.614 149.771 204.614 168.145C204.617 172.735 203.617 177.271 201.682 181.441H201.688ZM235.561 176.837C232.005 181.301 228.265 183.886 224.635 185.178C222.834 177.586 221.951 169.81 222.003 162.012V160.671C221.979 154.189 221.086 147.739 219.347 141.491C222.205 140.393 225.872 140.035 230.248 141.715C241.817 146.15 244.938 165.045 235.561 176.831V176.837Z" fill="#A16552"/>
<path d="M126.32 197.745L126.249 197.9C125.617 199.271 126.226 200.891 127.61 201.517L134.33 204.559C135.714 205.185 137.348 204.581 137.98 203.21L138.051 203.056C138.683 201.684 138.074 200.065 136.69 199.439L129.97 196.397C128.586 195.77 126.952 196.374 126.32 197.745Z" fill="#4E3F3F"/>
<path d="M152.032 196.399L145.312 199.441C143.928 200.067 143.319 201.686 143.951 203.058L144.022 203.212C144.654 204.583 146.288 205.187 147.672 204.561L154.392 201.519C155.775 200.892 156.385 199.273 155.753 197.902L155.681 197.747C155.049 196.376 153.415 195.772 152.032 196.399Z" fill="#4E3F3F"/>
<path d="M110.634 181.434C105.04 181.434 100.504 177.188 100.504 171.923V168.787C100.504 163.534 105.04 159.275 110.634 159.275C116.222 159.275 120.752 163.522 120.752 168.787V171.953C120.752 177.176 116.204 181.434 110.634 181.434Z" fill="#4E3F3F"/>
<path d="M110.634 159.245V170.34C110.68 171.639 111.233 172.87 112.176 173.774C113.12 174.677 114.381 175.182 115.693 175.182C117.005 175.182 118.266 174.677 119.21 173.774C120.153 172.87 120.706 171.639 120.752 170.34V168.787C120.752 163.485 116.204 159.245 110.634 159.245Z" fill="#5D5360"/>
<path d="M110.634 168.757C112.5 168.757 114.013 167.336 114.013 165.584C114.013 163.832 112.5 162.412 110.634 162.412C108.768 162.412 107.255 163.832 107.255 165.584C107.255 167.336 108.768 168.757 110.634 168.757Z" fill="white"/>
<path d="M171.378 181.434C165.784 181.434 161.26 177.188 161.26 171.923V168.787C161.26 163.534 165.784 159.275 171.378 159.275C176.973 159.275 181.502 163.522 181.502 168.787V171.953C181.502 177.176 176.973 181.434 171.378 181.434Z" fill="#4E3F3F"/>
<path d="M171.378 159.245V170.34C171.442 171.627 172.003 172.842 172.946 173.731C173.888 174.62 175.139 175.115 176.44 175.115C177.741 175.115 178.992 174.62 179.935 173.731C180.877 172.842 181.438 171.627 181.502 170.34V168.787C181.502 163.485 176.973 159.245 171.378 159.245Z" fill="#5D5360"/>
<path d="M171.378 168.757C173.244 168.757 174.757 167.336 174.757 165.584C174.757 163.832 173.244 162.412 171.378 162.412C169.512 162.412 168 163.832 168 165.584C168 167.336 169.512 168.757 171.378 168.757Z" fill="white"/>
<path opacity="0.35" d="M141.912 68.4326C139.641 68.2081 134.683 71.7324 128.758 77.8651C127.283 79.3937 125.734 81.0861 124.155 82.924C112.525 96.4753 99.0594 117.779 94.4013 139.671C86.6522 176.424 83.4999 219.067 97.1864 242.718C108.816 262.736 128.281 273.26 128.281 273.26C120.733 272.376 113.31 270.65 106.154 268.116C75.659 257.349 54.3888 232.716 54.3888 204.145C54.3812 200.021 54.8245 195.909 55.7109 191.88C55.766 191.601 55.8333 191.328 55.8945 191.055C50.9978 189.551 45.8746 186.202 41.0146 180.136C29.0971 165.172 33.0573 141.163 47.7476 135.509C54.4439 132.944 59.8181 134.132 63.6926 136.189L64.1945 136.468C65.15 133.686 66.2492 130.955 67.4876 128.285C68.3853 126.332 69.3606 124.405 70.4134 122.504C81.1189 103.093 99.1083 86.9943 119.76 80.1883C120.727 78.2654 126.922 67.0677 139.347 66.0669C139.959 66.0123 140.639 65.988 141.306 65.9941L141.912 68.4326Z" fill="#4E3F3F"/>
<path d="M188.596 131.779H157.753L144.752 154.089L135.681 138.846L122.362 130.996L99.0532 131.852L77.4219 148.594L78.9521 168.114L94.9889 187.336L120.752 184.279L135.565 163.764L146.454 182.053L151.32 173.676L157.753 184.722H188.596L204.015 158.25L188.596 131.779Z" fill="#21123A"/>
<path d="M213.319 156.528L197.313 129.043C196.592 127.822 195.565 126.806 194.332 126.093C193.099 125.38 191.701 124.994 190.273 124.973L158.702 124.9C157.291 124.944 155.912 125.334 154.69 126.033C153.467 126.733 152.438 127.721 151.693 128.91L140.908 147.811L133.349 160.234L122.858 178.971C122.112 180.159 121.083 181.146 119.86 181.844C118.637 182.543 117.26 182.931 115.849 182.975L98.9124 182.635C97.483 182.624 96.0814 182.242 94.8467 181.528C93.612 180.814 92.587 179.793 91.8734 178.565L83.4632 164.104C82.7594 162.878 82.3848 161.494 82.3751 160.083C82.3655 158.673 82.7212 157.284 83.4081 156.048L91.7448 141.63C92.49 140.437 93.5206 139.445 94.7453 138.741C95.9699 138.038 97.3508 137.644 98.7655 137.596L115.702 137.936C117.131 137.948 118.533 138.33 119.767 139.044C121.002 139.758 122.027 140.779 122.741 142.006L128.305 151.554L135.693 138.815L129.958 128.976C129.236 127.756 128.209 126.74 126.976 126.028C125.743 125.315 124.346 124.928 122.919 124.906L91.6408 124.669C90.2307 124.715 88.8538 125.105 87.6323 125.804C86.4108 126.504 85.3824 127.491 84.6384 128.679L68.773 156.291C68.0163 157.448 67.6031 158.792 67.5803 160.17C67.5576 161.548 67.9263 162.905 68.6444 164.086L84.4854 191.279C85.2079 192.5 86.2357 193.516 87.4697 194.229C88.7037 194.942 90.1023 195.328 91.5306 195.349L123.096 195.416C124.507 195.372 125.885 194.982 127.108 194.283C128.331 193.583 129.36 192.595 130.105 191.407L140.767 172.966L148.149 160.228L158.812 141.781C159.557 140.594 160.587 139.607 161.809 138.908C163.032 138.21 164.41 137.822 165.82 137.778L182.586 137.826C184.016 137.839 185.417 138.222 186.653 138.935C187.888 139.649 188.915 140.67 189.631 141.897L198.059 156.364C198.764 157.595 199.137 158.984 199.143 160.399C199.15 161.814 198.789 163.207 198.096 164.444L190.047 178.692C189.302 179.88 188.272 180.867 187.049 181.565C185.827 182.264 184.449 182.652 183.039 182.696L166.273 182.647C164.843 182.634 163.441 182.252 162.206 181.538C160.971 180.825 159.944 179.804 159.228 178.577L153.854 169.345L146.472 182.083L152.018 191.601C152.741 192.821 153.768 193.837 155.002 194.55C156.236 195.263 157.635 195.649 159.063 195.671L190.628 195.744C192.04 195.699 193.418 195.31 194.64 194.61C195.863 193.911 196.892 192.923 197.637 191.734L213.362 164.607C214.065 163.374 214.432 161.979 214.424 160.562C214.417 159.145 214.036 157.754 213.319 156.528V156.528Z" fill="#8247E5"/>
<path d="M121.585 124.924L115.317 124.876L80.9783 185.256L84.2468 190.867L121.585 124.924Z" fill="#F1F0F0"/>
<path d="M140.902 172.73L146.454 182.053L146.815 182.684L179.605 124.949L168.403 124.924" fill="#F1F0F0"/>
<path d="M190.267 124.973H185.046L149.514 187.306L152.012 191.601C152.257 192.016 152.537 192.41 152.85 192.777L191.271 125.064C190.939 125.014 190.603 124.984 190.267 124.973Z" fill="#F1F0F0"/>
<path d="M110.132 124.839L98.9674 124.754L72.4026 170.54L78.2664 180.603L110.132 124.839Z" fill="#F1F0F0"/>
<path d="M58.9795 134.454C61.5686 128.964 66.5633 130.42 66.5633 130.42L80.9842 135.054L77.428 142.188L64.219 136.498L58.9795 134.454Z" fill="#8247E5"/>
<path d="M222.831 134.454C220.242 128.964 215.253 130.42 215.253 130.42L200.832 135.054L204.382 142.188L217.597 136.498L222.831 134.454Z" fill="#8247E5"/>
</g>
</g>
<g clip-path="url(#clip7_3514:7209)">
<path d="M69.287 219.697L66.2683 221.159L63.3847 215.195C63.0866 214.582 63.3564 213.837 63.9685 213.54L64.7607 213.166C65.3728 212.869 66.1173 213.14 66.4154 213.754L69.287 219.697Z" fill="#AC752C"/>
<path d="M69.287 219.697L67.7777 220.428L64.3464 213.321L64.7364 213.124C65.3486 212.827 66.0931 213.098 66.3911 213.712L69.287 219.697Z" fill="#7D551F"/>
<path d="M73.1655 220.936C74.7024 223.695 75.8857 226.714 76.616 229.967C80.7386 248.259 69.3131 266.383 51.068 270.466C47.8198 271.191 44.5751 271.438 41.4333 271.232C41.1925 271.203 39.0549 270.894 37.3373 269.81C36.4681 269.274 35.7392 268.545 35.3882 267.598L35.376 267.577C35.3363 267.46 35.3087 267.363 35.3021 267.255C35.2955 267.147 35.2889 267.038 35.3033 266.918C35.3588 266.044 36.1214 265.183 37.2242 264.378C39.6154 262.605 43.5996 261.118 45.2017 260.305L45.2227 260.293C45.6249 260.117 46.015 259.92 46.405 259.723C46.426 259.711 46.447 259.698 46.468 259.686C46.9 259.465 47.311 259.256 47.7309 259.013C47.8569 258.941 47.9828 258.868 48.1088 258.795C48.2138 258.734 48.3187 258.674 48.4447 258.601C48.5497 258.541 48.6546 258.48 48.7596 258.419C48.9066 258.334 49.0535 258.25 49.2005 258.165C49.4734 258.007 49.7552 257.817 50.016 257.638C50.1839 257.541 50.3187 257.435 50.4745 257.317C50.8911 257.02 51.3077 256.724 51.6911 256.418C51.826 256.312 51.9398 256.219 52.0536 256.125C52.1884 256.019 52.3022 255.925 52.416 255.831C52.7785 255.538 53.1498 255.212 53.5001 254.897C53.5211 254.885 53.5631 254.861 53.5719 254.828L53.6648 254.746C54.1797 254.28 54.6825 253.794 55.1643 253.319C55.6252 252.857 56.0739 252.373 56.4894 251.881C56.5402 251.824 56.6121 251.754 56.6629 251.697L56.7347 251.627C57.0188 251.295 57.2818 250.975 57.5537 250.621C57.5835 250.576 57.6045 250.564 57.6343 250.519C57.6642 250.473 57.694 250.428 57.7239 250.383C58.4798 249.413 59.1993 248.381 59.8526 247.331C59.993 247.137 60.1002 246.935 60.2284 246.721C60.3356 246.519 60.455 246.338 60.5622 246.136C60.5711 246.102 60.6009 246.057 60.6219 246.045C60.6694 245.933 60.7501 245.831 60.7977 245.719C60.9734 245.393 61.1492 245.067 61.3128 244.721C61.4112 244.552 61.4764 244.374 61.5748 244.205C61.6997 243.936 61.8246 243.668 61.9495 243.399C61.9971 243.288 62.0236 243.188 62.0833 243.098C62.2469 242.751 62.3862 242.362 62.5377 241.994C63.1878 240.356 63.7142 238.65 64.1081 236.908C64.1169 236.875 64.1258 236.842 64.1346 236.808C64.2785 236.136 64.4013 235.476 64.512 234.795C64.5585 234.488 64.605 234.181 64.6393 233.852C64.6681 233.611 64.7058 233.337 64.7346 233.096C64.7313 233.042 64.7401 233.009 64.7368 232.955C64.779 232.397 64.8333 231.861 64.8633 231.283C65.0278 228.271 64.7736 225.164 64.0742 222.062C64.0002 221.74 63.9142 221.397 63.8403 221.075C63.8403 221.075 63.8337 220.966 63.8238 220.804C63.8205 220.75 63.8172 220.695 63.8139 220.641C63.8227 220.608 63.8106 220.587 63.8194 220.554C63.8283 220.521 63.8161 220.5 63.825 220.466C63.8639 219.855 64.0122 218.9 64.6786 218.066C65.1417 217.462 65.8909 216.918 67.0234 216.6C68.1138 216.307 69.1235 216.65 70.0203 217.282C71.4241 218.211 72.5372 219.896 73.1655 220.936Z" fill="#FFB300"/>
<path d="M66.9986 216.558C67.0108 216.579 67.0229 216.6 67.0229 216.6C68.5499 219.197 69.7565 222.062 70.5731 225.125C70.6956 225.531 70.7849 225.928 70.8864 226.346C74.9969 244.617 63.5713 262.742 45.3384 266.845C42.6371 267.451 39.937 267.72 37.2713 267.66C36.8802 267.662 36.477 267.642 36.0948 267.61C35.8451 267.614 35.6043 267.585 35.3424 267.568C35.3027 267.45 35.2751 267.354 35.2685 267.246C35.2619 267.137 35.2553 267.029 35.2697 266.909C35.3253 266.035 36.0878 265.174 37.1906 264.369C39.5818 262.596 43.566 261.109 45.1682 260.296L45.1891 260.284C45.5913 260.108 45.9814 259.911 46.3714 259.714C46.3924 259.702 46.4134 259.689 46.4344 259.677C46.8664 259.456 47.2774 259.247 47.6973 259.004C47.7393 258.98 47.7813 258.956 47.8023 258.944C47.8863 258.895 47.9703 258.847 48.0542 258.798C48.1592 258.738 48.2642 258.677 48.3901 258.604C48.4951 258.544 48.6001 258.483 48.705 258.422C48.852 258.338 48.999 258.253 49.1459 258.168C49.4277 257.977 49.7006 257.82 49.9614 257.641C50.1293 257.544 50.2642 257.438 50.42 257.32C50.6807 257.141 50.9415 256.963 51.1901 256.763C51.346 256.645 51.4808 256.539 51.6366 256.421C51.7714 256.315 51.8852 256.222 51.999 256.128C52.1338 256.022 52.2477 255.928 52.3615 255.835C52.7239 255.541 53.0952 255.215 53.4455 254.9C53.4665 254.888 53.5085 254.864 53.5174 254.831L53.6102 254.749C53.703 254.667 53.7958 254.586 53.8887 254.504C54.3108 254.12 54.7208 253.715 55.1098 253.322C55.5198 252.917 55.8966 252.503 56.2735 252.089C56.3243 252.032 56.3961 251.962 56.447 251.905C56.4978 251.848 56.5696 251.778 56.6205 251.721L56.6923 251.651C56.8537 251.446 57.036 251.228 57.1974 251.023C57.299 250.908 57.4096 250.76 57.5112 250.645C57.5411 250.6 57.5621 250.588 57.5919 250.543C57.6218 250.498 57.6516 250.452 57.6814 250.407C57.8218 250.214 57.9743 250.042 58.1147 249.848C58.2252 249.7 58.3147 249.564 58.4253 249.417C58.4761 249.359 58.5148 249.281 58.5656 249.223C58.706 249.03 58.8342 248.816 58.9956 248.61C59.1149 248.429 59.2553 248.236 59.3625 248.034C59.5117 247.808 59.6609 247.581 59.798 247.334C59.9262 247.119 60.0456 246.938 60.1738 246.724C60.281 246.522 60.4004 246.341 60.5076 246.139C60.5165 246.105 60.5463 246.06 60.5673 246.048C60.6149 245.937 60.6955 245.834 60.7431 245.722C60.9188 245.396 61.0946 245.071 61.2582 244.724C61.3566 244.555 61.4218 244.377 61.5202 244.208C61.6451 243.939 61.77 243.671 61.895 243.402C61.9425 243.291 61.9691 243.191 62.0287 243.101C62.0763 242.989 62.1028 242.89 62.1625 242.799C62.2664 242.543 62.3914 242.274 62.4953 242.018C62.5904 241.795 62.6645 241.584 62.7474 241.339C62.8513 241.083 62.9552 240.827 63.026 240.561C63.0614 240.429 63.1178 240.284 63.1532 240.151C63.1798 240.052 63.2273 239.94 63.2538 239.841C63.3368 239.597 63.3987 239.365 63.4816 239.12C63.5646 238.876 63.6144 238.623 63.6973 238.379C63.7504 238.18 63.8035 237.981 63.8566 237.782C63.9152 237.496 64.007 237.218 64.0657 236.932C64.0745 236.899 64.0833 236.866 64.0922 236.833C64.163 236.567 64.2006 236.293 64.2593 236.007C64.2914 235.82 64.3356 235.654 64.3467 235.479C64.3877 235.259 64.4286 235.04 64.4574 234.798C64.4774 234.591 64.5095 234.404 64.5416 234.217C64.556 234.096 64.5704 233.976 64.5848 233.855C64.6136 233.614 64.6512 233.34 64.68 233.099C64.6767 233.045 64.6856 233.012 64.6823 232.958C64.7022 232.75 64.7222 232.542 64.7421 232.334C64.7532 232.159 64.7643 231.985 64.7754 231.81C64.7865 231.635 64.7976 231.461 64.8087 231.286C64.8254 231.024 64.8332 230.795 64.8289 230.545C64.8311 230.403 64.8455 230.283 64.8268 230.154C64.8401 229.837 64.8413 229.5 64.8216 229.175C64.8084 228.958 64.8162 228.729 64.8151 228.533C64.7954 228.208 64.7877 227.904 64.7679 227.579C64.7548 227.362 64.7416 227.145 64.7284 226.929C64.7086 226.603 64.6678 226.29 64.6359 225.944C64.6227 225.727 64.5885 225.523 64.5543 225.318C64.5103 224.951 64.4452 224.596 64.4011 224.229C64.3824 224.099 64.3515 223.949 64.3328 223.819C64.3295 223.765 64.3262 223.711 64.2897 223.648C64.1938 223.142 64.0857 222.616 63.9776 222.089C63.9037 221.767 63.8176 221.424 63.7437 221.102C63.7437 221.102 63.7371 220.994 63.7272 220.831C63.7239 220.777 63.7206 220.723 63.7173 220.668C63.7262 220.635 63.714 220.614 63.7229 220.581C63.7317 220.548 63.7196 220.527 63.7284 220.494C63.7673 219.882 63.9156 218.927 64.5821 218.094C65.117 217.42 65.8662 216.875 66.9986 216.558Z" fill="#FFD54F"/>
<path d="M37.1906 264.369C36.325 266.215 36.2625 268.046 37.3159 269.822C36.4466 269.286 35.7177 268.557 35.3667 267.61L35.3546 267.589C35.3148 267.472 35.2872 267.375 35.2807 267.267C35.2741 267.158 35.2675 267.05 35.2819 266.93C35.3252 266.035 36.0878 265.174 37.1906 264.369Z" fill="#7D551F"/>
<path d="M37.1906 264.369C36.6821 265.476 36.4442 266.567 36.5643 267.648C36.4019 267.657 36.2484 267.634 36.0948 267.61C35.8451 267.614 35.6043 267.585 35.3635 267.556C35.3238 267.439 35.2962 267.342 35.2774 267.213C35.2708 267.104 35.2642 266.996 35.2786 266.876C35.3253 266.035 36.0879 265.174 37.1906 264.369Z" fill="#AC752C"/>
</g>
<defs>
<clipPath id="clip0_3514:7209">
<rect width="123.048" height="97.4129" fill="white" transform="translate(224.277 231.533) rotate(-120)"/>
</clipPath>
<clipPath id="clip1_3514:7209">
<rect width="71.4754" height="56.5847" fill="white" transform="translate(294.021 228.976) rotate(120)"/>
</clipPath>
<clipPath id="clip2_3514:7209">
<rect width="208.953" height="144.771" fill="white" transform="translate(104.917) rotate(32.9113)"/>
</clipPath>
<clipPath id="clip3_3514:7209">
<rect width="229.147" height="221.353" fill="white" transform="translate(24.1633 72.6467)"/>
</clipPath>
<clipPath id="clip4_3514:7209">
<rect width="123.048" height="97.4129" fill="white" transform="translate(25.2124 44.8613) rotate(15)"/>
</clipPath>
<clipPath id="clip5_3514:7209">
<rect width="215.118" height="212" fill="white" transform="translate(33.0791 66.2502)"/>
</clipPath>
<clipPath id="clip6_3514:7209">
<rect width="214" height="208" fill="white" transform="translate(34 66)"/>
</clipPath>
<clipPath id="clip7_3514:7209">
<rect width="56.1198" height="44.4282" fill="white" transform="translate(19.0503 239.445) rotate(-30)"/>
</clipPath>
</defs>
</svg>
