<svg width="718" height="203" viewBox="0 0 718 203" fill="none" xmlns="http://www.w3.org/2000/svg">
<g clip-path="url(#clip0)">
<path d="M959.215 -308.733H-129.993V432.269H959.215V-308.733Z" fill="url(#paint0_linear)"/>
<path opacity="0.15" d="M916.808 -308.733L735.419 160.618H600.357L842.161 -308.733H916.808Z" fill="#FFF8BB"/>
<path opacity="0.15" d="M760.543 -308.733L549.963 160.618H277.371L530.357 -308.733H760.543Z" fill="#FFF8BB"/>
<path opacity="0.2" d="M711.602 -308.733L503.636 160.618H421.001L666.872 -308.733H711.602Z" fill="#FFF8BB"/>
<path opacity="0.2" d="M610.814 -308.733L372.059 160.618H330.96L588.013 -308.733H610.814Z" fill="#FFF8BB"/>
<path opacity="0.15" d="M407.349 -308.733L172.516 160.618H101.354L371.914 -308.733H407.349Z" fill="#FFF8BB"/>
<path opacity="0.15" d="M159.881 -308.733L-96.3003 160.618H-129.993V12.1208L75.3589 -308.733H159.881Z" fill="#FFF8BB"/>
<path d="M959.215 22.9397C918.406 6.19304 815.73 0.709616 713.925 3.52543C509.299 9.30525 248.761 76.7365 37.8901 131.274H959.215V22.9397Z" fill="#FBB62B"/>
<path d="M651.187 55.6918C729.755 48.43 767.805 38.5006 767.805 38.5006C767.805 38.5006 711.747 66.3623 731.498 69.3263C751.249 72.4385 981.725 23.2359 890.086 8.71226V8.56407C841.145 3.08065 777.39 1.59863 714.07 3.52524C629.402 5.89645 535.004 18.9381 438.718 37.1668C436.104 38.797 433.926 40.4272 432.183 42.3538C419.548 56.8774 572.473 62.9537 651.187 55.6918Z" fill="#FCC64F"/>
<path d="M959.215 22.9396C948.178 18.3454 932.493 14.6403 913.468 11.6763C1004.67 44.2804 894.589 141.945 651.187 123.568C420.275 106.08 381.935 65.3249 405.752 43.5394C359.134 52.8761 312.371 63.2501 266.043 74.2169L262.412 130.978H959.215V22.9396Z" fill="#EC9C19"/>
<path d="M959.215 22.9397C918.406 6.19304 815.73 0.709616 713.925 3.52543C509.299 9.30525 248.761 76.7365 37.8901 131.274H959.215V22.9397Z" fill="url(#paint1_linear)"/>
<path d="M483.158 130.978C483.158 130.978 357.682 61.1752 166.707 26.0517C-24.2674 -8.92365 -129.993 10.6388 -129.993 10.6388V130.978H483.158Z" fill="#EEC61D"/>
<path d="M203.45 51.8386C372.059 84.4427 483.158 130.83 483.158 130.83C483.158 130.83 357.682 61.0271 166.707 25.9035C-24.2674 -9.22002 -129.993 10.6389 -129.993 10.6389V33.6099C-129.993 33.6099 5.94 13.7511 203.45 51.8386Z" fill="#FBE367"/>
<path d="M-129.993 56.581C-129.993 56.581 31.2096 51.5422 105.711 65.7694C180.213 79.9967 76.3754 98.2254 100.483 105.043C124.591 111.86 483.013 130.978 483.013 130.978H-129.993V56.581Z" fill="#DAB20E"/>
<path d="M483.158 130.978C483.158 130.978 357.682 61.1752 166.707 26.0517C-24.2674 -8.92365 -129.993 10.6388 -129.993 10.6388V130.978H483.158Z" fill="url(#paint2_linear)"/>
<path d="M959.215 130.978H-129.993V432.269H959.215V130.978Z" fill="#B4A30B"/>
<path d="M959.215 199.743C656.27 153.208 338.366 145.798 -129.993 145.057V130.978H959.215V199.743Z" fill="#D2BE07"/>
<path d="M-129.993 432.269V235.163C-129.993 235.163 246.001 188.48 538.635 213.229C831.269 237.979 959.215 294.591 959.215 294.591V432.269H-129.993Z" fill="#97880F"/>
<path d="M567.1 130.978C612.701 141.945 725.398 187.59 753.137 212.043C768.24 225.233 746.601 227.456 686.622 253.243C627.95 278.437 583.075 313.709 545.316 350.907C507.556 388.106 438.283 432.269 281.582 432.269H642.618C642.618 432.269 657.577 412.855 678.49 374.027C700.855 332.382 707.826 313.857 778.697 281.549C849.423 249.242 875.128 242.573 860.315 227.308C841.726 208.338 728.884 151.133 610.087 130.829H567.1V130.978Z" fill="#EDBD05"/>
<path d="M761.27 174.845C717.846 157.209 664.548 140.166 609.942 130.829H567.1C590.046 136.313 629.984 150.54 667.452 166.546C699.257 169.065 730.481 171.881 761.27 174.845Z" fill="#FFD039"/>
<path d="M959.215 130.978H-129.993V432.269H959.215V130.978Z" fill="url(#paint3_linear)"/>
<path d="M102.662 198.854C102.662 198.854 101.209 195.297 104.259 192.926C107.164 190.554 109.923 191.147 109.923 191.147C109.923 191.147 106.292 192.481 105.712 193.963C105.276 195.593 102.662 198.854 102.662 198.854Z" fill="#4D522A"/>
<path d="M104.695 199.15C104.695 199.15 105.276 195.297 107.89 193.667C110.504 192.036 114.861 192.926 114.861 192.926C114.861 192.926 113.263 196.631 110.795 197.668C107.89 198.557 104.695 199.15 104.695 199.15Z" fill="#4D522A"/>
<path d="M107.164 199.15C107.164 199.15 109.632 196.779 111.811 196.927C113.989 197.075 115.442 198.409 115.442 198.409C115.442 198.409 113.989 199.743 112.101 199.743C110.068 199.743 107.164 199.15 107.164 199.15Z" fill="#4D522A"/>
<path d="M104.695 199.15C104.695 199.15 102.226 196.927 102.953 192.926C103.824 188.924 107.455 186.701 107.455 186.701C107.455 186.701 109.197 190.999 108.616 194.111C108.181 197.223 104.695 199.15 104.695 199.15Z" fill="#5C5C02"/>
<path d="M102.807 199.15C102.807 199.15 98.4502 197.075 98.4502 195C98.4502 192.925 99.9025 188.924 99.9025 188.924C99.9025 188.924 101.21 190.554 101.355 192.926C101.645 195.149 102.807 199.15 102.807 199.15Z" fill="#5C5C02"/>
<path d="M107.164 199.15C107.164 199.15 109.197 194.852 112.683 195.445C112.683 195.445 113.554 199.298 107.164 199.15Z" fill="#5C5C02"/>
<path d="M-3.06382 77.9219C-3.06382 77.9219 2.74528 85.9248 5.21416 102.523C7.68303 119.122 -3.06382 120.9 -3.06382 120.9C-3.06382 120.9 -12.5036 118.084 -10.7609 102.523C-8.87294 87.1104 -3.06382 77.9219 -3.06382 77.9219Z" fill="#7F770E"/>
<path d="M94.5291 123.568C94.5291 123.568 86.2512 134.979 82.7657 158.543C79.2802 182.107 94.5291 184.626 94.5291 184.626C94.5291 184.626 107.89 180.625 105.421 158.543C102.952 136.609 94.5291 123.568 94.5291 123.568Z" fill="#7F770E"/>
<path d="M93.9484 157.209L92.4961 198.705H96.272L93.9484 157.209Z" fill="#525000"/>
<path d="M75.6495 115.565C75.6495 115.565 67.3715 126.976 63.8861 150.54C60.4006 174.104 75.6495 176.624 75.6495 176.624C75.6495 176.624 89.0105 172.622 86.5416 150.54C83.9275 128.607 75.6495 115.565 75.6495 115.565Z" fill="#716D0A"/>
<path d="M75.0684 149.206L73.4709 190.703H77.2469L75.0684 149.206Z" fill="#525000"/>
<path d="M634.922 130.829L635.067 130.978H756.187C754.589 128.162 750.523 126.976 747.764 128.606C745.876 125.791 741.664 125.198 739.05 127.273C738.469 125.791 737.017 124.605 735.419 124.457C733.822 124.457 732.224 125.494 731.643 126.976C730.917 125.791 729.9 124.605 728.448 124.309C727.141 124.012 725.398 124.753 725.108 126.235C724.527 124.605 723.075 123.271 721.332 122.975C719.589 122.678 717.847 123.568 716.83 124.901C717.12 123.419 716.394 121.641 714.942 121.048C713.49 120.455 711.747 120.9 710.876 122.086C711.166 119.122 710.44 116.75 707.826 115.565C705.938 114.676 703.033 114.527 701.145 115.565C698.531 116.899 697.66 118.529 696.789 121.937C695.336 119.122 690.834 119.714 689.092 122.382C689.963 119.27 687.494 115.713 684.444 115.565C681.249 115.417 678.635 118.973 679.361 122.086C679.071 120.159 676.602 118.973 675.15 120.011C675.876 118.232 676.457 116.158 676.021 114.083C675.585 112.156 674.133 110.378 672.245 109.933C670.648 109.637 668.76 110.674 668.179 112.156C668.324 110.23 666.436 108.303 664.548 108.748C667.307 106.525 667.307 101.634 664.548 99.4109C661.934 97.1879 657.287 97.9289 655.544 101.041C655.834 99.5591 655.108 97.9289 653.801 97.0397C652.494 96.1505 650.751 96.2987 649.59 97.0397C649.735 94.0757 648.137 90.9635 645.668 89.3333C643.2 87.7031 639.859 87.4067 637.245 88.7405C635.938 89.3333 634.922 89.7779 634.195 90.9635C633.469 92.1491 633.179 93.6311 633.034 95.1131C631.581 104.005 631.581 113.045 632.888 121.937C632.888 124.457 633.179 129.347 634.922 130.829Z" fill="#83831C"/>
<path d="M469.652 130.978C471.54 128.903 472.411 125.939 472.702 122.827C473.283 115.565 472.847 108.155 471.685 101.041C470.669 94.6685 467.328 89.4815 460.212 90.2225C456.582 90.5189 453.241 92.5937 450.627 95.1131C448.304 97.3361 448.158 100.3 448.594 103.264C446.561 101.338 442.494 102.82 442.204 105.784C441.042 104.45 439.735 103.116 438.138 102.375C436.54 101.634 434.507 101.634 433.055 102.82C431.602 104.005 431.167 106.228 432.474 107.562C430.876 107.117 429.134 107.414 427.826 108.451C426.519 109.489 426.229 111.563 427.1 112.897C425.793 111.415 423.47 111.119 421.872 112.304C420.275 113.49 419.694 115.861 420.71 117.64C419.549 115.565 416.499 116.602 415.627 118.529C414.03 115.713 410.544 114.379 407.349 114.083C405.607 113.935 403.719 113.935 402.121 114.824C398.926 116.454 397.91 120.604 397.329 124.309C396.603 123.419 395.731 122.382 394.715 121.937C392.1 120.604 389.486 122.53 388.179 124.753C385.565 121.641 382.08 119.27 378.159 118.825C374.237 118.529 369.881 120.9 369.009 124.901C367.412 124.16 365.814 123.419 364.072 123.568C362.329 123.568 360.586 124.605 360.15 126.235C358.262 125.198 355.648 125.198 353.76 126.235C351.872 127.273 350.565 129.199 350.275 131.422H469.652V130.978Z" fill="#83831C"/>
<path d="M651.187 82.9607H633.905V72.2903L586.125 12.5655L591.208 9.00867L635.648 38.3524L644.216 72.2903L651.187 82.9607Z" fill="#A8A274"/>
<path d="M651.187 82.9607L642.473 73.3276H633.905V82.9607H651.187Z" fill="#878752"/>
<path d="M538.2 72.2903L546.332 38.3523L586.996 9.60144L631.726 41.4646L639.133 72.2903V130.978H538.2V72.2903Z" fill="#CF6842"/>
<path d="M541.104 72.2903H460.503V130.978H541.104V72.2903Z" fill="#AB473C"/>
<path d="M459.341 72.2903L467.474 38.3523H549.237L541.104 72.2903H459.341Z" fill="#EDE8C0"/>
<path d="M467.474 38.3524L509.299 9.00867H591.208L549.237 38.3524H467.474Z" fill="#FCF9DE"/>
<path d="M530.938 82.9607H449.175L459.341 72.2903H541.104L530.938 82.9607Z" fill="#FCF9DE"/>
<path d="M596.146 9.00867L553.013 39.3898L544.88 73.3277L536.021 82.9607H530.938L541.104 72.2903L549.237 38.3524L591.208 9.00867H596.146Z" fill="white"/>
<path d="M591.208 9.00867L634.341 39.3898L642.473 73.3277L651.187 82.9607H656.27L646.104 72.2903L637.971 38.3524L596.146 9.00867H591.208Z" fill="white"/>
<path d="M631.726 41.4646L634.34 39.3897L593.822 10.6389L591.062 12.4173L631.726 41.4646Z" fill="#878752"/>
<path d="M553.013 3.22884H550.98V1.45044L553.013 3.22884Z" fill="#878752"/>
<path d="M537.038 0.413025H520.046V14.9367H537.038V0.413025Z" fill="#AB473C"/>
<path d="M537.038 14.9367L546.042 9.00866H550.98V0.41304L544.009 -5.95959L537.038 0.41304V14.9367Z" fill="#CF6842"/>
<path d="M515.835 2.04326L524.839 -5.95953H544.009L535.005 2.04326H515.835Z" fill="#FCF9DE"/>
<path d="M535.15 2.04321H515.834V3.22881H535.15V2.04321Z" fill="#EDE8C0"/>
<path d="M535.005 3.22879L544.009 -4.77399V-5.95959L535.005 2.04319V3.22879Z" fill="#A8A274"/>
<path d="M553.013 3.22879L544.009 -4.77399V-5.95959L553.013 2.04319V3.22879Z" fill="#A8A274"/>
<path d="M609.071 86.3694H570.295V130.978H609.071V86.3694Z" fill="#9C453B"/>
<path d="M571.602 87.5547H569.133V130.829H571.602V87.5547Z" fill="#722828"/>
<path d="M607.764 87.5548H605.295V130.829H607.764V87.5548Z" fill="#722828"/>
<path d="M589.756 87.5548H587.287V130.829H589.756V87.5548Z" fill="#722828"/>
<path d="M569.172 87.5478V90.0673H607.948V87.5478H569.172Z" fill="#722828"/>
<path d="M569.043 108.576V111.096H607.818V108.576H569.043Z" fill="#722828"/>
<path d="M605.295 87.5548L587.287 109.933H589.756L607.764 87.5548H605.295Z" fill="#722828"/>
<path d="M571.602 87.5547L589.756 109.933H587.287L569.133 87.5547H571.602Z" fill="#722828"/>
<path d="M604.278 130.978L587.287 109.933H589.756L606.747 130.978H604.278Z" fill="#722828"/>
<path d="M572.619 130.978L589.755 109.933H587.287L570.15 130.978H572.619Z" fill="#722828"/>
<path d="M572.764 86.3693H570.295V130.978H572.764V86.3693Z" fill="#FCF9DE"/>
<path d="M609.071 86.3691H606.602V130.978H609.071V86.3691Z" fill="#FCF9DE"/>
<path d="M590.917 86.3691H588.448V130.978H590.917V86.3691Z" fill="#FCF9DE"/>
<path d="M570.363 86.3622V88.8815H609.139V86.3622H570.363Z" fill="#FCF9DE"/>
<path d="M570.379 107.39V109.91H609.155V107.39H570.379Z" fill="#FCF9DE"/>
<path d="M606.602 86.3691L588.448 108.599H590.917L609.071 86.3691H606.602Z" fill="#FCF9DE"/>
<path d="M572.909 86.3693L590.917 108.599H588.448L570.295 86.3693H572.909Z" fill="#FCF9DE"/>
<path d="M606.602 130.978L588.449 108.599H590.918L609.071 130.978H606.602Z" fill="#FCF9DE"/>
<path d="M572.909 130.978L590.917 108.599H588.448L570.295 130.978H572.909Z" fill="#FCF9DE"/>
<path d="M601.374 43.5394H578.137V69.4744H601.374V43.5394Z" fill="#9C453B"/>
<path d="M577.088 68.1833V70.5545H600.324V68.1833H577.088Z" fill="#722828"/>
<path d="M577.086 44.6212V46.9924H600.323V44.6212H577.086Z" fill="#722828"/>
<path d="M577.066 70.4409H579.39V44.5057H577.066V70.4409Z" fill="#722828"/>
<path d="M597.962 70.4409H600.285V44.5057H597.962V70.4409Z" fill="#722828"/>
<path d="M579.444 44.5767L597.888 68.1406V70.5118L579.444 46.9479V44.5767Z" fill="#722828"/>
<path d="M597.888 44.5767L579.444 68.1406V70.5118L597.888 46.9479V44.5767Z" fill="#722828"/>
<path d="M578.077 67.0798V69.451H601.313V67.0798H578.077Z" fill="#FCF9DE"/>
<path d="M578.075 43.5176V45.8888H601.311V43.5176H578.075Z" fill="#FCF9DE"/>
<path d="M578.135 69.5147H580.458V43.5796H578.135V69.5147Z" fill="#FCF9DE"/>
<path d="M599.03 69.5147H601.354V43.5796H599.03V69.5147Z" fill="#FCF9DE"/>
<path d="M580.461 43.5389L598.905 67.1028V69.474L580.461 45.9102V43.5389Z" fill="#FCF9DE"/>
<path d="M598.905 43.5389L580.461 67.1028V69.474L598.905 45.9102V43.5389Z" fill="#FCF9DE"/>
<path d="M496.519 98.6693H480.834V115.268H496.519V98.6693Z" fill="#9C453B"/>
<path d="M479.908 114.012V115.939H495.593V114.012H479.908Z" fill="#722828"/>
<path d="M479.993 99.4026V101.329H495.677V99.4026H479.993Z" fill="#722828"/>
<path d="M479.952 116.057H481.84V99.4588H479.952V116.057Z" fill="#722828"/>
<path d="M493.813 116.022H495.701V100.609H493.813V116.022Z" fill="#722828"/>
<path d="M480.774 113.336V115.263H496.459V113.336H480.774Z" fill="#FCF9DE"/>
<path d="M480.713 98.7268V100.654H496.398V98.7268H480.713Z" fill="#FCF9DE"/>
<path d="M480.737 115.239H482.625V98.6401H480.737V115.239Z" fill="#FCF9DE"/>
<path d="M494.598 115.239H496.486V98.6401H494.598V115.239Z" fill="#FCF9DE"/>
<path d="M510.316 98.6693H494.631V115.268H510.316V98.6693Z" fill="#9C453B"/>
<path d="M494.586 114.023V115.949H509.545V114.023H494.586Z" fill="#722828"/>
<path d="M494.671 99.4132V101.34H509.629V99.4132H494.671Z" fill="#722828"/>
<path d="M507.673 116.057H509.561V99.4588H507.673V116.057Z" fill="#722828"/>
<path d="M494.603 113.369V115.296H510.288V113.369H494.603Z" fill="#FCF9DE"/>
<path d="M494.542 98.7595V100.686H510.227V98.7595H494.542Z" fill="#FCF9DE"/>
<path d="M494.598 115.239H496.486V98.6401H494.598V115.239Z" fill="#FCF9DE"/>
<path d="M508.459 115.239H510.347V98.6401H508.459V115.239Z" fill="#FCF9DE"/>
<path fill-rule="evenodd" clip-rule="evenodd" d="M745.44 116.158V110.081H742.681V107.71C743.117 107.562 743.116 107.117 743.116 106.673V103.264C743.116 102.82 742.826 102.375 742.39 102.227C742.39 101.338 742.39 99.2628 742.536 98.3735C742.681 97.6325 743.843 97.7807 743.843 97.7807L743.988 96.8915C743.262 96.8915 741.955 97.0397 741.809 98.3735C741.664 99.2628 741.664 101.338 741.664 102.227C741.229 102.375 740.938 102.82 740.938 103.264V106.525C740.938 107.117 741.374 107.562 741.809 107.71V109.933H736.581L735.855 112.897C732.37 113.342 729.465 115.12 727.432 117.788C725.253 117.64 723.22 116.899 721.623 115.861L725.98 111.415L728.158 113.638C728.448 113.935 728.884 113.935 729.175 113.638C729.465 113.342 729.465 112.897 729.175 112.601L723.946 107.266C723.656 106.969 723.22 106.969 722.93 107.266C722.639 107.562 722.639 108.007 722.93 108.303L725.108 110.526L720.606 115.12C720.316 114.824 720.025 114.676 719.88 114.379V106.673C719.88 105.932 719.299 105.339 718.573 105.339C717.847 105.339 717.266 105.932 717.266 106.673V112.453H703.614C702.453 112.453 701.581 113.194 701.146 114.379H699.984V118.529H700.855V121.048C696.934 122.086 694.029 125.939 694.465 130.237C694.756 134.683 698.531 138.388 703.034 138.388C707.826 138.388 711.893 134.535 711.893 129.496C711.893 128.606 711.747 127.569 711.457 126.828H724.673C725.253 133.942 731.643 139.277 738.905 138.24C744.423 137.499 748.78 133.052 749.506 127.421C750.233 122.975 748.49 118.825 745.44 116.158Z" fill="url(#paint4_linear)"/>
<g clip-path="url(#clip1)">
<path d="M1013.46 -323H-209V509H1013.46V-323Z" fill="url(#paint5_linear)"/>
<path d="M1013.46 49.405C967.657 30.6017 852.42 24.4449 738.161 27.6065C508.502 34.0961 216.09 109.808 -20.5784 171.043H1013.46V49.405Z" fill="#001415"/>
<path opacity="0.36" d="M667.748 86.1777C755.928 78.0241 798.632 66.8753 798.632 66.8753C798.632 66.8753 735.716 98.1585 757.884 101.487C780.051 104.981 1038.72 49.7361 935.874 33.4289V33.2625C880.944 27.1057 809.39 25.4417 738.324 27.6049C643.298 30.2673 537.352 44.9105 429.287 65.3777C426.353 67.2081 423.908 69.0385 421.952 71.2017C407.771 87.5089 579.405 94.3313 667.748 86.1777Z" fill="#000217"/>
<path d="M1013.46 49.4033C1001.07 44.2449 983.468 40.0849 962.115 36.7569C1064.48 73.3649 940.926 183.023 667.747 162.389C408.586 142.754 365.556 96.9937 392.287 72.5329C339.965 83.0161 287.481 94.6641 235.486 106.978L231.411 170.709H1013.46V49.4033Z" fill="url(#paint6_linear)"/>
<path d="M1013.46 49.405C967.657 30.6017 852.42 24.4449 738.161 27.6065C508.502 34.0961 216.09 109.808 -20.5784 171.043H1013.46V49.405Z" fill="url(#paint7_linear)"/>
<path d="M479.163 170.71C479.163 170.71 338.336 92.3352 123.998 52.8984C-90.34 13.628 -209 35.5928 -209 35.5928V170.71H479.163Z" fill="#00181A"/>
<path d="M479.163 170.71C479.163 170.71 338.336 92.3352 123.998 52.8984C-90.34 13.628 -209 35.5928 -209 35.5928V170.71H479.163Z" fill="url(#paint8_linear)"/>
<path opacity="0.36" d="M165.235 81.8514C354.472 118.459 479.163 170.543 479.163 170.543C479.163 170.543 338.336 92.1682 123.998 52.7314C-90.34 13.2946 -209 35.5922 -209 35.5922V61.3842C-209 61.3842 -56.4371 39.0866 165.235 81.8514Z" fill="#000217"/>
<path d="M-209 87.176C-209 87.176 -28.0761 81.5184 55.5401 97.4928C139.156 113.467 22.6152 133.934 49.6722 141.589C76.7293 149.243 479 170.709 479 170.709H-209V87.176Z" fill="url(#paint9_linear)"/>
<path d="M1013.46 170.71H-209V509.001H1013.46V170.71Z" fill="url(#paint10_linear)"/>
<path d="M573.373 170.709C624.554 183.023 751.037 234.274 782.169 261.73C799.121 276.539 774.835 279.035 707.518 307.989C641.668 336.277 591.303 375.88 548.924 417.647C506.546 459.413 428.797 509 252.926 509H658.131C658.131 509 674.919 487.202 698.39 443.605C723.491 396.847 731.315 376.047 810.856 339.771C890.235 303.496 919.085 296.008 902.459 278.869C881.596 257.57 754.949 193.339 621.62 170.543H573.373V170.709Z" fill="#1D1000"/>
<path d="M1013.46 170.71H-209V509.001H1013.46V170.71Z" fill="url(#paint11_linear)"/>
<path d="M394.08 188.847C394.08 188.847 384.789 201.659 380.877 228.117C376.965 254.575 394.08 257.403 394.08 257.403C394.08 257.403 409.075 252.911 406.304 228.117C403.533 203.49 394.08 188.847 394.08 188.847Z" fill="#13140A"/>
<path d="M42.9891 162.389C42.9891 162.389 33.6984 175.202 29.7866 201.659C25.8747 228.117 42.9891 230.946 42.9891 230.946C42.9891 230.946 57.9846 226.453 55.2137 201.659C52.4428 177.032 42.9891 162.389 42.9891 162.389Z" fill="#13140A"/>
<path d="M42.3372 200.162L40.7073 246.754H44.9451L42.3372 200.162Z" fill="#322300"/>
<path d="M21.7999 153.403C21.7999 153.403 12.5092 166.216 8.59736 192.674C4.68549 219.131 21.7999 221.96 21.7999 221.96C21.7999 221.96 36.7954 217.467 34.0245 192.674C31.0906 168.046 21.7999 153.403 21.7999 153.403Z" fill="#13140A"/>
<path d="M21.1479 191.176L19.355 237.768H23.5928L21.1479 191.176Z" fill="#322300"/>
<path d="M649.492 170.542L649.655 170.709H785.593C783.8 167.547 779.236 166.216 776.139 168.046C774.02 164.885 769.293 164.219 766.359 166.549C765.707 164.885 764.077 163.554 762.284 163.387C760.491 163.387 758.698 164.552 758.046 166.216C757.231 164.885 756.09 163.554 754.46 163.221C752.994 162.888 751.038 163.72 750.712 165.384C750.06 163.554 748.43 162.056 746.474 161.723C744.518 161.39 742.562 162.389 741.421 163.886C741.747 162.222 740.932 160.226 739.302 159.56C737.672 158.894 735.716 159.394 734.738 160.725C735.064 157.397 734.249 154.734 731.315 153.403C729.196 152.405 725.936 152.238 723.817 153.403C720.884 154.901 719.906 156.731 718.928 160.558C717.298 157.397 712.245 158.062 710.289 161.058C711.267 157.563 708.496 153.57 705.073 153.403C701.487 153.237 698.553 157.23 699.368 160.725C699.042 158.562 696.271 157.23 694.642 158.395C695.456 156.398 696.108 154.069 695.619 151.739C695.13 149.576 693.501 147.579 691.382 147.08C689.589 146.747 687.47 147.912 686.818 149.576C686.981 147.413 684.862 145.25 682.743 145.749C685.84 143.253 685.84 137.762 682.743 135.266C679.809 132.77 674.593 133.602 672.637 137.096C672.963 135.432 672.148 133.602 670.681 132.603C669.214 131.605 667.258 131.771 665.954 132.603C666.117 129.275 664.324 125.781 661.554 123.95C658.783 122.12 655.034 121.787 652.1 123.285C650.633 123.95 649.492 124.45 648.677 125.781C647.862 127.112 647.536 128.776 647.373 130.44C645.743 140.424 645.743 150.574 647.21 160.558C647.21 163.387 647.536 168.878 649.492 170.542Z" fill="#13140A"/>
<path d="M464.004 170.709C466.123 168.379 467.101 165.051 467.427 161.557C468.079 153.403 467.59 145.083 466.286 137.096C465.145 129.941 461.396 124.117 453.41 124.949C449.335 125.282 445.586 127.611 442.652 130.44C440.044 132.936 439.881 136.264 440.37 139.592C438.088 137.429 433.524 139.093 433.198 142.421C431.894 140.923 430.427 139.426 428.634 138.594C426.841 137.762 424.56 137.762 422.93 139.093C421.3 140.424 420.811 142.92 422.278 144.418C420.485 143.919 418.529 144.251 417.062 145.416C415.595 146.581 415.269 148.911 416.247 150.408C414.78 148.744 412.172 148.411 410.379 149.743C408.586 151.074 407.934 153.736 409.075 155.733C407.771 153.403 404.348 154.568 403.37 156.731C401.577 153.57 397.665 152.072 394.08 151.739C392.124 151.573 390.005 151.573 388.212 152.571C384.626 154.402 383.485 159.061 382.833 163.221C382.018 162.223 381.04 161.058 379.899 160.559C376.965 159.061 374.031 161.224 372.564 163.72C369.63 160.226 365.718 157.563 361.318 157.064C356.917 156.731 352.027 159.394 351.049 163.887C349.256 163.055 347.463 162.223 345.507 162.389C343.551 162.389 341.595 163.554 341.106 165.384C338.987 164.219 336.053 164.219 333.935 165.384C331.816 166.549 330.349 168.712 330.023 171.208H464.004V170.709Z" fill="#13140A"/>
<path d="M667.747 116.795H648.351V104.814L594.725 37.7552L600.43 33.7616L650.306 66.7088L659.923 104.814L667.747 116.795Z" fill="#232323"/>
<path d="M667.747 116.795L657.967 105.979H648.351V116.795H667.747Z" fill="#141414"/>
<path d="M540.937 104.815L550.065 66.709L595.703 34.4274L645.905 70.2034L654.218 104.815V170.709H540.937V104.815Z" fill="#1D0900"/>
<path d="M544.197 104.814H453.735V170.709H544.197V104.814Z" fill="#140000"/>
<path d="M452.431 104.815L461.559 66.7089H553.325L544.197 104.815H452.431Z" fill="#232323"/>
<path d="M461.559 66.7088L508.501 33.7616H600.43L553.325 66.7088H461.559Z" fill="#141414"/>
<path d="M532.787 116.795H441.021L452.431 104.814H544.197L532.787 116.795Z" fill="#141414"/>
<path d="M605.972 33.7616L557.562 67.8736L548.435 105.979L538.492 116.795H532.787L544.197 104.814L553.325 66.7088L600.43 33.7616H605.972Z" fill="#262719"/>
<path d="M600.43 33.7616L648.839 67.8736L657.967 105.979L667.747 116.795H673.452L662.042 104.814L652.914 66.7088L605.972 33.7616H600.43Z" fill="#262719"/>
<path d="M645.905 70.2032L648.839 67.8736L603.364 35.592L600.267 37.5888L645.905 70.2032Z" fill="#141414"/>
<path d="M557.563 27.2722H555.281V25.2755L557.563 27.2722Z" fill="#141414"/>
<path d="M539.633 24.1108H520.563V40.418H539.633V24.1108Z" fill="#140000"/>
<path d="M539.633 40.4179L549.739 33.7619H555.281V24.1107L547.457 16.9555L539.633 24.1107V40.4179Z" fill="#1D0900"/>
<path d="M515.836 25.9416L525.942 16.9561H547.457L537.351 25.9416H515.836Z" fill="#232323"/>
<path d="M537.514 25.9412H515.836V27.2724H537.514V25.9412Z" fill="#141414"/>
<path d="M537.351 27.2724L547.457 18.2867V16.9555L537.351 25.9411V27.2724Z" fill="#262719"/>
<path d="M557.563 27.2724L547.457 18.2867V16.9555L557.563 25.9411V27.2724Z" fill="#262719"/>
<path d="M620.478 120.623H576.959V170.709H620.478V120.623Z" fill="#2F0000"/>
<path d="M578.428 121.954H575.657V170.543H578.428V121.954Z" fill="#141414"/>
<path d="M619.012 121.954H616.241V170.542H619.012V121.954Z" fill="#141414"/>
<path d="M598.8 121.954H596.029V170.542H598.8V121.954Z" fill="#141414"/>
<path d="M575.699 121.946V124.774H619.218V121.946H575.699Z" fill="#141414"/>
<path d="M575.553 145.556V148.385H619.073V145.556H575.553Z" fill="#141414"/>
<path d="M616.241 121.954L596.029 147.08H598.8L619.012 121.954H616.241Z" fill="#141414"/>
<path d="M578.428 121.954L598.802 147.08H596.031L575.657 121.954H578.428Z" fill="#141414"/>
<path d="M615.1 170.709L596.029 147.08H598.8L617.871 170.709H615.1Z" fill="#141414"/>
<path d="M579.567 170.709L598.8 147.08H596.029L576.796 170.709H579.567Z" fill="#141414"/>
<path d="M579.73 120.624H576.959V170.71H579.73V120.624Z" fill="#262719"/>
<path d="M620.478 120.622H617.708V170.709H620.478V120.622Z" fill="#262719"/>
<path d="M600.104 120.622H597.333V170.709H600.104V120.622Z" fill="#262719"/>
<path d="M577.035 120.615V123.444H620.555V120.615H577.035Z" fill="#262719"/>
<path d="M577.053 144.225V147.054H620.573V144.225H577.053Z" fill="#262719"/>
<path d="M617.707 120.622L597.333 145.582H600.104L620.478 120.622H617.707Z" fill="#262719"/>
<path d="M579.893 120.624L600.104 145.583H597.333L576.959 120.624H579.893Z" fill="#262719"/>
<path d="M617.707 170.709L597.333 145.583H600.104L620.478 170.709H617.707Z" fill="#262719"/>
<path d="M579.893 170.709L600.104 145.583H597.333L576.959 170.709H579.893Z" fill="#262719"/>
<path d="M611.84 72.533H585.761V101.653H611.84V72.533Z" fill="#C38B22"/>
<path d="M584.583 100.203V102.866H610.663V100.203H584.583Z" fill="#141414"/>
<path d="M584.582 73.7479V76.4103H610.661V73.7479H584.582Z" fill="#141414"/>
<path d="M584.559 102.738H587.167V73.6182H584.559V102.738Z" fill="#141414"/>
<path d="M608.011 102.738H610.619V73.6182H608.011V102.738Z" fill="#141414"/>
<path d="M587.228 73.698L607.928 100.156V102.818L587.228 76.3604V73.698Z" fill="#141414"/>
<path d="M607.928 73.698L587.228 100.156V102.818L607.928 76.3604V73.698Z" fill="#141414"/>
<path d="M585.693 98.9645V101.627H611.772V98.9645H585.693Z" fill="#262719"/>
<path d="M585.691 72.5085V75.1709H611.77V72.5085H585.691Z" fill="#262719"/>
<path d="M585.758 101.698H588.365V72.5785H585.758V101.698Z" fill="#262719"/>
<path d="M609.21 101.698H611.818V72.5785H609.21V101.698Z" fill="#262719"/>
<path d="M588.369 72.5325L609.069 98.9901V101.652L588.369 75.1949V72.5325Z" fill="#262719"/>
<path d="M609.069 72.5325L588.369 98.9901V101.652L609.069 75.1949V72.5325Z" fill="#262719"/>
<path d="M494.158 134.433H476.555V153.07H494.158V134.433Z" fill="#C38B22"/>
<path d="M475.515 151.66V153.823H493.118V151.66H475.515Z" fill="#141414"/>
<path d="M475.609 135.257V137.42H493.213V135.257H475.609Z" fill="#141414"/>
<path d="M475.564 153.956H477.683V135.32H475.564V153.956Z" fill="#141414"/>
<path d="M491.121 153.916H493.24V136.611H491.121V153.916Z" fill="#141414"/>
<path d="M476.487 150.901V153.064H494.09V150.901H476.487Z" fill="#262719"/>
<path d="M476.418 134.498V136.661H494.022V134.498H476.418Z" fill="#262719"/>
<path d="M476.445 153.037H478.563V134.4H476.445V153.037Z" fill="#262719"/>
<path d="M492.001 153.037H494.12V134.4H492.001V153.037Z" fill="#262719"/>
<path d="M509.642 134.433H492.039V153.07H509.642V134.433Z" fill="#C38B22"/>
<path d="M491.989 151.672V153.835H508.777V151.672H491.989Z" fill="#141414"/>
<path d="M492.083 135.268V137.432H508.872V135.268H492.083Z" fill="#141414"/>
<path d="M506.677 153.956H508.796V135.32H506.677V153.956Z" fill="#141414"/>
<path d="M492.007 150.938V153.101H509.611V150.938H492.007Z" fill="#262719"/>
<path d="M491.939 134.534V136.698H509.542V134.534H491.939Z" fill="#262719"/>
<path d="M492.001 153.037H494.12V134.4H492.001V153.037Z" fill="#262719"/>
<path d="M507.558 153.037H509.677V134.4H507.558V153.037Z" fill="#262719"/>
<path d="M145.676 180.36L161.975 -30.3026H176.156L192.455 180.36" stroke="#280F0A" stroke-miterlimit="10" stroke-linecap="round" stroke-linejoin="round"/>
<path d="M176.156 -30.3026L159.693 -1.84813L180.883 32.2639H157.085L178.275 -1.84813L161.975 -30.3026" stroke="#280F0A" stroke-miterlimit="10" stroke-linecap="round" stroke-linejoin="round"/>
<path d="M180.883 32.264L153.5 78.1904" stroke="#280F0A" stroke-miterlimit="10" stroke-linecap="round" stroke-linejoin="round"/>
<path d="M184.468 78.1904L149.425 132.437H188.706L153.499 78.1904H184.468ZM184.468 78.1904L157.085 32.264" stroke="#280F0A" stroke-miterlimit="10" stroke-linecap="round" stroke-linejoin="round"/>
<path d="M149.425 132.437L191.966 174.702" stroke="#280F0A" stroke-miterlimit="10" stroke-linecap="round" stroke-linejoin="round"/>
<path d="M188.706 132.437L146.165 174.702" stroke="#280F0A" stroke-miterlimit="10" stroke-linecap="round" stroke-linejoin="round"/>
<path d="M168.984 -30.3026V180.36" stroke="#280F0A" stroke-miterlimit="10" stroke-linecap="round" stroke-linejoin="round"/>
<path d="M191.478 180.36C191.152 180.193 190.663 180.526 190.337 180.193C190.337 180.027 190.337 179.861 190.337 179.861C190.174 179.528 189.359 179.528 189.033 179.361C188.87 179.361 188.707 179.361 188.707 179.195V179.029C188.707 178.862 188.707 178.529 188.87 178.363C188.544 178.363 188.381 178.529 188.381 178.862C188.218 178.862 188.218 178.696 188.218 178.529C188.218 178.197 188.218 178.03 188.381 177.697C188.218 177.697 188.055 177.697 187.892 177.697C187.729 177.864 187.729 177.864 187.729 178.03C187.566 178.529 187.892 178.862 187.892 179.361C188.055 179.861 187.566 180.36 187.24 180.693C186.262 181.691 185.447 182.689 184.632 183.854C184.469 184.021 184.469 184.187 184.306 184.353C184.143 184.853 184.469 185.352 184.958 185.685C185.447 185.851 185.936 185.851 186.588 185.851C186.588 185.851 186.588 185.851 186.751 185.685C187.24 185.685 187.566 186.184 188.055 186.35C188.544 186.683 189.359 186.683 189.848 186.683C190.337 186.683 191.152 187.016 191.478 187.681C191.641 187.848 191.641 188.181 191.641 188.347C191.804 188.513 191.967 188.68 191.967 188.846C192.13 189.013 192.13 189.345 192.13 189.512C192.293 190.177 192.619 190.843 192.782 191.342C193.108 191.841 193.271 192.341 193.76 192.673C194.086 192.84 194.411 193.006 194.9 193.173C195.226 193.173 195.715 193.173 195.715 193.672C195.715 194.005 195.715 194.504 195.552 194.837C195.552 195.003 195.552 195.169 195.552 195.502C195.552 195.669 195.715 195.835 195.715 195.835C195.878 196.334 195.878 196.667 195.715 197.166C195.389 197.998 195.063 198.664 194.737 199.496C194.737 199.662 194.574 199.829 194.737 199.829H194.9C195.389 199.829 195.878 199.829 196.204 199.829C196.204 199.662 196.204 199.329 196.367 199.163C196.53 199.163 196.53 198.997 196.693 198.997C196.856 198.83 196.856 198.664 196.693 198.497C196.53 197.499 197.019 196.501 197.345 195.502C197.345 195.336 197.508 195.336 197.508 195.336L197.671 195.502C197.834 196.168 197.997 196.833 197.834 197.333C197.671 197.832 197.182 198.165 197.019 198.664C197.508 198.83 197.997 198.83 198.486 198.664C198.486 198.497 198.486 198.165 198.812 197.998H198.975C199.138 197.832 198.975 197.665 198.975 197.499C198.812 197 198.812 196.334 198.812 195.669C198.812 195.003 198.812 194.504 198.975 193.838C198.975 193.505 198.812 192.84 199.138 192.673C199.301 192.507 199.464 192.507 199.627 192.507C201.909 192.673 204.191 194.005 206.473 193.672C207.614 193.505 208.592 193.006 209.57 192.507C210.059 192.341 210.548 192.174 211.037 192.341C211.363 192.507 211.526 192.673 211.526 193.006C211.526 193.173 211.526 193.339 211.689 193.339C211.852 193.505 212.015 193.505 212.015 193.339C212.015 193.173 212.015 193.173 212.015 193.006C212.015 192.673 212.341 192.507 212.504 192.673C212.341 192.84 212.504 193.173 212.667 193.173C212.83 193.173 212.667 192.84 212.83 192.673H212.993C213.319 192.673 213.645 192.507 213.645 192.174C213.645 192.008 213.645 191.509 213.971 191.675C214.134 191.675 214.297 191.841 214.297 192.008C214.46 192.507 214.786 193.173 215.275 193.339C215.112 193.339 215.112 193.672 215.275 193.672C215.275 193.838 215.438 193.838 215.601 194.005C215.764 194.171 215.764 194.337 215.764 194.504C215.927 195.336 216.09 196.001 216.253 196.833C216.253 197.333 216.253 197.998 215.764 198.331C215.601 198.497 215.275 198.664 215.275 198.83C215.764 198.997 216.253 198.997 216.742 198.997C216.905 198.997 216.905 198.997 217.068 198.83C217.068 198.664 217.068 198.664 217.068 198.497C217.068 198.331 217.557 198.331 217.72 198.165C217.883 197.998 217.72 197.665 217.72 197.499C217.72 197.166 217.883 197 217.883 196.667C218.046 196.334 217.883 195.835 217.883 195.336C217.883 194.504 218.535 193.838 218.372 193.006C218.372 192.673 218.209 192.507 218.209 192.174C218.209 192.008 218.209 191.841 218.372 191.675C218.535 191.176 218.535 190.51 218.209 190.011C218.209 189.845 218.046 189.678 218.046 189.512C218.046 189.345 218.046 189.345 218.209 189.179C218.209 189.013 218.209 188.68 218.209 188.513C218.046 188.181 218.046 187.681 217.883 187.349C217.883 187.016 217.883 186.683 217.883 186.184C217.883 185.352 217.72 184.353 217.72 183.521C217.72 183.022 217.557 182.523 217.394 182.024C217.068 181.192 216.416 180.526 215.764 180.193C214.134 179.195 212.341 179.694 210.548 180.193C209.244 180.526 207.94 180.526 206.636 180.693C205.658 180.859 204.68 180.859 203.702 180.859C202.561 180.859 201.42 180.693 200.279 180.36C197.834 179.861 195.389 179.528 192.945 179.195C192.619 179.195 192.293 179.195 191.967 179.029C191.804 180.526 191.641 180.36 191.478 180.36Z" fill="#1D0900"/>
<path d="M268.411 181.525C268.411 180.859 268.574 180.36 268.737 179.694C268.9 178.696 268.9 177.864 268.9 176.866C268.9 175.867 268.9 174.869 268.574 174.037C268.248 173.038 267.759 172.206 266.944 171.707C265.64 170.875 264.01 171.208 262.38 171.374C260.261 171.541 257.979 171.374 255.86 171.374C253.741 171.208 251.785 171.374 249.829 171.541C249.014 171.541 248.2 171.541 247.548 171.707C246.733 171.874 246.081 172.04 245.429 172.539C244.614 173.038 243.799 173.87 243.473 174.702C242.984 175.701 242.984 176.866 242.332 177.864C242.169 178.197 241.843 178.363 241.68 178.696C241.191 179.528 241.191 180.36 241.028 181.358C240.865 182.19 240.702 183.189 239.887 183.688C239.887 183.688 239.724 183.854 239.561 183.688C239.561 183.688 239.561 183.688 239.398 183.522C239.235 183.189 239.072 182.856 238.746 183.022C238.746 183.022 238.746 183.022 238.583 183.022C238.257 183.189 238.257 183.522 238.257 183.854C238.257 184.187 238.42 184.354 238.746 184.686C238.746 184.686 238.909 184.853 238.909 185.019C238.909 185.186 238.909 185.186 238.909 185.352C238.746 185.685 238.583 185.851 238.42 186.184C238.257 186.517 238.257 186.85 238.42 187.182C238.583 187.349 238.746 187.515 238.909 187.848C239.072 188.181 238.909 188.514 238.909 188.68C238.746 189.179 238.746 189.512 238.583 190.011C238.42 190.344 237.931 191.01 238.094 191.342L238.257 191.509V191.675C238.42 192.341 239.235 192.008 239.724 191.842C239.887 191.842 240.05 191.842 240.213 191.675C240.539 191.509 240.702 191.176 241.028 191.01C241.191 190.677 241.517 190.51 241.68 190.344C241.843 190.178 242.006 190.011 242.169 189.845C242.169 189.678 242.169 189.678 242.332 189.512C242.495 189.346 242.658 189.179 242.821 189.179C243.147 188.846 243.147 188.347 243.31 187.848C243.31 187.349 243.31 186.683 243.473 186.184C243.473 186.35 243.636 186.35 243.799 186.184C243.962 186.184 243.962 186.018 244.125 186.018C244.288 186.018 244.451 186.018 244.614 186.018C245.266 186.184 246.081 185.851 246.57 185.352C246.57 185.685 246.896 186.018 247.222 186.184C247.385 186.184 247.385 186.184 247.548 186.35C247.711 186.35 247.711 186.517 247.711 186.683C248.037 188.014 247.874 189.512 247.222 190.843C247.059 191.176 246.733 191.509 246.57 192.008C247.059 192.174 247.548 192.341 248.037 192.174C248.2 192.174 248.2 192.174 248.2 192.008C248.2 191.842 248.2 191.675 248.363 191.509H248.526C248.689 191.509 248.851 191.176 248.851 190.843C248.851 190.344 248.851 189.845 248.851 189.512C248.851 188.846 249.014 188.014 249.503 187.515C249.666 188.014 249.992 188.347 249.992 188.846C250.155 189.512 250.155 190.178 249.829 190.843C249.666 191.01 249.503 191.176 249.503 191.509C249.992 191.675 250.481 191.675 251.133 191.675C250.97 191.509 251.459 191.342 251.622 191.176V191.01C251.459 190.178 251.133 189.512 251.133 188.68C251.133 188.347 250.97 188.181 251.133 187.848C251.133 187.515 251.296 187.349 251.296 187.016C251.296 186.683 251.133 186.35 251.133 186.018C251.133 185.685 251.133 185.518 251.133 185.186C251.133 185.019 250.97 184.686 250.97 184.52L251.133 184.354C251.296 184.187 251.622 184.021 251.785 183.854C251.948 183.854 251.948 183.688 252.111 183.688C252.274 183.688 252.274 183.688 252.437 183.688C253.904 183.688 255.371 184.354 256.675 184.686C256.838 184.686 257.001 184.853 257.164 184.853C257.653 185.019 258.142 185.186 258.631 185.186C258.957 185.186 259.446 185.019 259.772 185.019C260.75 184.853 261.728 185.019 262.543 185.518C262.543 185.851 262.543 186.35 262.869 186.683L263.032 186.517C263.032 186.517 263.195 186.683 263.358 186.683C263.358 186.517 263.358 186.184 263.358 186.018C263.521 185.851 263.684 186.018 263.847 186.184C264.01 186.35 264.01 186.517 264.01 186.683C264.336 188.181 264.173 189.845 263.684 191.342C263.521 192.008 263.195 192.341 262.706 192.84L262.543 193.006C262.543 193.173 262.706 193.339 262.869 193.339C263.195 193.339 263.684 193.339 263.847 193.006L264.01 192.84C264.173 192.674 264.336 192.84 264.662 192.84C264.662 192.84 264.662 192.84 264.825 192.84C264.825 192.84 264.825 192.674 264.825 192.507C264.662 192.008 264.825 191.675 264.988 191.176C265.151 190.843 265.966 187.182 266.129 187.182C266.292 187.182 266.292 187.349 266.292 187.515C266.292 187.848 266.618 188.014 266.618 188.347C266.944 188.846 267.107 189.512 267.107 190.178C267.107 190.344 267.107 190.677 267.107 190.843C267.107 191.176 267.27 191.509 267.27 191.842C267.27 192.174 267.107 192.507 266.944 192.84C266.781 193.006 266.455 193.339 266.618 193.506C266.781 193.838 267.922 193.506 268.085 193.173C268.248 193.006 268.248 192.84 268.411 192.84H268.574C268.737 192.84 268.737 192.674 268.737 192.507C268.737 192.341 268.574 192.341 268.574 192.174C268.411 191.842 268.411 191.509 268.411 191.176C268.411 190.51 268.411 189.678 268.574 189.013C268.574 188.68 268.574 188.347 268.737 188.014C268.737 187.682 268.9 187.515 268.9 187.182C268.9 187.016 268.9 187.016 268.9 186.85C268.9 186.683 268.9 186.683 269.063 186.517C269.389 185.851 269.389 185.186 269.389 184.354C268.737 183.022 268.411 182.357 268.411 181.525ZM268.248 180.194C268.085 181.525 267.759 182.856 267.596 184.187C267.27 183.854 267.27 183.522 267.27 183.189C267.107 182.024 267.433 180.859 267.596 179.694C267.596 179.029 267.922 178.53 268.085 177.864C268.248 177.198 268.411 176.699 268.411 176.034C268.574 176.2 268.574 176.366 268.574 176.533C268.574 177.864 268.574 179.029 268.248 180.194Z" fill="#1D0900"/>
<path d="M319.102 158.728C318.776 158.894 318.45 159.227 317.961 159.227C317.472 159.393 317.146 159.227 316.657 159.227C315.842 159.061 315.679 157.896 315.679 157.064C315.679 157.064 315.679 157.064 315.679 156.897H315.516V157.064C315.353 157.563 315.516 158.395 315.679 158.894C315.842 159.393 316.168 159.56 316.494 159.726C316.983 159.893 317.309 160.059 317.798 160.059C317.798 160.225 317.635 160.392 317.309 160.558C316.983 160.558 316.494 160.392 316.168 160.392C315.679 160.392 315.19 160.558 314.538 160.558C314.049 160.558 313.56 160.558 313.234 160.558C312.745 160.558 312.093 160.558 311.604 160.725C311.441 160.725 311.115 160.725 310.952 160.725C310.626 160.725 310.463 160.891 310.137 160.891C309.322 161.057 308.507 161.057 307.855 161.057C307.529 161.057 307.203 161.057 306.877 161.057C306.551 161.057 306.062 161.057 305.736 161.057C304.921 161.057 303.944 161.057 303.129 160.891C302.803 160.891 302.477 160.725 302.314 160.725C301.499 160.725 300.684 160.891 300.032 160.558C299.706 160.392 299.217 160.392 298.728 160.392C298.239 160.225 297.75 160.225 297.261 160.059C296.935 160.059 296.609 159.893 296.283 159.726C295.794 159.393 295.142 159.56 294.653 159.393C294.001 159.393 293.512 159.061 293.023 159.061C292.697 159.061 292.371 159.227 292.045 159.393C291.882 159.56 291.719 159.893 291.556 160.225C291.067 160.725 290.252 161.224 290.089 161.889C289.763 162.555 289.763 163.387 289.763 164.053C289.763 165.051 289.926 166.049 290.089 167.048C290.252 168.213 290.252 169.377 289.926 170.542C289.763 171.041 289.6 171.374 289.6 171.873C289.437 172.539 289.6 173.371 289.6 174.203C289.6 174.702 289.6 175.701 290.089 175.867C290.252 175.867 290.252 174.869 290.252 174.869C290.415 174.369 290.578 174.203 290.578 173.704C290.578 172.206 290.578 170.875 290.578 169.377C291.719 171.041 291.882 173.205 291.067 175.035C290.904 175.368 290.741 175.701 290.904 175.867C290.904 176.033 291.067 176.033 291.067 176.2C291.556 176.699 291.393 177.365 291.556 178.03C291.719 178.862 291.882 179.528 292.045 180.36C292.208 181.192 292.208 182.024 291.719 182.689C291.882 182.856 292.208 182.856 292.371 182.856C292.534 183.022 292.534 183.355 292.534 183.688C293.023 183.688 293.675 183.854 294.164 183.688C294.327 183.688 294.327 183.688 294.49 183.688C294.816 183.521 294.653 183.189 294.49 182.856C294.653 182.856 294.816 182.856 295.142 182.689H295.305C295.305 182.689 295.305 182.689 295.305 182.523C295.305 182.19 294.979 181.857 294.816 181.525C294.164 180.526 293.838 179.361 293.838 178.197C293.838 177.864 294.001 177.365 294.164 177.032C294.327 176.699 294.49 176.366 294.49 176.033C294.49 175.701 294.653 175.368 294.653 175.035C294.653 174.869 295.142 174.203 295.142 174.203C295.142 174.369 295.305 174.369 295.305 174.536C295.305 174.702 295.468 174.702 295.468 174.702H295.631C295.957 174.369 295.794 173.87 296.12 173.371C296.283 173.205 296.609 173.038 296.772 172.705V172.539L296.935 172.373C297.098 172.206 297.261 172.206 297.424 172.04H297.587H297.75C298.076 172.206 298.402 172.539 298.891 172.872C299.543 173.205 300.195 173.537 300.847 173.704C301.499 173.87 302.151 173.87 302.803 174.037C304.27 174.037 305.736 174.037 307.203 173.704C307.855 173.537 308.67 173.371 309.322 173.704C309.974 174.037 310.3 174.869 310.463 175.701C310.626 176.533 310.463 177.365 310.789 178.197C310.952 178.529 310.952 178.862 311.115 179.029C311.278 179.694 311.278 180.193 311.441 180.859C311.441 181.358 311.441 181.691 311.278 182.024C311.115 182.19 311.115 182.357 310.952 182.523C310.789 182.856 311.115 183.355 311.441 183.688C311.604 183.854 311.604 183.854 311.767 184.021C311.93 184.021 311.93 184.021 312.093 184.021C312.419 184.021 312.582 184.021 312.908 184.021C313.234 184.021 313.56 183.854 313.723 183.688C313.723 183.521 313.56 183.189 313.886 183.355C314.049 183.355 314.375 183.521 314.538 183.355H314.701C314.701 183.355 314.864 183.189 314.864 183.022C314.864 182.689 314.538 182.357 314.375 182.19C313.886 181.691 313.723 180.859 313.56 180.193C313.56 179.861 313.397 179.361 313.56 179.029C313.723 178.529 314.049 178.363 314.212 177.864C314.538 177.198 314.375 176.366 314.538 175.867C314.864 175.867 315.19 176.033 315.516 176.033C315.679 176.033 316.005 175.867 316.168 175.701C316.494 175.534 316.983 175.534 317.146 175.368C317.309 175.201 317.309 175.201 317.309 175.035C317.635 174.369 318.45 174.203 318.613 173.371C318.776 172.705 318.939 172.04 318.939 171.208C319.102 170.376 319.591 169.377 319.754 168.545C319.754 168.545 319.754 168.379 319.917 168.379C320.08 168.379 320.08 168.545 320.243 168.545C320.406 168.712 320.732 168.379 320.895 168.379C321.221 168.379 321.547 168.712 321.873 168.545C322.036 168.379 322.199 168.213 322.362 168.046C322.525 168.046 322.525 168.046 322.688 168.046C322.851 168.046 322.851 167.88 322.851 167.713C323.014 167.048 322.525 166.382 322.525 165.717C322.525 165.384 322.525 165.217 322.525 164.885C322.525 164.219 322.525 163.72 322.525 163.054C322.525 162.888 322.525 162.888 322.525 162.721C322.525 162.555 322.851 162.389 322.688 162.222C323.014 162.222 323.177 162.389 323.503 162.555C323.829 162.721 324.155 162.888 324.481 162.721C324.644 162.721 324.807 162.555 324.97 162.389C325.296 162.222 325.785 162.056 326.111 161.889L326.274 161.723C326.274 161.557 326.274 161.39 326.274 161.39C326.274 161.224 326.111 161.057 325.948 161.057L325.785 160.891C325.622 160.725 325.459 160.725 325.296 160.558C325.133 160.558 324.97 160.392 324.807 160.392C324.481 160.225 324.155 160.392 323.992 160.392C323.829 160.392 323.503 160.558 323.34 160.558C323.014 160.558 322.525 160.225 322.525 159.893C323.014 159.893 323.666 159.726 324.155 159.56C324.318 159.56 324.481 159.393 324.644 159.227C324.807 159.061 324.97 158.894 325.133 158.728C325.622 158.062 326.111 157.397 326.111 156.565V156.398C325.785 156.731 325.622 157.23 325.296 157.563C324.97 157.896 324.644 158.229 324.155 158.561C323.666 158.728 323.014 158.728 322.362 158.728C322.199 158.728 322.036 158.728 321.873 158.561C321.384 158.229 320.08 158.062 319.102 158.728Z" fill="#1D0900"/>
<path d="M96.1257 152.738C95.7997 152.904 95.4737 153.237 94.9848 153.237C94.4958 153.403 94.1698 153.237 93.6808 153.237C92.8658 153.07 92.7028 151.906 92.7028 151.074C92.7028 151.074 92.7028 151.074 92.7028 150.907H92.5398V151.074C92.3768 151.573 92.5398 152.405 92.7028 152.904C92.8658 153.403 93.1918 153.57 93.5178 153.736C94.0068 153.902 94.3328 154.069 94.8218 154.069C94.8218 154.235 94.6588 154.402 94.3328 154.568C94.0068 154.568 93.5178 154.402 93.1918 154.402C92.7028 154.402 92.2138 154.568 91.5619 154.568C91.0729 154.568 90.5839 154.568 90.2579 154.568C89.7689 154.568 89.117 154.568 88.628 154.734C88.465 154.734 88.139 154.734 87.976 154.734C87.65 154.734 87.487 154.901 87.161 154.901C86.346 155.067 85.5311 155.067 84.8791 155.067C84.5531 155.067 84.2271 155.067 83.9011 155.067C83.5751 155.067 83.0862 155.067 82.7602 155.067C81.9452 155.067 80.9672 155.067 80.1522 154.901C79.8263 154.901 79.5003 154.734 79.3373 154.734C78.5223 154.734 77.7073 154.901 77.0554 154.568C76.7294 154.402 76.2404 154.402 75.7514 154.402C75.2624 154.235 74.7734 154.235 74.2845 154.069C73.9585 154.069 73.6325 153.902 73.3065 153.736C72.8175 153.403 72.1655 153.57 71.6765 153.403C71.0245 153.403 70.5356 153.07 70.0466 153.07C69.7206 153.07 69.3946 153.237 69.0686 153.403C68.9056 153.57 68.7426 153.902 68.5796 154.235C68.0907 154.734 67.2757 155.234 67.1127 155.899C66.7867 156.565 66.7867 157.397 66.7867 158.062C66.7867 159.061 66.9497 160.059 67.1127 161.058C67.2757 162.222 67.2757 163.387 66.9497 164.552C66.7867 165.051 66.6237 165.384 66.6237 165.883C66.4607 166.549 66.6237 167.381 66.6237 168.213C66.6237 168.712 66.6237 169.71 67.1127 169.877C67.2757 169.877 67.2757 168.878 67.2757 168.878C67.4387 168.379 67.6017 168.213 67.6017 167.714C67.6017 166.216 67.6017 164.885 67.6017 163.387C68.7426 165.051 68.9056 167.214 68.0907 169.045C67.9277 169.378 67.7647 169.71 67.9276 169.877C67.9276 170.043 68.0907 170.043 68.0907 170.21C68.5796 170.709 68.4166 171.374 68.5796 172.04C68.7426 172.872 68.9056 173.538 69.0686 174.37C69.2316 175.202 69.2316 176.034 68.7426 176.699C68.9056 176.866 69.2316 176.866 69.3946 176.866C69.5576 177.032 69.5576 177.365 69.5576 177.698C70.0466 177.698 70.6986 177.864 71.1875 177.698C71.3505 177.698 71.3506 177.698 71.5135 177.698C71.8395 177.531 71.6765 177.198 71.5135 176.866C71.6765 176.866 71.8395 176.866 72.1655 176.699H72.3285C72.3285 176.699 72.3285 176.699 72.3285 176.533C72.3285 176.2 72.0025 175.867 71.8395 175.534C71.1876 174.536 70.8616 173.371 70.8616 172.206C70.8616 171.874 71.0245 171.374 71.1875 171.042C71.3505 170.709 71.5135 170.376 71.5135 170.043C71.5135 169.71 71.6765 169.378 71.6765 169.045C71.6765 168.878 72.1655 168.213 72.1655 168.213C72.1655 168.379 72.3285 168.379 72.3285 168.546C72.3285 168.712 72.4915 168.712 72.4915 168.712H72.6545C72.9805 168.379 72.8175 167.88 73.1435 167.547C73.3065 167.381 73.6325 167.214 73.7955 166.882V166.715L73.9585 166.549C74.1215 166.382 74.2844 166.382 74.4474 166.216H74.6104H74.7734C75.0994 166.382 75.4254 166.882 75.9144 167.048C76.5664 167.381 77.2183 167.714 77.8703 167.88C78.5223 168.046 79.1743 168.046 79.8263 168.213C81.2932 168.213 82.7602 168.213 84.2271 167.88C84.8791 167.714 85.6941 167.547 86.346 167.88C86.998 168.213 87.324 169.045 87.487 169.877C87.65 170.709 87.487 171.541 87.813 172.373C87.976 172.706 87.976 173.038 88.139 173.205C88.302 173.87 88.302 174.37 88.465 175.035C88.465 175.534 88.465 175.867 88.302 176.2C88.139 176.366 88.139 176.533 87.976 176.699C87.813 177.032 88.139 177.531 88.465 177.864C88.628 178.03 88.628 178.03 88.791 178.197C88.9539 178.197 88.9539 178.197 89.1169 178.197C89.4429 178.197 89.6059 178.197 89.9319 178.197C90.2579 178.197 90.5839 178.03 90.7469 177.864C90.7469 177.698 90.5839 177.365 90.9099 177.531C91.0729 177.531 91.3989 177.698 91.5619 177.531H91.7249C91.7249 177.531 91.8879 177.365 91.8879 177.198C91.8879 176.866 91.5619 176.533 91.3989 176.366C90.9099 175.867 90.7469 175.035 90.5839 174.37C90.5839 174.037 90.4209 173.538 90.5839 173.205C90.7469 172.706 91.0729 172.539 91.2359 172.04C91.5619 171.374 91.3989 170.542 91.5619 170.043C91.8878 170.043 92.2138 170.21 92.5398 170.21C92.7028 170.21 93.0288 170.043 93.1918 169.877C93.5178 169.71 94.0068 169.71 94.1698 169.544C94.3328 169.378 94.3328 169.378 94.3328 169.211C94.6588 168.546 95.4737 168.379 95.6367 167.547C95.7997 166.882 95.9627 166.216 95.9627 165.384C96.1257 164.552 96.6147 163.554 96.7777 162.722C96.7777 162.722 96.7777 162.555 96.9407 162.555C97.1037 162.555 97.1037 162.722 97.2667 162.722C97.4297 162.888 97.7557 162.555 97.9187 162.555C98.2446 162.555 98.5706 162.888 98.8966 162.722C99.0596 162.555 99.2226 162.389 99.3856 162.222C99.5486 162.222 99.5486 162.222 99.7116 162.222C99.8746 162.222 99.8746 162.056 99.8746 161.89C100.038 161.224 99.5486 160.558 99.5486 159.893C99.5486 159.56 99.5486 159.394 99.5486 159.061C99.5486 158.395 99.5486 157.896 99.5486 157.23C99.5486 157.064 99.5486 157.064 99.5486 156.898C99.5486 156.731 99.8746 156.565 99.7116 156.398C100.038 156.398 100.201 156.565 100.527 156.731C100.853 156.898 101.179 157.064 101.505 156.898C101.668 156.898 101.831 156.731 101.994 156.565C102.32 156.398 102.808 156.232 103.134 156.066L103.297 155.899C103.297 155.733 103.297 155.566 103.297 155.566C103.297 155.4 103.134 155.234 102.971 155.234L102.808 155.067C102.646 154.901 102.483 154.901 102.32 154.734C102.157 154.734 101.994 154.568 101.831 154.568C101.505 154.402 101.179 154.568 101.016 154.568C100.853 154.568 100.527 154.734 100.364 154.734C100.038 154.734 99.5486 154.402 99.5486 154.069C100.038 154.069 100.69 153.902 101.179 153.736C101.342 153.736 101.505 153.57 101.668 153.403C101.831 153.237 101.994 153.07 102.157 152.904C102.645 152.238 103.134 151.573 103.134 150.741V150.574C102.808 150.907 102.646 151.406 102.32 151.739C101.994 152.072 101.668 152.405 101.179 152.738C100.69 152.904 100.038 152.904 99.3856 152.904C99.2226 152.904 99.0596 152.904 98.8966 152.738C98.4076 152.405 97.1037 152.238 96.1257 152.738Z" fill="#1D0900"/>
<path d="M112.099 196.667C112.099 196.833 111.936 197 111.936 197.166C111.936 197.332 111.936 197.499 111.936 197.665C111.936 197.998 111.936 198.331 111.936 198.83C111.936 199.662 111.936 200.328 112.099 200.993C112.099 201.16 112.099 201.16 112.262 201.326L112.425 201.492C112.588 201.659 112.425 201.992 112.588 202.158C112.588 202.491 112.914 202.824 112.914 203.156C112.588 203.156 112.262 203.156 111.773 203.323C111.447 203.323 110.958 203.323 110.795 202.99C110.632 202.824 110.632 202.324 110.469 202.158C110.306 201.992 110.143 201.992 109.98 201.992C109.817 201.825 109.817 201.659 109.98 201.492C110.143 201.326 110.306 201.16 110.469 200.993C110.632 200.66 110.632 200.161 110.632 199.662C110.469 198.664 110.306 197.665 110.143 196.667C110.143 196.168 110.143 195.502 109.817 195.003C109.817 194.836 109.654 194.836 109.654 194.67C109.654 194.504 109.654 194.171 109.817 194.004C110.143 193.339 110.469 192.673 110.795 192.008C111.284 190.676 110.632 189.179 110.143 187.848C109.654 186.683 109.165 185.518 109.165 184.353C108.839 185.352 109.002 186.35 109.002 187.515C109.002 188.68 108.839 190.011 109.002 191.176C109.002 191.675 109.328 192.174 109.328 192.673C109.328 193.172 108.839 193.838 109.002 194.337C109.002 194.504 109.165 194.504 109.165 194.67C109.491 195.169 109.328 195.668 109.328 196.334C109.165 196.833 109.328 197.332 109.491 197.832C109.328 197.832 109.165 197.499 109.002 197.332C108.839 197.332 108.839 197.665 108.676 197.499V197.332C108.513 197 108.513 196.667 108.513 196.334C108.513 195.835 108.35 195.502 108.35 195.003C108.35 194.504 108.513 194.004 108.35 193.339C108.35 193.172 108.187 193.006 108.187 192.84C108.024 192.174 108.35 191.508 108.513 191.009C108.676 190.51 108.513 189.844 108.513 189.179C108.513 187.681 108.513 186.35 108.35 184.853C108.35 183.854 108.35 182.856 108.35 181.691C108.35 181.192 108.513 180.693 108.513 180.36C108.513 179.861 108.839 179.528 109.165 179.195C109.491 178.862 109.654 178.696 109.98 178.363C110.795 177.531 112.425 177.864 113.403 177.864C114.381 177.864 115.359 177.697 116.337 177.697C117.315 177.697 118.293 178.03 119.271 178.197C121.39 178.696 123.346 179.029 125.465 179.195C126.932 179.361 128.562 179.528 130.028 179.528C130.843 179.528 131.658 179.361 132.31 179.361C132.962 179.361 133.614 179.029 134.429 179.029C135.244 179.029 136.222 179.195 137.037 179.195C137.526 179.195 138.178 179.029 138.667 179.029C139.156 179.029 139.645 179.195 140.134 179.195C141.112 179.195 141.438 178.529 142.09 178.03C142.579 177.697 143.557 177.697 143.883 178.363C144.046 178.529 144.046 178.862 144.372 178.862C144.535 179.029 144.861 179.029 145.024 179.029C145.35 179.195 145.35 179.694 145.676 179.861C146.002 180.027 146.328 179.861 146.491 179.694C147.143 179.528 147.795 179.528 148.447 179.861C148.447 179.861 148.61 179.861 148.61 180.027V180.193C148.121 181.192 146.98 181.857 146.002 181.691C145.839 181.691 145.676 181.691 145.513 181.691V181.857C145.35 183.022 145.024 184.187 144.861 185.185C144.861 185.352 144.861 185.518 144.861 185.518C144.861 185.685 145.024 185.851 145.024 186.017C145.187 186.35 145.35 186.683 145.187 187.016C145.187 187.348 144.861 187.681 144.372 187.848C144.046 188.014 143.557 188.014 143.231 188.014C143.068 188.014 142.905 188.014 142.742 188.014C142.416 187.848 142.253 187.681 141.927 187.515C141.601 187.348 141.275 187.681 140.949 188.014C140.786 188.347 140.786 188.68 140.623 189.013C140.623 189.013 140.623 189.012 140.623 189.179C140.786 189.179 140.786 189.179 140.949 189.179C141.438 189.179 141.927 189.179 142.579 189.179C143.068 189.179 143.394 188.846 143.72 188.846C144.046 188.846 144.372 189.012 144.698 189.179C144.861 189.012 145.024 189.013 145.187 188.846C145.513 188.68 145.676 188.513 146.002 188.513C146.491 188.347 147.143 188.513 147.469 188.846C147.469 188.846 147.469 189.013 147.632 189.013H147.795C148.121 189.013 148.447 188.846 148.773 188.68C149.099 188.513 149.425 188.513 149.751 188.68C149.914 188.68 150.077 188.846 150.077 189.013C150.077 189.013 150.077 189.179 149.914 189.179C149.425 189.844 148.773 190.177 147.958 190.011H147.795C147.795 190.011 147.795 190.011 147.795 190.177C147.632 190.676 147.469 191.009 147.469 191.509C147.469 192.008 147.469 192.507 147.143 192.84C146.98 193.006 146.491 193.006 146.165 193.006H146.002C145.676 193.006 145.676 193.505 145.513 193.672C145.35 194.171 144.861 194.504 144.372 194.836C144.046 195.003 143.883 195.169 143.557 195.502C143.394 195.668 143.231 196.001 142.905 196.001H142.742V196.168C142.742 196.5 142.742 196.833 142.579 197C142.579 197.166 142.579 197.332 142.579 197.332C142.579 197.665 142.742 197.998 142.742 198.331C142.742 198.664 142.579 198.996 142.579 199.163C142.416 199.828 142.416 200.328 142.416 200.993C142.416 201.16 142.416 201.326 142.416 201.492C142.416 201.659 142.579 201.659 142.742 201.825C142.905 201.992 143.231 202.491 143.231 202.657C143.231 203.156 142.416 202.99 142.253 202.99C142.09 202.99 142.09 202.99 141.927 202.99C141.764 202.824 141.764 202.657 141.764 202.657C141.601 202.324 141.438 202.324 141.601 201.992C141.927 201.326 141.927 200.66 141.764 199.828C141.764 199.662 141.764 199.496 141.601 199.329C141.601 199.163 141.438 199.163 141.275 198.996C140.949 198.497 141.112 197.832 140.949 197.166C140.786 196.833 140.623 196.667 140.623 196.334C140.46 196.168 140.623 195.835 140.46 195.668C140.297 195.502 140.134 195.336 139.971 195.169C139.808 195.169 139.808 195.003 139.645 195.003C139.482 195.003 139.319 195.003 139.156 195.003C138.667 195.003 138.341 195.003 137.852 195.003C137.689 195.003 137.526 195.003 137.526 195.003C137.363 195.003 137.363 195.169 137.363 195.169C137.2 195.336 136.874 195.336 136.711 195.169C136.385 195.003 136.059 194.836 135.733 194.504C135.57 194.836 135.733 195.169 135.896 195.502C135.896 195.835 135.733 196.001 135.733 196.334C135.407 197 135.407 197.832 135.407 198.497C135.407 198.664 135.407 198.664 135.407 198.83L135.57 198.996C136.059 199.329 136.548 199.995 136.385 200.66C136.059 200.66 135.733 200.66 135.407 200.66C135.081 200.66 134.755 200.66 134.755 200.328V200.161C134.755 199.995 134.429 199.995 134.266 199.828C134.103 199.662 133.94 199.496 133.94 199.329C133.94 199.163 133.94 198.83 133.94 198.664C134.103 197.665 133.94 196.667 133.614 195.668C133.288 195.835 132.962 196.168 132.799 196.5C132.636 196.833 132.31 197.166 132.147 197.665L131.984 197.832V197.998C132.147 198.331 132.473 198.664 132.636 198.83C132.799 199.163 132.962 199.496 132.962 199.828C132.473 199.828 132.147 199.995 131.658 199.828H131.495C131.332 200.328 131.332 200.827 131.658 201.326C131.821 201.492 131.984 201.659 131.984 201.825C132.147 201.992 132.147 202.158 132.147 202.491C131.658 202.491 131.169 202.491 130.517 202.491H130.354C130.191 202.324 130.354 201.992 130.191 201.825C130.191 201.825 130.028 201.825 129.865 201.659C129.702 201.492 129.702 201.326 129.865 201.16C130.028 200.66 129.702 199.995 129.865 199.496C129.865 199.329 130.028 199.163 130.028 198.996C130.354 198.164 130.191 197.166 130.028 196.334C130.028 196.168 130.028 196.001 130.028 195.835C130.028 195.668 130.354 195.502 130.354 195.336C130.517 195.003 130.354 194.67 130.354 194.171C130.191 193.339 130.354 192.673 130.354 191.841C128.562 191.675 126.769 192.008 124.976 192.174C122.857 192.34 120.901 192.008 118.945 191.342H118.782C118.619 191.342 118.619 191.342 118.456 191.509C118.13 191.675 117.804 192.008 117.804 192.34C117.804 192.507 117.804 192.673 117.967 192.84C118.13 193.172 118.13 193.339 118.293 193.672C118.293 193.838 118.293 194.004 118.293 194.004C118.293 194.171 118.13 194.171 117.967 194.337C117.804 194.337 117.641 194.171 117.641 194.171C117.315 193.838 117.152 193.505 116.826 193.172C116.826 193.172 116.826 193.006 116.663 193.006C116.663 193.006 116.663 193.006 116.5 193.006C116.174 193.172 115.848 193.339 115.522 193.672C115.522 194.171 115.685 194.67 115.685 195.003V195.169C115.685 195.336 115.359 195.336 115.359 195.336C115.359 195.336 115.196 195.169 115.033 195.003C114.87 194.67 114.707 194.337 114.544 194.004C114.381 194.171 114.381 194.337 114.381 194.504C114.381 195.668 114.544 196.667 114.707 197.832C114.707 198.164 114.87 198.664 115.033 198.996C115.196 199.329 115.522 199.496 115.685 199.828C115.848 200.328 115.848 200.827 116.174 201.16C116.337 201.326 116.5 201.492 116.663 201.492C116.826 201.659 116.989 201.825 116.989 201.992C117.152 202.657 115.359 202.491 115.033 202.491C114.87 202.491 114.87 202.491 114.707 202.491C114.544 202.324 114.544 202.158 114.544 201.992C114.544 201.659 114.218 201.326 113.892 201.326C113.892 201.326 113.729 201.326 113.729 201.16C113.566 200.993 113.566 200.827 113.566 200.66C113.566 200.494 113.566 200.328 113.566 199.995C113.566 199.828 113.566 199.662 113.403 199.496C113.24 198.996 113.077 198.497 112.914 198.164C112.751 198.497 112.425 197.499 112.099 196.667Z" fill="#1D0900"/>
<path fill-rule="evenodd" clip-rule="evenodd" d="M773.531 154.069V147.246H770.434V144.584C770.923 144.417 770.923 143.918 770.923 143.419V139.592C770.923 139.093 770.597 138.593 770.108 138.427C770.108 137.429 770.108 135.099 770.271 134.101C770.434 133.269 771.738 133.435 771.738 133.435L771.901 132.437C771.086 132.437 769.619 132.603 769.456 134.101C769.293 135.099 769.293 137.429 769.293 138.427C768.804 138.593 768.478 139.093 768.478 139.592V143.253C768.478 143.918 768.967 144.417 769.456 144.584V147.08H763.588L762.773 150.408C758.861 150.907 755.601 152.904 753.32 155.899C750.875 155.733 748.593 154.901 746.8 153.736L751.69 148.744L754.135 151.24C754.461 151.573 754.949 151.573 755.275 151.24C755.601 150.907 755.601 150.408 755.275 150.075L749.408 144.085C749.082 143.752 748.593 143.752 748.267 144.085C747.941 144.417 747.941 144.917 748.267 145.249L750.712 147.745L745.659 152.904C745.333 152.571 745.007 152.405 744.844 152.072V143.419C744.844 142.587 744.192 141.921 743.377 141.921C742.562 141.921 741.91 142.587 741.91 143.419V149.909H726.588C725.284 149.909 724.307 150.741 723.818 152.072H722.514V156.731H723.492V159.56C719.091 160.725 715.831 165.051 716.32 169.877C716.646 174.869 720.884 179.029 725.936 179.029C731.315 179.029 735.879 174.702 735.879 169.045C735.879 168.046 735.716 166.881 735.39 166.049H750.223C750.875 174.037 758.046 180.027 766.196 178.862C772.39 178.03 777.28 173.038 778.095 166.715C778.91 161.723 776.954 157.064 773.531 154.069Z" fill="#1D0900"/>
</g>
</g>
<defs>
<linearGradient id="paint0_linear" x1="414.611" y1="76.8519" x2="414.611" y2="-299.923" gradientUnits="userSpaceOnUse">
<stop stop-color="#F8F4C7"/>
<stop offset="1" stop-color="#FCB422"/>
</linearGradient>
<linearGradient id="paint1_linear" x1="498.593" y1="1.47285" x2="498.593" y2="127.326" gradientUnits="userSpaceOnUse">
<stop stop-color="#FBB62B" stop-opacity="0"/>
<stop offset="1" stop-color="#E28C10" stop-opacity="0.5"/>
</linearGradient>
<linearGradient id="paint2_linear" x1="176.568" y1="21.8332" x2="176.568" y2="129.438" gradientUnits="userSpaceOnUse">
<stop stop-color="#EEC61D" stop-opacity="0"/>
<stop offset="1" stop-color="#C99A06" stop-opacity="0.5"/>
</linearGradient>
<linearGradient id="paint3_linear" x1="437.118" y1="142.4" x2="396.917" y2="381.153" gradientUnits="userSpaceOnUse">
<stop stop-color="#97880F" stop-opacity="0"/>
<stop offset="1" stop-color="#395E11" stop-opacity="0.4"/>
</linearGradient>
<linearGradient id="paint4_linear" x1="722.107" y1="94.6625" x2="722.107" y2="137.509" gradientUnits="userSpaceOnUse">
<stop stop-color="#AB473C"/>
<stop offset="0.2563" stop-color="#913E32"/>
<stop offset="0.75" stop-color="#652F20"/>
<stop offset="1" stop-color="#542919"/>
</linearGradient>
<linearGradient id="paint5_linear" x1="402.229" y1="109.936" x2="402.229" y2="-313.107" gradientUnits="userSpaceOnUse">
<stop stop-color="#00181A"/>
<stop offset="0.0418994" stop-color="#001016"/>
<stop offset="1" stop-color="#00293F"/>
</linearGradient>
<linearGradient id="paint6_linear" x1="231.31" y1="103.765" x2="1013.46" y2="103.765" gradientUnits="userSpaceOnUse">
<stop stop-color="#1A3C03" stop-opacity="0"/>
<stop offset="1" stop-color="#002200" stop-opacity="0.5"/>
</linearGradient>
<linearGradient id="paint7_linear" x1="496.486" y1="26.8667" x2="496.486" y2="171.096" gradientUnits="userSpaceOnUse">
<stop stop-color="#3F372B" stop-opacity="0"/>
<stop offset="1" stop-color="#002C00" stop-opacity="0.5"/>
</linearGradient>
<linearGradient id="paint8_linear" x1="-209" y1="100.03" x2="479.131" y2="100.03" gradientUnits="userSpaceOnUse">
<stop stop-color="#00480E" stop-opacity="0"/>
<stop offset="1" stop-color="#001B00" stop-opacity="0.5"/>
</linearGradient>
<linearGradient id="paint9_linear" x1="-209" y1="128.39" x2="479.13" y2="128.39" gradientUnits="userSpaceOnUse">
<stop stop-color="#3FA100" stop-opacity="0"/>
<stop offset="0.9944" stop-color="#005400" stop-opacity="0.5"/>
</linearGradient>
<linearGradient id="paint10_linear" x1="-209" y1="339.824" x2="1013.46" y2="339.824" gradientUnits="userSpaceOnUse">
<stop stop-color="#001D2D" stop-opacity="0"/>
<stop offset="1" stop-color="#001B00" stop-opacity="0.5"/>
</linearGradient>
<linearGradient id="paint11_linear" x1="427.489" y1="183.534" x2="382.334" y2="451.601" gradientUnits="userSpaceOnUse">
<stop stop-color="#97880F" stop-opacity="0"/>
<stop offset="1" stop-color="#253311" stop-opacity="0.4"/>
</linearGradient>
<clipPath id="clip0">
<rect width="718" height="203" rx="30" fill="white"/>
</clipPath>
<clipPath id="clip1">
<rect width="1089.35" height="741.409" fill="white" transform="translate(-129.993 -309.539)"/>
</clipPath>
</defs>
</svg>
