<svg width="374" height="321" viewBox="0 0 374 321" fill="none" xmlns="http://www.w3.org/2000/svg">
<g clip-path="url(#clip0)">
<path d="M1073.82 -379H-306V540.496H1073.82V-379Z" fill="url(#paint0_linear)"/>
<path opacity="0.15" d="M822.137 -379L555.373 203.409H210.051L530.536 -379H822.137Z" fill="#FFF8BB"/>
<path opacity="0.2" d="M632.459 -379L330.003 203.409H277.938L603.575 -379H632.459Z" fill="#FFF8BB"/>
<path opacity="0.15" d="M374.709 -379L77.2207 203.409H-12.9272L329.819 -379H374.709Z" fill="#FFF8BB"/>
<path opacity="0.15" d="M61.2151 -379L-263.318 203.409H-306V19.1416L-45.8587 -379H61.2151Z" fill="#FFF8BB"/>
<path d="M1073.82 32.5653C1022.12 11.7847 892.048 4.98039 763.082 8.47447C503.86 15.6465 173.808 99.3206 -93.3242 166.996H1073.82V32.5653Z" fill="#FBB62B"/>
<path d="M1073.82 32.5662C1059.83 26.8654 1039.96 22.2679 1015.86 18.5899C1131.4 59.0477 991.947 180.237 683.604 157.434C391.083 135.734 342.514 85.1614 372.686 58.1282C313.63 69.7138 254.39 82.5868 195.701 96.1953L191.102 166.629H1073.82V32.5662Z" fill="#EC9C19"/>
<path d="M1073.82 32.5653C1022.12 11.7847 892.048 4.98039 763.082 8.47447C503.86 15.6465 173.808 99.3206 -93.3242 166.996H1073.82V32.5653Z" fill="url(#paint1_linear)"/>
<path d="M470.745 166.629C470.745 166.629 311.79 80.0123 69.8619 36.4282C-172.066 -6.97202 -306 17.3027 -306 17.3027V166.629H470.745Z" fill="#EEC61D"/>
<path d="M116.408 68.4266C330.003 108.884 470.745 166.445 470.745 166.445C470.745 166.445 311.79 79.8284 69.8619 36.2443C-172.066 -7.33981 -306 17.3027 -306 17.3027V45.807C-306 45.807 -133.799 21.1646 116.408 68.4266Z" fill="#FBE367"/>
<path d="M-306 74.3114C-306 74.3114 -101.787 68.0588 -7.40781 85.7131C86.9716 103.367 -44.5709 125.987 -14.0309 134.446C16.509 142.906 470.56 166.629 470.56 166.629H-306V74.3114Z" fill="#DAB20E"/>
<path d="M470.745 166.629C470.745 166.629 311.79 80.0123 69.8619 36.4282C-172.066 -6.97202 -306 17.3027 -306 17.3027V166.629H470.745Z" fill="url(#paint2_linear)"/>
<path d="M1073.82 166.629H-306V540.496H1073.82V166.629Z" fill="#B4A30B"/>
<path d="M1073.82 251.958C690.043 194.214 287.321 185.019 -306 184.099V166.629H1073.82V251.958Z" fill="#D2BE07"/>
<path d="M-306 540.496V295.91C-306 295.91 170.312 237.982 541.023 268.693C911.734 299.404 1073.82 369.653 1073.82 369.653V540.496H-306Z" fill="#97880F"/>
<path d="M577.082 166.629C634.85 180.237 777.615 236.878 812.755 267.222C831.888 283.589 804.476 286.347 728.494 318.346C654.168 349.608 597.319 393.376 549.486 439.535C501.652 485.694 413.896 540.496 215.386 540.496H672.749C672.749 540.496 691.699 516.405 718.191 468.223C746.523 416.548 755.354 393.56 845.134 353.47C934.73 313.38 967.294 305.105 948.529 286.163C924.98 262.624 782.031 191.639 631.539 166.445H577.082V166.629Z" fill="#EDBD05"/>
<path d="M844.95 353.47C874.018 340.597 896.831 330.851 914.125 323.127C876.594 314.667 832.072 305.84 780.191 297.381C766.577 302.714 749.283 309.334 728.126 318.162C653.8 349.424 596.951 393.192 549.118 439.351C501.284 485.51 413.528 540.312 215.018 540.312H672.749C672.749 540.312 691.699 516.221 718.191 468.039C746.523 416.732 755.354 393.56 844.95 353.47Z" fill="#E9AD01"/>
<path d="M1073.82 166.629H-306V540.496H1073.82V166.629Z" fill="url(#paint3_linear)"/>
<path d="M64.3423 309.151L73.7251 406.433L82.9239 409.376L80.5322 309.151H64.3423Z" fill="#66321C"/>
<path d="M68.3898 351.08L67.102 311.173L75.5648 309.151H64.3423L68.3898 351.08Z" fill="#7C461D"/>
<path d="M77.221 407.537L75.5652 309.151H80.5326L82.9242 409.376L77.221 407.537Z" fill="#542919"/>
<path d="M-8.69543 251.222C-8.69543 251.222 -7.95954 246.441 -4.64798 244.418C-1.33642 242.395 4.18286 243.499 4.18286 243.499C4.18286 243.499 2.15912 248.096 -0.968465 249.383C-4.64798 250.487 -8.69543 251.222 -8.69543 251.222Z" fill="#4D522A"/>
<path d="M-5.56824 251.222C-5.56824 251.222 -2.44066 248.28 0.318969 248.464C3.0786 248.648 4.91835 250.303 4.91835 250.303C4.91835 250.303 3.07859 251.958 0.686914 251.958C-1.88874 251.958 -5.56824 251.222 -5.56824 251.222Z" fill="#4D522A"/>
<path d="M-5.56775 251.222C-5.56775 251.222 -2.9921 245.889 1.42328 246.625C1.42328 246.625 2.52712 251.406 -5.56775 251.222Z" fill="#5C5C02"/>
<path d="M348.217 280.095C347.849 277.704 353.552 273.474 354.472 274.394C355.392 275.129 353.736 276.784 351.896 278.256C350.241 279.911 348.217 280.095 348.217 280.095Z" fill="#4D522A"/>
<path d="M351.344 280.095C351.344 280.095 352.08 274.762 356.864 273.29C361.647 271.819 364.407 273.29 364.407 273.29C364.407 273.29 362.567 276.968 359.255 278.256C355.944 279.727 351.344 280.095 351.344 280.095Z" fill="#4D522A"/>
<path d="M363.119 279.175C362.567 277.888 357.6 276.968 354.472 279.911C354.472 279.911 357.6 281.014 359.623 280.83C361.647 280.83 363.855 281.014 363.119 279.175Z" fill="#4D522A"/>
<path d="M356.68 265.383C358.703 268.693 359.071 272.739 356.68 276.049C354.656 278.623 351.344 280.095 351.344 280.095C351.344 280.095 349.689 276.784 350.976 272.739C352.264 268.693 356.68 265.383 356.68 265.383Z" fill="#5C5C02"/>
<path d="M348.953 278.439C348.953 278.439 349.321 273.474 347.481 271.267C345.457 268.877 343.065 268.509 343.065 268.509C343.065 268.509 343.065 272.187 343.801 273.842C344.905 276.6 348.953 278.439 348.953 278.439Z" fill="#5C5C02"/>
<path d="M354.472 279.911C355.208 278.439 358.703 275.865 360.359 276.233C362.015 276.6 361.095 278.072 359.255 278.991C358.152 279.727 354.472 279.911 354.472 279.911Z" fill="#5C5C02"/>
<path d="M348.217 280.095C348.217 280.095 345.825 276.233 340.858 275.497C340.858 275.497 340.306 277.152 342.882 278.807C345.457 280.646 348.217 280.095 348.217 280.095Z" fill="#5C5C02"/>
<path d="M453.635 166.629C456.026 164.054 457.13 160.376 457.498 156.514C458.234 147.503 457.682 138.308 456.21 129.481C454.922 121.573 450.691 115.137 441.676 116.057C437.077 116.424 432.845 118.999 429.534 122.125C426.59 124.884 426.406 128.562 426.958 132.24C424.383 129.849 419.231 131.688 418.863 135.366C417.392 133.711 415.736 132.056 413.712 131.136C411.688 130.217 409.113 130.217 407.273 131.688C405.433 133.159 404.881 135.918 406.537 137.573C404.513 137.021 402.306 137.389 400.65 138.676C398.994 139.963 398.626 142.538 399.73 144.193C398.074 142.354 395.131 141.986 393.107 143.457C391.083 144.929 390.347 147.871 391.635 150.078C390.163 147.503 386.3 148.791 385.196 151.181C383.172 147.687 378.757 146.032 374.709 145.664C372.502 145.48 370.11 145.48 368.086 146.584C364.039 148.607 362.751 153.756 362.015 158.353C361.095 157.25 359.991 155.963 358.703 155.411C355.392 153.756 352.08 156.146 350.424 158.905C347.113 155.043 342.697 152.101 337.73 151.549C332.763 151.181 327.244 154.124 326.14 159.089C324.116 158.169 322.092 157.25 319.885 157.434C317.677 157.434 315.469 158.721 314.917 160.744C312.526 159.457 309.214 159.457 306.822 160.744C304.431 162.031 302.775 164.422 302.407 167.18H453.635V166.629Z" fill="#83831C"/>
</g>
<defs>
<linearGradient id="paint0_linear" x1="383.908" y1="99.4651" x2="383.908" y2="-368.067" gradientUnits="userSpaceOnUse">
<stop stop-color="#F8F4C7"/>
<stop offset="1" stop-color="#FCB422"/>
</linearGradient>
<linearGradient id="paint1_linear" x1="490.298" y1="5.92747" x2="490.298" y2="162.096" gradientUnits="userSpaceOnUse">
<stop stop-color="#FBB62B" stop-opacity="0"/>
<stop offset="1" stop-color="#E28C10" stop-opacity="0.5"/>
</linearGradient>
<linearGradient id="paint2_linear" x1="82.354" y1="31.1935" x2="82.354" y2="164.719" gradientUnits="userSpaceOnUse">
<stop stop-color="#EEC61D" stop-opacity="0"/>
<stop offset="1" stop-color="#C99A06" stop-opacity="0.5"/>
</linearGradient>
<linearGradient id="paint3_linear" x1="412.42" y1="180.802" x2="363.501" y2="477.398" gradientUnits="userSpaceOnUse">
<stop stop-color="#97880F" stop-opacity="0"/>
<stop offset="1" stop-color="#395E11" stop-opacity="0.4"/>
</linearGradient>
<clipPath id="clip0">
<rect width="374" height="321" rx="30" fill="white"/>
</clipPath>
</defs>
</svg>
