<svg width="309" height="294" viewBox="0 0 309 294" fill="none" xmlns="http://www.w3.org/2000/svg">
<g clip-path="url(#clip0)">
<path d="M181.162 121.384L184.369 128.003L171.291 134.325C169.947 134.979 168.314 134.387 167.662 133.045L166.843 131.308C166.192 129.966 166.787 128.334 168.131 127.68L181.162 121.384Z" fill="#AC752C"/>
<path d="M181.163 121.384L182.766 124.693L167.184 132.217L166.751 131.362C166.1 130.019 166.695 128.387 168.039 127.733L181.163 121.384Z" fill="#7D551F"/>
<path d="M183.879 112.88C189.928 109.511 196.548 106.916 203.68 105.315C243.787 96.2756 283.526 121.327 292.478 161.331C294.068 168.453 294.609 175.567 294.158 182.456C294.094 182.984 293.417 187.671 291.041 191.437C289.865 193.343 288.267 194.941 286.19 195.711L286.143 195.737C285.886 195.824 285.675 195.885 285.437 195.899C285.2 195.914 284.962 195.928 284.698 195.897C282.783 195.775 280.895 194.103 279.13 191.685C275.242 186.442 271.982 177.706 270.2 174.193L270.173 174.147C269.787 173.266 269.355 172.41 268.922 171.555C268.896 171.509 268.869 171.463 268.843 171.417C268.357 170.47 267.898 169.569 267.367 168.648C267.207 168.372 267.048 168.096 266.889 167.819C266.756 167.589 266.623 167.359 266.463 167.083C266.33 166.853 266.198 166.623 266.065 166.392C265.879 166.07 265.693 165.748 265.507 165.426C265.161 164.827 264.743 164.21 264.351 163.638C264.139 163.27 263.907 162.974 263.648 162.632C262.997 161.719 262.347 160.806 261.677 159.965C261.445 159.669 261.239 159.42 261.034 159.17C260.802 158.874 260.596 158.625 260.391 158.375C259.747 157.581 259.031 156.767 258.342 155.998C258.315 155.952 258.262 155.86 258.189 155.841L258.01 155.637C256.989 154.508 255.922 153.406 254.882 152.349C253.868 151.339 252.808 150.355 251.729 149.444C251.603 149.333 251.45 149.175 251.325 149.064L251.172 148.906C250.444 148.284 249.742 147.707 248.967 147.111C248.868 147.045 248.841 146.999 248.742 146.934C248.642 146.868 248.543 146.803 248.444 146.737C246.318 145.08 244.055 143.502 241.752 142.07C241.328 141.762 240.885 141.527 240.415 141.246C239.972 141.011 239.575 140.749 239.131 140.514C239.059 140.495 238.959 140.429 238.933 140.383C238.688 140.279 238.463 140.102 238.218 139.998C237.504 139.613 236.789 139.227 236.029 138.868C235.658 138.653 235.268 138.51 234.898 138.294C234.309 138.02 233.72 137.746 233.132 137.472C232.887 137.368 232.669 137.31 232.47 137.179C231.71 136.82 230.857 136.515 230.05 136.183C226.46 134.757 222.718 133.603 218.899 132.74C218.826 132.72 218.753 132.701 218.681 132.681C217.207 132.366 215.76 132.097 214.267 131.854C213.593 131.752 212.919 131.65 212.199 131.575C211.671 131.512 211.07 131.429 210.541 131.366C210.423 131.373 210.35 131.354 210.231 131.361C209.009 131.268 207.833 131.149 206.565 131.084C199.961 130.723 193.149 131.28 186.347 132.814C185.641 132.976 184.889 133.165 184.183 133.327C184.183 133.327 183.945 133.341 183.589 133.363C183.47 133.37 183.351 133.377 183.233 133.385C183.16 133.365 183.114 133.392 183.041 133.372C182.968 133.353 182.922 133.38 182.849 133.36C181.509 133.275 179.415 132.95 177.587 131.489C176.263 130.473 175.068 128.831 174.373 126.347C173.73 123.957 174.482 121.743 175.868 119.776C177.904 116.698 181.599 114.258 183.879 112.88Z" fill="#FFB300"/>
<path d="M174.28 126.401C174.326 126.374 174.373 126.348 174.373 126.348C180.065 122.999 186.349 120.354 193.064 118.564C193.954 118.295 194.825 118.099 195.742 117.876C235.802 108.864 275.542 133.915 284.54 173.893C285.868 179.816 286.457 185.736 286.326 191.581C286.33 192.438 286.286 193.322 286.217 194.16C286.225 194.708 286.161 195.236 286.124 195.81C285.866 195.897 285.655 195.958 285.418 195.972C285.18 195.986 284.942 196.001 284.678 195.969C282.763 195.848 280.875 194.176 279.11 191.758C275.222 186.515 271.962 177.779 270.18 174.266L270.153 174.22C269.767 173.338 269.335 172.483 268.903 171.628C268.876 171.582 268.85 171.536 268.823 171.49C268.338 170.543 267.879 169.641 267.347 168.721C267.294 168.629 267.241 168.537 267.214 168.491C267.108 168.306 267.002 168.122 266.895 167.938C266.763 167.708 266.63 167.478 266.47 167.202C266.337 166.971 266.204 166.741 266.072 166.511C265.886 166.189 265.7 165.867 265.513 165.544C265.095 164.927 264.75 164.328 264.358 163.757C264.146 163.388 263.913 163.093 263.655 162.751C263.263 162.179 262.871 161.607 262.434 161.062C262.175 160.721 261.943 160.425 261.684 160.084C261.452 159.788 261.246 159.538 261.041 159.289C260.809 158.993 260.603 158.744 260.397 158.494C259.754 157.699 259.038 156.885 258.349 156.117C258.322 156.071 258.269 155.979 258.196 155.96L258.017 155.756C257.838 155.553 257.659 155.349 257.48 155.146C256.638 154.22 255.75 153.321 254.889 152.468C254.001 151.569 253.093 150.743 252.186 149.917C252.06 149.805 251.908 149.648 251.782 149.536C251.656 149.425 251.503 149.267 251.378 149.156L251.225 148.998C250.775 148.645 250.298 148.245 249.848 147.891C249.596 147.668 249.272 147.426 249.02 147.203C248.921 147.137 248.894 147.091 248.795 147.026C248.695 146.96 248.596 146.895 248.497 146.83C248.073 146.522 247.696 146.187 247.272 145.88C246.948 145.637 246.65 145.441 246.325 145.199C246.2 145.087 246.028 145.002 245.902 144.891C245.478 144.583 245.008 144.302 244.558 143.948C244.161 143.687 243.737 143.379 243.294 143.144C242.798 142.816 242.301 142.489 241.759 142.189C241.289 141.908 240.892 141.646 240.422 141.365C239.979 141.13 239.582 140.868 239.138 140.633C239.066 140.613 238.966 140.548 238.94 140.502C238.695 140.398 238.47 140.221 238.225 140.117C237.511 139.731 236.796 139.346 236.036 138.987C235.665 138.771 235.275 138.628 234.905 138.413C234.316 138.139 233.727 137.865 233.139 137.591C232.894 137.487 232.676 137.429 232.477 137.298C232.233 137.193 232.015 137.135 231.816 137.004C231.254 136.777 230.665 136.503 230.103 136.275C229.614 136.066 229.151 135.904 228.616 135.722C228.054 135.494 227.491 135.266 226.91 135.111C226.619 135.033 226.302 134.91 226.011 134.832C225.793 134.774 225.548 134.67 225.33 134.612C224.795 134.43 224.286 134.294 223.75 134.112C223.215 133.93 222.66 133.821 222.124 133.639C221.688 133.523 221.252 133.406 220.816 133.29C220.188 133.161 219.58 132.96 218.952 132.832C218.879 132.812 218.806 132.793 218.734 132.773C218.152 132.618 217.551 132.536 216.923 132.407C216.514 132.337 216.15 132.24 215.767 132.215C215.285 132.126 214.802 132.036 214.274 131.973C213.818 131.929 213.409 131.858 212.999 131.788C212.735 131.757 212.471 131.725 212.206 131.693C211.678 131.63 211.077 131.548 210.548 131.485C210.429 131.492 210.357 131.472 210.238 131.48C209.782 131.436 209.326 131.392 208.871 131.348C208.488 131.324 208.104 131.3 207.721 131.275C207.338 131.251 206.955 131.227 206.572 131.202C205.998 131.166 205.496 131.149 204.948 131.158C204.637 131.153 204.373 131.122 204.089 131.163C203.396 131.133 202.657 131.131 201.944 131.174C201.468 131.203 200.966 131.186 200.537 131.188C199.824 131.232 199.157 131.248 198.444 131.292C197.969 131.321 197.494 131.35 197.019 131.379C196.306 131.422 195.619 131.511 194.86 131.581C194.385 131.61 193.936 131.685 193.487 131.76C192.682 131.857 191.904 131.999 191.098 132.096C190.815 132.137 190.485 132.205 190.201 132.246C190.082 132.253 189.963 132.26 189.825 132.34C188.716 132.551 187.562 132.788 186.407 133.025C185.701 133.187 184.949 133.375 184.243 133.537C184.243 133.537 184.006 133.552 183.649 133.574C183.53 133.581 183.411 133.588 183.293 133.595C183.22 133.576 183.174 133.603 183.101 133.583C183.028 133.564 182.982 133.59 182.91 133.571C181.569 133.486 179.475 133.161 177.647 131.699C176.17 130.526 174.976 128.884 174.28 126.401Z" fill="#FFD54F"/>
<path d="M279.11 191.758C283.158 193.656 287.173 193.792 291.067 191.483C289.892 193.389 288.293 194.987 286.216 195.757L286.17 195.783C285.913 195.87 285.702 195.931 285.464 195.945C285.226 195.96 284.989 195.974 284.724 195.943C282.763 195.848 280.875 194.176 279.11 191.758Z" fill="#7D551F"/>
<path d="M279.11 191.758C281.538 192.873 283.93 193.394 286.299 193.131C286.32 193.487 286.269 193.824 286.217 194.16C286.226 194.708 286.162 195.236 286.097 195.764C285.84 195.851 285.629 195.911 285.345 195.953C285.108 195.967 284.87 195.981 284.606 195.95C282.763 195.848 280.875 194.176 279.11 191.758Z" fill="#AC752C"/>
</g>
<g clip-path="url(#clip1)">
<path d="M251.361 282.749L253.759 279.214L260.738 283.956C261.457 284.443 261.634 285.436 261.148 286.154L260.512 287.07C260.026 287.788 259.032 287.963 258.313 287.476L251.361 282.749Z" fill="#AC752C"/>
<path d="M251.361 282.75L252.56 280.982L260.871 286.635L260.566 287.101C260.08 287.819 259.086 287.994 258.367 287.507L251.361 282.75Z" fill="#7D551F"/>
<path d="M246.294 283.853C242.842 281.788 239.614 279.212 236.737 276.089C220.542 258.539 221.602 231.272 239.126 215.15C242.247 212.281 245.669 209.943 249.266 208.169C249.55 208.048 252.104 207.027 254.689 207.129C255.989 207.167 257.257 207.507 258.248 208.328L258.274 208.344C258.393 208.448 258.485 208.536 258.561 208.652C258.637 208.767 258.713 208.882 258.774 209.024C259.269 210.023 258.977 211.458 258.273 213.049C256.765 216.527 253.317 220.704 252.067 222.621L252.052 222.648C251.72 223.098 251.416 223.564 251.111 224.03C251.096 224.057 251.08 224.083 251.065 224.11C250.729 224.629 250.409 225.122 250.1 225.657C250.008 225.817 249.915 225.978 249.823 226.138C249.745 226.272 249.668 226.405 249.576 226.566C249.498 226.7 249.421 226.833 249.344 226.967C249.236 227.154 249.128 227.341 249.02 227.528C248.819 227.876 248.63 228.266 248.456 228.629C248.332 228.843 248.251 229.046 248.154 229.275C247.884 229.867 247.613 230.46 247.385 231.041C247.304 231.244 247.238 231.419 247.172 231.595C247.091 231.798 247.025 231.974 246.959 232.15C246.746 232.704 246.544 233.301 246.358 233.871C246.343 233.898 246.312 233.951 246.323 233.993L246.273 234.142C246.001 234.984 245.757 235.841 245.527 236.671C245.314 237.475 245.127 238.294 244.982 239.101C244.962 239.197 244.927 239.319 244.908 239.415L244.873 239.537C244.771 240.085 244.685 240.605 244.61 241.168C244.606 241.237 244.591 241.264 244.586 241.333C244.582 241.402 244.578 241.471 244.574 241.54C244.358 243.09 244.222 244.687 244.17 246.262C244.138 246.564 244.149 246.856 244.144 247.174C244.154 247.465 244.138 247.741 244.148 248.032C244.16 248.074 244.156 248.143 244.14 248.17C244.159 248.323 244.135 248.488 244.154 248.641C244.167 249.112 244.181 249.584 244.222 250.071C244.221 250.32 244.262 250.557 244.261 250.806C244.294 251.182 244.327 251.558 244.361 251.933C244.379 252.087 244.413 252.213 244.405 252.351C244.446 252.838 244.54 253.356 244.607 253.858C244.933 256.078 245.439 258.296 246.114 260.468C246.125 260.51 246.136 260.552 246.148 260.595C246.417 261.427 246.702 262.234 247.013 263.055C247.158 263.424 247.302 263.792 247.473 264.176C247.595 264.461 247.728 264.787 247.85 265.071C247.888 265.129 247.899 265.171 247.937 265.229C248.246 265.87 248.527 266.496 248.863 267.153C250.599 270.58 252.858 273.845 255.605 276.822C255.892 277.13 256.205 277.453 256.492 277.761C256.492 277.761 256.568 277.877 256.682 278.05C256.721 278.107 256.759 278.165 256.797 278.223C256.808 278.265 256.835 278.28 256.846 278.323C256.858 278.365 256.884 278.38 256.896 278.422C257.242 279.122 257.687 280.27 257.483 281.613C257.357 282.574 256.877 283.652 255.83 284.723C254.814 285.741 253.482 286.006 252.09 285.88C249.95 285.75 247.65 284.599 246.294 283.853Z" fill="#FFB300"/>
<path d="M255.883 284.754C255.857 284.739 255.83 284.723 255.83 284.723C252.492 282.832 249.336 280.44 246.485 277.582C246.092 277.212 245.74 276.83 245.362 276.434C229.193 258.899 230.253 231.632 247.751 215.495C250.345 213.106 253.152 211.09 256.13 209.459C256.56 209.208 257.018 208.973 257.46 208.764C257.732 208.601 258.017 208.48 258.316 208.332C258.435 208.436 258.527 208.525 258.603 208.64C258.679 208.756 258.756 208.871 258.816 209.013C259.311 210.012 259.019 211.447 258.315 213.037C256.807 216.516 253.359 220.693 252.109 222.61L252.094 222.637C251.762 223.087 251.458 223.553 251.153 224.019C251.138 224.045 251.122 224.072 251.107 224.099C250.771 224.618 250.451 225.111 250.142 225.646C250.112 225.699 250.081 225.752 250.065 225.779C250.004 225.886 249.942 225.993 249.88 226.1C249.803 226.234 249.726 226.367 249.633 226.528C249.556 226.662 249.479 226.795 249.401 226.929C249.293 227.116 249.185 227.303 249.077 227.49C248.888 227.88 248.687 228.228 248.513 228.591C248.39 228.805 248.309 229.007 248.212 229.237C248.038 229.6 247.864 229.963 247.717 230.342C247.62 230.571 247.539 230.774 247.442 231.003C247.361 231.206 247.295 231.381 247.229 231.557C247.148 231.76 247.082 231.936 247.016 232.112C246.804 232.666 246.602 233.263 246.416 233.833C246.4 233.86 246.369 233.913 246.381 233.955L246.33 234.104C246.28 234.254 246.23 234.403 246.179 234.552C245.958 235.244 245.764 235.952 245.585 236.633C245.391 237.341 245.239 238.037 245.087 238.734C245.067 238.83 245.032 238.952 245.013 239.048C244.993 239.143 244.958 239.266 244.939 239.361L244.904 239.484C244.856 239.813 244.794 240.169 244.747 240.498C244.707 240.69 244.68 240.923 244.641 241.115C244.637 241.184 244.621 241.21 244.617 241.279C244.613 241.348 244.609 241.417 244.605 241.486C244.573 241.789 244.515 242.076 244.483 242.378C244.455 242.612 244.443 242.819 244.415 243.052C244.396 243.148 244.403 243.259 244.383 243.355C244.352 243.657 244.347 243.975 244.299 244.305C244.283 244.58 244.251 244.883 244.262 245.174C244.241 245.519 244.221 245.864 244.227 246.224C244.222 246.542 244.206 246.818 244.201 247.136C244.212 247.427 244.195 247.703 244.206 247.994C244.217 248.036 244.213 248.105 244.198 248.132C244.216 248.285 244.193 248.45 244.211 248.603C244.225 249.074 244.239 249.546 244.279 250.033C244.278 250.282 244.319 250.519 244.319 250.768C244.352 251.144 244.385 251.52 244.418 251.895C244.437 252.049 244.471 252.175 244.463 252.313C244.481 252.467 244.515 252.593 244.507 252.731C244.556 253.08 244.589 253.456 244.638 253.805C244.675 254.111 244.727 254.391 244.792 254.714C244.84 255.063 244.889 255.411 244.98 255.749C245.025 255.918 245.055 256.114 245.1 256.282C245.134 256.409 245.153 256.562 245.187 256.689C245.251 257.011 245.331 257.307 245.395 257.629C245.459 257.951 245.565 258.262 245.629 258.584C245.697 258.837 245.765 259.091 245.834 259.344C245.951 259.697 246.027 260.061 246.144 260.414C246.156 260.457 246.167 260.499 246.178 260.541C246.269 260.879 246.402 261.205 246.52 261.558C246.603 261.785 246.66 261.996 246.759 262.196C246.854 262.464 246.949 262.733 247.071 263.017C247.181 263.259 247.265 263.486 247.348 263.712C247.409 263.854 247.47 263.996 247.531 264.138C247.653 264.423 247.786 264.749 247.907 265.033C247.945 265.091 247.957 265.133 247.995 265.191C248.105 265.433 248.216 265.675 248.326 265.917C248.425 266.116 248.524 266.316 248.623 266.516C248.722 266.716 248.821 266.915 248.92 267.115C249.069 267.415 249.206 267.672 249.37 267.945C249.457 268.103 249.518 268.245 249.621 268.376C249.808 268.733 250.021 269.106 250.25 269.452C250.403 269.683 250.54 269.94 250.666 270.155C250.895 270.501 251.097 270.832 251.326 271.178C251.478 271.409 251.631 271.639 251.783 271.87C252.012 272.216 252.257 272.535 252.512 272.897C252.665 273.128 252.833 273.332 253.001 273.536C253.283 273.913 253.581 274.263 253.864 274.64C253.967 274.771 254.097 274.917 254.2 275.048C254.238 275.105 254.276 275.163 254.357 275.21C254.784 275.706 255.239 276.218 255.694 276.73C255.98 277.038 256.293 277.362 256.58 277.67C256.58 277.67 256.656 277.785 256.771 277.958C256.809 278.016 256.847 278.073 256.885 278.131C256.897 278.173 256.923 278.189 256.935 278.231C256.946 278.273 256.973 278.289 256.984 278.331C257.331 279.03 257.775 280.178 257.571 281.522C257.41 282.605 256.931 283.683 255.883 284.754Z" fill="#FFD54F"/>
<path d="M258.315 213.037C258.094 210.45 256.997 208.39 254.704 207.102C256.004 207.14 257.272 207.48 258.263 208.301L258.29 208.317C258.408 208.421 258.5 208.51 258.576 208.625C258.652 208.74 258.729 208.856 258.79 208.998C259.311 210.012 259.019 211.447 258.315 213.037Z" fill="#7D551F"/>
<path d="M258.315 213.037C258.171 211.493 257.739 210.138 256.918 209.022C257.091 208.908 257.275 208.836 257.46 208.765C257.733 208.601 258.017 208.48 258.301 208.359C258.42 208.463 258.511 208.552 258.615 208.683C258.691 208.798 258.767 208.913 258.828 209.055C259.312 210.012 259.019 211.447 258.315 213.037Z" fill="#AC752C"/>
</g>
<g clip-path="url(#clip2)">
<path d="M188.747 164.627C174.948 164.513 160.991 165.406 147.116 164.934C140.294 164.711 129.913 164.651 126.066 158.401C114.013 138.824 161.351 122.173 172.241 120.589C189.406 118.073 208.018 120.562 224.461 128.307C234.287 132.94 247.576 140.986 249.655 152.443C253.01 171.075 197.175 164.656 188.747 164.627Z" fill="#92D166"/>
<path d="M183.491 145.503C169.546 146.282 155.484 148.956 141.89 153.29C136.987 154.864 126.094 158.358 126.094 158.358C125.402 157.046 166.012 140.788 181.285 139.575C196.932 138.358 213.233 139.844 228.795 143.997C235.423 145.759 249.64 152.371 249.64 152.371C249.474 152.819 236.113 150.028 229.881 148.893C214.48 146.015 198.797 144.621 183.491 145.503Z" fill="#65B22E"/>
<path d="M143.069 101.647C146.084 112.23 150.238 162.207 127.485 159.257C120.136 158.324 116.004 148.99 112.904 142.73C106.763 130.309 101.818 117.182 96.1339 104.625C92.6123 96.9202 63.7627 48.9011 82.3751 44.0539C93.5921 41.2024 106.579 50.286 114.684 57.1963C128.484 69.0254 138.334 84.9569 143.069 101.647Z" fill="#92D166"/>
<path d="M122.016 101.215C127.418 116.303 127.485 159.257 127.485 159.257C127.069 159.234 126.226 147.961 125.639 142.772C124.068 128.623 120.706 114.671 115.705 101.631C110.241 87.3056 102.546 73.5702 93.613 60.6986C90.0246 55.4784 82.347 44.0973 82.347 44.0973C82.7585 43.7472 94.2604 54.459 98.5236 59.6843C108.686 72.1802 116.719 86.4422 122.016 101.215Z" fill="#65B22E"/>
<path d="M134.608 146.728C143.848 152.707 164.369 137.42 180.445 112.581C196.521 87.7431 202.062 62.7602 192.823 56.7804C183.584 50.8006 163.062 66.0884 146.986 90.9266C130.911 115.765 125.369 140.748 134.608 146.728Z" fill="#65B22E"/>
<path d="M134.608 146.728C135.856 147.535 149.9 128.055 165.975 103.216C182.051 78.3782 194.071 57.5881 192.823 56.7804C191.575 55.9727 177.532 75.4534 161.456 100.292C145.381 125.13 133.361 145.92 134.608 146.728Z" fill="#93C01F"/>
<path d="M140.458 137.689C132.462 132.515 121.966 133.49 115.107 140.087L99.9576 155.683C95.7803 159.947 96.6077 166.956 101.561 170.162L126.764 186.473C131.761 189.708 138.451 187.564 140.629 182.007L148.653 161.798C151.862 152.839 148.453 142.864 140.458 137.689Z" fill="#AC752C"/>
<path d="M134.562 149.657L131.955 147.97C124.568 143.189 114.969 143.635 108.051 149.084L99.9832 156.502C95.8852 160.261 96.4341 166.844 101.127 169.881L127.242 186.783C131.892 189.792 138.165 187.625 139.916 182.347L143.379 171.948C145.43 163.35 141.905 154.41 134.562 149.657Z" fill="#7D551F"/>
<path d="M133.561 165.779L117.657 155.486C113.181 152.589 107.412 152.74 103.061 155.842L100.43 157.716C96.307 160.658 96.4776 166.872 100.736 169.628L127.546 186.98C131.805 189.736 137.5 187.318 138.539 182.38L139.17 179.213C140.262 174.001 137.993 168.648 133.561 165.779Z" fill="#634419"/>
</g>
<g clip-path="url(#clip3)">
<path d="M225.267 102.717L203.299 101.101L205.085 76.686C205.263 74.1726 209.014 72.3774 213.568 72.7364L219.284 73.1852C223.749 73.5443 227.231 75.8781 227.053 78.3914L225.267 102.717Z" fill="#AC752C"/>
<path d="M225.267 102.717L214.283 101.909L216.426 72.8262L219.284 73.0057C223.749 73.3647 227.232 75.6986 227.053 78.2119L225.267 102.717Z" fill="#7D551F"/>
<path d="M231.073 114.656C230.894 126.325 229.108 138.174 225.447 149.933C204.907 215.998 135.074 252.89 69.3479 232.334C57.6494 228.654 46.844 223.448 37.1994 216.985C36.485 216.447 30.2339 211.51 26.7511 204.867C24.9651 201.546 23.9828 197.866 24.6079 194.186V194.096C24.6972 193.647 24.7865 193.288 24.9651 192.929C25.1437 192.57 25.3223 192.211 25.5902 191.852C27.3762 189.159 31.3948 187.812 36.3957 187.274C47.2905 186.017 62.7396 188.62 69.3479 188.979H69.4372C71.0446 189.159 72.6521 189.249 74.2595 189.338C74.3488 189.338 74.4381 189.338 74.5274 189.338C76.3134 189.428 78.0101 189.518 79.7962 189.518C80.332 189.518 80.8678 189.518 81.4036 189.518C81.8501 189.518 82.2966 189.518 82.8324 189.518C83.2789 189.518 83.7254 189.518 84.1719 189.518C84.797 189.518 85.4222 189.518 86.0473 189.518C87.2082 189.518 88.4584 189.428 89.6193 189.338C90.3337 189.338 90.9588 189.249 91.6733 189.159C93.5486 188.979 95.4239 188.8 97.2099 188.531C97.8351 188.441 98.3709 188.351 98.9067 188.261C99.5318 188.171 100.068 188.082 100.603 187.992C102.3 187.723 104.086 187.364 105.783 187.005C105.872 187.005 106.051 187.005 106.14 186.915L106.497 186.646C108.998 186.107 111.498 185.479 113.909 184.85C116.231 184.222 118.553 183.504 120.786 182.696C121.053 182.606 121.411 182.516 121.679 182.427L122.036 182.337C123.554 181.798 124.983 181.26 126.501 180.631C126.679 180.542 126.769 180.542 126.947 180.452C127.126 180.362 127.305 180.272 127.483 180.183C131.68 178.477 135.877 176.502 139.896 174.348C140.7 173.989 141.414 173.54 142.218 173.091C142.932 172.643 143.647 172.284 144.361 171.835C144.45 171.745 144.629 171.655 144.718 171.655C145.076 171.386 145.522 171.206 145.879 170.937C147.04 170.219 148.201 169.501 149.362 168.693C149.987 168.334 150.523 167.885 151.148 167.526C152.041 166.898 152.934 166.27 153.827 165.641C154.184 165.372 154.452 165.103 154.809 164.923C155.97 164.115 157.131 163.128 158.292 162.23C163.382 158.191 168.205 153.703 172.67 148.856C172.759 148.766 172.848 148.676 172.938 148.586C174.634 146.701 176.242 144.816 177.849 142.842C178.564 141.944 179.278 141.046 179.992 140.059C180.528 139.341 181.153 138.533 181.689 137.815C181.778 137.635 181.868 137.546 181.957 137.366C183.118 135.661 184.279 134.045 185.44 132.25C191.512 122.914 196.424 112.502 199.907 101.282C200.264 100.115 200.621 98.8582 200.978 97.6913C200.978 97.6913 201.157 97.3322 201.425 96.7937C201.514 96.6141 201.603 96.4346 201.693 96.2551C201.782 96.1653 201.782 96.0756 201.871 95.9858C201.96 95.896 201.96 95.8063 202.05 95.7165C203.3 93.8315 205.533 91.0489 209.194 89.6127C211.784 88.5356 215.177 88.1765 219.374 89.2536C223.393 90.3308 225.983 93.2929 227.679 96.9732C230.537 102.628 230.983 110.078 231.073 114.656Z" fill="#FFB300"/>
<path d="M219.462 89.1629C219.462 89.2526 219.462 89.3424 219.462 89.3424C219.551 100.473 218.122 111.873 215.086 123.183C214.729 124.709 214.282 126.145 213.836 127.671C193.297 193.736 123.463 230.628 57.737 210.072C48.0031 207.02 38.8944 202.891 30.5 197.775C29.2498 197.057 27.9996 196.249 26.8387 195.441C26.035 194.992 25.3206 194.454 24.5168 193.915C24.6061 193.466 24.6954 193.107 24.8741 192.748C25.0527 192.389 25.2313 192.03 25.4992 191.671C27.2852 188.978 31.3038 187.632 36.3046 187.093C47.1994 185.837 62.6485 188.44 69.2569 188.799H69.3462C70.9536 188.978 72.561 189.068 74.1684 189.158C74.2577 189.158 74.347 189.158 74.4363 189.158C76.2224 189.248 77.9191 189.337 79.7051 189.337C79.8837 189.337 80.0623 189.337 80.1516 189.337C80.5088 189.337 80.866 189.337 81.2232 189.337C81.6697 189.337 82.1163 189.337 82.6521 189.337C83.0986 189.337 83.5451 189.337 83.9916 189.337C84.6167 189.337 85.2418 189.337 85.8669 189.337C87.1171 189.248 88.2781 189.248 89.439 189.158C90.1534 189.158 90.7785 189.068 91.4929 188.978C92.6538 188.889 93.8147 188.799 94.9757 188.619C95.6901 188.529 96.3152 188.44 97.0296 188.35C97.6547 188.26 98.1905 188.17 98.7263 188.081C99.3514 187.991 99.8872 187.901 100.423 187.811C102.12 187.542 103.906 187.183 105.603 186.824C105.692 186.824 105.87 186.824 105.96 186.734L106.496 186.644C106.942 186.555 107.389 186.465 107.835 186.375C109.889 185.926 111.943 185.388 113.908 184.849C115.961 184.311 117.926 183.682 119.891 183.054C120.159 182.964 120.516 182.874 120.784 182.785C121.052 182.695 121.409 182.605 121.677 182.515L122.034 182.426C122.927 182.067 123.909 181.708 124.802 181.349C125.338 181.169 125.963 180.9 126.499 180.72C126.678 180.63 126.767 180.63 126.946 180.541C127.124 180.451 127.303 180.361 127.481 180.271C128.285 179.912 129.089 179.643 129.893 179.284C130.518 179.015 131.053 178.745 131.679 178.476C131.946 178.386 132.214 178.207 132.482 178.117C133.286 177.758 134.09 177.309 134.983 176.95C135.697 176.591 136.501 176.232 137.215 175.783C138.108 175.334 139.001 174.886 139.894 174.347C140.698 173.898 141.412 173.539 142.216 173.09C142.931 172.642 143.645 172.283 144.359 171.834C144.449 171.744 144.627 171.654 144.717 171.654C145.074 171.385 145.52 171.205 145.877 170.936C147.038 170.218 148.199 169.5 149.36 168.692C149.985 168.333 150.521 167.884 151.146 167.525C152.039 166.897 152.932 166.268 153.825 165.64C154.182 165.371 154.45 165.102 154.808 164.922C155.165 164.653 155.433 164.383 155.79 164.204C156.594 163.576 157.487 162.947 158.29 162.319C159.005 161.78 159.63 161.242 160.344 160.613C161.148 159.985 161.952 159.357 162.666 158.639C163.023 158.28 163.47 157.921 163.827 157.562C164.095 157.292 164.452 157.023 164.72 156.754C165.434 156.125 166.06 155.497 166.774 154.869C167.488 154.24 168.114 153.522 168.828 152.894C169.364 152.355 169.9 151.817 170.435 151.278C171.15 150.47 171.953 149.752 172.668 148.944C172.757 148.855 172.846 148.765 172.936 148.675C173.65 147.957 174.275 147.149 174.99 146.341C175.436 145.803 175.883 145.354 176.24 144.815C176.776 144.187 177.312 143.559 177.847 142.841C178.294 142.212 178.74 141.674 179.187 141.135C179.455 140.776 179.723 140.417 179.991 140.058C180.526 139.34 181.152 138.532 181.687 137.814C181.777 137.634 181.866 137.545 181.955 137.365C182.402 136.737 182.848 136.108 183.295 135.48C183.652 134.942 184.009 134.403 184.366 133.864C184.724 133.326 185.081 132.787 185.438 132.249C185.974 131.441 186.42 130.723 186.867 129.915C187.135 129.466 187.403 129.107 187.581 128.658C188.206 127.671 188.831 126.594 189.367 125.517C189.724 124.798 190.171 124.08 190.528 123.452C191.064 122.375 191.6 121.387 192.136 120.31C192.493 119.592 192.85 118.874 193.207 118.156C193.743 117.079 194.19 116.002 194.725 114.835C195.083 114.117 195.35 113.399 195.618 112.681C196.154 111.424 196.601 110.167 197.136 108.911C197.315 108.462 197.494 107.923 197.672 107.474C197.762 107.295 197.851 107.115 197.851 106.846C198.476 105.051 199.101 103.166 199.726 101.281C200.083 100.114 200.441 98.8572 200.798 97.6903C200.798 97.6903 200.976 97.3312 201.244 96.7926C201.334 96.6131 201.423 96.4336 201.512 96.2541C201.602 96.1643 201.602 96.0745 201.691 95.9848C201.78 95.895 201.78 95.8053 201.869 95.7155C203.12 93.8305 205.352 91.0479 209.014 89.6117C211.871 88.4448 215.265 88.0857 219.462 89.1629Z" fill="#FFD54F"/>
<path d="M36.3051 187.093C30.1433 191.402 26.5713 197.147 26.6606 204.776C24.8745 201.455 23.8922 197.775 24.5173 194.095V194.005C24.6066 193.556 24.6959 193.197 24.8745 192.838C25.0531 192.479 25.2317 192.12 25.4996 191.761C27.2857 188.978 31.3042 187.632 36.3051 187.093Z" fill="#7D551F"/>
<path d="M235.983 104.602C241.966 114.655 246.61 125.696 249.557 137.634C266.614 204.687 226.428 272.906 159.72 290.14C147.843 293.192 135.966 294.449 124.356 294C123.463 293.91 115.605 293.013 109.086 289.153C105.871 287.268 103.103 284.665 101.674 281.164C101.674 281.164 101.674 281.164 101.674 281.074C101.495 280.715 101.406 280.266 101.317 279.907C101.227 279.458 101.227 279.099 101.227 278.651C101.317 275.419 104.085 272.098 108.014 269.046C116.676 262.224 131.143 256.3 136.948 253.068C138.377 252.35 139.806 251.632 141.234 250.824C141.324 250.824 141.413 250.735 141.502 250.735C143.02 249.927 144.538 249.029 146.057 248.132C146.503 247.862 146.95 247.593 147.396 247.324C147.753 247.054 148.2 246.785 148.557 246.606C148.914 246.336 149.361 246.157 149.718 245.887C150.254 245.528 150.79 245.259 151.236 244.9C152.218 244.272 153.201 243.554 154.183 242.836C154.719 242.477 155.344 242.028 155.88 241.579C157.398 240.502 158.916 239.335 160.345 238.168C160.791 237.809 161.238 237.45 161.684 237.091C162.131 236.732 162.577 236.283 163.024 235.924C164.363 234.757 165.614 233.59 166.953 232.423C167.042 232.333 167.132 232.244 167.221 232.154L167.578 231.795C169.454 230 171.24 228.204 172.936 226.319C174.544 224.524 176.151 222.729 177.669 220.844C177.848 220.575 178.027 220.395 178.294 220.126L178.562 219.856C179.545 218.6 180.527 217.343 181.509 216.086C181.599 215.997 181.688 215.817 181.777 215.727C181.866 215.548 182.045 215.368 182.134 215.279C184.813 211.598 187.314 207.739 189.636 203.789C190.082 203.071 190.529 202.263 190.886 201.455C191.332 200.737 191.69 200.019 192.047 199.211C192.136 199.121 192.136 198.942 192.225 198.852C192.404 198.403 192.672 198.044 192.851 197.595C193.476 196.339 194.101 195.082 194.726 193.825C194.994 193.197 195.351 192.569 195.619 191.94C196.065 190.953 196.512 189.966 196.869 188.978C197.048 188.619 197.137 188.17 197.316 187.811C197.851 186.465 198.387 185.119 198.923 183.682C201.156 177.579 202.942 171.205 204.192 164.653C204.192 164.563 204.281 164.384 204.281 164.294C204.728 161.87 205.174 159.357 205.442 156.844C205.621 155.677 205.71 154.51 205.889 153.343C205.978 152.445 206.067 151.458 206.156 150.47C206.156 150.291 206.156 150.111 206.156 149.932C206.335 147.867 206.424 145.803 206.424 143.738C206.692 132.518 205.442 121.118 202.584 109.808C202.317 108.641 201.959 107.385 201.602 106.218C201.602 106.218 201.513 105.859 201.513 105.23C201.513 105.051 201.513 104.871 201.513 104.602C201.513 104.512 201.513 104.422 201.513 104.243C201.513 104.153 201.513 103.974 201.513 103.884C201.513 101.64 202.049 98.0494 204.46 94.9077C206.156 92.6636 208.836 90.5093 212.943 89.2527C216.873 88.0858 220.713 89.1629 224.017 91.407C229.286 94.6384 233.572 100.742 235.983 104.602Z" fill="#FFB300"/>
<path d="M212.854 89.0762C212.854 89.1659 212.943 89.1659 212.943 89.2557C218.837 98.6807 223.57 109.093 226.874 120.313C227.321 121.75 227.767 123.276 228.125 124.801C245.181 191.854 204.996 260.073 138.287 277.307C128.375 279.821 118.462 281.077 108.729 281.257C107.3 281.257 105.871 281.257 104.442 281.257C103.549 281.257 102.567 281.167 101.674 281.167C101.495 280.808 101.406 280.359 101.317 280C101.227 279.551 101.227 279.192 101.227 278.743C101.317 275.512 104.085 272.191 108.014 269.139C116.676 262.317 131.143 256.393 136.948 253.161C138.377 252.443 139.805 251.725 141.234 250.917C141.324 250.917 141.413 250.827 141.502 250.827C143.02 250.02 144.538 249.122 146.057 248.224C146.235 248.135 146.325 248.045 146.503 247.955C146.771 247.776 147.128 247.596 147.396 247.416C147.753 247.147 148.2 246.878 148.557 246.698C148.914 246.519 149.361 246.16 149.718 245.98C150.254 245.621 150.79 245.352 151.236 244.993C152.218 244.275 153.201 243.646 154.183 242.928C154.719 242.569 155.344 242.121 155.88 241.672C156.862 240.954 157.755 240.236 158.648 239.517C159.184 239.069 159.72 238.62 160.256 238.171C160.702 237.812 161.149 237.453 161.595 237.094C162.042 236.735 162.488 236.286 162.935 235.927C164.274 234.76 165.524 233.593 166.864 232.426C166.953 232.336 167.042 232.247 167.132 232.157L167.489 231.798C167.846 231.439 168.114 231.17 168.471 230.81C169.989 229.374 171.418 227.848 172.847 226.322C174.276 224.796 175.615 223.181 176.955 221.565C177.133 221.296 177.401 221.116 177.58 220.847C177.759 220.578 177.937 220.398 178.205 220.129L178.473 219.86C179.098 219.052 179.723 218.334 180.259 217.526C180.616 217.077 180.973 216.538 181.42 216.09C181.509 216 181.599 215.82 181.688 215.73C181.777 215.551 181.956 215.371 182.045 215.282C182.581 214.564 183.027 213.845 183.563 213.127C183.92 212.589 184.278 212.05 184.635 211.512C184.813 211.242 184.992 211.063 185.081 210.794C185.617 209.986 186.064 209.268 186.599 208.46C187.046 207.742 187.492 207.024 187.939 206.305C188.475 205.408 189.011 204.6 189.546 203.702C189.993 202.984 190.439 202.176 190.797 201.369C191.154 200.65 191.6 199.932 191.958 199.124C192.047 199.035 192.047 198.855 192.136 198.765C192.315 198.317 192.583 197.958 192.761 197.509C193.386 196.252 194.011 194.995 194.637 193.739C194.904 193.11 195.262 192.482 195.53 191.854C195.976 190.866 196.423 189.879 196.78 188.892C196.958 188.533 197.048 188.084 197.226 187.725C197.405 187.366 197.494 186.917 197.673 186.558C198.03 185.57 198.477 184.583 198.834 183.596C199.102 182.788 199.37 181.98 199.637 181.082C199.995 180.095 200.263 179.197 200.62 178.21C200.798 177.671 200.888 177.223 201.066 176.684C201.156 176.325 201.334 175.876 201.423 175.517C201.691 174.619 201.959 173.722 202.138 172.824C202.406 171.927 202.584 170.939 202.852 170.042C203.031 169.323 203.209 168.516 203.388 167.798C203.656 166.72 203.835 165.643 204.103 164.566C204.103 164.476 204.192 164.297 204.192 164.207C204.37 163.22 204.549 162.143 204.728 161.155C204.817 160.527 204.906 159.898 204.996 159.18C205.085 158.373 205.263 157.565 205.353 156.667C205.442 155.949 205.531 155.231 205.621 154.423C205.71 153.974 205.71 153.525 205.799 153.077C205.889 152.179 205.978 151.192 206.067 150.204C206.067 150.025 206.067 149.845 206.067 149.666C206.156 148.858 206.156 148.14 206.156 147.332C206.246 146.703 206.246 146.075 206.246 145.447C206.246 144.818 206.335 144.19 206.335 143.472C206.335 142.574 206.335 141.587 206.335 140.689C206.335 140.241 206.335 139.702 206.335 139.253C206.335 138.086 206.335 136.83 206.246 135.663C206.246 134.855 206.156 134.047 206.156 133.239C206.067 132.072 205.978 130.905 205.889 129.649C205.799 128.841 205.71 128.033 205.621 127.225C205.442 126.058 205.353 124.801 205.174 123.635C205.085 122.827 204.996 122.109 204.817 121.301C204.638 119.954 204.37 118.608 204.103 117.351C204.013 116.813 203.924 116.364 203.835 115.825C203.835 115.646 203.745 115.376 203.745 115.197C203.388 113.312 202.942 111.337 202.406 109.452C202.138 108.285 201.781 107.029 201.423 105.862C201.423 105.862 201.334 105.503 201.334 104.874C201.334 104.695 201.334 104.515 201.334 104.246C201.334 104.156 201.334 104.066 201.334 103.887C201.334 103.797 201.334 103.618 201.334 103.528C201.334 101.284 201.87 97.6933 204.281 94.5517C206.067 92.3974 208.657 90.3328 212.854 89.0762Z" fill="#FFD54F"/>
<path d="M108.014 268.956C104.978 275.868 104.978 282.6 109.086 289.063C105.871 287.178 103.013 284.575 101.674 281.074C101.674 281.074 101.674 281.074 101.674 280.984C101.495 280.625 101.406 280.177 101.317 279.818C101.227 279.369 101.227 279.01 101.227 278.561C101.317 275.329 104.085 272.098 108.014 268.956Z" fill="#7D551F"/>
</g>
<g clip-path="url(#clip4)">
<path d="M133.892 92.1308L126.945 89.7179L131.721 75.9999C132.21 74.5869 133.783 73.8505 135.193 74.3386L137 74.9882C138.41 75.4763 139.143 77.0513 138.655 78.4642L133.892 92.1308Z" fill="#AC752C"/>
<path d="M133.892 92.1309L130.419 90.9244L136.117 74.5863L137.027 74.8853C138.437 75.3734 139.171 76.9484 138.682 78.3614L133.892 92.1309Z" fill="#7D551F"/>
<path d="M137.984 100.065C136.09 106.725 133.243 113.241 129.332 119.416C107.365 154.167 61.5502 164.553 26.9335 142.596C20.7729 138.684 15.3602 134.036 10.8078 128.846C10.4798 128.427 7.64405 124.635 6.66182 120.291C6.14503 118.113 6.14545 115.852 7.07001 113.839L7.0838 113.788C7.20406 113.544 7.31054 113.352 7.46836 113.174C7.62618 112.996 7.78401 112.818 7.99317 112.653C9.43354 111.385 11.9507 111.232 14.9085 111.694C21.3651 112.652 29.8474 116.524 33.5915 117.748L33.6429 117.761C34.5394 118.112 35.4498 118.411 36.3601 118.71C36.4115 118.724 36.4628 118.738 36.5142 118.751C37.5272 119.078 38.4889 119.391 39.5157 119.666C39.8238 119.748 40.1318 119.831 40.4399 119.914C40.6966 119.982 40.9533 120.051 41.2613 120.134C41.518 120.202 41.7747 120.271 42.0315 120.34C42.3908 120.436 42.7502 120.533 43.1096 120.629C43.7771 120.808 44.5096 120.949 45.1908 121.076C45.6016 121.186 45.9747 121.231 46.3993 121.29C47.505 121.476 48.6107 121.662 49.6789 121.783C50.0521 121.827 50.3739 121.859 50.6958 121.89C51.0689 121.934 51.3908 121.966 51.7126 121.997C52.7294 122.104 53.8114 122.173 54.842 122.229C54.8934 122.242 54.996 122.27 55.0612 122.232L55.3317 122.25C56.8519 122.326 58.386 122.351 59.8687 122.363C61.3001 122.36 62.7452 122.306 64.1528 122.187C64.3206 122.177 64.5398 122.181 64.7076 122.17L64.9267 122.174C65.8822 122.099 66.7864 122.011 67.7557 121.884C67.8722 121.86 67.9235 121.874 68.04 121.85C68.1564 121.826 68.2729 121.802 68.3894 121.778C71.0643 121.448 73.7806 120.962 76.4218 120.347C76.939 120.265 77.4187 120.118 77.9497 119.984C78.4293 119.837 78.8952 119.741 79.3749 119.594C79.44 119.556 79.5564 119.532 79.6078 119.546C79.8545 119.447 80.1388 119.413 80.3855 119.313C81.1632 119.081 81.9409 118.848 82.7324 118.564C83.147 118.454 83.5239 118.28 83.9385 118.17C84.5484 117.948 85.1583 117.725 85.7682 117.503C86.0149 117.403 86.2103 117.29 86.4432 117.242C87.2347 116.958 88.0538 116.571 88.8591 116.235C92.4058 114.705 95.8675 112.875 99.1789 110.785C99.2441 110.747 99.3092 110.71 99.3743 110.672C100.639 109.853 101.853 109.02 103.08 108.136C103.629 107.732 104.177 107.327 104.74 106.871C105.158 106.542 105.642 106.176 106.06 105.847C106.139 105.757 106.204 105.72 106.283 105.631C107.212 104.832 108.128 104.085 109.071 103.235C113.996 98.8199 118.419 93.6089 122.144 87.7147C122.529 87.101 122.927 86.4358 123.311 85.822C123.311 85.822 123.469 85.6437 123.706 85.3763C123.785 85.2872 123.864 85.1981 123.943 85.1089C124.008 85.0712 124.022 85.0198 124.087 84.9821C124.152 84.9444 124.166 84.893 124.231 84.8553C125.239 83.9675 126.95 82.7166 129.275 82.4575C130.93 82.2391 132.936 82.5561 135.184 83.82C137.328 85.0564 138.362 87.1531 138.773 89.5237C139.51 93.1398 138.622 97.4786 137.984 100.065Z" fill="#FFB300"/>
<path d="M135.211 83.7171C135.197 83.7685 135.184 83.8199 135.184 83.8199C133.526 90.2129 130.953 96.5264 127.471 102.541C127.031 103.36 126.554 104.115 126.063 104.92C104.109 139.62 58.2944 150.006 23.6639 128.1C18.5364 124.852 13.9337 121.082 9.89337 116.856C9.28487 116.252 8.69015 115.597 8.14678 114.955C7.75363 114.574 7.42561 114.155 7.04624 113.723C7.16651 113.479 7.27299 113.287 7.43081 113.109C7.58863 112.931 7.74645 112.752 7.95562 112.588C9.39599 111.32 11.9131 111.167 14.8709 111.629C21.3276 112.587 29.8098 116.459 33.554 117.682L33.6053 117.696C34.5019 118.047 35.4122 118.346 36.3226 118.645C36.3739 118.659 36.4253 118.672 36.4766 118.686C37.4897 119.013 38.4514 119.325 39.4782 119.601C39.5809 119.628 39.6835 119.656 39.7349 119.669C39.9403 119.724 40.1456 119.779 40.351 119.834C40.6077 119.903 40.8644 119.972 41.1724 120.055C41.4292 120.123 41.6859 120.192 41.9426 120.261C42.302 120.357 42.6613 120.454 43.0207 120.55C43.7533 120.691 44.4207 120.87 45.102 120.997C45.5127 121.107 45.8859 121.152 46.3104 121.211C46.9916 121.338 47.6728 121.466 48.3678 121.541C48.7923 121.6 49.1655 121.645 49.59 121.704C49.9632 121.748 50.285 121.779 50.6069 121.811C50.98 121.855 51.3019 121.887 51.6237 121.918C52.6405 122.025 53.7225 122.094 54.7531 122.15C54.8045 122.163 54.9072 122.191 54.9723 122.153L55.2428 122.171C55.5133 122.188 55.7838 122.205 56.0542 122.223C57.304 122.282 58.5676 122.289 59.7798 122.283C61.0434 122.291 62.2694 122.234 63.4954 122.176C63.6632 122.166 63.8823 122.17 64.0501 122.16C64.2179 122.149 64.4371 122.153 64.6049 122.143L64.824 122.146C65.3926 122.078 66.0125 122.024 66.581 121.955C66.9167 121.935 67.3174 121.877 67.653 121.857C67.7695 121.833 67.8208 121.847 67.9373 121.823C68.0538 121.799 68.1702 121.775 68.2867 121.751C68.8039 121.669 69.3073 121.638 69.8245 121.556C70.2253 121.498 70.5747 121.426 70.9754 121.368C71.1432 121.358 71.3248 121.297 71.4926 121.286C72.0098 121.205 72.5408 121.071 73.1094 121.003C73.5753 120.907 74.0925 120.825 74.5721 120.678C75.1545 120.558 75.7368 120.439 76.3329 120.268C76.8639 120.134 77.3298 120.038 77.8608 119.905C78.3404 119.758 78.8063 119.662 79.286 119.515C79.3511 119.477 79.4676 119.453 79.5189 119.467C79.7656 119.368 80.0499 119.334 80.2966 119.234C81.0743 119.002 81.852 118.769 82.6435 118.485C83.0581 118.375 83.435 118.201 83.8496 118.091C84.4595 117.869 85.0694 117.646 85.6793 117.423C85.926 117.324 86.1214 117.211 86.3543 117.163C86.601 117.064 86.7964 116.951 87.0294 116.903C87.5879 116.667 88.1978 116.444 88.7564 116.208C89.2498 116.009 89.6919 115.797 90.1991 115.547C90.7577 115.31 91.3163 115.074 91.8373 114.773C92.0978 114.622 92.4096 114.485 92.6701 114.334C92.8655 114.221 93.1122 114.122 93.3076 114.009C93.8148 113.759 94.2707 113.495 94.7779 113.245C95.2852 112.995 95.7548 112.679 96.2621 112.429C96.6528 112.203 97.0436 111.977 97.4343 111.751C97.9691 111.398 98.5415 111.11 99.0763 110.757C99.1414 110.72 99.2065 110.682 99.2716 110.644C99.7927 110.343 100.276 109.976 100.811 109.623C101.15 109.383 101.476 109.195 101.764 108.941C102.169 108.664 102.573 108.386 102.991 108.057C103.345 107.766 103.684 107.526 104.023 107.286C104.233 107.121 104.442 106.957 104.651 106.792C105.069 106.463 105.553 106.097 105.971 105.768C106.05 105.678 106.115 105.641 106.194 105.552C106.547 105.26 106.9 104.969 107.254 104.678C107.542 104.424 107.83 104.17 108.118 103.917C108.406 103.663 108.694 103.409 108.982 103.156C109.414 102.775 109.781 102.432 110.162 102.038C110.385 101.822 110.594 101.658 110.766 101.428C111.277 100.958 111.801 100.437 112.275 99.9026C112.591 99.5461 112.958 99.2033 113.259 98.8982C113.733 98.3634 114.193 97.88 114.666 97.3452C114.982 96.9887 115.297 96.6322 115.613 96.2756C116.086 95.7408 116.509 95.1923 116.996 94.606C117.311 94.2495 117.576 93.8792 117.84 93.5089C118.341 92.8712 118.791 92.2198 119.292 91.5821C119.463 91.3523 119.649 91.0712 119.82 90.8415C119.899 90.7523 119.978 90.6632 120.02 90.5089C120.655 89.5763 121.304 88.5922 121.952 87.6082C122.337 86.9944 122.735 86.3292 123.12 85.7154C123.12 85.7154 123.278 85.5372 123.514 85.2698C123.593 85.1806 123.672 85.0915 123.751 85.0024C123.816 84.9647 123.83 84.9132 123.895 84.8755C123.96 84.8378 123.974 84.7864 124.039 84.7487C125.047 83.8609 126.758 82.6101 129.084 82.351C130.957 82.1362 132.963 82.4531 135.211 83.7171Z" fill="#FFD54F"/>
<path d="M14.8711 111.629C10.6669 113.149 7.73105 115.891 6.61069 120.278C6.0939 118.099 6.09432 115.838 7.01888 113.826L7.03266 113.774C7.15293 113.531 7.25941 113.339 7.41723 113.16C7.57505 112.982 7.73287 112.804 7.94204 112.639C9.39619 111.32 11.9133 111.167 14.8711 111.629Z" fill="#7D551F"/>
<path d="M14.8707 111.629C12.366 112.557 10.3057 113.879 8.8164 115.741C8.54971 115.504 8.34814 115.229 8.14658 114.955C7.75343 114.574 7.4254 114.155 7.09738 113.736C7.21765 113.493 7.32413 113.301 7.49573 113.071C7.65356 112.893 7.81138 112.715 8.02054 112.55C9.39578 111.32 11.9129 111.167 14.8707 111.629Z" fill="#AC752C"/>
</g>
<g clip-path="url(#clip5)">
<path d="M74.2557 191.155C69.9419 193.715 64.2722 195.407 58.1506 194.375C57.2057 194.21 56.2608 194.004 55.3158 193.715C50.3857 192.187 45.209 188.803 40.32 182.611C28.3234 167.338 32.3085 142.861 47.0989 137.123C53.8368 134.482 59.2188 135.72 63.1218 137.825C63.2862 137.908 63.4505 137.99 63.6149 138.114C67.9287 140.591 70.2295 144.099 70.2295 144.099L72.1604 166.884L74.0914 189.628L74.2557 191.155Z" fill="#A16552"/>
<path d="M69.3238 148.888C69.3238 148.888 62.7092 138.857 51.0824 143.398C39.4555 147.938 36.292 167.215 45.7414 179.185C55.1908 191.156 65.8727 189.876 72.4463 185.955L69.3238 148.888Z" fill="#F5DCB4"/>
<path d="M211.395 144.058C211.395 144.058 219.776 131.345 234.567 137.082C249.357 142.82 253.342 167.297 241.345 182.57C229.349 197.843 215.791 196.15 207.41 191.156L211.395 144.058Z" fill="#A16552"/>
<path d="M212.299 148.888C212.299 148.888 218.914 138.857 230.54 143.398C242.167 147.938 245.331 167.215 235.881 179.185C226.432 191.156 215.75 189.876 209.177 185.955L212.299 148.888Z" fill="#F5DCB4"/>
<path d="M227.871 207.047C227.871 246.385 188.882 278.251 140.813 278.251C140.485 278.251 140.197 278.251 139.869 278.251C135.842 278.209 131.857 277.962 127.995 277.466C120.189 276.517 112.753 274.742 105.768 272.224C75.1195 261.203 53.7556 236.148 53.7556 207.006C53.7556 202.754 54.2075 198.585 55.1114 194.499C55.1936 194.21 55.2347 193.921 55.3168 193.673C55.4401 193.054 55.6044 192.435 55.7688 191.857C56.1385 190.495 56.4672 189.092 56.7959 187.688C58.5625 179.928 59.5485 172.044 59.4663 164.078C59.4663 163.623 59.4663 163.169 59.4663 162.715C59.4663 156.194 60.3702 149.672 62.1368 143.232C62.1368 143.191 62.1368 143.191 62.1368 143.15C62.5888 141.458 63.1229 139.724 63.698 138.032C64.643 135.225 65.7523 132.418 66.9848 129.694C67.8887 127.712 68.8747 125.731 69.9429 123.791C80.707 104.019 98.7841 87.5906 119.532 80.656C120.066 80.4909 120.559 80.3258 121.093 80.1607C123.558 79.4177 126.023 78.7573 128.529 78.3032C129.146 78.1794 129.803 78.0556 130.46 77.973C133.377 77.4777 136.376 77.1887 139.376 77.1475C139.869 77.1475 140.362 77.1475 140.896 77.1475C141.841 77.1475 142.786 77.1475 143.73 77.23H143.772C144.758 77.2713 145.744 77.3538 146.771 77.4364C147.305 77.4777 147.839 77.5602 148.373 77.6015C152.523 78.0968 156.631 78.9637 160.657 80.202C161.191 80.3671 161.725 80.5322 162.218 80.6973C182.966 87.6319 201.084 104.06 211.848 123.832C212.917 125.772 213.903 127.712 214.807 129.735C216.039 132.459 217.148 135.266 218.134 138.073C218.668 139.683 219.161 141.292 219.613 142.944C219.655 143.026 219.655 143.109 219.696 143.191C221.421 149.63 222.366 156.194 222.366 162.715C222.366 163.169 222.366 163.623 222.366 164.078C222.284 172.044 223.229 179.928 225.037 187.688C225.365 189.092 225.694 190.454 226.064 191.857C226.228 192.476 226.392 193.095 226.516 193.715C226.598 194.004 226.639 194.293 226.721 194.54C227.419 198.585 227.871 202.754 227.871 207.047Z" fill="#A16552"/>
<path d="M201.822 183.891C203.712 179.722 204.78 175.14 204.78 170.352C204.78 151.612 188.922 136.422 169.324 136.422C162.71 136.422 156.547 138.155 151.247 141.127C144.756 144.801 136.909 144.801 130.376 141.127C125.076 138.114 118.914 136.422 112.299 136.422C92.7018 136.422 76.8433 151.612 76.8433 170.352C76.8433 175.181 77.9115 179.763 79.8013 183.891C80.4587 185.294 81.1571 186.656 81.9788 187.936C85.3888 193.343 86.3338 199.989 84.2795 206.098C82.7183 210.68 81.3625 215.881 81.3625 219.719C81.3625 247.912 107.985 270.779 140.771 270.779C173.556 270.779 200.179 247.912 200.179 219.719C200.179 215.881 198.782 210.68 197.262 206.098C195.207 200.03 196.152 193.343 199.562 187.936C200.425 186.656 201.165 185.294 201.822 183.891Z" fill="#F5DCB4"/>
<path d="M110.534 226.035C108.48 226.035 106.878 227.851 107.166 229.915C109.261 245.023 123.558 256.704 140.814 256.704C158.11 256.704 172.367 245.023 174.462 229.915C174.749 227.851 173.147 226.035 171.093 226.035H110.534Z" fill="#4E3F3F"/>
<path d="M121.256 251.09C126.802 254.64 133.499 256.704 140.812 256.704C148.125 256.704 154.822 254.599 160.368 251.09C157.903 242.546 150.056 244.527 140.812 244.527C131.568 244.527 123.721 242.546 121.256 251.09Z" fill="#E6646E"/>
<path d="M162.3 85.0315L139.169 89.0766L135.225 89.7783L124.913 84.0821L119.449 81.0688L119.326 80.9863C119.326 80.9863 119.367 80.9037 119.449 80.6973C120.435 78.7573 126.639 67.3235 139.169 66.2915C139.827 66.2503 140.484 66.209 141.142 66.209L141.717 68.6856L143.689 77.1888L143.894 78.0556L144.346 79.9543L147.14 78.262L148.29 77.5603L161.725 69.4699L162.136 80.6973V81.0688L162.3 85.0315Z" fill="#A16552"/>
<path d="M137.814 206.015C137.156 207.46 135.472 208.079 134.034 207.419L127.419 204.405C125.981 203.745 125.365 202.053 126.022 200.608C126.68 199.163 128.364 198.544 129.802 199.204L136.417 202.218C137.855 202.878 138.471 204.571 137.814 206.015Z" fill="#4E3F3F"/>
<path d="M143.813 206.015C144.47 207.46 146.155 208.079 147.593 207.419L154.208 204.405C155.645 203.745 156.262 202.053 155.604 200.608C154.947 199.163 153.263 198.544 151.825 199.204L145.21 202.218C143.772 202.878 143.156 204.571 143.813 206.015Z" fill="#4E3F3F"/>
<path d="M110.287 183.89C104.659 183.89 100.098 179.556 100.098 174.19V170.971C100.098 165.605 104.659 161.271 110.287 161.271C115.916 161.271 120.476 165.605 120.476 170.971V174.19C120.476 179.556 115.916 183.89 110.287 183.89Z" fill="#4E3F3F"/>
<path d="M110.289 161.271V172.58C110.289 175.264 112.548 177.41 115.383 177.41C118.218 177.41 120.478 175.222 120.478 172.58V170.971C120.478 165.605 115.917 161.271 110.289 161.271Z" fill="#5D5360"/>
<path d="M110.287 170.971C112.17 170.971 113.697 169.529 113.697 167.751C113.697 165.973 112.17 164.531 110.287 164.531C108.404 164.531 106.877 165.973 106.877 167.751C106.877 169.529 108.404 170.971 110.287 170.971Z" fill="white"/>
<path d="M171.339 183.89C165.71 183.89 161.15 179.556 161.15 174.19V170.971C161.15 165.605 165.71 161.271 171.339 161.271C176.967 161.271 181.528 165.605 181.528 170.971V174.19C181.528 179.556 176.967 183.89 171.339 183.89Z" fill="#4E3F3F"/>
<path d="M171.339 161.271V172.58C171.339 175.264 173.598 177.41 176.433 177.41C179.268 177.41 181.528 175.222 181.528 172.58V170.971C181.528 165.605 176.967 161.271 171.339 161.271Z" fill="#5D5360"/>
<path d="M171.338 170.971C173.222 170.971 174.748 169.529 174.748 167.751C174.748 165.973 173.222 164.531 171.338 164.531C169.455 164.531 167.928 165.973 167.928 167.751C167.928 169.529 169.455 170.971 171.338 170.971Z" fill="white"/>
<path opacity="0.35" d="M141.721 68.7269C139.461 68.4792 134.449 72.1116 128.492 78.3445C127.013 79.913 125.452 81.6054 123.849 83.5042C112.14 97.2908 98.5823 119.044 93.9398 141.334C86.1338 178.772 82.9703 222.237 96.7335 246.343C108.402 266.775 127.999 277.466 127.999 277.466C120.193 276.517 112.756 274.742 105.772 272.224C75.1231 261.203 53.7592 236.148 53.7592 207.006C53.7592 202.754 54.2112 198.585 55.115 194.499C55.1972 194.21 55.2383 193.921 55.3205 193.673C50.3903 192.146 45.2137 188.761 40.3246 182.57C28.328 167.338 32.3132 142.861 47.1036 137.123C53.8414 134.523 59.2235 135.72 63.1265 137.825C63.2908 137.908 63.4552 137.99 63.6195 138.114C64.5644 135.307 65.6737 132.5 66.9063 129.776C67.8101 127.795 68.7961 125.813 69.8643 123.873C80.6285 104.102 98.7056 87.6732 119.453 80.7386C120.439 78.7986 126.643 67.3647 139.174 66.3328C139.831 66.2915 140.488 66.2502 141.146 66.2502L141.721 68.7269Z" fill="#4E3F3F"/>
</g>
<g clip-path="url(#clip6)">
<path d="M69.4623 219.697L66.4436 221.159L63.5599 215.195C63.2619 214.582 63.5317 213.837 64.1438 213.54L64.936 213.166C65.5481 212.869 66.2926 213.14 66.5907 213.754L69.4623 219.697Z" fill="#AC752C"/>
<path d="M69.4623 219.697L67.953 220.428L64.5217 213.321L64.9117 213.124C65.5238 212.827 66.2684 213.098 66.5664 213.711L69.4623 219.697Z" fill="#7D551F"/>
<path d="M73.3408 220.936C74.8777 223.695 76.061 226.714 76.7913 229.967C80.9139 248.259 69.4884 266.383 51.2433 270.466C47.9951 271.191 44.7504 271.438 41.6086 271.232C41.3677 271.203 39.2302 270.894 37.5126 269.81C36.6434 269.274 35.9145 268.545 35.5635 267.598L35.5513 267.577C35.5116 267.459 35.484 267.363 35.4774 267.255C35.4708 267.146 35.4642 267.038 35.4786 266.917C35.5341 266.044 36.2967 265.183 37.3995 264.378C39.7907 262.605 43.7749 261.118 45.377 260.305L45.398 260.293C45.8002 260.117 46.1902 259.92 46.5803 259.723C46.6013 259.71 46.6223 259.698 46.6433 259.686C47.0753 259.465 47.4863 259.256 47.9062 259.013C48.0322 258.94 48.1581 258.868 48.2841 258.795C48.3891 258.734 48.494 258.674 48.62 258.601C48.725 258.54 48.8299 258.48 48.9349 258.419C49.0819 258.334 49.2288 258.25 49.3758 258.165C49.6487 258.007 49.9305 257.816 50.1913 257.638C50.3592 257.541 50.494 257.435 50.6498 257.317C51.0664 257.02 51.483 256.724 51.8664 256.418C52.0013 256.312 52.1151 256.219 52.2289 256.125C52.3637 256.019 52.4775 255.925 52.5913 255.831C52.9538 255.538 53.3251 255.211 53.6754 254.897C53.6964 254.885 53.7384 254.861 53.7472 254.827L53.84 254.746C54.355 254.28 54.8578 253.794 55.3396 253.319C55.8005 252.857 56.2491 252.373 56.6647 251.881C56.7155 251.823 56.7874 251.754 56.8382 251.697L56.91 251.627C57.1941 251.295 57.4571 250.975 57.729 250.621C57.7588 250.576 57.7798 250.564 57.8096 250.519C57.8395 250.473 57.8693 250.428 57.8992 250.383C58.6551 249.413 59.3746 248.381 60.0279 247.331C60.1682 247.137 60.2755 246.935 60.4037 246.721C60.5109 246.519 60.6303 246.338 60.7375 246.135C60.7464 246.102 60.7762 246.057 60.7972 246.045C60.8447 245.933 60.9254 245.831 60.973 245.719C61.1487 245.393 61.3245 245.067 61.4881 244.72C61.5865 244.551 61.6517 244.374 61.7501 244.205C61.875 243.936 61.9999 243.668 62.1248 243.399C62.1724 243.288 62.1989 243.188 62.2586 243.098C62.4222 242.751 62.5615 242.362 62.713 241.994C63.3631 240.356 63.8895 238.65 64.2834 236.908C64.2922 236.875 64.3011 236.841 64.3099 236.808C64.4538 236.136 64.5766 235.476 64.6873 234.795C64.7338 234.488 64.7803 234.181 64.8146 233.852C64.8434 233.611 64.8811 233.337 64.9099 233.096C64.9066 233.042 64.9154 233.009 64.9121 232.955C64.9543 232.397 65.0086 231.861 65.0386 231.283C65.2031 228.271 64.9489 225.164 64.2494 222.062C64.1755 221.74 64.0895 221.397 64.0156 221.075C64.0156 221.075 64.009 220.966 63.9991 220.804C63.9958 220.749 63.9925 220.695 63.9892 220.641C63.998 220.608 63.9859 220.587 63.9947 220.554C64.0036 220.521 63.9914 220.5 64.0003 220.466C64.0391 219.855 64.1875 218.9 64.8539 218.066C65.317 217.462 66.0662 216.917 67.1986 216.6C68.2891 216.307 69.2988 216.65 70.1956 217.282C71.5994 218.211 72.7125 219.896 73.3408 220.936Z" fill="#FFB300"/>
<path d="M67.1739 216.558C67.1861 216.579 67.1982 216.6 67.1982 216.6C68.7252 219.197 69.9318 222.062 70.7483 225.125C70.8708 225.531 70.9602 225.928 71.0617 226.346C75.1721 244.617 63.7466 262.742 45.5137 266.845C42.8124 267.451 40.1123 267.72 37.4466 267.66C37.0555 267.662 36.6523 267.642 36.2701 267.61C36.0204 267.614 35.7796 267.585 35.5177 267.568C35.478 267.45 35.4504 267.354 35.4438 267.246C35.4372 267.137 35.4306 267.029 35.445 266.908C35.5005 266.035 36.2631 265.174 37.3659 264.369C39.7571 262.596 43.7413 261.109 45.3434 260.296L45.3644 260.284C45.7666 260.108 46.1567 259.911 46.5467 259.714C46.5677 259.701 46.5887 259.689 46.6097 259.677C47.0417 259.456 47.4527 259.246 47.8726 259.004C47.9146 258.98 47.9566 258.956 47.9776 258.943C48.0616 258.895 48.1455 258.847 48.2295 258.798C48.3345 258.737 48.4395 258.677 48.5654 258.604C48.6704 258.543 48.7754 258.483 48.8803 258.422C49.0273 258.337 49.1743 258.253 49.3212 258.168C49.603 257.977 49.8759 257.819 50.1367 257.641C50.3046 257.544 50.4394 257.438 50.5953 257.32C50.856 257.141 51.1168 256.963 51.3654 256.763C51.5212 256.645 51.6561 256.539 51.8119 256.421C51.9467 256.315 52.0605 256.222 52.1743 256.128C52.3091 256.022 52.4229 255.928 52.5368 255.834C52.8992 255.541 53.2705 255.214 53.6208 254.9C53.6418 254.888 53.6838 254.864 53.6926 254.83L53.7855 254.749C53.8783 254.667 53.9711 254.586 54.0639 254.504C54.4861 254.12 54.8961 253.715 55.2851 253.322C55.6951 252.917 56.0719 252.503 56.4488 252.089C56.4996 252.032 56.5714 251.962 56.6223 251.905C56.6731 251.848 56.7449 251.778 56.7958 251.721L56.8676 251.651C57.029 251.446 57.2113 251.228 57.3727 251.023C57.4743 250.908 57.5849 250.76 57.6865 250.645C57.7164 250.6 57.7374 250.588 57.7672 250.543C57.7971 250.497 57.8269 250.452 57.8567 250.407C57.9971 250.214 58.1496 250.041 58.29 249.848C58.4005 249.7 58.49 249.564 58.6005 249.416C58.6514 249.359 58.6901 249.281 58.7409 249.223C58.8813 249.03 59.0095 248.816 59.1709 248.61C59.2902 248.429 59.4306 248.236 59.5378 248.034C59.687 247.807 59.8362 247.581 59.9733 247.334C60.1015 247.119 60.2209 246.938 60.3491 246.724C60.4563 246.522 60.5757 246.341 60.6829 246.139C60.6918 246.105 60.7216 246.06 60.7426 246.048C60.7902 245.936 60.8708 245.834 60.9184 245.722C61.0941 245.396 61.2699 245.07 61.4335 244.723C61.5319 244.554 61.5971 244.377 61.6955 244.208C61.8204 243.939 61.9453 243.671 62.0703 243.402C62.1178 243.291 62.1443 243.191 62.204 243.101C62.2516 242.989 62.2781 242.89 62.3378 242.799C62.4417 242.543 62.5667 242.274 62.6706 242.018C62.7657 241.795 62.8397 241.584 62.9227 241.339C63.0266 241.083 63.1305 240.827 63.2013 240.561C63.2367 240.429 63.2931 240.284 63.3285 240.151C63.355 240.052 63.4026 239.94 63.4291 239.841C63.5121 239.597 63.574 239.364 63.6569 239.12C63.7399 238.876 63.7897 238.623 63.8726 238.379C63.9257 238.18 63.9788 237.981 64.0319 237.782C64.0905 237.496 64.1823 237.218 64.2409 236.932C64.2498 236.899 64.2586 236.866 64.2675 236.832C64.3383 236.567 64.3759 236.293 64.4346 236.007C64.4667 235.82 64.5109 235.654 64.522 235.479C64.563 235.259 64.6039 235.039 64.6327 234.798C64.6527 234.591 64.6848 234.404 64.7169 234.217C64.7313 234.096 64.7456 233.976 64.7601 233.855C64.7889 233.614 64.8265 233.34 64.8553 233.099C64.852 233.045 64.8609 233.012 64.8576 232.958C64.8775 232.75 64.8975 232.542 64.9174 232.334C64.9285 232.159 64.9396 231.985 64.9507 231.81C64.9618 231.635 64.9729 231.46 64.984 231.286C65.0007 231.024 65.0085 230.795 65.0042 230.545C65.0064 230.403 65.0208 230.283 65.0021 230.153C65.0154 229.837 65.0166 229.5 64.9969 229.175C64.9837 228.958 64.9915 228.729 64.9904 228.533C64.9707 228.208 64.963 227.904 64.9432 227.579C64.93 227.362 64.9169 227.145 64.9037 226.929C64.8839 226.603 64.8431 226.29 64.8112 225.944C64.798 225.727 64.7638 225.523 64.7296 225.318C64.6856 224.951 64.6205 224.596 64.5764 224.228C64.5577 224.099 64.5268 223.949 64.5081 223.819C64.5048 223.765 64.5015 223.711 64.465 223.648C64.3691 223.142 64.261 222.615 64.1529 222.089C64.079 221.767 63.9929 221.424 63.919 221.102C63.919 221.102 63.9124 220.994 63.9025 220.831C63.8992 220.777 63.8959 220.723 63.8926 220.668C63.9015 220.635 63.8893 220.614 63.8982 220.581C63.907 220.548 63.8949 220.527 63.9037 220.494C63.9426 219.882 64.0909 218.927 64.7574 218.093C65.2923 217.42 66.0415 216.875 67.1739 216.558Z" fill="#FFD54F"/>
<path d="M37.3659 264.369C36.5003 266.215 36.4378 268.046 37.4912 269.822C36.6219 269.286 35.893 268.557 35.542 267.61L35.5299 267.589C35.4901 267.472 35.4625 267.375 35.4559 267.267C35.4494 267.158 35.4428 267.05 35.4572 266.93C35.5005 266.035 36.2631 265.174 37.3659 264.369Z" fill="#7D551F"/>
<path d="M37.3659 264.369C36.8574 265.476 36.6195 266.567 36.7396 267.648C36.5772 267.657 36.4237 267.634 36.2701 267.61C36.0204 267.614 35.7796 267.585 35.5388 267.556C35.499 267.438 35.4715 267.342 35.4527 267.213C35.4461 267.104 35.4395 266.996 35.4539 266.875C35.5006 266.035 36.2631 265.174 37.3659 264.369Z" fill="#AC752C"/>
</g>
<defs>
<clipPath id="clip0">
<rect width="123.048" height="97.4129" fill="white" transform="translate(224.462 231.533) rotate(-120)"/>
</clipPath>
<clipPath id="clip1">
<rect width="71.4754" height="56.5847" fill="white" transform="translate(294.196 228.976) rotate(120)"/>
</clipPath>
<clipPath id="clip2">
<rect width="208.953" height="144.771" fill="white" transform="translate(105.092) rotate(32.9113)"/>
</clipPath>
<clipPath id="clip3">
<rect width="229.147" height="221.353" fill="white" transform="translate(24.3386 72.6467)"/>
</clipPath>
<clipPath id="clip4">
<rect width="123.048" height="97.4129" fill="white" transform="translate(25.3877 44.8612) rotate(15)"/>
</clipPath>
<clipPath id="clip5">
<rect width="215.118" height="212" fill="white" transform="translate(33.2544 66.2502)"/>
</clipPath>
<clipPath id="clip6">
<rect width="56.1198" height="44.4282" fill="white" transform="translate(19.2256 239.445) rotate(-30)"/>
</clipPath>
</defs>
</svg>
