<svg width="718" height="203" viewBox="0 0 718 203" fill="none" xmlns="http://www.w3.org/2000/svg">
<g clip-path="url(#clip0)">
<path d="M1073.82 -379H-306V540.496H1073.82V-379Z" fill="url(#paint0_linear)"/>
<path opacity="0.15" d="M1020.1 -379L790.31 203.409H619.213L925.532 -379H1020.1Z" fill="#FFF8BB"/>
<path opacity="0.15" d="M822.137 -379L555.373 203.409H210.051L530.536 -379H822.137Z" fill="#FFF8BB"/>
<path opacity="0.2" d="M760.138 -379L496.685 203.409H392.003L703.473 -379H760.138Z" fill="#FFF8BB"/>
<path opacity="0.2" d="M632.459 -379L330.003 203.409H277.938L603.575 -379H632.459Z" fill="#FFF8BB"/>
<path opacity="0.15" d="M374.709 -379L77.2207 203.409H-12.9272L329.819 -379H374.709Z" fill="#FFF8BB"/>
<path opacity="0.15" d="M61.2151 -379L-263.318 203.409H-306V19.1416L-45.8587 -379H61.2151Z" fill="#FFF8BB"/>
<path d="M1073.82 32.5653C1022.12 11.7847 892.048 4.98039 763.082 8.47447C503.86 15.6465 173.808 99.3206 -93.3242 166.996H1073.82V32.5653Z" fill="#FBB62B"/>
<path d="M683.604 73.2079C783.135 64.1969 831.336 51.8757 831.336 51.8757C831.336 51.8757 760.322 86.4487 785.342 90.1267C810.363 93.9886 1102.33 32.934 986.244 14.9119V14.728C924.244 7.92377 843.479 6.08476 763.265 8.47545C656.008 11.4178 536.424 27.601 414.448 50.2206C411.136 52.2434 408.377 54.2663 406.169 56.657C390.163 74.6791 583.889 82.219 683.604 73.2079Z" fill="#FCC64F"/>
<path d="M1073.82 32.5662C1059.83 26.8654 1039.96 22.2679 1015.86 18.5899C1131.4 59.0477 991.947 180.237 683.604 157.434C391.083 135.734 342.514 85.1614 372.686 58.1282C313.63 69.7138 254.39 82.5868 195.701 96.1953L191.102 166.629H1073.82V32.5662Z" fill="#EC9C19"/>
<path d="M1073.82 32.5653C1022.12 11.7847 892.048 4.98039 763.082 8.47447C503.86 15.6465 173.808 99.3206 -93.3242 166.996H1073.82V32.5653Z" fill="url(#paint1_linear)"/>
<path d="M470.745 166.629C470.745 166.629 311.79 80.0122 69.8619 36.4281C-172.066 -6.97208 -306 17.3026 -306 17.3026V166.629H470.745Z" fill="#EEC61D"/>
<path d="M116.408 68.4266C330.003 108.884 470.745 166.445 470.745 166.445C470.745 166.445 311.79 79.8284 69.8619 36.2443C-172.066 -7.33981 -306 17.3027 -306 17.3027V45.807C-306 45.807 -133.799 21.1646 116.408 68.4266Z" fill="#FBE367"/>
<path d="M-306 74.3114C-306 74.3114 -101.787 68.0588 -7.40781 85.7131C86.9716 103.367 -44.5709 125.987 -14.0309 134.446C16.509 142.906 470.56 166.629 470.56 166.629H-306V74.3114Z" fill="#DAB20E"/>
<path d="M470.745 166.629C470.745 166.629 311.79 80.0122 69.8619 36.4281C-172.066 -6.97208 -306 17.3026 -306 17.3026V166.629H470.745Z" fill="url(#paint2_linear)"/>
<path d="M1073.82 166.629H-306V540.496H1073.82V166.629Z" fill="#B4A30B"/>
<path d="M1073.82 251.958C690.043 194.214 287.321 185.019 -306 184.099V166.629H1073.82V251.958Z" fill="#D2BE07"/>
<path d="M577.082 166.629C634.85 180.237 777.615 236.878 812.755 267.222C831.888 283.589 804.476 286.347 728.494 318.346C654.168 349.608 597.319 393.376 549.486 439.535C501.652 485.694 413.896 540.496 215.386 540.496H672.749C672.749 540.496 691.699 516.405 718.191 468.223C746.523 416.548 755.354 393.56 845.134 353.47C934.73 313.38 967.294 305.105 948.529 286.163C924.98 262.624 782.031 191.639 631.539 166.445H577.082V166.629Z" fill="#EDBD05"/>
<path d="M823.058 221.063C768.049 199.179 700.53 178.03 631.355 166.445H577.083C606.151 173.249 656.744 190.903 704.21 210.765C744.5 213.891 784.055 217.385 823.058 221.063Z" fill="#FFD039"/>
<path d="M1073.82 166.629H-306V540.496H1073.82V166.629Z" fill="url(#paint3_linear)"/>
<path d="M662.999 166.445L663.183 166.629H816.619C814.595 163.135 809.444 161.663 805.948 163.686C803.556 160.192 798.221 159.457 794.91 162.031C794.174 160.192 792.334 158.721 790.31 158.537C788.287 158.537 786.263 159.824 785.527 161.663C784.607 160.192 783.319 158.721 781.479 158.353C779.824 157.985 777.616 158.905 777.248 160.744C776.512 158.721 774.672 157.066 772.465 156.698C770.257 156.33 768.049 157.434 766.761 159.089C767.129 157.25 766.209 155.043 764.37 154.307C762.53 153.572 760.322 154.124 759.218 155.595C759.586 151.917 758.666 148.974 755.355 147.503C752.963 146.4 749.284 146.216 746.892 147.503C743.58 149.158 742.477 151.181 741.373 155.411C739.533 151.917 733.83 152.652 731.622 155.963C732.726 152.101 729.598 147.687 725.735 147.503C721.687 147.319 718.376 151.733 719.296 155.595C718.928 153.204 715.8 151.733 713.96 153.02C714.88 150.813 715.616 148.239 715.064 145.664C714.512 143.274 712.673 141.067 710.281 140.515C708.257 140.147 705.865 141.435 705.129 143.274C705.313 140.883 702.922 138.492 700.53 139.044C704.026 136.285 704.026 130.217 700.53 127.458C697.219 124.7 691.331 125.619 689.124 129.481C689.492 127.642 688.572 125.619 686.916 124.516C685.26 123.412 683.052 123.596 681.581 124.516C681.765 120.838 679.741 116.976 676.613 114.953C673.486 112.93 669.254 112.562 665.943 114.218C664.287 114.953 662.999 115.505 662.079 116.976C661.159 118.447 660.791 120.286 660.607 122.125C658.768 133.159 658.768 144.377 660.423 155.411C660.423 158.537 660.791 164.606 662.999 166.445Z" fill="#83831C"/>
<path d="M453.635 166.629C456.026 164.054 457.13 160.376 457.498 156.514C458.234 147.503 457.682 138.308 456.21 129.481C454.923 121.573 450.691 115.137 441.676 116.057C437.077 116.424 432.845 118.999 429.534 122.125C426.59 124.884 426.406 128.562 426.958 132.24C424.383 129.849 419.231 131.688 418.863 135.366C417.392 133.711 415.736 132.056 413.712 131.136C411.688 130.217 409.113 130.217 407.273 131.688C405.433 133.159 404.881 135.918 406.537 137.573C404.513 137.021 402.306 137.389 400.65 138.676C398.994 139.963 398.626 142.538 399.73 144.193C398.074 142.354 395.131 141.986 393.107 143.457C391.083 144.929 390.347 147.871 391.635 150.078C390.163 147.503 386.3 148.791 385.196 151.181C383.172 147.687 378.757 146.032 374.709 145.664C372.502 145.48 370.11 145.48 368.086 146.584C364.039 148.607 362.751 153.756 362.015 158.353C361.095 157.25 359.991 155.963 358.703 155.411C355.392 153.756 352.08 156.146 350.425 158.905C347.113 155.043 342.698 152.101 337.73 151.549C332.763 151.181 327.244 154.124 326.14 159.089C324.116 158.169 322.092 157.25 319.885 157.434C317.677 157.434 315.469 158.721 314.917 160.744C312.526 159.457 309.214 159.457 306.822 160.744C304.431 162.031 302.775 164.422 302.407 167.18H453.635V166.629Z" fill="#83831C"/>
<path d="M683.604 107.045H661.711V93.8047L601.183 19.6934L607.622 15.2798L663.919 51.6918L674.774 93.8047L683.604 107.045Z" fill="#A8A274"/>
<path d="M683.604 107.045L672.566 95.092H661.711V107.045H683.604Z" fill="#878752"/>
<path d="M540.471 93.8047L550.774 51.6918L602.287 16.0154L658.952 55.5537L668.334 93.8047V166.629H540.471V93.8047Z" fill="#CF6842"/>
<path d="M544.151 93.8047H442.045V166.629H544.151V93.8047Z" fill="#AB473C"/>
<path d="M440.573 93.8047L450.875 51.6918H554.453L544.151 93.8047H440.573Z" fill="#EDE8C0"/>
<path d="M450.875 51.6918L503.86 15.2798H607.623L554.454 51.6918H450.875Z" fill="#FCF9DE"/>
<path d="M531.273 107.045H427.694L440.573 93.8047H544.151L531.273 107.045Z" fill="#FCF9DE"/>
<path d="M613.878 15.2798L559.237 52.9791L548.934 95.092L537.712 107.045H531.273L544.151 93.8047L554.454 51.6918L607.623 15.2798H613.878Z" fill="white"/>
<path d="M607.623 15.2798L662.263 52.9791L672.566 95.092L683.605 107.045H690.044L677.165 93.8047L666.863 51.6918L613.878 15.2798H607.623Z" fill="white"/>
<path d="M658.951 55.5537L662.263 52.9791L610.934 17.3027L607.438 19.5095L658.951 55.5537Z" fill="#878752"/>
<path d="M559.237 8.10771H556.661V5.90094L559.237 8.10771Z" fill="#878752"/>
<path d="M538.999 4.61365H517.474V22.6358H538.999V4.61365Z" fill="#AB473C"/>
<path d="M539 22.6358L550.406 15.2798H556.661V4.61366L547.831 -3.29401L539 4.61366V22.6358Z" fill="#CF6842"/>
<path d="M512.139 6.63657L523.546 -3.29395H547.831L536.424 6.63657H512.139Z" fill="#FCF9DE"/>
<path d="M536.608 6.63654H512.139V8.10772H536.608V6.63654Z" fill="#EDE8C0"/>
<path d="M536.424 8.10769L547.83 -1.82281V-3.29401L536.424 6.63649V8.10769Z" fill="#A8A274"/>
<path d="M559.237 8.10769L547.831 -1.82281V-3.29401L559.237 6.63649V8.10769Z" fill="#A8A274"/>
<path d="M630.251 111.275H581.13V166.629H630.251V111.275Z" fill="#9C453B"/>
<path d="M582.785 112.746H579.657V166.445H582.785V112.746Z" fill="#722828"/>
<path d="M628.595 112.746H625.468V166.445H628.595V112.746Z" fill="#722828"/>
<path d="M605.783 112.746H602.655V166.445H605.783V112.746Z" fill="#722828"/>
<path d="M579.707 112.738V115.864H628.829V112.738H579.707Z" fill="#722828"/>
<path d="M579.543 138.831V141.957H628.665V138.831H579.543Z" fill="#722828"/>
<path d="M625.468 112.746L602.655 140.515H605.783L628.596 112.746H625.468Z" fill="#722828"/>
<path d="M582.785 112.746L605.782 140.515H602.654L579.657 112.746H582.785Z" fill="#722828"/>
<path d="M624.18 166.629L602.655 140.515H605.783L627.308 166.629H624.18Z" fill="#722828"/>
<path d="M584.073 166.629L605.782 140.515H602.655L580.946 166.629H584.073Z" fill="#722828"/>
<path d="M584.258 111.275H581.13V166.628H584.258V111.275Z" fill="#FCF9DE"/>
<path d="M630.251 111.275H627.124V166.629H630.251V111.275Z" fill="#FCF9DE"/>
<path d="M607.255 111.275H604.127V166.629H607.255V111.275Z" fill="#FCF9DE"/>
<path d="M581.217 111.266V114.393H630.338V111.266H581.217Z" fill="#FCF9DE"/>
<path d="M581.236 137.36V140.486H630.358V137.36H581.236Z" fill="#FCF9DE"/>
<path d="M627.124 111.275L604.127 138.86H607.255L630.252 111.275H627.124Z" fill="#FCF9DE"/>
<path d="M584.442 111.275L607.254 138.859H604.127L581.13 111.275H584.442Z" fill="#FCF9DE"/>
<path d="M627.124 166.629L604.127 138.86H607.255L630.252 166.629H627.124Z" fill="#FCF9DE"/>
<path d="M584.442 166.629L607.255 138.86H604.127L581.13 166.629H584.442Z" fill="#FCF9DE"/>
<path d="M620.501 58.1283H591.064V90.3106H620.501V58.1283Z" fill="#9C453B"/>
<path d="M589.735 88.7085V91.6509H619.171V88.7085H589.735Z" fill="#722828"/>
<path d="M589.734 59.4707V62.4131H619.17V59.4707H589.734Z" fill="#722828"/>
<path d="M589.707 91.5099H592.651V59.3275H589.707V91.5099Z" fill="#722828"/>
<path d="M616.178 91.5099H619.122V59.3275H616.178V91.5099Z" fill="#722828"/>
<path d="M592.72 59.4156L616.085 88.6556V91.5979L592.72 62.358V59.4156Z" fill="#722828"/>
<path d="M616.085 59.4156L592.72 88.6556V91.5979L616.085 62.358V59.4156Z" fill="#722828"/>
<path d="M590.988 87.3391V90.2816H620.424V87.3391H590.988Z" fill="#FCF9DE"/>
<path d="M590.986 58.1012V61.0436H620.422V58.1012H590.986Z" fill="#FCF9DE"/>
<path d="M591.061 90.3606H594.005V58.1782H591.061V90.3606Z" fill="#FCF9DE"/>
<path d="M617.532 90.3606H620.476V58.1782H617.532V90.3606Z" fill="#FCF9DE"/>
<path d="M594.008 58.1282L617.373 87.3682V90.3106L594.008 61.0706V58.1282Z" fill="#FCF9DE"/>
<path d="M617.373 58.1282L594.008 87.3682V90.3106L617.373 61.0706V58.1282Z" fill="#FCF9DE"/>
<path d="M487.67 126.539H467.801V147.135H487.67V126.539Z" fill="#9C453B"/>
<path d="M466.627 145.577V147.967H486.497V145.577H466.627Z" fill="#722828"/>
<path d="M466.734 127.448V129.839H486.604V127.448H466.734Z" fill="#722828"/>
<path d="M466.683 148.114H469.075V127.518H466.683V148.114Z" fill="#722828"/>
<path d="M484.242 148.07H486.634V128.945H484.242V148.07Z" fill="#722828"/>
<path d="M467.724 144.738V147.129H487.594V144.738H467.724Z" fill="#FCF9DE"/>
<path d="M467.647 126.609V129H487.516V126.609H467.647Z" fill="#FCF9DE"/>
<path d="M467.677 147.098H470.069V126.502H467.677V147.098Z" fill="#FCF9DE"/>
<path d="M485.236 147.098H487.628V126.502H485.236V147.098Z" fill="#FCF9DE"/>
<path d="M505.148 126.539H485.279V147.135H505.148V126.539Z" fill="#9C453B"/>
<path d="M485.222 145.59V147.98H504.171V145.59H485.222Z" fill="#722828"/>
<path d="M485.329 127.461V129.852H504.278V127.461H485.329Z" fill="#722828"/>
<path d="M501.801 148.114H504.192V127.518H501.801V148.114Z" fill="#722828"/>
<path d="M485.243 144.778V147.169H505.113V144.778H485.243Z" fill="#FCF9DE"/>
<path d="M485.166 126.65V129.041H505.035V126.65H485.166Z" fill="#FCF9DE"/>
<path d="M485.236 147.098H487.628V126.502H485.236V147.098Z" fill="#FCF9DE"/>
<path d="M502.795 147.098H505.187V126.502H502.795V147.098Z" fill="#FCF9DE"/>
</g>
<defs>
<linearGradient id="paint0_linear" x1="383.908" y1="99.4651" x2="383.908" y2="-368.067" gradientUnits="userSpaceOnUse">
<stop stop-color="#F8F4C7"/>
<stop offset="1" stop-color="#FCB422"/>
</linearGradient>
<linearGradient id="paint1_linear" x1="490.298" y1="5.92747" x2="490.298" y2="162.096" gradientUnits="userSpaceOnUse">
<stop stop-color="#FBB62B" stop-opacity="0"/>
<stop offset="1" stop-color="#E28C10" stop-opacity="0.5"/>
</linearGradient>
<linearGradient id="paint2_linear" x1="82.354" y1="31.1934" x2="82.354" y2="164.719" gradientUnits="userSpaceOnUse">
<stop stop-color="#EEC61D" stop-opacity="0"/>
<stop offset="1" stop-color="#C99A06" stop-opacity="0.5"/>
</linearGradient>
<linearGradient id="paint3_linear" x1="412.42" y1="180.802" x2="363.501" y2="477.398" gradientUnits="userSpaceOnUse">
<stop stop-color="#97880F" stop-opacity="0"/>
<stop offset="1" stop-color="#395E11" stop-opacity="0.4"/>
</linearGradient>
<clipPath id="clip0">
<rect width="718" height="203" rx="30" fill="white"/>
</clipPath>
</defs>
</svg>
