<svg width="537" height="370" viewBox="0 0 537 370" fill="none" xmlns="http://www.w3.org/2000/svg">
<g clip-path="url(#clip0)">
<path d="M488.774 370H48.3366C21.6301 370 0 348.352 0 321.624V96.6418C0 69.9134 21.6301 48.2657 48.3366 48.2657H488.774C515.48 48.2657 537.11 69.9134 537.11 96.6418V321.624C537 348.352 515.37 370 488.774 370Z" fill="#F0EBDA"/>
<path d="M466.813 308.37H324.01C316.726 308.37 310.877 302.516 310.877 295.227V182.791C310.877 175.501 316.726 169.648 324.01 169.648H466.813C474.096 169.648 479.945 175.501 479.945 182.791V295.116C479.945 302.406 474.096 308.37 466.813 308.37Z" fill="#FFF9F7"/>
<path d="M321.141 291.03H469.682" stroke="#7D551F" stroke-width="2.7722" stroke-miterlimit="10" stroke-linecap="round"/>
<path d="M471.448 148.552C465.378 177.269 433.264 155.179 401.481 200.021C380.623 229.621 383.272 247.955 357.779 256.349C332.287 264.743 323.899 290.919 323.899 290.919" stroke="#7D551F" stroke-width="2.7722" stroke-miterlimit="10" stroke-linecap="round" stroke-linejoin="round"/>
<path d="M464.937 152.307C465.488 152.087 471.668 148.331 471.668 148.331L474.538 154.848" stroke="#7D551F" stroke-width="2.7722" stroke-miterlimit="10" stroke-linecap="round" stroke-linejoin="round"/>
<path d="M323.899 291.03C323.899 291.03 332.287 264.854 357.779 256.46C383.272 248.066 380.623 229.731 401.481 200.131C433.153 155.179 465.378 177.269 471.448 148.663V291.14H323.899" fill="url(#paint0_linear)"/>
<path d="M162.115 187.209H125.697V250.275H162.115V187.209Z" fill="#A16552"/>
<path d="M206.369 259.773V370H81.4438V259.773C81.4438 252.704 83.651 246.188 87.2928 240.776C89.2792 237.794 91.7071 235.254 94.5764 233.045C94.6868 232.934 94.9075 232.824 95.0178 232.713C100.646 228.516 107.599 225.976 115.213 225.976H172.489C179.772 225.976 186.504 228.296 192.022 232.161C192.795 232.713 193.457 233.266 194.229 233.818C196.436 235.696 198.313 237.794 199.968 240.113C204.051 245.636 206.369 252.484 206.369 259.773Z" fill="#A16552"/>
<path d="M68.4212 90.4567C66.7658 96.5314 65.883 102.827 65.883 109.012C65.883 109.454 65.883 109.896 65.883 110.337C65.9933 117.958 65.0001 125.469 63.3447 132.758C59.8133 131.543 56.2818 129.003 52.8608 124.696C43.8114 113.319 46.9014 94.9851 57.9372 90.6776C62.1308 88.9105 65.6622 89.3522 68.4212 90.4567C68.4212 90.3463 68.4212 90.4567 68.4212 90.4567Z" fill="#A16552"/>
<path d="M68.4212 90.4567C66.7658 96.5314 65.883 102.827 65.883 109.012C65.883 109.454 65.883 109.896 65.883 110.337C65.9933 117.958 65.0001 125.469 63.3447 132.758C59.8133 131.543 56.2818 129.003 52.8608 124.696C43.8114 113.319 46.9014 94.9851 57.9372 90.6776C62.1308 88.9105 65.6622 89.3522 68.4212 90.4567C68.4212 90.3463 68.4212 90.4567 68.4212 90.4567Z" fill="#F5DCB4"/>
<path d="M234.289 124.585C230.868 128.893 227.336 131.433 223.805 132.648C222.15 125.248 221.156 117.737 221.267 110.227C221.267 109.785 221.267 109.343 221.267 108.902C221.267 102.716 220.384 96.4209 218.729 90.3463C221.487 89.2418 225.019 88.9105 229.212 90.5672C240.359 94.8746 243.338 113.209 234.289 124.585Z" fill="#A16552"/>
<path d="M234.289 124.585C230.868 128.893 227.336 131.433 223.805 132.648C222.15 125.248 221.156 117.737 221.267 110.227C221.267 109.785 221.267 109.343 221.267 108.902C221.267 102.716 220.384 96.4209 218.729 90.3463C221.487 89.2418 225.019 88.9105 229.212 90.5672C240.359 94.8746 243.338 113.209 234.289 124.585Z" fill="#F5DCB4"/>
<path d="M199.747 132.979C196.436 138.06 195.554 144.466 197.54 150.209C198.975 154.516 200.299 159.487 200.299 163.131C200.299 189.97 174.917 211.728 143.575 211.728C112.234 211.728 86.8513 189.97 86.8513 163.131C86.8513 159.487 88.1756 154.516 89.6102 150.209C91.5967 144.466 90.7138 138.06 87.4031 132.979C86.6306 131.764 85.9684 130.439 85.3063 129.113C83.5406 125.137 82.5474 120.83 82.5474 116.191C82.5474 98.409 97.6663 83.9403 116.427 83.9403C122.718 83.9403 128.566 85.597 133.643 88.4687C139.823 92.003 147.327 92.003 153.507 88.4687C158.584 85.597 164.433 83.9403 170.723 83.9403C189.373 83.9403 204.603 98.409 204.603 116.191C204.603 120.83 203.61 125.137 201.844 129.113C201.182 130.439 200.52 131.654 199.747 132.979Z" fill="#A16552"/>
<path d="M199.747 132.979C196.436 138.06 195.554 144.466 197.54 150.209C198.975 154.516 200.299 159.487 200.299 163.131C200.299 189.97 174.917 211.728 143.575 211.728C112.234 211.728 86.8513 189.97 86.8513 163.131C86.8513 159.487 88.1756 154.516 89.6102 150.209C91.5967 144.466 90.7138 138.06 87.4031 132.979C86.6306 131.764 85.9684 130.439 85.3063 129.113C83.5406 125.137 82.5474 120.83 82.5474 116.191C82.5474 98.409 97.6663 83.9403 116.427 83.9403C122.718 83.9403 128.566 85.597 133.643 88.4687C139.823 92.003 147.327 92.003 153.507 88.4687C158.584 85.597 164.433 83.9403 170.723 83.9403C189.373 83.9403 204.603 98.409 204.603 116.191C204.603 120.83 203.61 125.137 201.844 129.113C201.182 130.439 200.52 131.654 199.747 132.979Z" fill="#F5DCB4"/>
<path d="M114.661 169.096C112.675 169.096 111.13 170.863 111.461 172.74C113.447 187.099 127.132 198.254 143.575 198.254C160.129 198.254 173.703 187.099 175.689 172.74C175.91 170.752 174.365 169.096 172.489 169.096H114.661Z" fill="#4E3F3F"/>
<path d="M124.924 192.952C130.221 196.266 136.622 198.254 143.575 198.254C150.527 198.254 156.928 196.266 162.225 192.952C159.908 184.89 152.403 186.657 143.575 186.657C134.746 186.657 127.242 184.89 124.924 192.952Z" fill="#E6646E"/>
<path d="M233.075 84.603C226.343 81.9522 221.046 83.3881 217.294 85.4866C216.411 82.8358 215.307 80.1851 214.093 77.5343C213.21 75.6567 212.328 73.7791 211.334 71.9015C201.071 53.1254 183.745 37.4418 163.991 30.9254L163.55 20.2119L150.748 27.9433C150.196 27.8328 149.755 27.8328 149.203 27.8328C148.21 27.7224 147.327 27.7224 146.334 27.6119L144.458 19.5493L143.906 17.2299C143.244 17.2299 142.582 17.2299 142.03 17.3403C130.111 18.3343 124.152 29.1582 123.269 31.0358C103.405 37.6627 86.1889 53.2358 75.9257 72.0119C74.9325 73.8896 73.9393 75.7672 73.0564 77.6448C71.8425 80.2955 70.8492 82.9463 69.856 85.597C69.7457 85.4866 69.525 85.3761 69.4146 85.3761C65.6624 83.3881 60.586 82.2836 54.0749 84.7134C39.9491 90.2358 36.197 113.43 47.5638 128.009C52.1988 133.863 57.1649 137.176 61.9103 138.612C61.7999 138.833 61.7999 139.164 61.6896 139.385C60.8067 143.251 60.3653 147.227 60.3653 151.313C60.3653 179.036 80.7814 202.782 110.026 213.275C114.992 215.042 120.179 216.478 125.587 217.361C127.463 217.693 129.339 218.024 131.325 218.245C135.077 218.687 138.83 218.907 142.692 219.018C143.023 219.018 143.244 219.018 143.575 219.018C149.976 219.018 156.156 218.466 162.115 217.361C199.085 210.513 226.674 183.564 226.674 151.313C226.674 147.227 226.233 143.251 225.35 139.385C225.239 139.164 225.239 138.833 225.129 138.612C229.874 137.176 234.73 133.973 239.476 128.009C250.953 113.319 247.201 90.0149 233.075 84.603ZM68.4214 90.4567C66.766 96.5314 65.8832 102.827 65.8832 109.012C65.8832 109.454 65.8832 109.896 65.8832 110.337C65.9935 117.848 65.0003 125.469 63.3449 132.758C59.8135 131.543 56.282 129.003 52.861 124.696C43.8116 113.319 46.9016 94.9851 57.9374 90.6776C62.131 88.9105 65.6624 89.3522 68.4214 90.4567C68.4214 90.3463 68.4214 90.4567 68.4214 90.4567ZM201.844 129.113C201.292 130.439 200.519 131.764 199.747 132.979C196.436 138.06 195.553 144.466 197.54 150.209C198.974 154.516 200.299 159.487 200.299 163.131C200.299 184.448 184.297 202.451 162.115 209.078C156.266 210.845 150.086 211.728 143.575 211.728C137.285 211.728 131.325 210.845 125.587 209.299C103.074 202.893 86.8511 184.669 86.8511 163.242C86.8511 159.597 88.1754 154.627 89.61 150.319C91.5965 144.576 90.7136 138.17 87.4029 133.09C86.6304 131.875 85.8579 130.549 85.3061 129.224C83.5404 125.248 82.4368 120.94 82.4368 116.302C82.4368 98.5194 97.5558 84.0508 116.317 84.0508C122.607 84.0508 128.456 85.7075 133.532 88.5791C139.712 92.1134 147.217 92.1134 153.397 88.5791C158.473 85.7075 164.322 84.0508 170.612 84.0508C189.263 84.0508 204.492 98.5194 204.492 116.302C204.603 120.719 203.609 125.137 201.844 129.113ZM234.289 124.585C230.868 128.893 227.336 131.433 223.805 132.648C222.149 125.248 221.156 117.737 221.267 110.227C221.267 109.785 221.267 109.343 221.267 108.902C221.267 102.716 220.384 96.4209 218.728 90.3463C221.487 89.2418 225.019 88.9105 229.212 90.5672C240.358 94.8746 243.338 113.209 234.289 124.585Z" fill="#A16552"/>
<path d="M140.706 150.099C140.044 151.424 138.499 152.087 137.064 151.424L130.774 148.552C129.449 147.89 128.787 146.343 129.449 144.907C130.111 143.582 131.656 142.919 133.091 143.582L139.381 146.454C140.816 147.116 141.368 148.773 140.706 150.099Z" fill="#4E3F3F"/>
<path d="M146.444 150.099C147.106 151.424 148.651 152.087 150.086 151.424L156.377 148.552C157.701 147.89 158.363 146.343 157.701 144.907C157.039 143.582 155.494 142.919 154.059 143.582L147.769 146.454C146.444 147.116 145.893 148.773 146.444 150.099Z" fill="#4E3F3F"/>
<path d="M114.44 129.113C109.033 129.113 104.729 125.027 104.729 119.946V116.854C104.729 111.773 109.033 107.687 114.44 107.687C119.848 107.687 124.152 111.773 124.152 116.854V119.946C124.152 124.916 119.848 129.113 114.44 129.113Z" fill="#4E3F3F"/>
<path d="M114.44 107.576V118.29C114.44 120.83 116.648 122.928 119.296 122.928C121.945 122.928 124.152 120.83 124.152 118.29V116.743C124.152 111.663 119.848 107.576 114.44 107.576Z" fill="#5D5360"/>
<path d="M114.441 116.854C116.208 116.854 117.641 115.469 117.641 113.761C117.641 112.053 116.208 110.669 114.441 110.669C112.673 110.669 111.24 112.053 111.24 113.761C111.24 115.469 112.673 116.854 114.441 116.854Z" fill="white"/>
<path d="M172.709 129.113C167.302 129.113 162.998 125.027 162.998 119.946V116.854C162.998 111.773 167.302 107.687 172.709 107.687C178.117 107.687 182.421 111.773 182.421 116.854V119.946C182.421 124.916 178.117 129.113 172.709 129.113Z" fill="#4E3F3F"/>
<path d="M172.709 107.576V118.29C172.709 120.83 174.917 122.928 177.565 122.928C180.214 122.928 182.421 120.83 182.421 118.29V116.743C182.421 111.663 178.117 107.576 172.709 107.576Z" fill="#5D5360"/>
<path d="M172.709 116.854C174.477 116.854 175.91 115.469 175.91 113.761C175.91 112.053 174.477 110.669 172.709 110.669C170.942 110.669 169.509 112.053 169.509 113.761C169.509 115.469 170.942 116.854 172.709 116.854Z" fill="white"/>
<path d="M42.929 357.74C42.7083 357.74 42.5979 357.74 42.3772 357.74L33.4382 357.188C28.4721 356.857 24.6096 352.549 24.9407 347.579C25.2718 342.609 29.5757 338.743 34.5418 339.075H34.8729L40.0597 294.564C40.2804 292.687 41.0529 290.809 42.3772 289.484L93.5831 233.928C97.0042 230.284 102.743 229.952 106.385 233.376C110.026 236.8 110.357 242.543 106.936 246.188L57.7169 299.534L51.8679 349.788C51.3162 354.316 47.4536 357.74 42.929 357.74Z" fill="#A16552"/>
<path d="M238.924 304.725C236.386 304.725 233.958 303.731 232.192 301.854L180.986 246.299C177.565 242.654 177.786 236.8 181.538 233.487C185.18 230.063 191.029 230.284 194.34 234.039L233.406 276.451L245.656 215.263C246.318 211.839 248.856 209.188 252.167 208.304L268.39 203.887C273.245 202.561 278.211 205.433 279.536 210.293C280.86 215.152 277.991 220.122 273.135 221.448L262.32 224.319L247.753 297.436C247.09 300.749 244.552 303.51 241.352 304.394C240.469 304.615 239.697 304.725 238.924 304.725Z" fill="#A16552"/>
<path d="M193.898 278.991V370H93.8037V278.66C93.8037 277.445 93.9141 276.34 94.2451 275.236C95.3487 270.818 98.6594 267.504 102.743 266.069C105.391 265.075 108.481 264.964 111.461 265.958C134.084 273.358 155.714 273.137 176.351 266.29C179.552 265.185 182.752 265.406 185.511 266.621C189.042 268.057 191.912 271.149 193.236 274.904C193.677 276.23 193.898 277.555 193.898 278.991Z" fill="#F5DCB4"/>
<g clip-path="url(#clip1)">
<path d="M272.221 176.287C272.221 176.287 273.106 163.803 257.334 150.28C234.783 130.812 232.277 126.502 250.849 129.475C269.421 132.447 283.129 148.348 283.129 148.348" fill="#FFCA28"/>
<path d="M232.867 210.616L232.277 202.739L216.653 203.779C215.032 203.928 213.853 205.266 214 206.9L214.148 208.981C214.295 210.616 215.622 211.804 217.243 211.656L232.867 210.616Z" fill="#AC752C"/>
<path d="M232.867 210.616L232.572 206.603L214.147 207.941L214.295 208.981C214.442 210.616 215.769 211.804 217.39 211.656L232.867 210.616Z" fill="#7D551F"/>
<path d="M301.553 183.42C298.753 180.448 295.805 178.07 292.267 175.989C289.024 173.909 285.487 172.274 281.949 170.64C278.854 169.153 276.054 167.37 272.811 166.776C272.664 166.924 272.516 167.221 272.369 167.37C272.221 167.519 272.074 167.816 271.927 167.965C271.632 168.41 271.19 169.005 270.895 169.451L270.747 169.599C270.6 169.748 270.453 170.045 270.305 170.194C270.158 170.342 270.01 170.64 269.716 170.788C269.421 171.234 268.979 171.68 268.537 172.126C267.357 173.463 266.178 174.949 264.852 176.138C264.704 176.435 264.409 176.584 264.262 176.733C263.967 177.03 263.525 177.476 263.23 177.773C262.935 178.07 262.788 178.219 262.493 178.516C262.199 178.813 262.051 178.962 261.756 179.259L261.609 179.407C261.167 179.705 260.872 180.151 260.43 180.448C260.282 180.596 260.282 180.596 260.135 180.745C259.988 180.894 259.84 181.042 259.693 181.191C259.545 181.339 259.398 181.488 259.251 181.637C258.808 181.934 258.514 182.38 258.071 182.677C257.482 183.123 256.892 183.569 256.303 184.014C255.861 184.312 255.271 184.757 254.829 185.055C254.681 185.055 254.681 185.203 254.534 185.203C254.092 185.5 253.797 185.798 253.355 186.095C252.765 186.541 252.028 186.987 251.291 187.432C249.965 188.324 248.491 189.216 247.017 189.959C244.364 191.445 241.711 192.782 238.763 193.971C237.584 194.417 236.404 195.012 235.078 195.457C234.488 195.755 233.899 195.903 233.162 196.052C232.572 196.2 232.13 196.349 231.54 196.646C230.803 196.943 230.066 197.092 229.329 197.241C229.329 197.241 229.182 197.389 228.74 197.538C228.592 197.538 228.592 197.686 228.445 197.686L228.298 197.835L228.15 197.984C226.971 198.727 225.202 200.213 224.318 202.591V202.739C223.434 204.374 223.286 205.711 223.434 207.346C223.434 208.089 223.581 208.832 223.876 209.724C224.023 210.318 224.171 210.764 224.465 211.359C225.35 213.142 226.971 214.331 228.74 215.222C232.425 217.006 237.141 217.303 240.089 217.303C247.459 217.154 255.124 215.965 262.493 213.736C279.296 208.535 293.004 198.132 302.732 184.906C302.29 184.312 301.848 183.866 301.553 183.42Z" fill="#FFB300"/>
<path d="M281.95 170.64C278.854 169.153 276.054 167.37 272.811 166.776C272.664 166.924 272.516 167.221 272.369 167.37C272.222 167.519 272.074 167.816 271.927 167.965C271.779 168.113 271.632 168.41 271.485 168.559C271.337 168.856 271.042 169.153 270.895 169.451L270.748 169.599C270.6 169.748 270.453 170.045 270.305 170.194C270.158 170.342 270.011 170.64 269.716 170.788C269.568 170.937 269.421 171.234 269.126 171.383C268.979 171.68 268.684 171.828 268.537 172.126C268.242 172.571 267.8 173.017 267.505 173.463C267.505 173.612 267.358 173.612 267.358 173.76C267.21 173.909 267.063 174.206 266.768 174.355C266.326 174.801 266.031 175.246 265.589 175.692C265.441 175.989 265.147 176.138 264.999 176.435C264.852 176.733 264.557 176.881 264.41 177.03C264.115 177.327 263.673 177.773 263.378 178.07C263.083 178.367 262.936 178.516 262.641 178.813C262.346 179.11 262.199 179.259 261.904 179.556L261.756 179.705C261.314 180.002 261.02 180.448 260.577 180.745C260.43 180.894 260.43 180.894 260.283 181.042C260.135 181.191 259.988 181.339 259.84 181.488C259.693 181.637 259.546 181.785 259.398 181.934C258.956 182.231 258.661 182.677 258.219 182.974C257.777 183.271 257.482 183.569 257.04 183.866C256.892 184.014 256.598 184.163 256.45 184.46C256.008 184.757 255.418 185.203 254.976 185.5C254.829 185.5 254.829 185.649 254.682 185.649C254.239 185.946 253.945 186.244 253.502 186.541C253.208 186.838 252.913 186.987 252.471 187.135C252.176 187.432 251.734 187.581 251.439 187.878C250.997 188.175 250.407 188.473 249.965 188.77C249.67 188.919 249.375 189.067 249.08 189.216C248.491 189.662 247.754 189.959 247.164 190.405C246.722 190.702 246.28 190.85 245.838 191.148C245.101 191.445 244.511 191.891 243.774 192.188C243.332 192.485 242.89 192.634 242.448 192.931C241.711 193.228 241.121 193.525 240.384 193.971C239.942 194.12 239.5 194.417 239.058 194.566C238.321 194.863 237.436 195.16 236.699 195.457C236.405 195.606 236.11 195.755 235.815 195.755C235.668 195.755 235.52 195.903 235.52 195.903C234.931 196.2 234.341 196.349 233.604 196.498C233.014 196.646 232.425 196.795 231.983 197.092C231.246 197.389 230.509 197.538 229.772 197.686C229.772 197.686 229.624 197.835 229.182 197.984C229.035 197.984 229.035 198.132 228.887 198.132L228.74 198.281L228.593 198.43C227.413 199.173 225.645 200.659 224.76 203.036V203.185C223.434 204.374 223.286 205.711 223.434 207.346C223.434 208.089 223.581 208.832 223.876 209.724H224.023C226.971 209.724 229.919 209.575 232.867 209.278C237.141 208.832 241.269 208.089 245.543 206.9C246.427 206.603 247.459 206.306 248.344 206.009C265.441 200.659 279.591 189.959 289.319 176.287C289.614 175.841 290.056 175.246 290.351 174.801C287.551 173.314 284.75 171.977 281.95 170.64Z" fill="#FFD54F"/>
<path d="M304.648 181.785L289.171 176.287L270.6 169.748L270.747 169.599C270.894 169.302 271.189 169.005 271.337 168.708C271.484 168.559 271.631 168.262 271.779 168.113C271.926 167.965 272.074 167.667 272.221 167.519C272.663 166.924 272.958 166.33 273.4 165.884C273.695 165.587 273.842 165.141 274.137 164.695C274.579 163.952 275.169 163.209 275.611 162.466C275.758 162.169 275.906 162.02 276.053 161.723C276.053 161.574 276.201 161.574 276.201 161.426C276.495 160.98 276.79 160.534 276.938 160.088C277.232 159.642 277.527 159.048 277.822 158.602C278.117 158.008 278.412 157.413 278.706 156.819C279.001 156.373 279.149 155.779 279.443 155.333C279.738 154.887 279.886 154.292 280.18 153.698C280.328 153.549 280.328 153.401 280.475 153.252C280.622 152.955 280.77 152.509 280.917 152.212C280.917 152.212 280.917 152.212 280.917 152.063C281.065 151.617 281.359 151.023 281.507 150.577C281.507 150.429 281.654 150.28 281.654 150.28C281.654 150.131 281.802 150.131 281.802 149.983C281.949 149.686 282.096 149.24 282.244 148.942C282.391 148.645 282.539 148.348 282.539 148.051C282.686 147.754 282.833 147.456 282.833 147.159L282.981 146.862C282.981 146.713 283.128 146.416 283.128 146.267C283.128 146.119 283.276 145.822 283.276 145.673C283.718 144.336 284.013 143.147 284.455 141.809C284.602 141.215 284.75 140.472 284.897 139.877C285.192 138.986 285.339 137.945 285.487 137.054V136.756C285.487 136.608 285.487 136.608 285.487 136.459C285.781 135.419 285.929 134.23 286.076 133.19C286.076 132.893 286.223 132.447 286.223 132.001C286.223 131.704 286.371 131.258 286.371 130.812C286.371 130.366 286.518 129.92 286.518 129.475C286.518 129.177 286.518 128.88 286.666 128.732C286.666 128.286 286.813 127.691 286.813 127.245C286.813 126.8 286.96 126.354 286.96 125.908C286.96 125.165 287.108 124.422 287.108 123.53C287.108 123.084 287.108 122.787 287.108 122.341C287.108 122.193 287.108 122.044 287.108 121.895C287.108 121.747 287.108 121.598 287.108 121.45C287.108 121.152 287.108 120.855 287.108 120.558C287.108 120.261 287.108 119.815 287.108 119.518C287.108 118.329 287.108 117.289 286.96 116.1V115.951C286.96 114.911 286.813 113.871 286.666 112.83C286.518 108.521 284.897 98.5638 285.634 91.5791C285.929 88.3097 286.813 85.7833 288.582 84.5944C288.729 84.4458 289.024 84.2972 289.319 84.1486C289.614 84 289.761 84 290.056 84C292.856 83.7028 295.067 84.4458 297.278 85.4861C301.553 87.7152 304.648 91.7277 304.943 92.1735C309.07 98.4151 312.46 105.4 314.671 112.83C322.188 137.202 317.766 162.317 304.648 181.785Z" fill="#FFD770"/>
<path d="M289.172 176.287C303.321 156.522 308.333 130.515 300.668 105.548C298.752 99.3068 296.099 93.3624 292.856 88.0125C292.414 87.2694 291.825 86.3778 291.382 85.6347C291.088 85.1889 290.793 84.5944 290.351 84.1486C290.056 84.1486 289.761 84.2972 289.614 84.2972C289.319 84.4458 289.172 84.5944 288.877 84.7431C287.108 85.9319 286.371 88.4583 285.929 91.7277C285.192 98.7124 286.813 108.669 286.961 112.979C287.108 114.019 287.108 115.059 287.255 116.1V116.248C287.255 117.437 287.403 118.477 287.403 119.666C287.403 119.815 287.403 119.815 287.403 119.964V120.707C287.403 121.004 287.403 121.301 287.403 121.598C287.403 121.747 287.403 121.896 287.403 122.044C287.403 122.193 287.403 122.341 287.403 122.49C287.403 122.936 287.403 123.233 287.403 123.679C287.403 124.422 287.255 125.165 287.255 126.057C287.255 126.502 287.255 126.948 287.108 127.394C287.108 127.84 286.961 128.434 286.961 128.88C286.961 129.177 286.961 129.475 286.813 129.623C286.813 130.069 286.666 130.515 286.666 130.961C286.666 131.407 286.518 131.704 286.518 132.15C286.518 132.595 286.371 132.893 286.371 133.338C286.224 134.379 285.929 135.568 285.781 136.608C285.781 136.756 285.781 136.756 285.781 136.905V137.202C285.634 138.094 285.339 139.134 285.192 140.026C285.044 140.62 284.897 141.363 284.75 141.958C284.455 143.295 284.013 144.484 283.571 145.822C283.571 145.97 283.423 146.268 283.423 146.416C283.423 146.565 283.276 146.862 283.276 147.011L283.128 147.308C282.981 147.605 282.981 147.902 282.834 148.199C282.686 148.497 282.539 148.794 282.539 149.091C282.391 149.388 282.244 149.834 282.097 150.131C282.097 150.28 281.949 150.28 281.949 150.429C281.949 150.577 281.802 150.726 281.802 150.726C281.654 151.32 281.36 151.766 281.212 152.212C281.212 152.212 281.212 152.212 281.212 152.361C281.065 152.658 280.917 153.104 280.77 153.401C280.77 153.549 280.623 153.698 280.475 153.847C280.18 154.441 280.033 154.887 279.738 155.481C279.443 155.927 279.296 156.522 279.001 156.967C278.706 157.562 278.412 158.156 278.117 158.751C277.822 159.197 277.527 159.791 277.233 160.237C276.938 160.683 276.643 161.128 276.496 161.574C276.496 161.723 276.348 161.723 276.348 161.872C276.201 162.169 276.053 162.317 275.906 162.615C275.464 163.358 275.022 164.101 274.432 164.844C274.137 165.141 273.99 165.587 273.695 166.033C273.253 166.627 272.958 167.221 272.516 167.667C272.368 167.816 272.221 168.113 272.074 168.262C271.926 168.41 271.779 168.708 271.632 168.856C271.484 169.153 271.189 169.451 271.042 169.748L270.895 169.896L289.172 176.287Z" fill="#FFEA8C"/>
<path d="M270.6 169.748C270.6 169.748 287.255 175.989 293.888 182.677C304.353 193.228 308.333 196.498 302.29 228.151C301.995 229.34 301.847 230.529 301.7 231.57C301.11 236.771 300.521 250.146 321.156 219.235C345.919 182.082 310.838 171.68 310.838 171.68C297.868 167.965 284.16 167.519 270.6 169.748Z" fill="#FFCA28"/>
</g>
</g>
<defs>
<linearGradient id="paint0_linear" x1="372.13" y1="187.339" x2="460.245" y2="298.928" gradientUnits="userSpaceOnUse">
<stop stop-color="#7D551F" stop-opacity="0.2"/>
<stop offset="1" stop-color="#7D551F" stop-opacity="0"/>
</linearGradient>
<clipPath id="clip0">
<rect width="537" height="370" fill="white"/>
</clipPath>
<clipPath id="clip1">
<rect width="116" height="155" fill="white" transform="translate(214 84)"/>
</clipPath>
</defs>
</svg>
