<svg width="12" height="14" viewBox="0 0 12 14" fill="none" xmlns="http://www.w3.org/2000/svg">
<path d="M11.2359 8.3195C11.17 8.38717 10.9211 8.6765 10.6892 8.9145C9.32992 10.4113 5.78389 12.8613 3.92791 13.6092C3.64605 13.7293 2.93343 13.9837 2.55269 14C2.18786 14 1.84007 13.916 1.5082 13.7457C1.0945 13.5077 0.762624 13.1332 0.580776 12.691C0.463712 12.3842 0.281864 11.466 0.281864 11.4497C0.100016 10.4452 0 8.813 0 7.00933C0 5.29083 0.100016 3.72517 0.248904 2.7055C0.265952 2.68917 0.4478 1.54817 0.646696 1.15733C1.01153 0.443333 1.72414 0 2.48677 0L2.55269 0C3.04936 0.0175 4.09385 0.460833 4.09385 0.477167C5.84981 1.22617 9.31401 3.556 10.7063 5.10417C10.7063 5.10417 11.0984 5.502 11.2689 5.7505C11.5348 6.1075 11.6667 6.54967 11.6667 6.99183C11.6667 7.48533 11.5178 7.945 11.2359 8.3195Z" fill="#FAFAFA"/>
</svg>
