<svg width="423" height="299" viewBox="0 0 423 299" fill="none" xmlns="http://www.w3.org/2000/svg">
<path d="M378.466 192.931C377.81 188.341 376.496 184.406 375.183 179.816C367.301 151.618 373.212 122.108 364.674 93.9098C364.674 93.9098 364.674 93.9098 364.674 93.254C349.567 38.8251 305.562 -9.70191 253.018 -27.4077L252.361 -48.3924L226.089 -32.6539C222.805 -33.3096 220.178 -33.3096 216.894 -33.3096C216.237 -37.2443 212.953 -51.6712 212.296 -54.9501C188.652 -56.2616 170.918 -31.3423 170.261 -26.7519C117.061 -9.04614 73.0551 39.4809 57.9487 93.9098C50.0671 122.108 55.9783 151.618 48.0968 179.816C44.8128 192.275 42.1856 204.079 42.1856 217.195C40.872 297.199 129.54 356.874 209.669 354.906C312.787 356.218 396.857 282.116 378.466 192.931Z" stroke="white" stroke-width="3" stroke-linecap="round" stroke-linejoin="round"/>
<path d="M44.8131 191.62C34.9611 188.341 25.1091 181.783 15.9139 169.979C-7.73082 140.47 0.150759 93.2542 29.0499 82.1061C42.1859 76.8599 52.6946 79.483 59.9194 83.4176C60.5762 83.4176 60.5762 84.0734 61.233 84.0734" stroke="white" stroke-width="3" stroke-linecap="round" stroke-linejoin="round"/>
<path d="M361.39 84.0732C369.272 79.4828 379.78 76.8597 393.573 82.1059C422.472 93.254 430.354 140.469 406.709 169.979C397.514 181.783 387.005 188.341 377.81 191.62" stroke="white" stroke-width="3" stroke-linecap="round" stroke-linejoin="round"/>
<path d="M329.864 159.487C333.804 151.618 335.775 142.437 335.775 133.256C335.775 97.1886 304.905 67.679 266.811 67.679C253.675 67.679 241.853 70.9578 231.344 76.8597C218.865 84.0732 203.101 84.0732 190.622 76.8597C180.113 70.9578 168.291 67.679 155.155 67.679C117.061 67.679 86.1912 97.1886 86.1912 133.256C86.1912 142.437 88.1616 151.618 92.1023 159.487C93.4159 162.11 94.7295 164.733 96.6999 167.356C103.268 177.848 105.238 190.964 101.298 202.768C98.0135 211.948 95.3863 221.785 95.3863 228.998C95.3863 283.427 147.273 328.02 210.983 328.02C274.692 328.02 326.58 284.083 326.58 228.998C326.58 221.785 323.952 211.293 320.668 202.768C316.728 190.964 318.698 177.848 325.266 167.356C327.236 164.733 329.207 162.11 329.864 159.487Z" stroke="white" stroke-width="3" stroke-linecap="round" stroke-linejoin="round"/>
<path d="M152.528 240.802C148.588 240.802 145.304 244.081 145.96 248.016C149.901 277.525 178.143 299.822 211.64 299.822C245.137 299.822 273.379 277.525 277.32 248.016C277.977 244.081 274.693 240.802 270.752 240.802H152.528Z" stroke="white" stroke-width="3" stroke-linecap="round" stroke-linejoin="round"/>
<path d="M173.546 289.33C184.055 295.887 197.191 300.478 211.64 300.478C226.09 300.478 239.226 296.543 249.735 289.33C245.137 272.935 229.374 276.87 211.64 276.87C193.25 276.87 178.144 272.935 173.546 289.33Z" stroke="white" stroke-width="3" stroke-linecap="round" stroke-linejoin="round"/>
<path d="M205.729 202.112C204.415 204.735 201.131 206.046 198.504 204.735L185.368 198.833C182.741 197.521 181.427 194.242 182.741 191.619C184.055 188.996 187.339 187.685 189.966 188.996L203.102 194.898C205.729 196.21 207.042 199.489 205.729 202.112Z" fill="white"/>
<path d="M217.55 202.112C218.864 204.735 222.148 206.046 224.775 204.735L237.911 198.833C240.538 197.521 241.852 194.242 240.538 191.619C239.224 188.996 235.94 187.685 233.313 188.996L220.177 194.898C217.55 196.21 216.236 199.489 217.55 202.112Z" fill="white"/>
<path d="M151.871 159.487C140.705 159.487 132.167 150.962 132.167 140.47V133.912C132.167 123.42 141.362 114.895 151.871 114.895C163.037 114.895 171.575 123.42 171.575 133.912V140.47C171.575 150.962 163.037 159.487 151.871 159.487Z" stroke="white" stroke-width="3" stroke-linecap="round" stroke-linejoin="round"/>
<path d="M270.752 159.487C259.586 159.487 251.048 150.962 251.048 140.47V133.912C251.048 123.42 260.243 114.895 270.752 114.895C281.917 114.895 290.455 123.42 290.455 133.912V140.47C290.455 150.962 281.917 159.487 270.752 159.487Z" stroke="white" stroke-width="3" stroke-linecap="round" stroke-linejoin="round"/>
</svg>
