<svg width="1380" height="300" viewBox="0 0 1380 300" fill="none" xmlns="http://www.w3.org/2000/svg">
<g clip-path="url(#clip0_3697:8212)">
<path fill-rule="evenodd" clip-rule="evenodd" d="M186.248 413.51L404.478 -30H-275.371V413.51H186.248Z" fill="#59182C"/>
<path fill-rule="evenodd" clip-rule="evenodd" d="M-224.201 413.51H736.487L837.417 362.97L844.716 313.01L1246.4 72.63L1307.53 -5.59L1342.16 -30H-200.681L-207.871 88.5L-199.291 113.44L-224.201 413.51Z" fill="#59182C"/>
<path d="M235.588 -30L319.148 201.33L403.048 339.07L343.518 -30H235.588Z" fill="#A43E38"/>
<path d="M18.0986 -30L174.558 129.5L235.248 37.17L222.218 -30H18.0986Z" fill="#A43E38"/>
<path d="M590.877 -30L535.147 191.9L607.687 -30H590.877Z" fill="#A43E38"/>
<path d="M749.557 -30L742.217 22.08L770.777 73.28L798.896 -30H749.557Z" fill="#A43E38"/>
<path d="M846.366 -30V6.98L1104.59 88.12L1160.89 -30H846.366Z" fill="#A43E38"/>
<path fill-rule="evenodd" clip-rule="evenodd" d="M311.418 218.31L268.568 110.6L259.048 129.5L285.238 277.43L334.028 295.04L311.418 218.31Z" fill="#A43E38"/>
<path fill-rule="evenodd" clip-rule="evenodd" d="M844.717 313.01L674.127 237.18L655.337 248.5L767.207 325.24L716.037 312.65L837.417 362.97L844.717 313.01Z" fill="#A43E38"/>
<g style="mix-blend-mode:multiply" opacity="0.5">
<path d="M736.487 413.51L837.417 362.97L716.037 312.65L644.037 248.5L674.127 237.18L844.717 313.01L1246.4 72.63L1297.38 -17.55L1200.99 -8.11L1206.21 -30H1177.22L1104.59 88.12L860.037 22.08L846.367 6.98V-30H798.897L770.777 73.28L742.217 22.08L749.557 -30H619.857L585.737 37.13L535.148 191.9L588.377 -30H551.087L444.108 237.18L467.818 -30H430.768L403.048 136.55L410.188 339.07L319.148 201.33L334.028 295.04L285.238 277.43L235.248 37.17L259.048 171.77L154.918 362.97L-12.8812 248.5L-78.9211 48.49L-87.6311 -30H-248.561L-275.371 155.42L-275.891 413.51H736.487Z" fill="#AE9AFF"/>
</g>
<g style="mix-blend-mode:multiply" opacity="0.5">
<path d="M-4.40137 -30L45.1386 54.15L108.508 88.12L130.498 117.91L168.908 155.42L174.558 129.5L18.0986 -30H-4.40137Z" fill="#AE9AFF"/>
</g>
<g style="mix-blend-mode:multiply" opacity="0.5">
<path d="M222.628 -30L235.248 37.17L227.798 48.51L259.048 88.12L270.048 114.31L289.578 163.41L294.598 133.37L235.588 -30H222.628Z" fill="#AE9AFF"/>
</g>
<g style="mix-blend-mode:multiply" opacity="0.5">
<path d="M347.438 -30L410.188 339.07L444.108 237.18L467.818 -30H347.438Z" fill="#AE9AFF"/>
</g>
<g style="mix-blend-mode:soft-light" opacity="0.5">
<g style="mix-blend-mode:soft-light" opacity="0.5">
<path d="M18.0986 -30L122.538 76.47L114.128 -30H18.0986Z" fill="#A43E38"/>
</g>
<g style="mix-blend-mode:soft-light" opacity="0.5">
<path d="M277.708 -30L284.338 39.06L270.948 29.32L263.498 -30H237.788L238.548 -21.8L319.148 201.33L349.498 256.05L318.008 -30H277.708Z" fill="#A43E38"/>
</g>
<g style="mix-blend-mode:soft-light" opacity="0.5">
<path d="M864.116 -30L937.686 35.67L949.346 -30H864.116Z" fill="#A43E38"/>
</g>
</g>
<path fill-rule="evenodd" clip-rule="evenodd" d="M69.1785 22.0801L174.558 98.8101H191.818L174.558 129.5L69.1785 22.0801Z" fill="#882D3B"/>
<path d="M846.366 -30V6.98L937.686 35.67L864.116 -30H846.366Z" fill="#81202F"/>
<path fill-rule="evenodd" clip-rule="evenodd" d="M1065.36 75.7902L1124.23 48.4902L1104.59 88.1202L1065.36 75.7902Z" fill="#81202F"/>
<path d="M749.557 -30L742.217 22.08L751.157 38.11L755.427 -30H749.557Z" fill="#81202F"/>
<g style="mix-blend-mode:soft-light" opacity="0.2">
<g style="mix-blend-mode:soft-light" opacity="0.2">
<path d="M373.198 -30L387.878 76.47L399.568 -30H373.198Z" fill="#ECE7E5"/>
</g>
</g>
<g style="mix-blend-mode:multiply" opacity="0.5">
<path d="M505.287 413.51L655.337 248.5L683.897 155.42L458.428 413.51H505.287Z" fill="#AE9AFF"/>
</g>
<g style="mix-blend-mode:soft-light">
<g style="mix-blend-mode:soft-light">
<path fill-rule="evenodd" clip-rule="evenodd" d="M1027.83 16.8902L1034.53 -0.569824H1046.58L1037.2 20.6602L1027.83 16.8902Z" fill="#D0C0CC"/>
</g>
<g style="mix-blend-mode:soft-light">
<path fill-rule="evenodd" clip-rule="evenodd" d="M130.498 -11.89L156.038 29.32L174.558 22.08L140.638 -23.21L130.498 -11.89Z" fill="#D0C0CC"/>
</g>
<g style="mix-blend-mode:soft-light">
<path fill-rule="evenodd" clip-rule="evenodd" d="M182.588 22.0798L191.818 18.2998V26.3198L187.198 29.3198L182.588 22.0798Z" fill="#D0C0CC"/>
</g>
</g>
<path d="M-141.401 23.81L-102.321 147.73L-87.5211 155.42L-34.2212 195.34L-21.6513 231.99L-18.9013 264.06L-12.8813 347.88L62.6885 386.87L97.0285 413.51H128.998L94.2284 375.55L-5.7413 339.07L-12.8813 248.5L-30.4313 195.34L-96.1411 147.42L-146.641 -0.57L-175.531 -30H-200.681L-200.751 -28.87L-152.061 -1.51L-141.401 23.81Z" fill="#FF4A2F"/>
<path fill-rule="evenodd" clip-rule="evenodd" d="M1012.48 -5.59L977.846 -30H1472.94V311.61L1073.61 72.63L1012.48 -5.59Z" fill="#59182C"/>
<path d="M1472.94 -30V7.2L1215.42 88.12L1159.12 -30H1472.94Z" fill="#A43E38"/>
<g style="mix-blend-mode:multiply" opacity="0.5">
<path d="M1022.63 -17.55L1119.02 -8.11L1113.8 -30H1142.78L1215.42 88.12L1459.96 22.08L1472.94 7.75V311.61L1073.61 72.63L1022.63 -17.55Z" fill="#AE9AFF"/>
</g>
<g style="mix-blend-mode:soft-light" opacity="0.5">
<g style="mix-blend-mode:soft-light" opacity="0.5">
<path d="M1455.89 -30L1382.32 35.67L1370.66 -30H1455.89Z" fill="#A43E38"/>
</g>
</g>
<path fill-rule="evenodd" clip-rule="evenodd" d="M1254.65 75.7902L1195.78 48.4902L1215.42 88.1202L1254.65 75.7902Z" fill="#81202F"/>
<g style="mix-blend-mode:soft-light">
<g style="mix-blend-mode:soft-light">
<path fill-rule="evenodd" clip-rule="evenodd" d="M1292.18 16.8902L1285.48 -0.569824H1273.43L1282.8 20.6602L1292.18 16.8902Z" fill="#D0C0CC"/>
</g>
</g>
<path d="M1408.77 120.12H-553.39V375.82H1408.77V120.12Z" fill="#D88200"/>
<path d="M1167.22 181.88C1101.8 181.94 1036.22 181.88 970.966 181.13C938.556 180.75 905.967 180.29 874.297 179.3C818.177 177.553 762.8 175.427 708.167 172.92C644.757 170.11 580.337 167.07 522.117 162.72C498.397 160.94 440.628 156.72 457.048 152.09C466.938 149.28 494.207 147.99 515.927 147.6C560.367 146.8 607.207 148.01 650.927 148.99C703.157 150.18 755.687 151.14 808.067 152.2C844.067 152.92 880.15 153.557 916.317 154.11C951.316 154.58 986.436 154.8 1021.44 155.27C1149.97 157.02 1279.34 159.99 1408.72 158.82V151.98C1312.35 152.7 1216.43 152.98 1119.86 152.4C968.406 151.4 821.597 146.27 672.397 143.22C596.047 141.67 518.798 140.64 441.458 141.06C364.858 141.48 289.108 143.06 214.158 145.06C67.4985 149.06 -77.661 154.74 -227.911 156.06C-336.72 157 -445.12 155.97 -553.33 154.58V160.81C-506.09 163.37 -452.71 163.72 -402.13 163.45C-343.361 163.13 -285.181 161.97 -226.961 160.96C-166.091 159.9 -105.121 159.08 -44.3012 157.96C23.3087 156.65 91.6982 155.37 160.228 155.57C294.148 155.97 418.228 163.67 537.077 170.98C656.867 178.36 778.807 186.04 912.076 188.2C1063.13 190.64 1215.39 189.37 1367.08 189.2C1381.08 189.2 1394.94 189.2 1408.82 189.2V182.09C1328.33 181.53 1247.43 181.81 1167.22 181.88Z" fill="#E9CE00"/>
<path d="M824.317 218.3C849.887 215.88 884.937 215.35 915.607 215C956.696 214.53 998.046 214.59 1039.25 214.29C1163.98 213.36 1285.47 209.46 1408.77 207.12V202.12C1343.09 202.787 1277.73 203.787 1212.68 205.12C1149.5 206.4 1086.83 208.18 1023.27 209.04C860.126 211.29 696.837 208.88 533.797 207.79C452.908 207.25 370.658 206.79 289.968 207.94C215.308 208.94 142.308 211.31 71.0984 214.33C2.28857 217.25 -64.9709 220.72 -132.791 224.01C-199.451 227.23 -266.71 230.47 -336.87 232.17C-407.93 233.9 -480.63 234.65 -553.34 234.64V243.21L-546.15 243.27C-508 243.57 -469.85 244.04 -431.65 244.27C-405.98 244.43 -380.91 244.48 -355.85 243.68C-323.79 242.68 -292.231 241.37 -260.321 240.26C-224.021 238.99 -186.721 237.67 -149.061 237.26C-130.141 237.07 -105.771 236.89 -97.0608 239.52C-82.8809 243.79 -115.641 248.24 -137.661 250.85C-182.451 256.18 -236.43 260.25 -289.56 264.02C-355.08 268.65 -422.74 272.76 -491.25 276.58C-511.917 277.74 -532.623 278.863 -553.37 279.95V291.02C-452.75 289.67 -360.42 283.02 -280.37 275.34C-189.841 266.67 -109.791 256.34 -31.5014 245.9C2.60846 241.36 36.3687 236.77 71.3186 232.33C113.619 226.98 161.048 222.56 215.778 219.54C270.108 216.54 328.038 214.79 386.778 214.08C444.858 213.37 507.778 213.08 564.647 214.99C669.007 218.54 744.417 228.91 817.367 238.52C854.266 243.39 891.417 248.29 934.966 252.18C976.516 255.88 1021.51 258.93 1067.97 261.46C1171.69 267.11 1283.2 270.62 1395.19 272.03L1408.72 272.2V262.61C1394.65 262.47 1380.52 262.353 1366.33 262.26C1316.9 261.97 1267.26 261.76 1218.22 260.83C1104.31 258.69 991.056 252.27 902.826 242.69C865.426 238.63 827.276 233.62 809.827 227.6C800.057 224.29 800.157 220.59 824.317 218.3Z" fill="#E9CE00"/>
<path d="M951.957 288.53C895.077 286.01 843.857 282.43 792.317 278.42C738.637 274.24 683.317 270.36 625.527 267.26C512.627 261.2 389.988 258.15 267.898 259.35C72.6487 261.28 -88.241 277.23 -245.241 291.08C-322.54 297.89 -401.891 304.57 -488.77 309.08C-510.004 310.18 -531.543 311.127 -553.39 311.92V322.99C-524.78 321.51 -496.39 319.9 -467.85 318.48C-405.13 315.36 -344.21 311.55 -288.031 306.71C-181.871 297.56 -95.3309 283.42 29.8988 278.48C93.5687 275.97 160.028 276.48 224.348 278.33C293.558 280.33 360.478 283.57 425.348 287.28C489.517 290.94 546.347 296.28 605.517 301.14C667.287 306.14 731.897 310.42 803.607 312.34C954.356 316.34 1110.96 313.57 1260.87 310.34C1310.2 309.26 1359.49 308.147 1408.72 307V290.46C1259.6 295.54 1097.42 294.98 951.957 288.53Z" fill="#E9CE00"/>
<path d="M657.516 202.241C656.519 200.374 655.362 198.597 654.056 196.931C653.146 195.801 651.526 194.541 651.316 193.091C651.056 194.901 649.886 196.201 648.536 197.941C646.486 193.111 646.686 187.541 642.796 183.501C640.616 181.241 637.146 179.611 635.556 176.901C634.506 175.091 634.136 172.781 633.226 170.901C632.076 175.661 631.726 179.321 628.746 183.431C625.766 187.541 626.676 193.041 623.446 196.761C619.886 200.861 621.176 189.571 621.056 187.971C621.011 186.253 620.648 184.557 619.986 182.971C619.436 181.551 619.376 177.881 620.706 174.661C619.386 175.461 615.706 181.871 614.456 183.161C613.186 181.791 613.166 179.421 612.716 177.631C612.095 175.411 611.244 173.263 610.176 171.221C609.116 169.051 607.176 166.471 607.006 164.011C607.196 170.431 599.456 175.631 596.136 180.311C594.046 183.163 592.674 186.476 592.136 189.971C591.876 191.971 592.136 195.021 590.956 196.671C590.296 194.431 590.486 192.031 589.356 189.901C588.416 188.141 586.486 187.251 586.036 185.301C587.416 191.301 578.416 202.551 576.416 207.051C574.416 210.711 571.236 211.381 574.556 214.771L599.916 215.551L657.506 213.831C658.146 209.771 659.576 206.021 657.516 202.241ZM607.776 162.881C607.776 162.771 607.776 162.661 607.776 162.551C607.766 162.661 607.766 162.771 607.776 162.881Z" fill="#E9CE00"/>
<path d="M657.496 198.501C656.5 196.634 655.342 194.857 654.036 193.191C653.126 192.061 651.506 190.801 651.296 189.351C651.036 191.161 649.866 192.46 648.516 194.201C646.466 189.371 646.666 183.801 642.776 179.761C640.596 177.501 637.126 175.871 635.536 173.161C634.486 171.351 634.116 169.041 633.206 167.161C632.056 171.921 631.706 175.581 628.726 179.691C625.746 183.801 626.656 189.301 623.426 193.021C619.866 197.121 621.156 185.831 621.036 184.231C620.996 182.512 620.633 180.816 619.966 179.231C619.416 177.811 619.366 174.141 620.686 170.921C619.366 171.721 615.686 178.131 614.446 179.421C613.166 178.051 613.146 175.681 612.696 173.891C612.075 171.672 611.225 169.523 610.156 167.481C609.096 165.311 607.156 162.731 606.986 160.271C607.176 166.691 599.436 171.891 596.116 176.571C594.021 179.42 592.648 182.735 592.116 186.231C591.846 188.231 592.116 191.281 590.926 192.931C590.266 190.691 590.456 188.291 589.326 186.161C588.386 184.401 586.456 183.511 586.006 181.561C587.386 187.561 578.006 193.561 575.496 198.121C573.496 201.781 570.066 204.421 573.386 207.811H580.386C580.116 205.41 582.386 203.431 582.886 202.811C584.886 200.311 585.146 201.431 585.836 197.441C586.026 198.911 587.336 200.111 587.966 201.441C588.529 202.351 589.004 203.312 589.386 204.311C590.386 201.601 590.946 202.051 593.096 199.911C595.004 198.055 596.405 195.742 597.166 193.191C598.006 190.191 598.376 187.441 599.816 184.741C601.256 182.041 603.356 180.091 605.086 177.801C605.376 177.691 605.806 177.261 605.676 176.971C605.486 177.251 605.286 177.521 605.086 177.801C604.396 179.921 607.356 184.001 607.706 185.711C608.057 187.604 608.127 189.538 607.916 191.451C609.516 188.361 613.506 187.451 615.796 184.871C615.976 184.281 615.716 184.151 616.576 183.291C615.716 184.151 615.716 184.151 615.796 184.871C614.916 187.751 617.736 191.781 618.956 193.971C620.646 196.971 622.536 202.971 620.796 206.281C622.986 201.951 627.026 199.451 630.006 195.601C632.986 191.751 632.356 185.811 635.906 182.531C633.556 186.701 640.126 190.201 641.776 193.441C643.426 196.681 644.996 202.441 643.506 205.721C644.386 203.461 649.026 201.801 649.886 200.091C649.905 199.9 649.948 199.711 650.016 199.531C650.021 199.726 649.976 199.919 649.886 200.091C649.736 201.281 650.396 202.701 650.516 203.941C650.592 205.588 650.488 207.237 650.206 208.861C650.138 209.463 650.038 210.06 649.906 210.651L657.476 210.091C658.126 206.031 659.556 202.281 657.496 198.501Z" fill="#D88200"/>
<path d="M767.556 229.771L813.976 185.211L815.246 186.571C815.695 187.051 816.045 187.614 816.275 188.229C816.506 188.844 816.614 189.499 816.591 190.156C816.569 190.812 816.417 191.458 816.145 192.056C815.873 192.654 815.486 193.193 815.006 193.641L779.056 226.771C778.576 227.219 777.172 228.041 776.556 228.271C775.941 228.501 774.213 229.794 773.556 229.771C771.273 229.691 772.654 230.043 772.056 229.771C769.056 229.771 770.004 230.252 769.556 229.771H767.556Z" fill="#434A54"/>
<path d="M705.628 80.0333L616.008 163.664C609.951 169.316 609.623 178.808 615.275 184.865L658.556 229.771C677.056 229.771 750.056 229.771 761.056 229.771L809.726 191.587C815.783 185.935 816.111 176.444 810.459 170.387L726.828 80.7662C721.176 74.7095 711.685 74.3813 705.628 80.0333Z" fill="#656D78"/>
<path d="M756.276 136.79C764.307 145.394 769.606 156.187 771.503 167.803C773.4 179.419 771.81 191.338 766.934 202.05C762.057 212.763 755.533 221.881 745.056 226.771C737.556 230.271 723.278 229.771 712.056 229.771C700.834 229.771 689.056 230.271 678.024 225.707C668.469 218.834 661.166 209.284 657.039 198.261C652.912 187.238 652.147 175.24 654.839 163.782C657.532 152.324 663.562 141.921 672.166 133.89C677.879 128.558 684.587 124.403 691.906 121.663C699.225 118.923 707.011 117.651 714.822 117.921C722.632 118.19 730.313 119.995 737.426 123.232C744.539 126.47 750.944 131.077 756.276 136.79Z" fill="#434A54"/>
<path d="M749.026 143.561C755.718 150.731 760.133 159.725 761.713 169.405C763.294 179.085 761.968 189.016 757.904 197.942C753.84 206.869 747.221 214.389 738.882 219.554C730.544 224.718 720.862 227.294 711.06 226.955C701.258 226.617 691.776 223.38 683.814 217.653C675.852 211.925 669.767 203.966 666.329 194.78C662.89 185.595 662.253 175.596 664.497 166.048C666.741 156.501 671.766 147.833 678.936 141.141C688.553 132.169 701.338 127.385 714.482 127.838C727.626 128.292 740.051 133.948 749.026 143.561Z" fill="#656D78"/>
<path d="M746.026 167.161L716.396 174.011L725.276 144.921C725.385 144.606 725.429 144.272 725.406 143.94C725.383 143.608 725.294 143.283 725.143 142.987C724.992 142.689 724.782 142.426 724.527 142.212C724.272 141.997 723.976 141.837 723.658 141.739C723.339 141.642 723.004 141.61 722.673 141.644C722.342 141.679 722.021 141.78 721.729 141.942C721.438 142.104 721.182 142.322 720.977 142.585C720.772 142.848 720.622 143.149 720.536 143.471L711.646 172.571L690.896 150.331C690.68 150.072 690.413 149.861 690.112 149.709C689.812 149.557 689.483 149.468 689.147 149.447C688.81 149.426 688.473 149.474 688.156 149.588C687.839 149.702 687.548 149.88 687.301 150.11C687.055 150.34 686.858 150.617 686.723 150.926C686.587 151.235 686.517 151.568 686.514 151.905C686.512 152.242 686.578 152.576 686.709 152.886C686.84 153.197 687.033 153.478 687.276 153.711L708.026 175.951L678.386 182.801C677.761 182.964 677.224 183.364 676.89 183.917C676.556 184.47 676.45 185.132 676.596 185.761C676.742 186.39 677.128 186.938 677.672 187.287C678.215 187.636 678.873 187.76 679.506 187.631L709.146 180.781L700.266 209.871C700.1 210.492 700.182 211.152 700.493 211.714C700.805 212.276 701.322 212.695 701.937 212.883C702.551 213.071 703.214 213.013 703.787 212.721C704.359 212.43 704.796 211.928 705.006 211.321L713.886 182.231L734.636 204.471C735.086 204.952 735.708 205.235 736.366 205.258C737.025 205.28 737.665 205.041 738.146 204.591C738.628 204.141 738.911 203.519 738.933 202.861C738.956 202.203 738.716 201.562 738.266 201.081L717.516 178.841L747.146 171.991C747.471 171.925 747.779 171.794 748.052 171.607C748.326 171.42 748.559 171.18 748.738 170.901C748.918 170.623 749.039 170.311 749.096 169.984C749.152 169.658 749.143 169.323 749.068 169C748.993 168.678 748.854 168.373 748.66 168.105C748.465 167.837 748.219 167.61 747.935 167.439C747.652 167.267 747.337 167.154 747.009 167.107C746.681 167.059 746.347 167.077 746.026 167.161Z" fill="#434A54"/>
<path d="M673.856 135.7C673.497 136.035 673.246 136.467 673.133 136.944C673.02 137.421 673.051 137.921 673.222 138.381C673.393 138.84 673.697 139.238 674.094 139.525C674.491 139.813 674.965 139.975 675.455 139.994C675.945 140.012 676.429 139.884 676.846 139.627C677.264 139.37 677.595 138.996 677.8 138.55C678.004 138.105 678.072 137.609 677.995 137.125C677.918 136.64 677.699 136.19 677.366 135.83C676.917 135.349 676.296 135.065 675.638 135.041C674.98 135.017 674.34 135.254 673.856 135.7Z" fill="#AAB2BC"/>
<path d="M748.296 215.461C747.937 215.795 747.685 216.229 747.572 216.707C747.459 217.184 747.491 217.685 747.663 218.144C747.834 218.604 748.139 219.003 748.538 219.289C748.936 219.576 749.41 219.738 749.901 219.755C750.391 219.772 750.876 219.642 751.293 219.384C751.71 219.125 752.041 218.748 752.244 218.302C752.447 217.855 752.513 217.358 752.433 216.873C752.353 216.389 752.131 215.939 751.796 215.581C751.347 215.102 750.727 214.82 750.071 214.798C749.415 214.775 748.776 215.014 748.296 215.461Z" fill="#AAB2BC"/>
<path d="M662.966 162.191C663.109 161.722 663.11 161.22 662.968 160.751C662.826 160.281 662.548 159.864 662.169 159.552C661.79 159.24 661.327 159.048 660.839 158.999C660.35 158.951 659.858 159.048 659.426 159.28C658.993 159.511 658.638 159.865 658.407 160.298C658.176 160.731 658.078 161.222 658.126 161.711C658.174 162.199 658.366 162.662 658.678 163.042C658.989 163.421 659.406 163.699 659.876 163.841C660.504 164.031 661.183 163.964 661.762 163.655C662.341 163.346 662.774 162.819 662.966 162.191Z" fill="#AAB2BC"/>
<path d="M762.566 192.601C762.424 193.07 762.423 193.571 762.565 194.04C762.707 194.509 762.985 194.926 763.363 195.237C763.742 195.549 764.205 195.741 764.693 195.79C765.18 195.838 765.671 195.741 766.104 195.511C766.537 195.281 766.892 194.927 767.124 194.495C767.356 194.064 767.455 193.573 767.408 193.085C767.361 192.597 767.17 192.134 766.861 191.754C766.551 191.374 766.135 191.095 765.666 190.951C765.354 190.854 765.027 190.82 764.701 190.85C764.376 190.881 764.06 190.976 763.772 191.129C763.484 191.282 763.229 191.491 763.022 191.744C762.815 191.997 762.66 192.288 762.566 192.601Z" fill="#AAB2BC"/>
<path d="M660.206 192.101C660.682 191.986 661.113 191.732 661.445 191.373C661.777 191.013 661.995 190.563 662.071 190.08C662.148 189.596 662.08 189.101 661.876 188.656C661.672 188.211 661.341 187.837 660.924 187.58C660.507 187.323 660.024 187.195 659.535 187.212C659.046 187.229 658.572 187.391 658.175 187.677C657.778 187.962 657.473 188.359 657.301 188.817C657.129 189.275 657.096 189.774 657.206 190.251C657.28 190.57 657.417 190.872 657.608 191.138C657.799 191.404 658.042 191.63 658.321 191.802C658.599 191.974 658.91 192.089 659.234 192.14C659.557 192.191 659.888 192.178 660.206 192.101Z" fill="#AAB2BC"/>
<path d="M765.356 162.691C764.88 162.806 764.449 163.06 764.117 163.419C763.786 163.779 763.567 164.229 763.491 164.713C763.414 165.196 763.482 165.691 763.686 166.136C763.891 166.581 764.222 166.955 764.638 167.212C765.055 167.469 765.538 167.597 766.027 167.58C766.516 167.562 766.99 167.401 767.387 167.115C767.785 166.83 768.089 166.433 768.261 165.975C768.433 165.517 768.466 165.018 768.356 164.541C768.283 164.221 768.147 163.919 767.956 163.652C767.765 163.385 767.523 163.159 767.244 162.987C766.965 162.814 766.654 162.7 766.33 162.649C766.006 162.598 765.674 162.612 765.356 162.691Z" fill="#AAB2BC"/>
<path d="M671.206 212.801C670.848 213.136 670.598 213.57 670.486 214.047C670.375 214.524 670.407 215.024 670.58 215.483C670.752 215.942 671.056 216.339 671.455 216.625C671.853 216.911 672.327 217.073 672.816 217.09C673.306 217.106 673.79 216.978 674.207 216.72C674.624 216.461 674.955 216.086 675.158 215.64C675.362 215.193 675.428 214.697 675.349 214.213C675.271 213.729 675.05 213.28 674.716 212.921C674.494 212.681 674.228 212.487 673.931 212.351C673.634 212.215 673.313 212.14 672.986 212.128C672.66 212.117 672.334 212.171 672.029 212.286C671.723 212.402 671.444 212.577 671.206 212.801Z" fill="#AAB2BC"/>
<path d="M750.956 138.411C750.597 138.745 750.344 139.179 750.232 139.656C750.119 140.134 750.151 140.634 750.323 141.094C750.494 141.554 750.799 141.952 751.197 142.239C751.595 142.526 752.07 142.688 752.561 142.704C753.051 142.721 753.536 142.592 753.953 142.333C754.37 142.075 754.701 141.698 754.904 141.251C755.107 140.804 755.172 140.307 755.093 139.823C755.013 139.339 754.791 138.889 754.456 138.531C754.007 138.051 753.387 137.77 752.731 137.747C752.075 137.725 751.436 137.963 750.956 138.411Z" fill="#AAB2BC"/>
<path d="M726.326 124.501C726.184 124.97 726.183 125.471 726.325 125.94C726.467 126.409 726.745 126.826 727.124 127.137C727.502 127.448 727.965 127.641 728.452 127.689C728.94 127.738 729.432 127.641 729.864 127.411C730.297 127.181 730.652 126.827 730.884 126.395C731.116 125.964 731.215 125.473 731.168 124.985C731.121 124.497 730.93 124.033 730.62 123.654C730.31 123.274 729.895 122.994 729.426 122.851C729.115 122.754 728.786 122.72 728.461 122.75C728.136 122.781 727.82 122.875 727.532 123.029C727.244 123.182 726.988 123.391 726.781 123.644C726.574 123.897 726.42 124.188 726.326 124.501Z" fill="#AAB2BC"/>
<path d="M699.916 121.831C699.441 121.946 699.01 122.198 698.678 122.557C698.346 122.916 698.127 123.366 698.049 123.849C697.972 124.332 698.039 124.827 698.242 125.272C698.445 125.717 698.776 126.092 699.191 126.349C699.607 126.607 700.09 126.736 700.579 126.72C701.068 126.704 701.54 126.544 701.938 126.26C702.337 125.976 702.642 125.58 702.816 125.123C702.99 124.666 703.025 124.168 702.916 123.691C702.842 123.371 702.705 123.07 702.514 122.803C702.323 122.536 702.082 122.31 701.803 122.137C701.524 121.965 701.214 121.849 700.89 121.796C700.566 121.743 700.235 121.755 699.916 121.831Z" fill="#AAB2BC"/>
<path d="M727.266 163.861C729.946 166.731 731.714 170.331 732.346 174.207C732.978 178.082 732.446 182.057 730.818 185.63C729.189 189.203 726.537 192.212 723.197 194.277C719.858 196.341 715.981 197.369 712.057 197.228C708.133 197.088 704.339 195.787 701.155 193.489C697.971 191.192 695.54 188.001 694.171 184.321C692.801 180.641 692.554 176.638 693.462 172.818C694.369 168.998 696.389 165.532 699.266 162.861C703.115 159.288 708.224 157.386 713.473 157.574C718.722 157.761 723.682 160.022 727.266 163.861Z" fill="#434A54"/>
<path d="M714.576 175.701C714.911 176.059 715.133 176.509 715.213 176.993C715.292 177.477 715.227 177.974 715.024 178.421C714.821 178.868 714.49 179.245 714.073 179.504C713.656 179.762 713.171 179.891 712.68 179.875C712.19 179.858 711.716 179.696 711.317 179.409C710.919 179.123 710.615 178.724 710.443 178.264C710.271 177.805 710.239 177.304 710.352 176.827C710.465 176.349 710.717 175.915 711.076 175.581C711.556 175.134 712.195 174.895 712.851 174.917C713.507 174.94 714.127 175.222 714.576 175.701Z" fill="#AAB2BC"/>
<path d="M736.954 222.84C736.479 222.955 736.048 223.208 735.716 223.567C735.384 223.926 735.165 224.375 735.087 224.858C735.01 225.341 735.077 225.836 735.28 226.281C735.483 226.726 735.814 227.101 736.229 227.359C736.645 227.616 737.128 227.746 737.617 227.73C738.105 227.714 738.579 227.554 738.977 227.27C739.375 226.985 739.68 226.59 739.854 226.133C740.028 225.675 740.063 225.177 739.954 224.7C739.881 224.38 739.745 224.078 739.555 223.81C739.364 223.543 739.122 223.316 738.843 223.143C738.564 222.97 738.253 222.854 737.929 222.802C737.605 222.75 737.273 222.763 736.954 222.84Z" fill="#AAB2BC"/>
<path d="M667.556 229.271L618.871 178.268C616.798 176.047 616.918 172.567 619.139 170.494L712.225 83.6292C714.446 81.5569 717.926 81.6772 719.999 83.898L806.863 176.984C808.936 179.205 808.815 182.685 806.594 184.757L756.056 228.473" stroke="#434A54"/>
<path d="M623.257 177.759L619.909 180.884L630.838 192.596L634.187 189.471L623.257 177.759Z" fill="#434A54"/>
<path d="M750.727 113.082L746.822 116.725L775.45 147.402L779.354 143.759L750.727 113.082Z" fill="#434A54"/>
<path d="M702.59 212.531C699.23 207.981 699.41 204.251 699.77 199.431C700.09 195.211 698 191.841 695.24 188.111C695.63 190.401 694.59 195.621 692.66 197.461C692.09 193.171 691.77 189.001 689.75 184.871C687.9 181.071 683.63 178.331 680.82 174.771C684.45 179.321 674.69 186.511 672.17 190.941C668.97 196.561 670.79 202.351 670.97 208.071C669.97 206.071 666.36 204.071 664.5 202.611C669.33 209.411 659.056 215.771 656.556 222.271C655.979 223.771 653.702 229.771 658.056 229.771C665.056 229.771 669.556 229.771 679.556 229.771C692.056 229.771 699.77 229.771 706.556 229.771C706.556 218.771 703.556 216.271 702.59 212.531Z" fill="#D88200"/>
<path d="M699.556 229.771C698.836 222.141 691.52 212.121 692.55 204.261C691.94 206.161 688.91 208.741 688.41 210.811C686.8 208.141 687.41 204.991 685.47 202.091C683.78 199.521 682.09 196.491 682.15 193.681C681.7 195.771 678.91 197.971 678.5 200.151C678.04 202.601 678.44 205.151 678.15 207.671C677.86 210.191 675.24 212.001 673.53 214.411C672.16 216.411 672.89 218.771 671.38 220.691C670.25 218.861 670.55 217.081 667.32 215.771C667.96 218.481 665.14 220.851 664.63 223.451C664.149 225.901 664.056 227.771 664.63 229.771C667.32 229.771 673.53 229.771 679.056 229.771C685.056 229.771 689.556 229.771 692.556 229.771C698.056 229.771 698.556 229.771 699.556 229.771ZM682.2 192.951C682.168 193.193 682.152 193.437 682.15 193.681C682.201 193.441 682.218 193.196 682.2 192.951ZM692.55 204.261C692.628 204.04 692.666 203.806 692.66 203.571C692.62 203.801 692.58 204.031 692.55 204.261Z" fill="#E9CE00"/>
<path d="M842.366 209.691C841.214 207.525 839.876 205.464 838.366 203.531C837.316 202.211 835.436 200.761 835.186 199.071C834.886 201.181 833.526 202.681 831.966 204.701C829.586 199.101 829.826 192.641 825.316 187.951C822.776 185.321 818.756 183.431 816.906 180.291C815.686 178.191 815.256 175.511 814.196 173.291C812.866 178.811 812.466 183.051 809.006 187.831C805.686 192.431 806.606 198.971 802.856 203.291C798.726 208.051 800.226 194.941 800.086 193.091C800.034 191.106 799.61 189.149 798.836 187.321C798.206 185.681 798.146 181.421 799.676 177.691C798.146 178.611 793.906 186.051 792.436 187.551C790.956 185.961 790.936 183.201 790.436 181.131C789.714 178.558 788.725 176.068 787.486 173.701C786.246 171.181 784.026 168.181 783.806 165.331C784.026 172.781 775.046 178.821 771.196 184.241C768.786 187.554 767.208 191.399 766.596 195.451C766.286 197.811 766.596 201.301 765.216 203.231C764.456 200.631 764.676 197.831 763.366 195.361C762.276 193.361 760.036 192.291 759.516 190.031C761.116 197.031 750.226 203.921 747.326 209.241C745.006 213.481 742.696 225.841 746.556 229.771L776.556 230.271L842.436 223.121C843.096 218.411 844.756 214.071 842.366 209.691ZM784.666 164.031C784.666 163.901 784.666 163.771 784.666 163.651C784.646 163.771 784.656 163.901 784.666 164.031Z" fill="#E9CE00"/>
<path d="M842.366 209.691C841.214 207.526 839.876 205.464 838.366 203.531C837.316 202.211 835.436 200.761 835.186 199.071C834.886 201.181 833.526 202.681 831.966 204.701C829.586 199.101 829.826 192.641 825.316 187.951C822.776 185.321 818.756 183.431 816.916 180.291C815.686 178.191 815.256 175.511 814.196 173.291C812.866 178.811 812.466 183.051 809.006 187.831C805.686 192.431 806.606 198.971 802.856 203.291C798.736 208.051 800.226 194.941 800.086 193.091C800.034 191.107 799.61 189.149 798.836 187.321C798.206 185.681 798.146 181.421 799.676 177.691C798.146 178.611 793.906 186.051 792.436 187.551C790.956 185.961 790.936 183.201 790.436 181.131C789.714 178.558 788.725 176.068 787.486 173.701C786.246 171.181 784.026 168.181 783.806 165.331C784.026 172.781 775.046 178.821 771.196 184.241C768.786 187.555 767.208 191.399 766.596 195.451C766.286 197.811 766.596 201.301 765.216 203.231C764.456 200.631 764.676 197.831 763.366 195.361C762.276 193.361 760.036 192.291 759.516 190.031C761.116 197.031 750.226 203.921 747.326 209.241C745.006 213.481 742.636 225.861 746.486 229.791H752.736C752.561 226.995 752.838 224.189 753.556 221.481C754.636 216.801 758.556 213.081 759.316 208.481C759.536 210.191 761.056 211.581 761.786 213.121C762.686 215.011 762.546 217.041 763.166 218.891C764.376 215.761 765.246 213.831 767.736 211.341C769.951 209.192 771.577 206.509 772.456 203.551C773.456 200.131 773.866 196.881 775.536 193.741C777.206 190.601 779.636 188.351 781.646 185.741C781.986 185.621 782.486 185.121 782.336 184.741C782.116 185.074 781.886 185.408 781.646 185.741C780.846 188.211 784.276 192.941 784.646 194.931C785.051 197.127 785.135 199.371 784.896 201.591C786.746 198.001 791.376 196.971 794.036 193.951C794.246 193.271 793.946 193.121 794.946 192.121C793.946 193.121 793.946 193.121 794.036 193.951C793.036 197.291 796.286 201.951 797.696 204.511C799.696 208.021 801.846 214.981 799.836 218.791C802.376 213.791 807.066 210.871 810.516 206.401C813.966 201.931 813.246 195.041 817.366 191.231C814.636 196.071 822.266 200.141 824.176 203.891C825.996 207.481 827.906 214.291 826.176 218.141C827.176 215.521 832.576 213.591 833.566 211.601C833.594 211.382 833.648 211.168 833.726 210.961C833.726 211.184 833.671 211.404 833.566 211.601C833.396 212.991 834.166 214.601 834.306 216.071C834.396 217.982 834.275 219.897 833.946 221.781C833.866 222.48 833.653 223.813 833.5 224.5L843 223C843.71 218.21 844.756 214.071 842.366 209.691Z" fill="#D88200"/>
<g clip-path="url(#clip1_3697:8212)">
<path d="M1289.41 292.937C1289.41 292.937 1295.21 171.689 1280.36 157.599C1276.8 154.207 1260.06 142.835 1239.68 144.443C1220.42 145.958 1205.45 155.784 1199.15 160.629C1191.57 166.46 1190.87 297.211 1192.99 299.38C1195.12 301.548 1287.18 300.988 1289.41 292.937Z" fill="#A16552"/>
<path d="M1206.72 272.238C1206.72 272.238 1203.29 203.521 1205.16 190.51C1207.03 177.5 1217.91 168.214 1237.93 169.064C1257.96 169.915 1263.68 183.403 1264.79 192.419C1265.9 201.436 1271.11 282.385 1263.66 298.675C1256.22 314.964 1241.73 313.138 1241.73 313.138L1212.74 301.891L1206.72 272.238Z" fill="#F5DCB4"/>
<path d="M876.476 135.603C877.237 139.696 878.886 143.571 881.307 146.954C883.728 150.338 886.861 153.146 890.485 155.182C887.85 159.028 886.8 163.745 887.555 168.348C889.626 179.647 903.293 186.702 918.618 184.731C922.759 191.527 932.792 195.044 943.468 193.031C944.869 192.776 946.253 192.429 947.609 191.994C951.205 192.574 954.873 192.522 958.45 191.838C971.352 189.421 980.443 179.751 978.703 170.299C978.519 169.31 978.22 168.345 977.813 167.425C979.284 166.581 980.671 165.597 981.955 164.489C985.061 171.201 993.52 173.712 1003.7 170.226C1006.96 173.526 1008.41 176.452 1015.14 175.331C1020.41 174.455 1025.14 171.57 1028.34 167.28C1032.88 170.067 1038.31 171.037 1043.53 169.998C1049.8 168.815 1054.8 163.524 1058.03 159.882C1063.97 161.884 1072.52 160.494 1079.24 156.012C1079.86 155.586 1080.46 155.151 1081.04 154.694L1109.55 155.493L1106.17 143.043L1089.06 138.996C1088.17 136.364 1087.68 133.61 1087.63 130.831C1086.88 126.795 1083.74 123.402 1078.85 121.296C1078.83 120.623 1078.76 119.954 1078.63 119.293C1076.73 108.918 1063.7 102.692 1049.59 105.348C1047.95 105.656 1046.33 106.079 1044.75 106.614C1042.97 103.811 1040.47 101.544 1037.5 100.057C1034.14 98.3324 1030.46 97.3088 1026.7 97.0481C1024.29 93.5878 1020.95 90.8826 1017.07 89.2458C1014.91 78.0092 1002.1 70.3313 986.811 70.85C979.894 65.8698 970.078 63.8675 959.89 65.3823C954.847 58.8457 944.545 55.7434 933.725 57.777C920.181 60.319 910.49 70.1445 911.401 80.0634C899.545 83.809 891.728 93.2818 893.416 102.568C893.488 102.993 893.592 103.408 893.706 103.834C881.291 109.27 874.043 122.24 876.476 135.603Z" fill="white"/>
<path d="M1198.55 161.335C1192.34 167.01 1185.95 171.772 1169.39 165.236C1164.21 172.851 1152.71 170.942 1151.98 172.281C1149.73 176.514 1166.48 186.36 1172.17 188.331C1177.35 190.707 1194.95 192.855 1198.55 186.547C1202.16 180.239 1205.78 154.798 1198.55 161.335Z" fill="#A16552"/>
<path d="M1140.15 149.507L1131.52 165.589C1131.52 165.589 1127.04 163.576 1123.37 162.414C1122.28 162.071 1113.95 160.11 1112.43 159.104C1109.09 156.873 1108.41 153.563 1106.44 150.627C1103.6 146.342 1125.43 148.676 1125.43 148.676C1130.09 149.268 1128.7 147.483 1133.72 148.676" fill="#A16552"/>
<path d="M1169.9 165.142L1140.15 149.507L1131.52 165.589C1131.52 165.589 1177.08 197.005 1184.14 188.581C1193.79 179.512 1169.9 165.142 1169.9 165.142Z" fill="#A16552"/>
<path opacity="0.2" d="M1246.54 208.813L1238.25 222.82C1238.25 222.82 1274.49 264.84 1281.22 262.246C1300.8 246.527 1276.06 235.374 1246.54 208.813Z" fill="black"/>
<path d="M1214.02 194.827C1214.19 194.588 1215.16 193.789 1215.06 193.312C1214.96 192.835 1213.04 191.465 1212.57 191.839C1212.16 192.229 1211.79 192.656 1211.46 193.115L1214.02 194.827Z" fill="#A16552"/>
<path d="M1214.76 188.124C1214.93 187.885 1215.93 187.086 1215.79 186.63C1215.66 186.173 1213.82 184.731 1213.34 185.094C1212.86 185.458 1211.77 186.599 1211.77 186.599L1214.76 188.124Z" fill="#A16552"/>
<path d="M1216 182.397C1216.15 182.137 1217.04 181.235 1216.84 180.768C1216.64 180.301 1214.62 179.17 1214.21 179.595C1213.8 180.021 1212.86 181.204 1212.86 181.204L1216 182.397Z" fill="#A16552"/>
<path d="M1214.05 201.467C1214.19 201.207 1215.09 200.305 1214.89 199.838C1214.7 199.371 1214.06 198.572 1213.65 198.997C1213.24 199.423 1212.62 200.263 1212.62 200.263L1214.05 201.467Z" fill="#A16552"/>
<path d="M1258.29 150.814L1254.56 110.619L1224.16 134.835L1221.64 155.825C1234.08 156.887 1246.59 155.176 1258.29 150.814Z" fill="#A16552"/>
<path d="M1203.4 77.48C1202.58 80.486 1202.16 83.5874 1202.15 86.7038V87.3471C1202.17 91.1118 1201.75 94.8662 1200.89 98.5319C1198.82 97.7133 1197.03 96.3206 1195.72 94.5166C1191.25 88.8308 1192.75 79.7004 1198.24 77.5527C1199.89 76.8529 1201.74 76.8121 1203.42 77.4386C1203.42 77.4386 1203.4 77.4593 1203.4 77.48Z" fill="#A16552"/>
<path d="M1203.4 77.48C1202.58 80.486 1202.16 83.5874 1202.15 86.7038V87.3471C1202.17 91.1118 1201.75 94.8662 1200.89 98.5319C1198.82 97.7133 1197.03 96.3206 1195.72 94.5166C1191.25 88.8308 1192.75 79.7004 1198.24 77.5527C1199.89 76.8529 1201.74 76.8121 1203.42 77.4386C1203.42 77.4386 1203.4 77.4593 1203.4 77.48Z" fill="#F5DCB4"/>
<path d="M1285.67 94.5167C1284.36 96.3207 1282.57 97.7134 1280.5 98.532C1279.64 94.8663 1279.22 91.1119 1279.24 87.3472V86.7039C1279.23 83.5765 1278.81 80.4643 1277.98 77.4491C1279.66 76.8118 1281.51 76.8527 1283.16 77.5632C1288.65 79.7005 1290.14 88.8309 1285.67 94.5167Z" fill="#A16552"/>
<path d="M1285.67 94.5167C1284.36 96.3207 1282.57 97.7134 1280.5 98.532C1279.64 94.8663 1279.22 91.1119 1279.24 87.3472V86.7039C1279.23 83.5765 1278.81 80.4643 1277.98 77.4491C1279.66 76.8118 1281.51 76.8527 1283.16 77.5632C1288.65 79.7005 1290.14 88.8309 1285.67 94.5167Z" fill="#F5DCB4"/>
<path d="M1268.54 98.6669C1267.73 99.9309 1267.21 101.36 1267.02 102.85C1266.84 104.339 1266.98 105.852 1267.45 107.279C1268.22 109.352 1268.68 111.525 1268.83 113.732C1268.83 127.085 1256.24 137.928 1240.71 137.928C1225.17 137.928 1212.58 127.096 1212.58 113.732C1212.73 111.525 1213.19 109.352 1213.96 107.279C1214.43 105.852 1214.58 104.339 1214.39 102.85C1214.2 101.36 1213.68 99.9309 1212.87 98.6669C1212.48 98.0557 1212.13 97.4138 1211.84 96.7475C1210.91 94.7368 1210.44 92.5489 1210.44 90.3354C1210.44 81.454 1217.95 74.2638 1227.23 74.2638C1230.22 74.2519 1233.16 75.0207 1235.77 76.4946C1237.27 77.3563 1238.97 77.8095 1240.71 77.8095C1242.44 77.8095 1244.14 77.3563 1245.65 76.4946C1248.25 75.0207 1251.2 74.2519 1254.19 74.2638C1263.51 74.2638 1270.97 81.454 1270.97 90.3354C1270.98 92.5491 1270.5 94.7372 1269.57 96.7475C1269.28 97.4127 1268.93 98.0544 1268.54 98.6669Z" fill="#A16552"/>
<path d="M1268.54 98.6669C1267.73 99.9309 1267.21 101.36 1267.02 102.85C1266.84 104.339 1266.98 105.852 1267.45 107.279C1268.22 109.352 1268.68 111.525 1268.83 113.732C1268.83 127.085 1256.24 137.928 1240.71 137.928C1225.17 137.928 1212.58 127.096 1212.58 113.732C1212.73 111.525 1213.19 109.352 1213.96 107.279C1214.43 105.852 1214.58 104.339 1214.39 102.85C1214.2 101.36 1213.68 99.9309 1212.87 98.6669C1212.48 98.0557 1212.13 97.4138 1211.84 96.7475C1210.91 94.7368 1210.44 92.5489 1210.44 90.3354C1210.44 81.454 1217.95 74.2638 1227.23 74.2638C1230.22 74.2519 1233.16 75.0207 1235.77 76.4946C1237.27 77.3563 1238.97 77.8095 1240.71 77.8095C1242.44 77.8095 1244.14 77.3563 1245.65 76.4946C1248.25 75.0207 1251.2 74.2519 1254.19 74.2638C1263.51 74.2638 1270.97 81.454 1270.97 90.3354C1270.98 92.5491 1270.5 94.7372 1269.57 96.7475C1269.28 97.4127 1268.93 98.0544 1268.54 98.6669Z" fill="#F5DCB4"/>
<path d="M1226.34 116.699C1226.11 116.7 1225.89 116.75 1225.68 116.846C1225.47 116.942 1225.28 117.081 1225.13 117.255C1224.98 117.429 1224.86 117.633 1224.8 117.853C1224.73 118.074 1224.71 118.307 1224.74 118.536C1225.78 125.695 1232.5 131.235 1240.67 131.235C1248.85 131.235 1255.62 125.695 1256.61 118.536C1256.64 118.307 1256.62 118.074 1256.55 117.853C1256.49 117.633 1256.37 117.429 1256.22 117.255C1256.07 117.081 1255.88 116.942 1255.67 116.846C1255.46 116.75 1255.24 116.7 1255.01 116.699H1226.34Z" fill="#4E3F3F"/>
<path d="M1231.43 128.569C1234.2 130.311 1237.4 131.235 1240.67 131.235C1243.95 131.235 1247.15 130.311 1249.92 128.569C1248.77 124.522 1245.05 125.456 1240.67 125.456C1236.3 125.456 1232.58 124.522 1231.43 128.569Z" fill="#E6646E"/>
<path d="M1285.1 74.5644C1283.86 74.0218 1282.5 73.7813 1281.14 73.8625C1279.78 73.9436 1278.45 74.3439 1277.28 75.0312C1276.82 73.6873 1276.3 72.3679 1275.7 71.0782C1275.28 70.1444 1274.81 69.2106 1274.31 68.2976C1269.22 58.9596 1260.65 51.147 1250.81 47.858L1250.63 42.5457L1244.27 46.3846L1243.5 46.2912C1243.03 46.2912 1242.56 46.2187 1242.08 46.1979L1241.16 42.1722L1240.89 40.9998C1240.59 40.9838 1240.28 40.9838 1239.97 40.9998C1234.06 41.4874 1231.1 46.893 1230.65 47.8164C1220.83 51.1054 1212.26 58.8766 1207.17 68.256C1206.67 69.1691 1206.21 70.1029 1205.77 71.0367C1205.18 72.3264 1204.65 73.6459 1204.2 74.9898C1204.12 74.9388 1204.04 74.8937 1203.96 74.8549C1202.8 74.2337 1201.52 73.8813 1200.2 73.8238C1198.89 73.7664 1197.58 74.0052 1196.37 74.5228C1189.37 77.2516 1187.49 88.8514 1193.16 96.0727C1194.93 98.5201 1197.4 100.361 1200.25 101.343C1200.25 101.478 1200.19 101.613 1200.16 101.748C1199.74 103.692 1199.53 105.674 1199.53 107.662C1199.53 121.461 1209.65 133.331 1224.16 138.56C1227.56 139.786 1231.09 140.618 1234.68 141.04C1236.55 141.26 1238.42 141.384 1240.3 141.413H1240.75C1263.53 141.413 1281.97 126.296 1281.97 107.662C1281.97 105.674 1281.76 103.691 1281.34 101.748C1281.34 101.613 1281.27 101.478 1281.25 101.354C1284.1 100.371 1286.57 98.5298 1288.34 96.0831C1293.93 88.8825 1292.04 77.2931 1285.1 74.5644ZM1203.45 77.4798C1202.63 80.4858 1202.21 83.5872 1202.2 86.7036V87.3469C1202.22 91.1116 1201.8 94.866 1200.95 98.5317C1198.88 97.7101 1197.08 96.3179 1195.77 94.5164C1191.32 88.8306 1192.8 79.7002 1198.31 77.5525C1199.95 76.8506 1201.81 76.8097 1203.48 77.4384C1203.48 77.4384 1203.4 77.4591 1203.4 77.4798H1203.45ZM1269.6 96.7367C1269.31 97.4011 1268.96 98.0426 1268.57 98.6562C1267.77 99.9224 1267.26 101.352 1267.08 102.84C1266.9 104.328 1267.06 105.837 1267.53 107.257C1268.3 109.33 1268.77 111.504 1268.92 113.711C1268.92 127.075 1256.32 137.917 1240.79 137.917C1225.26 137.917 1212.67 127.085 1212.67 113.711C1212.81 111.503 1213.28 109.329 1214.05 107.257C1214.52 105.832 1214.66 104.321 1214.47 102.833C1214.28 101.345 1213.77 99.9184 1212.96 98.6562C1212.56 98.0449 1212.21 97.4031 1211.92 96.7367C1211 94.726 1210.52 92.5382 1210.52 90.3246C1210.52 81.4432 1218.04 74.2531 1227.31 74.2531C1230.3 74.2422 1233.25 75.0109 1235.86 76.4838C1237.36 77.3456 1239.06 77.799 1240.79 77.799C1242.53 77.799 1244.23 77.3456 1245.73 76.4838C1248.33 75.0108 1251.28 74.2421 1254.27 74.2531C1263.59 74.2531 1271.05 81.4432 1271.05 90.3246C1271.03 92.5442 1270.53 94.7322 1269.57 96.7367H1269.6ZM1285.73 94.5164C1284.42 96.3204 1282.62 97.7131 1280.55 98.5317C1279.69 94.866 1279.27 91.1116 1279.3 87.3469V86.7036C1279.29 83.5762 1278.86 80.464 1278.03 77.4488C1279.71 76.8115 1281.56 76.8524 1283.21 77.5629C1288.65 79.7002 1290.14 88.8306 1285.67 94.5164H1285.73Z" fill="#A16552"/>
<path d="M1239.55 106.666L1239.05 107.777C1239.01 107.866 1238.95 107.946 1238.88 108.012C1238.81 108.079 1238.73 108.131 1238.63 108.165C1238.54 108.198 1238.44 108.214 1238.35 108.209C1238.25 108.205 1238.15 108.181 1238.07 108.14L1233.84 106.199C1233.75 106.161 1233.66 106.102 1233.59 106.027C1233.51 105.952 1233.46 105.863 1233.42 105.765C1233.39 105.667 1233.37 105.562 1233.38 105.458C1233.39 105.354 1233.42 105.253 1233.47 105.162L1233.97 104.041C1234.01 103.948 1234.07 103.863 1234.14 103.794C1234.22 103.724 1234.31 103.671 1234.41 103.637C1234.5 103.603 1234.61 103.589 1234.71 103.596C1234.81 103.603 1234.91 103.631 1235 103.678L1239.23 105.618C1239.32 105.663 1239.4 105.726 1239.47 105.805C1239.53 105.883 1239.58 105.974 1239.61 106.072C1239.64 106.171 1239.65 106.274 1239.64 106.376C1239.63 106.479 1239.6 106.577 1239.55 106.666Z" fill="#4E3F3F"/>
<path d="M1241.85 106.666L1242.34 107.776C1242.38 107.865 1242.44 107.946 1242.51 108.012C1242.58 108.079 1242.67 108.131 1242.76 108.164C1242.85 108.198 1242.95 108.213 1243.04 108.209C1243.14 108.205 1243.24 108.181 1243.33 108.139L1247.55 106.199C1247.65 106.161 1247.73 106.102 1247.81 106.027C1247.88 105.952 1247.93 105.863 1247.97 105.765C1248 105.667 1248.02 105.562 1248.01 105.458C1248 105.354 1247.97 105.253 1247.92 105.162L1247.42 104.041C1247.38 103.945 1247.32 103.859 1247.24 103.787C1247.17 103.716 1247.08 103.661 1246.98 103.627C1246.88 103.593 1246.78 103.58 1246.67 103.589C1246.57 103.597 1246.47 103.628 1246.38 103.678L1242.16 105.618C1242.06 105.665 1241.98 105.73 1241.92 105.808C1241.85 105.887 1241.81 105.978 1241.78 106.076C1241.75 106.174 1241.74 106.277 1241.75 106.378C1241.76 106.479 1241.79 106.577 1241.85 106.666Z" fill="#4E3F3F"/>
<path d="M1226.22 96.7371C1225.6 96.7522 1224.99 96.6454 1224.41 96.4226C1223.84 96.1998 1223.31 95.8653 1222.86 95.4385C1222.42 95.0117 1222.06 94.5007 1221.81 93.9349C1221.56 93.369 1221.42 92.7593 1221.41 92.1407V90.6155C1221.49 89.3907 1222.03 88.2422 1222.92 87.4031C1223.82 86.564 1225 86.0972 1226.22 86.0972C1227.45 86.0972 1228.62 86.564 1229.52 87.4031C1230.41 88.2422 1230.95 89.3907 1231.04 90.6155V92.1407C1231 93.3892 1230.48 94.574 1229.58 95.4355C1228.67 96.2969 1227.47 96.7649 1226.22 96.7371Z" fill="#4E3F3F"/>
<path d="M1226.22 86.019V91.4038C1226.26 92.0162 1226.53 92.5905 1226.98 93.01C1227.43 93.4295 1228.02 93.663 1228.63 93.663C1229.24 93.663 1229.83 93.4295 1230.28 93.01C1230.72 92.5905 1230.99 92.0162 1231.04 91.4038V90.636C1231.02 90.0156 1230.89 89.4037 1230.64 88.8355C1230.39 88.2673 1230.03 87.7538 1229.59 87.3248C1229.14 86.8957 1228.61 86.5596 1228.03 86.3355C1227.46 86.1114 1226.84 86.0038 1226.22 86.019Z" fill="#5D5360"/>
<path d="M1226.22 90.6153C1226.52 90.601 1226.81 90.4988 1227.05 90.3212C1227.29 90.1436 1227.48 89.8985 1227.58 89.6164C1227.69 89.3342 1227.71 89.0275 1227.64 88.7343C1227.57 88.4412 1227.42 88.1743 1227.2 87.9672C1226.98 87.7601 1226.71 87.6218 1226.42 87.5694C1226.12 87.517 1225.81 87.5527 1225.54 87.6724C1225.26 87.792 1225.03 87.9901 1224.86 88.2422C1224.7 88.4942 1224.61 88.7891 1224.62 89.0901C1224.62 89.2959 1224.67 89.4985 1224.75 89.6865C1224.83 89.8745 1224.95 90.0443 1225.1 90.1859C1225.25 90.3276 1225.43 90.4384 1225.62 90.512C1225.81 90.5857 1226.02 90.6208 1226.22 90.6153Z" fill="white"/>
<path d="M1255.13 96.7371C1254.51 96.7522 1253.9 96.6454 1253.32 96.4226C1252.75 96.1998 1252.22 95.8653 1251.77 95.4385C1251.32 95.0117 1250.97 94.5007 1250.72 93.9349C1250.47 93.369 1250.33 92.7593 1250.31 92.1407V90.6155C1250.39 89.3907 1250.94 88.2422 1251.83 87.4031C1252.73 86.564 1253.9 86.0972 1255.13 86.0972C1256.35 86.0972 1257.53 86.564 1258.43 87.4031C1259.32 88.2422 1259.86 89.3907 1259.94 90.6155V92.1407C1259.93 92.7593 1259.79 93.369 1259.54 93.9349C1259.29 94.5007 1258.93 95.0117 1258.49 95.4385C1258.04 95.8653 1257.51 96.1998 1256.94 96.4226C1256.36 96.6454 1255.75 96.7522 1255.13 96.7371Z" fill="#4E3F3F"/>
<path d="M1255.13 86.0192V91.404C1255.17 92.0165 1255.44 92.5907 1255.89 93.0103C1256.33 93.4298 1256.92 93.6633 1257.54 93.6633C1258.15 93.6633 1258.74 93.4298 1259.19 93.0103C1259.63 92.5907 1259.9 92.0165 1259.94 91.404V90.6363C1259.93 90.0155 1259.8 89.4029 1259.55 88.834C1259.3 88.2651 1258.95 87.7512 1258.5 87.3219C1258.05 86.8926 1257.52 86.5564 1256.94 86.3328C1256.37 86.1092 1255.75 86.0027 1255.13 86.0192Z" fill="#5D5360"/>
<path d="M1255.13 90.6153C1255.43 90.601 1255.72 90.4988 1255.96 90.3212C1256.2 90.1436 1256.39 89.8985 1256.49 89.6164C1256.6 89.3342 1256.62 89.0275 1256.55 88.7343C1256.48 88.4412 1256.33 88.1743 1256.11 87.9672C1255.89 87.7601 1255.62 87.6218 1255.32 87.5694C1255.03 87.517 1254.72 87.5527 1254.45 87.6724C1254.17 87.792 1253.94 87.9901 1253.77 88.2422C1253.61 88.4942 1253.52 88.7891 1253.52 89.0901C1253.54 89.5048 1253.71 89.8974 1254.01 90.1829C1254.31 90.4684 1254.72 90.6237 1255.13 90.6153Z" fill="white"/>
<path d="M1225.4 156.033L1210.82 154.995L1187.23 157.07L1180.3 159.322L1173.05 160.359C1166.44 160.245 1159.86 159.375 1153.45 157.765C1149.69 156.728 1142.42 151.447 1139.51 150.502C1136.41 149.465 1127.79 149.984 1124.03 149.984H1095.33" stroke="black" stroke-width="5"/>
<path d="M1223.62 170.06V156.469L1236.19 159.955V170.06L1242.54 174.356C1244.35 175.58 1245.52 178.361 1245.52 181.442V252.69C1245.52 255.398 1244.11 257.588 1242.41 257.588H1217.46C1215.73 257.588 1214.35 255.398 1214.35 252.69V181.442C1214.35 178.33 1215.52 175.58 1217.34 174.356L1223.62 170.06Z" fill="#FF2E00"/>
<path opacity="0.25" d="M1232.77 158.367V156.458L1236.19 156.645V170.06L1242.54 174.356C1244.35 175.58 1245.52 178.361 1245.52 181.442V252.69C1245.52 255.398 1244.11 257.588 1242.41 257.588H1237.05V181.442C1237.05 178.33 1236.52 175.58 1235.69 174.356C1233.84 171.596 1231.38 170.06 1228.82 170.06H1227.89C1230.84 168.048 1232.77 163.451 1232.77 158.367Z" fill="black"/>
<path d="M1223.6 156.344V159.882H1237.58L1257.96 169.096L1260.79 165.028L1237.58 148.313H1227.31C1227.31 151.25 1225.65 153.636 1223.6 153.636V156.344Z" fill="white"/>
<path d="M1225.14 155.597C1223.81 155.601 1222.5 155.208 1221.39 154.469C1220.28 153.729 1219.42 152.676 1218.9 151.442C1218.39 150.208 1218.25 148.849 1218.51 147.538C1218.77 146.226 1219.41 145.02 1220.35 144.074C1221.29 143.127 1222.49 142.482 1223.8 142.219C1225.11 141.957 1226.46 142.09 1227.7 142.6C1228.93 143.111 1229.98 143.977 1230.73 145.088C1231.47 146.199 1231.86 147.506 1231.86 148.843C1231.87 149.728 1231.69 150.605 1231.36 151.424C1231.02 152.243 1230.52 152.987 1229.9 153.614C1229.28 154.242 1228.53 154.739 1227.72 155.08C1226.9 155.42 1226.03 155.596 1225.14 155.597Z" fill="#999999"/>
<path d="M1259.34 167.031C1258.9 166.408 1243.94 156.406 1238.23 152.619C1237.64 152.095 1237.24 151.391 1237.08 150.616C1236.93 149.841 1237.03 149.036 1237.37 148.324L1260.79 164.924L1259.34 167.031Z" fill="#CCCCCC"/>
<path d="M1277.95 156.458C1291.48 158.315 1294.91 231.089 1292.32 242.18C1289 256.394 1281.2 259.206 1274.9 252.555C1269.78 247.212 1269.25 225.185 1268.34 205.524C1267.16 180.052 1265.84 154.798 1277.95 156.458Z" fill="#A16552"/>
<path d="M1235.48 192.461C1229.33 187.273 1226.6 182.22 1223.64 180.353C1222.9 179.875 1220.33 180.737 1222.12 183.673C1222.55 184.379 1230.17 194.131 1230.17 194.131L1235.48 192.461Z" fill="#A16552"/>
<path d="M1234.07 218.109C1224.75 214.996 1218.54 209.248 1216.31 206.291C1214.09 203.334 1220.08 184.358 1220.08 184.358C1220.08 184.358 1231.38 191.745 1234.51 192.077C1237.65 192.409 1242.89 203.801 1242.89 203.801L1234.07 218.109Z" fill="#A16552"/>
<path d="M1223.19 207.848C1216.97 202.909 1213.67 199.371 1213.24 199.62C1212.8 199.869 1211.58 201.228 1212.11 201.913C1212.64 202.598 1222.39 211.77 1222.39 211.77L1223.19 207.848Z" fill="#A16552"/>
<path d="M1221.41 192.617C1214.69 187.678 1213.24 185.883 1212.56 186.018C1211.89 186.153 1210.49 188.155 1210.95 188.798C1211.4 189.442 1218.2 196.435 1218.2 196.435L1221.41 192.617Z" fill="#A16552"/>
<path d="M1226.31 188.933C1219.75 183.745 1214.03 180.353 1213.42 180.633C1212.81 180.913 1211.86 182.49 1212.34 183.144C1212.81 183.797 1223.18 193.239 1223.18 193.239L1226.31 188.933Z" fill="#A16552"/>
<path d="M1221.07 199.568C1214.42 194.557 1212.79 192.305 1212.11 192.482C1211.42 192.658 1210.4 194.93 1210.9 195.594C1211.39 196.258 1218.53 202.971 1218.53 202.971L1221.07 199.568Z" fill="#A16552"/>
<path d="M1242.89 203.801L1234.07 218.109C1234.07 218.109 1275.64 262.101 1284.11 255.305C1303.74 239.586 1272.42 230.362 1242.89 203.801Z" fill="#A16552"/>
<path d="M1413.01 230.809C1413.01 230.809 1401.24 319 1342.34 319H1106.78C1055.25 319 1039.79 251.477 1036.74 234.596C1036.29 232.189 1036.12 230.809 1036.12 230.809C1036.12 230.809 1059.67 248.447 1224.56 248.447C1389.45 248.447 1413.01 230.809 1413.01 230.809Z" fill="#888888"/>
<path d="M1133.52 144.838C1133.69 144.484 1133.78 144.098 1133.79 143.706C1133.8 143.313 1133.73 142.923 1133.58 142.561C1133.43 142.199 1133.2 141.873 1132.92 141.603C1132.63 141.334 1132.29 141.128 1131.93 140.999C1128.27 139.723 1122.39 137.679 1121.67 137.513C1121.48 137.503 1121.28 137.541 1121.1 137.624C1120.92 137.707 1120.76 137.833 1120.64 137.99C1120.32 138.316 1120.09 138.714 1119.97 139.149C1119.84 139.585 1119.82 140.044 1119.92 140.488C1120.01 140.932 1120.21 141.347 1120.49 141.697C1120.78 142.046 1121.15 142.319 1121.57 142.493C1123.2 143.167 1125.77 144.194 1129.74 146.155C1130.07 146.322 1130.44 146.42 1130.81 146.444C1131.18 146.468 1131.55 146.417 1131.91 146.294C1132.26 146.172 1132.58 145.979 1132.86 145.729C1133.14 145.479 1133.36 145.176 1133.52 144.838Z" fill="#985D4B"/>
<path d="M1146.46 146.819L1143.96 156.811L1089.73 158.419L1093.65 135.23L1146.46 146.819Z" fill="#FF2E00"/>
<path d="M1118.23 156.458C1119.37 152.173 1120.3 149.558 1120.85 147.888C1120.99 147.459 1121.03 147.002 1120.95 146.555C1120.88 146.108 1120.7 145.686 1120.43 145.326C1120.16 144.965 1119.8 144.676 1119.39 144.484C1118.98 144.292 1118.53 144.204 1118.08 144.226C1117.88 144.21 1117.69 144.243 1117.51 144.323C1117.32 144.402 1117.17 144.526 1117.05 144.682C1116.69 145.325 1114.36 151.104 1112.9 154.715C1112.76 155.079 1112.69 155.469 1112.7 155.861C1112.72 156.253 1112.81 156.638 1112.99 156.989C1113.16 157.341 1113.41 157.652 1113.71 157.902C1114.01 158.152 1114.36 158.335 1114.74 158.44C1115.1 158.545 1115.47 158.577 1115.84 158.534C1116.21 158.49 1116.57 158.373 1116.9 158.188C1117.22 158.003 1117.51 157.755 1117.74 157.458C1117.97 157.161 1118.13 156.821 1118.23 156.458Z" fill="#985D4B"/>
<path d="M1123.97 158.388C1125.08 154.238 1126.04 151.623 1126.54 149.994C1126.68 149.574 1126.72 149.125 1126.64 148.687C1126.57 148.25 1126.4 147.836 1126.13 147.483C1125.86 147.129 1125.51 146.846 1125.11 146.658C1124.71 146.47 1124.27 146.383 1123.83 146.404C1123.63 146.386 1123.43 146.418 1123.25 146.496C1123.07 146.573 1122.91 146.695 1122.79 146.85C1122.45 147.483 1120.17 153.138 1118.75 156.676C1118.61 157.032 1118.55 157.414 1118.56 157.798C1118.58 158.181 1118.67 158.557 1118.84 158.9C1119.01 159.244 1119.25 159.548 1119.55 159.792C1119.84 160.036 1120.19 160.215 1120.56 160.318C1120.91 160.42 1121.27 160.451 1121.64 160.409C1122 160.367 1122.35 160.253 1122.67 160.073C1122.99 159.893 1123.27 159.652 1123.49 159.362C1123.71 159.073 1123.88 158.742 1123.97 158.388Z" fill="#985D4B"/>
<path d="M1128.76 160.411C1129.71 156.821 1130.49 154.632 1130.95 153.231C1131.07 152.872 1131.1 152.489 1131.04 152.115C1130.98 151.741 1130.83 151.388 1130.6 151.086C1130.37 150.784 1130.07 150.543 1129.73 150.384C1129.39 150.224 1129.01 150.151 1128.63 150.171C1128.47 150.161 1128.31 150.19 1128.16 150.254C1128.01 150.319 1127.88 150.419 1127.77 150.544C1127.48 151.084 1125.54 155.929 1124.32 158.938C1124.2 159.242 1124.15 159.568 1124.16 159.895C1124.17 160.222 1124.25 160.543 1124.4 160.836C1124.54 161.13 1124.75 161.389 1125 161.599C1125.25 161.808 1125.54 161.962 1125.86 162.05C1126.16 162.134 1126.47 162.158 1126.77 162.121C1127.08 162.084 1127.38 161.986 1127.65 161.834C1127.92 161.681 1128.15 161.477 1128.34 161.233C1128.53 160.989 1128.67 160.71 1128.76 160.411Z" fill="#985D4B"/>
<path d="M1132.9 162.185C1133.72 159.073 1134.38 157.236 1134.77 156.043C1134.88 155.736 1134.9 155.408 1134.85 155.088C1134.8 154.769 1134.67 154.466 1134.47 154.208C1134.28 153.949 1134.03 153.742 1133.73 153.604C1133.44 153.467 1133.12 153.403 1132.79 153.418C1132.66 153.408 1132.52 153.432 1132.39 153.488C1132.26 153.544 1132.15 153.63 1132.06 153.74C1131.81 154.207 1130.13 158.346 1129.11 160.93C1129 161.19 1128.95 161.469 1128.96 161.749C1128.97 162.029 1129.04 162.304 1129.17 162.556C1129.29 162.807 1129.46 163.03 1129.68 163.209C1129.89 163.389 1130.14 163.521 1130.41 163.596C1130.67 163.669 1130.94 163.69 1131.2 163.658C1131.46 163.626 1131.72 163.542 1131.95 163.411C1132.18 163.279 1132.38 163.104 1132.55 162.893C1132.71 162.683 1132.83 162.442 1132.9 162.185Z" fill="#985D4B"/>
</g>
</g>
<defs>
<clipPath id="clip0_3697:8212">
<rect width="1380" height="300" fill="white"/>
</clipPath>
<clipPath id="clip1_3697:8212">
<rect width="537" height="278" fill="white" transform="translate(876 41)"/>
</clipPath>
</defs>
</svg>
