<svg width="21" height="24" viewBox="0 0 21 24" fill="none" xmlns="http://www.w3.org/2000/svg">
<path d="M14.7579 2.70629e-06C15.2532 -0.00119397 15.6449 0.394608 15.646 0.922343L15.6472 1.82189C18.8609 2.08096 20.9839 4.33343 20.9873 7.7877L21 17.8986C21.0046 21.6647 18.7043 23.982 15.0171 23.988L6.01054 24C2.3464 24.0048 0.0172937 21.6324 0.0126862 17.8555L7.73196e-06 7.86326C-0.00459204 4.38621 2.04346 2.13973 5.25721 1.83629L5.25606 0.936736C5.2549 0.409 5.63503 0.0119994 6.14185 0.0119994C6.64868 0.0108 7.0288 0.406602 7.02995 0.934337L7.03111 1.77392L13.8733 1.76432L13.8721 0.924742C13.871 0.397006 14.2511 0.00120482 14.7579 2.70629e-06ZM15.2279 17.0303H15.2164C14.6865 17.0435 14.2615 17.5004 14.273 18.0522C14.2741 18.6039 14.7015 19.0585 15.2314 19.0704C15.7716 19.0692 16.2093 18.6123 16.2082 18.0486C16.2082 17.4848 15.7693 17.0303 15.2279 17.0303ZM5.73639 17.0315C5.20652 17.0555 4.79185 17.5124 4.793 18.0642C4.81719 18.6159 5.2549 19.0477 5.78477 19.0225C6.30427 18.9985 6.71779 18.5415 6.6936 17.9898C6.68209 17.4501 6.25474 17.0303 5.73639 17.0315ZM10.4821 17.0255C9.95228 17.0507 9.53875 17.5064 9.53875 18.0582C9.56294 18.6099 10.0007 19.0405 10.5305 19.0165C11.0489 18.9913 11.4635 18.5355 11.4394 17.9826C11.4278 17.4441 11.0005 17.0243 10.4821 17.0255ZM5.73063 12.7136C5.20077 12.7376 4.78724 13.1946 4.78839 13.7463C4.81143 14.298 5.2503 14.7298 5.78016 14.7046C6.29851 14.6806 6.71203 14.2237 6.68785 13.672C6.67633 13.1322 6.25013 12.7124 5.73063 12.7136ZM10.4775 12.6717C9.94767 12.6956 9.533 13.1526 9.53414 13.7043C9.55718 14.2561 9.99605 14.6866 10.5259 14.6627C11.0443 14.6375 11.4578 14.1817 11.4348 13.63C11.4221 13.0902 10.9959 12.6705 10.4775 12.6717ZM15.2233 12.6776C14.6934 12.6896 14.2788 13.1334 14.2799 13.6851V13.6983C14.2914 14.2501 14.7291 14.6687 15.2602 14.6567C15.7785 14.6435 16.192 14.1865 16.1805 13.6348C16.1563 13.107 15.7405 12.6765 15.2233 12.6776ZM13.8756 3.6114L7.03341 3.62099L7.03456 4.5913C7.03456 5.10824 6.65559 5.51604 6.14876 5.51604C5.64194 5.51724 5.26066 5.11064 5.26066 4.5937L5.25951 3.67017C3.01334 3.90165 1.77046 5.25937 1.77391 7.86087L1.77507 8.23388L19.2146 8.20989V7.7901C19.165 5.21139 17.9072 3.85847 15.6495 3.65697L15.6506 4.58051C15.6506 5.09625 15.2602 5.50525 14.7648 5.50525C14.258 5.50645 13.8767 5.09865 13.8767 4.58291L13.8756 3.6114Z" fill="white"/>
</svg>
