<svg width="368" height="176" viewBox="0 0 368 176" fill="none" xmlns="http://www.w3.org/2000/svg">
<path d="M412.959 147.545C412.244 142.518 410.814 138.209 409.383 133.181C400.8 102.297 407.237 69.9767 397.939 39.0928C397.939 39.0928 397.939 39.0928 397.939 38.3746C381.489 -21.2385 333.569 -74.3875 276.35 -93.7797L275.635 -116.763L247.026 -99.5255C243.449 -100.244 240.589 -100.244 237.012 -100.244C236.297 -104.553 232.721 -120.354 232.006 -123.945C206.257 -125.382 186.946 -98.089 186.231 -93.0614C128.297 -73.6692 80.3767 -20.5202 63.9264 39.0928C55.3436 69.9767 61.7807 102.297 53.1979 133.181C49.6217 146.827 46.7608 159.755 46.7608 174.12C45.3304 261.744 141.887 327.103 229.145 324.948C341.436 326.385 432.986 245.225 412.959 147.545Z" stroke="white" stroke-width="5" stroke-linecap="round" stroke-linejoin="round"/>
<path d="M49.622 146.109C38.8935 142.518 28.165 135.336 18.1518 122.407C-7.59654 90.0872 0.986239 38.3746 32.4564 26.1647C46.761 20.4189 58.2047 23.2918 66.0723 27.6012C66.7875 27.6012 66.7875 28.3194 67.5028 28.3194" stroke="white" stroke-width="5" stroke-linecap="round" stroke-linejoin="round"/>
<path d="M360.032 110.916C364.324 102.297 366.469 92.2418 366.469 82.1866C366.469 42.684 332.853 10.3636 291.37 10.3636C277.065 10.3636 264.191 13.9548 252.747 20.4189C239.158 28.3194 221.992 28.3194 208.403 20.4189C196.959 13.9548 184.085 10.3636 169.78 10.3636C128.297 10.3636 94.6812 42.684 94.6812 82.1866C94.6812 92.2418 96.8268 102.297 101.118 110.916C102.549 113.789 103.979 116.662 106.125 119.535C113.277 131.026 115.423 145.391 111.131 158.319C107.555 168.374 104.694 179.148 104.694 187.048C104.694 246.661 161.198 295.501 230.575 295.501C299.953 295.501 356.456 247.379 356.456 187.048C356.456 179.148 353.595 167.656 350.019 158.319C345.727 145.391 347.873 131.026 355.026 119.535C357.171 116.662 359.317 113.789 360.032 110.916Z" stroke="white" stroke-width="5" stroke-linecap="round" stroke-linejoin="round"/>
<path d="M224.853 157.601C223.423 160.474 219.847 161.91 216.986 160.474L202.681 154.009C199.82 152.573 198.39 148.982 199.82 146.109C201.251 143.236 204.827 141.8 207.688 143.236L221.993 149.7C224.853 151.137 226.284 154.728 224.853 157.601Z" fill="white"/>
<path d="M237.727 157.601C239.157 160.474 242.733 161.91 245.594 160.474L259.899 154.009C262.76 152.573 264.19 148.982 262.76 146.109C261.329 143.236 257.753 141.8 254.892 143.236L240.588 149.7C237.727 151.137 236.296 154.728 237.727 157.601Z" fill="white"/>
<path d="M166.204 110.916C154.045 110.916 144.747 101.579 144.747 90.0872V82.9049C144.747 71.4132 154.761 62.0762 166.204 62.0762C178.363 62.0762 187.661 71.4132 187.661 82.9049V90.0872C187.661 101.579 178.363 110.916 166.204 110.916Z" stroke="white" stroke-width="5" stroke-linecap="round" stroke-linejoin="round"/>
<path d="M295.661 110.916C283.502 110.916 274.204 101.579 274.204 90.0872V82.9049C274.204 71.4132 284.218 62.0762 295.661 62.0762C307.82 62.0762 317.118 71.4132 317.118 82.9049V90.0872C317.118 101.579 307.82 110.916 295.661 110.916Z" stroke="white" stroke-width="5" stroke-linecap="round" stroke-linejoin="round"/>
</svg>
