<svg width="19" height="26" viewBox="0 0 19 26" fill="none" xmlns="http://www.w3.org/2000/svg">
<path d="M6.15 1.92C6.15 1.46 6.53 1.03 7.29 0.629999C8.05 0.21 9.05 0 10.29 0C11.25 0 11.87 0.2 12.15 0.599999C12.35 0.879999 12.45 1.14 12.45 1.38V2.28C14.71 2.52 16.28 2.94 17.16 3.54C17.52 3.78 17.7 4.01 17.7 4.23C17.7 5.27 17.45 6.39 16.95 7.59C16.47 8.79 16 9.39 15.54 9.39C15.46 9.39 15.2 9.3 14.76 9.12C13.44 8.54 12.34 8.25 11.46 8.25C10.6 8.25 10.01 8.33 9.69 8.49C9.39 8.65 9.24 8.9 9.24 9.24C9.24 9.56 9.46 9.81 9.9 9.99C10.34 10.17 10.88 10.33 11.52 10.47C12.18 10.59 12.89 10.8 13.65 11.1C14.43 11.4 15.15 11.76 15.81 12.18C16.47 12.6 17.02 13.23 17.46 14.07C17.9 14.89 18.12 15.73 18.12 16.59C18.12 17.45 18.04 18.16 17.88 18.72C17.72 19.28 17.44 19.86 17.04 20.46C16.66 21.06 16.07 21.6 15.27 22.08C14.49 22.54 13.55 22.88 12.45 23.1V23.58C12.45 24.04 12.07 24.47 11.31 24.87C10.55 25.29 9.55 25.5 8.31 25.5C7.35 25.5 6.73 25.3 6.45 24.9C6.25 24.62 6.15 24.36 6.15 24.12V23.22C4.85 23.1 3.72 22.91 2.76 22.65C0.92 22.15 0 21.61 0 21.03C0 19.91 0.16 18.75 0.48 17.55C0.8 16.33 1.18 15.72 1.62 15.72C1.7 15.72 2.53 15.99 4.11 16.53C5.69 17.07 6.88 17.34 7.68 17.34C8.48 17.34 9 17.26 9.24 17.1C9.48 16.92 9.6 16.67 9.6 16.35C9.6 16.03 9.38 15.76 8.94 15.54C8.5 15.3 7.95 15.11 7.29 14.97C6.63 14.83 5.91 14.61 5.13 14.31C4.37 14.01 3.66 13.66 3 13.26C2.34 12.86 1.79 12.27 1.35 11.49C0.91 10.71 0.69 9.8 0.69 8.76C0.69 5.08 2.51 2.93 6.15 2.31V1.92Z" fill="#FFB300"/>
</svg>
