<svg id="Capa_3" data-name="Capa 3" xmlns="http://www.w3.org/2000/svg" xmlns:xlink="http://www.w3.org/1999/xlink" viewBox="0 0 1380 300"><defs><style>.cls-1,.cls-42{fill:none;}.cls-2{clip-path:url(#clip-path);}.cls-3{fill:#3e3262;}.cls-4{fill:url(#Degradado_sin_nombre_5);}.cls-5{fill:url(#Degradado_sin_nombre_5-2);}.cls-6{fill:#8f75e4;}.cls-7{fill:#9b82e4;}.cls-8{fill:#8062e3;}.cls-9{fill:#967ee5;}.cls-10{fill:#ab97e7;}.cls-11{fill:#886de3;}.cls-12{fill:url(#Degradado_sin_nombre_6);}.cls-13{opacity:0.4;}.cls-14,.cls-21,.cls-41,.cls-44{fill-rule:evenodd;}.cls-15{fill:#5f45ad;}.cls-16{fill:#7b59e2;}.cls-17{fill:#8b70e3;}.cls-18{fill:#9177e3;}.cls-19{fill:#9f88e5;}.cls-20{fill:url(#Degradado_sin_nombre_7);}.cls-21,.cls-41{isolation:isolate;}.cls-21{opacity:0.25;}.cls-22{fill:#3c3262;}.cls-23{fill:#432e87;}.cls-24{fill:#5b40af;}.cls-25{fill:#3d2979;}.cls-26{fill:#52399f;}.cls-27{fill:#6248b1;}.cls-28{fill:#7c6bb4;}.cls-29{fill:#65559a;}.cls-30{fill:#6e4bd5;}.cls-31{fill:#5238a3;}.cls-32{fill:#b09fe9;}.cls-33{fill:#beaee9;}.cls-34{fill:#c3b6eb;}.cls-35{fill:#c5b5eb;}.cls-36{fill:#b09fe7;}.cls-37{fill:#4f3794;}.cls-38{fill:#36256b;}.cls-39{fill:#e6ba64;}.cls-40{fill:#35226c;}.cls-41{opacity:0.3;}.cls-42{stroke:#452e8a;stroke-linecap:round;stroke-linejoin:round;stroke-width:1.01px;}.cls-43,.cls-44{fill:#452e8a;}.cls-45{clip-path:url(#clip-path-2);}.cls-46{fill:url(#Degradado_sin_nombre_37);}.cls-47{fill:#90873e;}.cls-48{fill:url(#Degradado_sin_nombre_7-2);}</style><clipPath id="clip-path"><rect class="cls-1" x="-4" y="-88.38" width="1391.27" height="403.27"/></clipPath><linearGradient id="Degradado_sin_nombre_5" x1="963.1" y1="-5880.71" x2="963.1" y2="-5593.39" gradientTransform="matrix(1, 0, 0, -1, -8.36, -5875.19)" gradientUnits="userSpaceOnUse"><stop offset="0" stop-color="#ac95e7" stop-opacity="0.15"/><stop offset="1" stop-color="#b39de8" stop-opacity="0.05"/></linearGradient><linearGradient id="Degradado_sin_nombre_5-2" x1="171" y1="-5878.86" x2="171" y2="-5647.13" xlink:href="#Degradado_sin_nombre_5"/><linearGradient id="Degradado_sin_nombre_6" x1="395.91" y1="-5963.44" x2="395.91" y2="-6098.06" gradientTransform="matrix(1, 0, 0, -1, -8.36, -5875.19)" gradientUnits="userSpaceOnUse"><stop offset="0" stop-color="#ac98e8" stop-opacity="0"/><stop offset="1" stop-color="#7d60cc" stop-opacity="0.5"/></linearGradient><linearGradient id="Degradado_sin_nombre_7" x1="728.63" y1="-6114.27" x2="679.31" y2="-6413.29" gradientTransform="matrix(1, 0, 0, -1, -8.36, -5875.19)" gradientUnits="userSpaceOnUse"><stop offset="0" stop-color="#90873e" stop-opacity="0"/><stop offset="1" stop-color="#475c28" stop-opacity="0.4"/></linearGradient><clipPath id="clip-path-2"><rect class="cls-1" x="-4" y="-520.28" width="1391.27" height="403.27"/></clipPath><linearGradient id="Degradado_sin_nombre_37" x1="699.91" y1="-5600.37" x2="699.91" y2="-5129.02" gradientTransform="matrix(1, 0, 0, -1, -8.36, -5875.19)" gradientUnits="userSpaceOnUse"><stop offset="0" stop-color="#d9d0f4"/><stop offset="1" stop-color="#a78ee6"/></linearGradient><linearGradient id="Degradado_sin_nombre_7-2" x1="728.63" y1="-5682.37" x2="679.31" y2="-5981.38" xlink:href="#Degradado_sin_nombre_7"/></defs><g class="cls-2"><path class="cls-3" d="M1387.09-325.29H-4v927H1387.09Z"/><path class="cls-4" d="M1387.09-116.53c-2.78,1.85-4.28,4.08-3.35,6.49A33.63,33.63,0,0,0,1358-130.25a33.42,33.42,0,0,0-30.41,12c2.22-14.46-8.91-29.67-23.19-32.08-14.47-2.41-29.86,8.16-32.65,22.44-.36-13.35-20.39-20.77-29.49-10.94a36.76,36.76,0,0,0-21.14-32.45,36.76,36.76,0,0,0-38.21,5.75C1186.21-184,1171-202,1153-207.56c-16.69-5-33.57,1.48-48.78,9.08-2-20.21-20.59-35-39.5-42.46-28.76-11.12-62.7-10-89.41,5.38s-45.07,45.61-43.77,76.39c-19.66-10.39-47.67,1.11-54.16,22.43-2.6-18.17-20.59-32.82-38.95-31.7s-34.5,17.79-34.87,36.15c-4.45-7.6-16.88-7.42-22.81-.93s-6.12,16.87-2.78,25c-5.57-5.19-16.51-.19-16.33,7.42-5.56-18.17-31.34-23.73-47.48-13.72s-23.37,30-24.3,49.13c-5.56-5.19-15.39-4.64-20.21,1.11S666-48.68,671.88-44c-10.76-3.15-22.07-6.12-32.83-3.34s-20.22,14.09-16.88,24.66c-10-5.56-24.66,4.45-23,15.76-12.79-13.16-38.57-7.79-45.25,9.27A59.25,59.25,0,0,0,522.39,6a109.88,109.88,0,0,0,64.17,3.15c6.49,9.83,23,10.57,30.23,1.3,11.13,13.16,36.17,9.08,42.29-7,26.16,22.06,73.27,8.9,84.21-23.54C755.35-4,782.8-3.25,795.78-18.64,797.08-7.52,806.91,2.12,818,3.24s22.63-6.31,26.15-16.88c28.93,33,88.66,31,115.37-3.89a58.05,58.05,0,0,0,49,25.4c19.11-.55,37.84-11.49,47.49-28,10,14.27,32.46,17.79,46.36,7.23,18.37,18.72,53.23,16.13,68.82-4.82,5.94,18.35,24.11,31.88,43.4,32.26s38-12.43,44.7-30.6c5.19,10.76,21.89,13.35,30.24,4.82,13.16,22.62,50.63,25.22,66.77,4.45a61.78,61.78,0,0,0,30.6,19.47V-116.53Z"/><path class="cls-5" d="M323.37-13.82A18.23,18.23,0,0,0,313.72-11a6.3,6.3,0,0,0-8.34-3.89,9.19,9.19,0,0,1-3,1.48c-2.41.56-4.45-1.67-6.12-3.52-4.64-5.38-10.39-10.2-17.25-12s-15-.37-19.85,4.82c2.23-2.41-12.24-10.57-13.91-11.13-6.49-2-13-1.85-18,3.34A37.39,37.39,0,0,0,200.4-60.54c-13.36-3.34-28.57,2-37.1,12.79,0-9.27-13.17-15.2-20.22-9.27,1.12-11.12-15.76-18.35-23.18-10,5.38-15.57-2-34.49-16.69-42.09s-34.5-2.78-44,10.76c-.19-11.31-.56-23-6.12-32.63s-18.55-16.13-28.38-10.76c5.38-9.08-4.82-22.43-15-19.84,6.67-1.48,3-19.83,1.48-23.36-3-7.41-8.35-12.6-15.21-16.13V8.24a27.71,27.71,0,0,0,5.56,3.34,34.36,34.36,0,0,0,13,2.41A34.69,34.69,0,0,0,42-.29C43.3,7.13,52.39,11,59.62,9.54,67,8.06,73,2.68,78.35-2.51a62,62,0,0,0,46.19,15.2,62.53,62.53,0,0,0,42.84-23c3.9,8.35,14.47,11.87,23.56,10.38C200-1.21,208-6.4,215.61-11.78c3.7,9.83,18.73,12.79,26,5C252,1.38,268.28.46,277.74-8.63A14.1,14.1,0,0,0,297-7.52c2,3.71,7.42,3.53,11.5,3,5.75-.93,11.69-1.67,17.43-2.6a6.23,6.23,0,0,0,2.6-.92C331-10.48,326.71-14,323.37-13.82Z"/><path class="cls-6" d="M1387.09,89.63C1335,68.68,1203.83,61.82,1073.81,65.34c-261.34,7.24-594.08,91.59-863.4,159.82H1387.09Z"/><path class="cls-7" d="M993.69,130.61c100.33-9.09,148.94-21.51,148.94-21.51S1071,144,1096.25,147.66c25.23,3.9,319.58-57.66,202.54-75.83v-.18c-62.5-6.86-143.92-8.71-224.79-6.3-108.14,3-228.7,19.28-351.67,42.08a38.4,38.4,0,0,0-8.35,6.49C697.85,132.09,893.16,139.69,993.69,130.61Z"/><path class="cls-8" d="M1387.09,89.63C1373,83.89,1353,79.25,1328.65,75.54c116.49,40.79-24.1,163-335,140C698.78,193.64,649.81,142.66,680.23,115.4,620.69,127.08,561,140.06,501.8,153.78l-4.64,71h889.93Z"/><path class="cls-9" d="M779.09,224.79S618.83,137.47,374.93,93.53C131,49.77-4,74.25-4,74.25V224.79Z"/><path class="cls-10" d="M421.86,125.79c215.34,40.78,357.23,98.82,357.23,98.82S618.83,137.28,374.93,93.34-4,74.25-4,74.25V103S169.61,78.14,421.86,125.79Z"/><path class="cls-11" d="M-4,131.72s205.88-6.3,301,11.49-37.47,40.61-6.68,49.13S778.9,224.79,778.9,224.79H-4Z"/><path class="cls-12" d="M779.09,224.79S618.83,137.47,374.93,93.53C131,49.77-4,74.25-4,74.25V224.79Z"/><g class="cls-13"><path class="cls-14" d="M1298.79,71.75v-.1c-61.94-6.8-142.46-8.68-222.62-6.37l-2.36.06c-154.11,4.27-333,35.35-509.18,74.13a1626.52,1626.52,0,0,0-189.7-46.13C132.27,49.63-2.62,74-4,74.24h0V224.79H211.87l-.64.16-.82.21H1387.09V89.63h0l-.19-.07c-14.09-5.72-34.05-10.33-58.25-14l.27.09C1319.49,74.19,1309.42,72.9,1298.79,71.75Z"/></g><path class="cls-3" d="M1387.09,113.36c-2.6-2.78-5-3.15-8.72-3.15a11.72,11.72,0,0,0-3.53.56,5.49,5.49,0,0,0-2.59,2,17.38,17.38,0,0,0-4.27,8.9,7.89,7.89,0,0,0-8-1.67,7.66,7.66,0,0,0-4.08,7.23c-3.91-5.38-11.51-7.79-17.45-5s-9.08,10.76-5.74,16.5a5,5,0,0,0-5.94,1.67,4.8,4.8,0,0,0,.56,6.12,23.11,23.11,0,0,0-10.57,2.78c-3.16,1.86-5.57,5.19-5.75,8.72,0,3.7,2.78,7.41,6.3,7.6a14.34,14.34,0,0,0-5.74,1.3c-1.68.92-3.16,2.78-2.79,4.82.38,2.41,2.79,3.7,5,4.82-3.9,3.33-4.08,10-.74,14.09s9.27,5.37,14.28,4.08c0,4.07,2.6,7.78,5.93,10s7.42,3.15,11.51,3.52c6.49.37,13.54-.93,18.35-5.56h23.94Z"/><path class="cls-15" d="M1387.09,140.62c-6.31-2-12.25-1.49-17.62,2.59s-7.24,12.43-3.16,17.62c-4.82-1.49-10.38,3.52-9.65,8.53-1.29-7.61-11.12-6.68-16-3.34a14.31,14.31,0,0,0-5.56,11.86c-4.82-1.29-10.21,3.16-9.83,8a14,14,0,0,0-16,1.29,14.58,14.58,0,0,0-4.08,15.39c-2.41-.18-4.82-.37-7,.56s-4.08,3-3.89,5.38a12.39,12.39,0,0,0-10.95-2.6,12.24,12.24,0,0,0-8.35,7.6,9.6,9.6,0,0,0-10.38,1.11,9.71,9.71,0,0,0-3,10h125.39Z"/><path class="cls-16" d="M1387.09,224.79H-4V601.71H1387.09Z"/><path class="cls-17" d="M1387.09,310.82C1000.18,252.6,594.17,243.33-4,242.4V224.79H1387.09Z"/><path class="cls-18" d="M886.29,224.79c58.24,13.72,202.18,70.82,237.6,101.42,19.29,16.5-8.34,19.28-85,51.54C964,409.26,906.7,453.39,858.47,499.93S721.77,601.71,521.64,601.71h461.1s19.11-24.29,45.81-72.86c28.57-52.1,37.47-75.28,128-115.69,90.33-40.42,123.16-48.76,104.24-67.86C1237,321.57,1092.92,250,941.2,224.61H886.29Z"/><path class="cls-19" d="M1134.28,279.67c-55.46-22.06-123.53-43.39-193.27-55.06H886.29c29.31,6.85,80.32,24.65,128.17,44.68Q1075.39,274,1134.28,279.67Z"/><path class="cls-20" d="M1387.09,224.79H-4V601.71H1387.09Z"/><path class="cls-21" d="M941.2,224.61l1.1.18h444.79V601.71H-4V224.79H886.29v-.18H941.2Z"/><path class="cls-3" d="M-4,113.36c2.6-2.78,5-3.15,8.72-3.15a11.66,11.66,0,0,1,3.52.56,5.57,5.57,0,0,1,2.6,2,17.37,17.37,0,0,1,4.26,8.9,7.9,7.9,0,0,1,8-1.67,7.68,7.68,0,0,1,4.08,7.23c3.9-5.38,11.5-7.79,17.44-5s9.08,10.76,5.74,16.5a5,5,0,0,1,5.94,1.67,4.79,4.79,0,0,1-.56,6.12,23.18,23.18,0,0,1,10.58,2.78,11.36,11.36,0,0,1,5.75,8.72c0,3.7-2.79,7.41-6.31,7.6a14.39,14.39,0,0,1,5.75,1.3c1.67.92,3.15,2.78,2.78,4.82-.37,2.41-2.78,3.7-5,4.82,3.9,3.33,4.08,10,.75,14.09s-9.28,5.37-14.29,4.08c0,4.07-2.59,7.78-5.93,10s-7.42,3.15-11.5,3.52c-6.49.37-13.54-.93-18.36-5.56H-4Z"/><path class="cls-15" d="M-4,140.62c6.31-2,12.24-1.49,17.62,2.59s7.23,12.43,3.15,17.62c4.83-1.49,10.39,3.52,9.65,8.53,1.3-7.61,11.13-6.68,15.95-3.34a14.28,14.28,0,0,1,5.56,11.86c4.83-1.29,10.21,3.16,9.83,8a14,14,0,0,1,16,1.29,14.62,14.62,0,0,1,4.08,15.39c2.41-.18,4.82-.37,7,.56s4.08,3,3.9,5.38a12.37,12.37,0,0,1,10.94-2.6,12.24,12.24,0,0,1,8.35,7.6,9.61,9.61,0,0,1,10.39,1.11,9.73,9.73,0,0,1,3,10H-4Z"/><path class="cls-3" d="M146.42,408.71c-11.87-.74-23.74-1.3-35.79-1.67-23.75-.56-47.67-.37-71.41.74-10.39.56-21,1.11-31.35,2L-4,409.45V286c0-.55,7.05-5,16.88-5,6.49,0,14.65,4.45,18.92,9.27a24.87,24.87,0,0,1,3.52,27.25c4.82-3.71,12.43-1.48,16.32,3.15s5.2,11.13,5.94,17.24c3.15-4.26,7.42-8.15,12.43-9.64,5.19-1.66,11.12-.92,15,2.79,3.71,3.52,5,8.89,4.64,14.09-.37,5-2.41,10-4.27,14.64a13.6,13.6,0,0,1,11.31,4.45,14.16,14.16,0,0,1,3.34,11.68,10.65,10.65,0,0,1,12.06.37c4.64,3.53,3.89,9.64,4.27,14.83,5.56-2.78,13.16,1.12,14.46,7.24.93-3.16,5.38-4.08,9.46-3.53,2.23.37,4.27,3.16,4.64,5.38a5.62,5.62,0,0,1,5.38-.93,9,9,0,0,1,4.45,3.34c.93,1.3,1.67,2.78,1.3,4.26C155.33,410.56,149,408.89,146.42,408.71Z"/><path class="cls-22" d="M1285.82,289.5a6.35,6.35,0,0,1,4.07-5.75c4.08-1.48,8.54.74,8.54.74a13.34,13.34,0,0,1-5.2,4.26A27.82,27.82,0,0,1,1285.82,289.5Z"/><path class="cls-22" d="M1282.84,289.5s-1.11-8.72,4.27-10.2a26.51,26.51,0,0,1,8.9-1.11s-.93,6.48-5.37,8.52A30.76,30.76,0,0,1,1282.84,289.5Z"/><path class="cls-23" d="M1276.17,270.77c-2.6,4.08-3.16,9.27,0,13.53a18.35,18.35,0,0,0,6.87,5.2,13.2,13.2,0,0,0,.36-9.27C1281.73,275,1276.17,270.77,1276.17,270.77Z"/><path class="cls-23" d="M1285.82,289.5s-1.3-6.12.73-9.27a11.4,11.4,0,0,1,5.2-4.27s.74,4.45,0,6.86C1290.46,286.71,1285.82,289.5,1285.82,289.5Z"/><path class="cls-23" d="M1279,289.12c-.93-1.85-5.38-5.19-7.42-4.63s-.93,2.22,1.3,3.52C1274.31,288.75,1279,289.12,1279,289.12Z"/><path class="cls-22" d="M293.14,309.7a6.39,6.39,0,0,1,2-7.41,9.31,9.31,0,0,1,7.23-2.23s-4.64,1.67-5.38,3.53C296.47,305.63,293.14,309.7,293.14,309.7Z"/><path class="cls-23" d="M295.73,310.07a8.51,8.51,0,0,1-2.22-7.78c1.11-5,5.75-7.79,5.75-7.79s2.22,5.38,1.48,9.27C300.18,307.66,295.73,310.07,295.73,310.07Z"/><path class="cls-23" d="M293.32,310.07s-5.56-2.59-5.56-5.19,1.85-7.6,1.85-7.6a9.57,9.57,0,0,1,1.86,5A70.19,70.19,0,0,0,293.32,310.07Z"/><path class="cls-22" d="M73,271.14c-.37-3,6.87-8.16,8-7.23s-1.11,3-3.15,5A8.77,8.77,0,0,1,73,271.14Z"/><path class="cls-22" d="M76.87,271.14s.93-6.67,6.86-8.53,9.46,0,9.46,0-2.22,4.64-6.49,6.31A33.6,33.6,0,0,1,76.87,271.14Z"/><path class="cls-22" d="M91.71,270c-.74-1.49-6.87-3-10.76.93,0,0,4.08,1.29,6.49,1.11S92.82,272.07,91.71,270Z"/><path class="cls-23" d="M83.73,252.6c2.6,4.08,3.15,9.27,0,13.53a18.36,18.36,0,0,1-6.86,5.2,13.17,13.17,0,0,1-.37-9.27C78.17,256.68,83.73,252.6,83.73,252.6Z"/><path class="cls-23" d="M73.72,268.92s.55-6.31-1.86-9.09a10.13,10.13,0,0,0-5.56-3.52s0,4.63.92,6.67C68.89,266.69,73.72,268.92,73.72,268.92Z"/><path class="cls-23" d="M81,270.77c.93-1.85,5.38-5.19,7.42-4.64s.93,2.23-1.3,3.53C85.4,270.58,81,270.77,81,270.77Z"/><path class="cls-23" d="M73,271.14a13.76,13.76,0,0,0-9.27-5.75s-.74,2,2.6,4.08A10,10,0,0,0,73,271.14Z"/><path class="cls-24" d="M1153.75,158.42s-7.41,10-10.57,30.77,10.57,23,10.57,23,12.06-3.52,9.84-23C1161.17,169.91,1153.75,158.42,1153.75,158.42Z"/><path class="cls-25" d="M1153.19,188.08l-1.48,36.71h3.53Z"/><path class="cls-26" d="M1176.2,131.16s-10.58,14.28-15,43.57c-4.45,29.48,15,32.63,15,32.63s17.06-5,13.9-32.44C1186.77,147.29,1176.2,131.16,1176.2,131.16Z"/><path class="cls-25" d="M1175.45,173.06l-2,51.73h4.82Z"/><path class="cls-24" d="M158.11,158.42s7.42,10,10.57,30.77-10.57,23-10.57,23-12.06-3.52-9.83-23C150.69,169.91,158.11,158.42,158.11,158.42Z"/><path class="cls-25" d="M158.66,188.08l1.3,36.71h-3.34Z"/><path class="cls-26" d="M135.67,131.16s10.57,14.28,15,43.57c4.45,29.48-15,32.63-15,32.63s-17.07-5-13.92-32.44C125.09,147.29,135.67,131.16,135.67,131.16Z"/><path class="cls-25" d="M136.41,173.06l1.85,51.73h-4.82Z"/><path class="cls-24" d="M282.75,215.52s-10.57,14.28-15,43.75,15,32.64,15,32.64,17.06-5,13.91-32.64C293.51,231.84,282.75,215.52,282.75,215.52Z"/><path class="cls-25" d="M282,257.61l-1.86,51.91H285Z"/><path class="cls-26" d="M258.64,205.51s-10.58,14.28-15,43.75,15,32.63,15,32.63,17.06-5,13.91-32.63C269.21,221.82,258.64,205.51,258.64,205.51Z"/><path class="cls-25" d="M257.89,247.59l-2,51.92h4.83Z"/><path class="cls-27" d="M972.91,224.61l.19.18h154.69a8.31,8.31,0,0,0-10.76-3,8,8,0,0,0-11.13-1.66,5.76,5.76,0,0,0-4.64-3.53,5.32,5.32,0,0,0-4.82,3.16,6.61,6.61,0,0,0-4.08-3.34c-1.67-.37-3.89.55-4.26,2.41a6.39,6.39,0,0,0-4.83-4.08,6.21,6.21,0,0,0-5.75,2.41,4.35,4.35,0,0,0-2.41-4.82,4.51,4.51,0,0,0-5.19,1.3c.37-3.71-.56-6.68-3.9-8.16a10.52,10.52,0,0,0-8.53,0c-3.34,1.67-4.45,3.71-5.57,8-1.85-3.52-7.6-2.78-9.83.56,1.12-3.9-2-8.35-5.93-8.53-4.08-.19-7.41,4.26-6.49,8.16-.37-2.41-3.53-3.9-5.38-2.6a12.55,12.55,0,0,0,1.11-7.42,6.89,6.89,0,0,0-4.82-5.19,5,5,0,0,0-5.19,2.78c.18-2.41-2.23-4.82-4.64-4.26a7.76,7.76,0,0,0,0-11.68c-3.34-2.78-9.27-1.85-11.5,2a5,5,0,0,0-2.23-5,5.11,5.11,0,0,0-5.37,0,11.27,11.27,0,0,0-5-9.64,11.14,11.14,0,0,0-10.76-.74c-1.67.74-3,1.3-3.9,2.78a12.27,12.27,0,0,0-1.48,5.19,107.62,107.62,0,0,0-.19,33.56C970.31,216.63,970.69,222.75,972.91,224.61Z"/><path class="cls-27" d="M761.84,224.79c2.41-2.6,3.52-6.3,3.89-10.2a111.37,111.37,0,0,0-1.3-27.25c-1.29-8-5.56-14.46-14.65-13.53-4.63.37-8.9,3-12.24,6.11-3,2.78-3.15,6.49-2.6,10.2-2.59-2.41-7.79-.56-8.16,3.15a16.38,16.38,0,0,0-5.19-4.26,6.3,6.3,0,0,0-6.49.55c-1.86,1.49-2.41,4.27-.74,5.94a6.77,6.77,0,0,0-5.94,1.11,4.3,4.3,0,0,0-.93,5.56,5.11,5.11,0,0,0-6.67-.74,5.19,5.19,0,0,0-1.49,6.67c-1.48-2.59-5.38-1.29-6.49,1.12-2-3.53-6.49-5.19-10.57-5.57a11.87,11.87,0,0,0-6.68.93c-4.08,2-5.38,7.23-6.12,11.87a10.15,10.15,0,0,0-3.34-3c-3.34-1.67-6.68.74-8.34,3.52-3.34-3.89-7.79-6.86-12.8-7.41-5-.37-10.57,2.59-11.69,7.6-2-.93-4.08-1.86-6.3-1.67-2.23,0-4.46,1.3-5,3.34a9,9,0,0,0-8.16,0,8.66,8.66,0,0,0-4.45,6.49H761.84Z"/><path class="cls-28" d="M993.69,164.72H971.61V151.37l-61-74.71,6.49-4.45,56.76,36.7,10.94,42.46Z"/><path class="cls-29" d="M993.69,164.72l-11.13-12.05H971.61v12.05Z"/><path class="cls-30" d="M849.38,151.37l10.39-42.46L911.7,73l57.13,39.86,9.46,38.56v73.42H849.38Z"/><path class="cls-31" d="M853.09,151.37H750.15v73.42H853.09Z"/><path class="cls-32" d="M748.67,151.37l10.39-42.46H863.48l-10.39,42.46Z"/><path class="cls-33" d="M759.06,108.91l53.41-36.7H917.08l-53.6,36.7Z"/><path class="cls-33" d="M840.11,164.72H735.69l13-13.35H853.09Z"/><path class="cls-34" d="M923.39,72.21l-55.09,38-10.38,42.46L846.6,164.72h-6.49l13-13.35,10.39-42.46,53.6-36.7Z"/><path class="cls-35" d="M917.08,72.21l55.09,38,10.39,42.46,11.13,12.05h6.49l-13-13.35-10.38-42.46-53.42-36.7Z"/><path class="cls-29" d="M968.83,112.81l3.34-2.6-51.75-36-3.52,2.22Z"/><path class="cls-29" d="M868.3,65h-2.59V62.75Z"/><path class="cls-31" d="M847.9,61.45H826.2V79.62h21.7Z"/><path class="cls-30" d="M847.9,79.62l11.5-7.41h6.31V61.45l-8.91-8-8.9,8Z"/><path class="cls-33" d="M820.82,63.49l11.5-10H856.8l-11.5,10Z"/><path class="cls-36" d="M845.49,63.49H820.82V65h24.67Z"/><path class="cls-28" d="M845.3,65l11.5-10V53.48l-11.5,10Z"/><path class="cls-28" d="M868.3,65,856.8,55V53.48l11.5,10Z"/><path class="cls-37" d="M939.9,169H890.37v55.81H939.9Z"/><path class="cls-38" d="M892,170.47h-3.15v54.14H892Z"/><path class="cls-38" d="M938.23,170.47h-3.16v54.14h3.16Z"/><path class="cls-38" d="M915.23,170.47h-3.15v54.14h3.15Z"/><path class="cls-38" d="M888.94,170.46v3.15h49.52v-3.15Z"/><path class="cls-38" d="M888.77,196.77v3.15H938.3v-3.15Z"/><path class="cls-38" d="M935.07,170.47l-23,28h3.15l23-28Z"/><path class="cls-38" d="M892,170.47l23.19,28h-3.16l-23.18-28Z"/><path class="cls-38" d="M933.78,224.79l-21.7-26.33h3.15l21.7,26.33Z"/><path class="cls-38" d="M893.34,224.79l21.89-26.33h-3.15l-21.89,26.33Z"/><path class="cls-33" d="M893.53,169h-3.16v55.81h3.16Z"/><path class="cls-33" d="M939.9,169h-3.16v55.81h3.16Z"/><path class="cls-33" d="M916.71,169h-3.15v55.81h3.15Z"/><path class="cls-33" d="M890.46,169v3.15H940V169Z"/><path class="cls-33" d="M890.48,195.28v3.15H940v-3.15Z"/><path class="cls-33" d="M936.74,169l-23.18,27.81h3.15L939.9,169Z"/><path class="cls-33" d="M893.71,169l23,27.81h-3.15L890.37,169Z"/><path class="cls-33" d="M936.74,224.79l-23.18-28h3.15l23.19,28Z"/><path class="cls-33" d="M893.71,224.79l23-28h-3.15l-23.19,28Z"/><path class="cls-39" d="M930.07,115.4H900.39v32.45h29.68Z"/><path class="cls-38" d="M899.05,146.23v3h29.68v-3Z"/><path class="cls-38" d="M899.05,116.76v3h29.68v-3Z"/><path class="cls-38" d="M899,149.06h3V116.61h-3Z"/><path class="cls-38" d="M925.71,149.06h3V116.61h-3Z"/><path class="cls-38" d="M902.06,116.7l23.55,29.48v3l-23.55-29.48Z"/><path class="cls-38" d="M925.61,116.7l-23.55,29.48v3l23.55-29.48Z"/><path class="cls-33" d="M900.31,144.85v3H930v-3Z"/><path class="cls-33" d="M900.31,115.38v3H930v-3Z"/><path class="cls-33" d="M900.39,147.9h3V115.45h-3Z"/><path class="cls-33" d="M927.07,147.9h3V115.45h-3Z"/><path class="cls-33" d="M903.36,115.4l23.55,29.48v3l-23.55-29.48Z"/><path class="cls-33" d="M926.91,115.4l-23.55,29.48v3l23.55-29.48Z"/><path class="cls-39" d="M796.15,184.37h-20v20.77h20Z"/><path class="cls-40" d="M774.94,203.57V206h20v-2.41Z"/><path class="cls-40" d="M775,185.29v2.41h20v-2.41Z"/><path class="cls-40" d="M775,206.12h2.41V185.36H775Z"/><path class="cls-40" d="M792.7,206.08h2.41V186.8H792.7Z"/><path class="cls-33" d="M776,202.72v2.41h20v-2.41Z"/><path class="cls-33" d="M776,184.44v2.41h20v-2.41Z"/><path class="cls-33" d="M776,205.1h2.42V184.34H776Z"/><path class="cls-33" d="M793.7,205.1h2.41V184.34H793.7Z"/><path class="cls-39" d="M813.77,184.37h-20v20.77h20Z"/><path class="cls-40" d="M793.68,203.58V206h19.11v-2.41Z"/><path class="cls-40" d="M793.79,185.3v2.41h19.1V185.3Z"/><path class="cls-40" d="M810.4,206.13h2.41V185.36H810.4Z"/><path class="cls-33" d="M793.7,202.76v2.41h20v-2.41Z"/><path class="cls-33" d="M793.63,184.49v2.41h20v-2.41Z"/><path class="cls-33" d="M793.7,205.1h2.41V184.34H793.7Z"/><path class="cls-33" d="M811.4,205.1h2.41V184.34H811.4Z"/><path class="cls-41" d="M865.71,65v7.23h57.68l53.42,36.7,10.38,42.46,13,13.35H978.29v6.4a11.42,11.42,0,0,1,8.35,1.57,11.27,11.27,0,0,1,5,9.64,5.11,5.11,0,0,1,5.37,0,5,5,0,0,1,2.23,5c2.23-3.89,8.16-4.82,11.5-2a7.76,7.76,0,0,1,0,11.68c2.41-.56,4.82,1.85,4.64,4.26a5,5,0,0,1,5.19-2.78,6.89,6.89,0,0,1,4.82,5.19,12.55,12.55,0,0,1-1.11,7.42c1.77-1.24,4.73.06,5.31,2.28-.67-3.81,2.59-8,6.56-7.84s7,4.63,5.93,8.53c2.23-3.34,8-4.08,9.83-.56,1.12-4.26,2.23-6.3,5.57-8a10.52,10.52,0,0,1,8.53,0c3.34,1.48,4.27,4.45,3.9,8.16a4.51,4.51,0,0,1,5.19-1.3,4.35,4.35,0,0,1,2.41,4.82,6.21,6.21,0,0,1,5.75-2.41,6.39,6.39,0,0,1,4.83,4.08c.37-1.86,2.59-2.78,4.26-2.41a6.61,6.61,0,0,1,4.08,3.34,5.32,5.32,0,0,1,4.82-3.16,5.76,5.76,0,0,1,4.64,3.53,8,8,0,0,1,11.13,1.66,8.31,8.31,0,0,1,10.76,3H761.84v.56H609.38a8.64,8.64,0,0,1,4.45-6.49,9,9,0,0,1,8.16,0c.55-2,2.78-3.34,5-3.34,2.22-.19,4.26.74,6.3,1.67,1.11-5,6.68-8,11.69-7.6,5,.55,9.46,3.52,12.79,7.41,1.67-2.78,5-5.19,8.35-3.52a10.15,10.15,0,0,1,3.34,3c.74-4.64,2-9.83,6.12-11.87a11.87,11.87,0,0,1,6.68-.93c4.08.38,8.53,2,10.57,5.57,1.11-2.4,5-3.7,6.47-1.15a5.19,5.19,0,0,1,1.51-6.64,5.11,5.11,0,0,1,6.67.74,4.3,4.3,0,0,1,.93-5.56,6.77,6.77,0,0,1,5.94-1.11c-1.67-1.67-1.12-4.45.74-5.94a6.3,6.3,0,0,1,6.49-.55,16.38,16.38,0,0,1,5.19,4.26c.37-3.71,5.57-5.56,8.16-3.15-.55-3.71-.37-7.42,2.6-10.2,3.34-3.15,7.61-5.74,12.24-6.11l.37,0v-9.05H735.69l13-13.35h0l10.39-42.46h0l53.41-36.7H826.2V65h-5.38V63.49h0l11.5-10h24.49l11.49,10V65l-2.59-2.27v0L868.3,65ZM847.9,62.71v9.5h0v-9.5Z"/><path class="cls-42" d="M1212.81,262.68,1231.36,28h16.14L1266,262.68"/><path class="cls-42" d="M1247.5,28l-18.74,31.7,24.11,38h-27.08l24.12-38L1231.36,28"/><path class="cls-42" d="M1252.87,97.67l-31.16,51.17"/><path class="cls-42" d="M1257,148.84l-39.88,60.44h44.7l-40.06-60.44Zm0,0-31.16-51.17"/><path class="cls-42" d="M1217.07,209.28l48.41,47.09"/><path class="cls-42" d="M1261.77,209.28l-48.41,47.09"/><path class="cls-43" d="M1256,57.07h-33.39a1.86,1.86,0,0,0-1.86,1.85v.37a1.87,1.87,0,0,0,1.86,1.86H1256a1.86,1.86,0,0,0,1.85-1.86v-.37A1.74,1.74,0,0,0,1256,57.07Z"/><path class="cls-42" d="M1239.33,28V262.68"/><path class="cls-43" d="M1231-5.23s-8.72,8.9-14.27,8.34-10.58-3.15-8.35-4.82C1210.77-3,1231-5.23,1231-5.23Z"/><path class="cls-43" d="M1234.32-.78s-1.85,12.24-6.67,15.2-10.58,3.71-9.46,1.12C1219.12,12.76,1234.32-.78,1234.32-.78Z"/><path class="cls-43" d="M1239.33.89s5.75,10.94,3.53,16.13-6.31,9.08-7,6.49S1239.33.89,1239.33.89Z"/><path class="cls-43" d="M1244.52-.78s11.13,5.56,12.43,11.13.19,11.12-1.85,9.45C1252.87,17.76,1244.52-.78,1244.52-.78Z"/><path class="cls-43" d="M1247.68-5.23s12.24-2,16.5,1.67,6.69,8.9,3.9,8.71S1247.68-5.23,1247.68-5.23Z"/><path class="cls-44" d="M1114.06,206.25v-7.6h-3.52v-3c.55-.18.55-.74.55-1.3v-4.26a1.4,1.4,0,0,0-.93-1.3,38.86,38.86,0,0,1,.2-4.82c.18-.93,1.66-.74,1.66-.74l.18-1.11c-.92,0-2.59.18-2.77,1.85a40.89,40.89,0,0,0-.19,4.82,1.4,1.4,0,0,0-.93,1.3v4.08a1.6,1.6,0,0,0,1.12,1.48v2.78h-6.69l-.92,3.71a16,16,0,0,0-10.76,6.12,16.06,16.06,0,0,1-7.42-2.41l5.56-5.56,2.79,2.78a.92.92,0,0,0,1.3-1.3l-6.68-6.67a.9.9,0,0,0-1.3,0,.89.89,0,0,0,0,1.29l2.79,2.79-5.76,5.74c-.36-.37-.74-.55-.92-.92v-9.65a1.68,1.68,0,0,0-3.35,0v7.23h-17.43a3.33,3.33,0,0,0-3.15,2.42H1056v5.19h1.11v3.15a10.89,10.89,0,0,0-8.16,11.49,11.08,11.08,0,0,0,10.94,10.2,11.2,11.2,0,0,0,11.32-11.12,9.48,9.48,0,0,0-.57-3.34h16.89a16,16,0,0,0,31.72.74A15.18,15.18,0,0,0,1114.06,206.25Z"/></g><rect class="cls-1" x="-233.75" y="-50" width="1380" height="400"/><g class="cls-45"><path class="cls-46" d="M1387.09-757.2H-4v927H1387.09Z"/><path class="cls-16" d="M1387.09-207.12H-4V169.81H1387.09Z"/><path class="cls-47" d="M-4,169.81V-76.78s480.2-58.4,853.94-27.44S1387.09-2.43,1387.09-2.43V169.81Z"/><path class="cls-18" d="M886.29-207.12c58.24,13.72,202.18,70.83,237.6,101.42,19.29,16.5-8.34,19.28-85,51.54C964-22.64,906.7,21.48,858.47,68S721.77,169.81,521.64,169.81h461.1s19.11-24.29,45.81-72.87c28.57-52.1,37.47-75.27,128-115.69,90.33-40.42,123.16-48.76,104.24-67.85C1237-110.34,1092.92-181.9,941.2-207.3H886.29Z"/><path class="cls-48" d="M1387.09-207.12H-4V169.81H1387.09Z"/></g></svg>