<svg xmlns="http://www.w3.org/2000/svg" xmlns:xlink="http://www.w3.org/1999/xlink" viewBox="0 0 750 500"><defs><style>.cls-1{isolation:isolate;}.cls-2{fill:url(#Degradado_sin_nombre_422);}.cls-3{opacity:0.5;}.cls-4{fill:url(#Degradado_sin_nombre_79);}.cls-5{fill:url(#Degradado_sin_nombre_79-2);}.cls-6{fill:url(#Degradado_sin_nombre_79-3);}.cls-7{fill:url(#Degradado_sin_nombre_80);}.cls-10,.cls-11,.cls-12,.cls-13,.cls-14,.cls-16,.cls-17,.cls-18,.cls-20,.cls-27,.cls-29,.cls-8{mix-blend-mode:multiply;}.cls-8{fill:url(#Degradado_sin_nombre_390);}.cls-9{fill:#000217;opacity:0.36;}.cls-10{fill:url(#Degradado_sin_nombre_215);}.cls-11{fill:url(#Degradado_sin_nombre_236);}.cls-12{fill:url(#Degradado_sin_nombre_236-2);}.cls-13{fill:url(#Degradado_sin_nombre_215-2);}.cls-14{fill:url(#Degradado_sin_nombre_215-3);}.cls-15{fill:#00151f;}.cls-16{fill:url(#Degradado_sin_nombre_297);}.cls-17{fill:url(#Degradado_sin_nombre_236-3);}.cls-18{fill:url(#Degradado_sin_nombre_53);}.cls-19{fill:#1d1000;}.cls-20{fill:url(#Degradado_sin_nombre_53-2);}.cls-21{fill:#13140a;}.cls-22{fill:#20270e;}.cls-23{fill:#341c08;}.cls-24{fill:#2c1c09;}.cls-25{fill:#2a100a;}.cls-26{fill:#181404;}.cls-27{fill:url(#Degradado_sin_nombre_41);}.cls-28{fill:#4a330b;}.cls-29{fill:url(#Degradado_sin_nombre_41-2);}.cls-30{fill:#22331d;}.cls-31{fill:#222800;}.cls-32{fill:#221e19;}.cls-33{fill:#191802;}.cls-34{fill:#322300;}.cls-35{fill:#232323;}.cls-36{fill:#141414;}.cls-37,.cls-44{fill:#1d0900;}.cls-38{fill:#140000;}.cls-39{fill:#262719;}.cls-40{fill:#2f0000;}.cls-41{fill:#c38b22;}.cls-42{fill:none;stroke:#280f0a;stroke-linecap:round;stroke-linejoin:round;}.cls-43{fill:#280f0a;}.cls-44{fill-rule:evenodd;}</style><linearGradient id="Degradado_sin_nombre_422" x1="375" y1="260.18" x2="375" y2="5.94" gradientUnits="userSpaceOnUse"><stop offset="0" stop-color="#00181a"/><stop offset="0.04" stop-color="#001016"/><stop offset="1" stop-color="#00293f"/></linearGradient><linearGradient id="Degradado_sin_nombre_79" x1="516.94" y1="173.1" x2="516.94" y2="8.2" gradientUnits="userSpaceOnUse"><stop offset="0" stop-color="#f8f4c7" stop-opacity="0.3"/><stop offset="1" stop-color="#f8f4c7" stop-opacity="0"/></linearGradient><linearGradient id="Degradado_sin_nombre_79-2" x1="3467.05" y1="125.46" x2="3467.05" y2="8.66" gradientTransform="matrix(-1, 0, 0, 1, 3604.3, 0)" xlink:href="#Degradado_sin_nombre_79"/><linearGradient id="Degradado_sin_nombre_79-3" x1="89.84" y1="177.43" x2="89.84" y2="52.44" xlink:href="#Degradado_sin_nombre_79"/><linearGradient id="Degradado_sin_nombre_80" x1="626.66" y1="137.81" x2="626.66" y2="45.83" gradientUnits="userSpaceOnUse"><stop offset="0" stop-color="#f8f4c7" stop-opacity="0.2"/><stop offset="1" stop-color="#f8f4c7" stop-opacity="0"/></linearGradient><linearGradient id="Degradado_sin_nombre_390" x1="115.66" y1="253.59" x2="750" y2="253.59" gradientUnits="userSpaceOnUse"><stop offset="0" stop-color="#3fa172" stop-opacity="0"/><stop offset="1" stop-color="#0054d4" stop-opacity="0.5"/></linearGradient><linearGradient id="Degradado_sin_nombre_215" x1="270.14" y1="256.47" x2="750" y2="256.47" gradientUnits="userSpaceOnUse"><stop offset="0" stop-color="#3fa1ff" stop-opacity="0"/><stop offset="1" stop-color="#0054d4" stop-opacity="0.5"/></linearGradient><linearGradient id="Degradado_sin_nombre_236" x1="432.83" y1="209.32" x2="432.83" y2="294.24" gradientUnits="userSpaceOnUse"><stop offset="0" stop-color="#001d7f" stop-opacity="0"/><stop offset="1" stop-color="#001b6a" stop-opacity="0.5"/></linearGradient><linearGradient id="Degradado_sin_nombre_236-2" x1="0" y1="254.22" x2="422.18" y2="254.22" xlink:href="#Degradado_sin_nombre_236"/><linearGradient id="Degradado_sin_nombre_215-2" x1="0" y1="271.27" x2="422.18" y2="271.27" xlink:href="#Degradado_sin_nombre_215"/><linearGradient id="Degradado_sin_nombre_215-3" x1="211.09" y1="223.05" x2="211.09" y2="295.66" xlink:href="#Degradado_sin_nombre_215"/><linearGradient id="Degradado_sin_nombre_297" y1="398.33" x2="750" y2="398.33" gradientUnits="userSpaceOnUse"><stop offset="0" stop-color="#001d2d" stop-opacity="0"/><stop offset="1" stop-color="#001b6a" stop-opacity="0.5"/></linearGradient><linearGradient id="Degradado_sin_nombre_236-3" x1="0" y1="319.87" x2="750" y2="319.87" xlink:href="#Degradado_sin_nombre_236"/><linearGradient id="Degradado_sin_nombre_53" y1="423.67" x2="750" y2="423.67" gradientUnits="userSpaceOnUse"><stop offset="0" stop-color="#97880f" stop-opacity="0"/><stop offset="1" stop-color="#395e11" stop-opacity="0.4"/></linearGradient><linearGradient id="Degradado_sin_nombre_53-2" x1="390.5" y1="304.41" x2="363.89" y2="465.69" xlink:href="#Degradado_sin_nombre_53"/><linearGradient id="Degradado_sin_nombre_41" y1="471.52" x2="231.31" y2="471.52" gradientUnits="userSpaceOnUse"><stop offset="0" stop-color="#5d5d1f" stop-opacity="0"/><stop offset="1" stop-color="#4d542b" stop-opacity="0.4"/></linearGradient><linearGradient id="Degradado_sin_nombre_41-2" x1="206.8" y1="458.48" x2="133.82" y2="558.83" xlink:href="#Degradado_sin_nombre_41"/></defs><g class="cls-1"><g id="objects"><rect class="cls-2" width="750" height="500"/><g class="cls-3"><path class="cls-4" d="M750,112.59c-1.51,1-2.3,2.2-1.75,3.55a17.76,17.76,0,0,0-30.35-4.33c1.16-7.81-4.76-16-12.54-17.32s-16.09,4.4-17.6,12.14c-.25-7.21-11-11.19-15.89-5.87a19.34,19.34,0,0,0-32.08-14.37c1.84-10-6.42-19.75-16.15-22.69-9-2.74-18.14.78-26.29,4.89C596.27,57.67,586.28,49.68,576,45.73c-15.53-6-33.79-5.41-48.22,2.9s-24.31,24.6-23.55,41.23c-10.64-5.64-25.69.63-29.19,12.15-1.43-9.82-11.13-17.69-21-17.08s-18.55,9.62-18.77,19.54c-2.39-4.12-9.08-4-12.28-.46s-3.29,9.06-1.49,13.48c-3-2.79-8.9-.14-8.81,4-3-9.79-16.88-12.82-25.6-7.43S374.47,130.26,374,140.5a7.52,7.52,0,1,0-9.67,11.5c-5.75-1.67-11.86-3.34-17.65-1.82s-10.86,7.55-9.07,13.28c-5.43-3-13.26,2.35-12.41,8.51-6.87-7.07-20.82-4.22-24.36,5a31.73,31.73,0,0,0-17,2,59.1,59.1,0,0,0,34.62,1.71c3.49,5.34,12.44,5.7,16.35.67,6,7.11,19.46,4.86,22.79-3.81,14.13,11.93,39.48,4.82,45.36-12.71,6.49,8.7,21.35,9.09,28.29.76a13.47,13.47,0,0,0,26.14,2.68c15.65,17.81,47.77,16.72,62.18-2.1a30.71,30.71,0,0,0,52-1.4c5.42,7.69,17.48,9.58,25,3.93,9.87,10,28.74,8.71,37.07-2.65a25.13,25.13,0,0,0,47.52,1c2.83,5.79,11.83,7.22,16.31,2.58,7.14,12.24,27.3,13.57,36,2.37A33.77,33.77,0,0,0,750,182.38Z"/><path class="cls-5" d="M262.51,128.18c-2.52-6.51-12.4-8.53-17.26-3.52.6-4.36-4.94-8.16-8.79-6,1.27-4-2.32-8.32-6.42-9.4s-8.43.1-12.51,1.29a5.33,5.33,0,1,0-6.84-8.15c-.34-7.25-3.11-14.94-9.28-18.76s-16-1.67-18.13,5.26c.06-2.9-4.13-4.77-6.25-2.8,1.28-3.13,1.22-7-1.05-9.55s-7-2.59-8.7.33a14.17,14.17,0,0,0-28.19-1.74C136.61,67,126,62.51,118.42,66.5,119,54.72,112,43.18,101.74,37.3s-23.15-6.29-34.16-2C60.33,38,53.25,43.7,52.48,51.44,46.71,48.53,40.26,46,33.86,48,27,50.06,21.12,57,22.42,64A14,14,0,0,0,7.8,61.85,14.08,14.08,0,0,0,0,71.61v58.1a17.84,17.84,0,0,0,10.16,3.08,18.28,18.28,0,0,0,16.59-12.36c5.9,8,19.27,9,26.25,1.88,5.33,4,13.87,2.66,17.71-2.78a21.76,21.76,0,0,0,36.84,1c10.21,13.33,33,14.1,44,1.49a9.54,9.54,0,0,0,18.51-1.9c4.92,5.9,15.45,5.62,20-.54,4.17,12.42,22.12,17.45,32.13,9,2.36,6.14,11.92,7.74,16.14,2.7,2.77,3.56,9.11,3.31,11.58-.47a42,42,0,0,0,24.52-1.22A22.47,22.47,0,0,0,262.51,128.18Z"/><path class="cls-6" d="M176.54,168a10.64,10.64,0,0,0-5.21,1.48,3.36,3.36,0,0,0-4.54-2.07,7.67,7.67,0,0,1-1.56.8c-1.32.31-2.45-.9-3.32-1.94a19.16,19.16,0,0,0-9.34-6.47c-3.72-1-8.06-.21-10.66,2.63,1.21-1.32-6.64-5.68-7.51-6-3.53-1.11-7-.95-9.65,1.85a19.45,19.45,0,0,0-34.46-8.44c-.05-5-7.06-8.21-10.88-5,.62-6-8.54-9.93-12.46-5.39a19.2,19.2,0,0,0-9-22.67,19.21,19.21,0,0,0-23.69,5.78c-.08-6-.25-12.41-3.29-17.64s-10-8.71-15.34-5.84C18.52,94.16,13,87,7.5,88.42c3.54-1,1.47-10.78.67-12.76A16.82,16.82,0,0,0,0,66.94V179.8a12.21,12.21,0,0,0,3,1.75,17.36,17.36,0,0,0,7,1.26,18.68,18.68,0,0,0,14.77-7.73c.73,4,5.57,6.13,9.55,5.33s7.19-3.66,10.07-6.52a33.23,33.23,0,0,0,48-4.23c2.14,4.48,7.8,6.38,12.71,5.64s9.24-3.54,13.33-6.37c2,5.33,10.14,6.92,14,2.74a15.29,15.29,0,0,0,19.46-1,7.65,7.65,0,0,0,10.36.62c1.11,2,4,1.94,6.24,1.61l9.42-1.38a2.52,2.52,0,0,0,1.36-.49C180.61,169.81,178.33,167.94,176.54,168Z"/><path class="cls-7" d="M750,36a22.15,22.15,0,0,0-8.66-.33C730.91,37.37,723.47,46.31,722,56.46c-3.29-4-9.88-7.24-15.05-7.3A13.6,13.6,0,0,0,693.2,63.48c-2.94-.44-6.39-1.09-9,.78a6.87,6.87,0,0,0-2.45,7.55,20.12,20.12,0,0,0-14-5.79,16.13,16.13,0,0,0-13.18,7,23.91,23.91,0,0,0-2.94,7.63c-1,4.4-.31,8.16-.44,12.46-3.62-1.63-7.31-2.79-11.23-.9a11,11,0,0,0-6.06,9.45c-13.73-14.08-32.76,5.5-36.94,18.71-3.17-4.16-7.2-8.22-12.38-9s-11.17,3.63-10.14,8.76c-3.69-1.78-7.59-3.61-11.68-3.33-4.93.35-7.19,3.87-8.86,8a8.25,8.25,0,0,0-9.66-2.88,9.9,9.9,0,0,0-6,8.46c-.95-2.71-4.55-3.84-7.2-2.73s-4.32,3.9-4.86,6.72c-2.37-1.76-5.26-2.31-7.79-.52a19,19,0,0,1-2.87,2.05,9.36,9.36,0,0,1-4.08.58l-8-.06c-.58,1.12.71,2.29,1.86,2.81a24,24,0,0,0,18.65,0c3.68,3.39,10.51,2.12,12.72-2.36a11.13,11.13,0,0,0,11-.67c5.82,8.76,19.13,13.46,27.13,4.2,1.5,6.38,9.36,9.89,15.62,8s10.6-8,11.93-14.44c-.79,3.82,12.08,8.1,14.51,8.51,7,1.16,12.2-1.64,18.47-4.23a5,5,0,0,0,9.16,2.47,13.83,13.83,0,0,0,9.79,5.36,25.49,25.49,0,0,0,11.27-1.67c6.14-2.18,13.1-5.92,17.85-10.39a16.95,16.95,0,0,0,31.55.25,13,13,0,0,0,24.72,5.14A21.9,21.9,0,0,0,750,147.48Z"/></g><path class="cls-8" d="M750,223.85c-28.07-11.3-98.85-15-168.87-13.11-140.9,3.9-320.26,49.35-465.47,86.19H750Z"/><path class="cls-9" d="M537.87,246c54.13-4.88,80.28-11.58,80.28-11.58s-38.55,18.76-24.95,20.84,172.31-31.08,109.17-40.94l0-.08c-33.7-3.66-77.61-4.65-121.22-3.45-58.33,1.61-123.25,10.35-189.62,22.65a18.17,18.17,0,0,0-4.46,3.52C378.39,246.71,483.74,250.82,537.87,246Z"/><path class="cls-10" d="M750,223.85c-7.62-3.07-18.4-5.58-31.45-7.57,62.82,22-13,87.9-180.65,75.46-159-11.8-185.39-39.3-169-54-32.07,6.28-64.34,13.3-96.23,20.65l-2.53,38.3H750Z"/><path class="cls-11" d="M750,223.85c-28.07-11.3-98.85-15-168.87-13.11-140.9,3.9-320.26,49.35-465.47,86.19H750Z"/><path class="cls-12" d="M422.18,296.66s-86.36-47.14-217.86-70.77S0,215.47,0,215.47v81.19Z"/><path class="cls-9" d="M229.58,243.35c116.09,22,192.6,53.31,192.6,53.31s-86.36-47.14-217.86-70.77S0,215.47,0,215.47V231S93.65,217.63,229.58,243.35Z"/><path class="cls-13" d="M0,246.46s111-3.42,162.34,6.22-20.24,21.9-3.57,26.51,263.41,17.47,263.41,17.47H0Z"/><path class="cls-14" d="M422.18,296.66s-86.36-47.14-217.86-70.77S0,215.47,0,215.47v81.19Z"/><path class="cls-15" d="M750,236.6c-1.36-1.47-2.65-1.74-4.69-1.71a4.92,4.92,0,0,0-1.87.33,4.61,4.61,0,0,0-1.43,1.09,8.84,8.84,0,0,0-2.27,4.76,3.78,3.78,0,0,0-6.52,3,8,8,0,0,0-9.44-2.69c-3.22,1.49-4.87,5.84-3.14,8.94a2.56,2.56,0,0,0-2.88,4.13,12.66,12.66,0,0,0-5.65,1.47,6,6,0,0,0-3.08,4.74,4,4,0,0,0,3.44,4.07,7.75,7.75,0,0,0-3.09.74,2.7,2.7,0,0,0-1.53,2.59c.19,1.29,1.52,2.05,2.72,2.56-2.14,1.81-2.19,5.42-.41,7.59a7.5,7.5,0,0,0,7.67,2.15,6.86,6.86,0,0,0,3.2,5.42,12.56,12.56,0,0,0,6.2,1.86c3.54.24,7.35-.51,9.89-3H750Z"/><path class="cls-15" d="M750,251.33a9.77,9.77,0,0,0-9.5,1.43c-2.86,2.19-3.94,6.73-1.7,9.55a4.26,4.26,0,0,0-5.17,4.56c-.7-4.14-6-3.61-8.56-1.75a7.46,7.46,0,0,0-3,6.44,4.39,4.39,0,0,0-5.29,4.33,7.4,7.4,0,0,0-10.71,9,8.84,8.84,0,0,0-3.8.26,3.06,3.06,0,0,0-2.12,2.88,6.47,6.47,0,0,0-10.36,2.66,5,5,0,0,0-7.19,6H750Z"/><rect class="cls-16" y="296.66" width="750" height="203.34"/><path class="cls-17" d="M750,343.08C541.42,311.72,322.47,306.72,0,306.13v-9.47H750Z"/><path class="cls-18" d="M0,500V367s258.9-31.54,460.38-14.76S750,407.08,750,407.08V500Z"/><path class="cls-19" d="M480,296.66c31.44,7.37,109,38.19,128.1,54.65,10.4,8.95-4.5,10.43-45.85,27.85-40.43,17-71.26,40.84-97.29,65.89S391.17,500,283.34,500H532s10.32-13.12,24.67-39.27c15.4-28.06,20.25-40.6,69-62.4s66.44-26.26,56.16-36.59c-12.75-12.82-90.47-51.37-172.27-65.08Z"/><rect class="cls-20" y="296.66" width="750" height="203.34"/><path class="cls-15" d="M0,236.6c1.36-1.47,2.65-1.74,4.69-1.71a4.92,4.92,0,0,1,1.87.33A4.61,4.61,0,0,1,8,236.31a8.84,8.84,0,0,1,2.27,4.76,4.08,4.08,0,0,1,4.33-.86,4.08,4.08,0,0,1,2.19,3.87,8,8,0,0,1,9.44-2.69c3.22,1.49,4.87,5.84,3.14,8.94a2.56,2.56,0,0,1,2.88,4.13,12.66,12.66,0,0,1,5.65,1.47A6,6,0,0,1,41,260.67a4,4,0,0,1-3.44,4.07,7.75,7.75,0,0,1,3.09.74,2.7,2.7,0,0,1,1.53,2.59c-.19,1.29-1.52,2.05-2.72,2.56,2.14,1.81,2.19,5.42.41,7.59a7.5,7.5,0,0,1-7.67,2.15,6.86,6.86,0,0,1-3.2,5.42,12.56,12.56,0,0,1-6.2,1.86c-3.54.24-7.35-.51-9.89-3H0Z"/><path class="cls-15" d="M0,251.33a9.77,9.77,0,0,1,9.5,1.43c2.86,2.19,3.94,6.73,1.7,9.55a4.26,4.26,0,0,1,5.17,4.56c.7-4.14,6.05-3.61,8.56-1.75a7.46,7.46,0,0,1,3,6.44,4.39,4.39,0,0,1,5.29,4.33,7.4,7.4,0,0,1,10.71,9,8.84,8.84,0,0,1,3.8.26A3.06,3.06,0,0,1,49.82,288a6.47,6.47,0,0,1,10.36,2.66,5,5,0,0,1,7.19,6H0Z"/><path class="cls-21" d="M750,425.74c-4.55-5.68-18.48-4-22,0s-4.64,12-2.7,15.16c0,0-5-5.76-10.84-2.66s0,9.35,0,9.35-6.18,1.1-6.18,5.35,3.86,7.79,3.86,7.79-5-1.6-7,1.88a6,6,0,0,0,0,6.2s-.17-10.54-14.59-11.47-17.51,11.16-17.51,11.16-4.26-6.9-12.38-4.46-7,8.31-7,8.31-5-3.92-9.28-.83-3.09,6.58-3.09,6.58-10-8.78-21.21-2.17-8.58,14.53-8.58,14.53-8.1-8.9-17.2-3.1l-1,6.19s-6.55-7-14.29-5-8.9,5-8.9,5-15.84-7.22-25.52,6.45H750Z"/><path class="cls-22" d="M625.64,500H750V460.94a16.57,16.57,0,0,0-8.38,1.65,27.75,27.75,0,0,0-9.72,8.47c-1.45,1.9-2.81,4.11-2.67,6.5-5.33-4-13.26-1.32-12,6.32-1.42-2.32-5.1-2.32-7.14-.52s-2.7,4.72-2.67,7.44c-4.49-3.36-9.36-6.87-15-7.08s-11.7,4.58-10.56,10.07c-1.62-2.47-3.42-5.1-6.2-6.11s-6.65.67-6.63,3.63c-3-2.56-6.71-4.55-10.6-4.23s-7.67,3.67-7.37,7.57a7.33,7.33,0,0,0-6.91-3.85c-2.78.33-5.19,3.09-4.69,5.84A7.51,7.51,0,0,0,625.64,500Z"/><polygon class="cls-23" points="201.27 374.2 206.39 427.09 211.43 428.69 210.07 374.2 201.27 374.2"/><polygon class="cls-24" points="203.48 397.04 202.84 375.31 207.38 374.2 201.27 374.2 203.48 397.04"/><polygon class="cls-25" points="208.27 427.68 207.38 374.2 210.07 374.2 211.43 428.69 208.27 427.68"/><polygon class="cls-23" points="287.11 383.19 291.52 450.6 296.57 451.93 296.57 384.24 287.11 383.19"/><path class="cls-24" d="M293.17,383.86l-4.56.49s1.3,41.6,1.29,41.39l-2.79-42.55Z"/><polygon class="cls-25" points="296.57 384.24 293.17 383.86 294.2 451.31 296.57 451.93 296.57 384.24"/><polygon class="cls-23" points="379.39 400.22 384.65 483.22 389.9 484.93 389.9 401.44 379.39 400.22"/><polygon class="cls-24" points="387.08 401.11 381.07 401.68 382.73 452.94 379.39 400.22 387.08 401.11"/><polygon class="cls-25" points="389.9 401.44 387.08 401.11 387.58 484.18 389.9 484.93 389.9 401.44"/><polygon class="cls-23" points="485.18 500 479.95 421.45 493.3 424.27 493.3 500 485.18 500"/><polygon class="cls-24" points="488.75 423.31 481.67 423.31 484.11 484.01 479.95 421.45 488.75 423.31"/><polygon class="cls-25" points="493.3 424.27 493.3 500 489.16 500 488.75 423.31 493.3 424.27"/><polygon class="cls-23" points="587.89 500 586.73 446.26 600.08 448.58 597.47 500 587.89 500"/><polygon class="cls-24" points="594.41 447.59 588.56 448.03 587.86 498.45 586.73 446.26 594.41 447.59"/><polygon class="cls-25" points="600.08 448.58 594.41 447.59 594.41 500 597.47 500 600.08 448.58"/><path class="cls-25" d="M690.63,500c-128.51-48.65-384.5-109.89-495.81-118.19l-8.23,1.67L194,386.8C297,396,522.71,452.64,668.25,500Z"/><path class="cls-23" d="M678,500C549.45,451.35,297.9,391.78,186.59,383.48l1.06,4c103,9.15,318.53,58.81,474.44,112.55Z"/><path class="cls-24" d="M678,500C549.45,451.35,297.9,391.78,186.59,383.48l.36,1.33C297.55,393.19,545,451.68,674.31,500Z"/><path class="cls-25" d="M577.36,500c-115.07-41.57-246.94-82.64-382.74-102.39l-8.22,1.67,7.38,3.32c87,7.73,225.19,54.51,353.71,97.4Z"/><path class="cls-23" d="M565,500c-112.39-40.95-236.44-80.21-378.6-100.72l1,4C323,423.55,421.92,457.23,544.7,500Z"/><path class="cls-24" d="M565,500c-112.39-40.95-236.44-80.21-378.6-100.72l.26,1C327.6,420.65,450.72,459.43,562.34,500Z"/><path class="cls-21" d="M81.14,395.87q-9.61-.62-19.25-.87-19.26-.51-38.53.39-8.47.41-16.93,1.07L0,396.32V329.74c0-.32,3.82-2.73,9.14-2.73,3.46,0,7.89,2.4,10.24,5a13.19,13.19,0,0,1,1.91,14.66c2.64-2,6.71-.8,8.84,1.74s2.78,6,3.22,9.28a13.79,13.79,0,0,1,6.73-5.24,8.37,8.37,0,0,1,8.14,1.51,9.27,9.27,0,0,1,2.51,7.58,27.4,27.4,0,0,1-2.31,7.91,7.42,7.42,0,0,1,7.91,8.77,5.73,5.73,0,0,1,6.46.25c2.52,1.95,2.1,5.16,2.25,8a5.73,5.73,0,0,1,7.76,3.91c.52-1.69,2.86-2.25,5.09-1.86a3.9,3.9,0,0,1,2.53,2.89,3.05,3.05,0,0,1,2.85-.49,4.89,4.89,0,0,1,2.37,1.79,2.92,2.92,0,0,1,.72,2.28C86,396.87,82.48,396,81.14,395.87Z"/><path class="cls-22" d="M57.37,392.2a12.08,12.08,0,0,0-7.07-7.93c-4.23-1.78-9.06-1.47-13.51-.38a7.54,7.54,0,0,0-13.63-2.23c1.38-2.86-1.22-5.75-4.4-5.55.71-2.88-.57-5.19-2.6-5.62s-4.08.46-5.95,1.37a11.79,11.79,0,0,0-1.56-13.65A11,11,0,0,0,0,354.68v38.94l6.43.14C23.37,392.41,40.38,391.9,57.37,392.2Z"/><path class="cls-26" d="M0,391.44s64.46-9,191,19.78S432.16,500,432.16,500H0Z"/><path class="cls-27" d="M0,443c49,1.8,176.38,33.24,231.31,57H0Z"/><path class="cls-28" d="M137.22,443c21.28-20.68,39.34-29.3,49.37-32.8q-24.14-5.39-45.19-9C68.39,401.84,0,470.73,0,470.73V500H94.56S110.21,469.28,137.22,443Z"/><path class="cls-29" d="M0,391.44s64.46-9,191,19.78S432.16,500,432.16,500H0Z"/><path class="cls-22" d="M323.26,482.43a4.76,4.76,0,0,1,1.43-5.35,6.58,6.58,0,0,1,5.19-1.56s-3.35,1.15-3.8,2.58A21.93,21.93,0,0,1,323.26,482.43Z"/><path class="cls-22" d="M325,482.65s.49-3.44,2.88-4.89,6.35-.68,6.35-.68-1.41,3.28-3.8,4.21A28,28,0,0,1,325,482.65Z"/><path class="cls-22" d="M327.35,482.65s2.27-2.07,4.23-2a5.72,5.72,0,0,1,3.35,1.37,5.38,5.38,0,0,1-3.12,1.2A21.94,21.94,0,0,1,327.35,482.65Z"/><path class="cls-22" d="M240.63,470.73a4.47,4.47,0,0,1,2.88-4.14c2.93-1,6.19.52,6.19.52a8.92,8.92,0,0,1-3.78,3A14.36,14.36,0,0,1,240.63,470.73Z"/><path class="cls-22" d="M238.53,470.73s-.84-6.23,3-7.29a19.36,19.36,0,0,1,6.43-.8s-.69,4.61-3.87,6.17A21.22,21.22,0,0,1,238.53,470.73Z"/><path class="cls-22" d="M21.66,425.8c-.33-2.12,4.88-5.93,5.69-5.2s-.75,2.16-2.3,3.58A6.7,6.7,0,0,1,21.66,425.8Z"/><path class="cls-22" d="M24.5,425.8s.68-4.78,4.95-6.18,6.86,0,6.86,0a10.78,10.78,0,0,1-4.66,4.56A27.07,27.07,0,0,1,24.5,425.8Z"/><path class="cls-22" d="M35.14,425c-.54-1.1-5-2.08-7.79.64a17.78,17.78,0,0,0,4.69.86C33.85,426.37,35.92,426.5,35.14,425Z"/><path class="cls-30" d="M233.66,457.34c-1.88,2.94-2.24,6.7,0,9.69a13.85,13.85,0,0,0,4.87,3.7,9.82,9.82,0,0,0,.28-6.69C237.66,460.34,233.66,457.34,233.66,457.34Z"/><path class="cls-30" d="M240.63,470.73s-1-4.38.49-6.69A7.76,7.76,0,0,1,244.8,461a15.25,15.25,0,0,1,0,4.87C243.94,468.73,240.63,470.73,240.63,470.73Z"/><path class="cls-30" d="M235.69,470.52c-.62-1.35-3.85-3.74-5.33-3.37s-.69,1.66.95,2.56A16.94,16.94,0,0,0,235.69,470.52Z"/><path class="cls-31" d="M248.13,414.64c-3.08,1.62-5.26,4.7-4.8,8.41a14,14,0,0,0,2.4,5.63,9.82,9.82,0,0,0,3.56-5.67C250.12,419.23,248.13,414.64,248.13,414.64Z"/><path class="cls-31" d="M247.54,429.72s1.33-4.29,3.75-5.57a7.76,7.76,0,0,1,4.71-.81,15.51,15.51,0,0,1-2.41,4.23C251.42,429.63,247.54,429.72,247.54,429.72Z"/><path class="cls-31" d="M243.36,427.09c.14-1.48-1.48-5.16-3-5.57s-1.43,1.1-.45,2.7A17,17,0,0,0,243.36,427.09Z"/><path class="cls-30" d="M325,482.65a5.85,5.85,0,0,1-1.54-5.56,9.69,9.69,0,0,1,4.17-5.57s1.54,3.88,1.08,6.65S325,482.65,325,482.65Z"/><path class="cls-30" d="M323.33,482.65s-4-1.85-4-3.7a21.25,21.25,0,0,1,1.39-5.41,7.19,7.19,0,0,1,1.39,3.54A35,35,0,0,0,323.33,482.65Z"/><path class="cls-30" d="M327.35,482.65s1.91-3.87,5-3.26C332.37,479.39,333.18,482.81,327.35,482.65Z"/><path class="cls-30" d="M29.38,412.41c1.87,2.94,2.24,6.7,0,9.69a13.94,13.94,0,0,1-4.88,3.7,9.89,9.89,0,0,1-.28-6.69C25.38,415.41,29.38,412.41,29.38,412.41Z"/><path class="cls-30" d="M22.28,424.18s.41-4.48-1.35-6.58a7.8,7.8,0,0,0-4.05-2.55,15.48,15.48,0,0,0,.63,4.84C18.73,422.62,22.28,424.18,22.28,424.18Z"/><path class="cls-30" d="M27.35,425.59c.61-1.35,3.85-3.74,5.32-3.37s.7,1.67-1,2.57A16.76,16.76,0,0,1,27.35,425.59Z"/><path class="cls-30" d="M21.66,425.8A10,10,0,0,0,15,421.71s-.55,1.49,1.84,3A7.58,7.58,0,0,0,21.66,425.8Z"/><path class="cls-31" d="M93.27,395.68c-2.2-1.19-4.29-5.13-3.1-9a19.58,19.58,0,0,1,3.1-6.24S96.83,385,97,388.05,93.27,395.68,93.27,395.68Z"/><path class="cls-31" d="M90.45,394.69s0-4.86-4.46-6.64c0,0-.5,3.17,1.39,4.95S90.45,394.69,90.45,394.69Z"/><path class="cls-32" d="M695.38,331.57a3.36,3.36,0,0,1,2.16-3.11,7,7,0,0,1,4.65.39,6.7,6.7,0,0,1-2.84,2.25A10.8,10.8,0,0,1,695.38,331.57Z"/><path class="cls-32" d="M693.81,331.57s-.63-4.68,2.26-5.48a14.73,14.73,0,0,1,4.83-.6s-.52,3.47-2.91,4.64A15.85,15.85,0,0,1,693.81,331.57Z"/><path class="cls-33" d="M690.15,321.52a6.3,6.3,0,0,0,0,7.27,10.57,10.57,0,0,0,3.66,2.78,7.4,7.4,0,0,0,.21-5C693.15,323.77,690.15,321.52,690.15,321.52Z"/><path class="cls-33" d="M695.38,331.57s-.74-3.29.37-5a5.79,5.79,0,0,1,2.76-2.28,11.65,11.65,0,0,1,0,3.65C697.87,330.06,695.38,331.57,695.38,331.57Z"/><path class="cls-33" d="M691.67,331.4c-.46-1-2.88-2.8-4-2.52s-.52,1.25.71,1.92A12.4,12.4,0,0,0,691.67,331.4Z"/><path class="cls-32" d="M695.54,414.43a3.55,3.55,0,0,1,1.07-4,4.91,4.91,0,0,1,3.89-1.18s-2.51.87-2.85,1.94A16,16,0,0,1,695.54,414.43Z"/><path class="cls-32" d="M696.87,414.6s.36-2.58,2.16-3.67,4.76-.5,4.76-.5-1.06,2.45-2.85,3.15A21.51,21.51,0,0,1,696.87,414.6Z"/><path class="cls-32" d="M698.6,414.6s1.71-1.56,3.17-1.5a4.27,4.27,0,0,1,2.52,1,4,4,0,0,1-2.34.9A17.11,17.11,0,0,1,698.6,414.6Z"/><path class="cls-33" d="M696.87,414.6a4.37,4.37,0,0,1-1.16-4.17,7.3,7.3,0,0,1,3.13-4.18,11.77,11.77,0,0,1,.81,5C699.3,413.33,696.87,414.6,696.87,414.6Z"/><path class="cls-33" d="M695.59,414.6s-3-1.39-3-2.78a16,16,0,0,1,1-4.05,5.32,5.32,0,0,1,1,2.66A26,26,0,0,0,695.59,414.6Z"/><path class="cls-33" d="M698.6,414.6s1.44-2.9,3.77-2.45C702.37,412.15,703,414.72,698.6,414.6Z"/><path class="cls-32" d="M160.23,342.48a3.54,3.54,0,0,1,1.06-4,4.93,4.93,0,0,1,3.9-1.18s-2.51.87-2.85,1.94A16,16,0,0,1,160.23,342.48Z"/><path class="cls-32" d="M161.55,342.65s.37-2.58,2.16-3.67,4.76-.5,4.76-.5-1.05,2.45-2.85,3.15A21.33,21.33,0,0,1,161.55,342.65Z"/><path class="cls-32" d="M163.29,342.65s1.71-1.56,3.17-1.5a4.31,4.31,0,0,1,2.52,1,4.07,4.07,0,0,1-2.34.9A17,17,0,0,1,163.29,342.65Z"/><path class="cls-33" d="M161.55,342.65a4.37,4.37,0,0,1-1.16-4.17,7.3,7.3,0,0,1,3.13-4.18,11.6,11.6,0,0,1,.81,5C164,341.38,161.55,342.65,161.55,342.65Z"/><path class="cls-33" d="M160.28,342.65s-3-1.39-3-2.78a16,16,0,0,1,1-4.05,5.26,5.26,0,0,1,1,2.66A26.81,26.81,0,0,0,160.28,342.65Z"/><path class="cls-33" d="M163.29,342.65s1.43-2.9,3.77-2.45C167.06,340.2,167.66,342.77,163.29,342.65Z"/><path class="cls-32" d="M355.59,358.44c-.2-1.27,2.93-3.55,3.41-3.12s-.45,1.3-1.38,2.15A4,4,0,0,1,355.59,358.44Z"/><path class="cls-32" d="M357.29,358.44a4.81,4.81,0,0,1,3-3.71,5.48,5.48,0,0,1,4.11,0,6.45,6.45,0,0,1-2.79,2.74A16.41,16.41,0,0,1,357.29,358.44Z"/><path class="cls-32" d="M363.68,357.93c-.33-.65-3-1.25-4.68.39a10.33,10.33,0,0,0,2.81.51C362.9,358.78,364.14,358.86,363.68,357.93Z"/><path class="cls-33" d="M360.22,350.41a5,5,0,0,1,0,5.81,8.31,8.31,0,0,1-2.93,2.22,5.91,5.91,0,0,1-.17-4A9.79,9.79,0,0,1,360.22,350.41Z"/><path class="cls-33" d="M356,357.47s.25-2.69-.81-4a4.65,4.65,0,0,0-2.42-1.53,9.28,9.28,0,0,0,.37,2.9A6.31,6.31,0,0,0,356,357.47Z"/><path class="cls-33" d="M359,358.32c.37-.82,2.31-2.25,3.19-2s.42,1-.57,1.54A10,10,0,0,1,359,358.32Z"/><path class="cls-33" d="M355.59,358.44a6,6,0,0,0-4-2.45s-.33.89,1.11,1.79A4.56,4.56,0,0,0,355.59,358.44Z"/><path class="cls-32" d="M41.49,321.71c-.25-1.59,3.66-4.45,4.26-3.91s-.56,1.63-1.72,2.69A5.05,5.05,0,0,1,41.49,321.71Z"/><path class="cls-32" d="M43.62,321.71s.5-3.59,3.71-4.64a6.86,6.86,0,0,1,5.14,0A8.12,8.12,0,0,1,49,320.49,20.76,20.76,0,0,1,43.62,321.71Z"/><path class="cls-32" d="M51.6,321.07c-.41-.82-3.74-1.57-5.85.48a13.09,13.09,0,0,0,3.52.64C50.63,322.13,52.18,322.23,51.6,321.07Z"/><path class="cls-33" d="M47.27,311.67a6.25,6.25,0,0,1,0,7.26,10.34,10.34,0,0,1-3.65,2.78,7.38,7.38,0,0,1-.21-5C44.27,313.91,47.27,311.67,47.27,311.67Z"/><path class="cls-33" d="M42,320.49s.3-3.36-1-4.93a5.79,5.79,0,0,0-3-1.91,11.44,11.44,0,0,0,.47,3.62A7.84,7.84,0,0,0,42,320.49Z"/><path class="cls-30" d="M45.75,321.55c.46-1,2.89-2.81,4-2.53s.53,1.25-.71,1.92A12.46,12.46,0,0,1,45.75,321.55Z"/><path class="cls-33" d="M41.49,321.71a7.5,7.5,0,0,0-5-3.07s-.41,1.12,1.38,2.23A5.72,5.72,0,0,0,41.49,321.71Z"/><path class="cls-21" d="M370,307.64s-5.7,7.7-8.11,23.61S370,348.87,370,348.87s9.24-2.74,7.49-17.59S370,307.64,370,307.64Z"/><polygon class="cls-34" points="369.63 330.31 368.57 358.3 371.15 358.3 369.63 330.31"/><path class="cls-21" d="M624.15,261s-4,5.43-5.72,16.64S624.15,290,624.15,290s6.52-1.94,5.28-12.41S624.15,261,624.15,261Z"/><polygon class="cls-34" points="623.88 276.93 623.13 296.66 624.96 296.66 623.88 276.93"/><path class="cls-21" d="M636.28,246.16s-5.68,7.68-8.08,23.54,8.08,17.56,8.08,17.56,9.22-2.73,7.47-17.53S636.28,246.16,636.28,246.16Z"/><polygon class="cls-34" points="635.91 268.76 634.84 296.66 637.42 296.66 635.91 268.76"/><path class="cls-22" d="M87.41,261s4,5.43,5.72,16.64S87.41,290,87.41,290s-6.51-1.94-5.28-12.41S87.41,261,87.41,261Z"/><polygon class="cls-34" points="87.68 276.93 88.43 296.66 86.61 296.66 87.68 276.93"/><path class="cls-21" d="M75.28,246.16s5.68,7.68,8.08,23.54-8.08,17.56-8.08,17.56-9.21-2.73-7.47-17.53S75.28,246.16,75.28,246.16Z"/><polygon class="cls-34" points="75.66 268.76 76.72 296.66 74.14 296.66 75.66 268.76"/><path class="cls-21" d="M154.63,291.74s-5.7,7.7-8.11,23.61S154.63,333,154.63,333s9.24-2.74,7.49-17.59S154.63,291.74,154.63,291.74Z"/><polygon class="cls-34" points="154.25 314.41 153.18 342.4 155.77 342.4 154.25 314.41"/><path class="cls-21" d="M141.55,286.33s-5.7,7.71-8.11,23.62,8.11,17.62,8.11,17.62,9.24-2.74,7.49-17.6S141.55,286.33,141.55,286.33Z"/><polygon class="cls-34" points="141.17 309.01 140.11 337 142.69 337 141.17 309.01"/><path class="cls-33" d="M599.88,336.35a6.26,6.26,0,0,0-3.6,6.3,10.4,10.4,0,0,0,1.8,4.23,7.4,7.4,0,0,0,2.67-4.26C601.38,339.79,599.88,336.35,599.88,336.35Z"/><path class="cls-33" d="M599.44,347.66s1-3.22,2.81-4.18a5.76,5.76,0,0,1,3.53-.61A11.41,11.41,0,0,1,604,346C602.35,347.59,599.44,347.66,599.44,347.66Z"/><path class="cls-33" d="M596.3,345.68c.11-1.11-1.11-3.87-2.21-4.17s-1.07.82-.34,2A12.83,12.83,0,0,0,596.3,345.68Z"/><path class="cls-33" d="M575.62,430.77A6.07,6.07,0,0,0,578,424a14.54,14.54,0,0,0-2.33-4.67s-2.67,3.43-2.79,5.72S575.62,430.77,575.62,430.77Z"/><path class="cls-33" d="M577.74,430a5.59,5.59,0,0,1,3.34-5s.38,2.38-1,3.72S577.74,430,577.74,430Z"/><path class="cls-15" d="M526.69,296.58l.11.08h83.38a4.48,4.48,0,0,0-5.83-1.58,4.29,4.29,0,0,0-6-.89,2.75,2.75,0,0,0-5.14-.17,3.91,3.91,0,0,0-2.18-1.85,1.86,1.86,0,0,0-2.28,1.27,3.21,3.21,0,0,0-5.68-.82,2.31,2.31,0,0,0-4.13-1.88c.2-2-.25-3.58-2.07-4.43a5.69,5.69,0,0,0-4.61,0c-1.85.93-2.38,2-3,4.33-1-1.86-4.06-1.46-5.27.26a3.51,3.51,0,1,0-6.75-.19,2,2,0,0,0-3-1.38,6.38,6.38,0,0,0,.56-3.95,3.59,3.59,0,0,0-2.65-2.78,2.59,2.59,0,0,0-2.76,1.48,2.22,2.22,0,0,0-2.55-2.27,4.1,4.1,0,1,0-6.17-5.2,2.63,2.63,0,0,0-4.08-2.62,6,6,0,0,0-8.56-5.62,4.21,4.21,0,0,0-2.13,1.55,7.91,7.91,0,0,0-.83,2.79,58.2,58.2,0,0,0-.07,18.11C525.3,292.29,525.49,295.64,526.69,296.58Z"/><path class="cls-15" d="M412.85,296.66a9.15,9.15,0,0,0,2.09-5.52,61,61,0,0,0-.68-14.72c-.72-4.25-3-7.79-7.88-7.31a11.55,11.55,0,0,0-6.58,3.3c-1.57,1.48-1.66,3.46-1.41,5.48a2.8,2.8,0,0,0-4.42,1.67,7.72,7.72,0,0,0-2.79-2.33,3.48,3.48,0,0,0-3.49.27,2.3,2.3,0,0,0-.42,3.24,3.59,3.59,0,0,0-3.18.59,2.29,2.29,0,0,0-.47,3,2.74,2.74,0,0,0-4.47,3.12c-.82-1.35-2.94-.66-3.53.59-1.13-1.92-3.5-2.77-5.73-3a6.37,6.37,0,0,0-3.59.48c-2.21,1.13-2.86,3.92-3.27,6.37a6,6,0,0,0-1.84-1.65c-1.76-.92-3.61.42-4.54,1.94a10.7,10.7,0,0,0-6.95-4c-2.72-.21-5.68,1.42-6.34,4.07a8.18,8.18,0,0,0-3.35-.94,2.82,2.82,0,0,0-2.74,1.81,4.67,4.67,0,0,0-6.83,3.48Z"/><polygon class="cls-35" points="537.9 264.3 526.04 264.3 526.04 257.06 493.09 216.75 496.56 214.37 527.18 234.17 533.12 257.06 537.9 264.3"/><polygon class="cls-36" points="537.9 264.3 531.86 257.78 526.04 257.78 526.04 264.3 537.9 264.3"/><polygon class="cls-37" points="460.1 257.06 465.7 234.17 493.74 214.79 524.53 236.31 529.61 257.06 529.61 296.66 460.1 296.66 460.1 257.06"/><rect class="cls-38" x="406.61" y="257.06" width="55.52" height="39.6"/><polygon class="cls-35" points="405.8 257.06 411.41 234.17 467.73 234.17 462.13 257.06 405.8 257.06"/><polygon class="cls-36" points="411.4 234.17 440.23 214.37 496.56 214.37 467.73 234.17 411.4 234.17"/><polygon class="cls-36" points="455.1 264.3 398.78 264.3 405.8 257.06 462.13 257.06 455.1 264.3"/><polygon class="cls-39" points="499.97 214.37 470.25 234.93 464.67 257.78 458.63 264.3 455.1 264.3 462.13 257.06 467.73 234.17 496.56 214.37 499.97 214.37"/><polygon class="cls-39" points="496.56 214.37 526.27 234.93 531.86 257.78 537.9 264.3 541.42 264.3 534.4 257.06 528.8 234.17 499.97 214.37 496.56 214.37"/><polygon class="cls-36" points="524.53 236.31 526.27 234.93 498.42 215.47 496.54 216.74 524.53 236.31"/><polygon class="cls-36" points="470.28 210.47 468.93 210.47 468.93 209.29 470.28 210.47"/><rect class="cls-38" x="447.63" y="208.55" width="11.66" height="9.8"/><polygon class="cls-37" points="459.29 218.35 465.51 214.37 468.93 214.37 468.93 208.56 464.11 204.31 459.29 208.56 459.29 218.35"/><polygon class="cls-35" points="444.69 209.72 450.86 204.31 464.11 204.31 457.95 209.72 444.69 209.72"/><rect class="cls-36" x="444.69" y="209.72" width="13.25" height="0.75"/><polygon class="cls-39" points="457.95 210.47 464.11 205.06 464.11 204.31 457.95 209.72 457.95 210.47"/><polygon class="cls-39" points="470.28 210.47 464.11 205.06 464.11 204.31 470.28 209.72 470.28 210.47"/><rect class="cls-40" x="482.24" y="266.56" width="26.66" height="30.1"/><rect class="cls-36" x="481.38" y="267.42" width="1.72" height="29.24"/><rect class="cls-36" x="506.32" y="267.42" width="1.72" height="29.24"/><rect class="cls-36" x="493.85" y="267.42" width="1.72" height="29.24"/><rect class="cls-36" x="493.85" y="254.96" width="1.72" height="26.66" transform="translate(226.43 763) rotate(-90)"/><rect class="cls-36" x="493.85" y="269.14" width="1.72" height="26.66" transform="translate(212.24 777.18) rotate(-90)"/><polygon class="cls-36" points="506.32 267.42 493.85 282.47 495.57 282.47 508.04 267.42 506.32 267.42"/><polygon class="cls-36" points="483.1 267.42 495.57 282.47 493.85 282.47 481.38 267.42 483.1 267.42"/><polygon class="cls-36" points="505.61 296.66 493.85 282.47 495.57 282.47 507.33 296.66 505.61 296.66"/><polygon class="cls-36" points="483.81 296.66 495.57 282.47 493.85 282.47 482.1 296.66 483.81 296.66"/><rect class="cls-39" x="482.24" y="266.56" width="1.72" height="30.1"/><rect class="cls-39" x="507.18" y="266.56" width="1.72" height="30.1"/><rect class="cls-39" x="494.71" y="266.56" width="1.72" height="30.1"/><rect class="cls-39" x="494.71" y="254.1" width="1.72" height="26.66" transform="translate(228.15 763) rotate(-90)"/><rect class="cls-39" x="494.71" y="268.28" width="1.72" height="26.66" transform="translate(213.96 777.18) rotate(-90)"/><polygon class="cls-39" points="507.18 266.56 494.71 281.61 496.43 281.61 508.9 266.56 507.18 266.56"/><polygon class="cls-39" points="483.96 266.56 496.43 281.61 494.71 281.61 482.24 266.56 483.96 266.56"/><polygon class="cls-39" points="507.18 296.66 494.71 281.61 496.43 281.61 508.9 296.66 507.18 296.66"/><polygon class="cls-39" points="483.96 296.66 496.43 281.61 494.71 281.61 482.24 296.66 483.96 296.66"/><rect class="cls-41" x="487.58" y="237.69" width="15.98" height="17.54"/><rect class="cls-36" x="494.03" y="247.08" width="1.64" height="15.98" transform="translate(239.78 749.93) rotate(-90)"/><rect class="cls-36" x="494.03" y="231.18" width="1.64" height="15.98" transform="translate(255.68 734.03) rotate(-90)"/><rect class="cls-36" x="486.86" y="238.36" width="1.64" height="17.54" transform="translate(975.36 494.25) rotate(180)"/><rect class="cls-36" x="501.21" y="238.36" width="1.64" height="17.54" transform="translate(1004.05 494.25) rotate(180)"/><polygon class="cls-36" points="488.5 238.36 501.21 254.26 501.21 255.9 488.5 240 488.5 238.36"/><polygon class="cls-36" points="501.21 238.36 488.5 254.26 488.5 255.9 501.21 240 501.21 238.36"/><rect class="cls-39" x="494.75" y="246.42" width="1.64" height="15.98" transform="translate(241.16 749.98) rotate(-90)"/><rect class="cls-39" x="494.75" y="230.52" width="1.64" height="15.98" transform="translate(257.06 734.09) rotate(-90)"/><rect class="cls-39" x="487.58" y="237.69" width="1.64" height="17.54" transform="translate(976.8 492.93) rotate(180)"/><rect class="cls-39" x="501.92" y="237.69" width="1.64" height="17.54" transform="translate(1005.49 492.93) rotate(180)"/><polygon class="cls-39" points="489.22 237.69 501.92 253.59 501.92 255.23 489.22 239.33 489.22 237.69"/><polygon class="cls-39" points="501.92 237.69 489.22 253.59 489.22 255.23 501.92 239.33 501.92 237.69"/><rect class="cls-41" x="420.57" y="274.91" width="10.82" height="11.16"/><rect class="cls-36" x="424.76" y="280.53" width="1.3" height="10.82" transform="translate(139.46 711.35) rotate(-90)"/><rect class="cls-36" x="424.76" y="270.68" width="1.3" height="10.82" transform="translate(149.32 701.49) rotate(-90)"/><rect class="cls-36" x="420" y="275.44" width="1.3" height="11.16" transform="translate(841.29 562.03) rotate(180)"/><rect class="cls-36" x="429.52" y="276.21" width="1.3" height="10.38" transform="translate(860.34 562.81) rotate(180)"/><rect class="cls-39" x="425.33" y="280.01" width="1.3" height="10.82" transform="translate(140.56 711.4) rotate(-90)"/><rect class="cls-39" x="425.33" y="270.15" width="1.3" height="10.82" transform="translate(150.42 701.54) rotate(-90)"/><rect class="cls-39" x="420.57" y="274.91" width="1.3" height="11.16" transform="translate(842.43 560.98) rotate(180)"/><rect class="cls-39" x="430.09" y="274.91" width="1.3" height="11.16" transform="translate(861.48 560.98) rotate(180)"/><rect class="cls-41" x="430.09" y="274.91" width="10.82" height="11.16"/><rect class="cls-36" x="434.56" y="280.82" width="1.3" height="10.25" transform="translate(149.27 721.16) rotate(-90)"/><rect class="cls-36" x="434.56" y="270.96" width="1.3" height="10.25" transform="translate(159.13 711.3) rotate(-90)"/><rect class="cls-36" x="439.04" y="275.44" width="1.3" height="11.16" transform="translate(879.38 562.03) rotate(180)"/><rect class="cls-39" x="434.85" y="280.01" width="1.3" height="10.82" transform="translate(150.08 720.92) rotate(-90)"/><rect class="cls-39" x="434.85" y="270.15" width="1.3" height="10.82" transform="translate(159.94 711.06) rotate(-90)"/><rect class="cls-39" x="430.09" y="274.91" width="1.3" height="11.16" transform="translate(861.48 560.98) rotate(180)"/><rect class="cls-39" x="439.61" y="274.91" width="1.3" height="11.16" transform="translate(880.52 560.98) rotate(180)"/><polyline class="cls-42" points="647.59 302.46 657.59 175.88 666.25 175.88 676.25 302.46"/><polyline class="cls-42" points="666.25 175.88 656.24 193.03 669.22 213.45 654.62 213.45 667.61 193.03 657.59 175.88"/><line class="cls-42" x1="669.22" y1="213.45" x2="652.44" y2="241.09"/><polyline class="cls-42" points="671.4 241.09 649.87 273.68 673.98 273.68 652.44 241.09 671.4 241.09 654.62 213.45"/><line class="cls-42" x1="649.87" y1="273.68" x2="675.99" y2="299.12"/><line class="cls-42" x1="673.98" y1="273.68" x2="647.86" y2="299.12"/><rect class="cls-43" x="651.88" y="191.62" width="20.08" height="2.23" rx="1.02"/><line class="cls-42" x1="661.92" y1="175.88" x2="661.92" y2="302.46"/><path class="cls-43" d="M660,156.58a1.91,1.91,0,1,1,1.9,1.9A1.9,1.9,0,0,1,660,156.58Z"/><path class="cls-43" d="M661.92,151.87s-3.09-5.94-1.9-8.75,3.41-4.93,3.81-3.47S661.92,151.87,661.92,151.87Z"/><path class="cls-43" d="M659.15,152.77s-6-3-6.68-6-.14-6,1-5.05S659.15,152.77,659.15,152.77Z"/><path class="cls-43" d="M657.44,155.12s-6.6,1.1-8.9-.89-3.64-4.77-2.13-4.7S657.44,155.12,657.44,155.12Z"/><path class="cls-43" d="M657.44,158s-4.69,4.78-7.73,4.52-5.74-1.73-4.48-2.55S657.44,158,657.44,158Z"/><path class="cls-43" d="M659.15,160.39s-1,6.62-3.59,8.19-5.67,2-5.13.57S659.15,160.39,659.15,160.39Z"/><path class="cls-43" d="M661.92,161.29s3.09,5.94,1.91,8.74-3.42,4.94-3.81,3.48S661.92,161.29,661.92,161.29Z"/><path class="cls-43" d="M664.69,160.39s6,3,6.68,6,.14,6-1,5S664.69,160.39,664.69,160.39Z"/><path class="cls-43" d="M666.4,158s6.61-1.1,8.91.89,3.63,4.77,2.12,4.7S666.4,158,666.4,158Z"/><path class="cls-43" d="M666.4,155.12s4.7-4.77,7.73-4.51,5.75,1.72,4.48,2.55S666.4,155.12,666.4,155.12Z"/><path class="cls-43" d="M664.69,152.77s1-6.62,3.6-8.2,5.66-2,5.12-.57S664.69,152.77,664.69,152.77Z"/><path class="cls-44" d="M602.8,286.65v-4.1h-1.93V281c.34-.12.34-.4.34-.72V278a.78.78,0,0,0-.47-.73c0-.63,0-2,.1-2.57s.87-.44.88-.44l0-.6c-.48,0-1.43.1-1.54,1-.07.62-.09,2-.09,2.64a.81.81,0,0,0-.5.73v2.24a.82.82,0,0,0,.62.77v1.54h-3.65l-.48,2a8.65,8.65,0,0,0-5.83,3.25,8.38,8.38,0,0,1-4-1.29l3-3,1.49,1.49a.5.5,0,0,0,.71,0,.5.5,0,0,0,0-.7L588,280.72a.5.5,0,0,0-.71,0,.5.5,0,0,0,0,.7l1.49,1.49L585.65,286a5.53,5.53,0,0,1-.55-.53v-5.19a.86.86,0,0,0-.86-.86h0a.87.87,0,0,0-.86.86v3.87H574a1.71,1.71,0,0,0-1.67,1.28h-.75v2.83h.64V290a6,6,0,0,0-4.44,6.23,6.06,6.06,0,0,0,5.88,5.53,6,6,0,0,0,6.06-6,6.08,6.08,0,0,0-.28-1.82h9.08a8.62,8.62,0,1,0,14.29-7.28Z"/></g></g></svg>
