<svg id="Capa_1" data-name="Capa 1" xmlns="http://www.w3.org/2000/svg" viewBox="0 0 488.73 571.42"><defs><style>.cls-1{opacity:0.2;}.cls-2{fill:#271d24;}.cls-3{fill:#a16552;}.cls-4{fill:#f5dcb4;}.cls-5{fill:#ffedd9;}.cls-6{fill:#4e3f3f;}.cls-7{fill:#e6646e;}.cls-8{fill:#5d5360;}.cls-9{fill:#fff;}.cls-10{fill:#473835;}.cls-11{fill:#f9ab6d;}.cls-12{fill:#ac752c;}.cls-13{fill:#7d551f;}.cls-14{fill:#ffb300;}.cls-15{fill:#ffd54f;}.cls-16{fill:#c8653b;}.cls-17{fill:#c8c8c8;}.cls-18{fill:#9c4f2e;}</style></defs><g class="cls-1"><ellipse class="cls-2" cx="251.37" cy="545.13" rx="66.57" ry="16.03"/></g><g class="cls-1"><ellipse class="cls-2" cx="251.37" cy="545.13" rx="109.18" ry="26.3"/></g><rect class="cls-3" x="230.24" y="252.16" width="38.49" height="66.57"/><path class="cls-3" d="M315.47,328.71V451.34a47.09,47.09,0,0,1-1.6,12.18,45.85,45.85,0,0,1-2.76,7.68,46.85,46.85,0,0,1-5,8.42,47.35,47.35,0,0,1-5.94,6.55c-.4.38-.8.75-1.21,1.09a47.58,47.58,0,0,1-30.89,11.47H230.91a47,47,0,0,1-22.07-5.47,46.19,46.19,0,0,1-8.82-6,45.26,45.26,0,0,1-6.18-6.43c-.45-.54-.87-1.08-1.27-1.64a48.11,48.11,0,0,1-5-8.7,49.22,49.22,0,0,1-2.46-7,48.41,48.41,0,0,1-1.57-12.18V328.71A35.7,35.7,0,0,1,219.21,293h60.54A35.72,35.72,0,0,1,315.47,328.71Z"/><path class="cls-4" d="M283.87,319.44c-21.89,7.28-44.71,7.52-68.62-.29a14.18,14.18,0,0,0-18.65,13.44V445.83a36.31,36.31,0,0,0,36.31,36.31h33.16a36.31,36.31,0,0,0,36.31-36.31V332.93A14.14,14.14,0,0,0,283.87,319.44Z"/><path class="cls-3" d="M312.28,536.29c-1,0-2.12,0-3.17,0,.42-1.57,1-3.59,1.8-6.18,3-9.74-.32-21.66-4-30.63-1.21-2.94-2.46-5.55-3.56-7.68-1.17-2.31-2.19-4-2.72-5a7.31,7.31,0,0,0-.43-.65,9.61,9.61,0,0,0-16.6,9.49l.18.38.34.62a78.5,78.5,0,0,1,5,10.29c2.71,6.59,4.59,13.66,3.42,17.55-3.83,12.54-6.38,20.84.57,27.06,1.64,1.46,4.67,4.17,19.46,3.94a9.61,9.61,0,0,0-.3-19.21Z"/><path class="cls-3" d="M204.94,513a11.75,11.75,0,0,1-.58-6.5,42.94,42.94,0,0,1,4.48-13.23c.4-.77.79-1.46,1.19-2.12a10.05,10.05,0,0,0,1.06-2.46,9.59,9.59,0,0,0-17.25-7.85,1.71,1.71,0,0,0-.2.27,60.78,60.78,0,0,0-3.42,6.51,63.18,63.18,0,0,0-4,11.54c-1.65,7-2,15,1.42,22.14a112,112,0,0,1,4.73,11.27c-1.19.23-2.41.45-3.56.6a9.61,9.61,0,1,0,2.56,19c14.64-2,17.23-5.13,18.63-6.8C214,540.58,214.64,533.24,204.94,513Z"/><path class="cls-5" d="M65.13,137.37S54.61,95.3,249.19,95.86s188.49,41.51,188.49,41.51-2.3,43.68-243.57,35.43C64.58,168.37,65.13,137.37,65.13,137.37Z"/><path class="cls-3" d="M169.74,149.92a75,75,0,0,0-2.67,19.54v1.37a100.67,100.67,0,0,1-2.67,23.71c-3.68-1.3-7.47-3.95-11.08-8.53-9.51-12-6.34-31.39,5.39-35.94a14.82,14.82,0,0,1,11-.22A.64.64,0,0,0,169.74,149.92Z"/><path class="cls-4" d="M169.74,149.92a75,75,0,0,0-2.67,19.54v1.37a100.67,100.67,0,0,1-2.67,23.71c-3.68-1.3-7.47-3.95-11.08-8.53-9.51-12-6.34-31.39,5.39-35.94a14.82,14.82,0,0,1,11-.22A.64.64,0,0,0,169.74,149.92Z"/><path class="cls-3" d="M345.07,186c-3.61,4.57-7.4,7.22-11.08,8.53a100.68,100.68,0,0,1-2.68-23.71c0-.45,0-.91,0-1.37a75.06,75.06,0,0,0-2.69-19.61,14.82,14.82,0,0,1,11.05.22C351.41,154.62,354.58,174,345.07,186Z"/><path class="cls-4" d="M345.07,186c-3.61,4.57-7.4,7.22-11.08,8.53a100.68,100.68,0,0,1-2.68-23.71c0-.45,0-.91,0-1.37a75.06,75.06,0,0,0-2.69-19.61,14.82,14.82,0,0,1,11.05.22C351.41,154.62,354.58,174,345.07,186Z"/><path class="cls-3" d="M308.51,194.79A21.25,21.25,0,0,0,306.17,213c1.56,4.6,3,9.8,3,13.67C309.13,255,282.3,278,249.19,278s-59.94-23-59.94-51.28c0-3.87,1.4-9.07,3-13.67a21.25,21.25,0,0,0-2.33-18.23,33.12,33.12,0,0,1-5.19-17.67c0-18.81,16-34.05,35.77-34.05a37,37,0,0,1,18.22,4.74,21.26,21.26,0,0,0,21,0,37,37,0,0,1,18.21-4.74c19.76,0,35.77,15.24,35.77,34.05a32.57,32.57,0,0,1-3,13.61A33.22,33.22,0,0,1,308.51,194.79Z"/><path class="cls-4" d="M308.51,194.79A21.25,21.25,0,0,0,306.17,213c1.56,4.6,3,9.8,3,13.67C309.13,255,282.3,278,249.19,278s-59.94-23-59.94-51.28c0-3.87,1.4-9.07,3-13.67a21.25,21.25,0,0,0-2.33-18.23,33.12,33.12,0,0,1-5.19-17.67c0-18.81,16-34.05,35.77-34.05a37,37,0,0,1,18.22,4.74,21.26,21.26,0,0,0,21,0,37,37,0,0,1,18.21-4.74c19.76,0,35.77,15.24,35.77,34.05a32.57,32.57,0,0,1-3,13.61A33.22,33.22,0,0,1,308.51,194.79Z"/><path class="cls-6" d="M218.66,233a3.45,3.45,0,0,0-3.42,3.89c2.13,15.17,16.52,26.91,33.95,26.91s31.83-11.74,34-26.91a3.45,3.45,0,0,0-3.42-3.89Z"/><path class="cls-7" d="M229.48,258.18a37.22,37.22,0,0,0,39.43,0c-2.47-8.57-10.38-6.59-19.72-6.59S232,249.61,229.48,258.18Z"/><path class="cls-3" d="M343.74,143.74c-7.09-2.75-12.73-1.3-16.68,1a86.83,86.83,0,0,0-3.34-8.37q-1.37-3-3-5.91c-10.85-19.86-29.1-36.35-50.05-43.31l-.41-11.28L256.73,84l-1.63-.17c-1-.09-2-.16-3-.2l-2-8.52-.58-2.49c-.68,0-1.34,0-2,.07-12.62,1-18.9,12.49-19.88,14.45-20.94,7-39.18,23.46-50,43.31q-1.59,2.91-3,5.91a86.75,86.75,0,0,0-3.33,8.37l-.51-.29c-3.93-2.1-9.38-3.32-16.17-.69-14.91,5.78-18.93,30.35-6.85,45.66,4.93,6.23,10.12,9.65,15.11,11.16-.07.28-.13.57-.19.85A58.61,58.61,0,0,0,161.37,214c0,29.24,21.57,54.39,52.47,65.46a102.22,102.22,0,0,0,22.44,5.26,107,107,0,0,0,12,.77h.95c48.5,0,87.82-32,87.82-71.5a58.61,58.61,0,0,0-1.35-12.54c-.06-.28-.13-.57-.19-.84,5-1.52,10.18-4.94,15.1-11.18C362.67,174.09,358.64,149.52,343.74,143.74Zm-174,6.18a75,75,0,0,0-2.67,19.54v1.37a100.67,100.67,0,0,1-2.67,23.71c-3.68-1.3-7.47-3.95-11.08-8.53-9.51-12-6.34-31.39,5.39-35.94a14.82,14.82,0,0,1,11-.22A.64.64,0,0,0,169.74,149.92Zm141,40.81a33.22,33.22,0,0,1-2.21,4.06A21.25,21.25,0,0,0,306.17,213c1.56,4.6,3,9.8,3,13.67C309.13,255,282.3,278,249.19,278s-59.94-23-59.94-51.28c0-3.87,1.4-9.07,3-13.67a21.25,21.25,0,0,0-2.33-18.23,33.12,33.12,0,0,1-5.19-17.67c0-18.81,16-34.05,35.77-34.05a37,37,0,0,1,18.22,4.74,21.26,21.26,0,0,0,21,0,37,37,0,0,1,18.21-4.74c19.76,0,35.77,15.24,35.77,34.05A32.57,32.57,0,0,1,310.72,190.73ZM345.07,186c-3.61,4.57-7.4,7.22-11.08,8.53a100.68,100.68,0,0,1-2.68-23.71c0-.45,0-.91,0-1.37a75.06,75.06,0,0,0-2.69-19.61,14.82,14.82,0,0,1,11.05.22C351.41,154.62,354.58,174,345.07,186Z"/><rect class="cls-6" x="237.34" y="203.67" width="5.76" height="13.08" rx="1.5" transform="translate(-50.8 341.37) rotate(-65.45)"/><rect class="cls-6" x="255.29" y="203.67" width="5.76" height="13.08" rx="1.5" transform="translate(174.24 532.38) rotate(-114.55)"/><path class="cls-6" d="M218.39,190.72h0A10,10,0,0,1,208.13,181v-3.24A10,10,0,0,1,218.39,168h0a10,10,0,0,1,10.27,9.73V181A10,10,0,0,1,218.39,190.72Z"/><path class="cls-8" d="M218.39,168v11.35a5.14,5.14,0,0,0,10.27,0v-1.62A10,10,0,0,0,218.39,168Z"/><ellipse class="cls-9" cx="218.39" cy="174.51" rx="3.42" ry="3.24"/><path class="cls-6" d="M280,190.72h0A10,10,0,0,1,269.73,181v-3.24A10,10,0,0,1,280,168h0a10,10,0,0,1,10.27,9.73V181A10,10,0,0,1,280,190.72Z"/><path class="cls-8" d="M280,168v11.35a5.14,5.14,0,0,0,10.27,0v-1.62A10,10,0,0,0,280,168Z"/><ellipse class="cls-9" cx="279.99" cy="174.51" rx="3.42" ry="3.24"/><polygon class="cls-5" points="327.43 142.09 168.56 142.09 168.56 107.03 246.89 59.98 327.43 107.03 327.43 142.09"/><path class="cls-5" d="M184.7,35l-5,63.1,138.94,10.52L294.31,14.48S288.22-6,265,1.75,184.7,35,184.7,35Z"/><path class="cls-3" d="M315.91,98c-19.09-1.27-41.17-2-66.72-2.11-26.88-.08-49.83.67-69.45,2l1.83-23.1c25,0,49.93-.21,74.9-.9,17.18-.5,35.14-.27,52.84-1.4Z"/><rect class="cls-10" x="213.1" y="290.91" width="13.95" height="47.36"/><rect class="cls-10" x="271.92" y="290.91" width="13.95" height="47.36"/><path class="cls-10" d="M323.15,433.07q0,1.73-.06,3.45a146.13,146.13,0,0,1-5,34.82A144.37,144.37,0,0,1,311,491.41l-3.38,7.74-.73.31L289.13,507a78.5,78.5,0,0,0-5-10.29l-.34-.62a46.57,46.57,0,0,1-15.68,2.69H230.91a47,47,0,0,1-22.07-5.47,42.94,42.94,0,0,0-4.48,13.23l-18.15-7.34-4.55-15.61q-1.77-6.06-3-12.2a146.84,146.84,0,0,1-2.85-28.69v-9.58a146.17,146.17,0,0,1,12.51-59.14l14-31.45a7.08,7.08,0,0,1,6.45-4.21h81.54a7.09,7.09,0,0,1,6.46,4.21l13.92,31.45a145.57,145.57,0,0,1,12.51,59.14Z"/><rect class="cls-2" x="220.07" y="361.99" width="60.09" height="44.32"/><rect class="cls-2" x="175.81" y="433" width="147.34" height="7.06"/><path class="cls-2" d="M244.48,436.53v34.81h0a11.28,11.28,0,0,0,11.28-11.29V436.53Z"/><path class="cls-2" d="M323.09,436.52a146.13,146.13,0,0,1-5,34.82h0a34.22,34.22,0,0,1-34.22-34.22v-.6Z"/><path class="cls-2" d="M215.14,436.52v.6a34.22,34.22,0,0,1-34.21,34.22h-2.27a146.84,146.84,0,0,1-2.85-28.69v-6.13Z"/><circle class="cls-11" cx="218.39" cy="346.92" r="5.64"/><circle class="cls-11" cx="278.9" cy="346.92" r="5.64"/><path class="cls-3" d="M142.75,432.22l-.59,0-9.44-.56a9.61,9.61,0,1,1,1.15-19.18l.37,0,5.47-47a9.66,9.66,0,0,1,2.48-5.4l54.13-58.64a9.61,9.61,0,0,1,14.12,13l-52,56.34-6.15,52.91A9.61,9.61,0,0,1,142.75,432.22Z"/><path class="cls-3" d="M351.17,376.2a9.61,9.61,0,0,1-7.06-3.09L290,314.47a9.61,9.61,0,0,1,14.12-13l41.34,44.78,12.89-64.55a9.61,9.61,0,0,1,6.91-7.4l17.15-4.63a9.61,9.61,0,1,1,5,18.55L376,291.27l-15.41,77.2a9.61,9.61,0,0,1-9.42,7.73Z"/><path class="cls-12" d="M143.91,490.21l3.07-5.9,6.54,3.4c.68.36.72,1.62.09,2.82l-.8,1.54c-.63,1.2-1.68,1.89-2.36,1.54Z"/><path class="cls-13" d="M143.91,490.21l1.53-2.95,7.77,4-.4.77c-.63,1.2-1.68,1.89-2.36,1.54Z"/><path class="cls-14" d="M139.94,490.38a37.69,37.69,0,0,1-5.05-66,12.86,12.86,0,0,1,4.6-1.46,5.09,5.09,0,0,1,3.22.67h0a2.26,2.26,0,0,1,.29.23h0a1.58,1.58,0,0,1,.22.29c.53.82.42,2.1,0,3.55-1,3.17-3.52,7.16-4.41,8.95v0c-.23.42-.46.86-.67,1.29l0,.07c-.24.48-.46,1-.67,1.44-.07.14-.13.29-.2.44l-.16.38-.15.39c-.07.17-.15.34-.21.52-.13.34-.26.68-.38,1l-.2.59c-.18.54-.35,1.08-.5,1.62,0,.17-.1.34-.14.51s-.09.35-.13.52c-.13.51-.25,1-.36,1.54l0,.1,0,.14c-.16.76-.28,1.52-.39,2.28s-.18,1.44-.24,2.17c0,.09,0,.18,0,.28v.11c0,.48-.06,1-.07,1.44,0,0,0,.1,0,.14v.18a37.91,37.91,0,0,0,.13,4.13c0,.27.05.53.08.79s0,.5.08.76l0,.13.06.42c0,.42.12.83.19,1.24l.12.63c.06.32.13.63.2.95,0,.12.06.25.08.37.1.43.21.86.32,1.29a36.86,36.86,0,0,0,2,5.59l0,.09c.31.69.64,1.38,1,2,.16.31.33.62.5.93s.28.5.43.75l.08.13c.32.53.65,1.06,1,1.57a37.17,37.17,0,0,0,6.82,7.69c.29.25.58.48.87.71h0l.2.22.11.15.06.08.06.1a4.68,4.68,0,0,1,.83,2.71,4.94,4.94,0,0,1-1.12,2.86h0a3.94,3.94,0,0,1-3.12,1.4A13.48,13.48,0,0,1,139.94,490.38Z"/><path class="cls-15" d="M148.36,490.19l-.06,0a37.3,37.3,0,0,1-8.82-5.23c-.36-.28-.72-.58-1.08-.89A37.69,37.69,0,0,1,141,424.81c.36-.25.72-.51,1.08-.74s.46-.31.69-.45a2.26,2.26,0,0,1,.29.23h0a1.58,1.58,0,0,1,.22.29c.53.82.42,2.1,0,3.55-1,3.17-3.52,7.16-4.41,8.95v0c-.23.42-.46.86-.67,1.29l0,.07c-.24.48-.46,1-.67,1.44a.83.83,0,0,0-.07.13c0,.1-.08.21-.13.31l-.16.38-.15.39c-.07.17-.15.34-.21.52l-.38,1-.2.59c-.11.34-.22.68-.32,1l-.18.6c0,.17-.09.34-.14.51s-.09.35-.13.52c-.13.51-.25,1-.36,1.54l0,.1,0,.14c0,.14-.05.27-.08.41-.12.62-.22,1.25-.31,1.87s-.15,1.25-.21,1.88l0,.29c0,.09,0,.18,0,.28v.11c0,.3,0,.59,0,.89l0,.55s0,.1,0,.14v.18c0,.27,0,.53,0,.79v.58a2.26,2.26,0,0,1,0,.26c0,.28,0,.55,0,.82s0,.51,0,.77l.06.91c0,.26.05.53.08.79s0,.5.08.76l0,.13.06.42c0,.42.12.83.19,1.24l.12.63c.06.32.13.63.2.95,0,.12.06.25.08.37s.06.24.1.37c.07.31.14.61.22.92s.15.5.22.76.17.59.27.88.1.3.14.45l.12.35c.09.26.18.53.28.79s.2.54.31.81.17.43.26.64.25.61.39.91l0,.09.39.84c.09.18.18.36.26.54l.35.67c.1.2.21.39.32.58l.18.35c.14.25.28.5.43.75l.08.13.37.6.31.48.32.49.47.69.26.36c.21.29.42.59.64.87l.45.57.67.83.48.55c.24.27.48.54.74.81s.31.35.47.51.57.58.86.86l.34.33.13.13c.43.4.86.8,1.31,1.18.29.25.58.48.87.71h0l.2.22.11.15.06.08.06.1a4.68,4.68,0,0,1,.83,2.71A4.94,4.94,0,0,1,148.36,490.19Z"/><path class="cls-13" d="M143.23,427.7a6.11,6.11,0,0,0-3.74-4.77,5.09,5.09,0,0,1,3.22.67h0a2.26,2.26,0,0,1,.29.23h0a1.58,1.58,0,0,1,.22.29C143.78,425,143.67,426.25,143.23,427.7Z"/><path class="cls-14" d="M142.13,493a37.71,37.71,0,0,1-38.93-53.53,13,13,0,0,1,3.15-3.66,5.13,5.13,0,0,1,3.09-1.12h0a2.21,2.21,0,0,1,.37,0h0a1.4,1.4,0,0,1,.34.13c.89.42,1.46,1.57,1.84,3,.84,3.2.76,7.93,1,9.92v0c0,.49.06,1,.1,1.45,0,0,0,.06,0,.09.05.52.11,1,.18,1.57l.06.47.07.42c0,.14,0,.27.07.41l.09.55c.07.36.14.71.22,1.07,0,.2.09.41.14.61.13.55.27,1.1.42,1.64l.15.51c0,.17.1.34.16.5.16.51.32,1,.5,1.5a.49.49,0,0,0,0,.11l0,.13c.26.73.55,1.44.86,2.14s.61,1.32.94,2l.12.25.06.1c.22.42.45.85.69,1.26l.07.13.09.16a37.94,37.94,0,0,0,2.28,3.44c.15.22.31.43.48.64s.31.39.47.59l.08.1c.09.11.18.23.27.33.27.33.54.64.82,1l.43.47c.22.24.44.48.67.71l.26.27,1,.93a36.79,36.79,0,0,0,4.62,3.71l.09.06c.62.43,1.26.84,1.92,1.22l.92.53c.25.14.5.28.76.41l.14.07c.54.29,1.1.56,1.67.82a37.7,37.7,0,0,0,9.84,3l1.11.16h0l.29.09.17.06.09.05.1,0a4.66,4.66,0,0,1,2.13,1.88,5,5,0,0,1,.55,3h0a3.94,3.94,0,0,1-1.92,2.83A13.55,13.55,0,0,1,142.13,493Z"/><path class="cls-15" d="M149.19,488.37h-.07a37.73,37.73,0,0,1-10.25.17c-.46-.05-.92-.12-1.38-.19a37.68,37.68,0,0,1-28.9-51.77c.17-.4.34-.8.53-1.19s.23-.51.35-.75a2.21,2.21,0,0,1,.37,0h0a1.4,1.4,0,0,1,.34.13c.89.42,1.46,1.57,1.84,3,.84,3.2.76,7.93,1,9.92v0c0,.49.06,1,.1,1.45,0,0,0,.06,0,.09.05.52.11,1,.18,1.57a.77.77,0,0,0,0,.15c0,.11,0,.22,0,.32l.07.42c0,.14,0,.27.07.41l.09.55c.08.36.15.71.22,1.07,0,.2.09.41.14.61s.17.69.26,1,.11.4.16.61l.15.51c0,.17.1.34.16.5.16.51.32,1,.5,1.5a.49.49,0,0,0,0,.11l0,.13c0,.13.1.26.15.39.22.59.46,1.17.71,1.75s.53,1.15.81,1.71l.13.26.12.25.06.1c.13.26.28.52.43.78l.26.48.07.13.09.16.41.67c.1.17.2.33.31.49a1.64,1.64,0,0,0,.14.22l.45.69.44.63c.17.25.35.5.53.74l.48.64.47.59.08.1c.09.11.18.23.27.33.27.33.54.64.82,1l.43.47c.22.24.44.48.67.71l.26.27.27.26.68.67.59.53c.22.21.45.41.69.61l.35.3.29.24.65.53.69.53.56.4c.27.19.53.39.8.57l.09.06c.25.18.52.34.78.51l.5.32.64.39.58.33.34.2c.25.14.5.28.76.41l.14.07.62.32c.17.09.35.16.52.24l.53.26.76.33.41.17,1,.41.67.25,1,.35.7.22,1.05.31.67.18,1.19.28.45.1.18,0c.58.12,1.16.23,1.74.32l1.11.16h0l.29.09.17.06.09.05.1,0a4.66,4.66,0,0,1,2.13,1.88A5,5,0,0,1,149.19,488.37Z"/><path class="cls-13" d="M112,437.87a6.11,6.11,0,0,0-5.68-2.11,5.13,5.13,0,0,1,3.09-1.12h0a2.21,2.21,0,0,1,.37,0h0a1.4,1.4,0,0,1,.34.13C111.08,435.25,111.65,436.4,112,437.87Z"/><path class="cls-12" d="M113.65,430.85l-1.23,6.54L105.17,436c-.75-.14-1.15-1.34-.9-2.67l.32-1.7c.25-1.34,1.06-2.3,1.81-2.16Z"/><path class="cls-13" d="M113.65,430.85l-.61,3.27-8.61-1.62.16-.85c.25-1.34,1.06-2.3,1.81-2.16Z"/><path class="cls-14" d="M117.4,429.54a37.7,37.7,0,0,1,23.94,61.7,12.94,12.94,0,0,1-4,2.73,5.11,5.11,0,0,1-3.27.29h0a2.83,2.83,0,0,1-.35-.14h0a1.61,1.61,0,0,1-.3-.21c-.75-.63-1-1.89-1-3.41,0-3.31,1.29-7.86,1.62-9.84v0c.1-.47.19-.95.27-1.43,0,0,0-.05,0-.08.09-.52.17-1.05.23-1.57l.06-.47,0-.42c0-.14,0-.28,0-.41s0-.38,0-.56c0-.36,0-.72.06-1.09,0-.21,0-.42,0-.62,0-.57,0-1.13,0-1.7,0-.18,0-.35,0-.53s0-.35,0-.53c0-.53-.06-1-.11-1.58v-.11l0-.14c-.07-.77-.17-1.53-.29-2.29s-.24-1.43-.4-2.14l-.06-.28,0-.1c-.11-.47-.22-.94-.35-1.4l0-.14a1.21,1.21,0,0,1,0-.18,38.22,38.22,0,0,0-1.32-3.91c-.1-.25-.2-.49-.31-.74s-.19-.46-.3-.69l-.05-.12-.18-.39c-.17-.38-.36-.76-.55-1.13l-.29-.57c-.15-.29-.3-.57-.46-.85-.07-.11-.13-.22-.19-.33-.22-.38-.45-.77-.68-1.14a37.22,37.22,0,0,0-3.52-4.78l-.07-.08c-.49-.57-1-1.13-1.55-1.67l-.75-.75c-.2-.19-.41-.39-.63-.58l-.11-.11c-.46-.42-.93-.82-1.41-1.21a37.68,37.68,0,0,0-8.76-5.39l-1-.43h0l-.25-.16-.15-.11-.08-.06-.09-.07a4.76,4.76,0,0,1-1.58-2.36,4.86,4.86,0,0,1,.25-3.06h0A4,4,0,0,1,112,429.9,13.4,13.4,0,0,1,117.4,429.54Z"/><path class="cls-15" d="M109.4,432.16h.06a37.51,37.51,0,0,1,10,2.45l1.29.54a37.71,37.71,0,0,1,14.7,57.44c-.26.34-.54.68-.81,1l-.53.63a2.83,2.83,0,0,1-.35-.14h0a1.61,1.61,0,0,1-.3-.21c-.75-.63-1-1.89-1-3.41,0-3.31,1.29-7.86,1.62-9.84v0c.1-.47.19-.95.27-1.43,0,0,0-.05,0-.08.09-.52.17-1.05.23-1.57a.77.77,0,0,0,0-.15c0-.1,0-.22,0-.32l0-.42c0-.14,0-.28,0-.41s0-.38,0-.56l.06-1.09c0-.21,0-.42,0-.62,0-.36,0-.71,0-1.07,0-.21,0-.42,0-.63s0-.35,0-.53,0-.35,0-.53c0-.53-.06-1-.11-1.58v-.11l0-.14c0-.14,0-.27,0-.41-.07-.63-.15-1.25-.25-1.88s-.22-1.24-.34-1.86L134,465l-.06-.28,0-.1c-.07-.3-.14-.58-.22-.87s-.08-.36-.13-.53l0-.14a1.21,1.21,0,0,1,0-.18c-.07-.25-.15-.5-.23-.76s-.11-.36-.16-.55l-.09-.25c-.08-.26-.17-.52-.26-.78s-.17-.48-.26-.72-.21-.57-.32-.85-.2-.49-.31-.74-.19-.46-.3-.69l-.05-.12-.18-.39c-.17-.38-.36-.76-.55-1.13l-.29-.57c-.15-.29-.3-.57-.46-.85-.07-.11-.13-.22-.19-.33l-.2-.33c-.16-.27-.31-.55-.48-.81s-.29-.45-.43-.67-.33-.51-.51-.76l-.27-.39-.21-.3-.5-.68c-.18-.23-.35-.46-.53-.68l-.44-.54c-.21-.25-.41-.51-.63-.76l-.07-.08-.62-.69-.4-.43-.53-.55-.47-.47-.28-.28c-.2-.19-.41-.39-.63-.58l-.11-.11-.53-.46-.43-.37-.45-.38-.65-.52-.36-.27-.86-.65-.59-.42-.89-.6c-.2-.12-.41-.25-.61-.39s-.62-.38-.95-.56-.39-.24-.6-.35-.71-.39-1.07-.57l-.41-.22-.17-.08c-.53-.27-1.06-.52-1.6-.76l-1-.43h0l-.25-.16-.15-.11-.08-.06-.09-.07a4.76,4.76,0,0,1-1.58-2.36A4.86,4.86,0,0,1,109.4,432.16Z"/><path class="cls-13" d="M132.41,490.48a6.11,6.11,0,0,0,5,3.49,5.11,5.11,0,0,1-3.27.29h0a2.83,2.83,0,0,1-.35-.14h0a1.61,1.61,0,0,1-.3-.21C132.66,493.26,132.4,492,132.41,490.48Z"/><path class="cls-14" d="M114.56,427.71a37.7,37.7,0,0,1,52.82,29.2,37.26,37.26,0,0,1-.06,10.76,12.77,12.77,0,0,1-2,4.42,5,5,0,0,1-2.63,2h0l-.37.06h0a2.23,2.23,0,0,1-.37,0c-1-.15-1.85-1.09-2.64-2.38-1.73-2.83-3-7.38-3.78-9.23h0c-.17-.46-.34-.92-.52-1.36l0-.08c-.2-.49-.41-1-.64-1.46-.06-.14-.12-.29-.19-.43l-.19-.38c-.05-.12-.12-.25-.18-.37s-.17-.34-.25-.5c-.17-.32-.34-.64-.52-1s-.2-.36-.31-.54c-.28-.5-.57-1-.88-1.45-.09-.15-.19-.3-.29-.44s-.19-.3-.29-.45c-.3-.43-.61-.86-.92-1.28l-.06-.09-.09-.12c-.47-.61-.95-1.21-1.45-1.79s-1-1.09-1.46-1.62l-.2-.2-.08-.08c-.33-.34-.68-.68-1-1l-.1-.1-.13-.12a38,38,0,0,0-3.18-2.64c-.21-.17-.43-.32-.64-.47l-.63-.44-.1-.07-.36-.23c-.35-.24-.7-.46-1.06-.68l-.54-.33c-.29-.17-.56-.33-.85-.48l-.33-.18c-.39-.22-.78-.42-1.18-.62a37.64,37.64,0,0,0-5.5-2.22l-.1,0c-.72-.23-1.45-.43-2.19-.61-.34-.09-.69-.17-1-.24l-.84-.17-.15,0c-.61-.12-1.22-.22-1.84-.3a37.65,37.65,0,0,0-10.28,0l-1.11.18h-.58l-.11,0a4.7,4.7,0,0,1-2.58-1.18,4.87,4.87,0,0,1-1.4-2.73h0a3.92,3.92,0,0,1,1-3.27A13.34,13.34,0,0,1,114.56,427.71Z"/><path class="cls-15" d="M109.13,434.14l.06,0A37.78,37.78,0,0,1,119,431c.46-.08.92-.16,1.38-.22A37.73,37.73,0,0,1,163,471.94c-.05.43-.1.87-.16,1.3l-.12.82-.37.06h0a2.23,2.23,0,0,1-.37,0c-1-.15-1.85-1.09-2.64-2.38-1.73-2.83-3-7.38-3.78-9.23h0c-.17-.46-.34-.92-.52-1.36l0-.08c-.2-.49-.41-1-.64-1.46a.69.69,0,0,0-.05-.13c0-.1-.1-.2-.14-.3l-.19-.38-.18-.37c-.09-.17-.17-.34-.25-.5l-.52-1c-.1-.18-.2-.36-.31-.54s-.36-.61-.55-.91l-.33-.54c-.1-.15-.19-.3-.29-.44s-.19-.3-.29-.45c-.3-.43-.61-.86-.92-1.28l-.06-.09-.09-.12c-.08-.11-.17-.21-.26-.32-.38-.5-.78-1-1.19-1.47s-.84-.95-1.27-1.41l-.19-.21-.2-.2-.08-.08-.63-.62-.4-.39-.1-.1-.13-.12-.59-.53-.43-.38-.2-.17c-.21-.18-.42-.36-.64-.53s-.4-.32-.6-.47l-.72-.56-.64-.47-.63-.44-.1-.07-.36-.23c-.35-.24-.7-.46-1.06-.68l-.54-.33c-.29-.17-.56-.33-.85-.48l-.33-.18-.34-.18-.84-.44-.71-.34-.84-.38-.43-.19-.34-.14-.78-.32-.81-.31-.65-.22-.94-.32-.1,0-.89-.26-.57-.16-.73-.19-.65-.15-.39-.09-.84-.17-.15,0-.69-.12-.57-.09-.58-.09-.83-.1-.44,0-1.08-.1-.72,0-1.07-.05h-.72l-1.1,0c-.24,0-.47,0-.7,0-.4,0-.81,0-1.21.07l-.47,0-.18,0c-.59,0-1.17.12-1.76.19l-1.11.18h-.58l-.11,0a4.7,4.7,0,0,1-2.58-1.18A4.87,4.87,0,0,1,109.13,434.14Z"/><path class="cls-13" d="M159.32,471.72a6.1,6.1,0,0,0,6,.37,5,5,0,0,1-2.63,2h0l-.37.06h0a2.23,2.23,0,0,1-.37,0C161,474,160.11,473,159.32,471.72Z"/><path class="cls-16" d="M161.58,520.82H113.76a9,9,0,0,1-8.92-7.7L97.4,462.87h80.54l-7.44,50.25A9,9,0,0,1,161.58,520.82Z"/><path class="cls-17" d="M184.24,457.84h-1.43a44.59,44.59,0,1,0-89.17,0H92.21a46,46,0,1,1,92,0Z"/><rect class="cls-18" x="89.2" y="452.81" width="98.06" height="10.07" rx="3.52"/><path class="cls-12" d="M167.34,422.88l-5-.74.82-5.57c.08-.57,1-.92,2-.77l1.3.2c1,.15,1.79.73,1.71,1.31Z"/><path class="cls-13" d="M167.34,422.88l-2.51-.37,1-6.61.65.09c1,.16,1.79.74,1.71,1.32Z"/><path class="cls-14" d="M168.46,425.69a28.78,28.78,0,0,1-46.31,20.17,10,10,0,0,1-2.21-2.95,3.91,3.91,0,0,1-.32-2.49v0h0c0-.09.06-.18.09-.27h0a1,1,0,0,1,.15-.24,3.38,3.38,0,0,1,2.57-.87c2.53-.1,6,.74,7.55.93h0c.36.06.73.12,1.1.16h.06c.4.05.8.1,1.2.13l.36,0,.33,0h.31l.43,0,.83,0h.48c.43,0,.86,0,1.29,0,.14,0,.27,0,.4,0s.27,0,.41,0c.4,0,.8-.07,1.2-.13h.19c.58-.08,1.16-.18,1.73-.29s1.09-.23,1.63-.37l.2-.06.09,0c.35-.09.7-.2,1.05-.31l.11,0,.13,0a28.28,28.28,0,0,0,2.94-1.13l.55-.25.53-.25.09,0,.29-.15q.42-.21.84-.45l.43-.24.63-.38.25-.15.85-.56a28.79,28.79,0,0,0,3.53-2.83l.06,0c.42-.4.83-.81,1.22-1.23.19-.19.37-.4.55-.6l.43-.5.08-.09c.3-.36.59-.73.88-1.11a28.5,28.5,0,0,0,3.83-6.84c.11-.27.21-.54.3-.8h0a1.34,1.34,0,0,1,.11-.19L162,421l0-.06.05-.07a3.54,3.54,0,0,1,1.75-1.27,3.66,3.66,0,0,1,2.34.09h0a3,3,0,0,1,1.8,1.9A10.38,10.38,0,0,1,168.46,425.69Z"/><path class="cls-15" d="M166.21,419.68v.05a29.24,29.24,0,0,1-1.56,7.66c-.12.33-.25.67-.38,1a28.78,28.78,0,0,1-43.34,13l-.8-.59-.5-.39c0-.09.06-.18.09-.27h0a1,1,0,0,1,.15-.24,3.38,3.38,0,0,1,2.57-.87c2.53-.1,6,.74,7.55.93h0c.36.06.73.12,1.1.16h.06c.4.05.8.1,1.2.13h.12l.24,0,.33,0h.31l.43,0,.83,0h.48l.81,0,.48,0,.4,0c.14,0,.27,0,.41,0,.4,0,.8-.07,1.2-.13h.19l.31,0c.48-.07,1-.15,1.42-.24l1.41-.32.22-.05.2-.06.09,0,.65-.19.4-.12.11,0,.13,0,.57-.19.42-.15.18-.07.59-.22.54-.23.64-.27.55-.25.53-.25.09,0,.29-.15q.42-.21.84-.45l.43-.24.63-.38.25-.15.24-.16.61-.4.49-.35c.19-.13.38-.26.57-.41l.28-.21.23-.18.5-.4.51-.42.39-.35c.19-.17.38-.33.56-.51l.06,0,.5-.5.32-.32c.14-.13.27-.27.4-.41l.35-.38.2-.22.43-.5.08-.09.33-.41c.1-.11.18-.23.27-.35l.28-.35.37-.51.2-.28c.16-.22.32-.45.47-.68l.3-.46.43-.7.27-.48c.14-.24.27-.48.41-.74l.24-.47c.15-.27.28-.55.41-.83l.15-.32.06-.13c.18-.41.36-.82.52-1.24s.21-.54.3-.8h0a1.34,1.34,0,0,1,.11-.19L162,421l0-.06.05-.07a3.54,3.54,0,0,1,1.75-1.27A3.66,3.66,0,0,1,166.21,419.68Z"/><path class="cls-13" d="M122.45,439a4.66,4.66,0,0,0-2.51,3.89,3.91,3.91,0,0,1-.32-2.49v0h0c0-.09.06-.18.09-.27h0a1,1,0,0,1,.15-.24A3.38,3.38,0,0,1,122.45,439Z"/><path class="cls-14" d="M169.76,423.48a28.74,28.74,0,0,1-20.63,41.17,28.42,28.42,0,0,1-8.21.29,9.72,9.72,0,0,1-3.43-1.35,3.93,3.93,0,0,1-1.58-1.95v0h0a1.57,1.57,0,0,1-.06-.28h0a1.31,1.31,0,0,1,0-.28,3.45,3.45,0,0,1,1.73-2.09c2.11-1.41,5.54-2.53,6.93-3.17h0l1-.44.05,0,1.1-.52.32-.17.28-.15.28-.15.37-.21.72-.42c.14-.08.27-.17.4-.26.37-.22.73-.46,1.08-.71l.33-.23.33-.24.95-.74.07,0,.08-.07c.46-.38.9-.77,1.33-1.17s.8-.76,1.18-1.16c.05-.05.1-.11.15-.15l.06-.07c.25-.26.5-.54.74-.81l.07-.09.09-.1a27.32,27.32,0,0,0,1.92-2.51l.33-.5.32-.49,0-.08.17-.28c.17-.27.32-.55.48-.83l.24-.43c.11-.22.23-.43.34-.66l.12-.25c.16-.3.3-.61.44-.92a28.76,28.76,0,0,0,1.52-4.26s0-.06,0-.08c.15-.56.29-1.12.4-1.69l.15-.8c0-.21.08-.43.11-.65,0,0,0-.08,0-.11.07-.47.13-.94.17-1.41a28.8,28.8,0,0,0-.32-7.84c-.05-.28-.11-.56-.17-.84h0a1.4,1.4,0,0,1,0-.23v-.3a3.58,3.58,0,0,1,.83-2,3.74,3.74,0,0,1,2-1.15h0a3,3,0,0,1,2.53.68A10.19,10.19,0,0,1,169.76,423.48Z"/><path class="cls-15" d="M164.69,419.53l0,.05a28.74,28.74,0,0,1,2.69,7.34l.21,1.05a28.77,28.77,0,0,1-23.22,33.4,29.06,29.06,0,0,1-6.87.4l-1-.08-.62-.07a1.57,1.57,0,0,1-.06-.28h0a1.31,1.31,0,0,1,0-.28,3.45,3.45,0,0,1,1.73-2.09c2.11-1.41,5.54-2.53,6.93-3.17h0l1-.44.05,0,1.1-.52.1-.05.22-.12.28-.15.28-.15.37-.21.72-.42c.14-.08.27-.17.4-.26l.68-.44.4-.27.33-.23.33-.24.95-.74.07,0,.08-.07.24-.21c.37-.31.73-.63,1.09-1s.69-.66,1-1l.15-.15c.05-.05.1-.11.15-.15l.06-.07c.16-.16.31-.33.46-.5s.19-.21.28-.31l.07-.09.09-.1.39-.47.27-.34.13-.15c.13-.17.25-.34.38-.5l.34-.48c.14-.18.28-.37.41-.57l.33-.5.32-.49,0-.08.17-.28c.17-.27.32-.55.48-.83l.24-.43c.11-.22.23-.43.34-.66l.12-.25.13-.27c.1-.21.21-.43.31-.65s.16-.37.23-.56.19-.43.27-.65.09-.22.13-.33.07-.18.1-.26.15-.41.22-.61l.21-.63.15-.5.21-.72s0-.06,0-.08c.06-.23.12-.46.17-.69s.07-.29.11-.44l.12-.56.09-.5.06-.3c0-.21.08-.43.11-.65,0,0,0-.08,0-.11,0-.18.05-.36.07-.53s0-.29,0-.44,0-.29.05-.44,0-.43.05-.64,0-.22,0-.34c0-.27,0-.55,0-.82s0-.37,0-.55v-.82c0-.18,0-.37,0-.55s0-.56,0-.84,0-.35,0-.53-.06-.62-.09-.92c0-.12,0-.24,0-.36s0-.09,0-.14c-.06-.44-.13-.89-.2-1.33-.05-.28-.11-.56-.17-.84h0a1.4,1.4,0,0,1,0-.23v-.3a3.58,3.58,0,0,1,.83-2A3.74,3.74,0,0,1,164.69,419.53Z"/><path class="cls-13" d="M137.58,459a4.69,4.69,0,0,0-.09,4.63,3.93,3.93,0,0,1-1.58-1.95v0h0a1.57,1.57,0,0,1-.06-.28h0a1.31,1.31,0,0,1,0-.28A3.45,3.45,0,0,1,137.58,459Z"/><path class="cls-2" d="M350.67,549.41l-.57,0a4.29,4.29,0,0,1-3.69-4.82l41.88-317.1a4.29,4.29,0,0,1,8.5,1.12L354.91,545.69A4.29,4.29,0,0,1,350.67,549.41Z"/><path class="cls-2" d="M439.24,230.83h-93.4a4.28,4.28,0,0,1-4.1-5.52l30.38-101.24a4.29,4.29,0,0,1,8.22,2.47l-28.73,95.71h84.44l29.47-98.18a4.29,4.29,0,0,1,8.21,2.47L443.35,227.77A4.3,4.3,0,0,1,439.24,230.83Z"/><path class="cls-2" d="M392.54,230.83a4.36,4.36,0,0,1-1.23-.18,4.29,4.29,0,0,1-2.88-5.34l30.39-101.24a4.29,4.29,0,0,1,8.21,2.47L396.65,227.77A4.29,4.29,0,0,1,392.54,230.83Z"/></svg>
