<svg width="45" height="44" viewBox="0 0 45 44" fill="none" xmlns="http://www.w3.org/2000/svg">
<path d="M42.0225 23.0501L20.3646 1.97754L-1.14441e-05 1.97754L42.0225 44L42.0225 23.0501Z" fill="url(#paint0_linear)"/>
<path d="M17.8888 5.51541C16.3996 4.03473 14.3137 4.04775 12.833 5.53691C11.3523 7.02607 11.3654 9.112 12.8545 10.5927C14.1664 11.8971 15.8492 11.864 16.9577 11.2598L18.0787 10.1323L15.4408 7.50937L14.5524 8.40287L16.0912 9.9329C15.3498 10.3098 14.6141 10.2129 14.0114 9.61357C13.1392 8.74631 13.1503 7.68562 14.0669 6.76376C14.9271 5.89863 15.9947 5.86023 16.7748 6.63582C17.2286 7.08708 17.3927 7.6028 17.2457 8.11941L18.5859 9.45202C19.3389 8.17 19.0801 6.69995 17.8888 5.51541ZM24.1487 11.8525L21.0815 14.9372L22.1206 9.83593L20.908 8.63023L15.9583 13.6083L17.1709 14.814L20.2239 11.7435L19.199 16.8305L20.4116 18.0362L25.3613 13.0582L24.1487 11.8525ZM24.6872 22.2875L25.9707 23.5637L29.1193 16.7948L27.7152 15.3987L20.9643 18.5858L22.2337 19.8479L23.4058 19.2648L25.2637 21.1121L24.6872 22.2875ZM25.8824 19.8658L24.6556 18.646L27.0775 17.4299L25.8824 19.8658ZM34.7093 22.353L31.6422 25.4377L32.6812 20.3365L31.4686 19.1308L26.5189 24.1088L27.7315 25.3145L30.7845 22.244L29.7596 27.3311L30.9722 28.5368L35.9219 23.5587L34.7093 22.353ZM35.2479 32.7881L36.5314 34.0643L39.6799 27.2953L38.2759 25.8993L31.525 29.0864L32.7943 30.3485L33.9665 29.7653L35.8244 31.6126L35.2479 32.7881ZM36.4431 30.3664L35.2163 29.1466L37.6382 27.9305L36.4431 30.3664Z" fill="white"/>
<defs>
<linearGradient id="paint0_linear" x1="112.225" y1="110.247" x2="-28.1798" y2="-24.2247" gradientUnits="userSpaceOnUse">
<stop stop-color="#F6E57C"/>
<stop offset="0.263542" stop-color="#BE8624"/>
<stop offset="0.503125" stop-color="#F6E57C"/>
<stop offset="0.758333" stop-color="#BA801E"/>
<stop offset="1" stop-color="#F6E57C"/>
</linearGradient>
</defs>
</svg>
