<svg width="113" height="100" viewBox="0 0 113 100" fill="none" xmlns="http://www.w3.org/2000/svg">
<path d="M105.757 16.5859L98.7571 16.8956L98.2615 3.08095C98.1995 1.65612 99.3146 0.479081 100.739 0.417132L102.536 0.355184C103.961 0.293234 105.138 1.40832 105.2 2.83315L105.757 16.5859Z" fill="url(#paint0_linear)"/>
<path d="M105.757 16.5859L102.288 16.7098L101.668 0.293202L102.598 0.231252C104.023 0.169302 105.2 1.28439 105.262 2.70922L105.757 16.5859Z" fill="url(#paint1_linear)"/>
<path d="M112.138 22.2232C112.758 28.7898 112.448 35.5423 111.147 42.3567C103.713 80.6414 66.6673 105.669 28.3826 98.235C21.5682 96.934 15.1874 94.6419 9.30224 91.6064C8.8686 91.3586 5.02774 88.9426 2.67367 85.4734C1.49664 83.7388 0.629344 81.7565 0.753243 79.6502C0.753243 79.6502 0.753243 79.6502 0.753243 79.5882C0.753243 79.3404 0.815192 79.0926 0.877142 78.9068C0.939091 78.659 1.00104 78.4731 1.12494 78.2873C1.99223 76.6766 4.16045 75.6854 6.94817 75.0659C13.0192 73.7031 21.8779 74.1367 25.5949 73.9509H25.6568C26.5861 73.9509 27.4534 73.8889 28.3826 73.827C28.4446 73.827 28.5065 73.827 28.5065 73.827C29.4977 73.765 30.4889 73.703 31.4801 73.5792C31.7898 73.5792 32.0996 73.5172 32.3474 73.5172C32.5952 73.4553 32.843 73.4553 33.1527 73.3933C33.4005 73.3933 33.6483 73.3314 33.8961 73.2694C34.2678 73.2075 34.5775 73.2075 34.9492 73.1455C35.6307 73.0216 36.3121 72.9597 36.9316 72.8358C37.3033 72.7738 37.675 72.7119 38.1087 72.588C39.1618 72.4021 40.2149 72.1543 41.2061 71.9065C41.5159 71.8446 41.8256 71.7826 42.1973 71.6587C42.507 71.5968 42.8168 71.4729 43.1885 71.4109C44.1177 71.1631 45.1089 70.8534 46.0382 70.5436C46.1001 70.5436 46.162 70.4817 46.224 70.4817L46.4718 70.4197C47.8347 69.9861 49.1976 69.4905 50.5604 68.933C51.7994 68.4374 53.1004 67.8798 54.3394 67.3223C54.5252 67.2603 54.6491 67.1984 54.835 67.0745L55.0208 67.0125C55.8261 66.6408 56.6315 66.2072 57.4368 65.7736C57.4988 65.7116 57.6227 65.7116 57.6846 65.6496C57.8085 65.5877 57.8705 65.5258 57.9944 65.4638C60.2865 64.2248 62.4547 62.9239 64.6229 61.4371C65.0566 61.1893 65.4283 60.8796 65.8619 60.5698C66.2336 60.322 66.6053 60.0123 67.039 59.7025C67.1009 59.6406 67.1629 59.5786 67.2248 59.5786C67.4107 59.3928 67.6584 59.2689 67.8443 59.083C68.4638 58.5874 69.0833 58.0918 69.7028 57.5962C70.0125 57.3484 70.3223 57.1007 70.632 56.8529C71.0657 56.4812 71.5612 56.0475 71.9949 55.6139C72.1807 55.428 72.3666 55.3041 72.4905 55.1183C73.11 54.5607 73.7295 54.0032 74.287 53.3837C76.8889 50.7818 79.3669 47.9941 81.5351 44.9586C81.597 44.8966 81.597 44.8347 81.659 44.7727C82.5263 43.6577 83.3316 42.4806 84.075 41.2416C84.4467 40.6841 84.8184 40.1266 85.1281 39.569C85.3759 39.1354 85.6857 38.6398 85.9335 38.2061C85.9954 38.1442 86.0574 38.0203 86.0574 37.9583C86.6149 36.9671 87.1725 35.914 87.6681 34.8609C90.5177 29.2235 92.624 23.0905 93.863 16.6478C93.9869 15.9663 94.1108 15.2849 94.2347 14.6035C94.2347 14.6035 94.2966 14.4176 94.4205 14.1079C94.4825 13.984 94.4825 13.922 94.5444 13.7981C94.5444 13.7362 94.6064 13.6742 94.6064 13.6123C94.6064 13.5503 94.6683 13.4884 94.6683 13.4264C95.2259 12.2494 96.341 10.6387 98.3233 9.58557C99.7482 8.84218 101.607 8.40853 104.023 8.78023C106.315 9.15192 107.987 10.6387 109.226 12.5591C111.085 15.5327 111.828 19.6833 112.138 22.2232Z" fill="url(#paint2_linear)"/>
<path d="M104.023 8.71833C104.023 8.78028 104.023 8.78028 104.023 8.84223C104.766 15.0991 104.704 21.5418 103.651 28.0465C103.527 28.9138 103.342 29.7811 103.218 30.6484C95.7837 68.933 58.738 93.9605 20.4534 86.5266C14.7541 85.4115 9.42644 83.6769 4.3466 81.3848C3.60321 81.0131 2.85982 80.7034 2.11642 80.3317C1.68278 80.0839 1.18718 79.8361 0.75354 79.6502C0.75354 79.4024 0.81549 79.1546 0.877439 78.9688C0.939388 78.721 1.00134 78.5351 1.12524 78.3493C1.99253 76.7386 4.16075 75.7474 6.94847 75.1279C13.0195 73.7651 21.8782 74.1987 25.5952 74.0128H25.6571C26.5864 74.0128 27.4537 73.9509 28.3829 73.889C28.4449 73.889 28.5068 73.889 28.5068 73.889C29.498 73.827 30.4892 73.7651 31.4804 73.6412C31.5423 73.6412 31.6662 73.6412 31.7282 73.6412C31.914 73.6412 32.1618 73.5792 32.3477 73.5792C32.5955 73.5173 32.8433 73.5173 33.153 73.4553C33.4627 73.3934 33.6486 73.3934 33.8964 73.3314C34.2681 73.2695 34.5778 73.2695 34.9495 73.2075C35.631 73.0836 36.3124 72.9597 36.9319 72.8978C37.3036 72.8358 37.6753 72.7739 38.1089 72.65C38.7904 72.5261 39.4099 72.4022 40.0294 72.2163C40.4011 72.1544 40.7728 72.0305 41.2064 71.9685C41.5162 71.9066 41.8259 71.7827 42.1976 71.7207C42.5073 71.6588 42.8171 71.5349 43.1888 71.4729C44.118 71.2251 45.1092 70.9154 46.0385 70.6056C46.1004 70.6056 46.1623 70.5437 46.2243 70.5437L46.4721 70.4817C46.7199 70.4198 46.9677 70.2959 47.2155 70.234C48.3306 69.8623 49.4457 69.4286 50.5607 68.995C51.6758 68.5613 52.729 68.0657 53.8441 67.5701C54.0299 67.5082 54.1538 67.4462 54.3396 67.3223C54.5255 67.2604 54.6494 67.1984 54.8352 67.0745L55.0211 67.0126C55.5167 66.7648 56.0123 66.517 56.5079 66.2692C56.8176 66.0833 57.1274 65.9594 57.4371 65.8355C57.4991 65.7736 57.623 65.7736 57.6849 65.7117C57.8088 65.6497 57.8708 65.5878 57.9947 65.5258C58.4283 65.278 58.8619 65.0302 59.2956 64.7824C59.6053 64.5966 59.9151 64.4107 60.2248 64.2249C60.3487 64.1629 60.5346 64.039 60.6585 63.9771C61.0921 63.7293 61.5258 63.4195 61.9594 63.1717C62.3931 62.9239 62.7647 62.6761 63.1364 62.3664C63.632 62.0566 64.0657 61.7469 64.5613 61.4372C64.9949 61.1274 65.3666 60.8796 65.8003 60.5699C66.172 60.2601 66.5436 60.0123 66.9773 59.7026C67.0392 59.6406 67.1012 59.5787 67.1631 59.5787C67.349 59.3928 67.5968 59.2689 67.7826 59.0831C68.4021 58.5875 69.0216 58.0919 69.6411 57.5963C69.9509 57.3485 70.2606 57.1007 70.5704 56.8529C71.004 56.4812 71.4996 56.0476 71.9332 55.6139C72.1191 55.4281 72.3049 55.3042 72.4288 55.1183C72.6147 54.9325 72.8005 54.8086 72.9244 54.6227C73.3581 54.1891 73.7917 53.8174 74.2254 53.3838C74.5971 53.0121 74.9068 52.7023 75.2785 52.3306C75.7121 51.897 76.0838 51.5253 76.4555 51.0916C76.6414 50.9058 76.8272 50.658 77.075 50.4102C77.1989 50.2243 77.3848 50.0385 77.5087 49.9146C77.8804 49.5429 78.1901 49.1092 78.5618 48.7376C78.9335 48.3039 79.2433 47.9322 79.615 47.4986C79.8627 47.1888 80.1725 46.8171 80.4203 46.5074C80.792 46.0118 81.1637 45.5162 81.5354 45.0206C81.5973 44.9586 81.5973 44.8967 81.6593 44.8348C82.031 44.3392 82.3407 43.9055 82.6505 43.4099C82.8363 43.1002 83.0841 42.7904 83.27 42.4807C83.5177 42.109 83.7655 41.6753 84.0753 41.3036C84.3231 40.9319 84.5089 40.6222 84.7567 40.2505C84.8806 40.0647 85.0045 39.8169 85.1284 39.631C85.3762 39.1974 85.686 38.7018 85.9338 38.2681C85.9957 38.2062 86.0577 38.0823 86.0577 38.0203C86.2435 37.6486 86.4913 37.2769 86.6772 36.8433C86.863 36.5335 86.9869 36.2238 87.1728 35.9141C87.3586 35.6043 87.4825 35.2946 87.6684 34.9229C87.9162 34.4892 88.102 33.9936 88.3498 33.498C88.4737 33.2502 88.5976 33.0024 88.7215 32.7546C89.0312 32.1352 89.279 31.5157 89.5268 30.8962C89.7127 30.4625 89.8985 30.0908 90.0224 29.6572C90.2702 29.0377 90.518 28.4182 90.7658 27.7987C90.8897 27.3651 91.0756 26.9314 91.1995 26.4978C91.4473 25.8783 91.6331 25.1968 91.819 24.5154C91.9428 24.0817 92.0667 23.71 92.1906 23.2764C92.4384 22.533 92.6243 21.7896 92.8101 21.1082C92.8721 20.7984 92.934 20.5506 93.0579 20.2409C93.0579 20.117 93.1199 19.9931 93.1199 19.9311C93.3677 18.878 93.6155 17.7629 93.8633 16.7098C93.9872 16.0283 94.1111 15.3469 94.235 14.6655C94.235 14.6655 94.2969 14.4796 94.4208 14.1699C94.4828 14.046 94.4828 13.984 94.5447 13.8601C94.5447 13.7982 94.6067 13.7362 94.6067 13.6743C94.6067 13.6123 94.6686 13.5504 94.6686 13.4884C95.2262 12.3114 96.3412 10.7007 98.3236 9.64757C99.7485 8.78028 101.607 8.34663 104.023 8.71833Z" fill="url(#paint3_linear)"/>
<path d="M7.01012 74.9421C3.78876 77.7298 2.17808 81.137 2.67367 85.4115C1.49664 83.6769 0.629344 81.6945 0.753243 79.5883C0.753243 79.5883 0.753243 79.5883 0.753243 79.5263C0.753243 79.2785 0.815192 79.0307 0.877142 78.8449C0.939091 78.5971 1.00104 78.4112 1.12494 78.2254C2.05418 76.5528 4.28435 75.5616 7.01012 74.9421Z" fill="url(#paint4_linear)"/>
<defs>
<linearGradient id="paint0_linear" x1="89.1657" y1="-5.39509" x2="104.14" y2="11.8643" gradientUnits="userSpaceOnUse">
<stop stop-color="#FFE988"/>
<stop offset="0.25" stop-color="#BA801E"/>
<stop offset="0.5" stop-color="#FBEC83"/>
<stop offset="0.75" stop-color="#BA801F"/>
<stop offset="1" stop-color="#FFE97F"/>
</linearGradient>
<linearGradient id="paint1_linear" x1="90.1954" y1="-6.28868" x2="105.17" y2="10.9707" gradientUnits="userSpaceOnUse">
<stop stop-color="#FFE988"/>
<stop offset="0.25" stop-color="#BA801E"/>
<stop offset="0.5" stop-color="#FBEC83"/>
<stop offset="0.75" stop-color="#BA801F"/>
<stop offset="1" stop-color="#FFE97F"/>
</linearGradient>
<linearGradient id="paint2_linear" x1="-1.03074" y1="48.5563" x2="190.444" y2="63.1549" gradientUnits="userSpaceOnUse">
<stop stop-color="#FFE988"/>
<stop offset="0.25" stop-color="#BA801E"/>
<stop offset="0.5" stop-color="#FBEC83"/>
<stop offset="0.75" stop-color="#BA801F"/>
<stop offset="1" stop-color="#FFE97F"/>
</linearGradient>
<linearGradient id="paint3_linear" x1="-6.31383" y1="56.7614" x2="123.371" y2="42.1702" gradientUnits="userSpaceOnUse">
<stop stop-color="#FFE988"/>
<stop offset="0.25" stop-color="#BA801E"/>
<stop offset="0.5" stop-color="#FBEC83"/>
<stop offset="0.75" stop-color="#BA801F"/>
<stop offset="1" stop-color="#FFE97F"/>
</linearGradient>
<linearGradient id="paint4_linear" x1="-3.36626" y1="71.6601" x2="5.36054" y2="80.7101" gradientUnits="userSpaceOnUse">
<stop stop-color="#FFE988"/>
<stop offset="0.25" stop-color="#BA801E"/>
<stop offset="0.5" stop-color="#FBEC83"/>
<stop offset="0.75" stop-color="#BA801F"/>
<stop offset="1" stop-color="#FFE97F"/>
</linearGradient>
</defs>
</svg>