<svg width="99" height="54" viewBox="0 0 99 54" fill="none" xmlns="http://www.w3.org/2000/svg">
<path d="M87.8493 57.7488C87.6986 56.7069 87.3972 55.8139 87.0959 54.7721C85.2877 48.3721 86.6438 41.6744 84.6849 35.2744C84.6849 35.2744 84.6849 35.2744 84.6849 35.1255C81.2192 22.7721 71.1233 11.7581 59.0685 7.7395L58.9178 2.97671L52.8904 6.5488C52.137 6.39996 51.5342 6.39996 50.7808 6.39996C50.6301 5.50694 49.8767 2.23252 49.726 1.48834C44.3014 1.19066 40.2329 6.84648 40.0822 7.88834C27.8767 11.9069 17.7808 22.9209 14.3151 35.2744C12.5068 41.6744 13.863 48.3721 12.0548 54.7721C11.3014 57.6 10.6986 60.279 10.6986 63.2558C10.3973 81.4139 30.7397 94.9581 49.1233 94.5116C72.7808 94.8093 92.0685 77.9907 87.8493 57.7488Z" stroke="white" stroke-width="2" stroke-linecap="round" stroke-linejoin="round"/>
<path d="M11.3013 57.4511C9.04105 56.7069 6.78077 55.2186 4.67118 52.5395C-0.753474 45.8418 1.05474 35.1255 7.68488 32.5953C10.6986 31.4046 13.1095 32 14.7671 32.893C14.9178 32.893 14.9178 33.0418 15.0684 33.0418" stroke="white" stroke-width="2" stroke-linecap="round" stroke-linejoin="round"/>
<path d="M83.9314 33.0418C85.7396 31.9999 88.1506 31.4046 91.3149 32.5953C97.9451 35.1255 99.7533 45.8418 94.3286 52.5395C92.2191 55.2186 89.8081 56.7069 87.6985 57.4511" stroke="white" stroke-width="2" stroke-linecap="round" stroke-linejoin="round"/>
<path d="M76.6986 50.1581C77.6027 48.3721 78.0547 46.2883 78.0547 44.2046C78.0547 36.0186 70.9725 29.3209 62.2328 29.3209C59.2191 29.3209 56.5068 30.0651 54.0958 31.4046C51.2328 33.0418 47.6164 33.0418 44.7533 31.4046C42.3424 30.0651 39.6301 29.3209 36.6164 29.3209C27.8766 29.3209 20.7944 36.0186 20.7944 44.2046C20.7944 46.2883 21.2465 48.3721 22.1506 50.1581C22.452 50.7535 22.7533 51.3488 23.2054 51.9442C24.7122 54.3256 25.1643 57.3023 24.2602 59.9814C23.5068 62.0651 22.904 64.2976 22.904 65.9348C22.904 78.2883 34.8081 88.4093 49.4246 88.4093C64.041 88.4093 75.9451 78.4372 75.9451 65.9348C75.9451 64.2976 75.3424 61.9162 74.589 59.9814C73.6849 57.3023 74.1369 54.3256 75.6438 51.9442C76.0958 51.3488 76.5479 50.7535 76.6986 50.1581Z" stroke="white" stroke-width="2" stroke-linecap="round" stroke-linejoin="round"/>
<path d="M35.8623 50.1581C33.3007 50.1581 31.3418 48.2232 31.3418 45.8418V44.3535C31.3418 41.9721 33.4514 40.0372 35.8623 40.0372C38.424 40.0372 40.3829 41.9721 40.3829 44.3535V45.8418C40.3829 48.2232 38.424 50.1581 35.8623 50.1581Z" stroke="white" stroke-width="2" stroke-linecap="round" stroke-linejoin="round"/>
<path d="M63.1365 50.1581C60.5749 50.1581 58.616 48.2232 58.616 45.8419V44.3535C58.616 41.9721 60.7256 40.0372 63.1365 40.0372C65.6982 40.0372 67.6571 41.9721 67.6571 44.3535V45.8419C67.6571 48.2232 65.6982 50.1581 63.1365 50.1581Z" stroke="white" stroke-width="2" stroke-linecap="round" stroke-linejoin="round"/>
</svg>
