<?xml version="1.0" encoding="utf-8"?>
<!-- Generator: Adobe Illustrator 26.0.2, SVG Export Plug-In . SVG Version: 6.00 Build 0)  -->
<svg version="1.1" id="Capa_1" xmlns="http://www.w3.org/2000/svg" xmlns:xlink="http://www.w3.org/1999/xlink" x="0px" y="0px"
	 viewBox="0 0 338 442" style="enable-background:new 0 0 338 442;" xml:space="preserve">
<style type="text/css">
	.st0{clip-path:url(#SVGID_00000003820093533615270400000016205811251192759686_);}
	.st1{fill:url(#SVGID_00000036240205502696088510000010214438230402993290_);}
	.st2{fill:url(#SVGID_00000079453410636700795340000004107183879007107222_);}
	.st3{opacity:0.15;fill:#FFF8BB;enable-background:new    ;}
	.st4{opacity:0.2;fill:#FFF8BB;enable-background:new    ;}
	.st5{fill:#FBB62B;}
	.st6{fill:#FCC64F;}
	.st7{fill:#EC9C19;}
	.st8{fill:url(#SVGID_00000056390645110088153800000012695550049707961524_);}
	.st9{fill:#4D542B;}
	.st10{fill:#6A8922;}
	.st11{fill:#B4A30B;}
	.st12{fill:#D2BE07;}
	.st13{fill:#97880F;}
	.st14{fill:#EDBD05;}
	.st15{fill:#FFD039;}
	.st16{fill:#E9AD01;}
	.st17{fill:url(#SVGID_00000072965065406931434940000003410704299103713190_);}
	.st18{fill:#66321C;}
	.st19{fill:#542400;}
	.st20{fill:#542919;}
	.st21{fill:#4D522A;}
	.st22{fill:#5C5C02;}
	.st23{fill:#7F770E;}
	.st24{fill:#525000;}
	.st25{fill:#716D0A;}
	.st26{fill:#F5D532;}
	.st27{fill:#83831C;}
	.st28{fill:#A8A274;}
	.st29{fill:#878752;}
	.st30{fill:#CF6842;}
	.st31{fill:#FCF9DE;}
	.st32{fill:#FFFFFF;}
	.st33{fill:#9C453B;}
	.st34{fill:#722828;}
	.st35{fill:none;stroke:#7C461D;stroke-linecap:round;stroke-linejoin:round;stroke-miterlimit:10;}
	.st36{opacity:0.8;fill:url(#SVGID_00000147206003082620786700000011172565089903756730_);enable-background:new    ;}
</style>
<g>
	<defs>
		<rect id="SVGID_1_" y="0" width="338" height="442"/>
	</defs>
	<clipPath id="SVGID_00000079461906305198746670000003272803929887475381_">
		<use xlink:href="#SVGID_1_"  style="overflow:visible;"/>
	</clipPath>
	<g style="clip-path:url(#SVGID_00000079461906305198746670000003272803929887475381_);">
		
			<linearGradient id="SVGID_00000149380958332113026450000001381510068345978039_" gradientUnits="userSpaceOnUse" x1="138.9" y1="556.847" x2="138.9" y2="23.6029" gradientTransform="matrix(1 0 0 1 0 -338.0001)">
			<stop  offset="0" style="stop-color:#F8F4C7"/>
			<stop  offset="1" style="stop-color:#FCB422"/>
		</linearGradient>
		<path style="fill:url(#SVGID_00000149380958332113026450000001381510068345978039_);" d="M925.8-326.9H-648V721.9H925.8V-326.9z"
			/>
		
			<linearGradient id="SVGID_00000012469888686678496330000017058639262984916356_" gradientUnits="userSpaceOnUse" x1="436.65" y1="374.2097" x2="436.65" y2="28.326" gradientTransform="matrix(1 0 0 1 0 -338.0001)">
			<stop  offset="0" style="stop-color:#F8F4C7;stop-opacity:0.3"/>
			<stop  offset="1" style="stop-color:#F8F4C7;stop-opacity:0"/>
		</linearGradient>
		<path style="fill:url(#SVGID_00000012469888686678496330000017058639262984916356_);" d="M925.8-90.7c-3.1,2.1-4.8,4.6-3.8,7.3
			c-4.8-12-16.4-21-29.2-22.9s-26.4,3.6-34.4,13.6c2.5-16.4-10.1-33.6-26.2-36.3c-16.4-2.7-33.8,9.2-36.9,25.4
			c-0.4-15.1-23.1-23.5-33.4-12.4c-0.2-15.5-9.9-30.4-23.9-36.7c-14.1-6.3-31.7-3.6-43.2,6.5c3.8-21-13.4-41.3-33.8-47.6
			c-18.9-5.7-38,1.7-55.2,10.3c-2.3-22.9-23.3-39.6-44.7-48c-32.5-12.6-70.9-11.3-101.1,6.1s-51,51.6-49.5,86.4
			c-22.2-11.7-53.9,1.3-61.3,25.4c-2.9-20.6-23.3-37.1-44.1-35.9c-20.8,1.3-39,20.1-39.4,40.9c-5-8.6-19.1-8.4-25.8-1
			c-6.7,7.3-6.9,19.1-3.1,28.3c-6.3-5.9-18.7-0.2-18.5,8.4c-6.3-20.6-35.5-26.8-53.7-15.5c-18.3,11.3-26.4,34-27.5,55.6
			c-6.3-5.9-17.4-5.2-22.9,1.3s-4.2,17.6,2.5,22.9c-12.2-3.6-25-6.9-37.1-3.8C67.4-9.3,56.7,3.5,60.4,15.4c-11.3-6.3-27.9,5-26,17.8
			C19.9,18.4-9.2,24.5-16.8,43.8c-12-1.9-24.3-0.4-35.7,4.2c23.1,8.4,48.9,9.6,72.6,3.6c7.3,11.1,26,12,34.2,1.5
			c12.6,14.9,40.9,10.3,47.8-8c29.6,25,82.9,10.1,95.3-26.6c13.6,18.2,44.7,19.1,59.4,1.7c1.5,12.6,12.6,23.5,25.2,24.8
			s25.6-7.1,29.6-19.1c32.7,37.3,100.3,35,130.5-4.4c12,18,33.8,29.4,55.4,28.7c21.6-0.6,42.8-13,53.7-31.7
			c11.3,16.2,36.7,20.1,52.5,8.2c20.8,21.2,60.2,18.2,77.8-5.5c6.7,20.8,27.3,36.1,49.1,36.5s43-14.1,50.6-34.6
			c5.9,12.2,24.8,15.1,34.2,5.5c14.9,25.6,57.3,28.5,75.5,5c9,10.7,21.2,18.2,34.6,22V-90.7H925.8z"/>
		<path class="st3" d="M638.7-326.9L334.5,337.4H-59.4l365.5-664.3H638.7z"/>
		<path class="st4" d="M568-326.9L267.5,337.4H148.1l355.2-664.3H568z"/>
		<path class="st4" d="M422.4-326.9l-345,664.3H18.1l371.4-664.3H422.4z"/>
		<path class="st3" d="M128.4-326.9l-339.3,664.3h-102.8L77.2-326.9H128.4z"/>
		<path class="st5" d="M366.3,151.8c-38-15.3-133.6-20.3-228.3-17.7c-190.5,5.3-433,66.8-629.3,116.5h857.6V151.8z"/>
		<path class="st6" d="M79.6,181.7C152.7,175,188.2,166,188.2,166s-52.2,25.4-33.8,28.1c18.4,2.8,232.9-42,147.6-55.3v-0.1
			c-45.6-5-104.9-6.4-163.8-4.6c-78.8,2.2-166.7,14.1-256.3,30.7c-2.4,1.5-4.5,3-6.1,4.7C-136,182.7,6.3,188.3,79.6,181.7z"/>
		<path class="st7" d="M366.3,151.8c-10.3-4.2-24.9-7.6-42.6-10.3c84.9,29.7-17.6,118.8-244.2,102c-215-15.9-250.6-53.1-228.5-73
			c-43.4,8.5-86.9,18-130.1,28l-3.4,51.8h648.6v-98.5H366.3z"/>
		
			<linearGradient id="SVGID_00000052087729233010889390000014459232574352154261_" gradientUnits="userSpaceOnUse" x1="-62.5" y1="470.228" x2="-62.5" y2="584.9839" gradientTransform="matrix(1 0 0 1 0 -338.0001)">
			<stop  offset="0" style="stop-color:#FBB62B;stop-opacity:0"/>
			<stop  offset="1" style="stop-color:#E28C10;stop-opacity:0.5"/>
		</linearGradient>
		<path style="fill:url(#SVGID_00000052087729233010889390000014459232574352154261_);" d="M366.3,151.8
			c-38-15.3-133.6-20.3-228.3-17.7c-190.5,5.3-433,66.8-629.3,116.5h857.6V151.8z"/>
		<path class="st9" d="M366.3,169.1c-1.9-2-3.6-2.3-6.4-2.3c-0.8,0-1.8,0.1-2.6,0.4s-1.4,0.8-1.9,1.5c-1.6,1.8-2.7,4.1-3.1,6.5
			c-1.5-1.4-3.9-2-5.8-1.2c-1.9,0.9-3.1,3.1-3,5.3c-2.8-3.9-8.4-5.7-12.7-3.6c-4.3,2-6.6,7.8-4.2,12c-1.5-0.7-3.4-0.1-4.3,1.2
			c-0.9,1.4-0.8,3.2,0.4,4.5c-2.7,0.1-5.4,0.7-7.7,2c-2.3,1.4-4.1,3.8-4.2,6.4c0,2.7,2,5.4,4.6,5.5c-1.5,0.1-3,0.3-4.2,0.9
			c-1.2,0.7-2.3,2-2,3.5c0.3,1.8,2,2.7,3.6,3.5c-2.8,2.4-3,7.3-0.5,10.3c2.4,3,6.8,3.9,10.4,3c0,3,1.9,5.7,4.3,7.3s5.4,2.3,8.4,2.6
			c4.7,0.3,9.9-0.7,13.4-4.1h17.4C366.3,234.1,366.3,169.1,366.3,169.1z"/>
		<path class="st10" d="M366.3,189c-4.6-1.5-8.9-1.1-12.8,1.9s-5.3,9.1-2.3,12.8c-3.5-1.1-7.6,2.6-7,6.2c-0.9-5.5-8.1-4.9-11.6-2.4
			c-2.7,2-4.2,5.4-4.1,8.6c-3.5-0.9-7.4,2.3-7.2,5.8c-3.5-2.2-8.4-1.8-11.6,0.9c-3.1,2.7-4.3,7.4-3,11.2c-1.8-0.1-3.5-0.3-5.1,0.4
			s-3,2.2-2.8,3.9c-2.2-1.9-5.3-2.6-8-1.9c-2.7,0.7-5.1,2.8-6.1,5.5c-2.4-1.2-5.5-0.9-7.6,0.8c-2,1.8-3,4.7-2.2,7.3h91.4L366.3,189
			L366.3,189z"/>
		<path class="st11" d="M366.3,250.3H-647.6V525H366.3V250.3z"/>
		<path class="st12" d="M366.3,313c-282-42.4-577.9-49.2-1013.9-49.9v-12.8H366.3V313z"/>
		<path class="st13" d="M-647.6,525V345.3c0,0,350-42.6,622.4-20s391.5,74.2,391.5,74.2V525H-647.6z"/>
		<path class="st14" d="M1.3,250.3c42.4,10,147.4,51.6,173.2,73.9c14.1,12-6.1,14.1-61.9,37.6c-54.6,23-96.4,55.1-131.5,89.1
			c-35.1,33.9-99.6,74.2-245.5,74.2h336c0,0,13.9-17.7,33.4-53.1c20.8-38,27.3-54.9,93.3-84.3c65.8-29.5,89.8-35.5,76-49.5
			c-17.3-17.3-122.3-69.5-232.9-88L1.3,250.3L1.3,250.3L1.3,250.3z"/>
		<path class="st15" d="M182.1,290.3c-40.4-16.1-90-31.6-140.9-40.1H1.3c21.4,5,58.5,18,93.4,32.6
			C124.4,285,153.4,287.6,182.1,290.3z"/>
		<path class="st16" d="M198.2,387.6c21.4-9.5,38.1-16.6,50.8-22.3c-27.6-6.2-60.3-12.7-98.4-18.9c-10,3.9-22.7,8.8-38.3,15.3
			c-54.6,23-96.4,55.1-131.5,89.1S-118.8,525-264.7,525H71.6c0,0,13.9-17.7,33.4-53.1C125.8,434.1,132.3,417.1,198.2,387.6z"/>
		
			<linearGradient id="SVGID_00000164491667757434087740000007463551861673881505_" gradientUnits="userSpaceOnUse" x1="-119.7155" y1="598.7223" x2="-155.6615" y2="816.6663" gradientTransform="matrix(1 0 0 1 0 -338.0001)">
			<stop  offset="0" style="stop-color:#97880F;stop-opacity:0"/>
			<stop  offset="1" style="stop-color:#395E11;stop-opacity:0.4"/>
		</linearGradient>
		<path style="fill:url(#SVGID_00000164491667757434087740000007463551861673881505_);" d="M366.3,250.3H-647.6V525H366.3V250.3z"/>
		<path class="st9" d="M366.3,424.6c-6.1-7.7-25-5.4-29.7,0s-6.2,16.2-3.6,20.5c0,0-6.8-7.8-14.6-3.6c-7.8,4.2,0,12.7,0,12.7
			s-8.4,1.5-8.4,7.3c0,5.7,5.3,10.5,5.3,10.5s-6.8-2.2-9.5,2.6c-2.6,4.7,0,8.4,0,8.4s-0.3-14.2-19.7-15.5
			c-19.5-1.2-23.7,15.1-23.7,15.1s-5.8-9.3-16.8-6.1c-10.9,3.2-9.5,11.2-9.5,11.2s-6.8-5.3-12.6-1.1c-5.8,4.2-4.2,8.9-4.2,8.9
			s-13.5-11.9-28.7-3c-15.3,8.9-11.6,19.6-11.6,19.6s-10.9-12-23.3-4.2l-1.4,8.4c0,0-8.9-9.5-19.3-6.8c-10.4,2.6-12,6.8-12,6.8
			s-21.4-9.7-34.5,8.6h277.7V424.6H366.3z"/>
		<path class="st18" d="M8.4,525L1.3,419l18,3.8V525H8.4z"/>
		<path class="st19" d="M13.1,421.4H3.6l3.2,82L1.3,419L13.1,421.4z"/>
		<path class="st20" d="M19.3,422.7V525h-5.5l-0.7-103.6L19.3,422.7z"/>
		<path class="st20" d="M286,525c-173.7-65.7-519.8-148.5-670.3-159.7l-11.1,2.3l10,4.5c139.2,12.4,444.4,88.9,641.1,153L286,525
			L286,525z"/>
		<path class="st18" d="M269,525C95.3,459.4-244.8,378.8-395.3,367.6l1.5,5.4c139.2,12.4,430.6,79.5,641.3,152H269z"/>
		<path class="st19" d="M269,525C95.3,459.4-244.8,378.8-395.3,367.6l0.5,1.8c149.4,11.4,484,90.4,658.8,155.7L269,525L269,525z"/>
		<path class="st20" d="M133,525c-155.6-56.2-333.8-111.6-517.4-138.4l-11.1,2.3l10,4.5C-267.8,403.8-81,467.1,92.7,525H133z"/>
		<path class="st18" d="M116.2,525c-152-55.3-319.6-108.4-511.8-136.1l1.5,5.4c183.2,27.4,317,73,482.9,130.7H116.2z"/>
		<path class="st19" d="M116.2,525c-152-55.3-319.6-108.4-511.8-136.1l0.4,1.4c190.5,27.6,357,79.9,507.9,134.7H116.2z"/>
		<path class="st21" d="M292.5,297.5c0,0,0-3.1,3-4.2s6.2,0.5,6.2,0.5s-1.5,2.2-3.8,3.1C295.5,297.6,292.5,297.5,292.5,297.5z"/>
		<path class="st21" d="M290.4,297.5c0,0-0.8-6.4,3.1-7.4c3.9-1.1,6.5-0.8,6.5-0.8s-0.7,4.7-3.9,6.2
			C292.8,297.1,290.4,297.5,290.4,297.5z"/>
		<path class="st22" d="M285.5,283.8c-1.9,3-2.3,6.8,0,9.9c1.8,2.4,5,3.8,5,3.8s1.5-3,0.3-6.8S285.5,283.8,285.5,283.8z"/>
		<path class="st22" d="M292.5,297.5c0,0-0.9-4.5,0.5-6.8c1.5-2.3,3.8-3.1,3.8-3.1s0.5,3.2,0,5C295.9,295.4,292.5,297.5,292.5,297.5
			z"/>
		<path class="st22" d="M287.5,297.2c-0.7-1.4-3.9-3.8-5.4-3.4s-0.7,1.6,0.9,2.6C284.1,296.9,287.5,297.2,287.5,297.2z"/>
		<path class="st21" d="M292.7,409.4c0,0-1.4-3.2,1.5-5.4c2.7-2.2,5.3-1.6,5.3-1.6s-3.4,1.2-3.9,2.6
			C295.1,406.5,292.7,409.4,292.7,409.4z"/>
		<path class="st21" d="M294.6,409.6c0,0,0.5-3.5,3-5c2.4-1.5,6.5-0.7,6.5-0.7s-1.5,3.4-3.8,4.3
			C297.5,409.2,294.6,409.6,294.6,409.6z"/>
		<path class="st21" d="M296.9,409.6c0,0,2.3-2.2,4.3-2c2,0.1,3.4,1.4,3.4,1.4s-1.4,1.2-3.1,1.2
			C299.6,410.3,296.9,409.6,296.9,409.6z"/>
		<path class="st22" d="M294.6,409.6c0,0-2.3-2-1.6-5.7c0.8-3.6,4.2-5.7,4.2-5.7s1.6,3.9,1.1,6.8
			C297.8,407.9,294.6,409.6,294.6,409.6z"/>
		<path class="st22" d="M292.8,409.6c0,0-4.1-1.9-4.1-3.8s1.4-5.5,1.4-5.5s1.2,1.5,1.4,3.6C291.7,406,292.8,409.6,292.8,409.6z"/>
		<path class="st22" d="M296.9,409.6c0,0,1.9-3.9,5.1-3.4C302,406.4,302.8,409.8,296.9,409.6z"/>
		<path class="st23" d="M196.3,201.9c0,0-5.4,7.3-7.7,22.4c-2.3,15.1,7.7,16.8,7.7,16.8s8.8-2.6,7.2-16.8
			C201.7,210.3,196.3,201.9,196.3,201.9z"/>
		<path class="st24" d="M195.9,223.6l-1.1,26.8h2.6L195.9,223.6z"/>
		<path class="st25" d="M212.6,182.1c0,0-7.7,10.4-10.9,31.8c-3.2,21.5,10.9,23.8,10.9,23.8s12.4-3.6,10.1-23.6
			C220.3,193.8,212.6,182.1,212.6,182.1z"/>
		<path class="st24" d="M212.1,212.6l-1.5,37.7h3.5L212.1,212.6z"/>
		<path class="st26" d="M163.4,303.8c-3.1,1.6-5.4,4.7-4.9,8.5c0.4,3,2.4,5.7,2.4,5.7s2.8-1.9,3.7-5.8
			C165.5,308.6,163.4,303.8,163.4,303.8z"/>
		<path class="st26" d="M162.8,319.2c0,0,1.4-4.3,3.8-5.7c2.4-1.4,4.7-0.8,4.7-0.8s-1.2,3.1-2.4,4.3
			C166.7,319.1,162.8,319.2,162.8,319.2z"/>
		<path class="st26" d="M158.6,316.5c0.1-1.5-1.5-5.3-3-5.7c-1.5-0.4-1.5,1.1-0.4,2.7C155.7,314.6,158.6,316.5,158.6,316.5z"/>
		<path class="st26" d="M130.6,431.5c2.3-1.2,4.3-5.1,3.1-9.2c-1.2-3.9-3.1-6.4-3.1-6.4s-3.7,4.6-3.8,7.7
			C126.7,426.8,130.6,431.5,130.6,431.5z"/>
		<path class="st26" d="M133.4,430.4c0,0,0-4.9,4.5-6.8c0,0,0.5,3.2-1.4,5C134.6,430.6,133.4,430.4,133.4,430.4z"/>
		<path class="st27" d="M64.5,250.2l0.1,0.1h112.7c-1.5-2.6-5.3-3.6-7.8-2.2c-1.8-2.6-5.7-3.1-8.1-1.2c-0.5-1.4-1.9-2.4-3.4-2.6
			c-1.5,0-3,0.9-3.5,2.3c-0.7-1.1-1.6-2.2-3-2.4c-1.2-0.3-2.8,0.4-3.1,1.8c-0.5-1.5-1.9-2.7-3.5-3s-3.2,0.5-4.2,1.8
			c0.3-1.4-0.4-3-1.8-3.5c-1.4-0.5-3-0.1-3.8,0.9c0.3-2.7-0.4-4.9-2.8-5.9c-1.8-0.8-4.5-0.9-6.2,0c-2.4,1.2-3.2,2.7-4.1,5.8
			c-1.4-2.6-5.5-2-7.2,0.4c0.8-2.8-1.5-6.1-4.3-6.2c-3-0.1-5.4,3.1-4.7,5.9c-0.3-1.8-2.6-2.8-3.9-1.9c0.7-1.6,1.2-3.5,0.8-5.4
			c-0.4-1.8-1.8-3.4-3.5-3.8c-1.5-0.3-3.2,0.7-3.8,2c0.1-1.8-1.6-3.5-3.4-3.1c2.6-2,2.6-6.5,0-8.5c-2.4-2-6.8-1.4-8.4,1.5
			c0.3-1.4-0.4-2.8-1.6-3.6s-2.8-0.7-3.9,0c0.1-2.7-1.4-5.5-3.7-7c-2.3-1.5-5.4-1.8-7.8-0.5c-1.2,0.5-2.2,0.9-2.8,2
			c-0.7,1.1-0.9,2.4-1.1,3.8c-1.4,8.1-1.4,16.4-0.1,24.5C62.6,244.4,62.8,248.8,64.5,250.2z"/>
		<path class="st28" d="M79.6,206.5H63.5v-9.7L19,142.3l4.7-3.2l41.4,26.8l8,30.9L79.6,206.5z"/>
		<path class="st29" d="M79.6,206.5l-8.1-8.8h-8v8.8H79.6z"/>
		<path class="st30" d="M-25.6,196.8l7.6-30.9l37.9-26.2l41.6,29.1l6.9,28.1v53.5h-94C-25.6,250.4-25.6,196.8-25.6,196.8z"/>
		<path class="st31" d="M-91.4,165.9l38.9-26.8h76.2l-39.1,26.8H-91.4z"/>
		<path class="st32" d="M28.4,139.1l-40.2,27.7l-7.6,30.9l-8.2,8.8h-4.7l9.5-9.7l7.6-30.9l39.1-26.8H28.4z"/>
		<path class="st32" d="M23.8,139.1L64,166.8l7.6,30.9l8.1,8.8h4.7l-9.5-9.7l-7.6-30.9l-38.9-26.8H23.8z"/>
		<path class="st29" d="M61.5,168.7l2.4-1.9l-37.7-26.2l-2.6,1.6L61.5,168.7z"/>
		<path class="st33" d="M40.4,209.6H4.3v40.7h36.1C40.4,250.3,40.4,209.6,40.4,209.6z"/>
		<path class="st34" d="M5.5,210.7H3.2v39.5h2.3V210.7z"/>
		<path class="st34" d="M39.2,210.7h-2.3v39.5h2.3V210.7z"/>
		<path class="st34" d="M22.4,210.7h-2.3v39.5h2.3V210.7z"/>
		<path class="st34" d="M3.3,210.7v2.3h36.1v-2.3H3.3z"/>
		<path class="st34" d="M3.1,229.9v2.3h36.1v-2.3H3.1z"/>
		<path class="st34" d="M36.9,210.7l-16.8,20.4h2.3l16.8-20.4H36.9z"/>
		<path class="st34" d="M5.5,210.7l16.9,20.4h-2.3L3.2,210.7H5.5z"/>
		<path class="st34" d="M35.9,250.3l-15.8-19.2h2.3l15.8,19.2H35.9z"/>
		<path class="st34" d="M6.5,250.3l16-19.2h-2.3l-16,19.2H6.5z"/>
		<path class="st31" d="M6.6,209.6H4.3v40.7h2.3C6.6,250.3,6.6,209.6,6.6,209.6z"/>
		<path class="st31" d="M40.4,209.6h-2.3v40.7h2.3V209.6z"/>
		<path class="st31" d="M23.5,209.6h-2.3v40.7h2.3V209.6z"/>
		<path class="st31" d="M4.4,209.6v2.3h36.1v-2.3H4.4z"/>
		<path class="st31" d="M4.4,228.8v2.3h36.1v-2.3H4.4z"/>
		<path class="st31" d="M38.1,209.6l-16.9,20.3h2.3l16.9-20.3H38.1z"/>
		<path class="st31" d="M6.7,209.6l16.8,20.3h-2.3L4.3,209.6H6.7z"/>
		<path class="st31" d="M38.1,250.3l-16.9-20.4h2.3l16.9,20.4H38.1z"/>
		<path class="st31" d="M6.7,250.3l16.8-20.4h-2.3L4.3,250.3H6.7z"/>
		<path class="st33" d="M33.2,170.6H11.6v23.6h21.6V170.6z"/>
		<path class="st34" d="M10.6,193.1v2.2h21.6v-2.2H10.6z"/>
		<path class="st34" d="M10.6,171.6v2.2h21.6v-2.2H10.6z"/>
		<path class="st34" d="M10.6,195.1h2.2v-23.6h-2.2V195.1z"/>
		<path class="st34" d="M30.1,195.1h2.2v-23.6h-2.2C30.1,171.5,30.1,195.1,30.1,195.1z"/>
		<path class="st34" d="M12.8,171.5L30,193v2.2l-17.2-21.5C12.8,173.7,12.8,171.5,12.8,171.5z"/>
		<path class="st34" d="M30,171.5L12.8,193v2.2L30,173.7V171.5z"/>
		<path class="st31" d="M11.6,192.1v2.2h21.6v-2.2H11.6z"/>
		<path class="st31" d="M11.6,170.6v2.2h21.6v-2.2H11.6z"/>
		<path class="st31" d="M11.6,194.3h2.2v-23.6h-2.2V194.3z"/>
		<path class="st31" d="M31.1,194.3h2.2v-23.6h-2.2C31.1,170.7,31.1,194.3,31.1,194.3z"/>
		<path class="st31" d="M13.8,170.6L31,192.1v2.2l-17.2-21.5C13.8,172.8,13.8,170.6,13.8,170.6z"/>
		<path class="st31" d="M30.9,170.6l-17.2,21.5v2.2l17.2-21.5V170.6z"/>
		<path class="st35" d="M239.3,277.9l13.5-171.1h11.8l13.5,171.1"/>
		<path class="st35" d="M264.6,106.9L250.9,130l17.6,27.7h-19.7l17.6-27.7l-13.5-23.1"/>
		<path class="st35" d="M268.5,157.7L245.8,195"/>
		<path class="st35" d="M271.5,195l-29.1,44H275l-29.2-44H271.5z M271.5,195l-22.7-37.3"/>
		<path class="st35" d="M242.4,239l35.3,34.3"/>
		<path class="st35" d="M275,239l-35.3,34.3"/>
		<path class="st19" d="M270.8,128.1h-24.3c-0.8,0-1.4,0.7-1.4,1.4v0.3c0,0.8,0.7,1.4,1.4,1.4h24.3c0.8,0,1.4-0.7,1.4-1.4v-0.3
			C272.3,128.7,271.6,128.1,270.8,128.1z"/>
		<path class="st35" d="M258.7,106.9V278"/>
		<path class="st19" d="M256.1,80.8c0-1.5,1.2-2.6,2.6-2.6c1.5,0,2.6,1.2,2.6,2.6c0,1.5-1.2,2.6-2.6,2.6
			C257.3,83.3,256.1,82.1,256.1,80.8z"/>
		<path class="st19" d="M258.7,74.4c0,0-4.2-8-2.6-11.8c1.6-3.8,4.6-6.6,5.1-4.7C261.8,59.8,258.7,74.4,258.7,74.4z"/>
		<path class="st19" d="M255,75.6c0,0-8.1-4.1-9.1-8.1c-0.9-4.1-0.1-8.1,1.4-6.9C248.9,62,255,75.6,255,75.6z"/>
		<path class="st19" d="M252.6,78.7c0,0-8.9,1.5-12-1.2s-4.9-6.5-2.8-6.4C239.7,71.3,252.6,78.7,252.6,78.7z"/>
		<path class="st19" d="M252.6,82.7c0,0-6.4,6.5-10.4,6.1c-4.1-0.4-7.7-2.3-6.1-3.5C237.8,84.3,252.6,82.7,252.6,82.7z"/>
		<path class="st19" d="M255,85.9c0,0-1.4,8.9-4.9,11.1s-7.7,2.7-6.9,0.8C243.9,95.8,255,85.9,255,85.9z"/>
		<path class="st19" d="M258.7,87.1c0,0,4.2,8,2.6,11.8s-4.6,6.6-5.1,4.7C255.5,101.7,258.7,87.1,258.7,87.1z"/>
		<path class="st19" d="M262.4,85.9c0,0,8.1,4.1,9.1,8.1c0.9,4.1,0.1,8.1-1.4,6.9C268.5,99.4,262.4,85.9,262.4,85.9z"/>
		<path class="st19" d="M264.7,82.7c0,0,8.9-1.5,12,1.2s4.9,6.5,2.8,6.4C277.6,90.1,264.7,82.7,264.7,82.7z"/>
		<path class="st19" d="M264.7,78.7c0,0,6.4-6.5,10.4-6.1c4.1,0.4,7.7,2.3,6.1,3.5C279.5,77.3,264.7,78.7,264.7,78.7z"/>
		<path class="st19" d="M262.4,75.6c0,0,1.4-8.9,4.9-11.1c3.5-2.2,7.7-2.7,6.9-0.8C273.5,65.6,262.4,75.6,262.4,75.6z"/>
		
			<linearGradient id="SVGID_00000126321389054866558250000008691458561636348580_" gradientUnits="userSpaceOnUse" x1="8.0476" y1="559.0001" x2="333.667" y2="559.0001" gradientTransform="matrix(1 0 0 1 0 -338.0001)">
			<stop  offset="0" style="stop-color:#000000;stop-opacity:0.34"/>
			<stop  offset="1" style="stop-color:#C4C4C4;stop-opacity:0"/>
			<stop  offset="1" style="stop-color:#000000;stop-opacity:0"/>
		</linearGradient>
		
			<rect y="0" style="opacity:0.8;fill:url(#SVGID_00000126321389054866558250000008691458561636348580_);enable-background:new    ;" width="338" height="442"/>
	</g>
</g>
</svg>
