<?xml version="1.0" encoding="utf-8"?>
<!-- Generator: Adobe Illustrator 26.0.2, SVG Export Plug-In . SVG Version: 6.00 Build 0)  -->
<svg version="1.1" id="Capa_1" xmlns="http://www.w3.org/2000/svg" xmlns:xlink="http://www.w3.org/1999/xlink" x="0px" y="0px" viewBox="0 0 338 442" style="enable-background:new 0 0 338 442;" xml:space="preserve">
    <style type="text/css">
	.st0{clip-path:url(#SVGID_00000052099802932257286170000010749056618359993512_);}
	.st1{fill:#49B4E5;}
	.st2{opacity:0.5;fill:#ACEBFF;enable-background:new    ;}
	.st3{fill:#FFFFFF;}
	.st4{opacity:0.8;fill:url(#SVGID_00000086693409636253246180000006801663109485652097_);enable-background:new    ;}
	.st5{opacity:0.5;}
	.st6{fill:#FF2E35;}
	.st7{opacity:0.25;}
	.st8{opacity:0.22;}
	.st9{opacity:0.22;enable-background:new    ;}
	.st10{opacity:0.5;enable-background:new    ;}
	.st11{fill:#AC752C;}
	.st12{fill:#7D551F;}
	.st13{fill:#FFD54F;}
	.st14{fill:#FFB300;}
	.st15{fill:#5BAFC7;}
	.st16{fill:#A16552;}
	.st17{fill:#F5DCB4;}
	.st18{fill:#4E3F3F;}
	.st19{fill:#E6646E;}
	.st20{fill:#5D5360;}
	.st21{opacity:0.46;}
	.st22{opacity:0.46;fill:#4E3F3F;enable-background:new    ;}
	.st23{opacity:0.2;fill:#FFF9F8;enable-background:new    ;}
</style>
    <g>
        <defs>
            <rect id="SVGID_1_" y="0" width="338" height="442" />
        </defs>
        <clipPath id="SVGID_00000176031060297564959020000010912054763155943344_">
            <use xlink:href="#SVGID_1_" style="overflow:visible;" />
        </clipPath>
        <g style="clip-path:url(#SVGID_00000176031060297564959020000010912054763155943344_);">
            <path class="st1" d="M1382-326H-25v1407h1407V-326z" />
            <path class="st2" d="M1208.8,16.8c-46.9,0.3-94,0.1-140.7-4.2c-23.2-2.1-46.6-4.7-69.3-10.1c-40.2-9.7-80-22-119.1-35.4
			C834.2-48.5,788-65.4,746.2-89.5c-17-9.8-58.4-33.1-46.7-59c7.1-15.6,26.6-22.7,42.2-24.9c31.9-4.4,65.5,2.3,96.8,7.7
			c37.5,6.6,75.1,11.9,112.7,17.8c25.8,4,51.7,7.8,77.6,10.6c25.1,2.6,50.3,3.9,75.4,6.5c92.2,9.7,184.9,26.2,277.7,19.7v-38
			c-69.1,4-137.9,5.8-207.1,2.4c-108.6-5.5-213.9-34-320.9-50.9c-54.7-8.6-110.1-14.3-165.6-12c-54.9,2.3-109.2,10.9-163,22.2
			c-105.2,22.1-209.3,53.7-317,60.8c-78,5.2-155.8-0.5-233.4-8.2v34.6C8.9-86.1,47.2-84.2,83.5-85.7c42.1-1.8,83.9-8.2,125.6-13.8
			c43.6-5.9,87.4-10.4,131-16.9c48.5-7.2,97.5-14.4,146.7-13.2c96,2.2,185,44.9,270.2,85.5c85.9,40.9,173.3,83.5,268.9,95.5
			c108.3,13.6,217.5,6.5,326.3,5.6c10-0.1,20,0,29.9,0.2V17.7C1324.4,14.8,1266.4,16.4,1208.8,16.8z" />
            <path class="st2" d="M211.1,139.8c22.6-9.1,50-19.9,66.1-39c5.8-6.9,9.9-16.2,5.2-24.9c-5.6-10.3-16.8-17.7-27.7-21.5
			c-29.5-10.2-63.2-7.4-93.8-4.7c-29.5,2.5-59.4,8-89.1,7.6c-31.9-0.5-64.6-3.3-96-8.7c-0.3-0.1-0.6-0.1-1-0.2v141.4
			c15.6-0.8,31.1-2.1,46.5-3.8C86,178.6,150.8,164.1,211.1,139.8z" />
            <path class="st2" d="M962.9,212.1c18.3-13.5,43.5-16.4,65.5-18.4c29.5-2.6,59.1-2.3,88.7-4c89.4-5.1,176.6-26.9,265-39.9v-27.8
			c-47.1,3.8-94,9.5-140.6,16.8c-45.3,7.1-90.2,17-135.8,21.8c-117,12.5-234.1-0.9-351-7c-58-3-117-5.4-174.8,0.9
			c-53.5,5.8-105.9,18.7-156.9,35.5c-49.3,16.2-97.6,35.5-146.2,53.8c-47.8,17.9-96,35.9-146.3,45.4C79.3,298.8,27.2,303-25,302.9
			v47.6c1.7,0.1,3.4,0.2,5.2,0.3c27.4,1.7,54.7,4.3,82.1,5.6c18.4,0.9,36.4,1.2,54.4-3.3c23-5.7,45.6-12.8,68.5-19
			c26-7.1,52.8-14.4,79.8-16.5c13.6-1.1,31-2.1,37.3,12.5c10.2,23.7-13.3,48.5-29.1,63c-32.1,29.6-70.8,52.3-108.9,73.2
			c-47,25.7-95.5,48.6-144.6,69.9C4.7,542.7-10.1,548.9-25,555v61.6c72.2-7.5,138.4-44.5,195.8-87.2
			c64.9-48.2,122.3-105.7,178.5-163.7c24.5-25.2,48.7-50.8,73.7-75.4c30.3-29.8,64.3-54.3,103.6-71.1c39-16.6,80.5-26.4,122.6-30.4
			c41.6-3.9,86.8-5.7,127.5,5.1c74.8,19.7,128.9,77.4,181.2,130.8c26.5,27,53.1,54.3,84.3,75.9c29.8,20.6,62.1,37.5,95.4,51.6
			c74.4,31.4,154.3,50.9,234.6,58.8c3.2,0.3,6.5,0.6,9.7,0.9v-53.3c-10.1-0.8-20.2-1.5-30.4-1.9c-35.4-1.6-71-2.8-106.2-7.9
			c-81.7-11.9-162.9-47.6-226.2-100.9c-26.8-22.6-54.2-50.5-66.7-83.9C945.5,245.3,945.6,224.8,962.9,212.1z" />
            <path class="st2" d="M1054.4,601.1c-40.8-13.8-77.5-33.2-114.5-55.1c-38.5-22.8-78.1-43.9-119.6-60.8
			c-81-33-168.9-49.6-256.4-43.1c-140,10.5-255.4,97.4-368,172.8c-55.4,37.1-112.3,73.5-174.6,98.1c-15.2,6-30.7,11.2-46.3,15.5
			v60.3c20.5-8.1,40.9-16.9,61.3-24.6c45-17,88.7-37.7,128.9-64.1c76.1-49.8,138.2-126.8,228-153.8c45.7-13.7,93.3-10.8,139.4-0.8
			c49.6,10.8,97.6,28.5,144.2,48.7c46,19.9,86.8,49.1,129.2,75.5c44.3,27.5,90.6,50.6,142,61.1c108.1,22,220.4,6.7,327.9-11.1
			c35.4-5.8,70.7-12.3,106-18.2v-90.1C1275,639.3,1158.7,636.2,1054.4,601.1z M1045.1,683.3c-4,6.1-11.3,9-18.2,10.5
			c-14,3.1-28.9,2.8-43.2,1.7c-40.2-3-78.7-17-114.8-34.3c-39.5-18.9-76.7-41.8-113.8-65c-15.9-10-31.7-21.3-48.6-29.6
			c-13.1-6.5-26.4-12.9-39-20.4c-17-10.2-48.9-29.5-39.7-53.9c9.9-26.2,47.4-23.7,69.4-19.9c5.3,0.9,10.6,2.1,15.9,3.3
			c9.5,0.4,18.9,2,28.2,4.3c34.8,8.5,67.7,24.1,99.4,40.3c27.8,14.2,55.4,28.8,83.1,43.2c18.9,9.9,36.8,21.9,54,34.4
			c19.3,14,38.8,29.1,54.3,47.3C1039.6,654.2,1053.3,671,1045.1,683.3z" />
            <path class="st3" d="M71.5,435.1c-13.5,3.6-13.3,12.1-7.9,18.4c0.6,0.9,1.2,1.6,1.8,2.3c2.6,2.7,10.2,6.9,18,5.7
			c8.7-1.5,13.3-5,15.3-8.8C102.2,446.1,93.2,429.3,71.5,435.1z" />

            <linearGradient id="SVGID_00000016792827316297063750000005652091745564363136_" gradientUnits="userSpaceOnUse" x1="8.0476" y1="220.5276" x2="333.667" y2="220.5276" gradientTransform="matrix(1 0 0 -1 0 441.5275)">
                <stop offset="0" style="stop-color:#000000;stop-opacity:0.34" />
                <stop offset="1" style="stop-color:#C4C4C4;stop-opacity:0" />
                <stop offset="1" style="stop-color:#000000;stop-opacity:0" />
            </linearGradient>

            <rect y="0" style="opacity:0.8;fill:url(#SVGID_00000016792827316297063750000005652091745564363136_);enable-background:new    ;" width="338" height="442" />
            <g class="st5">
                <path class="st1" d="M345.4,46.7c0.3,0.9,0.9,1.6,1.2,2.5c0.2,0.6,0.4,1.5,0.6,2.2c0.1,0.3,0.3,0.8,0.3,1.2
				c-0.3-1.1-2-2.6-2.7-3.5c-1-1.2-2.1-2.4-3.3-3.5c-3.2-3.1-6.7-5.8-10.4-8.2c-5.9-4-12.9-6-20-5.9c-7,0.3-13.8,2.1-19.9,5.4
				c-9,4.8-16.6,13.9-19.9,23.6c-1.1,3.2-1,6.6-1.3,9.9c-0.8,8.1,0.9,16.2,4.7,23.3c2.1,3.7,4.7,7.1,7.7,10.1
				c-2.9-1-5.2-3.6-7.5-5.5c-0.4-0.3-1.3-1.2-1.9-0.9c-0.4,0.3,0.1,1.2,0.2,1.5c0.7,1.2,1.5,2.3,2.4,3.3c1.2,1.4,2.4,2.6,3.8,3.8
				c2.6,2.4,5.3,4.6,8.2,6.6c2.9,2,6,3.8,9.3,5.3c1.4,0.6,2.8,1.2,4.3,1.7c1.4,0.5,2.8,0.7,4.3,1.2c0.5,0.1,1.5,0.4,1.9-0.1
				c0.3-0.4,0-0.9-0.3-1.1c-1.2-0.9-2.4-1.8-3.8-2.5c-1.3-0.7-2.5-1.5-3.7-2.4c6,2,12.3,3.5,18.7,2.5c6.5-1,13-4.4,18.2-8.4
				c6.3-4.8,9.8-11.9,13.4-18.7c3.1-5.8,3.9-11.9,3.3-18.3c0.8,2,1.5,4.1,1.9,6.2c0.2,0.8,0.6,3.6,1.7,3.6c1.8,0.1,0.7-7.9,0.6-8.7
				c-0.8-5.1-2.2-10.2-4.1-15c-1.7-4.4-3.9-8.6-7.6-11.6C345.4,46.1,345.3,46.6,345.4,46.7z M328.3,66.9c0,0,0,0.1,0.1,0.1
				c1.4,2.1,2.2,4.5,2.4,7c0.1,2.4-0.3,4.8-1.2,7c-2,4.7-5.6,8.5-10.1,10.9c-2.7,1.5-5.8,2.2-8.8,2.2c-1.9,0.1-3.9-0.1-5.8-0.7
				c-3.2-1-6.2-2.6-8.7-4.8c-2.1-1.8-3.7-4.1-4.7-6.6c-1-2.5-1.5-5.3-1.2-8c0-0.9,0.1-1.8,0.2-2.7c1.6-9.6,10.7-18.5,20.8-17.8
				C318.8,54.2,325.4,59.9,328.3,66.9z" />
            </g>
            <path class="st3" d="M349.8,62l0,0.1c0.7,2.6,1.1,5.3,1.3,8c0,0.7,0.1,1.3,0.1,2c0,0.7,0,1.4,0,2.1c0,0.7-0.1,1.4-0.1,2.1
			c-0.1,1.3-0.3,2.5-0.5,3.8c-1.1,6-3.6,11.7-7.3,16.7c-3.1,4.2-6.9,7.7-11.3,10.5c-0.8,0.5-1.6,1-2.5,1.4
			c-5.4,2.9-11.4,4.5-17.6,4.7c-6.1,0.3-12.2-0.9-17.9-3.3c-5.6-2.4-10.6-6.1-14.6-10.7c-4-4.6-6.9-10.1-8.5-16l0-0.1
			c-1.6-5.9-1.8-12.1-0.7-18.2c1.1-6,3.6-11.7,7.3-16.7c1.2-1.6,2.5-3.1,3.9-4.5c2.9-2.9,6.2-5.4,9.9-7.3c0.6-0.3,1.2-0.6,1.7-0.9
			c5-2.3,10.3-3.6,15.8-3.8c4.1-0.2,8.1,0.3,12,1.3c2,0.5,4,1.2,5.9,2c5.6,2.4,10.6,6.1,14.6,10.8C345.2,50.6,348.2,56.1,349.8,62z" />
            <path class="st6" d="M311.9,113.5c6.1-0.2,12.1-1.9,17.6-4.7c3.6-1.9,6.9-4.4,9.8-7.3l-17.1-17c-1.2,1.2-2.5,2.2-4,3
			c-2.2,1.2-4.7,1.8-7.2,1.9c-1.6,0.1-3.3-0.1-4.9-0.5l-6.2,23.3C303.8,113.2,307.9,113.7,311.9,113.5z M294.2,77.1l0-0.1
			c-0.7-2.4-0.8-4.9-0.3-7.4c0.6-3.3,2.2-6.3,4.6-8.7l-17.1-17c-5.8,5.8-9.7,13.2-11.2,21.2c-1.1,6-0.9,12.2,0.7,18.2l0,0.1
			L294.2,77.1z M317,57.3c2.3,1,4.4,2.5,6,4.4c1.6,1.9,2.8,4.1,3.5,6.5l23.3-6.3c-1.6-5.9-4.5-11.4-8.5-16c-4-4.6-9-8.3-14.6-10.8
			c-1.9-0.8-3.8-1.5-5.8-2l-6.2,23.3C315.4,56.7,316.2,57,317,57.3z" />
            <path class="st1" d="M329.6,67.5c1.4,5.1,0.7,10.6-2,15.2c-2.6,4.6-7,7.9-12.1,9.3l-0.6,0.1c-5.1,1.2-10.4,0.4-14.8-2.3
			c-4.4-2.7-7.7-7-9-12c-1.3-5-0.7-10.3,1.8-14.9s6.7-7.9,11.7-9.4l0.6-0.1c5.1-1.4,10.6-0.7,15.1,2C324.9,58,328.2,62.4,329.6,67.5
			z" />
            <g class="st7">
                <path class="st3" d="M349.8,62l0,0.1c0.7,2.6,1.1,5.3,1.3,8c0,0.7,0.1,1.3,0.1,2c0,0.7,0,1.4,0,2.1c0,0.7-0.1,1.4-0.1,2.1
				c-0.1,1.3-0.3,2.5-0.5,3.8c-1.1,6-3.6,11.7-7.3,16.7c-3.1,4.2-6.9,7.7-11.3,10.5c-5.4,2.5-11.3,3.9-17.2,3.9
				c-6,0-11.9-1.3-17.3-3.8c-5.4-2.5-10.2-6.2-14.1-10.7c-3.8-4.6-6.7-9.9-8.2-15.7l0-0.1c-1.9-6.9-1.9-14.2,0-21.1
				c1.8-6.9,5.5-13.2,10.5-18.3c2.2-2.2,4.7-4.2,7.4-5.9c5-2.3,10.3-3.6,15.8-3.8c4.1-0.2,8.1,0.3,12,1.3c2,0.5,3.9,1.2,5.8,2
				c5.6,2.4,10.6,6.1,14.6,10.8C345.2,50.6,348.2,56.1,349.8,62z" />
            </g>
            <g class="st8">
                <path class="st9" d="M269.8,78.2c0.2,1.7,0.6,3.4,1,5l0,0.1l-0.7,0.4l-0.2,0.1l-0.5,0.3l-0.2,0.1c-0.2,0.2-0.4,0.4-0.7,0.5
				c-0.1,0.1-0.2,0.2-0.3,0.3l-0.1,0l-0.1,0l-0.1,0c-0.3,0.2-0.7,0.3-1,0.2l-0.7,1c-0.1,0.1-0.2,0.2-0.3,0.2c-0.1,0-0.3,0-0.4-0.1
				l-0.2-0.1l-0.1-0.1c-0.1-0.1-0.2-0.2-0.2-0.3c0-0.1,0-0.1,0-0.2c0-0.1,0-0.1,0.1-0.2l0.7-1c-0.2-0.3-0.2-0.6-0.2-1
				c0.1-0.7,0.4-1.3,0.7-1.8c0.7-1.1,1.6-2.1,2.5-3C269.3,78.7,269.6,78.4,269.8,78.2z" />
            </g>
            <g class="st5">
                <path class="st10" d="M271.2,78.3L271.2,78.3l0.4-0.1l0.1,0l0.2-0.1c0.3-0.1,0.5-0.2,0.8-0.3l0,0c0.1,0,0.2-0.1,0.3-0.1l0.5-0.1
				l0.3-0.1l0.1,0l0.2,0l0.3-0.1l0.3-0.1l0.5,0l0.1,0l0.4,0l0.2,0l0.5,0l0.2,0l0,0l0.3,0l0.3,0c0.2,0,0.4,0,0.7,0.1l0.2,0l0.7,0.1
				l0.1,0l0,0l0.2,0l0.3,0.1l0.1,0c0.3,0.1,0.5,0.1,0.8,0.2c0.2,0.1,0.5,0.2,0.8,0.2l0,0l0.5,0.2l0.2,0.1l0.2,0.1
				c0.2,0.1,0.4,0.2,0.6,0.3l0.2,0.1l0.4,0.2l0.2,0.1c0,0,0.1,0,0.1,0.1l0.1,0.1l0.1,0.1c0.2,0.1,0.3,0.2,0.5,0.3
				c0.1,0.1,0.3,0.2,0.4,0.3c0.9,0.8,2,1.4,3,2c0.3,0.2,0.7,0.3,1,0.3c0.1,0,0.2,0,0.3-0.1c0,0,0.1,0,0.1-0.1c0,0,0.1-0.1,0.1-0.1
				c0.1-0.1,0.1-0.2,0.2-0.3c0.1-0.2,0.2-0.4,0.2-0.6c0-0.1,0-0.2,0-0.3c0-0.6-0.1-1.2-0.3-1.7c-0.9-1.7-2.1-3.3-3.5-4.5
				c-1.5-1.2-3.2-2.1-5.1-2.7c-1.9-0.5-3.8-0.6-5.7-0.4c-1.9,0.3-3.7,1-5.4,2c0,1.8,0.2,3.7,0.5,5.5c0.2-0.1,0.4-0.2,0.6-0.3
				C270.8,78.4,271,78.4,271.2,78.3z" />
            </g>
            <path class="st11" d="M265.4,78.2l1.1,0.8l-1.6,2.2c-0.1,0.1-0.2,0.2-0.3,0.2c-0.1,0-0.3,0-0.4-0.1l-0.3-0.2
			c-0.1-0.1-0.2-0.2-0.2-0.3c0-0.1,0-0.3,0.1-0.4L265.4,78.2z" />
            <path class="st12" d="M265.4,78.2l0.6,0.4l-1.8,2.6l-0.1-0.1c-0.1-0.1-0.2-0.2-0.2-0.3c0-0.1,0-0.3,0.1-0.4L265.4,78.2z" />
            <path class="st13" d="M265,76.6c0.7-1.1,1.5-2.1,2.5-3c1.6-1.4,3.5-2.4,5.6-3c2.1-0.5,4.2-0.6,6.3-0.2c2.1,0.4,4,1.3,5.7,2.7
			c1.7,1.3,3,3,3.9,4.9c0.2,0.6,0.3,1.1,0.3,1.7c0,0.4-0.1,0.8-0.4,1.1c0,0-0.1,0.1-0.1,0.1c0,0-0.1,0.1-0.1,0.1
			c-0.2,0.1-0.4,0.1-0.7,0c-0.2,0-0.4-0.1-0.6-0.2c-1.1-0.6-2.1-1.3-3-2c-0.1-0.1-0.3-0.2-0.4-0.3c-0.2-0.1-0.3-0.2-0.5-0.3
			l-0.1-0.1l-0.1-0.1c0,0-0.1-0.1-0.1-0.1l-0.2-0.1l-0.4-0.2l-0.2-0.1c-0.2-0.1-0.4-0.2-0.6-0.3l-0.2-0.1l-0.2-0.1l-0.5-0.2l0,0
			c-0.3-0.1-0.5-0.2-0.8-0.2c-0.3-0.1-0.5-0.1-0.8-0.2l-0.1,0c-0.2,0-0.3-0.1-0.5-0.1l0,0l-0.1,0c-0.5-0.1-1-0.1-1.5-0.2l-0.3,0
			l-0.4-0.1l0,0l-0.2,0l-0.5,0l-0.2,0l-0.3,0l-0.1,0l-0.5,0c-0.7,0.1-1.4,0.2-2.1,0.4l0,0c-0.3,0.1-0.5,0.1-0.8,0.3
			c-0.1,0-0.2,0.1-0.4,0.1l-0.3,0.1l-0.1,0l-0.6,0.3c-1.1,0.5-2.2,1.2-3.1,2.1l-0.3,0.3l-0.1,0l-0.1,0l0,0c-0.3,0.2-0.7,0.3-1,0.2
			c-0.4-0.1-0.7-0.3-1-0.6c-0.1-0.2-0.2-0.4-0.3-0.6c-0.1-0.2-0.1-0.4,0-0.6C264.5,77.8,264.7,77.1,265,76.6z" />
            <path class="st14" d="M264.7,79.6c0.6-1.1,1.4-2.1,2.3-2.9l0.4-0.4c1.6-1.4,3.4-2.4,5.4-2.9c2-0.6,4.1-0.6,6.1-0.3
			c2,0.4,4,1.2,5.6,2.4c1.7,1.2,3,2.8,4,4.7c0,0.2,0.1,0.3,0.2,0.4c0.1,0.1,0.1,0.2,0.1,0.3c0,0-0.1,0.1-0.1,0.1
			c0,0-0.1,0.1-0.1,0.1c-0.2,0.1-0.4,0.1-0.7,0c-0.2,0-0.4-0.1-0.6-0.2c-1.1-0.6-2.1-1.3-3-2c-0.1-0.1-0.3-0.2-0.4-0.3
			c-0.2-0.1-0.3-0.2-0.5-0.3c0,0,0,0,0,0l-0.1-0.1l-0.2-0.1c0,0-0.1-0.1-0.1-0.1l-0.2-0.1l-0.4-0.2l-0.2-0.1l-0.4-0.2l-0.2-0.1
			l-0.2-0.1l-0.2-0.1l-0.5-0.2l0,0l-0.2-0.1c-0.2-0.1-0.4-0.1-0.7-0.2c-0.2-0.1-0.4-0.1-0.7-0.2l-0.1,0l-0.1,0l-0.3-0.1l-0.2,0l0,0
			l-0.1,0l-0.3,0l-0.2,0l-0.1,0l-0.3,0l-0.3,0l-0.3,0l-0.3,0l-0.3-0.1l0,0l-0.2,0l-0.5,0l-0.2,0l-0.4,0l-0.1,0l-0.1,0l-0.3,0
			l-0.3,0.1l-0.3,0.1l-0.2,0l-0.1,0l-0.3,0.1l-0.3,0.1l-0.6,0.2l-0.3,0.1l-0.2,0.1l-0.3,0.1l-0.2,0.1l-0.1,0l-0.3,0.1l-0.1,0
			l-0.2,0.1l-0.2,0.1l-0.2,0.1l-0.3,0.1l-0.2,0l-0.3,0.2l-0.2,0.1l-0.3,0.2l-0.2,0.1l-0.3,0.2l-0.2,0.1c-0.1,0.1-0.2,0.2-0.4,0.3
			l-0.1,0.1l-0.1,0l-0.5,0.4l-0.3,0.3l-0.1,0l-0.1,0l0,0c-0.3,0.2-0.7,0.3-1,0.2C265.3,80.1,264.9,79.9,264.7,79.6z" />
            <path class="st12" d="M287.5,80.9c0.4,0,0.8-0.1,1.1-0.3c0.3-0.2,0.6-0.5,0.8-0.8c0,0.4-0.1,0.8-0.4,1.1c0,0-0.1,0.1-0.1,0.1
			c0,0-0.1,0.1-0.1,0.1c-0.2,0.1-0.4,0.1-0.7,0C287.9,81.1,287.7,81,287.5,80.9z" />
            <g class="st5">
                <path class="st10" d="M351.1,70.2c-0.1,0-0.3,0-0.5,0.3c-0.6,0.8-2.9,3-4.8,3.2c-0.5,0.1-1,0-1.5-0.3c-0.3-0.7-0.5-1.4-0.6-2.1
				c0.3-1.1,0.4-2.2,0.4-3.2c0-0.5-0.1-1-0.3-1.5c0-0.3,0-0.6,0.1-0.8c0-0.2,0-0.5-0.1-0.7c-0.1-0.2-0.2-0.4-0.4-0.6
				c0,0-0.1-0.1-0.1-0.1c0,0-0.1,0-0.1,0c-0.1,0-0.1,0-0.2,0.1c-0.1,0-0.3,0.1-0.4,0.2c-0.1,0.1-0.1,0.2-0.1,0.4l0,1.3
				c-0.5,0.2-0.9,0.5-1.2,0.9c-1.2,1.4-2.1,3.1-2.7,4.8c-0.2,0.5-0.4,1-0.6,1.4c-0.7,0.7-1.5,1.2-2.4,1.6c-1.3,0.5-4.7,1.4-5.2-2.1
				c0-0.1,0-0.1-0.1-0.1c0,0-0.1-0.1-0.1-0.1c0,1.2-0.1,2.4-0.3,3.5c0.5,1,1.7,1.9,4.3,1.6l0.1,0c-1.3,0.7-2.7,1.1-4.1,1.2
				c-0.4,0-0.7,0-1,0c-0.2,0.5-0.4,1-0.6,1.5c2,0.7,4.2,0.7,6.2,0c2.3-0.6,4.4-1.8,6-3.6c0.2-0.3,0.5-0.5,0.7-0.8
				c2.3,1.3,3.8,1.6,6.2,1.2c1.1-0.2,2.2-0.5,3.3-1c0.1-0.7,0.1-1.4,0.1-2.1c-1,0.4-2,0.6-3,0.8c1.3-0.6,2.4-1.7,3-3L351.1,70.2z" />
            </g>
            <path class="st15" d="M329.6,67.5c1.4,5.1,0.7,10.6-2,15.2c-2.6,4.6-7,7.9-12.1,9.3l-0.6,0.1c5-1.5,9.2-4.9,11.7-9.4
			s3.2-9.9,1.8-14.9c-1.3-5-4.6-9.3-9-12c-4.5-2.7-9.8-3.5-14.8-2.3l0.6-0.1c5.1-1.4,10.6-0.7,15.1,2
			C324.9,58,328.2,62.4,329.6,67.5z" />
            <path class="st13" d="M338.9,72.2c-0.1,0.9-0.4,1.7-0.8,2.4c-0.3,0.7-0.8,1.4-1.5,1.8s-1.4,0.8-2.2,0.8c-3.9,0.3-4.5-1.8-4.8-2.9
			c-0.1-0.4-0.1-0.8,0-1.1c0.1-0.4,0.3-0.7,0.5-1c0,0,0.1-0.1,0.1-0.1c0.1,0,0.1,0,0.2,0c0,0,0.1,0,0.1,0.1c0,0,0.1,0.1,0.1,0.1
			c0.6,3.4,3.9,2.5,5.2,2.1C337,74,338.1,73.2,338.9,72.2z" />
            <path class="st14" d="M338.1,74.6c-0.3,0.7-0.8,1.4-1.5,1.8s-1.4,0.8-2.2,0.8c-3.9,0.3-4.5-1.8-4.8-2.9c-0.1-0.2-0.1-0.5-0.1-0.7
			c0.8,1.3,1.8,2.8,5,2.3C335.8,75.7,337,75.2,338.1,74.6z" />
            <path class="st13" d="M344.4,67.5c-0.1,3.3-1.3,6.5-3.4,9c-1.6,1.7-3.7,3-6,3.6c-1.2,0.4-2.4,0.6-3.7,0.5c-1.2-0.1-2.5-0.4-3.6-1
			c-0.2-0.1-0.3-0.2-0.4-0.4c-0.1-0.2-0.2-0.3-0.3-0.5c0,0,0-0.1,0-0.2c0-0.1,0-0.1,0.1-0.1c0,0,0.1-0.1,0.1-0.1c0.1,0,0.1,0,0.2,0
			c1,0.2,2,0.2,3,0.1c2.2-0.2,4.2-0.9,5.3-2.1c1.4-1.4,2.5-3.1,3.2-5c0.5-1.8,1.4-3.4,2.7-4.8c0.2-0.3,0.5-0.6,0.8-0.7
			c0.3-0.2,0.7-0.3,1.1-0.3C343.7,65.6,344.3,65.9,344.4,67.5z" />
            <path class="st14" d="M344.4,67.5c-0.1,3.3-1.3,6.5-3.4,9c-1.6,1.7-3.7,3-6,3.6c-1.2,0.4-2.4,0.6-3.7,0.5c-1.2-0.1-2.5-0.4-3.6-1
			c-0.2-0.1-0.3-0.2-0.4-0.4c-0.1-0.2-0.2-0.3-0.3-0.5c0,0,5.5,2.6,10.3-1.1c3.8-3,5.5-9.3,6.1-11.9
			C343.7,65.6,344.3,65.9,344.4,67.5z" />
            <g class="st5">
                <path class="st10" d="M320.8,35c-0.6-0.1-1.3,0-1.9,0.2c-0.6,0.2-1.2,0.5-1.6,1c-0.4-0.6-0.8-1.1-1.2-1.6c-0.3-0.4-0.6-0.7-1-1.1
				c-3.5-3.7-8.2-6-13.2-6.4l-0.7-2.4l-2.4,2.5l-0.3,0.1c-0.2,0.1-0.4,0.1-0.7,0.1l-0.9-1.8l-0.3-0.5c-0.1,0-0.3,0.1-0.4,0.1
				c-2.7,0.9-3.3,3.8-3.4,4.2c-4.2,2.9-7.1,7.3-8.3,12.2c-0.1,0.5-0.2,1-0.3,1.4c-0.1,0.7-0.2,1.3-0.2,2l-0.1,0
				c-0.6-0.1-1.2-0.1-1.8,0c-0.6,0.1-1.2,0.4-1.7,0.8c-2.9,2.1-2.3,7.6,1.2,10.2c1.1,0.9,2.5,1.4,3.9,1.5l0,0.2
				c0,0.9,0.2,1.9,0.4,2.8c0.7,2.5,2,4.7,4,6.5l-0.5,2.5c-0.2,0.9,0,1.8,0.4,2.6c0.4,0.8,1.1,1.4,2,1.7l8,3l4.7,17.5
				c0.3,1,0.7,1.9,1.4,2.7c-1.2,0.7-3,2.1-3.4,4.1c-0.1,0.6-0.2,1.2-0.4,1.8l-0.1,0c-0.2-0.1-0.3-0.2-0.5-0.2
				c-0.2-0.1-0.4-0.2-0.6-0.2c-0.2,0-0.4,0-0.6,0c-0.2,0.1-0.4,0.1-0.6,0.3c-0.2,0.1-0.3,0.3-0.4,0.5s-0.2,0.4-0.2,0.6
				c0,0.2,0,0.4,0.1,0.6c0.1,0.2,0.2,0.4,0.3,0.5c0.2,0.2,0.3,0.3,0.5,0.3c2.1,1.1,2.7,0.9,3,0.8c0.9-0.3,1.7-1.2,2.3-4.6
				c0.2-0.9,1.7-1.9,2.6-2.3c0.1-0.1,0.3-0.1,0.4-0.2c1.6,0.8,3.4,1,5.1,0.5l5.6-1.5c1.7-0.5,3.2-1.5,4.2-3c0.1,0,0.1,0,0.2,0
				c1.4,0.1,3.7,0.5,4.4,1.3c1.3,1.6,2.2,2.6,3.6,2.2c0.3-0.1,1-0.3,2.2-2.2c0.1-0.2,0.2-0.4,0.3-0.6s0.1-0.4,0-0.6
				c0-0.2-0.1-0.4-0.2-0.6c-0.1-0.2-0.3-0.3-0.4-0.4c-0.2-0.1-0.4-0.2-0.6-0.2c-0.2,0-0.4,0-0.6,0c-0.2,0.1-0.4,0.1-0.6,0.3
				s-0.3,0.3-0.4,0.5c-0.1,0.1-0.2,0.3-0.3,0.4c-0.2-0.2-0.4-0.4-0.7-0.8c-1.4-1.6-4.2-2.1-5.7-2.3c0.2-1.1,0.1-2.1-0.2-3.2
				L318.3,67l1.3,1.2c1.2-1.5,6.3-2,5.4-4.2l-1.8-6c0.8-2.5,0.9-5.1,0.2-7.6c-0.2-0.9-0.6-1.8-1-2.6l-0.1-0.2
				c1.2-0.8,2.1-1.9,2.6-3.3C326.6,40.4,324.3,35.4,320.8,35z" />
            </g>
            <path class="st16" d="M326.1,64.6l-5.5,6.6l-2.2,2.6l-1.2-1l-1.2-1l3.5-4.3l4.1-5c0.1-0.1,0.2-0.3,0.2-0.5c0-0.2-0.1-0.4-0.2-0.5
			l-0.8-0.9l-1.6-1.8l-1.8-2l-1.8-2.1l-0.4-0.5L317,54l-1.2-1.3l0.8-0.7l0.3-0.3l0.6-0.5l0.6-0.5l0.3,0.3l0.1,0.1l0.7,0.8l0.7,0.8
			l0.2,0.2l1.6,1.8l2.6,3l1.7,1.9c0.6,0.7,1,1.6,1,2.5C327,63,326.7,63.9,326.1,64.6z" />
            <path class="st16" d="M303.8,77.8l-11.2-4.2c-0.9-0.3-1.6-0.9-2-1.7c-0.4-0.8-0.6-1.7-0.4-2.6l2.4-11.7l3,0.6l-2.4,11.7
			c0,0.2,0,0.4,0.1,0.5c0.1,0.2,0.2,0.3,0.4,0.4l11.2,4.2L303.8,77.8z" />
            <path class="st16" d="M315.1,50.6l10.2,38.1c0.4,1.5,0.3,3.2-0.3,4.7c-0.2,0.5-0.5,1-0.8,1.4c-1,1.5-2.5,2.5-4.2,3l-5.6,1.5
			c-1.7,0.5-3.6,0.3-5.2-0.5c-0.5-0.2-1-0.6-1.5-0.9c-1.2-1-2.1-2.3-2.5-3.8L295.1,56L315.1,50.6z" />
            <path class="st17" d="M316.4,74.5c-3.1,2-6.8,3-10.4,2.8c-0.4,0-0.7,0-1,0.2c-0.3,0.1-0.6,0.4-0.8,0.6c-0.2,0.3-0.4,0.6-0.5,0.9
			c-0.1,0.3-0.1,0.7,0,1l3.4,12.6c0.4,1.5,1.3,2.7,2.7,3.5c1.3,0.8,2.9,1,4.3,0.6l5-1.3c1.5-0.4,2.7-1.3,3.5-2.7
			c0.8-1.3,1-2.9,0.6-4.3l-3.4-12.6c-0.1-0.3-0.3-0.6-0.5-0.9c-0.2-0.3-0.5-0.5-0.8-0.6c-0.3-0.1-0.7-0.2-1-0.1
			C317,74.2,316.7,74.3,316.4,74.5z" />
            <path class="st16" d="M332.5,98.3c-1.4,0.4-2.3-0.7-3.6-2.2c-0.6-0.8-3-1.2-4.4-1.3c-0.4,0-0.7-0.2-1-0.5
			c-0.3-0.3-0.4-0.7-0.4-1.1c0-0.4,0.2-0.8,0.5-1s0.6-0.4,1-0.4c0.8,0,4.9,0.3,6.6,2.4c0.3,0.3,0.5,0.6,0.7,0.8
			c0.1-0.1,0.2-0.3,0.3-0.4c0.1-0.2,0.2-0.3,0.4-0.5c0.2-0.1,0.4-0.2,0.6-0.3c0.2-0.1,0.4-0.1,0.6,0c0.2,0,0.4,0.1,0.6,0.2
			c0.2,0.1,0.3,0.3,0.4,0.4c0.1,0.2,0.2,0.4,0.2,0.6c0,0.2,0,0.4,0,0.6c0,0.2-0.1,0.4-0.3,0.6C333.4,98.1,332.8,98.3,332.5,98.3z" />
            <path class="st16" d="M304,106c-0.3,0.1-0.9,0.3-3-0.8c-0.3-0.2-0.6-0.5-0.7-0.9c-0.1-0.4-0.1-0.8,0.1-1.1
			c0.2-0.3,0.5-0.6,0.8-0.7c0.4-0.1,0.7-0.1,1.1,0l0.5,0.2c0.2-0.6,0.3-1.2,0.5-1.9c0.5-2.9,4-4.4,4.4-4.6c0.4-0.1,0.8-0.1,1.1,0
			s0.6,0.4,0.8,0.8c0.2,0.4,0.2,0.8,0,1.1c-0.1,0.4-0.4,0.7-0.8,0.8c-1,0.4-2.5,1.4-2.6,2.3C305.7,104.8,304.9,105.7,304,106z" />
            <path class="st16" d="M284.9,46c0,1.5,0.2,2.9,0.6,4.4l0.1,0.3c0.5,1.7,0.7,3.5,0.8,5.2c-1.1-0.1-2-0.5-2.9-1.2
			c-2.7-2-3.2-6.4-0.9-8C283.2,46.2,284.1,45.9,284.9,46L284.9,46z" />
            <path class="st17" d="M284.9,46c0,1.5,0.2,2.9,0.6,4.4l0.1,0.3c0.5,1.7,0.7,3.5,0.8,5.2c-1.1-0.1-2-0.5-2.9-1.2
			c-2.7-2-3.2-6.4-0.9-8C283.2,46.2,284.1,45.9,284.9,46L284.9,46z" />
            <path class="st16" d="M324.6,43.7c-0.4,1-1,1.8-1.9,2.5c-0.8-1.6-1.5-3.2-1.9-4.9l-0.1-0.3c-0.4-1.4-1-2.8-1.7-4.1
			c0.7-0.5,1.5-0.7,2.4-0.6C324.2,36.6,326,40.5,324.6,43.7z" />
            <path class="st17" d="M324.6,43.7c-0.4,1-1,1.8-1.9,2.5c-0.8-1.6-1.5-3.2-1.9-4.9l-0.1-0.3c-0.4-1.4-1-2.8-1.7-4.1
			c0.7-0.5,1.5-0.7,2.4-0.6C324.2,36.6,326,40.5,324.6,43.7z" />
            <path class="st16" d="M317.3,47.7c-0.2,0.7-0.3,1.4-0.2,2.1c0.1,0.7,0.3,1.4,0.7,2c0.6,0.8,1.1,1.8,1.4,2.8
			c1.6,6.1-2.8,12.6-9.9,14.5c-7.1,1.9-14.2-1.5-15.9-7.6c-0.2-1-0.2-2.1-0.1-3.1c0-0.7-0.1-1.4-0.3-2.1c-0.3-0.7-0.7-1.2-1.2-1.7
			c-0.3-0.2-0.5-0.5-0.7-0.7c-0.7-0.8-1.2-1.7-1.4-2.7c-0.2-1-0.3-2-0.1-3c0.2-1,0.5-2,1-2.8c0.5-0.9,1.2-1.6,2.1-2.2
			c0.8-0.6,1.8-1,2.8-1.3c1.4-0.4,2.8-0.4,4.2,0c0.8,0.2,1.6,0.2,2.4,0c0.8-0.2,1.5-0.6,2.1-1.2c1-1,2.3-1.7,3.6-2.1
			c4.2-1.1,8.6,1.2,9.6,5.3c0.3,1,0.3,2.1,0.1,3.1C317.5,47,317.4,47.3,317.3,47.7z" />
            <path class="st17" d="M317.3,47.7c-0.2,0.7-0.3,1.4-0.2,2.1c0.1,0.7,0.3,1.4,0.7,2c0.6,0.8,1.1,1.8,1.4,2.8
			c1.6,6.1-2.8,12.6-9.9,14.5c-7.1,1.9-14.2-1.5-15.9-7.6c-0.2-1-0.2-2.1-0.1-3.1c0-0.7-0.1-1.4-0.3-2.1c-0.3-0.7-0.7-1.2-1.2-1.7
			c-0.3-0.2-0.5-0.5-0.7-0.7c-0.7-0.8-1.2-1.7-1.4-2.7c-0.2-1-0.3-2-0.1-3c0.2-1,0.5-2,1-2.8c0.5-0.9,1.2-1.6,2.1-2.2
			c0.8-0.6,1.8-1,2.8-1.3c1.4-0.4,2.8-0.4,4.2,0c0.8,0.2,1.6,0.2,2.4,0c0.8-0.2,1.5-0.6,2.1-1.2c1-1,2.3-1.7,3.6-2.1
			c4.2-1.1,8.6,1.2,9.6,5.3c0.3,1,0.3,2.1,0.1,3.1C317.5,47,317.4,47.3,317.3,47.7z" />
            <path class="st18" d="M300.2,61.1c-0.1,0-0.2,0.1-0.3,0.1c-0.1,0.1-0.2,0.2-0.2,0.3c0,0.1-0.1,0.2-0.1,0.3c0,0.1,0,0.2,0.1,0.3
			c1.3,3.1,5.1,4.8,8.8,3.8c3.8-1,6.2-4.4,5.8-7.7c0-0.1-0.1-0.2-0.1-0.3c-0.1-0.1-0.1-0.2-0.2-0.2c-0.1-0.1-0.2-0.1-0.3-0.1
			c-0.1,0-0.2,0-0.3,0L300.2,61.1z" />
            <path class="st19" d="M304,65.8c1.5,0.5,3.1,0.5,4.6,0.1c1.5-0.4,2.9-1.2,3.9-2.4c-1-1.7-2.6-0.8-4.6-0.3
			C305.8,63.9,304,63.9,304,65.8z" />
            <path class="st16" d="M321.9,34.7c-0.6-0.1-1.3,0-1.9,0.2c-0.6,0.2-1.2,0.5-1.6,1c-0.4-0.6-0.8-1.1-1.2-1.6
			c-0.3-0.4-0.6-0.7-1-1.1c-3.5-3.7-8.2-6-13.2-6.4l0,0l-0.7-2.4l-2.4,2.5l-0.4,0.1c-0.2,0.1-0.4,0.1-0.7,0.1l-0.9-1.8l-0.3-0.5
			c-0.1,0-0.3,0.1-0.4,0.1c-2.7,1-3.3,3.8-3.4,4.3c-4.2,2.9-7.1,7.2-8.3,12.2c-0.1,0.5-0.2,1-0.3,1.4c-0.1,0.7-0.2,1.3-0.2,2l-0.1,0
			c-0.6-0.1-1.2-0.1-1.8,0c-0.6,0.1-1.2,0.4-1.7,0.8c-2.9,2.1-2.3,7.6,1.1,10.2c1.1,0.9,2.5,1.4,3.9,1.5l0,0.2
			c0,0.9,0.2,1.9,0.4,2.8c1.5,5.5,6.3,9.4,12.4,10.7c0.9,0.2,1.8,0.3,2.7,0.4c1.6,0.1,3.3,0.1,4.9-0.1l0.2-0.1
			c0.9-0.1,1.8-0.3,2.6-0.5l0.2-0.1c3.5-0.9,6.7-2.6,9.4-5c1.5-1.4,2.8-3,3.9-4.8c0.5-1,1-2,1.3-3.1c0.1-0.3,0.2-0.6,0.3-0.9
			c0.1-0.3,0.1-0.6,0.2-0.9c0-0.3,0.1-0.6,0.1-0.9l0-0.5l0-0.5l0-0.4c0,0,0,0,0,0c0-0.3,0-0.6,0-0.9c0-0.2,0-0.3,0-0.5l-0.1-0.5
			c0-0.1-0.1-0.3-0.1-0.4c0,0,0,0,0-0.1c0-0.1-0.1-0.3-0.1-0.4c0,0,0,0,0-0.1c0-0.1-0.1-0.3-0.1-0.5c-0.2-0.9-0.6-1.8-1-2.6
			c0-0.1-0.1-0.1-0.1-0.2c1.2-0.8,2.1-1.9,2.6-3.3C327.7,40.1,325.4,35.1,321.9,34.7z M284.9,46c0,1.5,0.2,2.9,0.6,4.4l0.1,0.3
			c0.5,1.7,0.7,3.5,0.8,5.2c-1.1-0.1-2-0.5-2.9-1.2c-2.7-2-3.2-6.4-0.9-8C283.2,46.2,284.1,45.9,284.9,46L284.9,46z M318.2,62.2
			c-1,1.7-2.2,3.1-3.8,4.3c-1.5,1.2-3.3,2-5.1,2.5c-2,0.5-4.1,0.7-6.1,0.4c-1.8-0.3-3.5-0.9-5-1.8c-2.3-1.4-4-3.6-4.7-6.2
			c-0.2-1-0.2-2.1-0.1-3.1c0-0.7-0.1-1.4-0.3-2.1c-0.3-0.7-0.7-1.2-1.2-1.7c-1-0.9-1.8-2.2-2.1-3.5c-0.5-2-0.2-4.1,0.9-5.9
			c1.1-1.8,2.8-3,4.8-3.5c1.4-0.4,2.8-0.4,4.2,0c1.1,0.3,2.2,0.2,3.2-0.3c0.5-0.2,1-0.5,1.4-0.9c1-1,2.3-1.7,3.6-2.1
			c2-0.6,4.1-0.3,5.9,0.6c1.8,1,3.1,2.6,3.7,4.6c0.3,1,0.3,2.1,0.1,3.1c-0.1,0.3-0.1,0.7-0.2,1c-0.4,1.2-0.3,2.4,0.2,3.5
			c0.1,0.2,0.2,0.3,0.3,0.5c0.6,0.8,1.1,1.8,1.4,2.8c0.2,0.8,0.3,1.6,0.3,2.4C319.6,58.8,319.1,60.6,318.2,62.2z M324.6,43.7
			c-0.4,1-1,1.8-1.9,2.5c-0.8-1.6-1.5-3.2-1.9-4.9l-0.1-0.3c-0.4-1.4-1-2.8-1.7-4.1c0.7-0.5,1.6-0.7,2.4-0.6
			C324.2,36.6,326,40.5,324.6,43.7L324.6,43.7z" />
            <path class="st18" d="M302.8,54.2c-0.3-0.1-0.7,0.2-0.7,0.5c-0.1,0.3,0.2,0.7,0.5,0.7l1.6,0.3c0.3,0.1,0.7-0.2,0.7-0.5
			c0.1-0.3-0.2-0.7-0.5-0.7L302.8,54.2z" />
            <path class="st18" d="M306.3,53.9c-0.3,0.2-0.3,0.6-0.1,0.9c0.2,0.3,0.6,0.3,0.9,0.1l1.3-1c0.3-0.2,0.3-0.6,0.1-0.9
			c-0.2-0.3-0.6-0.3-0.9-0.1L306.3,53.9z" />
            <path class="st18" d="M297.7,52c-0.3,0.1-0.6,0.1-0.9,0.1c-0.3,0-0.6-0.1-0.8-0.3c-0.3-0.1-0.5-0.3-0.7-0.6
			c-0.2-0.2-0.3-0.5-0.4-0.8l-0.2-0.7c-0.1-0.6,0-1.2,0.3-1.7c0.3-0.5,0.8-0.9,1.4-1c0.6-0.2,1.2-0.1,1.7,0.2
			c0.5,0.3,0.9,0.8,1.1,1.3l0.2,0.7c0.1,0.3,0.1,0.6,0,0.9c0,0.3-0.1,0.6-0.3,0.8c-0.2,0.2-0.4,0.5-0.6,0.6
			C298.2,51.8,298,51.9,297.7,52z" />
            <path class="st20" d="M296.4,47.1l0.7,2.4c0.1,0.3,0.3,0.5,0.5,0.7c0.3,0.2,0.6,0.2,0.9,0.1c0.3-0.1,0.5-0.3,0.7-0.5
			s0.2-0.6,0.1-0.9l-0.1-0.3c-0.2-0.6-0.6-1-1.1-1.3C297.6,47,296.9,46.9,296.4,47.1z" />
            <path class="st3" d="M296.9,49.2c0.4-0.1,0.7-0.5,0.5-0.9c-0.1-0.4-0.5-0.6-0.9-0.5c-0.4,0.1-0.7,0.5-0.6,0.9
			S296.5,49.3,296.9,49.2z" />
            <path class="st18" d="M310.9,48.4c-0.6,0.2-1.2,0.1-1.7-0.2c-0.5-0.3-0.9-0.8-1.1-1.3l-0.2-0.7c-0.1-0.6,0-1.2,0.3-1.7
			c0.3-0.5,0.8-0.9,1.4-1c0.6-0.2,1.2-0.1,1.7,0.2c0.5,0.3,0.9,0.8,1.1,1.3l0.2,0.7c0.1,0.6,0,1.2-0.3,1.7
			C312,47.9,311.5,48.3,310.9,48.4z" />
            <path class="st20" d="M309.6,43.6l0.7,2.4c0.1,0.3,0.3,0.5,0.5,0.6c0.3,0.1,0.6,0.2,0.8,0.1c0.3-0.1,0.5-0.3,0.7-0.5
			c0.2-0.2,0.2-0.5,0.2-0.8l-0.1-0.3c-0.2-0.6-0.6-1-1.1-1.3C310.8,43.5,310.2,43.4,309.6,43.6z" />
            <path class="st3" d="M310.2,45.7c0.4-0.1,0.7-0.5,0.6-0.9c-0.1-0.4-0.5-0.6-0.9-0.5c-0.4,0.1-0.7,0.5-0.6,0.9
			C309.4,45.5,309.8,45.8,310.2,45.7z" />
            <path class="st18" d="M300.8,44l0.3,1c0.5,2,0.3,4.1-0.6,6c-0.9,1.9-2.5,3.3-4.4,4.1c-0.4,0.2-0.7,0.3-1.1,0.4
			c-0.9,0.2-1.9,0.3-2.8,0.3c-0.3,0-0.6-0.1-0.9-0.1c-0.4-0.1-0.8-0.2-1.1-0.3c-0.3-0.1-0.6-0.2-0.9-0.4c-1.1-0.5-2.1-1.3-2.9-2.2
			s-1.4-2.1-1.7-3.3l-0.3-1c0-0.1,0-0.1,0-0.2s0.1-0.1,0.2-0.1l16-4.3c0.1,0,0.1,0,0.2,0C300.8,43.9,300.8,43.9,300.8,44z" />
            <path class="st18" d="M320.7,38.7l0.3,1c0.5,2,0.3,4-0.5,5.9s-2.4,3.3-4.2,4.1c-0.4,0.2-0.8,0.3-1.3,0.5c-0.3,0.1-0.7,0.2-1.1,0.2
			c-0.3,0.1-0.7,0.1-1,0.1c-0.4,0-0.8,0-1.2-0.1c-0.3,0-0.6-0.1-0.9-0.2c-1.2-0.3-2.4-0.9-3.4-1.7c-1.4-1.1-2.4-2.7-2.9-4.4l-0.3-1
			c0,0,0-0.1,0-0.1s0-0.1,0-0.1c0,0,0-0.1,0.1-0.1c0,0,0.1,0,0.1,0l15.9-4.3c0,0,0.1,0,0.1,0c0,0,0.1,0,0.1,0
			C320.6,38.5,320.6,38.5,320.7,38.7C320.7,38.6,320.7,38.6,320.7,38.7z" />
            <g class="st21">
                <path class="st22" d="M300.5,44.8l0.3,1c0.5,2,0.3,4.1-0.6,6c-0.9,1.9-2.5,3.3-4.4,4.1c-0.4,0.1-0.7,0.3-1.1,0.4
				c-0.9,0.3-1.9,0.3-2.9,0.3c-0.3,0-0.6-0.1-0.9-0.1c-1.6-0.3-3.1-1-4.2-2.1c-1.2-1.1-2-2.5-2.5-4.1l-0.3-1c0-0.1,0-0.1,0-0.2
				c0-0.1,0.1-0.1,0.2-0.1l16-4.3c0.1,0,0.1,0,0.2,0C300.4,44.7,300.4,44.8,300.5,44.8z" />
                <path class="st22" d="M320.4,39.5l0.3,1c0.5,2,0.3,4-0.5,5.9c-0.9,1.8-2.4,3.3-4.2,4.1c-0.4,0.2-0.8,0.3-1.3,0.5
				c-0.3,0.1-0.7,0.2-1.1,0.2c-0.3,0-0.7,0.1-1,0.1c-0.4,0-0.8,0-1.2,0c-1.7-0.2-3.3-0.9-4.5-2c-1.3-1.1-2.2-2.6-2.6-4.2l-0.3-1
				c0,0,0-0.1,0-0.1c0,0,0-0.1,0-0.1c0,0,0-0.1,0.1-0.1c0,0,0.1,0,0.1,0l16-4.3c0,0,0.1,0,0.1,0c0,0,0.1,0,0.1,0
				C320.3,39.3,320.3,39.4,320.4,39.5C320.3,39.4,320.3,39.5,320.4,39.5z" />
            </g>
            <path class="st18" d="M305.6,43.7l-5.6,1.5l0.5,1.7l5.6-1.5L305.6,43.7z" />
            <path class="st3" d="M291.2,46.3l-2,8.6c-0.7-0.3-1.3-0.7-1.9-1.2l1.5-6.8L291.2,46.3z" />
            <path class="st3" d="M298.6,44.3l-2.4,10.8c-0.4,0.2-0.7,0.3-1.1,0.4c-0.9,0.2-1.9,0.3-2.9,0.3l2.3-10.3L298.6,44.3z" />
            <path class="st3" d="M293.5,45.7l-2.2,9.9c-0.4-0.1-0.8-0.2-1.1-0.3l2.1-9.3L293.5,45.7z" />
            <path class="st3" d="M319.1,38.8l-2.9,10.9c-0.4,0.2-0.8,0.3-1.3,0.5c-0.3,0.1-0.7,0.2-1.1,0.2l2.9-10.9L319.1,38.8z" />
            <path class="st3" d="M313.4,40.3l-2.6,9.8c-1.2-0.3-2.4-0.9-3.4-1.7l1.9-7.1L313.4,40.3z" />
            <path class="st3" d="M315.7,39.7l-2.9,10.7c-0.4,0-0.8,0-1.2-0.1l2.7-10.3L315.7,39.7z" />
            <path class="st23" d="M321.9,34.7c-0.6-0.1-1.3,0-1.9,0.2c-0.6,0.2-1.2,0.5-1.6,1c-0.4-0.6-0.8-1.1-1.2-1.6
			c-0.3-0.4-0.6-0.7-1-1.1c-3.5-3.7-8.2-6-13.2-6.4l0,0c-1.6,1.3-2.6,3.2-2.8,5.2c-0.3,3.3,1.9,5.4,2.6,9.4c0.1,0.2,0.1,0.5,0.1,0.8
			c0.6,4.5,0.1,7.2-1.7,9.8c-0.7,0.9-1.3,1.9-1.8,2.9c-1,1.9-1.5,4.1-0.7,7.4c0.8,2.8,2.3,5.3,4.5,7.1c1,0.9,2.2,1.5,3.5,1.9
			c0.7,0.2,1.4,0.1,2,0c0.4,18.9,8.5,27.4,8.5,27.4l2.8-0.8c1.7-0.5,3.2-1.5,4.2-3l0.2,0c1.4,0.1,3.7,0.5,4.4,1.3
			c1.3,1.6,2.2,2.6,3.6,2.2c0.3-0.1,1-0.3,2.2-2.2c0.1-0.2,0.2-0.4,0.3-0.6c0-0.2,0.1-0.4,0-0.6c0-0.2-0.1-0.4-0.2-0.6
			c-0.1-0.2-0.3-0.3-0.4-0.4c-0.2-0.1-0.4-0.2-0.6-0.2c-0.2,0-0.4,0-0.6,0c-0.2,0.1-0.4,0.1-0.6,0.3c-0.2,0.1-0.3,0.3-0.4,0.5
			c-0.1,0.1-0.2,0.3-0.3,0.4c-0.2-0.2-0.4-0.4-0.7-0.8c-1.4-1.6-4.2-2.1-5.7-2.3c0.2-1.1,0.1-2.1-0.2-3.2l-4.7-17.5l5.5-6.6
			c0.6-0.7,0.9-1.6,0.9-2.5c0-0.9-0.4-1.8-1-2.5l-1.7-1.9c0.1-0.3,0.2-0.6,0.3-0.9c0.1-0.3,0.1-0.6,0.2-0.9c0-0.3,0.1-0.6,0.1-0.9
			l0-0.5l0-0.5l0-0.4c0,0,0,0,0,0c0-0.3,0-0.6,0-0.9c0-0.2,0-0.3,0-0.5l-0.1-0.5c0-0.1-0.1-0.3-0.1-0.4c0,0,0,0,0-0.1
			c0-0.1-0.1-0.3-0.1-0.4c0,0,0,0,0-0.1c0-0.1-0.1-0.3-0.1-0.5c-0.2-0.9-0.6-1.8-1-2.6c0-0.1-0.1-0.1-0.1-0.2
			c1.2-0.8,2.1-1.9,2.6-3.3C327.7,40.1,325.4,35.1,321.9,34.7z M323.8,61.6c0.1,0.1,0.2,0.3,0.2,0.5c0,0.2-0.1,0.4-0.2,0.5l-4.1,5
			l-0.6-2.1c1.5-1.4,2.8-3,3.9-4.8L323.8,61.6z" />
        </g>
    </g>
</svg>