<svg width="39" height="39" viewBox="0 0 39 39" fill="none" xmlns="http://www.w3.org/2000/svg">
<circle cx="19.5" cy="19.5" r="19.5" fill="#333333"/>
<g clip-path="url(#clip0)">
<path d="M13.7639 8.91138V13.5497C13.7639 13.987 13.8173 14.4177 13.9174 14.8219L19.1019 18.8506L19.8092 13.0395L19.1019 8.91138H13.7639Z" fill="white"/>
<path d="M24.2866 14.8219C24.3867 14.4111 24.4401 13.987 24.4401 13.5497V8.91138H19.1021V18.8506L24.2866 14.8219Z" fill="#E9EDF5"/>
<path d="M19.1019 20.1494C16.1527 20.1494 13.7639 22.5216 13.7639 25.4504L19.1019 30.0887L19.8092 25.4504L19.1019 20.1494Z" fill="white"/>
<path d="M19.1021 20.1494V30.0887L24.4401 25.4504C24.4401 22.5216 22.0513 20.1494 19.1021 20.1494Z" fill="#E9EDF5"/>
<path d="M13.9174 14.822C14.4378 16.9291 16.2261 18.5327 18.4347 18.811V23.1975L13.7639 25.4504V30.0887H19.1019L19.5623 21.1169L19.1019 14.822H13.9174Z" fill="#FFD54E"/>
<path d="M24.4401 25.4504L19.7693 23.1975V18.811C21.9779 18.5393 23.7595 16.9291 24.2866 14.822H19.1021V30.0887H24.4401V25.4504Z" fill="#FFB300"/>
<path d="M12.4294 30.0225V32.3416H19.102L20.0161 31.182L19.102 30.0225H12.4294Z" fill="#A26552"/>
<path d="M19.1021 30.0225H25.7746V32.3416H19.1021V30.0225Z" fill="#84584C"/>
<path d="M12.4294 6.65845V8.97761H19.102L19.8092 7.81803L19.102 6.65845H12.4294Z" fill="#A26552"/>
<path d="M19.1021 6.65845H25.7746V8.97761H19.1021V6.65845Z" fill="#84584C"/>
</g>
<defs>
<clipPath id="clip0">
<rect width="14.3265" height="26.2653" fill="white" transform="translate(11.9387 6.36743)"/>
</clipPath>
</defs>
</svg>
