<svg width="31" height="32" viewBox="0 0 31 32" fill="none" xmlns="http://www.w3.org/2000/svg">
<circle cx="15.2384" cy="16.1456" r="15.2384" fill="#333333"/>
<g clip-path="url(#clip0)">
<path d="M10.7559 7.87109V11.4957C10.7559 11.8375 10.7976 12.1741 10.8758 12.4899L14.9273 15.6382L15.4801 11.097L14.9273 7.87109H10.7559Z" fill="white"/>
<path d="M18.9789 12.4899C19.0571 12.1689 19.0988 11.8375 19.0988 11.4957V7.87109H14.9274V15.6382L18.9789 12.4899Z" fill="#E9EDF5"/>
<path d="M14.9273 16.6531C12.6226 16.6531 10.7559 18.5068 10.7559 20.7955L14.9273 24.4202L15.4801 20.7955L14.9273 16.6531Z" fill="white"/>
<path d="M14.9274 16.6531V24.4202L19.0988 20.7955C19.0988 18.5068 17.2321 16.6531 14.9274 16.6531Z" fill="#E9EDF5"/>
<path d="M10.8758 12.49C11.2826 14.1366 12.68 15.3897 14.4059 15.6072V19.0351L10.7559 20.7956V24.4203H14.9273L15.2871 17.4092L14.9273 12.49H10.8758Z" fill="#FFD54E"/>
<path d="M19.0988 20.7956L15.4488 19.0351V15.6072C17.1747 15.3949 18.5669 14.1366 18.9789 12.49H14.9274V24.4203H19.0988V20.7956Z" fill="#FFB300"/>
<path d="M9.71307 24.3684V26.1807H14.9274L15.6417 25.2746L14.9274 24.3684H9.71307Z" fill="#A26552"/>
<path d="M14.9274 24.3684H20.1416V26.1807H14.9274V24.3684Z" fill="#84584C"/>
<path d="M9.71307 6.1106V7.92292H14.9274L15.4801 7.01676L14.9274 6.1106H9.71307Z" fill="#A26552"/>
<path d="M14.9274 6.1106H20.1416V7.92292H14.9274V6.1106Z" fill="#84584C"/>
</g>
<defs>
<clipPath id="clip0">
<rect width="11.1956" height="20.5252" fill="white" transform="translate(9.32959 5.88306)"/>
</clipPath>
</defs>
</svg>
