<svg width="1380" height="300" viewBox="0 0 1380 300" fill="none" xmlns="http://www.w3.org/2000/svg">
<g clip-path="url(#clip0_10162_47076)">
<path d="M1386.57 -464.059H9.88446V453.729H1386.57V-464.059Z" fill="#B4C47B"/>
<path d="M166.147 280.359L162.824 -322.499H136.337L103.48 283.498L166.147 280.359Z" fill="#90A157"/>
<path d="M245.169 235.46L279.989 -277.087L313.379 -275.729L322.189 238.673L245.169 235.46Z" fill="#90A157"/>
<path d="M521.973 238.03L505.636 -275.453L538.989 -277.399L598.92 233.552L521.973 238.03Z" fill="#90A157"/>
<path d="M662.138 232.891L725.612 -276.903L758.854 -273.654L738.865 240.417L662.138 232.891Z" fill="#90A157"/>
<path d="M884.481 232.891L947.937 -276.903L981.197 -273.654L961.208 240.417L884.481 232.891Z" fill="#90A157"/>
<path d="M1056.11 232.891L1119.58 -276.903L1152.82 -273.654L1132.83 240.417L1056.11 232.891Z" fill="#90A157"/>
<path d="M785.965 325.019L759.496 -58.1209L780.367 -345.572L730.201 -351.409L700.905 -58.1209L689.304 329.956L785.965 325.019Z" fill="#6C8F3A"/>
<path d="M710.615 110.586L675.39 34.2263H671.554L704.099 133.659L710.615 110.586Z" fill="#6C8F3A"/>
<path d="M1081.62 330.892L1054.07 -68.1255L1075.8 -367.508L1023.56 -373.565L993.037 -68.1255L980.959 336.05L1081.62 330.892Z" fill="#6C8F3A"/>
<path d="M1003.15 107.576L966.476 28.0591H962.474L996.377 131.622L1003.15 107.576Z" fill="#6C8F3A"/>
<path d="M1331.31 330.892L1303.76 -68.1255L1325.5 -367.508L1273.24 -373.565L1242.73 -68.1255L1230.65 336.05L1331.31 330.892Z" fill="#6C8F3A"/>
<path d="M1252.84 107.576L1216.17 28.0591H1212.15L1246.07 131.622L1252.84 107.576Z" fill="#6C8F3A"/>
<path d="M519.752 278.615L536.162 -330.447H478.011V-91.4367L435.26 280.359L519.752 278.615Z" fill="#6C8F3A"/>
<path d="M245.168 273.054L233.659 -336.119L175.563 -333.457L186.522 -94.7039L160.842 278.652L245.168 273.054Z" fill="#6C8F3A"/>
<path d="M1037.66 -171.853C1037.66 -171.853 1048.8 2.52632 1144.56 7.51908C1240.33 12.5118 1269.27 -108.251 1269.27 -108.251" stroke="#6C8F3A" stroke-width="2" stroke-miterlimit="10"/>
<path d="M372.924 259.874L391.078 -97.5495V-308.182H438.785L435.591 -55.937L440.676 259.874H372.924Z" fill="#388234"/>
<path d="M392.95 37.5674L358.221 -11.8279H352.825L389.701 48.1771L392.95 37.5674Z" fill="#388234"/>
<path d="M341.077 -307.429L363.012 -187.621L406.791 -15.2052L404.68 22.8095L352.825 -182.61L334.267 -307.429H341.077Z" fill="#388234"/>
<path d="M420.135 57.9608L508.482 -87.123H518.1L420.135 110.605V57.9608Z" fill="#388234"/>
<path d="M772.658 284.654L787.049 -36.4432L789.71 -383.147L839.95 -388.984L847.457 -19.5926L869.466 289.628L772.658 284.654Z" fill="#388234"/>
<path d="M848.118 69.8921L883.398 -6.59631H887.253L854.653 93.0203L848.118 69.8921Z" fill="#388234"/>
<path d="M464.63 139.974C464.63 139.974 502.938 121.288 513.878 127.456C524.818 133.623 502.149 143.113 502.149 143.113C502.149 143.113 518.32 146.601 524.176 154.384C524.176 154.384 538.86 133.825 547.396 136.211C555.931 138.598 545.083 154.384 545.083 154.384C545.083 154.384 564.852 145.206 567.11 147.041C569.368 148.877 558.85 162.166 558.85 162.166C558.85 162.166 571.203 166.04 576.398 172.207C579.169 160.808 577.921 151.685 582.253 151.685C586.585 151.685 587.87 166.15 587.87 166.15C587.87 166.15 610.264 152.034 612.779 153.411C615.294 154.787 609.787 162.166 609.787 162.166C609.787 162.166 628.73 164.424 625.977 168.206C624.644 170.234 622.876 171.94 620.8 173.198C620.8 173.198 640.992 186.616 640.992 197.813L710.743 207.964C710.743 207.964 729.466 182.743 734.037 182.266C738.608 181.789 731.394 196.712 731.394 196.712C731.394 196.712 765.462 182.138 773.392 184.542C781.321 186.947 768.564 196.712 768.564 196.712L783.028 201.741C783.028 201.741 781.982 187.295 785.782 187.295C789.581 187.295 793.344 204.164 793.344 204.164C793.344 204.164 818.822 201.741 831.212 202.09C843.602 202.439 823.631 213.104 823.631 213.104C823.631 213.104 849.109 223.181 847.035 226.393C844.961 229.605 840.5 228.945 840.5 228.945C840.5 228.945 863.096 237.59 863.096 244.822C863.096 252.055 853.129 251.027 853.129 251.027C853.129 251.027 875.56 265.124 882.076 276.486C892.355 266.849 903.717 259.966 905.443 263.068C907.168 266.17 892.704 281.516 892.704 281.516C892.704 281.516 914.033 279.276 914.033 282.36C914.033 285.444 906.691 289.702 906.691 289.702L932.848 303.671V312.5H464.63V139.974Z" fill="#6C8F3A"/>
<path d="M103.48 105.723C103.48 105.723 141.715 87.0547 152.729 93.2039C163.742 99.3531 141.018 108.88 141.018 108.88C141.018 108.88 157.171 112.349 163.045 120.132C163.045 120.132 177.729 99.5917 186.265 101.978C194.8 104.364 183.934 120.132 183.934 120.132C183.934 120.132 203.703 110.954 205.96 112.79C208.218 114.625 197.7 127.915 197.7 127.915C197.7 127.915 210.054 131.769 215.23 137.937C218.002 126.556 216.772 117.434 221.104 117.434C225.436 117.434 226.611 131.879 226.611 131.879C226.611 131.879 249.005 117.782 251.538 119.159C254.071 120.536 248.546 127.915 248.546 127.915C248.546 127.915 267.471 130.172 264.717 133.954C263.38 135.972 261.62 137.676 259.559 138.946C259.559 138.946 279.751 152.364 279.751 163.543L349.502 173.712C349.502 173.712 368.207 148.491 372.796 148.014C377.385 147.537 370.153 162.46 370.153 162.46C370.153 162.46 404.221 147.886 412.132 150.309C420.044 152.732 407.323 162.46 407.323 162.46L421.769 167.508C421.769 167.508 420.741 153.062 424.522 153.062C428.304 153.062 432.103 169.913 432.103 169.913C432.103 169.913 457.563 167.508 469.953 167.857C482.343 168.206 462.39 178.87 462.39 178.87C462.39 178.87 487.85 188.929 485.794 192.16C483.738 195.39 479.241 194.693 479.241 194.693C479.241 194.693 501.965 203.302 501.965 210.534C501.965 217.766 491.98 216.72 491.98 216.72C491.98 216.72 514.429 230.835 520.927 242.198C531.224 232.561 542.568 225.677 544.294 228.779C546.019 231.882 531.555 247.135 531.555 247.135C531.555 247.135 552.884 245.043 552.884 248.145C552.884 251.247 545.542 255.487 545.542 255.487L571.735 269.419V278.248H103.48V105.723Z" fill="#388234"/>
<path d="M1381.57 83.1263C1381.57 83.1263 1343.26 64.4585 1332.34 70.6261C1321.42 76.7936 1344.05 86.2835 1344.05 86.2835C1344.05 86.2835 1327.9 89.7527 1322.03 97.5539C1322.03 97.5539 1307.34 76.9955 1298.81 79.3817C1290.27 81.768 1301.12 97.5539 1301.12 97.5539C1301.12 97.5539 1281.35 88.376 1279.09 90.2116C1276.84 92.0472 1287.35 105.337 1287.35 105.337C1287.35 105.337 1275 109.21 1269.82 115.359C1267.05 103.978 1268.28 94.8556 1263.95 94.8556C1259.62 94.8556 1258.44 109.32 1258.44 109.32C1258.44 109.32 1236.05 95.2044 1233.52 96.5811C1230.98 97.9577 1236.51 105.337 1236.51 105.337C1236.51 105.337 1217.58 107.594 1220.34 111.376C1221.67 113.394 1223.43 115.098 1225.49 116.369C1225.49 116.369 1205.3 129.787 1205.3 140.984L1135.55 151.134C1135.55 151.134 1116.85 125.914 1112.26 125.436C1107.67 124.959 1114.9 139.882 1114.9 139.882C1114.9 139.882 1080.83 125.308 1072.92 127.731C1065.01 130.154 1077.86 139.846 1077.86 139.846L1063.41 144.893C1063.41 144.893 1064.44 130.447 1060.66 130.447C1056.88 130.447 1053.08 147.298 1053.08 147.298C1053.08 147.298 1027.62 144.893 1015.23 145.242C1002.84 145.591 1022.79 156.256 1022.79 156.256C1022.79 156.256 997.332 166.315 999.388 169.545C1001.44 172.776 1005.94 172.078 1005.94 172.078C1005.94 172.078 983.217 180.687 983.217 187.919C983.217 195.151 993.202 194.105 993.202 194.105C993.202 194.105 970.753 208.221 964.255 219.583C953.957 209.946 942.614 203.063 940.888 206.165C939.163 209.267 953.627 224.612 953.627 224.612C953.627 224.612 932.279 222.373 932.279 225.457C932.279 228.541 939.622 232.799 939.622 232.799L913.428 246.731V255.56H1381.57V83.1263Z" fill="#388234"/>
<path d="M1026.19 123.417C1026.19 123.417 1062.33 131.879 1067.03 164.882C1037.92 163.102 1026.19 123.417 1026.19 123.417Z" fill="#CC6127"/>
<path d="M1074.06 125.932C1074.06 125.932 1098.71 155.117 1080.12 183.807C1061.96 152.86 1074.06 125.932 1074.06 125.932Z" fill="#CC6127"/>
<path d="M1097.43 146.655C1097.43 146.655 1116.15 179.953 1092.51 204.641C1080.5 170.83 1097.43 146.655 1097.43 146.655Z" fill="#CC6127"/>
<path d="M1114.81 170.646C1114.81 170.646 1129.92 205.724 1103.8 227.787C1095.43 192.893 1114.81 170.646 1114.81 170.646Z" fill="#CC6127"/>
<path d="M1016.77 168.701C1016.77 168.701 1050.2 153.044 1074.41 177.163C1039.44 189.406 1016.77 168.701 1016.77 168.701Z" fill="#CC6127"/>
<path d="M1032.74 188.837C1032.74 188.837 1067.21 175.639 1089.64 201.466C1053.85 211.084 1032.74 188.837 1032.74 188.837Z" fill="#CC6127"/>
<path d="M1042.98 209.083C1042.98 209.083 1077.45 195.904 1099.89 221.712C1064.04 231.349 1042.98 209.083 1042.98 209.083Z" fill="#CC6127"/>
<path d="M1044.16 141.534C1044.16 141.534 1081.95 172.041 1109.49 242.711" stroke="#0E2B14" stroke-width="0.58" stroke-miterlimit="10"/>
<path d="M420.209 76.0048C420.209 76.0048 385.682 89.6063 385.847 122.959C414.39 116.975 420.209 76.0048 420.209 76.0048Z" fill="#CC6127"/>
<path d="M373.218 85.4387C373.218 85.4387 353.027 117.91 375.641 143.59C389.096 110.311 373.218 85.4387 373.218 85.4387Z" fill="#CC6127"/>
<path d="M353.118 109.338C353.118 109.338 339.425 145.003 366.408 166.002C373.383 130.796 353.118 109.338 353.118 109.338Z" fill="#CC6127"/>
<path d="M339.407 135.605C339.407 135.605 329.55 172.5 358.589 190.544C361.819 154.805 339.407 135.605 339.407 135.605Z" fill="#CC6127"/>
<path d="M436.123 119.434C436.123 119.434 400.77 108.788 380.322 136.175C416.685 143.168 436.123 119.434 436.123 119.434Z" fill="#CC6127"/>
<path d="M423.238 141.68C423.238 141.68 387.205 133.641 368.813 162.441C405.598 166.754 423.238 141.68 423.238 141.68Z" fill="#CC6127"/>
<path d="M416.116 163.176C416.116 163.176 380.083 155.155 361.691 183.955C398.476 188.269 416.116 163.176 416.116 163.176Z" fill="#CC6127"/>
<path d="M405.065 96.5256C405.065 96.5256 372.117 132.209 355.156 206.128" stroke="#0E2B14" stroke-width="0.58" stroke-miterlimit="10"/>
<path d="M718.27 183.055C718.27 183.055 683.743 196.675 683.889 230.009C712.433 224.025 718.27 183.055 718.27 183.055Z" fill="#CC6127"/>
<path d="M671.26 192.508C671.26 192.508 651.069 224.961 673.683 250.641C687.138 217.38 671.26 192.508 671.26 192.508Z" fill="#CC6127"/>
<path d="M651.161 216.407C651.161 216.407 637.486 252.072 664.45 273.053C671.426 237.865 651.161 216.407 651.161 216.407Z" fill="#CC6127"/>
<path d="M637.449 242.637C637.449 242.637 627.61 279.551 656.631 297.576C659.862 261.856 637.449 242.637 637.449 242.637Z" fill="#CC6127"/>
<path d="M734.166 226.485C734.166 226.485 698.831 215.839 678.364 243.225C714.745 250.219 734.166 226.485 734.166 226.485Z" fill="#CC6127"/>
<path d="M721.298 248.713C721.298 248.713 685.266 240.692 666.855 269.492C703.64 273.842 721.298 248.713 721.298 248.713Z" fill="#CC6127"/>
<path d="M714.158 270.171C714.158 270.171 678.144 262.131 659.733 290.931C696.518 295.336 714.158 270.171 714.158 270.171Z" fill="#CC6127"/>
<path d="M703.126 203.595C703.126 203.595 670.086 239.279 653.198 313.179" stroke="#0E2B14" stroke-width="0.58" stroke-miterlimit="10"/>
<path d="M816.968 126.996C816.968 126.996 851.496 140.616 851.349 173.95C822.714 167.966 816.968 126.996 816.968 126.996Z" fill="#CC6127"/>
<path d="M863.959 136.449C863.959 136.449 884.15 168.902 861.555 194.582C848.081 161.322 863.959 136.449 863.959 136.449Z" fill="#CC6127"/>
<path d="M884.059 160.349C884.059 160.349 897.752 196.014 870.769 217.013C863.794 181.807 884.059 160.349 884.059 160.349Z" fill="#CC6127"/>
<path d="M897.77 186.598C897.77 186.598 907.627 223.512 878.589 241.537C875.358 205.798 897.77 186.598 897.77 186.598Z" fill="#CC6127"/>
<path d="M813.94 192.674C813.94 192.674 849.972 184.634 868.383 213.434C831.58 217.766 813.94 192.674 813.94 192.674Z" fill="#CC6127"/>
<path d="M821.062 214.186C821.062 214.186 857.094 206.146 875.505 234.946C838.72 239.278 821.062 214.186 821.062 214.186Z" fill="#CC6127"/>
<path d="M832.112 147.536C832.112 147.536 865.06 183.22 882.021 257.139" stroke="#0E2B14" stroke-width="0.58" stroke-miterlimit="10"/>
<path d="M1259.86 187.68L1276.54 133.824C1271.69 129.855 1266.47 126.369 1260.94 123.417L1254.62 148.454L1258.3 122.003C1251.75 118.774 1244.85 116.311 1237.74 114.661L1236.42 187.093L1226.78 112.807C1214.79 111.494 1202.66 112.605 1191.11 116.074L1212.26 180.944L1183.53 118.718L1182.78 119.011C1176.18 121.699 1169.92 125.162 1164.13 129.327L1187.24 167.617L1156.79 135.201C1150.89 140.457 1145.71 146.454 1141.35 153.043L1197.72 205.559L1135.99 162.276C1130.57 172.943 1127.19 184.528 1126.02 196.436L1168.7 209.872L1125.58 204.2C1125.44 211.968 1126.21 219.725 1127.9 227.31L1156.48 227.769L1129.55 233.735C1130.53 237.083 1131.68 240.38 1133 243.61C1153.19 292.95 1208.15 317.143 1255.8 297.649C1303.45 278.156 1325.66 222.446 1305.47 173.051C1300.49 160.804 1293.11 149.681 1283.75 140.341L1259.86 187.68Z" fill="#0E2B14"/>
<path d="M1098.38 313.564L1123.14 -173.671V-460.81H1188.18L1183.83 -116.951L1190.75 313.564H1098.38Z" fill="#2C6629"/>
<path d="M1125.71 10.5296L1078.34 -56.7993H1070.98L1121.27 24.9939L1125.71 10.5296Z" fill="#2C6629"/>
<path d="M1162.75 38.3198L1283.2 -159.463H1296.31L1162.75 110.072V38.3198Z" fill="#2C6629"/>
<path d="M864.51 313.564L872.256 -227.141L864.51 -461.25H934.445L949.625 -22.8602L980.371 312.261L864.51 313.564Z" fill="#2C6629"/>
<path d="M903.736 97.9392L825.265 -36.4432L817.868 -32.3132L886.188 120.168L903.736 97.9392Z" fill="#2C6629"/>
<path d="M560.208 318.575L590.972 -126.974L566.706 -461.25L625.041 -468.024L659.127 -126.974L672.6 324.32L560.208 318.575Z" fill="#2C6629"/>
<path d="M647.82 69.2129L688.79 -19.5922H693.251L655.401 96.049L647.82 69.2129Z" fill="#2C6629"/>
<path d="M13.4639 318.575L44.2282 -126.974L19.9435 -461.25L78.2964 -468.024L112.365 -126.974L125.856 324.32L13.4639 318.575Z" fill="#2C6629"/>
<path d="M101.076 69.2129L142.028 -19.5922H146.506L108.639 96.049L101.076 69.2129Z" fill="#2C6629"/>
<path d="M251.575 307.378L297.225 -104.598L293.206 -325.216L308.459 -468.795H351.448L341.812 -329.328L357.799 -113.813V307.378H251.575Z" fill="#2C6629"/>
<path d="M308.074 -0.318466L235.201 -144.172L211.559 -249.92H206.199L222.719 -140.74L292.563 46.5621L308.074 -0.318466Z" fill="#2C6629"/>
<path d="M1002.6 231.037L1019.49 209.652C1014.51 203.58 1008.4 198.531 1001.5 194.784L992.798 212.663L996.341 192.27C987.325 188.404 977.503 186.792 967.724 187.571L969.119 223.401L959.427 188.819C949.182 191.039 939.692 195.892 931.894 202.898L950.139 229.789L929.177 205.779C924.161 210.943 920.097 216.952 917.173 223.529L925.763 231.845L916.053 226.118C912.239 235.9 911.028 246.506 912.54 256.896C914.051 267.287 918.233 277.108 924.677 285.399C931.12 293.689 939.604 300.166 949.3 304.197C958.996 308.227 969.571 309.672 979.993 308.392C990.415 307.111 1000.33 303.148 1008.76 296.89C1017.19 290.633 1023.85 282.294 1028.1 272.69C1032.34 263.086 1034.02 252.545 1032.97 242.098C1031.92 231.65 1028.18 221.653 1022.11 213.085L1002.6 231.037Z" fill="#4D7306"/>
<path d="M89.5669 141.057C159.098 143.131 222.426 217.472 254.769 220.225C287.111 222.979 337.369 171.344 393.134 188.562C448.899 205.78 464.777 273.843 464.777 273.843L101.333 292.492L89.5669 141.057Z" fill="#B89309"/>
<path d="M375.935 183.734L379.698 278.266" stroke="#B5A53A" stroke-miterlimit="10"/>
<path d="M405.91 192.214L386.967 277.881" stroke="#B5A53A" stroke-miterlimit="10"/>
<path d="M393.318 277.568L436.766 218.665" stroke="#B5A53A" stroke-miterlimit="10"/>
<path d="M372.723 278.615L338.287 189.112" stroke="#B5A53A" stroke-miterlimit="10"/>
<path d="M119.744 146.197L116.935 292.492" stroke="#B5A53A" stroke-miterlimit="10"/>
<path d="M126.811 291.189L157.263 162.515" stroke="#B5A53A" stroke-miterlimit="10"/>
<path d="M136.337 291.189L194.58 186.139" stroke="#B5A53A" stroke-miterlimit="10"/>
<path d="M105.812 -471.676L77.1951 -255.427L153.794 371.018H-7.47998V-246.469L1.82638 -471.676H105.812Z" fill="#0E2B14"/>
<path d="M155.244 -5.91772C187.623 -2.61369 159.961 77.8579 138.614 77.087C117.266 76.316 124.571 -9.05656 155.244 -5.91772Z" fill="#967C1C"/>
<path d="M219.158 100.252C241.699 109.925 203.703 161.597 188.523 156.255C173.342 150.914 197.774 91.0923 219.158 100.252Z" fill="#5D701E"/>
<path d="M155.244 -5.91772C155.244 -5.91772 88.4837 291.776 81.4535 378.305C130.188 254.881 219.122 100.252 219.122 100.252" stroke="#0E2B14" stroke-width="0.75" stroke-miterlimit="10"/>
<path d="M453.011 378.948C453.011 378.948 1008.11 218.408 1386.24 203.705V451.508H453.011V378.948Z" fill="#12381A"/>
<path d="M1305.14 345.43C1305.14 345.43 1199.78 180.742 1176.23 166.388C1152.68 152.034 1057.85 140.213 1057.85 140.213L1158.11 188.287L1280.69 380.306L1305.14 345.43Z" fill="#967C1C"/>
<path d="M1269.27 330.36C1269.27 330.36 1159.25 214.021 1089.73 195.445C1129.66 240.876 1260.31 343.429 1260.31 343.429L1269.27 330.36Z" fill="#967C1C"/>
<path d="M1288.56 386.491C1288.56 386.491 1189.98 158.421 1181.5 54.0322C1222.87 103.134 1314.9 386.491 1314.9 386.491H1288.56Z" fill="#967C1C"/>
<path d="M1217.53 455.748H1391.36L1385.41 -5.16473L1357.27 -481.882H1289.39L1278.54 -13.076L1217.53 455.748Z" fill="#0E2B14"/>
<path d="M1283.2 76.8671L1223.24 -13.076L1217.53 0.305305L1283.2 118.516V76.8671Z" fill="#0E2B14"/>
<path d="M1369.94 132.834L1417.42 71.0301L1413.29 65.3398L1365.27 115.947L1369.94 132.834Z" fill="#0E2B14"/>
<path d="M1347.85 -88.4998L1532.55 -380.43L1561.97 -480.854H1572.82L1544.94 -370.371L1365.27 7.5191L1347.85 -88.4998Z" fill="#0E2B14"/>
<path d="M-9.77441 268.96L411.49 247.281L943.715 334.086V451.875H-11.3163L-9.77441 268.96Z" fill="#1C5727"/>
<path d="M1.82629 286.306L633.723 337.408L1236.18 455.748H1.82629V286.306Z" fill="#12381A"/>
<path d="M1454 338.528L1496.37 201.502C1484.03 191.422 1470.74 182.564 1456.68 175.051L1440.64 238.764L1449.82 171.472C1433.17 163.213 1415.61 156.911 1397.51 152.694L1394.11 336.949L1369.71 148.05C1339.19 144.716 1308.3 147.544 1278.89 156.365L1332.69 321.402L1259.58 163.083L1257.74 163.836C1240.97 170.687 1225.07 179.498 1210.37 190.085L1269.11 287.48L1191.66 205.008C1176.69 218.397 1163.5 233.66 1152.42 250.42L1295.85 383.977L1138.8 273.842C1125.03 300.982 1116.44 330.451 1113.47 360.738L1222.02 394.99L1112.31 380.581C1111.96 400.324 1113.93 420.04 1118.2 439.319L1190.91 440.457L1122.41 455.637C1124.9 464.167 1127.83 472.561 1131.2 480.785C1182.6 606.265 1322.38 667.811 1443.58 618.251C1564.78 568.69 1621.39 426.8 1570.07 301.376C1557.37 270.194 1538.55 241.871 1514.73 218.077L1454 338.528Z" fill="#091A07"/>
<path d="M-48.3216 335.225L-89.7322 201.54C-77.6927 191.706 -64.7279 183.063 -51.0199 175.731L-28.993 251.816L-44.1549 172.17C-27.9073 164.133 -10.7836 158.004 6.8741 153.906L20.5675 361.95L33.9855 149.391C63.746 146.149 93.8544 148.901 122.534 157.486L91.0719 253.964L141.348 164.02L143.184 164.755C159.551 171.465 175.066 180.091 189.404 190.453L93.8069 351.836L207.613 204.99C222.234 218.047 235.104 232.941 245.903 249.301L180.061 317.695L259.192 272.173C272.632 298.644 281.012 327.392 283.899 356.939L113.521 402.829L285.037 376.305C285.42 395.539 283.523 414.75 279.384 433.538L208.457 434.658L275.29 449.471C272.861 457.788 270 465.974 266.718 473.994C216.644 596.427 80.187 656.468 -37.9873 608.101C-156.162 559.734 -211.633 421.331 -161.54 298.898C-149.172 268.507 -130.841 240.902 -107.629 217.711L-48.3216 335.225Z" fill="#091A07"/>
<path d="M136.557 -40.4811C189.936 -19.7758 105.536 103.832 69.6691 92.5981C33.802 81.3644 85.9691 -60.1034 136.557 -40.4811Z" fill="#091A07"/>
<path d="M219.067 36.6866C252.823 63.5961 164.293 133.587 141.018 117.452C117.743 101.317 187.073 11.2088 219.067 36.6866Z" fill="#091A07"/>
<path d="M131.932 -30.4773C-2.81776 183.257 1.82626 437.209 1.82626 437.209C1.82626 437.209 69.4488 149.684 217.69 39.6783" stroke="#091A07" stroke-width="2" stroke-miterlimit="10"/>
<path d="M1327.74 -22.7683C1287.98 -7.3495 1350.83 84.7046 1377.53 76.3527C1404.24 68.0008 1365.4 -37.3795 1327.74 -22.7683Z" fill="#091A07"/>
<path d="M1267.9 93.5161C1234.14 120.426 1322.67 190.398 1345.94 174.281C1369.22 158.165 1299.96 68.0383 1267.9 93.5161Z" fill="#091A07"/>
<path d="M1355.03 26.3519C1489.78 240.086 1485.14 494.111 1485.14 494.111C1485.14 494.111 1417.44 206.569 1269.27 96.5627" stroke="#091A07" stroke-width="2" stroke-miterlimit="10"/>
<path d="M-20.6043 23.0669C-63.4283 53.8311 -109.318 71.9299 -128.775 46.5806C-163.926 0.691208 -115.559 -72.7318 -72.4593 -123.045L-63.8321 -58.2307L-63.1162 -133.71C-39.4006 -160.142 -19.4846 -177.984 -19.4846 -177.984C0.879471 -187.774 21.7417 -196.493 43.0167 -204.104L39.8228 -171.064L52.9472 -207.665C60.6566 -210.326 68.7514 -212.97 77.1951 -215.521L61.7212 -171.1L90.6131 -219.357C112.32 -225.498 134.441 -230.068 156.804 -233.033L150.6 -207.757L166.936 -234.171C186.779 -236.306 206.805 -236.072 226.593 -233.473C227.455 -214.53 216.772 -192.264 199.61 -170.127L151.628 -174.937L189.954 -158.416C178.547 -145.574 166.183 -133.614 152.968 -122.641L66.0715 -130.534L139.88 -112.05C122.164 -98.3085 103.164 -86.3094 83.1423 -76.2194L13.8861 -105.882L66.2 -68.7302C59.0596 -53.1278 42.9066 -32.9365 22.6602 -13.2408L-10.5821 -22.4187L14.8773 -5.89848C9.37061 -0.795593 3.55183 4.2155 -2.37706 9.06142L-58.2703 -29.9078L-20.6043 23.0669Z" fill="#091A07"/>
<path d="M1282.03 -164.713L1233.3 -147.551C1236.97 -142.319 1240.64 -137.088 1244.58 -131.893L1262.17 -139.07L1247.48 -128.057C1261.05 -110.79 1275.95 -94.618 1292.05 -79.6896L1331.99 -120.99L1299.1 -73.2651C1300.18 -72.2922 1301.27 -71.3194 1302.37 -70.3649C1316.32 -58.1974 1331.03 -46.9346 1346.42 -36.6454L1366.98 -66.4734L1350.46 -33.9654C1360 -27.7428 1369.62 -22.0526 1379.2 -16.9313L1396.9 -58.0482L1386.14 -13.2968C1401.89 -5.23102 1418.28 1.52234 1435.13 6.89447L1433.72 -22.7133L1441.3 8.63824C1467.28 16.0723 1491.84 18.789 1513.37 16.4027C1512.39 -22.0526 1494.24 -67.8134 1461.97 -112.198L1421.26 -90.4828L1457.51 -118.2C1448.74 -129.785 1439.34 -140.888 1429.37 -151.461L1407.86 -133.766L1426.21 -154.765C1417.65 -163.685 1408.47 -172.398 1398.68 -180.903C1395.38 -183.785 1392.05 -186.575 1388.69 -189.328L1359.73 -152.947L1379.63 -196.597C1356.68 -214.646 1331.81 -230.097 1305.47 -242.67L1295.56 -200.268L1296.31 -246.837C1277.03 -255.38 1256.83 -261.657 1236.1 -265.542L1235.72 -241.202L1229.73 -266.588C1215.91 -268.755 1201.86 -269.144 1187.94 -267.744C1188.26 -257.638 1189.56 -247.587 1191.83 -237.733L1218.48 -233.492L1193.15 -232.263C1199.48 -207.537 1211.51 -181.179 1228.43 -154.948L1282.03 -164.713Z" fill="#091A07"/>
<path d="M560.011 270.794C565.857 269.481 568.819 260.51 566.629 250.758C564.438 241.005 557.923 234.163 552.078 235.476C546.232 236.79 543.269 245.76 545.46 255.513C547.65 265.265 554.165 272.107 560.011 270.794Z" fill="#967C1C"/>
<path d="M537.983 299.177C543.172 296.181 543.326 286.735 538.328 278.078C533.33 269.422 525.073 264.833 519.884 267.829C514.695 270.824 514.541 280.27 519.539 288.927C524.536 297.583 532.794 302.172 537.983 299.177Z" fill="#5D701E"/>
<path d="M520.853 270.282C537.566 294.914 551.103 321.557 561.144 349.579H571.68C571.68 349.579 565.109 270.777 553.178 239.15" stroke="#0E2B14" stroke-width="0.75" stroke-miterlimit="10"/>
</g>
<defs>
<clipPath id="clip0_10162_47076">
<rect width="1380" height="300" fill="white"/>
</clipPath>
</defs>
</svg>
