<svg width="1380" height="300" viewBox="0 0 1380 300" fill="none" xmlns="http://www.w3.org/2000/svg">
<g clip-path="url(#clip0_10162_47383)">
<path d="M1387.22 -464.854H8.21997V454.481H1387.22V-464.854Z" fill="#238A80"/>
<path d="M164.746 280.82L161.418 -323.055H134.886L101.974 283.964L164.746 280.82Z" fill="#006B5E"/>
<path d="M243.901 235.845L278.781 -277.567L312.226 -276.207L321.052 239.063L243.901 235.845Z" fill="#006B5E"/>
<path d="M521.173 238.419L504.809 -275.931L538.217 -277.88L598.25 233.933L521.173 238.419Z" fill="#006B5E"/>
<path d="M661.574 233.271L725.155 -277.384L758.453 -274.129L738.43 240.809L661.574 233.271Z" fill="#006B5E"/>
<path d="M884.292 233.271L947.855 -277.384L981.172 -274.129L961.148 240.809L884.292 233.271Z" fill="#006B5E"/>
<path d="M1056.21 233.271L1119.79 -277.384L1153.09 -274.129L1133.06 240.809L1056.21 233.271Z" fill="#006B5E"/>
<path d="M785.611 325.554L759.097 -58.2316L780.003 -346.168L729.752 -352.015L700.406 -58.2316L688.786 330.5L785.611 325.554Z" fill="#005248"/>
<path d="M710.133 110.76L674.849 34.2716H671.006L703.606 133.872L710.133 110.76Z" fill="#005248"/>
<path d="M1081.77 331.438L1054.17 -68.2529L1075.94 -368.14L1023.61 -374.208L993.031 -68.2529L980.933 336.604L1081.77 331.438Z" fill="#005248"/>
<path d="M1003.16 107.745L966.425 28.0941H962.417L996.377 131.832L1003.16 107.745Z" fill="#005248"/>
<path d="M1331.88 331.438L1304.28 -68.2529L1326.05 -368.14L1273.7 -374.208L1243.15 -68.2529L1231.05 336.604L1331.88 331.438Z" fill="#005248"/>
<path d="M1253.28 107.745L1216.54 28.0941H1212.51L1246.49 131.832L1253.28 107.745Z" fill="#005248"/>
<path d="M518.948 279.073L535.386 -331.017H477.136V-91.6035L434.314 280.819L518.948 279.073Z" fill="#005248"/>
<path d="M243.901 273.502L232.372 -336.698L174.178 -334.032L185.155 -94.8761L159.432 279.11L243.901 273.502Z" fill="#005248"/>
<path d="M1037.73 -172.156C1037.73 -172.156 1048.89 2.51804 1144.81 7.51923C1240.74 12.5204 1269.73 -108.446 1269.73 -108.446" stroke="#1C5727" stroke-width="2" stroke-miterlimit="10"/>
<path d="M371.873 260.3L390.057 -97.7263V-308.714H437.844L434.645 -56.0436L439.738 260.3H371.873Z" fill="#003B34"/>
<path d="M391.933 37.6183L357.145 -11.8604H351.739L388.678 48.2458L391.933 37.6183Z" fill="#003B34"/>
<path d="M339.972 -307.96L361.944 -187.95L405.796 -15.2434L403.682 22.8354L351.739 -182.93L333.15 -307.96H339.972Z" fill="#003B34"/>
<path d="M419.163 58.0458L507.658 -87.2828H517.293L419.163 110.779V58.0458Z" fill="#003B34"/>
<path d="M772.28 285.122L786.695 -36.5174L789.361 -383.806L839.686 -389.653L847.206 -19.6383L869.252 290.104L772.28 285.122Z" fill="#003B34"/>
<path d="M847.868 69.9977L883.207 -6.61975H887.068L854.414 93.1649L847.868 69.9977Z" fill="#003B34"/>
<path d="M463.733 140.198C463.733 140.198 502.106 121.48 513.064 127.658C524.023 133.836 501.315 143.342 501.315 143.342C501.315 143.342 517.514 146.835 523.379 154.631C523.379 154.631 538.088 134.038 546.638 136.428C555.188 138.819 544.322 154.631 544.322 154.631C544.322 154.631 564.124 145.438 566.386 147.276C568.647 149.115 558.112 162.427 558.112 162.427C558.112 162.427 570.486 166.307 575.689 172.485C578.466 161.066 577.215 151.928 581.555 151.928C585.894 151.928 587.181 166.417 587.181 166.417C587.181 166.417 609.613 152.278 612.132 153.657C614.651 155.036 609.135 162.427 609.135 162.427C609.135 162.427 628.11 164.689 625.352 168.476C624.017 170.508 622.246 172.217 620.167 173.478C620.167 173.478 640.392 186.918 640.392 198.134L710.262 208.302C710.262 208.302 729.016 183.039 733.594 182.561C738.173 182.082 730.947 197.031 730.947 197.031C730.947 197.031 765.072 182.432 773.016 184.841C780.959 187.249 768.18 197.031 768.18 197.031L782.669 202.069C782.669 202.069 781.621 187.599 785.427 187.599C789.233 187.599 793.002 204.496 793.002 204.496C793.002 204.496 818.523 202.069 830.934 202.418C843.345 202.768 823.34 213.45 823.34 213.45C823.34 213.45 848.861 223.545 846.783 226.762C844.705 229.98 840.237 229.318 840.237 229.318C840.237 229.318 862.871 237.978 862.871 245.222C862.871 252.467 852.887 251.437 852.887 251.437C852.887 251.437 875.356 265.558 881.883 276.94C892.18 267.287 903.561 260.392 905.29 263.499C907.018 266.606 892.529 281.977 892.529 281.977C892.529 281.977 913.895 279.734 913.895 282.823C913.895 285.912 906.54 290.178 906.54 290.178L932.741 304.17V313.014H463.733V140.198Z" fill="#005248"/>
<path d="M101.974 105.888C101.974 105.888 140.273 87.1892 151.305 93.3487C162.337 99.5083 139.575 109.051 139.575 109.051C139.575 109.051 155.755 112.526 161.639 120.322C161.639 120.322 176.348 99.7473 184.898 102.138C193.448 104.528 182.563 120.322 182.563 120.322C182.563 120.322 202.365 111.129 204.627 112.967C206.888 114.806 196.353 128.118 196.353 128.118C196.353 128.118 208.727 131.979 213.912 138.157C216.689 126.757 215.457 117.619 219.796 117.619C224.135 117.619 225.312 132.09 225.312 132.09C225.312 132.09 247.744 117.969 250.281 119.348C252.818 120.727 247.284 128.118 247.284 128.118C247.284 128.118 266.241 130.38 263.483 134.167C262.143 136.189 260.38 137.896 258.316 139.168C258.316 139.168 278.541 152.609 278.541 163.807L348.411 173.993C348.411 173.993 367.147 148.73 371.744 148.251C376.34 147.773 369.096 162.722 369.096 162.722C369.096 162.722 403.222 148.123 411.146 150.55C419.071 152.977 406.329 162.722 406.329 162.722L420.799 167.778C420.799 167.778 419.77 153.308 423.557 153.308C427.345 153.308 431.151 170.187 431.151 170.187C431.151 170.187 456.654 167.778 469.065 168.128C481.476 168.477 461.489 179.16 461.489 179.16C461.489 179.16 486.992 189.235 484.932 192.472C482.873 195.708 478.368 195.009 478.368 195.009C478.368 195.009 501.131 203.632 501.131 210.877C501.131 218.121 491.129 217.073 491.129 217.073C491.129 217.073 513.616 231.212 520.125 242.594C530.439 232.941 541.802 226.046 543.531 229.153C545.259 232.26 530.77 247.54 530.77 247.54C530.77 247.54 552.136 245.444 552.136 248.551C552.136 251.658 544.781 255.906 544.781 255.906L571.019 269.861V278.705H101.974V105.888Z" fill="#003B34"/>
<path d="M1382.22 83.254C1382.22 83.254 1343.85 64.5547 1332.91 70.7327C1321.97 76.9106 1344.64 86.4165 1344.64 86.4165C1344.64 86.4165 1328.46 89.8916 1322.58 97.7059C1322.58 97.7059 1307.87 77.1128 1299.32 79.5031C1290.77 81.8934 1301.63 97.7059 1301.63 97.7059C1301.63 97.7059 1281.83 88.5126 1279.57 90.3513C1277.31 92.1899 1287.84 105.502 1287.84 105.502C1287.84 105.502 1275.47 109.382 1270.28 115.541C1267.51 104.141 1268.74 95.0031 1264.4 95.0031C1260.06 95.0031 1258.88 109.492 1258.88 109.492C1258.88 109.492 1236.45 95.3524 1233.92 96.7315C1231.38 98.1105 1236.91 105.502 1236.91 105.502C1236.91 105.502 1217.96 107.763 1220.71 111.551C1222.05 113.573 1223.82 115.279 1225.88 116.552C1225.88 116.552 1205.65 129.993 1205.65 141.209L1135.79 151.377C1135.79 151.377 1117.05 126.113 1112.45 125.635C1107.86 125.157 1115.1 140.106 1115.1 140.106C1115.1 140.106 1080.97 125.507 1073.05 127.934C1065.13 130.361 1078 140.069 1078 140.069L1063.53 145.125C1063.53 145.125 1064.56 130.655 1060.77 130.655C1056.98 130.655 1053.17 147.534 1053.17 147.534C1053.17 147.534 1027.67 145.125 1015.26 145.475C1002.85 145.824 1022.84 156.507 1022.84 156.507C1022.84 156.507 997.333 166.583 999.393 169.819C1001.45 173.055 1005.96 172.356 1005.96 172.356C1005.96 172.356 983.194 180.979 983.194 188.224C983.194 195.468 993.196 194.42 993.196 194.42C993.196 194.42 970.71 208.559 964.201 219.941C953.886 210.288 942.523 203.393 940.794 206.5C939.066 209.608 953.555 224.979 953.555 224.979C953.555 224.979 932.171 222.736 932.171 225.825C932.171 228.914 939.526 233.179 939.526 233.179L913.288 247.135V255.979H1382.22V83.254Z" fill="#003B34"/>
<path d="M1026.24 123.612C1026.24 123.612 1062.44 132.089 1067.15 165.148C1037.99 163.365 1026.24 123.612 1026.24 123.612Z" fill="#006B5E"/>
<path d="M1074.19 126.132C1074.19 126.132 1098.88 155.367 1080.26 184.105C1062.07 153.105 1074.19 126.132 1074.19 126.132Z" fill="#006B5E"/>
<path d="M1097.6 146.89C1097.6 146.89 1116.35 180.244 1092.67 204.974C1080.64 171.106 1097.6 146.89 1097.6 146.89Z" fill="#006B5E"/>
<path d="M1115.01 170.921C1115.01 170.921 1130.14 206.058 1103.98 228.159C1095.59 193.206 1115.01 170.921 1115.01 170.921Z" fill="#006B5E"/>
<path d="M1016.81 168.973C1016.81 168.973 1050.29 153.289 1074.54 177.449C1039.51 189.713 1016.81 168.973 1016.81 168.973Z" fill="#006B5E"/>
<path d="M1032.8 189.143C1032.8 189.143 1067.33 175.923 1089.8 201.793C1053.95 211.428 1032.8 189.143 1032.8 189.143Z" fill="#006B5E"/>
<path d="M1043.06 209.423C1043.06 209.423 1077.59 196.222 1100.06 222.073C1064.15 231.726 1043.06 209.423 1043.06 209.423Z" fill="#006B5E"/>
<path d="M1044.24 141.76C1044.24 141.76 1082.1 172.319 1109.68 243.108" stroke="#0E2B14" stroke-width="0.58" stroke-miterlimit="10"/>
<path d="M419.237 76.1202C419.237 76.1202 384.651 89.7448 384.817 123.153C413.408 117.159 419.237 76.1202 419.237 76.1202Z" fill="#006B5E"/>
<path d="M372.167 85.5702C372.167 85.5702 351.941 118.096 374.594 143.819C388.071 110.484 372.167 85.5702 372.167 85.5702Z" fill="#006B5E"/>
<path d="M352.033 109.51C352.033 109.51 338.317 145.235 365.345 166.27C372.332 131.004 352.033 109.51 352.033 109.51Z" fill="#006B5E"/>
<path d="M338.298 135.822C338.298 135.822 328.425 172.779 357.513 190.853C360.749 155.054 338.298 135.822 338.298 135.822Z" fill="#006B5E"/>
<path d="M435.178 119.623C435.178 119.623 399.765 108.959 379.283 136.392C415.707 143.397 435.178 119.623 435.178 119.623Z" fill="#006B5E"/>
<path d="M422.271 141.907C422.271 141.907 386.177 133.853 367.754 162.702C404.601 167.023 422.271 141.907 422.271 141.907Z" fill="#006B5E"/>
<path d="M415.137 163.439C415.137 163.439 379.043 155.404 360.62 184.252C397.467 188.573 415.137 163.439 415.137 163.439Z" fill="#006B5E"/>
<path d="M404.068 96.676C404.068 96.676 371.063 132.42 354.074 206.463" stroke="#0E2B14" stroke-width="0.58" stroke-miterlimit="10"/>
<path d="M717.8 183.351C717.8 183.351 683.215 196.994 683.362 230.384C711.953 224.39 717.8 183.351 717.8 183.351Z" fill="#006B5E"/>
<path d="M670.712 192.82C670.712 192.82 650.486 225.328 673.139 251.051C686.616 217.734 670.712 192.82 670.712 192.82Z" fill="#006B5E"/>
<path d="M650.578 216.76C650.578 216.76 636.88 252.485 663.89 273.501C670.877 238.254 650.578 216.76 650.578 216.76Z" fill="#006B5E"/>
<path d="M636.844 243.035C636.844 243.035 626.988 280.01 656.058 298.066C659.294 262.285 636.844 243.035 636.844 243.035Z" fill="#006B5E"/>
<path d="M733.723 226.855C733.723 226.855 698.329 216.19 677.828 243.623C714.27 250.629 733.723 226.855 733.723 226.855Z" fill="#006B5E"/>
<path d="M720.834 249.12C720.834 249.12 684.741 241.085 666.299 269.934C703.146 274.292 720.834 249.12 720.834 249.12Z" fill="#006B5E"/>
<path d="M713.682 270.614C713.682 270.614 677.607 262.561 659.165 291.41C696.012 295.823 713.682 270.614 713.682 270.614Z" fill="#006B5E"/>
<path d="M702.631 203.926C702.631 203.926 669.535 239.67 652.619 313.695" stroke="#0E2B14" stroke-width="0.58" stroke-miterlimit="10"/>
<path d="M816.666 127.198C816.666 127.198 851.251 140.841 851.104 174.231C822.421 168.237 816.666 127.198 816.666 127.198Z" fill="#006B5E"/>
<path d="M863.736 136.667C863.736 136.667 883.961 169.175 861.327 194.898C847.831 161.582 863.736 136.667 863.736 136.667Z" fill="#006B5E"/>
<path d="M883.869 160.607C883.869 160.607 897.586 196.332 870.557 217.367C863.57 182.101 883.869 160.607 883.869 160.607Z" fill="#006B5E"/>
<path d="M897.604 186.9C897.604 186.9 907.478 223.876 878.39 241.932C875.154 206.133 897.604 186.9 897.604 186.9Z" fill="#006B5E"/>
<path d="M813.632 192.986C813.632 192.986 849.725 184.933 868.167 213.782C831.302 218.121 813.632 192.986 813.632 192.986Z" fill="#006B5E"/>
<path d="M820.766 214.535C820.766 214.535 856.859 206.481 875.301 235.33C838.454 239.669 820.766 214.535 820.766 214.535Z" fill="#006B5E"/>
<path d="M831.835 147.772C831.835 147.772 864.839 183.516 881.828 257.56" stroke="#0E2B14" stroke-width="0.58" stroke-miterlimit="10"/>
<path d="M858.238 274.862L874.363 222.809C869.675 218.977 864.625 215.609 859.286 212.752L853.182 236.986L856.62 211.391C850.295 208.253 843.624 205.865 836.744 204.276L835.457 274.347L826.098 202.419C814.498 201.156 802.763 202.232 791.586 205.581L812.051 268.353L784.305 208.1L783.57 208.394C777.19 211 771.142 214.351 765.551 218.378L787.909 255.409L758.49 224.06C752.794 229.145 747.781 234.949 743.578 241.325L798.095 292.127L738.375 250.242C733.135 260.58 729.867 271.804 728.74 283.339L770 296.356L728.281 290.84C728.133 298.36 728.874 305.871 730.487 313.217L758.067 313.64L732.013 319.413C732.956 322.658 734.073 325.85 735.36 328.974C754.868 376.78 808.061 400.113 854.156 381.266C900.252 362.42 921.783 308.436 902.256 260.704C897.427 248.863 890.282 238.104 881.24 229.061L858.238 274.862Z" fill="#001210"/>
<path d="M1260.3 187.984L1277.01 134.038C1272.16 130.062 1266.92 126.57 1261.39 123.612L1255.06 148.692L1258.74 122.197C1252.18 118.962 1245.27 116.494 1238.14 114.842L1236.82 187.396L1227.17 112.985C1215.16 111.67 1203.01 112.783 1191.44 116.258L1212.62 181.236L1183.85 118.905L1183.09 119.2C1176.48 121.891 1170.21 125.36 1164.41 129.533L1187.56 167.888L1157.06 135.417C1151.15 140.682 1145.96 146.689 1141.6 153.289L1198.06 205.893L1136.23 162.537C1130.8 173.222 1127.41 184.827 1126.24 196.755L1168.99 210.214L1125.8 204.532C1125.66 212.313 1126.43 220.084 1128.12 227.681L1156.75 228.141L1129.77 234.117C1130.75 237.471 1131.91 240.773 1133.23 244.009C1153.46 293.432 1208.5 317.666 1256.24 298.139C1303.97 278.612 1326.22 222.809 1305.99 173.33C1301.01 161.063 1293.61 149.921 1284.24 140.565L1260.3 187.984Z" fill="#001210"/>
<path d="M1098.55 314.081L1123.36 -173.976V-461.599H1188.5L1184.14 -117.161L1191.07 314.081H1098.55Z" fill="#002823"/>
<path d="M1125.93 10.5344L1078.47 -56.9081H1071.1L1121.48 25.0231L1125.93 10.5344Z" fill="#002823"/>
<path d="M1163.03 38.3719L1283.69 -159.745H1296.82L1163.03 110.246V38.3719Z" fill="#002823"/>
<path d="M864.287 314.08L872.046 -227.537L864.287 -462.041H934.341L949.546 -22.9114L980.344 312.775L864.287 314.08Z" fill="#002823"/>
<path d="M903.58 98.0921L824.976 -36.5171L817.567 -32.3801L886.002 120.358L903.58 98.0921Z" fill="#002823"/>
<path d="M559.472 319.1L590.288 -127.201L565.981 -462.041L624.414 -468.826L658.558 -127.201L672.054 324.855L559.472 319.1Z" fill="#002823"/>
<path d="M647.232 69.3171L688.271 -19.6378H692.739L654.826 96.1985L647.232 69.3171Z" fill="#002823"/>
<path d="M11.8057 319.1L42.6218 -127.201L18.2962 -462.041L76.7475 -468.826L110.873 -127.201L124.388 324.855L11.8057 319.1Z" fill="#002823"/>
<path d="M99.5652 69.3171L140.586 -19.6378H145.072L107.141 96.1985L99.5652 69.3171Z" fill="#002823"/>
<path d="M250.318 307.884L296.046 -104.787L292.019 -325.777L307.298 -469.598H350.36L340.707 -329.896L356.722 -114.018V307.884H250.318Z" fill="#002823"/>
<path d="M306.912 -0.331772L233.917 -144.428L210.235 -250.354H204.866L221.414 -140.99L291.376 46.6279L306.912 -0.331772Z" fill="#002823"/>
<path d="M1002.61 231.414L1019.53 209.994C1014.54 203.911 1008.42 198.853 1001.51 195.1L992.792 213.009L996.341 192.581C987.309 188.71 977.471 187.094 967.676 187.874L969.073 223.765L959.365 189.125C949.102 191.349 939.596 196.209 931.785 203.227L950.061 230.164L929.064 206.114C924.039 211.286 919.968 217.305 917.039 223.894L925.644 232.223L915.917 226.486C912.097 236.286 910.884 246.909 912.398 257.317C913.912 267.725 918.101 277.563 924.555 285.867C931.01 294.172 939.508 300.66 949.22 304.697C958.932 308.734 969.526 310.182 979.965 308.899C990.405 307.616 1000.33 303.647 1008.78 297.379C1017.22 291.11 1023.9 282.758 1028.15 273.138C1032.4 263.517 1034.08 252.959 1033.03 242.493C1031.98 232.028 1028.23 222.015 1022.16 213.432L1002.61 231.414Z" fill="#002823"/>
<path d="M88.0368 141.283C157.686 143.361 221.12 217.827 253.517 220.585C285.915 223.343 336.257 171.621 392.116 188.868C447.975 206.115 463.88 274.292 463.88 274.292L99.8227 292.973L88.0368 141.283Z" fill="#004E4E"/>
<path d="M374.888 184.031L378.657 278.723" stroke="#00ABAB" stroke-miterlimit="10"/>
<path d="M404.914 192.526L385.939 278.337" stroke="#00ABAB" stroke-miterlimit="10"/>
<path d="M392.3 278.024L435.822 219.021" stroke="#00ABAB" stroke-miterlimit="10"/>
<path d="M371.67 279.072L337.177 189.418" stroke="#00ABAB" stroke-miterlimit="10"/>
<path d="M118.265 146.431L115.452 292.973" stroke="#00ABAB" stroke-miterlimit="10"/>
<path d="M125.344 291.667L155.847 162.776" stroke="#00ABAB" stroke-miterlimit="10"/>
<path d="M134.886 291.668L193.227 186.441" stroke="#00ABAB" stroke-miterlimit="10"/>
<path d="M104.309 -472.485L75.6442 -255.871L152.372 371.631H-9.17377V-246.898L0.148298 -472.485H104.309Z" fill="#001210"/>
<path d="M153.825 -5.93992C186.259 -2.63031 158.55 77.9771 137.166 77.2048C115.782 76.4326 123.1 -9.08405 153.825 -5.93992Z" fill="#001210"/>
<path d="M217.847 100.408C240.426 110.098 202.365 161.857 187.16 156.506C171.954 151.156 196.427 91.2334 217.847 100.408Z" fill="#174520"/>
<path d="M153.824 -5.94067C153.824 -5.94067 86.952 292.255 79.9099 378.93C128.727 255.298 217.81 100.408 217.81 100.408" stroke="#0E2B14" stroke-width="0.75" stroke-miterlimit="10"/>
<path d="M452.094 379.575C452.094 379.575 1008.13 218.764 1386.89 204.037V452.257H452.094V379.575Z" fill="#003B34"/>
<path d="M1305.66 346.001C1305.66 346.001 1200.12 181.035 1176.53 166.657C1152.94 152.278 1057.95 140.437 1057.95 140.437L1158.38 188.592L1281.17 380.935L1305.66 346.001Z" fill="#001210"/>
<path d="M1269.73 330.905C1269.73 330.905 1159.52 214.37 1089.89 195.763C1129.88 241.27 1260.76 343.996 1260.76 343.996L1269.73 330.905Z" fill="#001210"/>
<path d="M1289.06 387.131C1289.06 387.131 1190.3 158.676 1181.81 54.1108C1223.25 103.295 1315.44 387.131 1315.44 387.131H1289.06Z" fill="#001210"/>
<path d="M1217.9 456.504H1392.02L1386.07 -5.18604L1357.88 -482.707H1289.88L1279.02 -13.1107L1217.9 456.504Z" fill="#001210"/>
<path d="M1283.69 76.9841L1223.62 -13.1108L1217.9 0.293093L1283.69 118.704V76.9841Z" fill="#001210"/>
<path d="M1370.57 133.045L1418.13 71.1371L1413.99 65.4373L1365.9 116.129L1370.57 133.045Z" fill="#001210"/>
<path d="M1348.45 -88.6616L1533.45 -381.084L1562.93 -481.678H1573.79L1545.86 -371.008L1365.9 7.51932L1348.45 -88.6616Z" fill="#001210"/>
<path d="M-11.4721 269.401L410.503 247.686L943.626 334.637V452.624H-13.0165L-11.4721 269.401Z" fill="#006B5E"/>
<path d="M0.148132 286.777L633.111 337.965L1236.58 456.505H0.148132V286.777Z" fill="#003B34"/>
<path d="M1454.78 339.087L1497.21 201.83C1484.85 191.733 1471.54 182.86 1457.46 175.335L1441.39 239.155L1450.58 171.749C1433.9 163.476 1416.32 157.164 1398.18 152.94L1394.78 337.505L1370.35 148.288C1339.77 144.948 1308.83 147.781 1279.37 156.617L1333.26 321.932L1260.02 163.346L1258.19 164.1C1241.39 170.963 1225.46 179.788 1210.73 190.393L1269.57 287.953L1191.99 205.342C1176.99 218.753 1163.78 234.042 1152.68 250.83L1296.36 384.612L1139.04 274.292C1125.25 301.478 1116.64 330.996 1113.67 361.335L1222.41 395.644L1112.51 381.211C1112.15 400.987 1114.13 420.737 1118.41 440.048L1191.24 441.188L1122.62 456.394C1125.12 464.938 1128.06 473.346 1131.43 481.584C1182.91 607.275 1322.93 668.926 1444.33 619.282C1565.74 569.638 1622.45 427.508 1571.04 301.872C1558.31 270.638 1539.46 242.267 1515.6 218.433L1454.78 339.087Z" fill="#091A07"/>
<path d="M-50.0842 335.777L-91.5647 201.867C-79.5048 192.016 -66.5182 183.359 -52.7871 176.015L-30.723 252.228L-45.9104 172.448C-29.6354 164.397 -12.4828 158.258 5.20462 154.153L18.9211 362.548L32.3618 149.63C62.1725 146.383 92.3316 149.14 121.059 157.739L89.5445 254.379L139.906 164.284L141.744 165.02C158.139 171.742 173.68 180.382 188.042 190.761L92.2841 352.417L206.282 205.323C220.928 218.402 233.82 233.321 244.636 249.709L178.683 318.218L257.948 272.619C271.411 299.135 279.805 327.932 282.697 357.529L112.031 403.495L283.837 376.927C284.221 396.193 282.32 415.437 278.174 434.256L207.128 435.378L274.074 450.216C271.64 458.548 268.774 466.747 265.487 474.781C215.328 597.42 78.6412 657.563 -39.7325 609.114C-158.106 560.665 -213.671 422.029 -163.493 299.39C-151.105 268.947 -132.743 241.295 -109.492 218.065L-50.0842 335.777Z" fill="#091A07"/>
<path d="M135.107 -40.5625C188.575 -19.8222 104.033 103.994 68.1055 92.7413C32.1779 81.4886 84.4329 -60.2179 135.107 -40.5625Z" fill="#091A07"/>
<path d="M217.755 36.7356C251.568 63.6905 162.889 133.799 139.575 117.637C116.26 101.475 185.707 11.2148 217.755 36.7356Z" fill="#091A07"/>
<path d="M130.473 -30.5419C-4.50357 183.553 0.14828 437.933 0.14828 437.933C0.14828 437.933 67.8849 149.924 216.376 39.7321" stroke="#091A07" stroke-width="2" stroke-miterlimit="10"/>
<path d="M1328.29 -22.8192C1288.47 -7.37437 1351.43 84.835 1378.18 76.4691C1404.93 68.1031 1366.02 -37.455 1328.29 -22.8192Z" fill="#091A07"/>
<path d="M1268.35 93.6615C1234.54 120.616 1323.22 190.707 1346.53 174.563C1369.85 158.42 1300.48 68.1407 1268.35 93.6615Z" fill="#091A07"/>
<path d="M1355.64 26.3838C1490.61 240.479 1485.96 494.933 1485.96 494.933C1485.96 494.933 1418.15 206.905 1269.73 96.713" stroke="#091A07" stroke-width="2" stroke-miterlimit="10"/>
<path d="M-22.3202 23.0934C-65.2164 53.9096 -111.183 72.0389 -130.673 46.6468C-165.884 0.680008 -117.435 -72.8669 -74.2627 -123.265L-65.6209 -58.3414L-64.9039 -133.948C-41.1482 -160.424 -21.1986 -178.296 -21.1986 -178.296C-0.800186 -188.103 20.0973 -196.837 41.4081 -204.461L38.2088 -171.365L51.3553 -208.028C59.0778 -210.694 67.1863 -213.341 75.6442 -215.897L60.1442 -171.401L89.0849 -219.74C110.829 -225.89 132.987 -230.468 155.387 -233.438L149.173 -208.12L165.537 -234.578C185.413 -236.717 205.473 -236.483 225.294 -233.879C226.158 -214.904 215.457 -192.601 198.265 -170.427L150.202 -175.244L188.594 -158.696C177.167 -145.832 164.782 -133.852 151.545 -122.86L64.5018 -130.767L138.435 -112.251C120.689 -98.4867 101.657 -86.4674 81.6015 -76.3603L12.2284 -106.073L64.6306 -68.8586C57.4781 -53.2298 41.2978 -33.0044 21.0173 -13.2755L-12.2811 -22.4688L13.2213 -5.92079C7.70526 -0.809296 1.87669 4.21027 -4.06223 9.06435L-60.0498 -29.9706L-22.3202 23.0934Z" fill="#091A07"/>
<path d="M1282.51 -165.004L1233.69 -147.813C1237.37 -142.572 1241.05 -137.332 1245 -132.129L1262.62 -139.318L1247.91 -128.286C1261.49 -110.99 1276.42 -94.7905 1292.55 -79.8369L1332.56 -121.207L1299.61 -73.4016C1300.7 -72.4271 1301.78 -71.4526 1302.88 -70.4965C1316.86 -58.3085 1331.6 -47.0266 1347.01 -36.72L1367.61 -66.5985L1351.06 -34.0356C1360.62 -27.8025 1370.25 -22.1026 1379.85 -16.9727L1397.58 -58.159L1386.8 -13.3321C1402.58 -5.25269 1418.99 1.51202 1435.88 6.89325L1434.46 -22.7645L1442.05 8.63995C1468.07 16.0866 1492.67 18.8078 1514.24 16.4175C1513.27 -22.1026 1495.08 -67.9407 1462.76 -112.4L1421.97 -90.6483L1458.29 -118.412C1449.5 -130.017 1440.09 -141.139 1430.1 -151.729L1408.55 -134.004L1426.94 -155.039C1418.36 -163.975 1409.17 -172.702 1399.36 -181.221C1396.05 -184.108 1392.72 -186.903 1389.36 -189.661L1360.34 -153.218L1380.27 -196.942C1357.29 -215.021 1332.38 -230.499 1305.99 -243.093L1296.06 -200.619L1296.82 -247.266C1277.51 -255.824 1257.27 -262.111 1236.51 -266.002L1236.12 -241.622L1230.13 -267.05C1216.28 -269.221 1202.21 -269.611 1188.26 -268.209C1188.58 -258.086 1189.89 -248.018 1192.16 -238.147L1218.86 -233.899L1193.48 -232.667C1199.83 -207.9 1211.87 -181.497 1228.82 -155.222L1282.51 -165.004Z" fill="#091A07"/>
<path d="M559.275 271.239C565.13 269.923 568.098 260.938 565.904 251.169C563.709 241.4 557.183 234.546 551.328 235.862C545.472 237.177 542.504 246.163 544.699 255.932C546.893 265.701 553.419 272.554 559.275 271.239Z" fill="#001210"/>
<path d="M537.209 299.669C542.407 296.668 542.562 287.206 537.555 278.535C532.549 269.864 524.277 265.267 519.08 268.268C513.883 271.269 513.728 280.731 518.734 289.402C523.74 298.073 532.012 302.67 537.209 299.669Z" fill="#174520"/>
<path d="M520.051 270.725C536.791 295.399 550.351 322.087 560.41 350.156H570.964C570.964 350.156 564.381 271.222 552.43 239.541" stroke="#0E2B14" stroke-width="0.75" stroke-miterlimit="10"/>
</g>
<defs>
<clipPath id="clip0_10162_47383">
<rect width="1380" height="300" fill="white"/>
</clipPath>
</defs>
</svg>
