<svg width="9" height="11" viewBox="0 0 9 11" fill="none" xmlns="http://www.w3.org/2000/svg">
<path d="M0.320032 4.81742C0.36902 4.76714 0.553991 4.55212 0.726293 4.37525C1.73645 3.26289 4.37166 1.44219 5.75092 0.886444C5.96039 0.797144 6.48996 0.608137 6.77291 0.596C7.04403 0.596 7.30249 0.658424 7.54911 0.785006C7.85655 0.961874 8.10318 1.24018 8.23832 1.56877C8.32532 1.79679 8.46046 2.47912 8.46046 2.49126C8.59559 3.23775 8.66992 4.45068 8.66992 5.79106C8.66992 7.06816 8.5956 8.23167 8.48495 8.98943C8.47228 9.00156 8.33714 9.84949 8.18933 10.1399C7.91821 10.6705 7.38864 11 6.8219 11L6.77291 11C6.40381 10.987 5.62761 10.6575 5.62761 10.6454C4.32267 10.0888 1.74828 8.35738 0.713624 7.20688C0.713624 7.20688 0.42223 6.91123 0.295538 6.72656C0.0978971 6.46126 -7.86268e-05 6.13266 -7.86555e-05 5.80407C-7.86876e-05 5.43733 0.110567 5.09573 0.320032 4.81742Z" fill="#FAFAFA"/>
</svg>
