<svg width="20" height="24" viewBox="0 0 20 24" fill="none" xmlns="http://www.w3.org/2000/svg">
<path d="M0.738432 9.738C0.851437 9.622 1.27813 9.126 1.6756 8.718C4.00585 6.152 10.0848 1.952 13.2664 0.67C13.7496 0.464 14.9713 0.028 15.624 0C16.2494 0 16.8456 0.144 17.4145 0.436C18.1237 0.844 18.6926 1.486 19.0044 2.244C19.2051 2.77 19.5168 4.344 19.5168 4.372C19.8285 6.094 20 8.892 20 11.984C20 14.93 19.8285 17.614 19.5733 19.362C19.5441 19.39 19.2323 21.346 18.8914 22.016C18.266 23.24 17.0443 24 15.737 24H15.624C14.7725 23.97 12.982 23.21 12.982 23.182C9.97175 21.898 4.03312 17.904 1.64637 15.25C1.64637 15.25 0.974184 14.568 0.681929 14.142C0.226011 13.53 0 12.772 0 12.014C0 11.168 0.255236 10.38 0.738432 9.738Z" fill="#FFB300"/>
</svg>
