<svg width="28" height="34" viewBox="0 0 28 34" fill="none" xmlns="http://www.w3.org/2000/svg">
<path d="M13.9749 0.529297C19.0293 0.529297 23.0962 4.50659 23.0962 9.41683V11.9423C25.9331 12.8278 28 15.3959 28 18.4631V26.5945C28 30.3918 24.8519 33.4705 20.9707 33.4705H7.03096C3.14812 33.4705 0 30.3918 0 26.5945V18.4631C0 15.3959 2.06862 12.8278 4.90377 11.9423V9.41683C4.9205 4.50659 8.98745 0.529297 13.9749 0.529297ZM13.9916 19.2799C13.1883 19.2799 12.5356 19.9182 12.5356 20.7038V24.3374C12.5356 25.1394 13.1883 25.7778 13.9916 25.7778C14.8117 25.7778 15.4644 25.1394 15.4644 24.3374V20.7038C15.4644 19.9182 14.8117 19.2799 13.9916 19.2799ZM14.0084 3.3936C10.6109 3.3936 7.84937 6.07787 7.83264 9.3841V11.5872H20.1674V9.41683C20.1674 6.09424 17.4059 3.3936 14.0084 3.3936Z" fill="#FFB300"/>
</svg>
