<svg width="1026" height="226" viewBox="0 0 1026 226" fill="none" xmlns="http://www.w3.org/2000/svg">
<path d="M1.01388 125.584C1.01388 124.677 1.19521 123.883 1.55788 123.2C1.93121 122.507 2.44321 121.973 3.09388 121.6C3.74454 121.227 4.49121 121.04 5.33388 121.04C6.40054 121.04 7.28054 121.296 7.97388 121.808C8.67788 122.309 9.15254 123.029 9.39788 123.968H7.42988C7.26988 123.531 7.01388 123.189 6.66188 122.944C6.30988 122.699 5.86721 122.576 5.33388 122.576C4.58721 122.576 3.98988 122.843 3.54188 123.376C3.10454 123.899 2.88588 124.635 2.88588 125.584C2.88588 126.533 3.10454 127.275 3.54188 127.808C3.98988 128.341 4.58721 128.608 5.33388 128.608C6.38988 128.608 7.08854 128.144 7.42988 127.216H9.39788C9.14188 128.112 8.66188 128.827 7.95788 129.36C7.25388 129.883 6.37921 130.144 5.33388 130.144C4.49121 130.144 3.74454 129.957 3.09388 129.584C2.44321 129.2 1.93121 128.667 1.55788 127.984C1.19521 127.291 1.01388 126.491 1.01388 125.584ZM15.0396 130.144C14.2076 130.144 13.4556 129.957 12.7836 129.584C12.1116 129.2 11.5836 128.667 11.1996 127.984C10.8156 127.291 10.6236 126.491 10.6236 125.584C10.6236 124.688 10.821 123.893 11.2156 123.2C11.6103 122.507 12.149 121.973 12.8316 121.6C13.5143 121.227 14.277 121.04 15.1196 121.04C15.9623 121.04 16.725 121.227 17.4076 121.6C18.0903 121.973 18.629 122.507 19.0236 123.2C19.4183 123.893 19.6156 124.688 19.6156 125.584C19.6156 126.48 19.413 127.275 19.0076 127.968C18.6023 128.661 18.0476 129.2 17.3436 129.584C16.6503 129.957 15.8823 130.144 15.0396 130.144ZM15.0396 128.56C15.509 128.56 15.9463 128.448 16.3516 128.224C16.7676 128 17.1036 127.664 17.3596 127.216C17.6156 126.768 17.7436 126.224 17.7436 125.584C17.7436 124.944 17.621 124.405 17.3756 123.968C17.1303 123.52 16.805 123.184 16.3996 122.96C15.9943 122.736 15.557 122.624 15.0876 122.624C14.6183 122.624 14.181 122.736 13.7756 122.96C13.381 123.184 13.0663 123.52 12.8316 123.968C12.597 124.405 12.4796 124.944 12.4796 125.584C12.4796 126.533 12.7196 127.269 13.1996 127.792C13.6903 128.304 14.3036 128.56 15.0396 128.56ZM25.8668 121.04C26.5601 121.04 27.1788 121.184 27.7228 121.472C28.2774 121.76 28.7094 122.187 29.0188 122.752C29.3281 123.317 29.4828 124 29.4828 124.8V130H27.6748V125.072C27.6748 124.283 27.4774 123.68 27.0828 123.264C26.6881 122.837 26.1494 122.624 25.4668 122.624C24.7841 122.624 24.2401 122.837 23.8348 123.264C23.4401 123.68 23.2428 124.283 23.2428 125.072V130H21.4188V121.184H23.2428V122.192C23.5414 121.829 23.9201 121.547 24.3788 121.344C24.8481 121.141 25.3441 121.04 25.8668 121.04ZM35.5054 122.672H33.8734V130H32.0334V122.672H30.9934V121.184H32.0334V120.56C32.0334 119.547 32.3 118.811 32.8334 118.352C33.3774 117.883 34.2254 117.648 35.3774 117.648V119.168C34.8227 119.168 34.4334 119.275 34.2094 119.488C33.9854 119.691 33.8734 120.048 33.8734 120.56V121.184H35.5054V122.672ZM45.1059 121.184V130H43.2819V128.96C42.9939 129.323 42.6152 129.611 42.1459 129.824C41.6872 130.027 41.1965 130.128 40.6739 130.128C39.9805 130.128 39.3565 129.984 38.8019 129.696C38.2579 129.408 37.8259 128.981 37.5059 128.416C37.1965 127.851 37.0419 127.168 37.0419 126.368V121.184H38.8499V126.096C38.8499 126.885 39.0472 127.493 39.4419 127.92C39.8365 128.336 40.3752 128.544 41.0579 128.544C41.7405 128.544 42.2792 128.336 42.6739 127.92C43.0792 127.493 43.2819 126.885 43.2819 126.096V121.184H45.1059ZM50.7125 130.144C50.0192 130.144 49.3952 130.021 48.8405 129.776C48.2965 129.52 47.8645 129.179 47.5445 128.752C47.2245 128.315 47.0538 127.829 47.0325 127.296H48.9205C48.9525 127.669 49.1285 127.984 49.4485 128.24C49.7792 128.485 50.1898 128.608 50.6805 128.608C51.1925 128.608 51.5872 128.512 51.8645 128.32C52.1525 128.117 52.2965 127.861 52.2965 127.552C52.2965 127.221 52.1365 126.976 51.8165 126.816C51.5072 126.656 51.0112 126.48 50.3285 126.288C49.6672 126.107 49.1285 125.931 48.7125 125.76C48.2965 125.589 47.9338 125.328 47.6245 124.976C47.3258 124.624 47.1765 124.16 47.1765 123.584C47.1765 123.115 47.3152 122.688 47.5925 122.304C47.8698 121.909 48.2645 121.6 48.7765 121.376C49.2992 121.152 49.8965 121.04 50.5685 121.04C51.5712 121.04 52.3765 121.296 52.9845 121.808C53.6032 122.309 53.9338 122.997 53.9765 123.872H52.1525C52.1205 123.477 51.9605 123.163 51.6725 122.928C51.3845 122.693 50.9952 122.576 50.5045 122.576C50.0245 122.576 49.6565 122.667 49.4005 122.848C49.1445 123.029 49.0165 123.269 49.0165 123.568C49.0165 123.803 49.1018 124 49.2725 124.16C49.4432 124.32 49.6512 124.448 49.8965 124.544C50.1418 124.629 50.5045 124.741 50.9845 124.88C51.6245 125.051 52.1472 125.227 52.5525 125.408C52.9685 125.579 53.3258 125.835 53.6245 126.176C53.9232 126.517 54.0778 126.971 54.0885 127.536C54.0885 128.037 53.9498 128.485 53.6725 128.88C53.3952 129.275 53.0005 129.584 52.4885 129.808C51.9872 130.032 51.3952 130.144 50.7125 130.144ZM64.1394 125.376C64.1394 125.707 64.118 126.005 64.0754 126.272H57.3394C57.3927 126.976 57.654 127.541 58.1234 127.968C58.5927 128.395 59.1687 128.608 59.8514 128.608C60.8327 128.608 61.526 128.197 61.9314 127.376H63.8994C63.6327 128.187 63.1474 128.853 62.4434 129.376C61.75 129.888 60.886 130.144 59.8514 130.144C59.0087 130.144 58.2514 129.957 57.5794 129.584C56.918 129.2 56.3954 128.667 56.0114 127.984C55.638 127.291 55.4514 126.491 55.4514 125.584C55.4514 124.677 55.6327 123.883 55.9954 123.2C56.3687 122.507 56.886 121.973 57.5474 121.6C58.2194 121.227 58.9874 121.04 59.8514 121.04C60.6834 121.04 61.4247 121.221 62.0754 121.584C62.726 121.947 63.2327 122.459 63.5954 123.12C63.958 123.771 64.1394 124.523 64.1394 125.376ZM62.2354 124.8C62.2247 124.128 61.9847 123.589 61.5154 123.184C61.046 122.779 60.4647 122.576 59.7714 122.576C59.142 122.576 58.6034 122.779 58.1554 123.184C57.7074 123.579 57.4407 124.117 57.3554 124.8H62.2354ZM65.3264 125.552C65.3264 124.667 65.5077 123.883 65.8704 123.2C66.2437 122.517 66.745 121.989 67.3744 121.616C68.0144 121.232 68.7237 121.04 69.5024 121.04C70.0784 121.04 70.6437 121.168 71.1984 121.424C71.7637 121.669 72.2117 122 72.5424 122.416V118.16H74.3824V130H72.5424V128.672C72.2437 129.099 71.8277 129.451 71.2944 129.728C70.7717 130.005 70.169 130.144 69.4864 130.144C68.7184 130.144 68.0144 129.952 67.3744 129.568C66.745 129.173 66.2437 128.629 65.8704 127.936C65.5077 127.232 65.3264 126.437 65.3264 125.552ZM72.5424 125.584C72.5424 124.976 72.4144 124.448 72.1584 124C71.913 123.552 71.5877 123.211 71.1824 122.976C70.777 122.741 70.3397 122.624 69.8704 122.624C69.401 122.624 68.9637 122.741 68.5584 122.976C68.153 123.2 67.8224 123.536 67.5664 123.984C67.321 124.421 67.1984 124.944 67.1984 125.552C67.1984 126.16 67.321 126.693 67.5664 127.152C67.8224 127.611 68.153 127.963 68.5584 128.208C68.9744 128.443 69.4117 128.56 69.8704 128.56C70.3397 128.56 70.777 128.443 71.1824 128.208C71.5877 127.973 71.913 127.632 72.1584 127.184C72.4144 126.725 72.5424 126.192 72.5424 125.584ZM91.6064 121.04C92.2997 121.04 92.9184 121.184 93.4624 121.472C94.017 121.76 94.449 122.187 94.7584 122.752C95.0784 123.317 95.2384 124 95.2384 124.8V130H93.4304V125.072C93.4304 124.283 93.233 123.68 92.8384 123.264C92.4437 122.837 91.905 122.624 91.2224 122.624C90.5397 122.624 89.9957 122.837 89.5904 123.264C89.1957 123.68 88.9984 124.283 88.9984 125.072V130H87.1904V125.072C87.1904 124.283 86.993 123.68 86.5984 123.264C86.2037 122.837 85.665 122.624 84.9824 122.624C84.2997 122.624 83.7557 122.837 83.3504 123.264C82.9557 123.68 82.7584 124.283 82.7584 125.072V130H80.9344V121.184H82.7584V122.192C83.057 121.829 83.4357 121.547 83.8944 121.344C84.353 121.141 84.8437 121.04 85.3664 121.04C86.0704 121.04 86.6997 121.189 87.2544 121.488C87.809 121.787 88.2357 122.219 88.5344 122.784C88.801 122.251 89.217 121.829 89.7824 121.52C90.3477 121.2 90.9557 121.04 91.6064 121.04ZM101.383 130.144C100.551 130.144 99.7994 129.957 99.1274 129.584C98.4554 129.2 97.9274 128.667 97.5434 127.984C97.1594 127.291 96.9674 126.491 96.9674 125.584C96.9674 124.688 97.1647 123.893 97.5594 123.2C97.954 122.507 98.4927 121.973 99.1754 121.6C99.858 121.227 100.621 121.04 101.463 121.04C102.306 121.04 103.069 121.227 103.751 121.6C104.434 121.973 104.973 122.507 105.367 123.2C105.762 123.893 105.959 124.688 105.959 125.584C105.959 126.48 105.757 127.275 105.351 127.968C104.946 128.661 104.391 129.2 103.687 129.584C102.994 129.957 102.226 130.144 101.383 130.144ZM101.383 128.56C101.853 128.56 102.29 128.448 102.695 128.224C103.111 128 103.447 127.664 103.703 127.216C103.959 126.768 104.087 126.224 104.087 125.584C104.087 124.944 103.965 124.405 103.719 123.968C103.474 123.52 103.149 123.184 102.743 122.96C102.338 122.736 101.901 122.624 101.431 122.624C100.962 122.624 100.525 122.736 100.119 122.96C99.7247 123.184 99.41 123.52 99.1754 123.968C98.9407 124.405 98.8234 124.944 98.8234 125.584C98.8234 126.533 99.0634 127.269 99.5434 127.792C100.034 128.304 100.647 128.56 101.383 128.56ZM112.211 121.04C112.904 121.04 113.523 121.184 114.067 121.472C114.621 121.76 115.053 122.187 115.363 122.752C115.672 123.317 115.827 124 115.827 124.8V130H114.019V125.072C114.019 124.283 113.821 123.68 113.427 123.264C113.032 122.837 112.493 122.624 111.811 122.624C111.128 122.624 110.584 122.837 110.179 123.264C109.784 123.68 109.587 124.283 109.587 125.072V130H107.763V121.184H109.587V122.192C109.885 121.829 110.264 121.547 110.723 121.344C111.192 121.141 111.688 121.04 112.211 121.04ZM121.641 125.6L125.705 130H123.241L119.977 126.208V130H118.153V118.16H119.977V125.04L123.177 121.184H125.705L121.641 125.6ZM135.093 125.376C135.093 125.707 135.071 126.005 135.029 126.272H128.293C128.346 126.976 128.607 127.541 129.077 127.968C129.546 128.395 130.122 128.608 130.805 128.608C131.786 128.608 132.479 128.197 132.885 127.376H134.852C134.586 128.187 134.101 128.853 133.397 129.376C132.703 129.888 131.839 130.144 130.805 130.144C129.962 130.144 129.205 129.957 128.533 129.584C127.871 129.2 127.349 128.667 126.965 127.984C126.591 127.291 126.405 126.491 126.405 125.584C126.405 124.677 126.586 123.883 126.949 123.2C127.322 122.507 127.839 121.973 128.501 121.6C129.173 121.227 129.941 121.04 130.805 121.04C131.637 121.04 132.378 121.221 133.029 121.584C133.679 121.947 134.186 122.459 134.549 123.12C134.911 123.771 135.093 124.523 135.093 125.376ZM133.189 124.8C133.178 124.128 132.938 123.589 132.469 123.184C131.999 122.779 131.418 122.576 130.725 122.576C130.095 122.576 129.557 122.779 129.109 123.184C128.661 123.579 128.394 124.117 128.309 124.8H133.189ZM144.824 121.184L139.416 134.144H137.528L139.32 129.856L135.848 121.184H137.88L140.36 127.904L142.936 121.184H144.824Z" fill="#FAFAFA"/>
<path d="M191.952 223.405C201.855 220.679 211.793 217.261 221.532 213.972C239.422 207.932 257.951 204.96 276.558 201.977C327.444 193.82 378.893 193.01 430.28 193.01C458.031 193.01 485.97 193.204 513.489 197.203C523.615 198.674 533.882 200.347 544.117 200.347" stroke="#FAFAFA" stroke-width="3" stroke-linecap="round"/>
<path d="M461.316 187.77C475.07 185.654 488.981 184.749 502.891 184.625C543.593 184.264 584.269 181.929 624.938 180.433C677.334 178.505 730.081 178.518 782.504 179.618C820.413 180.413 859.357 181.688 896.864 187.77C941.126 194.947 981.168 213.708 1024.15 224.454" stroke="#FAFAFA" stroke-width="3" stroke-linecap="round"/>
<path d="M417.296 172.048C413.916 176.695 412.532 180.91 416.771 185.149C420.364 188.742 422.922 188.623 423.642 183.577C424.37 178.487 427.394 162.615 419.392 162.615" stroke="#FAFAFA" stroke-width="3" stroke-linecap="round"/>
<path d="M429.873 158.423C431.686 166.883 431.235 175.917 434.124 184.101C434.448 185.021 437.157 193.866 438.025 191.263C440.172 184.822 439.306 175.776 439.306 169.02C439.306 164.923 441.679 152.471 438.025 149.223C436.825 148.156 435.857 151.614 434.589 152.6C432.495 154.229 430.223 155.842 428.01 157.375C423.541 160.468 419.133 163.43 413.627 164.653C412.519 164.899 408.685 166.894 408.095 165.061C406.116 158.904 409.395 151.966 409.901 145.904C410.619 137.276 412.357 128.598 408.969 120.691C407.633 117.574 404.718 114.306 404.718 110.792C404.718 106.41 406.642 102.499 408.387 98.6222C413.46 87.3477 416.766 80.8625 429.873 80.8625C431.891 80.8625 433.91 80.8625 435.929 80.8625C439.075 80.8625 440.731 82.5053 443.498 82.9005C449.634 83.7771 449.787 94.4446 449.787 99.2045C449.787 107.663 449.155 114.445 447.458 122.554C446.274 128.211 445.594 132.974 445.594 138.742C445.594 142.833 445.821 147.001 445.594 151.086C445.455 153.602 439.666 161.894 440.354 160.519" stroke="#FAFAFA" stroke-width="3" stroke-linecap="round"/>
<path d="M448.739 90.2955C451.347 96.4331 456.84 97.3536 461.84 101.242C463.398 102.454 470.435 107.746 467.605 109.162" stroke="#FAFAFA" stroke-width="3" stroke-linecap="round"/>
<path d="M448.739 101.825C454.039 101.954 457.575 103.324 461.316 107.065" stroke="#FAFAFA" stroke-width="3" stroke-linecap="round"/>
<path d="M417.296 84.0068C398.344 84.0068 386.157 72.9713 384.862 54.1939C383.644 36.5241 386.928 17.4729 402.098 6.97076C411.654 0.354987 429.055 2.25426 440.121 2.25426C444.916 2.25426 449.382 3.09437 452.931 6.4467C456.371 9.69564 458.238 13.85 461.549 17.1607C469.018 24.6295 471.797 31.4288 471.797 41.5584C471.797 50.0231 464.463 55.4805 459.802 61.4725C448.953 75.4211 431.157 80.0064 417.296 89.2474" stroke="#FAFAFA" stroke-width="3" stroke-linecap="round"/>
<path d="M382.708 25.3127C369.713 30.7008 355.457 37.8468 355.457 54.0775C355.457 59.2856 379.211 57.8041 383.756 57.8041" stroke="#FAFAFA" stroke-width="3" stroke-linecap="round"/>
<path d="M374.323 38.9381C372.699 43.3759 372.444 46.2749 377.7 46.2749C380.258 46.2749 382.233 47.323 384.804 47.323" stroke="#FAFAFA" stroke-width="3" stroke-linecap="round"/>
<path d="M453.979 19.024C464.909 19.024 477.922 18.692 488.567 21.3531C495.092 22.9845 495.159 27.9425 494.856 33.6975C494.635 37.8934 486.957 39.9658 484.375 42.5482C481.097 45.8262 477.391 46.0395 473.893 48.3711" stroke="#FAFAFA" stroke-width="3" stroke-linecap="round"/>
<path d="M463.412 26.3608C465.662 26.3608 484.508 26.5481 483.268 32.1254C482.694 34.7103 468.384 41.1241 465.509 42.0825" stroke="#FAFAFA" stroke-width="3" stroke-linecap="round"/>
<path d="M422.536 23.2164C416.787 22.0947 406.577 19.8299 404.776 27.9329C404.339 29.9004 405.37 33.5509 407.863 33.6975C411.624 33.9188 411.007 36.9199 411.007 39.9862C411.007 44.2496 406.402 51.3942 404.485 55.7079C403.422 58.0999 401.295 63.2098 403.204 65.6649C405.304 68.3644 410.28 67.2371 413.336 67.2371C421.02 67.2371 429.453 66.224 435.637 61.4142C440.059 57.9756 442.45 47.0374 442.45 41.5584C442.45 38.5397 448.305 25.7187 441.402 25.3127C435.164 24.9457 428.785 25.3127 422.536 25.3127" stroke="#FAFAFA" stroke-width="3" stroke-linecap="round"/>
<path d="M422.536 35.7938C422.536 38.9486 422.629 41.3121 423.584 44.1787" stroke="#FAFAFA" stroke-width="3" stroke-linecap="round"/>
<path d="M431.969 37.89C431.969 40.0084 430.948 44.192 433.017 45.2268" stroke="#FAFAFA" stroke-width="3" stroke-linecap="round"/>
<path d="M419.66 53.7137C420.731 54.2452 422.406 55.5044 423.689 55.5044" stroke="#FAFAFA" stroke-width="3" stroke-linecap="round"/>
<path d="M405.783 101.165C403.442 101.165 401.017 100.584 398.67 100.32C395.947 100.014 393.367 98.6785 390.662 98.4919C386.264 98.1886 381.852 97.5926 377.804 95.7935C376.884 95.3846 375.976 94.9746 375.516 94.0029C375.142 93.2126 374.8 92.6242 374.111 92.0879C372.959 91.1923 372.367 89.4611 371.313 88.4072C370.846 87.9402 369.97 87.1706 369.97 86.4922C369.97 84.4818 369.856 82.429 370.691 80.5732C371.19 79.4653 372.074 78.5905 372.482 77.4893C372.648 77.0407 373.177 76.8133 373.427 76.4199C373.83 75.786 374.075 75.2641 374.658 74.7536C376.283 73.3318 377.786 71.5316 378.749 69.6056C379.327 68.4487 380.4 68.1034 381.261 67.2429C381.578 66.9254 382.357 66.3184 382.504 66.0243" stroke="#FAFAFA" stroke-width="3" stroke-linecap="round"/>
<path d="M410.931 110.79C406.972 111.411 402.67 111.713 398.869 110.305C395.039 108.887 391.334 107.239 387.578 105.642C384.81 104.465 381.759 103.083 379.271 101.389C376.544 99.5322 373.239 98.3914 370.865 96.0174C370.122 95.2736 369.653 94.4053 369.124 93.5055C368.507 92.454 367.718 91.5129 367.172 90.4217C366.103 88.2829 365.451 85.905 365.829 83.483C366.031 82.1903 366.583 80.9473 367.06 79.7276C367.446 78.7415 367.579 77.5788 368.067 76.6562C368.986 74.9212 369.521 73.5489 370.865 72.0553C372.431 70.3157 374.015 68.6416 375.441 66.8077C375.815 66.3272 376.786 66.265 377.406 66.0741C377.709 65.9809 378.561 66.1167 378.687 65.6762C378.774 65.3721 378.481 64.4821 378.923 64.4575C379.584 64.4208 380.233 64.8655 380.826 65.129C381.493 65.4254 380.877 64.5748 381.435 64.7311C381.918 64.8663 382.368 65.0102 382.828 65.1415C383.254 65.2632 382.662 64.7021 383.052 64.5073C384.012 64.0271 385.92 65.1254 386.484 65.8502C386.732 66.1701 385.862 65.2109 385.862 64.8057C385.862 64.3477 385.895 63.9766 385.688 63.5622C385.574 63.3344 384.819 63.9584 384.506 63.9974C384.2 64.0357 382.974 63.809 382.952 64.2337C382.914 64.9471 383.22 65.7054 383.512 66.3476C383.753 66.8778 383.847 67.3294 383.847 66.472" stroke="#FAFAFA" stroke-width="3" stroke-linecap="round"/>
<path d="M584.939 179.767C587.991 170.486 589.966 163.025 590.053 153.385C590.112 146.963 590.784 140.583 590.784 134.146C590.784 132.242 589.364 123.512 592.245 123.512" stroke="#FAFAFA" stroke-width="3" stroke-linecap="round"/>
<path d="M590.053 127.896C591.231 120.386 589.786 113.485 589.16 105.978C588.464 97.6184 587.743 89.3257 586.969 80.9761C586.087 71.4766 585.67 62.1824 585.67 52.6458" stroke="#FAFAFA" stroke-width="3" stroke-linecap="round"/>
<path d="M585.67 53.3764C577.532 53.5424 568.947 58.6419 562.129 62.8739C553.939 67.9573 544.976 72.4446 535.625 74.5226C533.358 75.0265 536.928 68.1357 537.451 67.298C539.535 63.9639 541.19 60.5164 543.54 57.354C544.143 56.5421 547.6 51.9535 546.949 51.9152C543.165 51.6926 539.361 52.293 535.625 52.6864C532.819 52.9818 530.353 54.3017 527.629 54.7969C526.613 54.9817 534.03 48.0304 535.26 46.8011C540.661 41.3994 525.103 44.0143 530.267 39.4953C533.818 36.3889 539.345 33.8689 543.661 31.8242C547.182 30.1568 549.001 29.2672 544.027 29.2672C542.767 29.2672 535.07 28.6225 539.075 27.6437C545.53 26.0657 551.815 23.4334 558.232 21.6367C568.238 18.8352 559.628 20.5002 569.272 20.5002C576.142 20.5002 581.908 21.2985 588.552 23.0572C590.321 23.5257 599.072 25.9046 592.976 25.6143C591.493 25.5437 584.966 22.759 588.592 21.799C594.875 20.136 601.827 20.5002 608.277 20.5002C617.845 20.5002 629.604 23.6228 638.556 27.116C641.266 28.1737 650.476 32.0081 642.493 32.1895C640.942 32.2247 632.506 32.1895 638.272 32.1895C642.853 32.1895 646 32.628 650.286 34.0565C655.511 35.7982 644.325 36.573 643.02 36.573C641.853 36.573 630.254 37.0714 634.456 37.8718C637.872 38.5223 641.832 38.952 644.847 40.7941C647.727 42.554 633.964 46.1991 632.833 46.4358C628.171 47.4115 613.97 47.5199 618.668 48.3029C621.715 48.8107 630.514 48.9764 627.719 50.2917C625.979 51.1105 622.993 50.3546 621.103 50.4946C618.367 50.6973 615.799 51.1846 613.026 51.1846C609.57 51.1846 609.066 50.8506 612.133 52.0775C618.63 54.6764 617.047 60.8964 614.528 65.431C611.73 70.4672 610.148 77.0845 608.886 82.762C608.087 86.3591 605.134 89.1935 603.204 92.2595C601.654 94.7211 602.254 97.9969 600.687 100.458C597.98 104.713 597.359 112.603 597.359 117.505C597.359 123.784 597.651 129.317 598.78 135.526C600.548 145.25 606.857 153.05 606.857 163.329C606.857 165.521 606.857 167.712 606.857 169.904C606.857 171.859 605.395 173.762 605.395 175.749C605.395 177.774 605.058 179.968 607.912 178.671C610.265 177.601 613.133 176.051 614 173.354C615.234 169.516 613.7 165.519 611.971 162.233C609.539 157.612 609.048 154.23 609.048 149.042C609.048 144.078 608.202 138.204 609.454 133.375C610.757 128.35 612.367 123.442 613.594 118.398C615.617 110.081 613.406 101.627 615.948 93.2742C616.824 90.3985 616.892 85.5315 615.989 82.6402C614.989 79.4405 612.098 76.7009 611.971 73.2644C611.829 69.4473 611.971 65.5977 611.971 61.778C611.971 60.2945 613.432 59.8441 613.432 58.1251C613.432 56.2166 614.162 54.6239 614.162 52.6458" stroke="#FAFAFA" stroke-width="3" stroke-linecap="round"/>
<path d="M300.827 95.562C301.138 95.1052 301.019 94.4833 300.562 94.1729L293.118 89.1147C292.661 88.8043 292.039 88.923 291.729 89.3798C291.418 89.8366 291.537 90.4585 291.994 90.7689L298.611 95.2651L294.115 101.882C293.804 102.339 293.923 102.961 294.38 103.271C294.837 103.582 295.459 103.463 295.769 103.006L300.827 95.562ZM169.187 120.982L300.187 95.9823L299.813 94.0177L168.813 119.018L169.187 120.982Z" fill="#FAFAFA"/>
</svg>
