<svg width="24" height="24" viewBox="0 0 24 24" fill="none" xmlns="http://www.w3.org/2000/svg">
<path d="M18.7448 18.7851C19.2087 18.3245 19.9522 18.3245 20.416 18.7851L23.4816 21.2597H23.5348C24.1551 21.8866 24.1551 22.903 23.5348 23.5298C22.9146 24.1567 21.9091 24.1567 21.2889 23.5298L18.7448 20.6142L18.6483 20.5052C18.4685 20.2776 18.3692 19.9938 18.3692 19.6996C18.3692 19.3565 18.5043 19.0274 18.7448 18.7851ZM10.2932 0C13.0231 0 15.6412 1.09612 17.5715 3.04724C19.5019 4.99835 20.5863 7.64462 20.5863 10.4039C20.5863 16.1498 15.9779 20.8078 10.2932 20.8078C4.60841 20.8078 0 16.1498 0 10.4039C0 4.65799 4.60841 0 10.2932 0Z" fill="white"/>
</svg>
