<svg width="35" height="20" viewBox="0 0 35 20" fill="none" xmlns="http://www.w3.org/2000/svg">
<g clip-path="url(#clip0_4567_9677)">
<path d="M9.87307 19.9967C4.40874 20.077 0.0116918 15.4835 -0.000228626 10.0437C-0.00487462 7.38685 1.03413 4.83679 2.8886 2.95349C4.74307 1.07018 7.26141 0.00759611 9.89056 -0.000911058C15.2865 -0.0209873 19.7893 4.57649 19.7694 10.0581C19.7511 15.4161 15.3096 20.1276 9.87307 19.9967Z" fill="#FFB300"/>
<path d="M20.7104 9.95136C20.631 8.00958 21.0172 6.0686 21.7388 4.2007C22.1798 3.05957 22.7997 1.99874 23.7883 1.25752C25.0853 0.285023 26.5356 0.311525 27.8707 1.59962C28.7111 2.41771 29.3246 3.44413 29.65 4.57653C29.9464 5.5683 30.2579 6.5673 30.4145 7.58637C30.5679 8.58296 30.5845 9.60926 30.5734 10.6203C30.5511 12.4251 30.1908 14.2093 29.5117 15.8787C29.0516 17.0126 28.4428 18.0798 27.4455 18.797C26.0627 19.7912 24.6577 19.6442 23.3989 18.4091C22.276 17.3081 21.6991 15.9044 21.2779 14.4107C20.8623 12.9627 20.6708 11.4585 20.7104 9.95136Z" fill="#FFB300"/>
<path d="M34.9992 10.3629C35.0087 12.3902 34.8151 14.4132 34.4215 16.4011C34.3142 16.9287 34.0924 17.445 33.8532 17.9269C33.7436 18.1501 33.4495 18.4424 33.266 18.4255C33.0363 18.4039 32.7391 18.1348 32.6382 17.9004C32.3888 17.3133 32.192 16.7048 32.0501 16.0822C31.6249 14.2256 31.5391 12.3304 31.5176 10.4328C31.4946 8.42515 31.5725 6.42234 31.9325 4.44603C32.0715 3.67911 32.3592 2.9395 32.5881 2.19025C32.6292 2.09223 32.687 2.00226 32.7589 1.92444C33.138 1.43378 33.4694 1.41451 33.7674 1.96058C34.0503 2.47855 34.3015 3.0447 34.4199 3.62129C34.8546 5.73252 35.0048 7.87586 34.9992 10.3629Z" fill="#FFB300"/>
</g>
<defs>
<clipPath id="clip0_4567_9677">
<rect width="35" height="20" fill="white"/>
</clipPath>
</defs>
</svg>
