<?xml version="1.0" encoding="utf-8"?>
<!-- Generator: Adobe Illustrator 25.0.0, SVG Export Plug-In . SVG Version: 6.00 Build 0)  -->
<svg version="1.1" id="Capa_1" xmlns="http://www.w3.org/2000/svg" xmlns:xlink="http://www.w3.org/1999/xlink" x="0px" y="0px"
	 viewBox="0 0 544 308" style="enable-background:new 0 0 544 308;" xml:space="preserve">
<style type="text/css">
	.st0{fill:#9F6552;}
	.st1{opacity:0.4;fill:#6F4459;enable-background:new    ;}
	.st2{fill:#A16552;}
	.st3{fill:#FFF9F7;}
	.st4{fill:url(#SVGID_1_);}
	.st5{fill:url(#SVGID_2_);}
	.st6{fill:url(#SVGID_3_);}
	.st7{fill:url(#SVGID_4_);}
	.st8{fill:none;stroke:#7D551F;stroke-width:2.7722;stroke-linecap:round;stroke-miterlimit:10;}
	.st9{fill:none;stroke:#7D551F;stroke-width:2.7722;stroke-linecap:round;stroke-linejoin:round;stroke-miterlimit:10;}
	.st10{fill:url(#SVGID_5_);}
	.st11{fill:#F3DAB2;}
	.st12{fill:#4D3F3F;}
	.st13{fill:none;stroke:#4D3F3F;stroke-width:1.0715;stroke-linecap:round;stroke-miterlimit:10;}
	.st14{fill:#E3646E;}
</style>
<path class="st0" d="M210.7,208c0.4,4.9-17.7,5.6-26.6,12c-10.6,7.6-22.1,33-28.7,40.6c-0.9,1-1.9,2.1-2.8,3
	c-8.2,8.3-18,13.8-18,13.8l-7.7,4.5l-3.9-2.4c0,0,16.2-6.7,26.7-16.8c1.1-1.1,2.3-2.3,3.2-3.5c10-12.2,15.7-30.4,32.1-44.3
	C194.2,207.1,210.4,204.8,210.7,208z"/>
<path class="st1" d="M149.8,262.6c0.9,0.5,1.9,0.8,2.8,1c-8.2,8.3-18,13.8-18,13.8l-7.7,4.5l-3.9-2.4
	C123.1,279.6,139.3,272.9,149.8,262.6z"/>
<path class="st2" d="M218.5,119.3c-0.1,0.7-1.1,3.9-2.7,8.4c-0.3,0.8-0.7,1.8-0.9,2.7c-0.3,0.9-0.7,1.9-1,2.9c0,0.1,0,0.1-0.1,0.2
	c-5.3,15.2-14.9,43.7-17.9,47.3c-2.3,2.7-13.5,11.6-13.5,11.6l-27.5,17.1c0,0-2.1,1.9-4.5,4.8c-2.4,2.9-6.4,16.8-7.5,20.8
	c-0.8,2.7-0.6,7,0,11.5c0.9,8.3,3.2,17.4,3.6,19c0,0.2,0.1,0.2,0.1,0.2s0.2,1,0.6,2.8c1.4,6.8,5.2,24.1,7.6,33.6
	c0.6,2.4,1,4.3,1.3,5.6h-15.6c-1.4-3.4-3.3-7.5-4.9-9.8c-2.8-4-13.8-8.7-15.7-2.2c-0.4,1.3-1.5,6-2.9,12h-15
	c0-6.4-0.1-11.4-0.4-12.6c-0.9-4.7-3.3-23-3.3-23s-4.5-20.7-6-30.8c-3.4-22.2-2.3-37.1-4.7-44.8c-0.7-2.2-1.1-4.1-3.4-7.7
	c-2.4-3.8-26.9-28.1-28.4-30.7c-3.9-6.6-8.6-44.5-15.4-65.1c-1.5-4.6-3.1-8.4-4.9-10.7c0-0.1-0.1-0.1-0.1-0.2
	c-2.3-3-4.4-5.7-6.4-7.8C11,55,30.6,66,30.6,66l8.8,4.3l0.4,0.2c0,0,1.9,2.9,4.8,7.2c0.2,0.4,0.5,0.7,0.8,1
	c2.6,3.9,5.3,11.8,7.8,20.9c0.6,2,1.1,4,1.6,6.1c0.1,0.4,0.2,0.8,0.3,1.1c4.7,18.4,8.5,38.5,9.6,40.4c2.2,3.7,20.9,24.1,23.6,24.4
	c3,0.3,4.7,1.1,6.1,2.1c0.8,0.7,1.7,1.3,2.5,2s1.8,1.2,3.1,1.8c0.6,0.2-0.5,0.8,0,0.9c0.8,0.2,1.4,0.6,2.1,1c1.8,1.2,3,3,4,4.7
	c0,0,0,0,0,0.1c0.4,0.6,0.7,1,0.9,1.5c0,0,0,0,0,0.1c0.5,0.8,0.8,1.3,1.2,1.8c0.2,0.2,0.4,0.4,0.6,0.5c3.1,1.8,6.4,3,9.8,3.8
	c2.1,0.5,4.2,0.8,6.4,0.9c4,0.3,7.9,0.2,11.3-0.1c3.5-0.3,6.5-0.8,8.7-1.3s3.4-0.8,3.4-0.8s0.2,0.1,0.5,0.3c0.4,0.2,0.9,0.5,1.8,0.8
	c0.5,0.2,1.1,0.5,1.8,0.7c0.2,0.1,0.4,0.1,0.5,0.2c5.2,1.7,13.4-3.9,22.9-10.1c4.9-3.2,8.6-4.6,12.6-12.5
	c4.3-8.6,10.4-26.1,13.7-36.5c0.1-0.5,0.3-0.8,0.4-1.2c0.1-0.3,0.2-0.6,0.3-0.8c0.5-1.5,0.9-3,1.3-4.4c0.8-2.7,1.4-5.1,2-7.2
	c0.3-1.1,0.6-2.2,0.8-3c0.6-2.4,0.9-3.7,0.9-3.7S218.8,117.1,218.5,119.3z"/>
<path class="st3" d="M522.8,273H292.2c-11.8,0-21.2-9.4-21.2-21.2V70.6c0-11.8,9.4-21.2,21.2-21.2h230.6c11.8,0,21.2,9.4,21.2,21.2
	v181.2C544,263.5,534.6,273,522.8,273z"/>
<g>
	<g>
		<linearGradient id="SVGID_1_" gradientUnits="userSpaceOnUse" x1="276.9434" y1="35.8062" x2="377.369" y2="-10.1512">
			<stop  offset="0" style="stop-color:#FFE988"/>
			<stop  offset="0.25" style="stop-color:#BA801E"/>
			<stop  offset="0.5" style="stop-color:#FBEC83"/>
			<stop  offset="0.75" style="stop-color:#BA801F"/>
			<stop  offset="1" style="stop-color:#FFE97F"/>
		</linearGradient>
		<path class="st4" d="M294.1,39.8l-12.6-10.1l8.8-11c2.2-2.8,6.2-3.2,9-1l2.6,2.1c2.8,2.2,3.2,6.2,1,9L294.1,39.8z"/>
	</g>
	<g>
		<g>
			<linearGradient id="SVGID_2_" gradientUnits="userSpaceOnUse" x1="-190.3318" y1="-64.0738" x2="517.4128" y2="200.9475">
				<stop  offset="0" style="stop-color:#FFE988"/>
				<stop  offset="0.25" style="stop-color:#BA801E"/>
				<stop  offset="0.5" style="stop-color:#FBEC83"/>
				<stop  offset="0.75" style="stop-color:#BA801F"/>
				<stop  offset="1" style="stop-color:#FFE97F"/>
			</linearGradient>
			<path class="st5" d="M288.4,70.9c-8.9,12.5-19.6,23.9-32.2,33.8c-71,56-174,43.7-229.9-27.3C16.3,64.8,8.6,51.1,2.9,36.9
				c-0.3-1.1-3.4-11.1-2.3-20.8c0.5-4.8,2.1-9.6,5.5-13.1c0,0,0,0,0.1-0.1l0,0C6.6,2.5,7,2.1,7.4,1.8c0,0,0,0,0,0
				c0.5-0.3,0.9-0.5,1.4-0.7c4-1.6,9.3,0,15.1,3.1c12.7,6.8,27.5,21,34.4,26.3l0.1,0c1.6,1.4,3.3,2.7,4.9,4c0.1,0.1,0.2,0.1,0.3,0.2
				c1.8,1.4,3.7,2.8,5.6,4.1c0.5,0.4,1.1,0.8,1.7,1.2c0.5,0.3,1,0.7,1.5,1c0.5,0.3,1,0.7,1.5,1c0.7,0.4,1.4,0.9,2,1.3
				c1.3,0.8,2.7,1.7,4,2.5c0.8,0.5,1.6,0.9,2.3,1.4c2.1,1.2,4.3,2.4,6.5,3.5c0.7,0.4,1.4,0.7,2,1c0.7,0.4,1.4,0.7,2.1,1
				c2.1,1,4.2,1.9,6.3,2.8c0.1,0.1,0.3,0.1,0.4,0.2l0.6,0.2c3.1,1.3,6.2,2.5,9.4,3.6c3,1,6,2,9,2.8c0.4,0.1,0.8,0.2,1.2,0.3l0.5,0.1
				c2,0.5,4,1.1,6.1,1.5c0.2,0,0.4,0.1,0.6,0.1c0.3,0.1,0.5,0.1,0.8,0.2c5.9,1.3,11.8,2.3,17.7,2.9c1.1,0.1,2.3,0.2,3.4,0.3
				c1.1,0.1,2.2,0.2,3.3,0.3c0.2,0,0.4,0,0.6,0c0.6,0,1.2,0.1,1.9,0.1c1.8,0.1,3.6,0.2,5.5,0.2c0.9,0,1.8,0,2.8,0c1.4,0,2.8,0,4.2,0
				c0.5,0,1.1,0,1.6-0.1c1.9,0,3.8-0.1,5.8-0.3c8.5-0.6,17.1-1.8,25.5-3.8c0.1,0,0.3-0.1,0.4-0.1c3.2-0.7,6.4-1.6,9.6-2.5
				c1.5-0.4,2.9-0.9,4.4-1.4c1.2-0.4,2.4-0.8,3.5-1.2c0.2-0.1,0.5-0.2,0.7-0.2c2.5-0.9,5-1.9,7.5-2.9c13.5-5.6,26.5-13.1,38.5-22.6
				c1.3-1,2.5-2,3.8-3.1l0,0c0,0,0.4-0.3,1.1-0.6c0.2-0.1,0.5-0.2,0.7-0.4c0.1-0.1,0.3-0.1,0.4-0.2c0.1-0.1,0.3-0.1,0.4-0.2
				c2.7-1.2,7.2-2.4,12.3-1.2c3.6,0.8,7.5,2.9,11.2,7.2l0,0c0,0,0,0,0,0c3.5,4.1,4.2,9.2,3.3,14.5C296.8,57.6,291.7,66.1,288.4,70.9
				z"/>
			<linearGradient id="SVGID_3_" gradientUnits="userSpaceOnUse" x1="-67.4134" y1="-4.7797" x2="586.7142" y2="165.2628">
				<stop  offset="0" style="stop-color:#FFE988"/>
				<stop  offset="0.25" style="stop-color:#BA801E"/>
				<stop  offset="0.5" style="stop-color:#FBEC83"/>
				<stop  offset="0.75" style="stop-color:#BA801F"/>
				<stop  offset="1" style="stop-color:#FFE97F"/>
			</linearGradient>
			<path class="st6" d="M294.7,34.9c-0.1,0.1-0.1,0.2-0.2,0.2c-8.2,12.1-18.1,23.3-29.7,33.2c-1.5,1.3-3.1,2.6-4.7,3.9
				c-71,55.9-174,43.7-229.9-27.3C21.9,34.3,15.1,23.1,9.8,11.4C9,9.7,8.2,7.9,7.5,6.2C7.1,5.1,6.6,4,6.2,2.9C6.6,2.5,7,2.1,7.4,1.8
				c0,0,0,0,0,0c0.5-0.3,0.9-0.5,1.4-0.7c4-1.6,9.3,0,15.1,3.1c12.7,6.8,27.5,21,34.4,26.3l0.1,0c1.6,1.4,3.3,2.7,4.9,4
				c0.1,0.1,0.2,0.1,0.3,0.2c1.8,1.4,3.7,2.8,5.6,4.1c0.2,0.1,0.3,0.3,0.5,0.4c0.4,0.3,0.8,0.5,1.2,0.8c0.5,0.3,1,0.7,1.5,1
				c0.5,0.3,1,0.6,1.5,1c0.7,0.4,1.4,0.9,2,1.3c1.4,0.8,2.7,1.6,4,2.5c0.8,0.5,1.6,0.9,2.3,1.4c1.3,0.8,2.7,1.5,4.1,2.2
				c0.8,0.4,1.6,0.9,2.4,1.3c0.7,0.3,1.4,0.7,2,1c0.7,0.4,1.4,0.7,2.1,1c2.1,1,4.2,1.9,6.3,2.8c0.1,0.1,0.3,0.1,0.4,0.2l0.6,0.2
				c0.6,0.2,1.1,0.4,1.7,0.7c2.6,1,5.1,2,7.7,2.9c2.6,0.9,5.2,1.7,7.8,2.5c0.4,0.1,0.8,0.2,1.2,0.4c0.4,0.1,0.8,0.2,1.2,0.3l0.5,0.1
				c1.3,0.3,2.5,0.6,3.8,0.9c0.8,0.2,1.5,0.4,2.3,0.6c0.2,0,0.4,0.1,0.6,0.1c0.3,0.1,0.5,0.1,0.8,0.2c1.1,0.2,2.2,0.5,3.4,0.7
				c0.8,0.2,1.6,0.3,2.5,0.5c0.4,0.1,0.7,0.1,1.1,0.2c1.2,0.2,2.4,0.4,3.5,0.6c1.1,0.2,2.2,0.3,3.3,0.5c1.3,0.2,2.6,0.3,3.9,0.5
				c1.1,0.1,2.3,0.2,3.4,0.3c1.1,0.1,2.2,0.2,3.3,0.3c0.2,0,0.4,0,0.6,0c0.6,0,1.2,0.1,1.9,0.1c1.8,0.1,3.6,0.2,5.5,0.2
				c0.9,0,1.8,0,2.8,0c1.4,0,2.8,0,4.2,0c0.5,0,1.1,0,1.6-0.1c0.6,0,1.1,0,1.6-0.1c1.4-0.1,2.8-0.1,4.1-0.2c1.1-0.1,2.3-0.2,3.4-0.3
				c1.3-0.1,2.7-0.2,4-0.4c0.7-0.1,1.3-0.2,2-0.2c0.5-0.1,1.1-0.1,1.6-0.2c1.2-0.2,2.4-0.3,3.6-0.5c1.2-0.2,2.5-0.4,3.7-0.6
				c1-0.2,2-0.4,2.9-0.6c1.4-0.3,2.8-0.6,4.2-0.9c0.1,0,0.3-0.1,0.4-0.1c1.3-0.3,2.6-0.6,3.9-1c0.8-0.2,1.7-0.4,2.5-0.7
				c1.1-0.3,2.1-0.6,3.2-0.9c0.9-0.3,1.8-0.6,2.8-0.9c0.5-0.2,1.1-0.3,1.6-0.5c1.2-0.4,2.4-0.8,3.5-1.2c0.2-0.1,0.5-0.2,0.7-0.2
				c1-0.4,1.9-0.7,2.8-1.1c0.8-0.3,1.5-0.6,2.3-0.9c0.8-0.3,1.6-0.6,2.4-0.9c1.1-0.5,2.2-1,3.3-1.4c0.6-0.3,1.2-0.5,1.8-0.8
				c1.4-0.6,2.9-1.3,4.3-2c0.9-0.5,1.9-0.9,2.8-1.4c1.4-0.7,2.7-1.5,4.1-2.2c0.9-0.5,1.8-1,2.7-1.6c1.4-0.8,2.7-1.6,4.1-2.5
				c0.9-0.5,1.7-1,2.6-1.6c1.5-0.9,2.9-1.9,4.4-2.9c0.6-0.4,1.1-0.8,1.7-1.2c0.2-0.2,0.4-0.3,0.7-0.5c2.1-1.5,4.1-3,6.2-4.6
				c1.3-1,2.5-2,3.8-3.1l0,0c0,0,0.4-0.3,1.1-0.6c0.2-0.1,0.5-0.2,0.7-0.4c0.1-0.1,0.3-0.1,0.4-0.2c0.1-0.1,0.3-0.1,0.4-0.2
				c2.7-1.2,7.2-2.4,12.3-1.2C287.1,28.6,291,30.7,294.7,34.9z"/>
		</g>
		<linearGradient id="SVGID_4_" gradientUnits="userSpaceOnUse" x1="3.4027" y1="-2.7145" x2="31.4027" y2="37.7961">
			<stop  offset="0" style="stop-color:#FFE988"/>
			<stop  offset="0.25" style="stop-color:#BA801E"/>
			<stop  offset="0.5" style="stop-color:#FBEC83"/>
			<stop  offset="0.75" style="stop-color:#BA801F"/>
			<stop  offset="1" style="stop-color:#FFE97F"/>
		</linearGradient>
		<path class="st7" d="M24,4.2C14.1,4.3,6.1,7.8,0.5,16.1c0.5-4.8,2.1-9.6,5.5-13.1c0,0,0,0,0.1-0.1l0,0C6.6,2.5,7,2.1,7.4,1.8
			c0,0,0,0,0,0c0.5-0.3,0.9-0.5,1.4-0.7C12.9-0.5,18.2,1.1,24,4.2z"/>
	</g>
</g>
<path class="st8" d="M287.6,245h239.9"/>
<path class="st9" d="M530.3,15.4c-9.8,46.3-61.7,10.7-113,83c-33.7,47.7-29.4,77.3-70.6,90.9C305.6,202.8,292,245,292,245"/>
<path class="st9" d="M519.8,21.4c0.9-0.4,10.9-6.4,10.9-6.4l4.6,10.5"/>
<linearGradient id="SVGID_5_" gradientUnits="userSpaceOnUse" x1="369.8782" y1="847.8774" x2="511.9742" y2="1028.0204" gradientTransform="matrix(1 0 0 1 0 -770)">
	<stop  offset="0" style="stop-color:#7D551F;stop-opacity:0.2"/>
	<stop  offset="1" style="stop-color:#7D551F;stop-opacity:0"/>
</linearGradient>
<path class="st10" d="M292,245c0,0,13.5-42.2,54.7-55.8c41.2-13.5,36.9-43.1,70.6-90.9c51.1-72.5,103.2-36.9,113-83v229.8H292"/>
<path class="st11" d="M98.8,196.3c0,0,2.6,1.9,9.6,6.9c5,3.5,17.4,2.5,24.4,1.7c3.4-0.5,6.7,1.4,8.1,4.5c1,2.3,1.8,5,0.8,7.4
	c-2.3,5.6-6.6,13.5-5.6,24.3c0.9,10.2,3.9,27.9,1.3,35.5c-1.2,3.7-16.9,7.5-25.3,2.1s-12.5-22.9-14.2-37.3
	c-1.7-14.2-2.6-24.8-3.2-29.7C94.1,206.7,93,194,98.8,196.3z"/>
<path class="st1" d="M150.8,191.9c-5.5,6.1-15.4,12.1-30.7,8.6c-15.6-3.7-18.9-10.3-25.8-26.4c0.6,0.2,2.5,2.2,3,2.3
	c5.2,1.6,9.8,11,11.7,12.1c8.7,5,19.4,5.4,27.5,4.6c3.5-0.3,6.5-0.8,8.7-1.3s3.4-0.8,3.4-0.8s0.2,0.1,0.5,0.3
	C149.5,191.4,150.1,191.6,150.8,191.9z"/>
<path class="st0" d="M107,145.1c-1.2,1.9-2.3,3.9-2.9,6c-0.1,0.2-0.1,0.3-0.2,0.5c-0.8,2.5-2,5-3.4,7.3c-1-0.8-2-2.1-2.6-4
	c-1.8-4.9,1.3-10.7,5.6-10.9C105.1,143.8,106.2,144.3,107,145.1C107,145.1,107,145,107,145.1z"/>
<path class="st11" d="M107,145.1c-1.2,1.9-2.3,3.9-2.9,6c-0.1,0.2-0.1,0.3-0.2,0.5c-0.8,2.5-2,5-3.4,7.3c-1-0.8-2-2.1-2.6-4
	c-1.8-4.9,1.3-10.7,5.6-10.9C105.1,143.8,106.2,144.3,107,145.1C107,145.1,107,145,107,145.1z"/>
<path class="st0" d="M159.3,175.5c-1.7,1-3.1,1.5-4.4,1.5c0.3-2.7,0.8-5.4,1.7-7.9c0.1-0.2,0.1-0.3,0.2-0.5c0.7-2.1,1.1-4.3,1.2-6.6
	c1-0.1,2.3,0.2,3.5,1.2C164.8,166,163.6,172.5,159.3,175.5z"/>
<path class="st11" d="M159.3,175.5c-1.7,1-3.1,1.5-4.4,1.5c0.3-2.7,0.8-5.4,1.7-7.9c0.1-0.2,0.1-0.3,0.2-0.5
	c0.7-2.1,1.1-4.3,1.2-6.6c1-0.1,2.3,0.2,3.5,1.2C164.8,166,163.6,172.5,159.3,175.5z"/>
<path class="st0" d="M213.8,133.4c0,0-2.2-3.8-3.9-4.8s-3.1-1.6-3.1-1.6s2.1-7.4-1-7.2c-3.1,0.2-4.5,12.8-3.3,14.9l4-1.5l0.8,3.2
	l1.4-2.2c0,0,1.6,0.9,3,0.8L213.8,133.4z"/>
<path class="st0" d="M44.5,102.1c0,0,3.7-2.3,5.6-2.4c2-0.1,3.5,0.1,3.5,0.1s1.6-7.5,4.2-5.9c2.6,1.6-2.1,13.5-4.1,14.6l-2.8-3.2
	l-2.3,2.4l-0.2-2.5c0,0-1.9,0.1-3-0.7L44.5,102.1z"/>
<g>
	<g>
		<g>
			<g>
				<g>
					<path class="st0" d="M107.1,144.8c-1.3,1.9-2.3,4-3,6.1c-0.1,0.1-0.1,0.3-0.1,0.4c-0.8,2.6-2,5.1-3.5,7.4c-1.1-0.8-2-2.1-2.7-4
						c-1.8-5,1.4-10.9,5.7-11.1C105.1,143.6,106.3,144.1,107.1,144.8C107.1,144.8,107.1,144.8,107.1,144.8z"/>
				</g>
				<g>
					<path class="st11" d="M107.1,144.8c-1.3,1.9-2.3,4-3,6.1c-0.1,0.1-0.1,0.3-0.1,0.4c-0.8,2.6-2,5.1-3.5,7.4
						c-1.1-0.8-2-2.1-2.7-4c-1.8-5,1.4-10.9,5.7-11.1C105.1,143.6,106.3,144.1,107.1,144.8C107.1,144.8,107.1,144.8,107.1,144.8z"/>
				</g>
			</g>
			<g>
				<g>
					<path class="st0" d="M160.3,175.7c-1.7,1.1-3.2,1.5-4.5,1.6c0.3-2.7,0.8-5.4,1.7-8c0.1-0.1,0.1-0.3,0.2-0.4
						c0.7-2.1,1.1-4.4,1.3-6.7c1.1-0.1,2.3,0.2,3.6,1.3C165.8,166.2,164.8,172.9,160.3,175.7z"/>
				</g>
				<g>
					<path class="st11" d="M160.3,175.7c-1.7,1.1-3.2,1.5-4.5,1.6c0.3-2.7,0.8-5.4,1.7-8c0.1-0.1,0.1-0.3,0.2-0.4
						c0.7-2.1,1.1-4.4,1.3-6.7c1.1-0.1,2.3,0.2,3.6,1.3C165.8,166.2,164.8,172.9,160.3,175.7z"/>
				</g>
			</g>
			<g>
				<path class="st0" d="M147.5,174.6c-1.7,1.4-2.8,3.5-2.8,5.7c0,1.7-0.1,3.5-0.5,4.8c-3.1,9.2-14.3,13.8-25.1,10.2
					c-10.8-3.6-17-14-13.9-23.3c0.4-1.3,1.4-2.8,2.5-4.1c1.3-1.8,1.8-4.1,1.2-6.2c-0.1-0.5-0.2-1-0.3-1.6c-0.2-1.6,0-3.2,0.5-4.8
					c2.1-6.1,8.9-9.4,15.4-7.2c2.2,0.7,4,2,5.4,3.5c1.7,1.9,4.3,2.8,6.9,2.3c2.1-0.4,4.3-0.3,6.5,0.4c6.4,2.2,10,8.9,7.9,15
					c-0.5,1.6-1.4,3-2.5,4.1C148.3,173.9,147.9,174.3,147.5,174.6z"/>
			</g>
			<g>
				<path class="st11" d="M147.5,174.6c-1.7,1.4-2.8,3.5-2.8,5.7c0,1.7-0.1,3.5-0.5,4.8c-3.1,9.2-14.3,13.8-25.1,10.2
					c-10.8-3.6-17-14-13.9-23.3c0.4-1.3,1.4-2.8,2.5-4.1c1.3-1.8,1.8-4.1,1.2-6.2c-0.1-0.5-0.2-1-0.3-1.6c-0.2-1.6,0-3.2,0.5-4.8
					c2.1-6.1,8.9-9.4,15.4-7.2c2.2,0.7,4,2,5.4,3.5c1.7,1.9,4.3,2.8,6.9,2.3c2.1-0.4,4.3-0.3,6.5,0.4c6.4,2.2,10,8.9,7.9,15
					c-0.5,1.6-1.4,3-2.5,4.1C148.3,173.9,147.9,174.3,147.5,174.6z"/>
			</g>
			<g>
				<path class="st0" d="M164.5,161.8c-2-1.7-4-1.8-5.5-1.5c0-1-0.1-2.1-0.2-3.1c-0.1-0.8-0.2-1.5-0.3-2.3
					c-1.4-7.7-5.5-15-11.6-19.6l1.1-3.7l-5.3,1.2c-0.2-0.1-0.3-0.2-0.5-0.2c-0.3-0.1-0.6-0.3-1-0.4l0.3-3l0.1-0.9
					c-0.2-0.1-0.4-0.1-0.7-0.2c-4.2-1-7.5,2-8.1,2.5c-7.6,0-15.3,3.4-21,8.7c-0.6,0.5-1.1,1-1.6,1.6c-0.7,0.8-1.4,1.5-2,2.4
					c0-0.1-0.1-0.1-0.1-0.1c-1-1.1-2.7-2.1-5.2-2c-5.5,0.3-9.5,7.8-7.2,14.1c0.9,2.6,2.2,4.2,3.7,5.3c-0.1,0.1-0.1,0.2-0.2,0.3
					c-0.4,0.8-0.9,1.5-1.2,2.4c-0.2,0.5-0.4,1-0.6,1.6c-1.5,4.5-1.3,9.2,0.2,13.7c1.7,5,5.1,9.7,9.8,13.4c2,1.6,4.3,3,6.7,4.2
					c1.2,0.6,2.5,1.1,3.8,1.6c0.1,0,0.2,0.1,0.3,0.1c12.2,4.1,24.6,1.4,31.7-6c0.9-0.9,1.7-1.9,2.4-3c1-1.5,1.8-3.1,2.3-4.8
					c0.5-1.4,0.8-2.8,0.9-4.2c0-0.1,0-0.2,0-0.3c1.8,0.1,3.9-0.5,6.1-2C167.4,173.8,168.7,165.3,164.5,161.8z M97.8,154.8
					c-1.8-5,1.4-10.9,5.7-11.1c1.6-0.1,2.8,0.4,3.6,1.1c0,0,0,0,0,0c-1.3,1.9-2.3,3.9-3,6.1c0,0.2-0.1,0.3-0.1,0.4
					c-0.8,2.6-2,5.1-3.5,7.4C99.4,158,98.5,156.7,97.8,154.8z M137.2,193.6c-0.1,0.1-0.3,0.2-0.4,0.3c-0.1,0-0.2,0.1-0.2,0.1
					c-0.2,0.1-0.3,0.2-0.5,0.3c0,0,0,0,0,0c-0.2,0.1-0.4,0.2-0.6,0.3c0,0,0,0-0.1,0c-0.1,0.1-0.3,0.1-0.5,0.2
					c-0.1,0-0.1,0.1-0.2,0.1c-0.1,0-0.2,0.1-0.3,0.1c-0.1,0-0.2,0.1-0.3,0.1c-0.1,0.1-0.3,0.1-0.4,0.2c-0.1,0-0.2,0.1-0.3,0.1h0
					c-0.2,0.1-0.3,0.1-0.5,0.2c-0.1,0-0.1,0-0.2,0.1c-0.2,0.1-0.3,0.1-0.5,0.1c-0.2,0.1-0.4,0.1-0.7,0.2c-0.4,0.1-0.9,0.2-1.4,0.3
					c0,0-0.1,0-0.1,0c-0.2,0-0.4,0.1-0.6,0.1c0,0-0.1,0-0.1,0c-0.2,0-0.4,0.1-0.6,0.1c0,0,0,0-0.1,0c-0.2,0-0.4,0-0.7,0.1
					c0,0,0,0-0.1,0c-0.2,0-0.4,0-0.7,0h0c-0.2,0-0.5,0-0.7,0c-0.6,0-1.2,0-1.9-0.1c-0.3,0-0.6-0.1-0.9-0.1c-0.2,0-0.3,0-0.5-0.1
					c-0.5-0.1-0.9-0.1-1.4-0.2c-0.3-0.1-0.6-0.1-0.9-0.2c-0.6-0.2-1.3-0.3-1.9-0.5c-0.2-0.1-0.5-0.2-0.7-0.2
					c-0.2-0.1-0.4-0.1-0.6-0.2c-0.1,0-0.2-0.1-0.3-0.1c-0.2-0.1-0.3-0.1-0.5-0.2c-0.1,0-0.1-0.1-0.2-0.1c-0.2-0.1-0.4-0.2-0.6-0.3
					c0,0,0,0,0,0c-0.2-0.1-0.5-0.2-0.7-0.3c-0.2-0.1-0.4-0.2-0.6-0.3c0,0,0,0-0.1,0c-0.2-0.1-0.4-0.2-0.6-0.4
					c-0.2-0.1-0.4-0.2-0.6-0.4c0,0-0.1,0-0.1-0.1c-0.2-0.1-0.4-0.2-0.5-0.4c0,0,0,0-0.1,0c-0.2-0.1-0.4-0.3-0.6-0.4
					c-0.2-0.1-0.4-0.3-0.5-0.4c0,0,0,0-0.1,0c-0.2-0.1-0.3-0.2-0.5-0.4c0,0,0,0-0.1-0.1c-0.2-0.2-0.4-0.3-0.5-0.5c0,0,0,0,0,0
					c-0.2-0.2-0.3-0.3-0.5-0.5c0,0,0,0-0.1-0.1c-0.1-0.1-0.3-0.3-0.4-0.4c0,0,0,0,0,0c-0.1-0.1-0.3-0.3-0.4-0.4c0,0,0-0.1-0.1-0.1
					c0,0,0,0,0,0c-0.1-0.1-0.2-0.2-0.3-0.3c-0.2-0.2-0.4-0.5-0.6-0.7c-0.1-0.1-0.2-0.2-0.2-0.3c-1.1-1.4-1.9-2.9-2.6-4.4
					c-0.1-0.1-0.1-0.3-0.2-0.4c-0.1-0.1-0.1-0.3-0.1-0.4c-0.4-1-0.6-2-0.8-3.1c0-0.1,0-0.2,0-0.3c0-0.2,0-0.3-0.1-0.5
					c0-0.1,0-0.2,0-0.3c0-0.2,0-0.5-0.1-0.7c0-0.3,0-0.5,0-0.8c0-1.6,0.3-3.3,0.8-4.9c0.2-0.6,0.5-1.2,0.8-1.8
					c0.1-0.1,0.1-0.2,0.2-0.4c0.3-0.5,0.6-0.9,0.9-1.4c0.2-0.2,0.3-0.4,0.5-0.6c1.3-1.8,1.8-4.1,1.2-6.2c-0.1-0.5-0.2-1-0.3-1.6
					c-0.2-1.6,0-3.2,0.5-4.8c2.1-6.1,8.9-9.4,15.4-7.2c2.2,0.7,4,2,5.4,3.5c1.7,1.9,4.3,2.8,6.9,2.3c2.1-0.4,4.3-0.3,6.5,0.4
					c6.4,2.2,10,8.9,7.9,15c-0.5,1.6-1.4,3-2.5,4.1c-0.4,0.4-0.8,0.7-1.2,1.1c-1.7,1.4-2.8,3.5-2.8,5.7c0,1.7-0.1,3.5-0.5,4.8
					c0,0.1-0.1,0.2-0.1,0.3c0,0.1-0.1,0.2-0.1,0.2c0,0.1-0.1,0.2-0.1,0.3c0,0,0,0,0,0c-0.1,0.2-0.1,0.4-0.2,0.5
					c-0.1,0.2-0.2,0.5-0.3,0.7c-0.1,0.1-0.1,0.3-0.2,0.4c0,0-0.1,0.1-0.1,0.1c-0.1,0.2-0.2,0.3-0.3,0.5c-0.2,0.4-0.5,0.8-0.8,1.1
					c-0.1,0.2-0.3,0.3-0.4,0.5c0,0,0,0,0,0c-0.1,0.2-0.3,0.3-0.4,0.5c-0.1,0.2-0.3,0.3-0.4,0.5c-0.3,0.3-0.7,0.7-1,1
					c-0.1,0.1-0.2,0.2-0.4,0.3c0,0,0,0-0.1,0c-0.2,0.1-0.3,0.3-0.5,0.4c-0.1,0.1-0.3,0.2-0.5,0.3c0,0-0.1,0.1-0.1,0.1
					c-0.1,0.1-0.3,0.2-0.4,0.3C137.6,193.4,137.4,193.5,137.2,193.6L137.2,193.6z M160.3,175.7c-1.7,1.1-3.2,1.5-4.5,1.6
					c0.3-2.7,0.8-5.4,1.7-8c0.1-0.1,0.1-0.3,0.2-0.4c0.7-2.1,1.1-4.4,1.3-6.7c1.1,0,2.3,0.2,3.6,1.3
					C165.8,166.2,164.8,172.9,160.3,175.7z"/>
			</g>
			<g>
				<g>
					<path class="st12" d="M125.3,173.6l-0.2,0.2c-0.3,0.3-0.9,0.4-1.2,0l-2-1.9c-0.3-0.3-0.4-0.9,0-1.2l0.2-0.2
						c0.3-0.3,0.9-0.4,1.2,0l2,1.9C125.6,172.7,125.6,173.3,125.3,173.6z"/>
				</g>
				<g>
					<path class="st12" d="M127.1,174.2l0,0.3c0,0.5,0.5,0.8,0.9,0.8l2.8-0.3c0.5,0,0.8-0.5,0.8-0.9l0-0.3c0-0.5-0.5-0.8-0.9-0.8
						l-2.8,0.3C127.4,173.4,127.1,173.8,127.1,174.2z"/>
				</g>
			</g>
			<g>
				<path class="st13" d="M116.3,159.1c0.6-1.7,2.5-2.6,4.3-2s2.8,2.5,2.3,4.2"/>
				<path class="st13" d="M136.1,165.7c0.6-1.7,2.5-2.6,4.3-2s2.8,2.5,2.3,4.2"/>
				<path class="st12" d="M111,177c-0.8-0.2-1.7,0.4-1.8,1.3c-0.6,6.5,4.3,12.8,11.7,14.4c7.2,1.6,14.4-1.9,16.8-8
					c0.3-0.8-0.2-1.8-1-2L111,177z"/>
				<path class="st14" d="M113.2,188.5c2,2,4.6,3.5,7.7,4.2s6.1,0.5,8.8-0.5c-0.2-3.8-3.7-3.8-7.6-4.6
					C118.2,186.8,115.1,185.2,113.2,188.5z"/>
			</g>
		</g>
	</g>
</g>
</svg>
