<svg width="36" height="37" viewBox="0 0 36 37" fill="none" xmlns="http://www.w3.org/2000/svg">
<g clip-path="url(#clip0_4567_10271)">
<path d="M33.6168 12.3719C33.2066 12.2038 32.769 12.1155 32.3267 12.1116C31.9626 12.1107 31.6012 12.1757 31.2595 12.3035C31.1109 11.8922 30.9489 11.481 30.7733 11.0834C30.5976 10.6858 30.4423 10.398 30.2599 10.0552C29.3223 8.31678 28.0925 6.75781 26.6262 5.44894C25.1859 4.15512 23.508 3.16296 21.6888 2.52913L21.6145 0.568867L19.2978 1.98091H19.0141L18.5008 1.94644L18.1631 0.465784L18.0618 0.0273438H17.7511C16.8199 0.115696 15.9504 0.538481 15.2993 1.21983C14.9155 1.60744 14.5942 2.05397 14.347 2.54285C10.6707 3.89612 7.61773 6.58177 5.77588 10.0827C5.59351 10.4185 5.42465 10.7681 5.26255 11.1108C5.10045 11.4536 4.92486 11.9197 4.77627 12.3309C4.43722 12.2014 4.07814 12.134 3.71585 12.1321C3.27062 12.1354 2.83019 12.2261 2.41901 12.3994C-0.134087 13.4001 -0.823005 17.6705 1.25054 20.33C1.78138 21.0625 2.47579 21.6568 3.27681 22.0641C3.27681 22.1327 3.2768 22.2013 3.22276 22.2698C3.21473 22.3208 3.20346 22.3711 3.189 22.4206C3.03704 23.1369 2.96009 23.8675 2.95938 24.6002C2.95938 29.6793 6.65394 34.0525 11.9492 35.9786C13.1915 36.4314 14.4811 36.7372 15.7924 36.8901C16.4648 36.9735 17.1413 37.0194 17.8187 37.0273H17.9875C26.2952 37.0273 33.0291 31.4615 33.0291 24.6002C33.0295 23.8671 32.9503 23.1361 32.7928 22.4206C32.7928 22.3726 32.7928 22.3178 32.7928 22.2698C32.7928 22.2218 32.7928 22.1327 32.7387 22.0641C33.5385 21.6548 34.2325 21.0609 34.765 20.33C36.8588 17.643 36.1699 13.3727 33.6168 12.3719ZM28.5444 19.2949C28.4323 19.5311 28.306 19.76 28.1661 19.9804C27.8698 20.4453 27.6796 20.9715 27.6095 21.5206C27.5394 22.0697 27.5911 22.6277 27.7609 23.1539C28.0462 23.9165 28.217 24.7184 28.2674 25.5325C28.2674 30.454 23.6745 34.4432 18.001 34.4432C12.3275 34.4432 7.73462 30.454 7.73462 25.5325C7.78829 24.7189 7.95896 23.9174 8.24119 23.1539C8.41386 22.6285 8.46769 22.0705 8.3987 21.5211C8.32972 20.9717 8.13967 20.445 7.84267 19.9804C7.70036 19.7615 7.57395 19.5324 7.46443 19.2949C7.13002 18.5528 6.95723 17.7463 6.95787 16.9302C6.99856 15.3218 7.66654 13.7954 8.81511 12.6864C9.96369 11.5773 11.499 10.9761 13.084 11.0148C14.1763 11.0138 15.2506 11.2971 16.2044 11.8374C16.753 12.1541 17.3733 12.3206 18.0044 12.3206C18.6355 12.3206 19.2558 12.1541 19.8044 11.8374C20.7575 11.2954 21.8323 11.0119 22.9249 11.0148C24.5098 10.9761 26.0451 11.5773 27.1937 12.6864C28.3423 13.7954 29.0102 15.3218 29.0509 16.9302C29.0516 17.7463 28.8788 18.5528 28.5444 19.2949Z" fill="#FFB300"/>
<path d="M21.0667 28.6029C20.1443 29.1747 19.0844 29.4771 18.0036 29.4771C16.9228 29.4771 15.863 29.1747 14.9406 28.6029C14.8095 28.5206 14.6517 28.4938 14.5014 28.5285C14.351 28.5631 14.2201 28.6563 14.1368 28.788C14.0955 28.8532 14.0672 28.926 14.0537 29.0024C14.0401 29.0787 14.0415 29.157 14.0578 29.2328C14.0741 29.3086 14.105 29.3803 14.1487 29.444C14.1924 29.5076 14.2481 29.5619 14.3125 29.6036C15.4149 30.313 16.6948 30.6866 18.0002 30.6798C19.3079 30.6875 20.5902 30.3139 21.6948 29.6036C21.7592 29.5619 21.8148 29.5076 21.8585 29.444C21.9022 29.3803 21.9331 29.3086 21.9494 29.2328C21.9657 29.157 21.9672 29.0787 21.9536 29.0024C21.9401 28.926 21.9118 28.8532 21.8704 28.788C21.7872 28.6563 21.6562 28.5631 21.5059 28.5285C21.3555 28.4938 21.1978 28.5206 21.0667 28.6029Z" fill="#FFB300"/>
<path d="M15.6903 22.9274L16.8318 23.4552C16.8917 23.4861 16.9572 23.5042 17.0244 23.5084C17.0915 23.5127 17.1587 23.5029 17.222 23.4798C17.2852 23.4567 17.3431 23.4207 17.3922 23.3741C17.4412 23.3274 17.4804 23.271 17.5072 23.2084C17.5386 23.1478 17.5573 23.0811 17.562 23.0128C17.5667 22.9444 17.5573 22.8758 17.5344 22.8113C17.5115 22.7468 17.4757 22.6879 17.4291 22.6383C17.3826 22.5886 17.3264 22.5493 17.264 22.523L16.1226 21.9883C16.0583 21.9615 15.9895 21.9477 15.9199 21.9473C15.8252 21.9461 15.7322 21.9726 15.6519 22.0236C15.5717 22.0747 15.5076 22.1481 15.4674 22.2351C15.4352 22.295 15.4155 22.361 15.4093 22.4289C15.4031 22.4968 15.4107 22.5652 15.4316 22.6301C15.4525 22.6949 15.4862 22.7548 15.5307 22.8059C15.5752 22.8571 15.6295 22.8984 15.6903 22.9274Z" fill="#FFB300"/>
<path d="M19.1955 23.4564L20.337 22.9286C20.398 22.9006 20.4529 22.8605 20.4983 22.8106C20.5438 22.7607 20.5789 22.702 20.6016 22.638C20.6242 22.5741 20.634 22.5063 20.6303 22.4384C20.6267 22.3706 20.6096 22.3041 20.5801 22.2431C20.5399 22.1561 20.4759 22.0826 20.3956 22.0316C20.3154 21.9805 20.2223 21.9539 20.1276 21.9551C20.0581 21.9555 19.9893 21.9695 19.925 21.9963L18.7835 22.5309C18.7212 22.5573 18.6649 22.5966 18.6184 22.6462C18.5718 22.6959 18.536 22.7548 18.5131 22.8193C18.4902 22.8838 18.4809 22.9524 18.4856 23.0208C18.4902 23.0891 18.5089 23.1557 18.5404 23.2164C18.596 23.3363 18.6962 23.4288 18.8191 23.4738C18.9419 23.5187 19.0773 23.5126 19.1955 23.4564Z" fill="#FFB300"/>
<path d="M14.562 17.9595V17.4042C14.5606 17.1842 14.5149 16.9667 14.4278 16.7652C14.3407 16.5636 14.214 16.3823 14.0554 16.2322C13.7242 15.9174 13.2867 15.7433 12.8329 15.7455C12.6102 15.7364 12.3878 15.7725 12.1789 15.8516C11.9701 15.9308 11.7789 16.0514 11.6166 16.2066C11.4543 16.3617 11.3242 16.5481 11.2338 16.755C11.1434 16.9618 11.0946 17.1849 11.0903 17.4111V17.9664C11.1027 18.416 11.2902 18.8423 11.6118 19.152C11.9333 19.4616 12.3627 19.6293 12.8059 19.6182C13.029 19.6283 13.2518 19.5932 13.4614 19.5149C13.671 19.4367 13.8632 19.3169 14.0267 19.1625C14.1901 19.0081 14.3216 18.8222 14.4136 18.6156C14.5055 18.4091 14.556 18.186 14.562 17.9595Z" fill="#FFB300"/>
<path d="M23.1667 15.7447C22.9467 15.7392 22.7278 15.7777 22.5226 15.8581C22.3173 15.9385 22.1296 16.0592 21.9703 16.2132C21.811 16.3673 21.6831 16.5517 21.5941 16.7559C21.505 16.9601 21.4564 17.1801 21.4512 17.4034V17.9586C21.4635 18.4083 21.6511 18.8346 21.9726 19.1442C22.2942 19.4539 22.7236 19.6215 23.1667 19.6105C23.3867 19.6168 23.6058 19.5792 23.8114 19.4997C24.0171 19.4201 24.2053 19.3002 24.3652 19.1467C24.5252 18.9933 24.6538 18.8094 24.7437 18.6056C24.8335 18.4017 24.8829 18.1819 24.889 17.9586V17.4034C24.8889 17.1837 24.8444 16.9665 24.7585 16.7649C24.6725 16.5634 24.5469 16.3818 24.3892 16.2313C24.0576 15.9171 23.6204 15.7431 23.1667 15.7447Z" fill="#FFB300"/>
</g>
<defs>
<clipPath id="clip0_4567_10271">
<rect width="36" height="37" fill="white"/>
</clipPath>
</defs>
</svg>
