<svg width="890" height="873" viewBox="0 0 890 873" fill="none" xmlns="http://www.w3.org/2000/svg">
<path d="M799.051 527.59C797.66 517.856 794.878 509.511 792.095 499.776C775.401 439.976 787.922 377.395 769.837 317.595C769.837 317.595 769.837 317.595 769.837 316.204C737.84 200.776 644.631 97.8648 533.337 60.316L531.946 15.8137L476.299 49.1904C469.344 47.7997 463.779 47.7997 456.823 47.7997C455.432 39.4555 448.476 8.86017 447.085 1.90668C397.003 -0.874715 359.441 51.9718 358.05 61.7067C245.365 99.2555 152.156 202.167 120.159 317.595C103.465 377.395 115.986 439.976 99.2918 499.776C92.336 526.2 86.7713 551.232 86.7713 579.046C83.9889 748.711 271.797 875.265 441.52 871.093C659.934 873.874 838.004 716.725 799.051 527.59Z" stroke="white" stroke-width="3" stroke-linecap="round" stroke-linejoin="round"/>
<path d="M92.3363 524.809C71.4688 517.856 50.6012 503.949 31.1248 478.916C-18.9574 416.335 -2.26333 316.205 58.9482 292.563C86.7717 281.437 109.03 287 124.333 295.344C125.724 295.344 125.724 296.735 127.116 296.735" stroke="white" stroke-width="3" stroke-linecap="round" stroke-linejoin="round"/>
<path d="M762.881 296.735C779.575 287 801.834 281.437 831.048 292.563C892.26 316.204 908.954 416.335 858.872 478.916C839.396 503.949 817.137 517.856 797.66 524.809" stroke="white" stroke-width="3" stroke-linecap="round" stroke-linejoin="round"/>
<path d="M696.105 456.665C704.452 439.976 708.625 420.507 708.625 401.037C708.625 324.549 643.24 261.967 562.552 261.967C534.729 261.967 509.688 268.921 487.429 281.437C460.996 296.735 427.608 296.735 401.176 281.437C378.917 268.921 353.876 261.967 326.053 261.967C245.365 261.967 179.98 324.549 179.98 401.037C179.98 420.507 184.153 439.976 192.5 456.665C195.283 462.228 198.065 467.79 202.238 473.353C216.15 495.604 220.324 523.418 211.977 548.451C205.021 567.921 199.456 588.781 199.456 604.079C199.456 719.507 309.359 814.074 444.302 814.074C579.246 814.074 689.149 720.897 689.149 604.079C689.149 588.781 683.584 566.53 676.628 548.451C668.281 523.418 672.455 495.604 686.366 473.353C690.54 467.79 694.713 462.228 696.105 456.665Z" stroke="white" stroke-width="3" stroke-linecap="round" stroke-linejoin="round"/>
<path d="M320.489 629.111C312.142 629.111 305.187 636.065 306.578 644.409C314.925 706.99 374.745 754.274 445.695 754.274C516.645 754.274 576.465 706.99 584.812 644.409C586.203 636.065 579.247 629.111 570.9 629.111H320.489Z" stroke="white" stroke-width="3" stroke-linecap="round" stroke-linejoin="round"/>
<path d="M365.008 732.023C387.266 745.93 415.09 755.665 445.696 755.665C476.301 755.665 504.125 747.321 526.384 732.023C516.645 697.256 483.257 705.6 445.696 705.6C406.743 705.6 374.746 697.256 365.008 732.023Z" stroke="white" stroke-width="3" stroke-linecap="round" stroke-linejoin="round"/>
<path d="M433.173 547.06C430.391 552.623 423.435 555.404 417.87 552.623L390.047 540.107C384.482 537.325 381.7 530.372 384.482 524.809C387.265 519.246 394.221 516.465 399.785 519.246L427.609 531.762C433.173 534.544 435.956 541.497 433.173 547.06Z" fill="white"/>
<path d="M458.212 547.06C460.995 552.623 467.95 555.404 473.515 552.623L501.339 540.107C506.903 537.325 509.686 530.372 506.903 524.809C504.121 519.246 497.165 516.465 491.6 519.246L463.777 531.762C458.212 534.544 455.43 541.497 458.212 547.06Z" fill="white"/>
<path d="M319.097 456.665C295.447 456.665 277.361 438.586 277.361 416.335V402.428C277.361 380.177 296.838 362.098 319.097 362.098C342.747 362.098 360.832 380.177 360.832 402.428V416.335C360.832 438.586 342.747 456.665 319.097 456.665Z" stroke="white" stroke-width="3" stroke-linecap="round" stroke-linejoin="round"/>
<path d="M570.899 456.665C547.249 456.665 529.164 438.586 529.164 416.335V402.428C529.164 380.177 548.64 362.098 570.899 362.098C594.549 362.098 612.634 380.177 612.634 402.428V416.335C612.634 438.586 594.549 456.665 570.899 456.665Z" stroke="white" stroke-width="3" stroke-linecap="round" stroke-linejoin="round"/>
</svg>
