<svg xmlns="http://www.w3.org/2000/svg" viewBox="0 0 2907.53 1346.52"><defs><style>.cls-1{isolation:isolate;}.cls-2,.cls-5{fill:#eddab3;}.cls-2{opacity:0.25;}.cls-2,.cls-4{mix-blend-mode:multiply;}.cls-3{fill:#916554;}.cls-4{fill:#654659;opacity:0.4;}.cls-6{fill:#4b4141;}.cls-7{fill:#c9646d;}.cls-8{fill:#5b5460;}.cls-9{fill:#fff;}.cls-10{fill:#f0c83e;}.cls-11{fill:#9c7435;}.cls-12{fill:#735628;}.cls-13,.cls-25{fill:#ebb02a;}.cls-14{fill:#f3d35a;}.cls-15{fill:#f5de85;}.cls-16{fill:#f9eab3;}.cls-17{fill:#d1e1f9;}.cls-18{fill:#f3f9ff;}.cls-19{fill:#ee9849;}.cls-20{fill:#a6c7f9;}.cls-21{fill:#c65447;}.cls-22{fill:#e57970;}.cls-23{fill:#a8d29f;}.cls-24{fill:#f1a34f;}.cls-25{opacity:0.2;}</style></defs><g class="cls-1"><g id="_Layer_" data-name="&lt;Layer&gt;"><path class="cls-2" d="M1815,1218.34c494.23-9.11,906.3-275.2,858.72-608.7C2644.8,406.81,2515.3,204,2012.8,122.18S967.57,147.23,750,288.81C449.47,484.36,388.72,814.19,654.73,991.44S1245.45,1228.84,1815,1218.34Z"/></g><g id="Слой_2" data-name="Слой 2"><path class="cls-3" d="M2861.29,1146c-18.62,3.3-27.23-65.3-54.48-96.77-32.82-37.9-133-72.56-164.22-94.94-4.29-3.08-8.48-6.32-12.52-9.67-34.22-28.25-58.87-63.6-58.87-63.6l-19.89-27.77,8.11-15.36s30.89,59.22,73.43,95.53a160,160,0,0,0,14.38,11c49.77,33.62,121.09,49.09,179.38,106.41C2859.2,1082.85,2873.37,1143.83,2861.29,1146Z"/><path class="cls-4" d="M2632.85,933.39a35.56,35.56,0,0,0-2.78,11.2c-34.22-28.25-58.87-63.6-58.87-63.6l-19.89-27.77,8.11-15.36S2590.31,897.08,2632.85,933.39Z"/><path class="cls-3" d="M2769.35,547.75c-1.16,8.12-5.06,20.56-16.67,35.7-26.86,35-82.24,65.91-82.24,65.91l-83.26,18.46a147.35,147.35,0,0,0-14.26,15c-7.57,9.1-16,21.42-19.42,34.29-2.28,8.52-1.79,22-.12,36.29,3.37,28.76,11.54,60.56,11.54,60.56s21.88,69.28,31.58,107.19c2.13,8.31,3.67,15.11,4.26,19.35.3,2.22.55,5.14.73,8.61.09,2,.18,4.27.24,6.66.78,29.48-1.33,83.11-2.2,102.86-.1,2.38-.19,4.27-.25,5.56s-.09,2-.09,2l-9.16,17.62-1.76,3.39-.85-2.94-5.61-19.39-29.45-101.68-.42-1.4s-12.64-33.34-21.61-46.19-43.72-27.29-49.48-6.85c-3.92,13.9,18.71,47.91,33.57,68.24,7,9.55,12.26,16.08,12.26,16.08l-19.17,3.11s-2.16-1.9-5.84-5.18c-17.67-15.76-76.08-71.9-78.52-84.25-2.92-14.8-8.39-96.24-8.39-96.24s-15.58-41.41-20.93-73.12c-4.4-26.11-4.84-55.68-4.84-55.68a67.43,67.43,0,0,1-4.54-24.29c0-1.88.09-3.77.24-5.65,2.84-33.62,8.48-113,.86-137-2.19-6.94-6.64-11.47-9.4-15.92-9.45-15.3-23.27-55.3-23.27-55.3s-23.42-60.32-21.65-119.72c2.46-83,22.79-15.2,22.79-15.2l10.55,30.07s9.83,64.15,42.55,118.53a167.49,167.49,0,0,0,13.94,19.31c9.7,11.87,22,24.75,35.27,37.66,48.71,47.31,111.06,95,111.06,95a87.21,87.21,0,0,0,12.71,5.36l1.64.56a137.26,137.26,0,0,0,80,1.47c53.85-15.19,92.53-84.23,92.53-84.23l15.11,5S2770.3,541.11,2769.35,547.75Z"/><path class="cls-3" d="M2550.84,1052.76c-12.19-.37-7-35.31-12.07-32.78s11.74,69.39,5.66,68.83c-2-.19-3.49-2.42-4.54-5.32a.32.32,0,0,0,0,.07c.15,4.07-.54,7.47-3.25,7.69s-4.77-3.81-6.3-8.82c-.25,3.18-1.4,5.56-4.22,5.83-9.18.87-15-73.3-16-78.29,0-.15-.06-.32-.11-.49-1.07-4.19-6.08-14.09-8.37-18.51l-1.14-2.19s-.07-.22-.18-.61l7.36,5.32-6.8-10.75s8.31-1.41,13.17,2,4.81,5,4.81,5,1-4.61-5.21-13.14l.05,0c.23.1.46.2.68.32C2533.92,986.56,2562.9,1053.12,2550.84,1052.76Z"/><path class="cls-3" d="M2646.4,1167c-7.73-.83-13-15.32-13.64-17.27.79,2.79,9.61,27.75,6,27.59a4.36,4.36,0,0,1-2-.9c-2.4-1.62-5.93-5.41-8.72-10.87a34.31,34.31,0,0,1,2.19,8h0c.36,3.32-.59,5.47-3.94,5-11.55-1.75-33.53-66.87-39-64.32s10.68,46-2.64,40c-8.57-3.83-7.56-40.29-5.76-65.83,1-14.17,2.26-25,2.26-25l.67,1.41,6.06,12.8s3.25-6.26,2.9-11.87c-.26-4.31-.8-9.45-1-11.59a5.52,5.52,0,0,1,.55-.26l7.95,9,.84-5.19c.15.26.3.52.44.8,0,0,0,0,0,.06h0c3.83,7.41,18.25,36,30.26,61.93.07.13.12.25.18.37s0,0,0,.08a.37.37,0,0,0,.05.11c.12.27.23.49.32.7a.88.88,0,0,1,.09.2c.09.18.16.34.22.45l.12.28C2641.73,1146.47,2650.32,1167.42,2646.4,1167Z"/><path class="cls-4" d="M2581.73,615.08c-17.33,15.65-58.07,46.39-92.27,26.22-44.78-26.41-71.46-44.75-78.16-104-1.91-16.88,6.09-49.78,9.76-60.83a464,464,0,0,0,35.27,37.65c48.7,47.31,111.05,95,111.05,95a87.73,87.73,0,0,0,12.72,5.36Z"/><path class="cls-3" d="M2452.27,452.58a79.82,79.82,0,0,0-9.31,18.84l-.45,1.38a107.28,107.28,0,0,1-10.72,23c-3.27-2.57-6.21-6.52-8.31-12.37-5.53-15.38,4.21-33.83,17.6-34.46a15.8,15.8,0,0,1,11.23,3.51A.21.21,0,0,1,2452.27,452.58Z"/><path class="cls-5" d="M2452.27,452.58a79.82,79.82,0,0,0-9.31,18.84l-.45,1.38a107.28,107.28,0,0,1-10.72,23c-3.27-2.57-6.21-6.52-8.31-12.37-5.53-15.38,4.21-33.83,17.6-34.46a15.8,15.8,0,0,1,11.23,3.51A.21.21,0,0,1,2452.27,452.58Z"/><path class="cls-3" d="M2617.1,548.32c-5.19,3.39-9.91,4.78-14.07,4.86a107,107,0,0,1,5.31-24.84c.16-.46.32-.92.47-1.38a79.56,79.56,0,0,0,3.92-20.72,15.78,15.78,0,0,1,11.08,4C2634.12,518.77,2630.78,539.37,2617.1,548.32Z"/><path class="cls-5" d="M2617.1,548.32c-5.19,3.39-9.91,4.78-14.07,4.86a107,107,0,0,1,5.31-24.84c.16-.46.32-.92.47-1.38a79.56,79.56,0,0,0,3.92-20.72,15.78,15.78,0,0,1,11.08,4C2634.12,518.77,2630.78,539.37,2617.1,548.32Z"/><path class="cls-3" d="M2577.21,544.82a22.61,22.61,0,0,0-8.52,17.61c0,5.18-.33,10.9-1.64,14.81-9.57,28.6-44.43,42.71-77.86,31.51s-52.76-43.45-43.18-72c1.31-3.91,4.48-8.69,7.61-12.81a22.61,22.61,0,0,0,3.81-19.19,35.09,35.09,0,0,1,.74-19.6c6.36-19,27.68-29,47.63-22.29a39.33,39.33,0,0,1,16.79,10.95,22.67,22.67,0,0,0,21.24,7.11,39.3,39.3,0,0,1,20,1.37c19.95,6.68,31,27.49,24.6,46.48a35.11,35.11,0,0,1-11.21,16.09Z"/><path class="cls-5" d="M2577.21,544.82a22.61,22.61,0,0,0-8.52,17.61c0,5.18-.33,10.9-1.64,14.81-9.57,28.6-44.43,42.71-77.86,31.51s-52.76-43.45-43.18-72c1.31-3.91,4.48-8.69,7.61-12.81a22.61,22.61,0,0,0,3.81-19.19,35.09,35.09,0,0,1,.74-19.6c6.36-19,27.68-29,47.63-22.29a39.33,39.33,0,0,1,16.79,10.95,22.67,22.67,0,0,0,21.24,7.11,39.3,39.3,0,0,1,20,1.37c19.95,6.68,31,27.49,24.6,46.48a35.11,35.11,0,0,1-11.21,16.09Z"/><path class="cls-6" d="M2473.56,553.05a3.66,3.66,0,0,0-4.76,2.77c-3,16,7.57,32.76,25.18,38.65s36.1-1.09,43.38-15.69a3.66,3.66,0,0,0-2.14-5.08Z"/><path class="cls-7" d="M2476,582.1a39.64,39.64,0,0,0,39.82,13.33c.4-9.48-8.26-10.17-17.68-13.32S2481.37,574.29,2476,582.1Z"/><path class="cls-3" d="M2630.05,505.19c-6.23-5.18-12.41-5.62-17.17-4.66a90.77,90.77,0,0,0-.54-9.58q-.37-3.49-1-7c-4.24-23.72-17.1-46.54-35.89-60.66l3.39-11.52-16.44,3.63-1.59-.72c-1-.43-2-.84-3-1.22l.88-9.28.26-2.71c-.68-.23-1.36-.43-2-.59-13.08-3.23-23.3,6.22-25,7.87-23.5,0-47.49,10.43-65.16,26.8q-2.6,2.4-5,5a93.34,93.34,0,0,0-6.2,7.32c-.13-.15-.27-.31-.42-.46-3.25-3.45-8.34-6.53-16.09-6.16-17,.79-29.37,24.24-22.35,43.78,2.87,8,6.95,13.16,11.48,16.38l-.48.79a62,62,0,0,0-5.6,12.2c-9.89,29.53,3.38,62.22,30.84,83.85a109.27,109.27,0,0,0,20.88,12.9,114.75,114.75,0,0,0,11.83,4.82l1,.33c49,16.4,99.5-2.63,112.85-42.5a62.25,62.25,0,0,0,2.88-13.12c0-.3.07-.61.09-.91,5.56.15,12-1.54,19-6.17C2638.9,542.23,2643.14,516.06,2630.05,505.19Zm-177.78-52.61a79.82,79.82,0,0,0-9.31,18.84l-.45,1.38a107.28,107.28,0,0,1-10.72,23c-3.27-2.57-6.21-6.52-8.31-12.37-5.53-15.38,4.21-33.83,17.6-34.46a15.8,15.8,0,0,1,11.23,3.51A.21.21,0,0,1,2452.27,452.58Zm128.55,88.88a34.77,34.77,0,0,1-3.61,3.36,22.61,22.61,0,0,0-8.52,17.61c0,5.18-.33,10.9-1.64,14.81-9.57,28.6-44.43,42.71-77.86,31.51s-52.76-43.45-43.18-72c1.31-3.91,4.48-8.69,7.61-12.81a22.61,22.61,0,0,0,3.81-19.19,35.09,35.09,0,0,1,.74-19.6c6.36-19,27.68-29,47.63-22.29a39.33,39.33,0,0,1,16.79,10.95,22.67,22.67,0,0,0,21.24,7.11,39.3,39.3,0,0,1,20,1.37c19.95,6.68,31,27.49,24.6,46.48A34.48,34.48,0,0,1,2580.82,541.46Zm36.28,6.86c-5.19,3.39-9.91,4.78-14.07,4.86a107,107,0,0,1,5.31-24.84c.16-.46.32-.92.47-1.38a79.56,79.56,0,0,0,3.92-20.72,15.78,15.78,0,0,1,11.08,4C2634.12,518.77,2630.78,539.37,2617.1,548.32Z"/><rect class="cls-6" x="2499.98" y="530.33" width="6.13" height="13.93" rx="1.5" transform="translate(401.3 1999) rotate(-46.93)"/><rect class="cls-6" x="2518.1" y="536.4" width="6.13" height="13.93" rx="1.5" transform="translate(2245.94 3107.7) rotate(-96.04)"/><path class="cls-6" d="M2487.6,510.24h0c-5.73-1.92-8.89-7.88-7.08-13.3l1.1-3.28c1.82-5.42,7.93-8.27,13.66-6.35h0c5.72,1.92,8.89,7.87,7.07,13.3l-1.09,3.27C2499.44,509.31,2493.33,512.15,2487.6,510.24Z"/><path class="cls-8" d="M2495.28,487.31l-3.84,11.46a5.47,5.47,0,0,0,10.36,3.47l.55-1.63C2504.17,495.18,2501,489.23,2495.28,487.31Z"/><ellipse class="cls-9" cx="2493.08" cy="493.86" rx="3.45" ry="3.64" transform="translate(1233.08 2701.07) rotate(-71.48)"/><path class="cls-6" d="M2549.8,531.07h0c-5.73-1.92-8.89-7.88-7.08-13.3l1.1-3.28c1.82-5.42,7.93-8.27,13.66-6.35h0c5.72,1.92,8.89,7.87,7.07,13.3l-1.09,3.27C2561.64,530.14,2555.52,533,2549.8,531.07Z"/><path class="cls-8" d="M2557.48,508.14l-3.84,11.46a5.47,5.47,0,0,0,10.36,3.48l.55-1.64C2566.37,516,2563.2,510.06,2557.48,508.14Z"/><ellipse class="cls-9" cx="2555.28" cy="514.69" rx="3.45" ry="3.64" transform="translate(1255.77 2774.26) rotate(-71.48)"/><path class="cls-5" d="M2414.76,594.75s31.54,22.38,53.53,38S2531,650.89,2531,650.89s24.17,7.42,17,24.88-26.41,34-18.8,65.34,21,82.29,13,106.46c-3.8,11.51-47.51,22.22-73.92,5.21s-45.49-61.5-46.39-107.15-18.45-86.87-20.24-102.09S2396.53,587.59,2414.76,594.75Z"/><path class="cls-10" d="M2745.53,541.76s-8.9-5.27-24.94,1.46c-22.93,9.63-27.09,10-17.83-2.89s26.08-17.18,26.08-17.18Z"/><path class="cls-10" d="M2766.83,522.92s-9.42-15.16-8-24.15c3.8-24.57,1.81-28.76-7.31-15.8s-7.71,30.26-7.71,30.26Z"/><path class="cls-11" d="M2756.3,584l-6.11-2.52-5,12.06a2.45,2.45,0,0,0,1.33,3.19l1.59.66a2.46,2.46,0,0,0,3.2-1.33Z"/><path class="cls-12" d="M2756.3,584l-3.05-1.26-5.9,14.32.79.33a2.46,2.46,0,0,0,3.2-1.33Z"/><path class="cls-13" d="M2761.78,519.48a66.76,66.76,0,0,1,2,61.6,24,24,0,0,1-5.76,7.68,7.59,7.59,0,0,1-4.43,1.78,5.54,5.54,0,0,1-1.39-.13s0,0,0,0h0a9.24,9.24,0,0,1-1.86-.58,7.72,7.72,0,0,1-2.8-1.88l-.11-.12a8.27,8.27,0,0,1-2-4.63l0-.19c0-.06,0-.12,0-.18s0-.23,0-.32c0-.33,0-.52,0-.52v0c.12-.64.25-1.29.35-1.94.08-.48.15-1,.22-1.45s.15-1.1.21-1.65c0,0,0,0,0,0q.2-1.64.3-3.27a60.8,60.8,0,0,0,.07-7.63c-.06-1.4-.17-2.79-.33-4.16-.07-.67-.15-1.34-.25-2a.06.06,0,0,0,0,0c-.05-.41-.12-.82-.18-1.23,0-.09,0-.18,0-.27-.08-.5-.18-1-.27-1.5s-.24-1.24-.38-1.85c-.09-.43-.21-.86-.31-1.29l-.12-.51a4.77,4.77,0,0,0-.13-.51c0-.11-.06-.2-.08-.31-.11-.42-.22-.85-.35-1.27,0-.06,0-.13,0-.19-.08-.27-.16-.55-.25-.83s-.16-.55-.26-.83-.24-.79-.38-1.17l-.24-.72c-.5-1.45-1.05-2.86-1.65-4.25-.2-.47-.4-.93-.62-1.39-.09-.21-.18-.42-.28-.63s-.18-.39-.28-.58-.06-.11-.08-.17c-.23-.46-.45-.92-.69-1.35-.1-.2-.19-.4-.3-.6-.26-.51-.53-1-.81-1.52-.18-.33-.37-.65-.56-1-.37-.64-.75-1.28-1.16-1.9-.12-.22-.26-.43-.39-.64l-.13-.2-.74-1.11-.79-1.16c-.85-1.22-1.75-2.39-2.68-3.53l-.29-.36c-.2-.25-.4-.5-.61-.73l-.05-.06c-.3-.35-.59-.7-.91-1a2.41,2.41,0,0,0-.21-.24l-.17-.2c-.4-.43-.79-.86-1.19-1.28-.19-.2-.36-.39-.55-.58l-.14-.14c-.11-.12-.23-.24-.35-.35s-.23-.24-.36-.36c-.79-.79-1.6-1.55-2.43-2.3l-1.26-1.11c-.6-.53-1.22-1-1.86-1.53l-.19-.16-.16-.12c-.73-.57-1.48-1.13-2.23-1.68l-.77-.54c-.26-.17-.52-.34-.78-.53s-.61-.41-.92-.61l-.57-.36c-.34-.23-.68-.44-1-.65s-.63-.38-.94-.57c-.56-.33-1.11-.65-1.68-.95-.28-.16-.57-.32-.87-.47l-.32-.17-.33-.17-.66-.34-.75-.37c-.85-.42-1.7-.81-2.56-1.18l-.13-.06c-.78-.34-1.58-.66-2.39-1l0,0c-3.24-1.42-11.23-3.9-16.15-7.09-2.25-1.45-3.87-3.06-4.09-4.78a3.5,3.5,0,0,1,0-.65s0,0,0,0a5.42,5.42,0,0,1,.14-.65h0s0,0,0,0a9,9,0,0,1,3.59-4.57,22.8,22.8,0,0,1,7.89-3.27,66.74,66.74,0,0,1,66.37,33.45Z"/><path class="cls-14" d="M2751.89,529a66.41,66.41,0,0,1,6.75,41.7c-.14.82-.28,1.63-.45,2.44a66.8,66.8,0,0,1-3,10.34,68.62,68.62,0,0,1-3,6.78l-.05.1a9.24,9.24,0,0,1-1.86-.58,7.72,7.72,0,0,1-2.8-1.88l-.11-.12a8.27,8.27,0,0,1-2-4.63l0-.19c0-.06,0-.12,0-.18s0-.23,0-.32c0-.33,0-.52,0-.52v0c.12-.64.25-1.29.35-1.94.08-.48.15-1,.22-1.45s.15-1.1.21-1.65c0,0,0,0,0,0l0-.31c0-.27.06-.54.08-.82.08-.71.14-1.43.19-2.14,0-.42,0-.82.06-1.23,0-.65.06-1.31.07-1.94,0-.44,0-.87,0-1.29l0-1.9c0-.42,0-.84,0-1.27,0-.64-.08-1.27-.13-1.91l-.06-.79c-.05-.48-.08-1-.14-1.46s-.09-.69-.13-1-.07-.64-.12-1a.06.06,0,0,0,0,0c-.05-.41-.12-.82-.18-1.23,0-.09,0-.18,0-.27-.08-.5-.18-1-.27-1.5l-.15-.69c-.08-.38-.15-.76-.23-1.16s-.21-.86-.31-1.29l-.12-.51c0-.17-.09-.35-.13-.51s-.06-.2-.08-.31c-.11-.42-.22-.85-.35-1.27,0-.06,0-.13,0-.19-.08-.27-.16-.55-.25-.83s-.17-.55-.26-.83-.25-.78-.38-1.17l-.24-.72-.28-.75c-.16-.46-.33-.91-.5-1.36-.08-.21-.17-.41-.25-.62a2.29,2.29,0,0,0-.1-.23c-.17-.43-.34-.87-.52-1.29l-.33-.74c-.1-.22-.2-.43-.29-.65s-.18-.42-.28-.63-.18-.39-.28-.58-.06-.11-.08-.17c-.13-.25-.26-.51-.39-.75l-.3-.6c-.1-.2-.19-.4-.3-.6-.26-.51-.53-1-.81-1.52-.18-.33-.37-.65-.56-1-.37-.64-.75-1.28-1.16-1.9-.12-.22-.26-.43-.39-.64l-.13-.2-.74-1.11-.79-1.16-1-1.31-.82-1.08c-.29-.38-.6-.76-.9-1.14l-.29-.36-.61-.73-.05-.06c-.3-.35-.59-.7-.91-1a2.41,2.41,0,0,0-.21-.24l-.17-.2-.66-.7-.53-.58c-.19-.2-.36-.39-.55-.58l-.14-.14c-.11-.12-.23-.24-.35-.35s-.23-.24-.36-.36c-.8-.78-1.6-1.55-2.43-2.3l-1.26-1.11c-.6-.53-1.22-1-1.86-1.53l-.19-.16-.16-.12c-.73-.57-1.48-1.13-2.23-1.68l-.77-.54c-.26-.17-.52-.34-.78-.53s-.61-.41-.92-.61l-.57-.36c-.34-.22-.68-.44-1-.65s-.63-.38-.94-.57l-1.68-.95c-.28-.16-.57-.32-.87-.47l-.32-.17-.33-.17-.66-.34-.52-.27-.23-.1c-.85-.42-1.7-.81-2.56-1.18l-.13-.06c-.78-.34-1.58-.66-2.39-1l0,0c-3.24-1.42-11.23-3.9-16.15-7.09-2.25-1.45-3.87-3.06-4.09-4.78a3.5,3.5,0,0,1,0-.65s0,0,0,0a5.42,5.42,0,0,1,.14-.65c.47-.06,1-.14,1.45-.18.75-.09,1.53-.16,2.29-.22A66.64,66.64,0,0,1,2751.89,529Z"/><path class="cls-15" d="M2761.78,519.48l-9.89,9.56-11.82,11.44c0-.06-.06-.11-.08-.17-.13-.25-.26-.51-.39-.75l-.3-.6c-.1-.2-.19-.4-.3-.6-.26-.51-.53-1-.81-1.52-.18-.33-.37-.65-.56-1-.37-.64-.75-1.28-1.16-1.9-.12-.22-.26-.43-.39-.64l-.13-.2-.74-1.11-.79-1.16-1-1.31-.82-1.08c-.29-.38-.6-.76-.9-1.14l-.29-.36-.61-.73-.05-.06c-.3-.35-.59-.7-.91-1a2.41,2.41,0,0,0-.21-.24l-.17-.2-.66-.7-.53-.58c-.19-.2-.36-.39-.55-.58l-.14-.14c-.11-.12-.23-.24-.35-.35s-.23-.24-.36-.36c-.8-.78-1.6-1.55-2.43-2.3l-1.26-1.11c-.6-.53-1.22-1-1.86-1.53l-.19-.16-.16-.12c-.73-.57-1.48-1.13-2.23-1.68l-.77-.54c-.26-.17-.52-.34-.78-.53s-.61-.41-.92-.61l-.57-.36c-.34-.23-.68-.44-1-.65s-.63-.38-.94-.57l-1.68-.95c-.28-.16-.57-.32-.87-.47l-.32-.17-.33-.17-.66-.34-.75-.37c-.85-.42-1.7-.81-2.56-1.18l-.13-.06c-.78-.34-1.58-.66-2.39-1l0,0c-3.24-1.42-11.23-3.9-16.15-7.09-2.25-1.45-3.87-3.06-4.09-4.78a3.5,3.5,0,0,1,0-.65s0,0,0,0a5.42,5.42,0,0,1,.14-.65h0s0,0,0,0a9,9,0,0,1,3.59-4.57,22.8,22.8,0,0,1,7.89-3.27,66.74,66.74,0,0,1,66.37,33.45Z"/><path class="cls-16" d="M2751.89,529a66.64,66.64,0,0,0-64.22-35.52c-.76.06-1.54.13-2.29.22-.49,0-1,.12-1.45.18a5.42,5.42,0,0,0-.14.65s0,0,0,0a3.5,3.5,0,0,0,0,.65c.22,1.72,1.84,3.33,4.09,4.78,4.92,3.19,12.91,5.67,16.15,7.09l0,0c.81.32,1.61.64,2.39,1l.13.06c.86.37,1.71.76,2.56,1.18l.23.1.52.27.66.34.33.17.32.17c.3.15.59.31.87.47l1.68.95c.31.19.63.37.94.57s.69.43,1,.65l.57.36c.31.2.62.4.92.61s.52.36.78.53l.77.54c.75.55,1.5,1.11,2.23,1.68l.16.12.19.16c.64.5,1.26,1,1.86,1.53l1.26,1.11c.83.75,1.63,1.52,2.43,2.3.13.12.24.24.36.36s.24.23.35.35l.14.14c.19.19.36.38.55.58l.53.58.66.7.17.2a2.41,2.41,0,0,1,.21.24c.32.35.61.7.91,1l.05.06.61.73.29.36c.3.38.61.76.9,1.14l.82,1.08,1,1.31.79,1.16.74,1.11.13.2c.13.21.27.42.39.64.41.62.79,1.26,1.16,1.9.19.33.38.65.56,1,.28.5.55,1,.81,1.52.11.2.2.4.3.6l.3.6c.13.24.26.5.39.75,0,.06.06.11.08.17Z"/><path class="cls-10" d="M2740,540.7s9.73-10.63,17.17-13.11c11.72-3.9,16.81-5.21,38.07,11.09.78.6,1.57,1.17,2.39,1.7,3.69,2.4,13.39,7.79-1.85-19.09-18.34-32.33-39.24-9.94-39.24-9.94A77.53,77.53,0,0,0,2740,540.7Z"/><rect class="cls-17" x="1872.18" y="257.43" width="495.09" height="831.82" rx="27.11"/><rect class="cls-18" x="1905.89" y="303.9" width="428.83" height="289.74" rx="18.01"/><rect class="cls-18" x="1905.89" y="865.53" width="421.44" height="154.7"/><path class="cls-19" d="M1923.57,451.78s72.41-7,117.15,34.22,130-.52,163.56-4.17c58.35-6.35,103,14.79,116.56,35.77v62.95H1923.57Z"/><rect class="cls-20" x="1980.33" y="350.47" width="3.07" height="98.3"/><rect class="cls-20" x="2100.73" y="392.65" width="3.07" height="98.3"/><rect class="cls-20" x="2224.97" y="370.41" width="3.07" height="98.3"/><path class="cls-20" d="M2017.65,365.56h-23.52a2.57,2.57,0,0,1-2.56-2.56h0a2.56,2.56,0,0,1,2.56-2.56h23.52a2.57,2.57,0,0,1,2.56,2.56h0A2.58,2.58,0,0,1,2017.65,365.56Z"/><path class="cls-20" d="M2017.65,374.76h-23.52a2.56,2.56,0,0,1-2.56-2.56h0a2.56,2.56,0,0,1,2.56-2.55h23.52a2.57,2.57,0,0,1,2.56,2.55h0A2.57,2.57,0,0,1,2017.65,374.76Z"/><path class="cls-20" d="M2136.27,415.66h-23.52a2.56,2.56,0,0,1-2.56-2.56h0a2.56,2.56,0,0,1,2.56-2.55h23.52a2.56,2.56,0,0,1,2.55,2.55h0A2.56,2.56,0,0,1,2136.27,415.66Z"/><path class="cls-20" d="M2136.27,424.67h-23.52a2.56,2.56,0,0,1-2.56-2.55h0a2.56,2.56,0,0,1,2.56-2.56h23.52a2.56,2.56,0,0,1,2.55,2.56h0A2.56,2.56,0,0,1,2136.27,424.67Z"/><path class="cls-20" d="M2262.55,378.59H2239a2.56,2.56,0,0,1-2.55-2.55h0a2.56,2.56,0,0,1,2.55-2.56h23.52a2.56,2.56,0,0,1,2.56,2.56h0A2.56,2.56,0,0,1,2262.55,378.59Z"/><path class="cls-20" d="M2262.55,387.61H2239a2.56,2.56,0,0,1-2.55-2.56h0a2.56,2.56,0,0,1,2.55-2.56h23.52a2.56,2.56,0,0,1,2.56,2.56h0A2.56,2.56,0,0,1,2262.55,387.61Z"/><path class="cls-18" d="M2250,667.75a42.34,42.34,0,1,1,42.34,42.34A42.34,42.34,0,0,1,2250,667.75Z"/><path class="cls-21" d="M2331.13,667.75a38.76,38.76,0,0,1-65,28.56l26.2-28.56V629A38.75,38.75,0,0,1,2331.13,667.75Z"/><path class="cls-21" d="M2277.62,660.93h-13.91a1.17,1.17,0,0,1-1.17-1.17h0a1.17,1.17,0,0,1,1.17-1.17h13.91a1.18,1.18,0,0,1,1.17,1.17h0A1.18,1.18,0,0,1,2277.62,660.93Z"/><circle class="cls-18" cx="2187.25" cy="667.75" r="42.34"/><path class="cls-22" d="M2187.26,667.75l23.81,30.58a38.75,38.75,0,1,1,14.78-34.12Z"/><path class="cls-21" d="M2217.09,677.33h-9.68a1.16,1.16,0,0,1-1.16-1.16h0a1.17,1.17,0,0,1,1.16-1.17h9.68a1.17,1.17,0,0,1,1.17,1.17h0A1.16,1.16,0,0,1,2217.09,677.33Z"/><path class="cls-18" d="M2250,784.37a42.34,42.34,0,1,1,42.34,42.35A42.34,42.34,0,0,1,2250,784.37Z"/><path class="cls-19" d="M2331.13,784.37a38.75,38.75,0,0,1-65,28.56l26.2-28.56V745.62A38.75,38.75,0,0,1,2331.13,784.37Z"/><path class="cls-21" d="M2277.62,777.55h-13.91a1.17,1.17,0,0,1-1.17-1.17h0a1.17,1.17,0,0,1,1.17-1.17h13.91a1.18,1.18,0,0,1,1.17,1.17h0A1.18,1.18,0,0,1,2277.62,777.55Z"/><path class="cls-18" d="M2144.91,784.37a42.35,42.35,0,1,1,42.34,42.35A42.34,42.34,0,0,1,2144.91,784.37Z"/><path class="cls-21" d="M2225.85,780.83A38.76,38.76,0,1,0,2211.07,815l-23.81-30.58Z"/><path class="cls-21" d="M2217.09,794h-9.68a1.17,1.17,0,0,1-1.16-1.17h0a1.17,1.17,0,0,1,1.16-1.17h9.68a1.17,1.17,0,0,1,1.17,1.17h0A1.17,1.17,0,0,1,2217.09,794Z"/><polygon class="cls-21" points="2317.41 1009.42 1922.26 1009.42 1922.26 884.6 1924.89 884.6 1924.89 1006.79 2317.41 1006.79 2317.41 1009.42"/><path class="cls-21" d="M2107.5,966.52c-96.26-30.52-173-2.24-173-2.24v35.2h377.63v-91C2201.41,921.91,2139,976.51,2107.5,966.52Z"/><path class="cls-21" d="M1936.76,894.12h90.08a2.22,2.22,0,1,0,0-4.43h-90.08a2.22,2.22,0,1,0,0,4.43Z"/><path class="cls-21" d="M1936.76,904.93h90.08a2.21,2.21,0,1,0,0-4.42h-90.08a2.21,2.21,0,1,0,0,4.42Z"/><rect class="cls-21" x="1934.54" y="910.72" width="63.27" height="4.43" rx="1.81"/><circle class="cls-18" cx="2003.98" cy="723.5" r="98.09" transform="translate(-41.08 125.92) rotate(-3.56)"/><path class="cls-19" d="M2086.89,723.5a82.9,82.9,0,0,0-141.07-59.09L2004,723.5,1974.41,801a83,83,0,0,0,112.48-77.48Z"/><rect class="cls-17" x="542.45" y="515.38" width="495.09" height="278.72" rx="27.11"/><circle class="cls-18" cx="677.85" cy="648.45" r="89.52"/><path class="cls-20" d="M981.88,598.44H833.59a9.8,9.8,0,0,0-9.77,9.77h0a9.8,9.8,0,0,0,9.77,9.77H981.88a9.81,9.81,0,0,0,9.78-9.77h0A9.81,9.81,0,0,0,981.88,598.44Z"/><path class="cls-20" d="M981.88,638.67H833.59a9.8,9.8,0,0,0-9.77,9.78h0a9.8,9.8,0,0,0,9.77,9.77H981.88a9.81,9.81,0,0,0,9.78-9.77h0A9.81,9.81,0,0,0,981.88,638.67Z"/><path class="cls-20" d="M981.88,678.91H833.59a9.77,9.77,0,1,0,0,19.54H981.88a9.77,9.77,0,1,0,0-19.54Z"/><path class="cls-23" d="M595.89,647.14h82v-82A82,82,0,0,0,595.89,647.14Z"/><path class="cls-24" d="M759.79,651.91a82,82,0,0,1-163.86,0Z"/><path class="cls-17" d="M507.58,871.13V1102a27.11,27.11,0,0,0,27.11,27.11H975.56a27.11,27.11,0,0,0,27.11-27.11V871.13A27.12,27.12,0,0,0,975.56,844H534.69A27.12,27.12,0,0,0,507.58,871.13Z"/><circle class="cls-18" cx="642.98" cy="977.74" r="89.52"/><path class="cls-20" d="M798.71,947.27H947a9.77,9.77,0,0,0,0-19.54H798.71a9.77,9.77,0,0,0,0,19.54Z"/><path class="cls-20" d="M947,968H798.71a9.78,9.78,0,0,0,0,19.55H947A9.78,9.78,0,0,0,947,968Z"/><path class="cls-20" d="M947,1008.2H798.71a9.8,9.8,0,0,0-9.77,9.77h0a9.8,9.8,0,0,0,9.77,9.77H947a9.8,9.8,0,0,0,9.77-9.77h0A9.8,9.8,0,0,0,947,1008.2Z"/><path class="cls-24" d="M643,979.19l-82-1c0,.34,0,.69,0,1A82,82,0,0,0,687,1048.36Z"/><rect class="cls-17" x="507.58" y="211.41" width="495.09" height="258.3" rx="27.11"/><circle class="cls-18" cx="642.98" cy="344.35" r="89.52" transform="translate(-55.17 555.51) rotate(-45)"/><path class="cls-23" d="M643,262.4a82,82,0,0,0-39.33,153.87C616.77,392,643,344.35,643,344.35l38.81,72.2A82,82,0,0,0,643,262.4Z"/><path class="cls-20" d="M947,294.35H798.71a9.8,9.8,0,0,0-9.77,9.77h0a9.8,9.8,0,0,0,9.77,9.77H947a9.8,9.8,0,0,0,9.77-9.77h0A9.8,9.8,0,0,0,947,294.35Z"/><path class="cls-20" d="M947,334.58H798.71a9.77,9.77,0,1,0,0,19.54H947a9.77,9.77,0,0,0,0-19.54Z"/><path class="cls-20" d="M947,374.82H798.71a9.77,9.77,0,1,0,0,19.54H947a9.77,9.77,0,0,0,0-19.54Z"/><rect class="cls-17" x="1112.85" y="128.14" width="677.41" height="1021.61" rx="27.11"/><rect class="cls-18" x="1178.31" y="185.28" width="545.39" height="607.9" rx="24.87"/><circle class="cls-18" cx="1287.98" cy="987.41" r="98.09" transform="translate(-47.59 65.39) rotate(-2.86)"/><path class="cls-19" d="M1370.89,987.41a82.9,82.9,0,1,0-32.62,65.92L1288,987.41l77.48,29.57A82.88,82.88,0,0,0,1370.89,987.41Z"/><circle class="cls-18" cx="1622.18" cy="987.41" r="98.09" transform="translate(-58.22 102.71) rotate(-3.56)"/><path class="cls-19" d="M1622.18,904.49a82.9,82.9,0,0,0-59.09,141.07l59.09-58.15,77.48,29.57a83,83,0,0,0-77.48-112.49Z"/><rect class="cls-20" x="1226.87" y="402.53" width="57.55" height="358.51"/><rect class="cls-20" x="1321.16" y="302.6" width="57.55" height="458.44"/><rect class="cls-20" x="1424.04" y="489.23" width="57.55" height="271.81"/><rect class="cls-20" x="1524.15" y="363.81" width="57.55" height="397.24"/><rect class="cls-20" x="1624.78" y="542.43" width="57.55" height="218.61"/><path class="cls-3" d="M2780.68,560.47l-4.38-21.05-7.76-3.11,6.92-4.64s0-5.83-2.41-9.44-46.47,11.44-48.52,20.08,35.13-4.91,35.13-4.91-28.59,9.53-28.75,15.75,28.33-4.65,28.33-4.65-32.55,10-27.07,18.18S2777.2,567.05,2780.68,560.47Z"/><path class="cls-11" d="M954.12,759.32c-1,2.77-2.09,5.79-3,8.42A5.49,5.49,0,0,1,944,771a5.35,5.35,0,0,1-1.42-.78,5.5,5.5,0,0,1-2.18-4.38v-2a5.28,5.28,0,0,1,.19-1.42l3.4-12.71a5.49,5.49,0,0,1,5.46-4.07,10,10,0,0,1,1.7.18,2.63,2.63,0,0,1,1.77,1C954.25,748.88,956.6,752.4,954.12,759.32Z"/><path class="cls-12" d="M954.12,759.32c-1,2.77-2.09,5.79-3,8.42A5.49,5.49,0,0,1,944,771a9,9,0,0,1,.91-3.72,80.5,80.5,0,0,0,6.24-21.49,2.63,2.63,0,0,1,1.77,1C954.25,748.88,956.6,752.4,954.12,759.32Z"/><path class="cls-14" d="M1001.2,828.52c-5,5.94-18.26,17.68-37,19.51-12.64,1.23-20.44-6.17-24.35-15.19h0a38.53,38.53,0,0,1-3-13.5,20.93,20.93,0,0,0,15.49,11c16.08,2.21,40.73-11.3,47.38-16.43,2.27-1.75,3.8-2,4.74-1.35C1007.1,814.41,1004.88,824.1,1001.2,828.52Z"/><path class="cls-13" d="M1001.2,828.52c-5,5.94-18.26,17.68-37,19.51-12.64,1.23-20.44-6.17-24.35-15.19,7.66,4.95,24.12,10.88,50-3a29.41,29.41,0,0,0,14.59-17.35C1007.1,814.41,1004.88,824.1,1001.2,828.52Z"/><path class="cls-14" d="M1035,845.08c0,2.16-3.76,5.28-5.91,6.6-3.39,2.09-32.67,17.83-69.39,14.27-21.72-2.1-33.26-8-49.76-24.17-6.78-6.65-2.41-16,5.09-24.76h0c10.77-12.53,28-23.76,28-23.76s-11.48,31.3,6.78,47.21,71.22,2.09,80.61,2.35C1033.85,842.9,1035.05,843.83,1035,845.08Z"/><path class="cls-13" d="M1035,845.08c0,2.16-3.76,5.28-5.91,6.6-3.39,2.09-32.67,17.83-69.39,14.27-21.72-2.1-33.26-8-49.76-24.17-6.78-6.65-2.41-16,5.09-24.76h0l8.47-3.51s-.41,32.41,28.81,40.87,58.06,5.07,80.23-8Q1033.82,845.67,1035,845.08Z"/><path class="cls-14" d="M894.76,806.56a70.91,70.91,0,0,1-12.11,18.82c-8.09,8.94-20.34,17.13-37,14.24-33.47-5.8-34.16-24.93-33.95-35.49a20.46,20.46,0,0,1,1.11-6.09c1.8-5.31,5.41-9.52,8-10.93a2.49,2.49,0,0,1,3.69,2.44c-3.06,30,27.44,30,39.17,29.06C878.88,817.45,894.28,806.89,894.76,806.56Z"/><path class="cls-13" d="M882.65,825.38c-8.09,8.94-20.34,17.13-37,14.24-33.47-5.8-34.16-24.93-33.95-35.49a20.46,20.46,0,0,1,1.11-6.09c4,12.4,8.84,27.78,36.9,30.49C860.14,829.54,875.21,826.8,882.65,825.38Z"/><path class="cls-14" d="M951.12,779.16c-4.79,18.15-20.34,49.59-48.75,68.11-21.75,14.17-42.49,16-58.47,16.52-35.13,1.26-55.79-16.1-59.74-20.28a12.86,12.86,0,0,1-3.72-9v0a2.35,2.35,0,0,1,3.42-2.09c4,2,12.29,5.52,25.22,7.82,19,3.39,37.47,1.7,49.3-5.36,15.07-9,29.1-21.94,37.76-34.83,13.5-20.1,23.67-28.16,33.33-34.69s16.69-4.53,18.34-3.92l.19.08C949.83,762.29,954.54,766.17,951.12,779.16Z"/><path class="cls-13" d="M951.12,779.16c-4.79,18.15-20.34,49.59-48.75,68.11-21.75,14.17-42.49,16-58.47,16.52-35.13,1.26-55.79-16.1-59.74-20.28a12.86,12.86,0,0,1-3.72-9v0s40.7,34.35,89.61,13.68c38.55-16.29,67.43-66.22,78-86.67C949.83,762.29,954.54,766.17,951.12,779.16Z"/><path class="cls-3" d="M2255.38,257l21.45-9.71,7.76,4.87-.35-9.12s5.14-3.78,9.9-4S2314,287.57,2307.69,295s-18.33-34.26-18.33-34.26,10,31.45,4.62,35.6-14.17-28.06-14.17-28.06,12.12,35.27,1.38,35.68S2258.81,263.85,2255.38,257Z"/><circle class="cls-25" cx="1255.65" cy="349.58" r="32.21"/><path class="cls-13" d="M1270.54,339.17a20.38,20.38,0,0,1-27.38,23.05,6.88,6.88,0,0,1-2.09-1.56,2.73,2.73,0,0,1-.72-1.62h0a1.48,1.48,0,0,1,0-.21h0a.7.7,0,0,1,.06-.19,2.39,2.39,0,0,1,1.56-1.11,32,32,0,0,1,5.32-.89h0l.78-.11h.05l.84-.16.25-.06.22-.05.22-.05.29-.07.57-.16.32-.1c.3-.09.59-.19.87-.29l.27-.1.27-.1.79-.33,0,0,.07,0c.39-.17.76-.35,1.12-.55s.69-.37,1-.58l.13-.08,0,0,.66-.42.06,0,.08-.06a19.47,19.47,0,0,0,1.78-1.36l.32-.28.3-.28.06-.05.16-.16c.17-.15.33-.31.49-.47l.23-.25.36-.39a1,1,0,0,0,.13-.16c.16-.17.32-.36.47-.54a21,21,0,0,0,1.83-2.64l0-.05c.2-.35.4-.71.58-1.08.09-.17.17-.34.25-.52l.19-.42,0-.08c.13-.31.25-.62.37-.93a20.17,20.17,0,0,0,1.22-5.43c0-.2,0-.4,0-.6h0a1.47,1.47,0,0,0,0-.16l0-.09,0,0a.14.14,0,0,1,0-.06,2.54,2.54,0,0,1,.93-1.22,2.6,2.6,0,0,1,1.61-.41h0a2.13,2.13,0,0,1,1.6.93A7.27,7.27,0,0,1,1270.54,339.17Z"/><circle class="cls-25" cx="1349.7" cy="250.39" r="32.21"/><path class="cls-13" d="M1364.59,240A20.38,20.38,0,0,1,1337.21,263a6.88,6.88,0,0,1-2.09-1.56,2.71,2.71,0,0,1-.73-1.62h0a.67.67,0,0,1,0-.2h0a1.46,1.46,0,0,1,0-.2,2.44,2.44,0,0,1,1.57-1.1,33.29,33.29,0,0,1,5.32-.9h0l.78-.11h0l.85-.16.25-.05.22-.05.22-.06.29-.07.57-.16.32-.1a8.07,8.07,0,0,0,.87-.29l.27-.09.27-.11c.26-.1.53-.21.79-.33l.05,0,.07,0c.38-.18.76-.36,1.12-.55s.69-.38,1-.58l.13-.08,0,0,.66-.43.06,0,.08-.05a21.45,21.45,0,0,0,1.78-1.36l.32-.29.3-.27,0-.05.17-.16q.26-.24.48-.48l.24-.25c.12-.13.24-.25.36-.39l.13-.15c.16-.18.32-.36.47-.55a20.22,20.22,0,0,0,1.83-2.63l0-.05c.21-.35.41-.72.59-1.09l.25-.51c.06-.14.13-.28.19-.43l0-.07c.14-.31.26-.62.38-.94a20.18,20.18,0,0,0,1.22-5.42c0-.2,0-.4,0-.6h0s0-.05,0-.15l0-.1,0-.05s0,0,0,0a2.6,2.6,0,0,1,.93-1.23,2.71,2.71,0,0,1,1.61-.41h0a2.16,2.16,0,0,1,1.6.93A7.31,7.31,0,0,1,1364.59,240Z"/><circle class="cls-25" cx="1552.92" cy="311.6" r="32.21"/><path class="cls-13" d="M1567.82,301.19a20.71,20.71,0,0,1,.33,5.8,20.4,20.4,0,0,1-27.71,17.26,7.41,7.41,0,0,1-2.1-1.56,2.76,2.76,0,0,1-.72-1.63h0c0-.07,0-.14,0-.2h0a1.33,1.33,0,0,1,0-.19,2.42,2.42,0,0,1,1.57-1.11,33.13,33.13,0,0,1,5.32-.89h0l.78-.11h0l.85-.16.25-.06.22-.05.22-.05.29-.07.57-.16.32-.1c.3-.09.58-.18.87-.29l.27-.1.27-.1.79-.33.05,0,.07,0c.38-.17.76-.35,1.12-.55s.69-.37,1-.58l.13-.08,0,0q.33-.19.66-.42l.06,0,.08-.06a18.06,18.06,0,0,0,1.77-1.36l.33-.28.3-.28,0-.05.17-.16.48-.47.24-.25.36-.39.13-.15.47-.55a21,21,0,0,0,1.82-2.64l0-.05c.21-.35.4-.71.59-1.08.08-.17.17-.34.25-.52l.19-.42,0-.08c.13-.3.26-.61.38-.93a20.18,20.18,0,0,0,1.22-5.42c0-.21,0-.41,0-.61h0a1.45,1.45,0,0,1,0-.16l0-.09,0-.05a.14.14,0,0,1,0-.06,2.47,2.47,0,0,1,.93-1.22,2.63,2.63,0,0,1,1.6-.41h0a2.15,2.15,0,0,1,1.6.93A7.21,7.21,0,0,1,1567.82,301.19Z"/><circle class="cls-25" cx="2309.21" cy="334.72" r="16.1"/><path class="cls-13" d="M2316.66,329.52a10.35,10.35,0,0,1,.16,2.9,10.18,10.18,0,0,1-11,9.28,10.08,10.08,0,0,1-2.83-.65,3.53,3.53,0,0,1-1-.78,1.34,1.34,0,0,1-.36-.82h0v-.1h0l0-.09a1.21,1.21,0,0,1,.79-.56,17.58,17.58,0,0,1,2.66-.44h0l.39-.06h0l.43-.08.12,0,.11,0,.11,0,.15,0,.28-.08.16-.05.44-.14.13-.05.14-.05.39-.17h0l0,0a5.77,5.77,0,0,0,.56-.27c.18-.09.35-.19.52-.29l.06,0,0,0a2.2,2.2,0,0,0,.32-.21l0,0,0,0a8.26,8.26,0,0,0,.88-.68,1078155500859.91,1078155500859.91,0,0,0,.32-.28l0,0,.09-.08.24-.24.12-.12.18-.2.06-.07.24-.28a10.28,10.28,0,0,0,.91-1.32v0c.11-.18.2-.36.29-.54l.13-.26.1-.21v0c.07-.15.13-.31.19-.47a10.09,10.09,0,0,0,.61-2.71c0-.1,0-.2,0-.3h0l0-.08a.07.07,0,0,0,0-.05v0l0,0a1.21,1.21,0,0,1,.46-.61,1.31,1.31,0,0,1,.8-.21h0a1.1,1.1,0,0,1,.8.47A3.57,3.57,0,0,1,2316.66,329.52Z"/><circle class="cls-25" cx="1653.55" cy="490.22" r="32.21"/><path class="cls-13" d="M1668.45,479.82a20.38,20.38,0,0,1-27.38,23.05,7,7,0,0,1-2.1-1.56,2.73,2.73,0,0,1-.72-1.62h0c0-.07,0-.14,0-.21h0a1.05,1.05,0,0,1,0-.19,2.42,2.42,0,0,1,1.57-1.11,32,32,0,0,1,5.32-.89h0l.78-.11h0c.29,0,.57-.1.85-.16l.25-.05.22-.05.22-.05.29-.08c.19,0,.38-.1.57-.15l.32-.1.87-.29.27-.1.27-.11c.26-.1.53-.21.79-.33l0,0,.07,0c.38-.17.76-.36,1.12-.55s.69-.38,1-.58l.13-.08.05,0,.66-.42.06-.05.08-.05a18.06,18.06,0,0,0,1.77-1.36l.33-.29.3-.27.05-.05.17-.16q.24-.23.48-.48l.24-.24.36-.39.13-.16c.16-.17.31-.36.47-.55a20.15,20.15,0,0,0,1.82-2.63l0-.05c.21-.35.4-.71.59-1.08.08-.17.17-.34.25-.52l.19-.42,0-.08c.14-.31.26-.62.38-.93a20.34,20.34,0,0,0,1.22-5.43c0-.2,0-.4,0-.6h0a1.45,1.45,0,0,1,0-.16l0-.09,0-.06,0-.05a2.47,2.47,0,0,1,.93-1.22,2.58,2.58,0,0,1,1.61-.41h0a2.11,2.11,0,0,1,1.6.92A7.24,7.24,0,0,1,1668.45,479.82Z"/><circle class="cls-25" cx="1452.81" cy="437.02" r="32.21"/><path class="cls-13" d="M1467.71,426.62a20.38,20.38,0,0,1-27.38,23.05,7,7,0,0,1-2.1-1.56,2.76,2.76,0,0,1-.72-1.62h0c0-.07,0-.13,0-.2h0a1.05,1.05,0,0,1,0-.19,2.38,2.38,0,0,1,1.57-1.11,33.29,33.29,0,0,1,5.32-.9h0l.78-.11h0l.85-.16.25-.05.22-.05.22-.06.29-.07.57-.16.32-.09c.3-.09.58-.19.87-.3l.27-.09.27-.11c.26-.1.53-.21.79-.33l0,0,.07,0c.38-.17.76-.36,1.12-.55s.69-.38,1-.58l.13-.08.05,0,.66-.42.06,0,.08-.05a19.76,19.76,0,0,0,1.77-1.36l.33-.29.3-.27.05-.05.17-.16.48-.48.24-.25.36-.38c0-.06.09-.11.13-.16s.31-.36.47-.55a20.15,20.15,0,0,0,1.82-2.63l0,0c.21-.35.4-.71.59-1.08l.25-.52.19-.42,0-.08c.13-.31.26-.62.38-.94a20.18,20.18,0,0,0,1.22-5.42c0-.2,0-.4,0-.6h0a1.45,1.45,0,0,1,0-.16l0-.09,0-.06s0,0,0-.05a2.47,2.47,0,0,1,.93-1.22A2.58,2.58,0,0,1,1465,423h0a2.15,2.15,0,0,1,1.6.93A7.18,7.18,0,0,1,1467.71,426.62Z"/></g></g></svg>