<svg width="200" height="184" viewBox="0 0 200 184" fill="none" xmlns="http://www.w3.org/2000/svg">
<path d="M178.248 118.107C177.94 115.958 177.325 114.116 176.71 111.967C173.021 98.7674 175.788 84.9534 171.791 71.7534C171.791 71.7534 171.791 71.7534 171.791 71.4465C164.72 45.9674 144.12 23.2511 119.523 14.9628L119.216 5.1395L106.917 12.5069C105.38 12.2 104.15 12.2 102.613 12.2C102.306 10.3581 100.768 3.60462 100.461 2.06973C89.3923 1.45578 81.0909 13.1209 80.7835 15.2697C55.8793 23.5581 35.2796 46.2744 28.2081 71.7534C24.5186 84.9534 27.2857 98.7674 23.5962 111.967C22.0589 117.8 20.8291 123.326 20.8291 129.465C20.2142 166.916 61.721 194.851 99.2309 193.93C147.502 194.544 186.857 159.856 178.248 118.107Z" stroke="white" stroke-width="3" stroke-linecap="round" stroke-linejoin="round"/>
<path d="M22.059 117.493C17.4471 115.958 12.8353 112.888 8.53085 107.363C-2.53764 93.5488 1.15186 71.4465 14.68 66.2279C20.8292 63.7721 25.7485 65 29.1305 66.8419C29.438 66.8419 29.438 67.1488 29.7455 67.1488" stroke="white" stroke-width="3" stroke-linecap="round" stroke-linejoin="round"/>
<path d="M170.254 67.1488C173.943 65 178.863 63.7721 185.319 66.2279C198.847 71.4465 202.537 93.5488 191.468 107.363C187.164 112.888 182.245 115.958 177.94 117.493" stroke="white" stroke-width="3" stroke-linecap="round" stroke-linejoin="round"/>
<path d="M155.496 102.451C157.34 98.7674 158.263 94.4697 158.263 90.1721C158.263 73.2883 143.812 59.4744 125.98 59.4744C119.831 59.4744 114.296 61.0093 109.377 63.7721C103.535 67.1488 96.1563 67.1488 90.3146 63.7721C85.3952 61.0093 79.861 59.4744 73.7118 59.4744C55.8792 59.4744 41.4287 73.2883 41.4287 90.1721C41.4287 94.4697 42.3511 98.7674 44.1958 102.451C44.8108 103.679 45.4257 104.907 46.348 106.135C49.4226 111.046 50.345 117.186 48.5003 122.712C46.963 127.009 45.7331 131.614 45.7331 134.991C45.7331 160.47 70.0223 181.344 99.8458 181.344C129.669 181.344 153.958 160.777 153.958 134.991C153.958 131.614 152.729 126.702 151.191 122.712C149.347 117.186 150.269 111.046 153.344 106.135C154.266 104.907 155.188 103.679 155.496 102.451Z" stroke="white" stroke-width="3" stroke-linecap="round" stroke-linejoin="round"/>
<path d="M72.4823 140.516C70.6376 140.516 69.1003 142.051 69.4077 143.893C71.2525 157.707 84.4732 168.144 100.154 168.144C115.834 168.144 129.055 157.707 130.899 143.893C131.207 142.051 129.67 140.516 127.825 140.516H72.4823Z" stroke="white" stroke-width="3" stroke-linecap="round" stroke-linejoin="round"/>
<path d="M82.3212 163.233C87.2405 166.302 93.3897 168.451 100.154 168.451C106.918 168.451 113.067 166.609 117.986 163.233C115.834 155.558 108.455 157.4 100.154 157.4C91.5449 157.4 84.4734 155.558 82.3212 163.233Z" stroke="white" stroke-width="3" stroke-linecap="round" stroke-linejoin="round"/>
<path d="M97.3862 122.405C96.7713 123.633 95.234 124.246 94.0042 123.633L87.855 120.87C86.6252 120.256 86.0103 118.721 86.6252 117.493C87.2401 116.265 88.7774 115.651 90.0072 116.265L96.1564 119.028C97.3862 119.642 98.0011 121.177 97.3862 122.405Z" fill="white"/>
<path d="M102.92 122.405C103.535 123.633 105.072 124.246 106.302 123.633L112.451 120.87C113.681 120.256 114.296 118.721 113.681 117.493C113.066 116.265 111.529 115.651 110.299 116.265L104.15 119.028C102.92 119.642 102.305 121.177 102.92 122.405Z" fill="white"/>
<path d="M72.1745 102.451C66.9477 102.451 62.9507 98.4605 62.9507 93.5488V90.4791C62.9507 85.5674 67.2552 81.5768 72.1745 81.5768C77.4013 81.5768 81.3982 85.5674 81.3982 90.4791V93.5488C81.3982 98.4605 77.4013 102.451 72.1745 102.451Z" stroke="white" stroke-width="3" stroke-linecap="round" stroke-linejoin="round"/>
<path d="M127.824 102.451C122.598 102.451 118.601 98.4605 118.601 93.5488V90.4791C118.601 85.5674 122.905 81.5768 127.824 81.5768C133.051 81.5768 137.048 85.5674 137.048 90.4791V93.5488C137.048 98.4605 133.051 102.451 127.824 102.451Z" stroke="white" stroke-width="3" stroke-linecap="round" stroke-linejoin="round"/>
</svg>
