<svg width="701" height="794" viewBox="0 0 701 794" fill="none" xmlns="http://www.w3.org/2000/svg">
<g style="mix-blend-mode:multiply" opacity="0.5">
<path d="M662.184 327.338C662.949 334.527 665.804 340.9 666.212 348.242C666.518 353.34 666.212 359.866 666.212 365.117C666.212 367.667 666.518 371.337 666.212 374.6C666.518 366.035 657.035 351.709 653.313 344.01C648.214 333.15 642.453 322.597 636.284 312.247C619.033 283.615 599.001 256.752 576.48 232.05C541.127 191.63 494.332 162.899 442.291 149.66C391.07 137.897 337.83 138.071 286.688 150.17C211.691 167.453 138.172 218.845 95.3968 283.033C81.4272 304.039 75.0032 329.378 66.336 352.881C45.0589 410.215 41.1575 472.55 55.1195 532.089C63.0462 563.16 75.3911 592.932 91.7769 620.495C72.505 607.291 61.1866 583.94 47.5739 565.688C45.1267 562.476 40.4362 554.012 35.2359 555.491C31.616 556.562 33.4004 564.566 33.8083 566.707C36.3077 576.695 39.9516 586.361 44.6679 595.513C50.5299 607.806 57.3487 619.62 65.0614 630.845C79.3865 653.138 95.1216 674.493 112.17 694.779C129.49 715.396 148.654 734.389 169.425 751.524C178.425 758.985 187.801 765.979 197.517 772.478C206.745 778.749 216.84 783.389 226.323 789.252C229.433 791.138 236.52 795.217 240.14 792.311C242.791 790.17 241.618 785.887 240.14 783.542C233.319 774.376 225.838 765.719 217.758 757.642C209.953 749.866 202.567 741.68 195.631 733.119C235.602 759.63 278.582 782.675 326.965 787.773C376.573 793.178 430.463 781.145 476.195 762.281C531.258 739.696 570.821 694.524 610.384 652.054C643.983 616.009 661.98 572.978 670.443 525.309C672.719 541.556 673.164 558.008 671.769 574.355C671.463 580.269 668.965 601.376 676.867 603.926C689.919 608.208 697.261 547.385 697.975 541.317C702.109 502.334 702.006 463.017 697.669 424.055C694.1 388.366 686.095 353.901 665.039 324.279C663.459 322.342 662.082 326.319 662.184 327.338ZM498.118 440.726C498.118 441.083 498.118 441.389 498.475 441.695C504.351 459.575 505.717 478.63 502.452 497.165C498.821 514.986 491.107 531.723 479.917 546.059C455.927 576.255 422.345 597.354 384.73 605.863C362.053 611.348 338.356 610.998 315.851 604.843C301.471 601.774 287.748 596.181 275.319 588.325C253.877 574.946 235.469 557.233 221.276 536.321C209.831 519.13 202.538 499.515 199.972 479.024C197.406 458.532 199.638 437.724 206.491 418.242C208.198 411.71 210.449 405.332 213.22 399.175C243.454 332.233 327.169 284.716 399.311 310.259C454.017 329.633 490.521 383.981 498.118 440.726Z" fill="#49B4E5"/>
</g>
<path d="M664.172 447.049V447.865C664.178 468.411 662.129 488.907 658.054 509.045C657.034 514.144 655.963 518.834 654.689 523.678C653.414 528.521 651.935 534.129 650.304 539.228C648.673 544.326 646.99 549.425 645.206 554.523C641.79 563.598 638.068 572.469 633.887 581.137C613.772 622.868 584.555 659.559 548.387 688.508C517.883 712.956 483 731.367 445.604 742.755C438.772 744.846 431.889 746.681 424.854 748.312C379.672 758.509 332.786 758.509 287.605 748.312C242.443 738.204 200.134 718.06 163.816 689.375C127.531 660.644 98.2034 624.089 78.0223 582.438C57.8413 540.787 47.328 495.116 47.2673 448.833V447.865C47.1707 401.513 57.5423 355.739 77.6083 313.956C97.6743 272.173 126.917 235.461 163.154 206.558C175.023 197.157 187.565 188.637 200.678 181.066C227.496 165.451 256.531 154.002 286.789 147.111C291.531 146.041 296.374 145.072 301.218 144.205C341.922 136.966 383.663 137.936 423.987 147.06C453.879 153.794 482.583 165.001 509.13 180.302C522.678 188.082 535.63 196.859 547.878 206.558C584.079 235.337 613.332 271.901 633.465 313.534C653.598 355.168 664.093 400.803 664.172 447.049Z" fill="white"/>
<path d="M287.555 748.771C332.736 758.968 379.622 758.968 424.804 748.771C454.974 741.857 483.922 730.409 510.66 714.816L418.889 557.327C408.035 563.629 396.297 568.269 384.067 571.093C365.452 575.274 346.141 575.274 327.526 571.093C315.389 568.384 303.733 563.845 292.959 557.633L202.157 715.683C228.806 730.926 257.593 742.08 287.555 748.771ZM229.433 448.834V447.865C229.36 428.964 233.579 410.294 241.772 393.261C252.841 370.4 270.488 351.368 292.449 338.607L200.832 181.067C147.408 212.068 104.516 258.387 77.7056 314.032C57.5413 355.764 47.0833 401.517 47.1153 447.865V448.834H229.433ZM434.185 349.007C449.079 360.9 461.132 375.967 469.465 393.108C477.673 410.067 481.927 428.667 481.905 447.508L664.173 447.049C664.094 400.803 653.599 355.169 633.466 313.535C613.333 271.901 584.08 235.337 547.878 206.558C535.68 196.865 522.779 188.089 509.284 180.302L418.431 338.352C423.936 341.513 429.201 345.074 434.185 349.007Z" fill="#FF2E35"/>
<path d="M506.479 447.865C506.479 487.853 490.597 526.205 462.325 554.486C434.054 582.767 395.708 598.661 355.72 598.675H351.386C312.24 597.428 275.115 581 247.865 552.869C220.615 524.737 205.378 487.107 205.378 447.941C205.378 408.775 220.615 371.146 247.865 343.014C275.115 314.882 312.24 298.455 351.386 297.208H355.72C395.686 297.208 434.016 313.077 462.286 341.328C490.556 369.579 506.452 407.899 506.479 447.865Z" fill="#49B4E5"/>
<g opacity="0.25">
<path d="M664.173 447.049V447.865C664.18 468.411 662.13 488.907 658.055 509.045C657.035 514.144 655.964 518.834 654.69 523.678C653.415 528.521 651.937 534.129 650.305 539.228C648.674 544.326 646.991 549.425 645.207 554.523C641.791 563.598 638.069 572.469 633.888 581.137C613.773 622.868 584.556 659.559 548.388 688.508C517.884 712.956 483.001 731.367 445.605 742.755C401.291 750.721 355.77 748.886 312.241 737.378C268.712 725.871 228.231 704.97 193.643 676.145C159.055 647.32 131.199 611.27 112.033 570.529C92.8669 529.788 82.8554 485.343 82.7022 440.319V439.35C82.6926 385.32 96.8778 332.236 123.837 285.412C150.797 238.589 189.584 199.67 236.316 172.552C256.809 160.572 278.645 151.057 301.372 144.205C342.076 136.966 383.817 137.936 424.141 147.06C454.033 153.794 482.737 165.001 509.284 180.302C522.779 188.089 535.68 196.865 547.879 206.558C584.08 235.337 613.333 271.901 633.466 313.534C653.599 355.168 664.094 400.803 664.173 447.049Z" fill="white"/>
</g>
<g opacity="0.22">
<path opacity="0.22" d="M49.6132 409.372C48.0309 422.141 47.2476 434.997 47.2679 447.864V448.425L41.7107 450.108L39.8243 450.77L35.6436 452.351L34.0121 453.014C32.0747 453.88 30.0864 454.747 28.149 455.716C27.2313 456.175 26.3135 456.634 25.4468 457.143H24.6821H24.2232H23.1526C20.573 457.88 17.8274 457.791 15.301 456.889L7.90839 462.752C7.15498 463.336 6.20612 463.609 5.2575 463.514C4.30887 463.419 3.43282 462.964 2.81001 462.242L1.73935 461.477L0.872622 460.457C0.26124 459.694 -0.04733 458.732 0.0058966 457.755C0.00708212 457.199 0.131095 456.651 0.369066 456.148C0.607037 455.646 0.953085 455.202 1.38246 454.849L8.5202 448.986C7.91728 446.525 8.11371 443.935 9.08102 441.593C11.1932 437.035 14.1715 432.931 17.8502 429.51C25.1132 422.809 33.2826 417.162 42.1185 412.737C44.6337 411.513 47.1319 410.391 49.6132 409.372Z" fill="black"/>
</g>
<g opacity="0.5">
<path opacity="0.5" d="M59.5034 412.379H59.9113H62.2566H63.3272H65.1626C67.253 412.379 69.3433 412.073 71.3827 412.073H71.6886C72.6063 412.073 73.473 412.073 74.3907 412.073H78.6734H80.9676H82.0383H83.2619H85.8111H87.9524L91.5723 412.685H92.5919L95.1921 413.195L96.9256 413.603L100.24 414.418L101.412 414.724H101.718L103.706 415.285L105.797 415.948C107.377 416.458 108.958 417.018 110.487 417.63L111.762 418.089L116.401 420.027H116.86H117.217L118.594 420.689L120.786 421.76L121.5 422.117C123.233 423.035 125.018 424.003 126.598 425.074C128.179 426.145 130.218 427.266 131.951 428.439H132.257L135.775 430.988L136.948 431.906L138.07 432.772C139.293 433.741 140.466 434.761 141.638 435.781L142.913 436.953L145.105 438.992L146.176 440.063C146.473 440.309 146.746 440.582 146.992 440.879L147.807 441.695L148.674 442.612C149.694 443.683 150.663 444.754 151.631 445.875C152.498 446.895 153.314 447.915 154.129 448.985C159.566 456.34 165.566 463.26 172.076 469.685C174.028 471.496 176.39 472.807 178.959 473.509C179.65 473.635 180.358 473.635 181.049 473.509C181.385 473.453 181.711 473.35 182.018 473.203C182.342 473.091 182.651 472.937 182.935 472.744C183.586 472.323 184.185 471.827 184.72 471.265C185.748 470.148 186.591 468.875 187.218 467.492C187.55 466.797 187.84 466.082 188.085 465.351C189.338 461.069 189.754 456.586 189.308 452.146C186.501 437.826 180.699 424.261 172.283 412.341C163.867 400.42 153.026 390.413 140.471 382.975C127.916 375.538 113.931 370.838 99.4326 369.184C84.9343 367.529 70.25 368.958 56.3424 373.376C53.0083 386.795 50.5726 400.421 49.0518 414.163C50.8362 413.705 52.6206 413.297 54.456 412.94C56.2915 412.583 57.821 412.583 59.5034 412.379Z" fill="black"/>
</g>
<path d="M16.9841 400.296L23.51 408.199L7.90894 421.098C7.15098 421.67 6.20502 421.936 5.25993 421.841C4.31484 421.747 3.44017 421.299 2.81056 420.588L1.12809 418.549C0.567035 417.786 0.308598 416.843 0.402774 415.901C0.49695 414.96 0.937047 414.086 1.63793 413.45L16.9841 400.296Z" fill="#AC752C"/>
<path d="M16.9831 400.296L20.2461 404.273L1.73896 419.568L0.872234 418.549C0.311176 417.786 0.0527388 416.843 0.146915 415.901C0.241091 414.96 0.681187 414.086 1.38207 413.45L16.9831 400.296Z" fill="#7D551F"/>
<path d="M17.8504 387.907C25.0871 381.173 33.2615 375.523 42.1187 371.134C56.5174 364.009 72.3763 360.333 88.441 360.395C104.506 360.458 120.336 364.257 134.679 371.493C149.022 378.729 161.484 389.202 171.081 402.086C180.678 414.969 187.145 429.909 189.972 445.723C190.417 450.162 190.002 454.646 188.748 458.928C187.916 461.889 186.122 464.49 183.65 466.32C183.354 466.494 183.048 466.647 182.732 466.779C182.425 466.927 182.099 467.03 181.763 467.085C180.082 467.088 178.418 466.745 176.875 466.078C175.331 465.412 173.941 464.436 172.79 463.21C166.266 456.781 160.265 449.843 154.844 442.46C154.028 441.389 153.212 440.37 152.346 439.35C151.377 438.228 150.408 437.158 149.389 436.087L148.522 435.169L147.859 434.252C147.613 433.955 147.34 433.682 147.043 433.436L145.973 432.365L143.78 430.326L142.506 429.153C141.333 428.134 140.161 427.114 138.937 426.145L137.662 425.278L136.49 424.361L132.972 421.812H132.666C130.933 420.622 129.148 419.5 127.313 418.447C125.63 417.376 123.846 416.407 122.214 415.49L121.501 415.133C120.328 414.521 119.104 413.909 117.932 413.399H117.575H117.116C113.653 411.859 110.113 410.498 106.511 409.32L104.421 408.658L101.974 407.179H101.668L100.495 406.873L96.8753 405.956L95.1929 405.395L92.5927 404.885H91.573L87.9532 404.273C82.565 403.534 77.1264 403.227 71.6893 403.355H71.3834C69.3441 403.355 67.2537 403.355 65.1634 403.661C64.1947 403.661 63.226 403.661 62.2573 403.967H59.912H59.5042L54.4058 404.834C45.1115 406.598 36.1046 409.635 27.6393 413.858L24.9881 415.591H24.1724H23.7135H23.4076C20.7399 416.339 17.905 416.232 15.3012 415.286C12.7283 413.99 10.6249 411.922 9.28511 409.371C8.56865 407.903 8.19629 406.29 8.19629 404.655C8.19629 403.021 8.56865 401.408 9.28511 399.939C11.2868 395.385 14.202 391.29 17.8504 387.907Z" fill="#FFD54F"/>
<path d="M9.33496 409.371C16.1266 402.748 23.7947 397.087 32.1247 392.547L35.6936 390.762C49.7346 383.781 65.1778 380.081 80.8578 379.939C96.5378 379.798 112.045 383.219 126.21 389.946C140.374 396.672 152.827 406.528 162.626 418.769C172.426 431.01 179.318 445.317 182.782 460.61C182.782 461.783 183.292 462.955 183.496 464.128C183.7 465.301 183.802 465.606 183.904 466.371C183.608 466.544 183.302 466.698 182.986 466.83C182.679 466.978 182.353 467.081 182.017 467.136C180.336 467.138 178.672 466.796 177.129 466.129C175.585 465.463 174.195 464.487 173.044 463.261C166.52 456.832 160.519 449.893 155.098 442.511C154.282 441.44 153.466 440.42 152.6 439.401C151.631 438.279 150.662 437.208 149.642 436.138C149.558 436.12 149.472 436.12 149.388 436.138L148.776 435.475L147.858 434.251C147.603 433.946 147.297 433.691 147.042 433.436L145.972 432.365L143.779 430.326L142.505 429.153L140.261 427.267L138.936 426.145L137.661 425.278L136.489 424.361L132.971 421.811H132.665L131.339 420.69C129.912 419.721 128.433 418.803 126.955 417.937C125.476 417.07 123.947 416.203 122.417 415.387L121.754 414.979L121.041 414.623L118.848 413.552L117.268 412.889H116.911H116.452L114.464 412.022L112.985 411.411H112.322L110.232 410.595L108.244 409.881L105.847 409.065L103.757 408.403L101.973 407.179H101.667L100.494 406.873L96.8742 405.955L95.1917 405.395L92.5916 404.885H91.5719H90.5012L87.952 404.477H85.8107H83.2615H81.9869H80.9672H78.673H76.2767H71.3823H68.8331H67.2526H65.1623H63.3268H62.2562H59.9109H59.5031L57.5657 404.783L56.0361 405.089H54.4557L52.2124 405.547H51.0397L48.1337 406.261L46.1963 406.771L43.3922 407.587L41.5058 408.199L38.6507 409.218L36.8662 409.881C35.7956 410.238 34.7759 410.697 33.7562 411.105L32.5836 411.615H32.0737L27.6891 413.654L24.987 415.591H24.1713H23.7124H23.4065C20.7388 416.339 17.9038 416.232 15.3001 415.285C12.7461 413.981 10.6614 411.914 9.33496 409.371Z" fill="#FFB300"/>
<path d="M172.892 463.261C175.714 463.998 178.68 463.986 181.497 463.226C184.313 462.466 186.883 460.984 188.952 458.928C188.119 461.889 186.326 464.49 183.853 466.32C183.558 466.494 183.251 466.647 182.935 466.779C182.629 466.927 182.303 467.03 181.967 467.085C180.272 467.108 178.591 466.78 177.029 466.122C175.468 465.464 174.059 464.49 172.892 463.261Z" fill="#7D551F"/>
<path d="M506.48 447.865C506.48 487.853 490.598 526.205 462.326 554.486C434.055 582.767 395.709 598.661 355.72 598.675H351.387C390.533 597.428 427.658 581 454.908 552.869C482.158 524.737 497.395 487.107 497.395 447.941C497.395 408.775 482.158 371.146 454.908 343.014C427.658 314.882 390.533 298.455 351.387 297.208H355.72C395.686 297.208 434.017 313.077 462.287 341.328C490.557 369.579 506.452 407.899 506.48 447.865Z" fill="#5BAFC7"/>
<path d="M565.263 500.377C562.626 506.326 559.083 511.829 554.76 516.692C550.971 521.386 546.012 524.998 540.382 527.165C534.751 529.331 528.65 529.974 522.692 529.03C493.682 523.932 493.07 507.413 493.274 498.44C493.4 495.548 494.176 492.722 495.544 490.171C496.912 487.62 498.837 485.41 501.176 483.706C501.518 483.518 501.905 483.427 502.295 483.443C502.685 483.459 503.062 483.581 503.388 483.797C503.713 484.012 503.974 484.312 504.141 484.664C504.308 485.016 504.376 485.408 504.337 485.796C501.686 511.849 528.147 511.798 538.293 511.288C547.991 509.734 557.212 506.004 565.263 500.377Z" fill="#FFD54F"/>
<path d="M554.76 516.692C550.971 521.386 546.012 524.999 540.382 527.165C534.751 529.331 528.65 529.974 522.692 529.03C493.682 523.932 493.07 507.413 493.274 498.44C493.345 496.702 493.672 494.985 494.243 493.342C497.71 504.099 501.89 517.406 526.209 519.751C535.816 519.9 545.404 518.872 554.76 516.692Z" fill="#FFB300"/>
<path d="M282.44 603.37L249.35 636.45L233.24 620.33L220.62 621.43L216.48 642.11L241.42 667.05C246.754 666.493 252.12 666.289 257.48 666.44L324.8 599.23H326.26V595.1H289.06L282.44 603.37Z" fill="#3A2322"/>
<path d="M286.58 607.51V599.24H278.31V607.51H286.58Z" fill="black"/>
<path d="M278.311 615.78V607.51H270.041V615.78H278.311Z" fill="black"/>
<path d="M270.03 624.05V615.78H261.76V624.05H270.03Z" fill="black"/>
<path d="M261.761 632.32V624.05H253.491V632.32H261.761Z" fill="black"/>
<path d="M253.49 640.59V632.32H245.22V640.59H253.49Z" fill="black"/>
<path d="M245.21 632.32V624.05H236.94V632.32H245.21Z" fill="black"/>
<path d="M237.37 624.47V616.2H229.1V624.47H237.37Z" fill="black"/>
<path d="M286.36 645.82V637.55H278.09V645.82H286.36Z" fill="black"/>
<path d="M278.091 654.09V645.82H269.821V654.09H278.091Z" fill="black"/>
<path d="M269.82 662.36V654.09H261.55V662.36H269.82Z" fill="black"/>
<path d="M261.551 670.64V662.37H253.281V670.64H261.551Z" fill="black"/>
<path d="M253.28 670.64V662.37H245.01V670.64H253.28Z" fill="black"/>
<path d="M245.011 670.64V662.37H236.741V670.64H245.011Z" fill="black"/>
<path d="M237.16 662.79V654.52H228.89V662.79H237.16Z" fill="black"/>
<path d="M228.891 654.52V646.25H220.621V654.52H228.891Z" fill="black"/>
<path d="M220.62 646.25V637.98H212.35V646.25H220.62Z" fill="black"/>
<path d="M220.62 637.98V629.71H212.35V637.98H220.62Z" fill="black"/>
<path d="M220.62 629.71V621.44H212.35V629.71H220.62Z" fill="black"/>
<path d="M229.101 621.43V613.16H220.621V621.43H229.101Z" fill="black"/>
<path d="M324.801 607.51V599.24H316.531V607.51H324.801Z" fill="black"/>
<path d="M316.53 615.78V607.51H308.26V615.78H316.53Z" fill="black"/>
<path d="M308.25 624.05V615.78H299.98V624.05H308.25Z" fill="black"/>
<path d="M299.98 632.32V624.05H291.71V632.32H299.98Z" fill="black"/>
<path d="M291.71 640.59V632.32H283.44V640.59H291.71Z" fill="black"/>
<path d="M500.94 349.46L476.94 325.46L459.24 324.57L455.11 342.15L471.22 358.26L438.14 391.39L429.87 398.01V435.21H434.01V433.75L502.5 365.14C501.94 359.91 501.37 354.7 500.94 349.46Z" fill="#3A2322"/>
<path d="M442.281 387.25H434.011V395.52H442.281V387.25Z" fill="black"/>
<path d="M450.55 378.98H442.28V387.25H450.55V378.98Z" fill="black"/>
<path d="M458.821 370.71H450.551V378.98H458.821V370.71Z" fill="black"/>
<path d="M467.09 362.44H458.82V370.71H467.09V362.44Z" fill="black"/>
<path d="M475.361 354.17H467.091V362.44H475.361V354.17Z" fill="black"/>
<path d="M467.09 345.9H458.82V354.17H467.09V345.9Z" fill="black"/>
<path d="M459.241 338.05H450.971V346.32H459.241V338.05Z" fill="black"/>
<path d="M480.59 387.04H472.32V395.31H480.59V387.04Z" fill="black"/>
<path d="M488.861 378.77H480.591V387.04H488.861V378.77Z" fill="black"/>
<path d="M497.13 370.5H488.86V378.77H497.13V370.5Z" fill="black"/>
<path d="M505.401 362.23H497.131V370.5H505.401V362.23Z" fill="black"/>
<path d="M505.401 353.96H497.131V362.23H505.401V353.96Z" fill="black"/>
<path d="M505.401 345.69H497.131V353.96H505.401V345.69Z" fill="black"/>
<path d="M497.56 337.84H489.29V346.11H497.56V337.84Z" fill="black"/>
<path d="M489.281 329.57H481.011V337.84H489.281V329.57Z" fill="black"/>
<path d="M481.01 321.3H472.74V329.57H481.01V321.3Z" fill="black"/>
<path d="M442.281 425.48H434.011V433.75H442.281V425.48Z" fill="black"/>
<path d="M450.55 417.21H442.28V425.48H450.55V417.21Z" fill="black"/>
<path d="M458.821 408.94H450.551V417.21H458.821V408.94Z" fill="black"/>
<path d="M467.09 400.67H458.82V408.94H467.09V400.67Z" fill="black"/>
<path d="M475.361 392.4H467.091V400.67H475.361V392.4Z" fill="black"/>
<path d="M275.491 391.39L242.411 358.3L258.531 342.19L254.391 324.57L236.751 325.39L211.811 350.37C212.368 355.704 212.572 361.069 212.421 366.43L279.631 433.75V435.21H283.761V398.01L275.491 391.39Z" fill="#3A2322"/>
<path d="M271.35 395.53H279.62V387.26H271.35V395.53Z" fill="black"/>
<path d="M263.09 387.25H271.36V378.98H263.09V387.25Z" fill="black"/>
<path d="M254.821 378.98H263.091V370.71H254.821V378.98Z" fill="black"/>
<path d="M246.55 370.71H254.82V362.44H246.55V370.71Z" fill="black"/>
<path d="M238.281 362.44H246.551V354.17H238.281V362.44Z" fill="black"/>
<path d="M246.55 354.17H254.82V345.9H246.55V354.17Z" fill="black"/>
<path d="M254.39 346.32H262.66V338.05H254.39V346.32Z" fill="black"/>
<path d="M233.041 395.31H241.311V387.04H233.041V395.31Z" fill="black"/>
<path d="M224.77 387.04H233.04V378.77H224.77V387.04Z" fill="black"/>
<path d="M216.501 378.77H224.771V370.5H216.501V378.77Z" fill="black"/>
<path d="M208.23 370.5H216.5V362.23H208.23V370.5Z" fill="black"/>
<path d="M208.23 362.23H216.5V353.96H208.23V362.23Z" fill="black"/>
<path d="M208.23 353.96H216.5V345.69H208.23V353.96Z" fill="black"/>
<path d="M216.071 346.11H224.341V337.84H216.071V346.11Z" fill="black"/>
<path d="M224.34 337.84H232.61V329.57H224.34V337.84Z" fill="black"/>
<path d="M232.621 329.57H240.891V321.3H232.621V329.57Z" fill="black"/>
<path d="M271.35 433.75H279.62V425.48H271.35V433.75Z" fill="black"/>
<path d="M263.09 425.48H271.36V417.21H263.09V425.48Z" fill="black"/>
<path d="M254.821 417.21H263.091V408.94H254.821V417.21Z" fill="black"/>
<path d="M246.55 408.94H254.82V400.67H246.55V408.94Z" fill="black"/>
<path d="M238.281 400.67H246.551V392.4H238.281V400.67Z" fill="black"/>
<path d="M427.631 602.82L460.711 635.9L476.831 619.79L489.451 620.88L493.581 641.57L468.641 666.5C463.31 665.943 457.948 665.74 452.591 665.89L385.261 598.69H383.811V594.57H421.001L427.631 602.82Z" fill="#3A2322"/>
<path d="M431.761 606.96V598.69H423.491V606.96H431.761Z" fill="black"/>
<path d="M440.03 615.23V606.96H431.76V615.23H440.03Z" fill="black"/>
<path d="M448.301 623.5V615.23H440.031V623.5H448.301Z" fill="black"/>
<path d="M456.58 631.78V623.51H448.31V631.78H456.58Z" fill="black"/>
<path d="M464.851 640.05V631.78H456.581V640.05H464.851Z" fill="black"/>
<path d="M473.12 631.77V623.5H464.85V631.77H473.12Z" fill="black"/>
<path d="M480.971 623.92V615.65H472.701V623.92H480.971Z" fill="black"/>
<path d="M431.98 645.28V637.01H423.71V645.28H431.98Z" fill="black"/>
<path d="M440.25 653.55V645.28H431.98V653.55H440.25Z" fill="black"/>
<path d="M448.521 661.82V653.55H440.25V661.82H448.521Z" fill="black"/>
<path d="M456.79 670.09V661.82H448.52V670.09H456.79Z" fill="black"/>
<path d="M465.061 670.09V661.82H456.791V670.09H465.061Z" fill="black"/>
<path d="M473.33 670.09V661.82H465.06V670.09H473.33Z" fill="black"/>
<path d="M481.171 662.24V653.97H472.901V662.24H481.171Z" fill="black"/>
<path d="M489.45 653.97V645.7H481.18V653.97H489.45Z" fill="black"/>
<path d="M497.721 645.7V637.43H489.451V645.7H497.721Z" fill="black"/>
<path d="M497.721 637.43V629.16H489.451V637.43H497.721Z" fill="black"/>
<path d="M497.721 629.16V620.89H489.451V629.16H497.721Z" fill="black"/>
<path d="M489.44 620.88V612.61H480.96V620.88H489.44Z" fill="black"/>
<path d="M393.53 606.96V598.69H385.26V606.96H393.53Z" fill="black"/>
<path d="M401.801 615.24V606.97H393.531V615.24H401.801Z" fill="black"/>
<path d="M410.07 623.51V615.24H401.8V623.51H410.07Z" fill="black"/>
<path d="M418.351 631.78V623.51H410.081V631.78H418.351Z" fill="black"/>
<path d="M426.62 640.05V631.78H418.35V640.05H426.62Z" fill="black"/>
<path d="M434.011 261.57V559.01C434.011 571.09 432.941 581.9 425.731 591.6C423.642 594.658 421.172 597.437 418.381 599.87C414.851 602.87 401.671 608.14 401.671 608.14C401.671 608.14 386.601 615.14 377.821 615.09H333.771C325.891 615.09 309.501 608.14 309.501 608.14C309.501 608.14 297.691 603.52 293.501 599.87C290.57 597.486 287.988 594.702 285.831 591.6C278.831 582.03 277.581 570.85 277.561 559.01V261.57H434.011Z" fill="#3A2322"/>
<path d="M354.29 595.19L368.16 594.55C374.81 594.55 401.67 586.28 401.67 586.28L410.05 578.01C410.05 578.01 416.32 563.81 416.32 552.38V453.57C416.323 450.906 415.689 448.279 414.47 445.91C413.26 443.54 410.05 437.39 410.05 437.39L401.78 429.12H393.51C393.51 429.12 393.3 435.55 385.24 437.39L354.29 443.82L325.94 437.4C317.88 435.56 317.67 429.13 317.67 429.13H309.4L301.13 437.4C301.13 437.4 297.92 443.55 296.71 445.92C295.497 448.291 294.863 450.916 294.86 453.58V552.38C294.86 563.81 301.13 578.01 301.13 578.01L309.51 586.28C309.51 586.28 336.36 594.57 343.02 594.57L356.88 595.21" fill="#F5DCB4"/>
<path d="M434 362.97H425.73V371.24H434V362.97Z" fill="black"/>
<path d="M434 371.24H425.73V379.51H434V371.24Z" fill="black"/>
<path d="M434 379.51H425.73V387.78H434V379.51Z" fill="black"/>
<path d="M434 387.78H425.73V396.05H434V387.78Z" fill="black"/>
<path d="M434 396.05H425.73V404.32H434V396.05Z" fill="black"/>
<path d="M434 404.32H425.73V412.59H434V404.32Z" fill="black"/>
<path d="M434 412.6H425.73V420.87H434V412.6Z" fill="black"/>
<path d="M434 420.87H425.73V429.14H434V420.87Z" fill="black"/>
<path d="M434 429.14H425.73V437.41H434V429.14Z" fill="black"/>
<path d="M434 437.41H425.73V445.68H434V437.41Z" fill="black"/>
<path d="M434 445.68H425.73V453.95H434V445.68Z" fill="black"/>
<path d="M434 453.95H425.73V462.22H434V453.95Z" fill="black"/>
<path d="M434 462.22H425.73V470.49H434V462.22Z" fill="black"/>
<path d="M434 470.49H425.73V478.76H434V470.49Z" fill="black"/>
<path d="M434 478.76H425.73V487.03H434V478.76Z" fill="black"/>
<path d="M434 487.03H425.73V495.3H434V487.03Z" fill="black"/>
<path d="M434 495.3H425.73V503.57H434V495.3Z" fill="black"/>
<path d="M434 503.57H425.73V511.84H434V503.57Z" fill="black"/>
<path d="M434 511.85H425.73V520.12H434V511.85Z" fill="black"/>
<path d="M434 520.12H425.73V528.39H434V520.12Z" fill="black"/>
<path d="M434 528.39H425.73V536.66H434V528.39Z" fill="black"/>
<path d="M434 536.66H425.73V544.93H434V536.66Z" fill="black"/>
<path d="M434 544.93H425.73V553.2H434V544.93Z" fill="black"/>
<path d="M434 553.2H425.73V561.47H434V553.2Z" fill="black"/>
<path d="M434 561.47H425.73V569.74H434V561.47Z" fill="black"/>
<path d="M434 569.74H425.73V578.01H434V569.74Z" fill="black"/>
<path d="M434 578.01H425.73V591.6H434V578.01Z" fill="black"/>
<path d="M285.81 362.97H277.54V371.24H285.81V362.97Z" fill="black"/>
<path d="M285.81 371.24H277.54V379.51H285.81V371.24Z" fill="black"/>
<path d="M285.81 379.51H277.54V387.78H285.81V379.51Z" fill="black"/>
<path d="M285.81 387.78H277.54V396.05H285.81V387.78Z" fill="black"/>
<path d="M285.81 396.05H277.54V404.32H285.81V396.05Z" fill="black"/>
<path d="M285.81 404.32H277.54V412.59H285.81V404.32Z" fill="black"/>
<path d="M285.81 412.6H277.54V420.87H285.81V412.6Z" fill="black"/>
<path d="M285.81 420.87H277.54V429.14H285.81V420.87Z" fill="black"/>
<path d="M285.81 429.14H277.54V437.41H285.81V429.14Z" fill="black"/>
<path d="M285.81 437.41H277.54V445.68H285.81V437.41Z" fill="black"/>
<path d="M285.81 445.68H277.54V453.95H285.81V445.68Z" fill="black"/>
<path d="M285.81 453.95H277.54V462.22H285.81V453.95Z" fill="black"/>
<path d="M285.81 462.22H277.54V470.49H285.81V462.22Z" fill="black"/>
<path d="M285.81 470.49H277.54V478.76H285.81V470.49Z" fill="black"/>
<path d="M285.81 478.76H277.54V487.03H285.81V478.76Z" fill="black"/>
<path d="M285.81 487.03H277.54V495.3H285.81V487.03Z" fill="black"/>
<path d="M285.81 495.3H277.54V503.57H285.81V495.3Z" fill="black"/>
<path d="M285.81 503.57H277.54V511.84H285.81V503.57Z" fill="black"/>
<path d="M285.81 511.85H277.54V520.12H285.81V511.85Z" fill="black"/>
<path d="M285.81 520.12H277.54V528.39H285.81V520.12Z" fill="black"/>
<path d="M285.81 528.39H277.54V536.66H285.81V528.39Z" fill="black"/>
<path d="M285.81 536.66H277.54V544.93H285.81V536.66Z" fill="black"/>
<path d="M285.81 544.93H277.54V553.2H285.81V544.93Z" fill="black"/>
<path d="M285.81 553.2H277.54V561.47H285.81V553.2Z" fill="black"/>
<path d="M285.81 561.47H277.54V569.74H285.81V561.47Z" fill="black"/>
<path d="M285.81 569.74H277.54V578.01H285.81V569.74Z" fill="black"/>
<path d="M285.81 578.01H277.54V591.6H285.81V578.01Z" fill="black"/>
<path d="M368.16 601.64V593.37H359.78V601.64H368.16Z" fill="black"/>
<path d="M359.78 601.64V593.37H351.4V601.64H359.78Z" fill="black"/>
<path d="M351.4 601.64V593.37H343.02V601.64H351.4Z" fill="black"/>
<path d="M343.011 594.55V586.28H334.631V594.55H343.011Z" fill="black"/>
<path d="M334.631 594.55V586.28H326.251V594.55H334.631Z" fill="black"/>
<path d="M326.261 594.55V586.28H317.881V594.55H326.261Z" fill="black"/>
<path d="M317.881 594.56V586.29H309.501V594.56H317.881Z" fill="black"/>
<path d="M309.511 586.29V578.02H301.131V586.29H309.511Z" fill="black"/>
<path d="M401.671 578.01V586.28H410.051V578.01H401.671Z" fill="black"/>
<path d="M401.671 594.56V586.29H393.291V594.56H401.671Z" fill="black"/>
<path d="M384.921 586.28V594.55H393.301V586.28H384.921Z" fill="black"/>
<path d="M384.91 594.55V586.28H376.53V594.55H384.91Z" fill="black"/>
<path d="M376.53 594.55V586.28H368.15V594.55H376.53Z" fill="black"/>
<path d="M368.16 623.5V615.23H359.78V623.5H368.16Z" fill="black"/>
<path d="M359.78 623.5V615.23H351.4V623.5H359.78Z" fill="black"/>
<path d="M351.4 623.5V615.23H343.02V623.5H351.4Z" fill="black"/>
<path d="M343.011 616.14V607.87H334.631V616.14H343.011Z" fill="black"/>
<path d="M334.641 616.14V607.87H326.261V616.14H334.641Z" fill="black"/>
<path d="M326.261 616.14V607.87H317.881V616.14H326.261Z" fill="black"/>
<path d="M317.881 616.15V607.88H309.501V616.15H317.881Z" fill="black"/>
<path d="M309.5 608.15V599.88H301.12V608.15H309.5Z" fill="black"/>
<path d="M301.851 608.14V599.87H293.471V608.14H301.851Z" fill="black"/>
<path d="M293.471 599.87V591.6H285.091V599.87H293.471Z" fill="black"/>
<path d="M401.681 599.87V608.14H410.061V599.87H401.681Z" fill="black"/>
<path d="M410 599.88V608.15H418.38V599.88H410Z" fill="black"/>
<path d="M418.381 591.61V599.88H426.761V591.61H418.381Z" fill="black"/>
<path d="M401.671 616.15V607.88H393.291V616.15H401.671Z" fill="black"/>
<path d="M384.921 607.87V616.14H393.301V607.87H384.921Z" fill="black"/>
<path d="M384.91 616.15V607.88H376.53V616.15H384.91Z" fill="black"/>
<path d="M376.53 616.14V607.87H368.15V616.14H376.53Z" fill="black"/>
<path d="M309.39 429.14H301.12V437.41H309.39V429.14Z" fill="black"/>
<path d="M317.661 420.87H309.391V429.14H317.661V420.87Z" fill="black"/>
<path d="M401.781 420.87H393.511V429.14H401.781V420.87Z" fill="black"/>
<path d="M410.05 429.14H401.78V437.41H410.05V429.14Z" fill="black"/>
<path d="M325.93 429.14H317.66V437.41H325.93V429.14Z" fill="black"/>
<path d="M334.201 437.41H325.931V445.68H334.201V437.41Z" fill="black"/>
<path d="M342.48 437.41H334.21V445.68H342.48V437.41Z" fill="black"/>
<path d="M350.75 437.41H342.48V445.68H350.75V437.41Z" fill="black"/>
<path d="M359.02 437.41H350.75V445.68H359.02V437.41Z" fill="black"/>
<path d="M367.291 437.41H359.021V445.68H367.291V437.41Z" fill="black"/>
<path d="M376.03 437.41H367.29V445.68H376.03V437.41Z" fill="black"/>
<path d="M384.77 437.41H376.03V445.68H384.77V437.41Z" fill="black"/>
<path d="M393.511 429.14H384.771V437.41H393.511V429.14Z" fill="black"/>
<path d="M301.121 437.41H292.851V445.68H301.121V437.41Z" fill="black"/>
<path d="M301.121 445.68H292.851V453.95H301.121V445.68Z" fill="black"/>
<path d="M301.121 453.95H292.851V462.22H301.121V453.95Z" fill="black"/>
<path d="M301.121 462.22H292.851V470.49H301.121V462.22Z" fill="black"/>
<path d="M301.121 470.49H292.851V478.76H301.121V470.49Z" fill="black"/>
<path d="M301.121 478.76H292.851V487.03H301.121V478.76Z" fill="black"/>
<path d="M301.121 487.03H292.851V495.3H301.121V487.03Z" fill="black"/>
<path d="M301.121 495.3H292.851V503.57H301.121V495.3Z" fill="black"/>
<path d="M301.121 503.57H292.851V511.84H301.121V503.57Z" fill="black"/>
<path d="M301.121 511.85H292.851V520.12H301.121V511.85Z" fill="black"/>
<path d="M301.121 520.12H292.851V528.39H301.121V520.12Z" fill="black"/>
<path d="M301.121 528.39H292.851V536.66H301.121V528.39Z" fill="black"/>
<path d="M301.121 536.66H292.851V544.93H301.121V536.66Z" fill="black"/>
<path d="M301.121 544.93H292.851V553.2H301.121V544.93Z" fill="black"/>
<path d="M301.121 553.2H292.851V561.47H301.121V553.2Z" fill="black"/>
<path d="M301.121 561.47H292.851V569.74H301.121V561.47Z" fill="black"/>
<path d="M301.121 569.74H292.851V578.01H301.121V569.74Z" fill="black"/>
<path d="M418.321 437.41H410.051V445.68H418.321V437.41Z" fill="black"/>
<path d="M418.321 445.68H410.051V453.95H418.321V445.68Z" fill="black"/>
<path d="M418.321 453.95H410.051V462.22H418.321V453.95Z" fill="black"/>
<path d="M418.321 462.22H410.051V470.49H418.321V462.22Z" fill="black"/>
<path d="M418.321 470.49H410.051V478.76H418.321V470.49Z" fill="black"/>
<path d="M418.321 478.76H410.051V487.03H418.321V478.76Z" fill="black"/>
<path d="M418.321 487.03H410.051V495.3H418.321V487.03Z" fill="black"/>
<path d="M418.321 495.3H410.051V503.57H418.321V495.3Z" fill="black"/>
<path d="M418.321 503.57H410.051V511.84H418.321V503.57Z" fill="black"/>
<path d="M418.321 511.85H410.051V520.12H418.321V511.85Z" fill="black"/>
<path d="M418.321 520.12H410.051V528.39H418.321V520.12Z" fill="black"/>
<path d="M418.321 528.39H410.051V536.66H418.321V528.39Z" fill="black"/>
<path d="M418.321 536.66H410.051V544.93H418.321V536.66Z" fill="black"/>
<path d="M418.321 544.93H410.051V553.2H418.321V544.93Z" fill="black"/>
<path d="M418.321 553.2H410.051V561.47H418.321V553.2Z" fill="black"/>
<path d="M418.321 561.47H410.051V569.74H418.321V561.47Z" fill="black"/>
<path d="M418.321 569.74H410.051V578.01H418.321V569.74Z" fill="black"/>
<path d="M522.54 208.65H514.25V208.57H514.16V191.97H505.94V191.88H505.85V183.82H489.2V191.88H489.12V191.97H472.38V166.79H464.09V150.27H464.18V150.19H505.81V141.93H505.94V141.84H513.94V133.57H505.94V133.49H505.85V125.42H480.86V133.49H480.77V133.57H472.52V133.49H472.43V125.02H464.03V100.11H455.69V66.81H447.49V66.72H447.4V33.42H439.15V33.33H439.06V16.73H430.8V16.64H430.72V8.38H422.46V8.3H422.37C422.37 5.53333 422.37 2.76667 422.37 0H389.03C389.03 2.76 389.03 5.52667 389.03 8.3H388.94V8.38H364.04V16.64H363.94V16.73H347.36V16.64H347.26V8.38H322.32V8.3H322.23C322.23 5.53333 322.23 2.76667 322.23 0H288.94C288.94 2.76 288.94 5.53 288.94 8.3H288.85V8.38H280.59V16.64H280.51V16.73H272.25V33.33H272.16V33.42H263.94V66.72H263.86V66.81H255.42V100.23H247.19V125.23H238.91V133.45H238.82V133.57H230.57V133.48H230.49V125.41H205.5V133.48H205.4V133.57H197.35V141.84H205.4V141.93H205.5V150.19H247.13V150.27H247.22V167.04H238.68V192.04H222.19V191.95H222.1V183.89H205.49V191.95H205.4V192.04H197.15V208.57H197.06V208.66H189V225.27H197.06V225.36H197.15V241.97H205.4V242.05H205.49V267.17H213.71V275.47H222.16V308.85H230.63V325.57H238.88V333.94H247.26V342.2H255.63V350.7H264.01V358.95H272.38V367.32H280.63V375.57H288.85V375.66H288.94V383.92H297.19V384.01H297.28V392.27H305.54V392.35H305.63V400.57H322.23V400.66H322.32V408.73H388.99V400.66H389.08V400.57H405.68V392.31H405.77V392.23H414.03V383.97H414.11V383.88H422.37V375.62H422.46V375.57H430.94V367.15H439.19V358.77H447.57V350.47H455.94V342.1H464.19V333.72H472.57V325.46H480.94V308.62H489.3V275.36H497.64V267.17H505.82V242.08H505.94V242H514.2V225.39H514.29V225.3H522.58L522.54 208.65ZM272.39 191.31C272.39 191.51 272.33 191.7 272.31 191.9C272.33 191.7 272.36 191.51 272.39 191.31Z" fill="black"/>
<path d="M325.74 408.94L380.81 408.86C362.45 408.86 344.1 408.77 325.74 408.94Z" fill="black"/>
<path opacity="0.2" d="M612.363 613.38C599.365 629.015 584.784 643.264 568.855 655.899C557.381 665.306 545.143 673.74 532.269 681.114C520.429 687.899 508.214 694.006 495.682 699.407C429.432 700.396 348.349 695.946 298.414 699.407C296.436 699.407 294.459 699.901 292.481 699.901C286.054 700.396 279.626 700.89 273.199 700.89C259.389 695.468 246.003 689.022 233.152 681.608C220.046 674.357 207.633 665.917 196.072 656.393C161.287 629.165 133.211 594.323 114 554.545C114.494 504.61 119.438 450.72 127.843 432.921C128.225 432.035 128.724 431.203 129.327 430.449C148.609 400.29 271.222 394.852 385.43 399.796H386.418C419.049 401.279 450.691 403.751 479.367 406.718C482.333 407.212 484.805 407.212 487.277 407.707C539.19 413.145 578.743 420.561 588.631 427.483C608.407 441.326 614.835 542.68 612.363 613.38Z" fill="black"/>
<path d="M608.406 675.675C575.776 704.845 392.351 687.046 304.346 692.979C302.368 692.979 300.391 693.474 298.413 693.474C261.333 695.946 226.23 697.429 197.06 696.44C193.599 696.44 190.138 695.946 187.172 695.946C155.529 693.968 133.281 689.024 129.326 678.641C126.854 672.709 121.91 621.785 120.427 589.648V584.21C118.943 526.858 123.393 449.237 133.776 426.988C134.158 426.102 134.656 425.27 135.259 424.516C154.541 394.357 277.154 388.919 391.362 394.357H392.351C424.981 395.841 456.623 398.313 485.299 401.279C488.266 401.773 490.738 401.773 493.21 402.268C545.122 407.706 584.675 415.122 594.563 422.539C624.227 442.315 623.733 661.832 608.406 675.675Z" fill="#3995B5"/>
<path d="M200.64 496.274C201.199 493.462 201.199 490.565 200.64 487.754C199.447 479.993 195.345 473.001 189.19 468.237C183.036 463.474 175.305 461.309 167.614 462.194C164.917 462.61 162.283 463.374 159.777 464.466C158.536 465.02 157.399 465.789 156.418 466.738C156.207 466.962 156.047 467.232 155.95 467.526C155.853 467.821 155.822 468.134 155.858 468.442L153.619 469.578C153.06 469.578 153.06 470.146 153.06 470.714V471.282V471.85C153.06 472.418 153.619 472.418 154.179 472.418L156.418 471.282C157.035 471.88 157.816 472.276 158.657 472.418H159.777C166.765 471.441 173.877 472.797 180.04 476.28C188.549 481.108 192.691 497.58 196.834 499C200.08 498.83 200.64 496.842 200.64 496.274Z" stroke="#FFD54F" stroke-opacity="0.4" stroke-width="3" stroke-miterlimit="10"/>
<path d="M142.965 502.029C141.339 504.366 140.197 507.005 139.605 509.791C137.646 517.338 138.679 525.35 142.487 532.151C146.295 538.953 152.585 544.019 160.041 546.289C162.697 546.989 165.432 547.347 168.179 547.354C169.544 547.346 170.897 547.1 172.178 546.628C172.462 546.508 172.716 546.327 172.922 546.097C173.128 545.867 173.28 545.595 173.368 545.299L175.885 545.16C176.402 545.384 176.626 544.867 176.85 544.349L177.074 543.832L177.298 543.314C177.522 542.797 177.005 542.573 176.488 542.349L173.971 542.488C173.636 541.697 173.071 541.024 172.35 540.557L171.315 540.11C164.472 538.204 158.435 534.123 154.114 528.484C148.156 520.682 150.825 504.018 147.558 501.067C144.491 499.924 143.189 501.511 142.965 502.029Z" stroke="#FFD54F" stroke-opacity="0.4" stroke-width="3" stroke-miterlimit="10"/>
<path d="M171.246 518.8C172.851 521.153 174.909 523.161 177.3 524.708C183.652 529.229 191.505 531.121 199.218 529.989C206.931 528.857 213.906 524.787 218.686 518.631C220.287 516.399 221.597 513.972 222.583 511.408C223.062 510.13 223.315 508.778 223.331 507.412C223.321 507.104 223.242 506.802 223.101 506.528C222.959 506.254 222.759 506.015 222.514 505.827L223.282 503.426C223.676 503.023 223.272 502.629 222.868 502.235L222.465 501.841L222.061 501.448C221.658 501.054 221.264 501.457 220.87 501.86L220.103 504.262C219.244 504.292 218.414 504.58 217.721 505.088L216.934 505.894C212.713 511.608 206.748 515.793 199.939 517.819C190.525 520.602 175.908 512.166 171.986 514.167C169.824 516.624 170.843 518.406 171.246 518.8Z" stroke="#FFD54F" stroke-opacity="0.4" stroke-width="3" stroke-miterlimit="10"/>
<path d="M257.639 595.274C258.198 592.462 258.198 589.565 257.639 586.754C256.446 578.993 252.344 572.001 246.189 567.237C240.035 562.474 232.304 560.309 224.613 561.194C221.916 561.61 219.282 562.374 216.776 563.466C215.535 564.02 214.399 564.789 213.417 565.738C213.206 565.962 213.046 566.232 212.949 566.526C212.852 566.821 212.821 567.134 212.857 567.442L210.618 568.578C210.059 568.578 210.059 569.146 210.059 569.714V570.282V570.85C210.059 571.418 210.618 571.418 211.178 571.418L213.417 570.282C214.034 570.88 214.815 571.276 215.656 571.418H216.776C223.764 570.441 230.877 571.797 237.039 575.28C245.548 580.108 249.69 596.58 253.833 598C257.079 597.83 257.639 595.842 257.639 595.274Z" stroke="#FFD54F" stroke-opacity="0.4" stroke-width="3" stroke-miterlimit="10"/>
<path d="M199.964 601.029C198.338 603.366 197.196 606.005 196.604 608.791C194.645 616.338 195.678 624.35 199.486 631.151C203.294 637.953 209.584 643.019 217.04 645.289C219.696 645.989 222.431 646.347 225.178 646.354C226.543 646.346 227.896 646.1 229.177 645.628C229.461 645.508 229.715 645.327 229.921 645.097C230.127 644.867 230.279 644.595 230.367 644.299L232.884 644.16C233.401 644.384 233.625 643.867 233.849 643.349L234.073 642.832L234.297 642.314C234.521 641.797 234.004 641.573 233.487 641.349L230.97 641.488C230.635 640.697 230.07 640.024 229.349 639.557L228.314 639.11C221.471 637.204 215.434 633.123 211.113 627.484C205.155 619.682 207.824 603.018 204.557 600.067C201.49 598.924 200.188 600.511 199.964 601.029Z" stroke="#FFD54F" stroke-opacity="0.4" stroke-width="3" stroke-miterlimit="10"/>
<path d="M228.245 617.8C229.85 620.153 231.908 622.161 234.299 623.708C240.651 628.229 248.504 630.121 256.217 628.989C263.93 627.857 270.905 623.787 275.685 617.631C277.286 615.399 278.596 612.972 279.582 610.408C280.061 609.13 280.314 607.778 280.33 606.412C280.32 606.104 280.241 605.802 280.1 605.528C279.958 605.254 279.758 605.015 279.513 604.827L280.281 602.426C280.675 602.023 280.271 601.629 279.867 601.235L279.464 600.841L279.06 600.448C278.657 600.054 278.263 600.457 277.869 600.86L277.102 603.262C276.243 603.292 275.413 603.58 274.72 604.088L273.933 604.894C269.712 610.608 263.747 614.793 256.938 616.819C247.524 619.602 232.907 611.166 228.985 613.167C226.823 615.624 227.842 617.406 228.245 617.8Z" stroke="#FFD54F" stroke-opacity="0.4" stroke-width="3" stroke-miterlimit="10"/>
<path d="M317.639 495.274C318.198 492.462 318.198 489.565 317.639 486.754C316.446 478.993 312.344 472.001 306.189 467.237C300.035 462.474 292.304 460.309 284.613 461.194C281.916 461.61 279.282 462.374 276.776 463.466C275.535 464.02 274.399 464.789 273.417 465.738C273.206 465.962 273.046 466.232 272.949 466.526C272.852 466.821 272.821 467.134 272.857 467.442L270.618 468.578C270.059 468.578 270.059 469.146 270.059 469.714V470.282V470.85C270.059 471.418 270.618 471.418 271.178 471.418L273.417 470.282C274.034 470.88 274.815 471.276 275.656 471.418H276.776C283.764 470.441 290.877 471.797 297.039 475.28C305.548 480.108 309.69 496.58 313.833 498C317.079 497.83 317.639 495.842 317.639 495.274Z" stroke="#FFD54F" stroke-opacity="0.4" stroke-width="3" stroke-miterlimit="10"/>
<path d="M259.964 501.029C258.338 503.366 257.196 506.005 256.604 508.791C254.645 516.338 255.678 524.35 259.486 531.151C263.294 537.953 269.584 543.019 277.04 545.289C279.696 545.989 282.431 546.347 285.178 546.354C286.543 546.346 287.896 546.1 289.177 545.628C289.461 545.508 289.715 545.327 289.921 545.097C290.127 544.867 290.279 544.595 290.367 544.299L292.884 544.16C293.401 544.384 293.625 543.867 293.849 543.349L294.073 542.832L294.297 542.314C294.521 541.797 294.004 541.573 293.487 541.349L290.97 541.488C290.635 540.697 290.07 540.024 289.349 539.557L288.314 539.11C281.471 537.204 275.434 533.123 271.113 527.484C265.155 519.682 267.824 503.018 264.557 500.067C261.49 498.924 260.188 500.511 259.964 501.029Z" stroke="#FFD54F" stroke-opacity="0.4" stroke-width="3" stroke-miterlimit="10"/>
<path d="M288.245 517.8C289.85 520.153 291.908 522.161 294.299 523.708C300.651 528.229 308.504 530.121 316.217 528.989C323.93 527.857 330.905 523.787 335.685 517.631C337.286 515.399 338.596 512.972 339.582 510.408C340.061 509.13 340.314 507.778 340.33 506.412C340.32 506.104 340.241 505.802 340.1 505.528C339.958 505.254 339.758 505.015 339.513 504.827L340.281 502.426C340.675 502.023 340.271 501.629 339.867 501.235L339.464 500.841L339.06 500.448C338.657 500.054 338.263 500.457 337.869 500.86L337.102 503.262C336.243 503.292 335.413 503.58 334.72 504.088L333.933 504.894C329.712 510.608 323.747 514.793 316.938 516.819C307.524 519.602 292.907 511.166 288.985 513.167C286.823 515.624 287.842 517.406 288.245 517.8Z" stroke="#FFD54F" stroke-opacity="0.4" stroke-width="3" stroke-miterlimit="10"/>
<path d="M377.639 585.274C378.198 582.462 378.198 579.565 377.639 576.754C376.446 568.993 372.344 562.001 366.189 557.237C360.035 552.474 352.304 550.309 344.613 551.194C341.916 551.61 339.282 552.374 336.776 553.466C335.535 554.02 334.399 554.789 333.417 555.738C333.206 555.962 333.046 556.232 332.949 556.526C332.852 556.821 332.821 557.134 332.857 557.442L330.618 558.578C330.059 558.578 330.059 559.146 330.059 559.714V560.282V560.85C330.059 561.418 330.618 561.418 331.178 561.418L333.417 560.282C334.034 560.88 334.815 561.276 335.656 561.418H336.776C343.764 560.441 350.877 561.797 357.039 565.28C365.548 570.108 369.69 586.58 373.833 588C377.079 587.83 377.639 585.842 377.639 585.274Z" stroke="#FFD54F" stroke-opacity="0.4" stroke-width="3" stroke-miterlimit="10"/>
<path d="M319.964 591.029C318.338 593.366 317.196 596.005 316.604 598.791C314.645 606.338 315.678 614.35 319.486 621.151C323.294 627.953 329.584 633.019 337.04 635.289C339.696 635.989 342.431 636.347 345.178 636.354C346.543 636.346 347.896 636.1 349.177 635.628C349.461 635.508 349.715 635.327 349.921 635.097C350.127 634.867 350.279 634.595 350.367 634.299L352.884 634.16C353.401 634.384 353.625 633.867 353.849 633.349L354.073 632.832L354.297 632.314C354.521 631.797 354.004 631.573 353.487 631.349L350.97 631.488C350.635 630.697 350.07 630.024 349.349 629.557L348.314 629.11C341.471 627.204 335.434 623.123 331.113 617.484C325.155 609.682 327.824 593.018 324.557 590.067C321.49 588.924 320.188 590.511 319.964 591.029Z" stroke="#FFD54F" stroke-opacity="0.4" stroke-width="3" stroke-miterlimit="10"/>
<path d="M348.245 607.8C349.85 610.153 351.908 612.161 354.299 613.708C360.651 618.229 368.504 620.121 376.217 618.989C383.93 617.857 390.905 613.787 395.685 607.631C397.286 605.399 398.596 602.972 399.582 600.408C400.061 599.13 400.314 597.778 400.33 596.412C400.32 596.104 400.241 595.802 400.1 595.528C399.958 595.254 399.758 595.015 399.513 594.827L400.281 592.426C400.675 592.023 400.271 591.629 399.867 591.235L399.464 590.841L399.06 590.448C398.657 590.054 398.263 590.457 397.869 590.86L397.102 593.262C396.243 593.292 395.413 593.58 394.72 594.088L393.933 594.894C389.712 600.608 383.747 604.793 376.938 606.819C367.524 609.602 352.907 601.166 348.985 603.167C346.823 605.624 347.842 607.406 348.245 607.8Z" stroke="#FFD54F" stroke-opacity="0.4" stroke-width="3" stroke-miterlimit="10"/>
<path d="M447.639 495.274C448.198 492.462 448.198 489.565 447.639 486.754C446.446 478.993 442.344 472.001 436.189 467.237C430.035 462.474 422.304 460.309 414.613 461.194C411.916 461.61 409.282 462.374 406.776 463.466C405.535 464.02 404.399 464.789 403.417 465.738C403.206 465.962 403.046 466.232 402.949 466.526C402.852 466.821 402.821 467.134 402.857 467.442L400.618 468.578C400.059 468.578 400.059 469.146 400.059 469.714V470.282V470.85C400.059 471.418 400.618 471.418 401.178 471.418L403.417 470.282C404.034 470.88 404.815 471.276 405.656 471.418H406.776C413.764 470.441 420.877 471.797 427.039 475.28C435.548 480.108 439.69 496.58 443.833 498C447.079 497.83 447.639 495.842 447.639 495.274Z" stroke="#FFD54F" stroke-opacity="0.4" stroke-width="3" stroke-miterlimit="10"/>
<path d="M389.964 501.029C388.338 503.366 387.196 506.005 386.604 508.791C384.645 516.338 385.678 524.35 389.486 531.151C393.294 537.953 399.584 543.019 407.04 545.289C409.696 545.989 412.431 546.347 415.178 546.354C416.543 546.346 417.896 546.1 419.177 545.628C419.461 545.508 419.715 545.327 419.921 545.097C420.127 544.867 420.279 544.595 420.367 544.299L422.884 544.16C423.401 544.384 423.625 543.867 423.849 543.349L424.073 542.832L424.297 542.314C424.521 541.797 424.004 541.573 423.487 541.349L420.97 541.488C420.635 540.697 420.07 540.024 419.349 539.557L418.314 539.11C411.471 537.204 405.434 533.123 401.113 527.484C395.155 519.682 397.824 503.018 394.557 500.067C391.49 498.924 390.188 500.511 389.964 501.029Z" stroke="#FFD54F" stroke-opacity="0.4" stroke-width="3" stroke-miterlimit="10"/>
<path d="M418.245 517.8C419.85 520.153 421.908 522.161 424.299 523.708C430.651 528.229 438.504 530.121 446.217 528.989C453.93 527.857 460.905 523.787 465.685 517.631C467.286 515.399 468.596 512.972 469.582 510.408C470.061 509.13 470.314 507.778 470.33 506.412C470.32 506.104 470.241 505.802 470.1 505.528C469.958 505.254 469.758 505.015 469.513 504.827L470.281 502.426C470.675 502.023 470.271 501.629 469.867 501.235L469.464 500.841L469.06 500.448C468.657 500.054 468.263 500.457 467.869 500.86L467.102 503.262C466.243 503.292 465.413 503.58 464.72 504.088L463.933 504.894C459.712 510.608 453.747 514.793 446.938 516.819C437.524 519.602 422.907 511.166 418.985 513.167C416.823 515.624 417.842 517.406 418.245 517.8Z" stroke="#FFD54F" stroke-opacity="0.4" stroke-width="3" stroke-miterlimit="10"/>
<path d="M547.639 525.274C548.198 522.462 548.198 519.565 547.639 516.754C546.446 508.993 542.344 502.001 536.189 497.237C530.035 492.474 522.304 490.309 514.613 491.194C511.916 491.61 509.282 492.374 506.776 493.466C505.535 494.02 504.399 494.789 503.417 495.738C503.206 495.962 503.046 496.232 502.949 496.526C502.852 496.821 502.821 497.134 502.857 497.442L500.618 498.578C500.059 498.578 500.059 499.146 500.059 499.714V500.282V500.85C500.059 501.418 500.618 501.418 501.178 501.418L503.417 500.282C504.034 500.88 504.815 501.276 505.656 501.418H506.776C513.764 500.441 520.877 501.797 527.039 505.28C535.548 510.108 539.69 526.58 543.833 528C547.079 527.83 547.639 525.842 547.639 525.274Z" stroke="#FFD54F" stroke-opacity="0.4" stroke-width="3" stroke-miterlimit="10"/>
<path d="M489.964 531.029C488.338 533.366 487.196 536.005 486.604 538.791C484.645 546.338 485.678 554.35 489.486 561.151C493.294 567.953 499.584 573.019 507.04 575.289C509.696 575.989 512.431 576.347 515.178 576.354C516.543 576.346 517.896 576.1 519.177 575.628C519.461 575.508 519.715 575.327 519.921 575.097C520.127 574.867 520.279 574.595 520.367 574.299L522.884 574.16C523.401 574.384 523.625 573.867 523.849 573.349L524.073 572.832L524.297 572.314C524.521 571.797 524.004 571.573 523.487 571.349L520.97 571.488C520.635 570.697 520.07 570.024 519.349 569.557L518.314 569.11C511.471 567.204 505.434 563.123 501.113 557.484C495.155 549.682 497.824 533.018 494.557 530.067C491.49 528.924 490.188 530.511 489.964 531.029Z" stroke="#FFD54F" stroke-opacity="0.4" stroke-width="3" stroke-miterlimit="10"/>
<path d="M518.245 547.8C519.85 550.153 521.908 552.161 524.299 553.708C530.651 558.229 538.504 560.121 546.217 558.989C553.93 557.857 560.905 553.787 565.685 547.631C567.286 545.399 568.596 542.972 569.582 540.408C570.061 539.13 570.314 537.778 570.33 536.412C570.32 536.104 570.241 535.802 570.1 535.528C569.958 535.254 569.758 535.015 569.513 534.827L570.281 532.426C570.675 532.023 570.271 531.629 569.867 531.235L569.464 530.841L569.06 530.448C568.657 530.054 568.263 530.457 567.869 530.86L567.102 533.262C566.243 533.292 565.413 533.58 564.72 534.088L563.933 534.894C559.712 540.608 553.747 544.793 546.938 546.819C537.524 549.602 522.907 541.166 518.985 543.167C516.823 545.624 517.842 547.406 518.245 547.8Z" stroke="#FFD54F" stroke-opacity="0.4" stroke-width="3" stroke-miterlimit="10"/>
<path d="M587.639 625.274C588.198 622.462 588.198 619.565 587.639 616.754C586.446 608.993 582.344 602.001 576.189 597.237C570.035 592.474 562.304 590.309 554.613 591.194C551.916 591.61 549.282 592.374 546.776 593.466C545.535 594.02 544.399 594.789 543.417 595.738C543.206 595.962 543.046 596.232 542.949 596.526C542.852 596.821 542.821 597.134 542.857 597.442L540.618 598.578C540.059 598.578 540.059 599.146 540.059 599.714V600.282V600.85C540.059 601.418 540.618 601.418 541.178 601.418L543.417 600.282C544.034 600.88 544.815 601.276 545.656 601.418H546.776C553.764 600.441 560.877 601.797 567.039 605.28C575.548 610.108 579.69 626.58 583.833 628C587.079 627.83 587.639 625.842 587.639 625.274Z" stroke="#FFD54F" stroke-opacity="0.4" stroke-width="3" stroke-miterlimit="10"/>
<path d="M529.964 631.029C528.338 633.366 527.196 636.005 526.604 638.791C524.645 646.338 525.678 654.35 529.486 661.151C533.294 667.953 539.584 673.019 547.04 675.289C549.696 675.989 552.431 676.347 555.178 676.354C556.543 676.346 557.896 676.1 559.177 675.628C559.461 675.508 559.715 675.327 559.921 675.097C560.127 674.867 560.279 674.595 560.367 674.299L562.884 674.16C563.401 674.384 563.625 673.867 563.849 673.349L564.073 672.832L564.297 672.314C564.521 671.797 564.004 671.573 563.487 671.349L560.97 671.488C560.635 670.697 560.07 670.024 559.349 669.557L558.314 669.11C551.471 667.204 545.434 663.123 541.113 657.484C535.155 649.682 537.824 633.018 534.557 630.067C531.49 628.924 530.188 630.511 529.964 631.029Z" stroke="#FFD54F" stroke-opacity="0.4" stroke-width="3" stroke-miterlimit="10"/>
<path d="M558.245 647.8C559.85 650.153 561.908 652.161 564.299 653.708C570.651 658.229 578.504 660.121 586.217 658.989C593.93 657.857 600.905 653.787 605.685 647.631C607.286 645.399 608.596 642.972 609.582 640.408C610.061 639.13 610.314 637.778 610.33 636.412C610.32 636.104 610.241 635.802 610.1 635.528C609.958 635.254 609.758 635.015 609.513 634.827L610.281 632.426C610.675 632.023 610.271 631.629 609.867 631.235L609.464 630.841L609.06 630.448C608.657 630.054 608.263 630.457 607.869 630.86L607.102 633.262C606.243 633.292 605.413 633.58 604.72 634.088L603.933 634.894C599.712 640.608 593.747 644.793 586.938 646.819C577.524 649.602 562.907 641.166 558.985 643.167C556.823 645.624 557.842 647.406 558.245 647.8Z" stroke="#FFD54F" stroke-opacity="0.4" stroke-width="3" stroke-miterlimit="10"/>
<path d="M487.639 615.274C488.198 612.462 488.198 609.565 487.639 606.754C486.446 598.993 482.344 592.001 476.189 587.237C470.035 582.474 462.304 580.309 454.613 581.194C451.916 581.61 449.282 582.374 446.776 583.466C445.535 584.02 444.399 584.789 443.417 585.738C443.206 585.962 443.046 586.232 442.949 586.526C442.852 586.821 442.821 587.134 442.857 587.442L440.618 588.578C440.059 588.578 440.059 589.146 440.059 589.714V590.282V590.85C440.059 591.418 440.618 591.418 441.178 591.418L443.417 590.282C444.034 590.88 444.815 591.276 445.656 591.418H446.776C453.764 590.441 460.877 591.797 467.039 595.28C475.548 600.108 479.69 616.58 483.833 618C487.079 617.83 487.639 615.842 487.639 615.274Z" stroke="#FFD54F" stroke-opacity="0.4" stroke-width="3" stroke-miterlimit="10"/>
<path d="M429.964 621.029C428.338 623.366 427.196 626.005 426.604 628.791C424.645 636.338 425.678 644.35 429.486 651.151C433.294 657.953 439.584 663.019 447.04 665.289C449.696 665.989 452.431 666.347 455.178 666.354C456.543 666.346 457.896 666.1 459.177 665.628C459.461 665.508 459.715 665.327 459.921 665.097C460.127 664.867 460.279 664.595 460.367 664.299L462.884 664.16C463.401 664.384 463.625 663.867 463.849 663.349L464.073 662.832L464.297 662.314C464.521 661.797 464.004 661.573 463.487 661.349L460.97 661.488C460.635 660.697 460.07 660.024 459.349 659.557L458.314 659.11C451.471 657.204 445.434 653.123 441.113 647.484C435.155 639.682 437.824 623.018 434.557 620.067C431.49 618.924 430.188 620.511 429.964 621.029Z" stroke="#FFD54F" stroke-opacity="0.4" stroke-width="3" stroke-miterlimit="10"/>
<path d="M458.245 637.8C459.85 640.153 461.908 642.161 464.299 643.708C470.651 648.229 478.504 650.121 486.217 648.989C493.93 647.857 500.905 643.787 505.685 637.631C507.286 635.399 508.596 632.972 509.582 630.408C510.061 629.13 510.314 627.778 510.33 626.412C510.32 626.104 510.241 625.802 510.1 625.528C509.958 625.254 509.758 625.015 509.513 624.827L510.281 622.426C510.675 622.023 510.271 621.629 509.867 621.235L509.464 620.841L509.06 620.448C508.657 620.054 508.263 620.457 507.869 620.86L507.102 623.262C506.243 623.292 505.413 623.58 504.72 624.088L503.933 624.894C499.712 630.608 493.747 634.793 486.938 636.819C477.524 639.602 462.907 631.166 458.985 633.167C456.823 635.624 457.842 637.406 458.245 637.8Z" stroke="#FFD54F" stroke-opacity="0.4" stroke-width="3" stroke-miterlimit="10"/>
<path d="M178.639 651.274C179.198 648.462 179.198 645.565 178.639 642.754C177.446 634.993 173.344 628.001 167.189 623.237C161.035 618.474 153.304 616.309 145.613 617.194C142.916 617.61 140.282 618.374 137.776 619.466C136.535 620.02 135.399 620.789 134.417 621.738C134.206 621.962 134.046 622.232 133.949 622.526C133.852 622.821 133.821 623.134 133.857 623.442L131.618 624.578C131.059 624.578 131.059 625.146 131.059 625.714V626.282V626.85C131.059 627.418 131.618 627.418 132.178 627.418L134.417 626.282C135.034 626.88 135.815 627.276 136.656 627.418H137.776C144.764 626.441 151.877 627.797 158.039 631.28C166.548 636.108 170.69 652.58 174.833 654C178.079 653.83 178.639 651.842 178.639 651.274Z" stroke="#FFD54F" stroke-opacity="0.4" stroke-width="3" stroke-miterlimit="10"/>
<path d="M322.639 677.274C323.198 674.462 323.198 671.565 322.639 668.754C321.446 660.993 317.344 654.001 311.189 649.237C305.035 644.474 297.304 642.309 289.613 643.194C286.916 643.61 284.282 644.374 281.776 645.466C280.535 646.02 279.399 646.789 278.417 647.738C278.206 647.962 278.046 648.232 277.949 648.526C277.852 648.821 277.821 649.134 277.857 649.442L275.618 650.578C275.059 650.578 275.059 651.146 275.059 651.714V652.282V652.85C275.059 653.418 275.618 653.418 276.178 653.418L278.417 652.282C279.034 652.88 279.815 653.276 280.656 653.418H281.776C288.764 652.441 295.877 653.797 302.039 657.28C310.548 662.108 314.69 678.58 318.833 680C322.079 679.83 322.639 677.842 322.639 677.274Z" stroke="#FFD54F" stroke-opacity="0.4" stroke-width="3" stroke-miterlimit="10"/>
<path d="M611.639 533.274C612.198 530.462 612.198 527.565 611.639 524.754C610.446 516.993 606.344 510.001 600.189 505.237C594.035 500.474 586.304 498.309 578.613 499.194C575.916 499.61 573.282 500.374 570.776 501.466C569.535 502.02 568.399 502.789 567.417 503.738C567.206 503.962 567.046 504.232 566.949 504.526C566.852 504.821 566.821 505.134 566.857 505.442L564.618 506.578C564.059 506.578 564.059 507.146 564.059 507.714V508.282V508.85C564.059 509.418 564.618 509.418 565.178 509.418L567.417 508.282C568.034 508.88 568.815 509.276 569.656 509.418H570.776C577.764 508.441 584.877 509.797 591.039 513.28C599.548 518.108 603.69 534.58 607.833 536C611.079 535.83 611.639 533.842 611.639 533.274Z" stroke="#FFD54F" stroke-opacity="0.4" stroke-width="3" stroke-miterlimit="10"/>
<path d="M149.245 673.8C150.85 676.153 152.908 678.161 155.299 679.708C161.651 684.229 169.504 686.121 177.217 684.989C184.93 683.857 191.905 679.787 196.685 673.631C198.286 671.399 199.596 668.972 200.582 666.408C201.061 665.13 201.314 663.778 201.33 662.412C201.32 662.104 201.241 661.802 201.1 661.528C200.958 661.254 200.758 661.015 200.513 660.827L201.281 658.426C201.675 658.023 201.271 657.629 200.867 657.235L200.464 656.841L200.06 656.448C199.657 656.054 199.263 656.457 198.869 656.86L198.102 659.262C197.243 659.292 196.413 659.58 195.72 660.088L194.933 660.894C190.712 666.608 184.747 670.793 177.938 672.819C168.524 675.602 153.907 667.166 149.985 669.167C147.823 671.624 148.842 673.406 149.245 673.8Z" stroke="#FFD54F" stroke-opacity="0.4" stroke-width="3" stroke-miterlimit="10"/>
<path d="M136.29 578.178C137.894 580.531 139.953 582.539 142.344 584.086C148.696 588.607 156.549 590.499 164.262 589.367C171.975 588.235 178.95 584.165 183.73 578.009C185.331 575.777 186.641 573.35 187.627 570.786C188.106 569.508 188.359 568.156 188.375 566.79C188.365 566.482 188.286 566.18 188.145 565.906C188.003 565.632 187.803 565.393 187.558 565.205L188.326 562.804C188.719 562.401 188.316 562.007 187.912 561.613L187.509 561.219L187.105 560.825C186.702 560.432 186.308 560.835 185.914 561.238L185.147 563.64C184.288 563.67 183.458 563.957 182.765 564.465L181.978 565.272C177.757 570.986 171.792 575.171 164.983 577.197C155.569 579.98 140.952 571.544 137.03 573.544C134.868 576.002 135.887 577.784 136.29 578.178Z" stroke="#FFD54F" stroke-opacity="0.4" stroke-width="3" stroke-miterlimit="10"/>
<path d="M353.29 668.178C354.894 670.531 356.953 672.539 359.344 674.086C365.696 678.607 373.549 680.499 381.262 679.367C388.975 678.235 395.95 674.165 400.73 668.009C402.331 665.777 403.641 663.35 404.627 660.786C405.106 659.508 405.359 658.156 405.375 656.79C405.365 656.482 405.286 656.18 405.145 655.906C405.003 655.632 404.803 655.393 404.558 655.205L405.326 652.804C405.719 652.401 405.316 652.007 404.912 651.613L404.509 651.219L404.105 650.825C403.702 650.432 403.308 650.835 402.914 651.238L402.147 653.64C401.288 653.67 400.458 653.957 399.765 654.465L398.978 655.272C394.757 660.986 388.792 665.171 381.983 667.197C372.569 669.98 357.952 661.544 354.03 663.544C351.868 666.002 352.887 667.784 353.29 668.178Z" stroke="#FFD54F" stroke-opacity="0.4" stroke-width="3" stroke-miterlimit="10"/>
<path d="M221.29 679.178C222.894 681.531 224.953 683.539 227.344 685.086C233.696 689.607 241.549 691.499 249.262 690.367C256.975 689.235 263.95 685.165 268.73 679.009C270.331 676.777 271.641 674.35 272.627 671.786C273.106 670.508 273.359 669.156 273.375 667.79C273.365 667.482 273.286 667.18 273.145 666.906C273.003 666.632 272.803 666.393 272.558 666.205L273.326 663.804C273.719 663.401 273.316 663.007 272.912 662.613L272.509 662.219L272.105 661.825C271.702 661.432 271.308 661.835 270.914 662.238L270.147 664.64C269.288 664.67 268.458 664.957 267.765 665.465L266.978 666.272C262.757 671.986 256.792 676.171 249.983 678.197C240.569 680.98 225.952 672.544 222.03 674.544C219.868 677.002 220.887 678.784 221.29 679.178Z" stroke="#FFD54F" stroke-opacity="0.4" stroke-width="3" stroke-miterlimit="10"/>
<path d="M559.29 571.178C560.894 573.531 562.953 575.539 565.344 577.086C571.696 581.607 579.549 583.499 587.262 582.367C594.975 581.235 601.95 577.165 606.73 571.009C608.331 568.777 609.641 566.35 610.627 563.786C611.106 562.508 611.359 561.156 611.375 559.79C611.365 559.482 611.286 559.18 611.145 558.906C611.003 558.632 610.803 558.393 610.558 558.205L611.326 555.804C611.719 555.401 611.316 555.007 610.912 554.613L610.509 554.219L610.105 553.825C609.702 553.432 609.308 553.835 608.914 554.238L608.147 556.64C607.288 556.67 606.458 556.957 605.765 557.465L604.978 558.272C600.757 563.986 594.792 568.171 587.983 570.197C578.569 572.98 563.952 564.544 560.03 566.544C557.868 569.002 558.887 570.784 559.29 571.178Z" stroke="#FFD54F" stroke-opacity="0.4" stroke-width="3" stroke-miterlimit="10"/>
<path d="M511.714 416.2C510.84 420.531 510.84 424.994 511.714 429.325C513.578 441.281 519.988 452.053 529.604 459.391C539.221 466.729 551.3 470.065 563.318 468.701C567.532 468.06 571.647 466.884 575.563 465.201C577.502 464.347 579.277 463.163 580.811 461.701C581.141 461.355 581.391 460.941 581.543 460.487C581.694 460.033 581.743 459.551 581.685 459.076L585.184 457.326C586.059 457.326 586.059 456.451 586.059 455.576L586.059 454.701L586.059 453.826C586.059 452.951 585.184 452.951 584.309 452.951L580.811 454.701C579.846 453.78 578.627 453.17 577.312 452.951L575.563 452.951C564.643 454.455 553.531 452.367 543.901 447.001C530.606 439.563 524.134 414.188 517.662 412C512.589 412.262 511.714 415.325 511.714 416.2Z" stroke="#FFD54F" stroke-opacity="0.5" stroke-width="3" stroke-miterlimit="10"/>
<path d="M594.564 421.549C567.372 492.25 338.956 508.565 246.007 497.194C201.51 491.755 151.081 453.192 133.282 426.988L134.765 424.022C154.047 393.863 276.66 388.424 390.868 393.863L416.083 395.346C453.658 396.829 569.844 404.245 594.564 421.549Z" fill="white"/>
<path opacity="0.2" d="M608.407 675.676C575.776 704.846 392.351 687.047 304.347 692.98C302.369 692.98 300.391 693.475 298.414 693.475C293.964 693.969 289.02 693.969 284.57 694.463L392.351 393.864C424.982 395.347 456.624 397.819 485.3 400.785C487.772 401.28 490.738 401.28 493.21 401.774C545.123 407.213 584.675 414.629 594.564 422.045C624.228 442.316 624.228 661.832 608.407 675.676Z" fill="white"/>
<path d="M322.27 0C322.27 2.79 322.27 5.59 322.27 8.38L322.36 8.3H288.85L288.94 8.38C288.94 5.59 288.94 2.79 288.94 0H322.27Z" fill="black"/>
<path d="M389.08 8.38C389.08 5.59 389.08 2.79 389.03 0H422.41C422.41 2.79 422.41 5.59 422.41 8.38L422.5 8.3H388.94L389.08 8.38Z" fill="black"/>
<path d="M514.16 208.69H522.54V225.38H514.16L514.25 225.47V208.57L514.16 208.69Z" fill="black"/>
<path d="M464.09 150.19V166.79H472.38V192H489.2L489.12 191.91V200.49H481.12V225.12H489.18V217.12H497.36V233.84H481.1V242.03H505.94L505.85 241.95V267.17H497.56V250.82H489.56V267.06H497.64V275.36H489.3V308.62H480.94V325.46H472.57V333.72H464.19V342.1H455.94V350.47H447.56V358.73H439.18V367.11H430.94V375.57H422.39L422.48 375.66V358.69H430.83V342.05H439.24V300.27H447.52V291.98H455.82V283.57H463.82V258.57H455.58V250.47H447.39C447.32 249.09 447.18 247.71 447.18 246.34C447.18 229.933 447.18 213.53 447.18 197.13C447.18 191.71 447.73 192.25 442.44 192.2C441.29 192.2 440.15 192.07 439 192C438.95 191.08 438.86 190.16 438.84 189.23C438.75 183.23 439.67 183.87 433.48 183.87H279.56C272.62 183.87 272.62 183.87 272.44 190.63C272.44 191.09 272.35 191.55 272.3 192.01C271.15 192.08 270 192.2 268.85 192.21C263.56 192.26 264.13 191.72 264.12 197.14C264.12 206.61 264.12 216.08 264.12 225.55C264.12 233.86 263.98 242.17 263.9 250.48H255.48V258.87H247.43V283.81H255.64V292.11H264.06V300.57H272.34V342.35H280.74V358.99H288.86V375.67L288.94 375.57H280.63V367.39H272.38V359.02H264.01V350.77H255.63V342.27H247.26V333.97H238.88V325.57H230.63V308.88H222.16V275.5H213.71V267.09L221.71 266.73V250.73H213.81V267.16H205.49V241.96L205.4 242.04H230.23V200.25H222.23V191.91L222.14 192H238.72V167H247.26V150.19L247.17 150.27H280.74V158.32H430.81V150.27H464.18L464.09 150.19Z" fill="black"/>
<path d="M447.4 66.8102H455.69V100.11H464.03V125.02H472.43V133.57L472.52 133.49C471.52 133.49 470.44 133.58 469.4 133.58H241.94C240.94 133.58 239.86 133.52 238.82 133.49L238.91 133.57V125.27H247.19V100.27H255.42V66.8102H263.94L263.86 66.7202V99.8902H447.49V66.7202L447.4 66.8102Z" fill="black"/>
<path d="M388.99 400.57V408.73H322.32V400.57L322.23 400.66H389.08L388.99 400.57Z" fill="black"/>
<path d="M230.45 133.57H238.87L238.78 133.49V141.99H247.13V150.27L247.22 150.19H205.5V141.84L205.4 141.93H230.53V133.49L230.45 133.57Z" fill="black"/>
<path d="M263.94 66.8101V33.4201H272.29L272.2 33.3301V66.7201H263.86L263.94 66.8101Z" fill="black"/>
<path d="M205.5 133.57V125.42H230.45V133.57L230.53 133.48H205.4L205.5 133.57Z" fill="black"/>
<path d="M514.16 225.3V242H505.81L505.9 242.08V225.39H514.25L514.16 225.3Z" fill="black"/>
<path d="M272.25 33.4201V16.7301H280.59L280.51 16.6401V33.3301H272.16L272.25 33.4201Z" fill="black"/>
<path d="M197.15 208.69V192H205.49L205.4 191.91V208.69L205.49 208.61H197.05L197.15 208.69Z" fill="black"/>
<path d="M205.49 242H197.15V225.3L197.06 225.39H205.4V242.08L205.49 242Z" fill="black"/>
<path d="M205.49 192V183.85H222.1V192L222.19 191.91H205.4L205.49 192Z" fill="black"/>
<path d="M197.15 225.3H189V208.69H197.15L197.06 208.6V225.39L197.15 225.3Z" fill="black"/>
<path d="M322.32 400.57H305.63V392.23L305.54 392.31H322.23V400.66L322.32 400.57Z" fill="black"/>
<path d="M405.68 392.23V400.57H388.99L389.08 400.66V392.31H405.77L405.68 392.23Z" fill="black"/>
<path d="M280.59 16.7298V8.3798H288.94L288.85 8.2998V16.6398H280.51L280.59 16.7298Z" fill="black"/>
<path d="M297.28 383.88H288.94V375.57L288.85 375.66H297.19V384.01L297.28 383.88Z" fill="black"/>
<path d="M422.37 375.57V383.92H414.03L414.11 384.01V375.66H422.46L422.37 375.57Z" fill="black"/>
<path d="M305.63 392.23H297.28V383.88L297.19 383.97H305.54V392.31L305.63 392.23Z" fill="black"/>
<path d="M414.03 383.88V392.23H405.68L405.77 392.31V383.97H414.11L414.03 383.88Z" fill="black"/>
<path d="M205.5 141.84H197.35V133.57H205.5L205.4 133.49V141.93L205.5 141.84Z" fill="black"/>
<path d="M505.81 141.84V150.19H464.09L464.18 150.27V141.75H472.52V133.49L472.43 133.57H480.86L480.77 133.48V141.92H505.94L505.81 141.84Z" fill="black"/>
<path d="M439.06 33.4201H447.4V66.8101L447.49 66.7201H439.15V33.3301L439.06 33.4201Z" fill="black"/>
<path d="M480.86 133.57V125.41H505.81V133.57L505.9 133.49H480.77L480.86 133.57Z" fill="black"/>
<path d="M489.2 192V183.85H505.81V192L505.9 191.91H489.12L489.2 192Z" fill="black"/>
<path d="M505.81 192H514.16V208.69L514.25 208.6H505.94V191.91L505.81 192Z" fill="black"/>
<path d="M430.72 16.7301H439.06V33.4201L439.15 33.3301H430.8V16.6401L430.72 16.7301Z" fill="black"/>
<path d="M422.37 8.3798H430.72V16.7298L430.8 16.6398H422.46V8.2998L422.37 8.3798Z" fill="black"/>
<path d="M505.81 133.57H513.94V141.84H505.79L505.88 141.93V133.49L505.81 133.57Z" fill="black"/>
<path d="M322.23 8.3798H347.23V16.7298L347.33 16.6398H322.33V8.2998L322.23 8.3798Z" fill="black"/>
<path d="M364.04 16.7298V8.3798H389.04L388.94 8.2998V16.6398H363.94L364.04 16.7298Z" fill="black"/>
<path d="M347.26 16.7301H364.04L363.94 16.6401V24.8101H347.36V16.6401L347.26 16.7301Z" fill="black"/>
<path d="M347.36 16.6398V24.8098H363.94V16.6398H388.94V8.2998H422.42V16.6398H430.76V33.3298H439.11V66.7198H447.45V99.8898H263.82V66.7198H272.16V33.3298H280.51V16.6398H288.85V8.2998H322.32V16.6398H347.36Z" fill="#FFE7B8"/>
<path d="M505.94 191.91V208.57H514.29V225.36H505.94V242.05H481.14V233.86H497.37V217.17H489.19V225.17H481.13V200.49H489.13V191.91H505.94Z" fill="#F7E2C1"/>
<path d="M414.11 383.97H405.77V392.31H389.08V400.66H322.23V392.31H305.54V383.97H297.19V375.62H288.85V358.94H280.73V342.3H272.33V300.57H264.05V292.15H255.63V283.85H247.42V258.86H255.47V250.47H263.94L263.86 250.34V258.7H272.29V267.28H305.73V283.57H314.16V267.34H322.42V283.57H330.87V275.41H339.06V291.95H372.35V275.38H380.78V283.62H389.23V267.32H397.48V283.57H405.92V267.04H439.12V258.7H447.55V250.34L447.46 250.47H455.65V258.57H463.89V283.57H455.89V291.99H447.59V300.28H439.31V342.06H430.9V358.7H422.55V375.63H414.2L414.11 383.97ZM288.94 333.91L288.83 333.8V342.39H297.31V350.31H414.25V342.14H422.48V333.8L422.37 333.91H430.57V283.96H422.27V292.12H413.85V300.57H405.55V308.57H305.55V300.33H297.25V292.03H288.94V283.98H280.74V333.98L288.94 333.91Z" fill="#F7E2C1"/>
<path d="M472.52 133.49V141.75H464.18V150.27H430.81V158.32H280.74V150.27H247.13V141.99H238.78V133.49C239.78 133.49 240.86 133.58 241.9 133.58H469.4C470.44 133.57 471.48 133.57 472.52 133.49Z" fill="#FFE7B8"/>
<path d="M272.3 192C272.35 191.54 272.43 191.08 272.44 190.62C272.62 183.86 272.62 183.86 279.56 183.86H433.49C439.68 183.86 438.76 183.22 438.85 189.22C438.85 190.15 438.96 191.07 439.01 191.99L439.14 191.9C437.99 191.83 436.84 191.71 435.69 191.71C382.357 191.71 329 191.71 275.62 191.71C274.46 191.71 273.31 191.83 272.16 191.9L272.3 192Z" fill="#929292"/>
<path d="M197.06 225.39V208.57H205.5V217.13H213.94V233.41H221.94V208.69H205.41V191.91H222.2V200.25H230.2V242.08H205.4V225.39H197.06Z" fill="#F7E2C1"/>
<path d="M439.01 192C440.16 192.07 441.3 192.19 442.45 192.2C447.74 192.25 447.18 191.71 447.19 197.13C447.19 213.53 447.19 229.933 447.19 246.34C447.19 247.71 447.33 249.09 447.4 250.47L447.49 250.34L439.2 250.28C439.25 241.13 439.34 231.98 439.33 222.83C439.33 212.53 439.2 202.22 439.13 191.91L439.01 192Z" fill="#929292"/>
<path d="M263.94 250.47C264.02 242.16 264.12 233.85 264.16 225.54C264.16 216.07 264.16 206.6 264.16 197.13C264.16 191.71 263.6 192.25 268.89 192.2C270.04 192.2 271.19 192.07 272.34 192L272.2 191.91L272.13 250.28L263.85 250.34L263.94 250.47Z" fill="#929292"/>
<path d="M497.63 267.06H489.55V250.82H497.55V267.17L497.63 267.06Z" fill="#FFDB0F"/>
<path d="M213.81 267.2V250.77H221.71V266.77L213.71 267.13L213.81 267.2Z" fill="#FFDB0F"/>
<path d="M205.4 141.93V133.49H230.53V141.93H205.4Z" fill="#FFE7B8"/>
<path d="M505.94 133.49V141.93H480.77V133.49H505.94Z" fill="#FFE7B8"/>
<path d="M422.48 333.8V342.14H414.25V350.31H297.31V342.39H288.83V333.8H297.01V309.07H288.94V333.91H280.74V283.91H288.94V291.96H297.24V300.26H305.54V308.57H405.54V300.57H413.84V292.14H422.26V283.98H430.56V333.93H422.36V309.04H414.3V333.8H422.48ZM388.78 342.04V317.43H364.18V342.04H388.78ZM355.51 317.41H330.78V341.99H355.51V317.41ZM305.85 317.29V342.01H322.07V317.29H305.85ZM405.57 317.29H397.57V341.89H405.57V317.29Z" fill="black"/>
<path d="M439.07 258.7V267.04H405.87V283.57H397.43V267.32H389.18V283.62H380.73V275.38H372.3L372.38 275.46V267.33H338.94V275.46L339.03 275.38H330.84V283.57H322.39V267.37H314.13V283.57H305.7V267.28H272.24V258.7L272.17 258.77C273.31 258.67 274.46 258.49 275.6 258.49C328.967 258.49 382.333 258.49 435.7 258.49C436.85 258.49 437.99 258.67 439.14 258.77L439.07 258.7Z" fill="black"/>
<path d="M372.3 275.38V291.92H339.01V275.38L338.92 275.46H347.49V283.46H364.06V275.46H372.38L372.3 275.38Z" fill="black"/>
<path d="M263.81 250.34L272.09 250.28L272.31 250.49C272.27 253.25 272.223 256.01 272.17 258.77L272.24 258.7H263.81V250.34Z" fill="black"/>
<path d="M439.21 250.28L447.5 250.34V258.7H439.07L439.14 258.77L438.99 250.49L439.21 250.28Z" fill="black"/>
<path d="M272.09 250.28L272.16 191.91C273.31 191.84 274.46 191.72 275.62 191.72C328.953 191.72 382.31 191.72 435.69 191.72C436.84 191.72 437.99 191.84 439.14 191.91C439.21 202.22 439.32 212.53 439.34 222.83C439.34 231.98 439.26 241.13 439.21 250.28L438.99 250.49C437.99 250.54 436.92 250.63 435.88 250.63H275.43C274.43 250.63 273.35 250.54 272.31 250.49L272.09 250.28Z" fill="black"/>
<path d="M205.41 208.69H221.94V233.45H213.94V217.17H205.51V208.57L205.41 208.69Z" fill="black"/>
<path d="M388.78 342.04H364.18V317.43H388.78V342.04Z" fill="white"/>
<path d="M355.51 317.41V341.99H330.78V317.41H355.51Z" fill="white"/>
<path d="M305.85 317.29H322.07V342.01H305.85V317.29Z" fill="white"/>
<path d="M405.57 317.34V341.94H397.57V317.34H405.57Z" fill="white"/>
<path d="M422.48 333.8H414.31V309.04H422.37V333.91L422.48 333.8Z" fill="white"/>
<path d="M288.94 333.91V309.07H297.01V333.8H288.83L288.94 333.91Z" fill="white"/>
<path d="M272.31 250.49C273.31 250.54 274.39 250.63 275.43 250.63H435.88C436.88 250.63 437.96 250.54 438.99 250.49L439.14 258.77C437.99 258.67 436.85 258.49 435.7 258.49C382.367 258.49 329 258.49 275.6 258.49C274.46 258.49 273.31 258.67 272.17 258.77C272.217 256.01 272.263 253.25 272.31 250.49Z" fill="#929292"/>
<path d="M372.38 275.46H364.06V283.46H347.49V275.46H338.94V267.33H372.4L372.38 275.46Z" fill="#F7E2C1"/>
<path d="M455.69 250.43C455.69 237.85 455.87 225.27 455.69 212.7C455.64 209.28 456.69 208.34 459.98 208.57C464.11 208.85 468.28 208.66 472.43 208.67C472.43 221.38 472.5 234.09 472.43 246.8C472.43 249.35 472.87 250.53 475.81 250.42C481.22 250.22 480.81 249.57 480.81 255.34C480.81 273.127 480.81 290.92 480.81 308.72C472.49 308.81 472.5 308.81 472.49 317.18C472.49 319.92 472.49 322.663 472.49 325.41C464.24 325.49 464.24 325.49 464.15 333.75C455.9 333.84 455.9 333.84 455.81 342.09H447.48L447.42 300.26L447.36 300.32C455.94 300.49 455.94 300.49 455.76 291.91L455.7 291.97C464.28 292.15 464.28 292.15 464.1 283.57L464.04 283.63C465.89 283.63 467.75 283.54 469.59 283.7C471.92 283.91 472.59 282.95 472.52 280.7C472.39 276.07 472.52 271.44 472.52 266.81C472.52 258.51 472.52 258.51 464.08 258.68L464.14 258.74C464.32 250.18 464.32 250.18 455.75 250.33L455.69 250.43Z" fill="#3A2322"/>
<path d="M263.94 342.1H255.61C255.53 333.85 255.53 333.85 247.27 333.76C247.19 325.5 247.19 325.5 238.94 325.42C238.94 320.84 238.83 316.27 238.94 311.7C239 309.53 238.39 308.52 236.07 308.7C234.25 308.86 232.41 308.7 230.59 308.7C230.59 290.44 230.59 272.19 230.5 253.93C230.5 251.04 231.3 250.15 234.19 250.26C239.4 250.45 238.89 250.89 238.9 245.39C238.9 233.144 238.9 220.897 238.9 208.65C243.05 208.65 247.21 208.83 251.35 208.55C254.62 208.32 255.68 209.26 255.63 212.68C255.45 225.25 255.63 237.83 255.63 250.41V250.36C247.07 250.21 247.07 250.21 247.25 258.77L247.31 258.71C245.45 258.71 243.59 258.8 241.75 258.64C239.43 258.43 238.75 259.4 238.82 261.64C238.96 266.27 238.82 270.9 238.82 275.53C238.82 283.83 238.82 283.83 247.27 283.66L247.21 283.6C247.03 292.18 247.03 292.18 255.6 292V291.94C255.42 300.52 255.42 300.52 263.99 300.35L263.93 300.29L263.94 342.13V342.1Z" fill="#3A2322"/>
<path d="M247.311 183.57C247.311 183.11 247.311 182.64 247.311 182.18C247.311 175.82 247.311 175.76 253.491 175.27C255.151 175.14 255.691 174.51 255.671 172.94C255.611 169.12 255.761 165.3 255.611 161.49C255.521 159.24 256.261 158.49 258.551 158.49C265.951 158.59 273.351 158.49 280.741 158.49C280.817 159.877 280.794 161.267 280.671 162.65C280.101 166.21 281.541 167.05 285.021 167.02C305.801 166.86 326.591 166.95 347.371 166.96C347.371 168.23 347.371 169.5 347.371 170.77C347.371 175.28 347.371 175.28 342.901 175.28H280.501C272.231 175.28 272.231 175.28 272.351 183.7H272.401L247.311 183.57Z" fill="#3A2322"/>
<path d="M430.67 158.5C438.07 158.5 445.47 158.63 452.86 158.5C455.16 158.5 455.86 159.24 455.81 161.5C455.66 165.31 455.81 169.13 455.75 172.95C455.75 174.52 456.26 175.15 457.93 175.28C464.13 175.77 464.12 175.83 464.1 182.19C464.1 182.65 464.1 183.12 464.1 183.58L439.03 183.64H439.08C439.08 182.37 439.08 181.1 439.08 179.83C439.08 175.22 439.08 175.22 434.36 175.22H372.32C363.93 175.22 363.93 175.22 364.07 166.9H422.61C430.87 166.9 430.87 166.9 430.71 158.45L430.67 158.5Z" fill="#3A2322"/>
<path d="M380.81 408.86C362.45 408.86 344.1 408.77 325.74 408.94L380.81 408.86Z" fill="black"/>
<g opacity="0.5">
<path opacity="0.5" d="M658.113 508.248C657.297 507.687 655.971 507.942 654.034 509.472C648.273 513.907 626.911 525.583 612.941 523.696C609.066 523.191 605.474 521.395 602.744 518.598C601.645 513.208 601.524 507.665 602.387 502.232C606.44 495.02 609.624 487.353 611.87 479.391C613.089 475.738 613.248 471.813 612.329 468.073C613.043 466.187 613.757 464.096 614.471 462.159C615.268 460.418 615.594 458.499 615.415 456.592C615.236 454.686 614.559 452.861 613.451 451.299C613.274 451.027 613.042 450.796 612.77 450.62C612.498 450.444 612.191 450.328 611.87 450.28C611.378 450.252 610.884 450.252 610.392 450.28C609.32 450.243 608.268 450.572 607.407 451.21C606.546 451.849 605.926 452.761 605.65 453.797L603.05 463.382C599.375 463.846 595.872 465.212 592.853 467.359C581.169 475.193 571.309 485.453 563.946 497.44C561.729 500.738 559.258 503.858 556.553 506.77C550.147 510.409 543.072 512.715 535.752 513.551C525.555 514.366 499.145 514.417 501.847 488.365C501.882 487.982 501.816 487.597 501.655 487.248C501.493 486.899 501.243 486.598 500.93 486.376C498.714 494.981 495.745 503.375 492.058 511.46C494.149 519.618 500.726 528.438 520.507 531.854H521.068C510.459 534.246 499.468 534.402 488.795 532.313C485.974 531.803 483.425 531.242 481.148 530.63C478.854 534.046 476.457 537.36 473.908 540.572C487.274 549.32 503.077 553.587 519.029 552.757C536.946 552.941 554.538 547.968 569.707 538.431C572.001 536.952 574.142 535.321 576.284 533.638C590.61 547.71 600.603 552.808 619.416 554.592C628.015 555.414 636.684 555.14 645.214 553.777C647.049 548.678 648.783 543.58 650.312 538.482C642.5 539.321 634.621 539.321 626.809 538.482C637.549 536.376 647.327 530.871 654.697 522.779L658.113 508.248Z" fill="black"/>
</g>
<path d="M616.969 458.386L614.165 465.575C613.719 466.752 612.826 467.707 611.681 468.231C610.536 468.756 609.231 468.809 608.047 468.379C607.6 468.24 607.184 468.015 606.824 467.716C606.229 467.273 605.749 466.696 605.421 466.031C605.093 465.366 604.927 464.633 604.937 463.892V462.159C604.888 461.752 604.888 461.342 604.937 460.935L607.894 449.923C608.161 448.877 608.776 447.954 609.638 447.305C610.5 446.656 611.557 446.32 612.636 446.354H614.063C614.675 446.449 615.234 446.756 615.644 447.221C616.852 448.788 617.614 450.654 617.847 452.62C618.081 454.586 617.777 456.579 616.969 458.386Z" fill="#AC752C"/>
<path d="M616.969 458.387L614.165 465.575C613.718 466.753 612.826 467.707 611.681 468.232C610.536 468.757 609.231 468.81 608.047 468.379C608.066 467.266 608.327 466.17 608.812 465.167C611.494 459.237 613.314 452.953 614.216 446.507C614.828 446.603 615.387 446.909 615.796 447.374C616.952 448.94 617.67 450.786 617.876 452.721C618.082 454.657 617.769 456.612 616.969 458.387Z" fill="#7D551F"/>
<path d="M657.756 518.394C649.538 527.849 638.081 533.887 625.636 535.321C621.151 535.826 616.626 534.803 612.795 532.415C608.964 530.028 606.051 526.417 604.529 522.167C602.847 518.473 601.878 514.494 601.674 510.441C603.003 512.967 604.91 515.143 607.241 516.791C609.571 518.439 612.258 519.512 615.083 519.924C629.001 521.861 650.414 510.135 656.176 505.699C658.113 504.17 659.439 503.915 660.254 504.527C662.854 506.362 660.815 514.57 657.756 518.394Z" fill="#FFD54F"/>
<path d="M657.755 518.395C649.538 527.849 638.08 533.887 625.636 535.322C621.15 535.827 616.625 534.803 612.794 532.416C608.963 530.029 606.051 526.417 604.528 522.168C611.207 526.45 625.432 531.6 647.865 519.568C650.888 517.993 653.564 515.828 655.736 513.201C657.908 510.574 659.531 507.538 660.509 504.272C662.854 506.363 660.814 514.571 657.755 518.395Z" fill="#FFB300"/>
<path d="M686.918 532.771C686.918 534.607 683.706 537.309 681.82 538.482C663.382 548.331 642.488 552.634 621.659 550.871C602.846 549.035 592.802 543.937 578.527 529.916C572.664 524.104 576.436 515.998 582.911 508.452C590.18 500.734 598.325 493.89 607.18 488.059C607.18 488.059 596.983 515.233 613.043 528.846C629.103 542.458 674.784 530.681 682.942 530.885C685.899 530.885 686.969 531.854 686.918 532.771Z" fill="#FFD54F"/>
<path d="M686.918 532.772C686.918 534.608 683.706 537.31 681.82 538.482C663.382 548.332 642.488 552.635 621.659 550.871C602.846 549.036 592.802 543.938 578.527 529.917C572.664 524.105 576.436 515.998 582.911 508.453L590.253 505.445C590.253 505.445 589.896 533.537 615.235 541.134C626.697 544.769 638.78 546.029 650.746 544.836C662.712 543.644 674.308 540.025 684.828 534.2L686.918 532.772Z" fill="#FFB300"/>
<path d="M565.322 499.377C562.685 505.326 559.142 510.829 554.819 515.692C551.03 520.386 546.07 523.998 540.44 526.165C534.81 528.331 528.708 528.974 522.75 528.03C493.74 522.932 493.129 506.413 493.333 497.44C493.459 494.548 494.235 491.722 495.603 489.171C496.971 486.62 498.896 484.41 501.235 482.706C501.577 482.518 501.964 482.427 502.353 482.443C502.743 482.459 503.121 482.581 503.446 482.797C503.772 483.012 504.032 483.312 504.2 483.664C504.367 484.016 504.435 484.408 504.396 484.796C501.745 510.849 528.205 510.798 538.351 510.288C548.05 508.734 557.27 505.004 565.322 499.377Z" fill="#FFD54F"/>
<path d="M554.819 515.692C551.03 520.386 546.07 523.999 540.44 526.165C534.81 528.331 528.708 528.974 522.75 528.03C493.74 522.932 493.129 506.413 493.333 497.44C493.404 495.702 493.73 493.985 494.301 492.342C497.768 503.099 501.949 516.406 526.268 518.751C535.874 518.9 545.462 517.872 554.819 515.692Z" fill="#FFB300"/>
<path d="M614.216 475.772C607.323 499.72 592.399 520.567 571.95 534.812C556.69 544.398 538.986 549.373 520.967 549.138C511.605 549.795 502.206 548.577 493.32 545.557C484.434 542.537 476.24 537.774 469.218 531.549C468.187 530.527 467.368 529.313 466.808 527.974C466.248 526.635 465.958 525.199 465.955 523.748C465.872 523.348 465.91 522.933 466.066 522.556C466.221 522.178 466.486 521.856 466.827 521.631C467.167 521.406 467.567 521.288 467.975 521.293C468.384 521.297 468.781 521.425 469.116 521.658C476.047 524.948 483.412 527.231 490.988 528.439C507.507 531.396 523.465 529.917 533.764 523.799C546.674 516.128 557.826 505.827 566.495 493.566C573.856 481.608 583.697 471.368 595.352 463.536C597.539 461.739 600.124 460.492 602.891 459.897C605.658 459.303 608.527 459.38 611.259 460.12C613.094 460.987 616.969 464.352 614.216 475.772Z" fill="#FFD54F"/>
<path d="M614.216 475.772C607.323 499.72 592.399 520.567 571.95 534.811C556.69 544.397 538.986 549.372 520.967 549.137C511.605 549.794 502.206 548.577 493.32 545.557C484.434 542.536 476.241 537.774 469.218 531.548C468.187 530.527 467.368 529.312 466.808 527.973C466.248 526.635 465.958 525.199 465.955 523.748C465.955 523.748 501.236 553.573 543.654 535.627C577.1 521.504 602.133 478.219 611.259 460.477C613.094 460.986 616.969 464.351 614.216 475.772Z" fill="#FFB300"/>
</svg>
