<svg width="202" height="210" viewBox="0 0 202 210" fill="none" xmlns="http://www.w3.org/2000/svg">
<g filter="url(#filter0_d)">
<path d="M157.411 97.9228H154.66V92.2633H151.83V89.5278H146.108V92.2633H140.479V83.8054H137.665V75.2689H134.804V63.9656H131.959V55.4448H129.145V52.5837H126.299V49.7696H123.438V46.9084H117.747V44H83.6796V46.8298H78.0203V49.6439H75.2062V52.4579H72.4236V55.3034H69.6094V63.8399H66.7481V75.1746H63.9029V83.7111H61.0888V92.2633H55.3662V89.5278H49.6597V92.2633H46.8141V97.9385H44V103.63H46.8141V109.305H49.6597V112.15H52.4895V114.933H55.3505V131.974H58.1488V137.665H60.9944V140.464H63.8557V143.325H66.6541V146.17H69.515V148.984H72.3606V151.83H75.1747V154.738H78.0518V157.568H80.8812V160.413H83.7268V163.243H89.4022V165.994H112.15V163.243H117.825V160.413H120.671V157.568H123.501V154.738H126.299V152.003H129.019V149.142H131.88V146.343H134.725V143.482H137.54V140.637H140.385V137.823H143.231V132.037H146.076V115.043H148.984V112.166H151.814V109.32H154.644V103.645H157.395L157.411 97.9228Z" fill="black"/>
</g>
<g style="mix-blend-mode:screen">
<g style="mix-blend-mode:screen">
<path d="M90.3611 101.381C89.3235 101.381 88.4117 100.124 87.6414 97.6397C86.8961 95.3167 86.504 92.8948 86.478 90.4553C86.478 89.9365 87.0599 89.3391 88.2232 88.6788C89.9023 87.8604 91.6843 87.2734 93.521 86.9337C96.0553 86.4136 98.6374 86.1607 101.224 86.1792C112.009 86.1792 117.396 89.9312 117.386 97.4354C117.436 99.3686 116.981 101.282 116.065 102.985C115.335 104.379 114.251 105.555 112.921 106.396C110.817 107.658 108.437 108.386 105.988 108.519H104.699C104.733 109.181 104.827 109.839 104.982 110.484C105.155 111.263 105.25 112.059 105.264 112.858C105.264 113.455 104.243 113.911 102.199 114.241C100.437 114.531 98.6555 114.689 96.8697 114.713C94.5902 114.713 93.1754 114.147 92.6252 113.03C91.9145 110.717 91.6373 108.292 91.8076 105.877C91.8076 105.013 93.3795 104.305 96.6494 103.96C97.8109 103.784 98.927 103.383 99.9352 102.78C100.391 102.546 100.772 102.19 101.036 101.751C101.299 101.312 101.436 100.809 101.429 100.297C101.429 99.2589 100.596 98.7244 98.8978 98.7244C97.0545 98.7673 95.2419 99.207 93.5839 100.014C92.56 100.58 91.4798 101.038 90.3611 101.381ZM99.2121 116.693C101.209 116.596 103.203 116.929 105.06 117.668C105.766 118.071 106.336 118.675 106.698 119.403C107.059 120.131 107.195 120.95 107.088 121.756C107.088 125.141 104.468 126.828 99.2279 126.818C93.9876 126.807 91.3674 125.12 91.3674 121.756C91.315 118.381 93.9089 116.693 99.1492 116.693H99.2121Z" fill="white"/>
</g>
</g>
<defs>
<filter id="filter0_d" x="0" y="0" width="201.411" height="209.995" filterUnits="userSpaceOnUse" color-interpolation-filters="sRGB">
<feFlood flood-opacity="0" result="BackgroundImageFix"/>
<feColorMatrix in="SourceAlpha" type="matrix" values="0 0 0 0 0 0 0 0 0 0 0 0 0 0 0 0 0 0 127 0" result="hardAlpha"/>
<feOffset/>
<feGaussianBlur stdDeviation="22"/>
<feComposite in2="hardAlpha" operator="out"/>
<feColorMatrix type="matrix" values="0 0 0 0 1 0 0 0 0 0.78 0 0 0 0 0 0 0 0 1 0"/>
<feBlend mode="normal" in2="BackgroundImageFix" result="effect1_dropShadow"/>
<feBlend mode="normal" in="SourceGraphic" in2="effect1_dropShadow" result="shape"/>
</filter>
</defs>
</svg>
