<svg width="701" height="794" viewBox="0 0 701 794" fill="none" xmlns="http://www.w3.org/2000/svg">
<g style="mix-blend-mode:multiply" opacity="0.5">
<path d="M662.184 327.338C662.949 334.527 665.804 340.9 666.212 348.242C666.518 353.34 666.212 359.866 666.212 365.117C666.212 367.667 666.518 371.337 666.212 374.6C666.518 366.035 657.035 351.709 653.313 344.01C648.214 333.15 642.453 322.597 636.284 312.247C619.033 283.615 599.001 256.752 576.48 232.05C541.127 191.63 494.332 162.899 442.291 149.66C391.07 137.897 337.83 138.071 286.688 150.17C211.691 167.453 138.172 218.845 95.3968 283.033C81.4272 304.039 75.0032 329.378 66.336 352.881C45.0589 410.215 41.1575 472.55 55.1195 532.089C63.0462 563.16 75.3911 592.932 91.7769 620.495C72.505 607.291 61.1866 583.94 47.5739 565.688C45.1267 562.476 40.4362 554.012 35.2359 555.491C31.616 556.562 33.4004 564.566 33.8083 566.707C36.3077 576.695 39.9516 586.361 44.6679 595.513C50.5299 607.806 57.3487 619.62 65.0614 630.845C79.3865 653.138 95.1216 674.493 112.17 694.779C129.49 715.396 148.654 734.389 169.425 751.524C178.425 758.985 187.801 765.979 197.517 772.478C206.745 778.749 216.84 783.389 226.323 789.252C229.433 791.138 236.52 795.217 240.14 792.311C242.791 790.17 241.618 785.887 240.14 783.542C233.319 774.376 225.838 765.719 217.758 757.642C209.953 749.866 202.567 741.68 195.631 733.119C235.602 759.63 278.582 782.675 326.965 787.773C376.573 793.178 430.463 781.145 476.195 762.281C531.258 739.696 570.821 694.524 610.384 652.054C643.983 616.009 661.98 572.978 670.443 525.309C672.719 541.556 673.164 558.008 671.769 574.355C671.463 580.269 668.965 601.376 676.867 603.926C689.919 608.208 697.261 547.385 697.975 541.317C702.109 502.334 702.006 463.017 697.669 424.055C694.1 388.366 686.095 353.901 665.039 324.279C663.459 322.342 662.082 326.319 662.184 327.338ZM498.118 440.726C498.118 441.083 498.118 441.389 498.475 441.695C504.351 459.575 505.717 478.63 502.452 497.165C498.821 514.986 491.107 531.723 479.917 546.059C455.927 576.255 422.345 597.354 384.73 605.863C362.053 611.348 338.356 610.998 315.851 604.843C301.471 601.774 287.748 596.181 275.319 588.325C253.877 574.946 235.469 557.233 221.276 536.321C209.831 519.13 202.538 499.515 199.972 479.024C197.406 458.532 199.638 437.724 206.491 418.242C208.198 411.71 210.449 405.332 213.22 399.175C243.454 332.233 327.169 284.716 399.311 310.259C454.017 329.633 490.521 383.981 498.118 440.726Z" fill="#49B4E5"/>
</g>
<path d="M664.172 447.049V447.865C664.178 468.411 662.129 488.907 658.054 509.045C657.034 514.144 655.963 518.834 654.689 523.678C653.414 528.521 651.935 534.129 650.304 539.228C648.673 544.326 646.99 549.425 645.206 554.523C641.79 563.598 638.068 572.469 633.887 581.137C613.772 622.868 584.555 659.559 548.387 688.508C517.883 712.956 483 731.367 445.604 742.755C438.772 744.846 431.889 746.681 424.854 748.312C379.672 758.509 332.786 758.509 287.605 748.312C242.443 738.204 200.134 718.06 163.816 689.375C127.531 660.644 98.2034 624.089 78.0223 582.438C57.8413 540.787 47.328 495.116 47.2673 448.833V447.865C47.1707 401.513 57.5423 355.739 77.6083 313.956C97.6743 272.173 126.917 235.461 163.154 206.558C175.023 197.157 187.565 188.637 200.678 181.066C227.496 165.451 256.531 154.002 286.789 147.111C291.531 146.041 296.374 145.072 301.218 144.205C341.922 136.966 383.663 137.936 423.987 147.06C453.879 153.794 482.583 165.001 509.13 180.302C522.678 188.082 535.63 196.859 547.878 206.558C584.079 235.337 613.332 271.901 633.465 313.534C653.598 355.168 664.093 400.803 664.172 447.049Z" fill="white"/>
<path d="M287.555 748.771C332.736 758.968 379.622 758.968 424.804 748.771C454.974 741.857 483.922 730.409 510.66 714.816L418.889 557.327C408.035 563.629 396.297 568.269 384.067 571.093C365.452 575.274 346.141 575.274 327.526 571.093C315.389 568.384 303.733 563.845 292.959 557.633L202.157 715.683C228.806 730.926 257.593 742.08 287.555 748.771ZM229.433 448.834V447.865C229.36 428.964 233.579 410.294 241.772 393.261C252.841 370.4 270.488 351.368 292.449 338.607L200.832 181.067C147.408 212.068 104.516 258.387 77.7056 314.032C57.5413 355.764 47.0833 401.517 47.1153 447.865V448.834H229.433ZM434.185 349.007C449.079 360.9 461.132 375.967 469.465 393.108C477.673 410.067 481.927 428.667 481.905 447.508L664.173 447.049C664.094 400.803 653.599 355.169 633.466 313.535C613.333 271.901 584.08 235.337 547.878 206.558C535.68 196.865 522.779 188.089 509.284 180.302L418.431 338.352C423.936 341.513 429.201 345.074 434.185 349.007Z" fill="#FF2E35"/>
<path d="M506.479 447.865C506.479 487.853 490.597 526.205 462.325 554.486C434.054 582.767 395.708 598.661 355.72 598.675H351.386C312.24 597.428 275.115 581 247.865 552.869C220.615 524.737 205.378 487.107 205.378 447.941C205.378 408.775 220.615 371.146 247.865 343.014C275.115 314.882 312.24 298.455 351.386 297.208H355.72C395.686 297.208 434.016 313.077 462.286 341.328C490.556 369.579 506.452 407.899 506.479 447.865Z" fill="#49B4E5"/>
<g opacity="0.25">
<path d="M664.173 447.049V447.865C664.18 468.411 662.13 488.907 658.055 509.045C657.035 514.144 655.964 518.834 654.69 523.678C653.415 528.521 651.937 534.129 650.305 539.228C648.674 544.326 646.991 549.425 645.207 554.523C641.791 563.598 638.069 572.469 633.888 581.137C613.773 622.868 584.556 659.559 548.388 688.508C517.884 712.956 483.001 731.367 445.605 742.755C401.291 750.721 355.77 748.886 312.241 737.378C268.712 725.871 228.231 704.97 193.643 676.145C159.055 647.32 131.199 611.27 112.033 570.529C92.8669 529.788 82.8554 485.343 82.7022 440.319V439.35C82.6926 385.32 96.8778 332.236 123.837 285.412C150.797 238.589 189.584 199.67 236.316 172.552C256.809 160.572 278.645 151.057 301.372 144.205C342.076 136.966 383.817 137.936 424.141 147.06C454.033 153.794 482.737 165.001 509.284 180.302C522.779 188.089 535.68 196.865 547.879 206.558C584.08 235.337 613.333 271.901 633.466 313.534C653.599 355.168 664.094 400.803 664.173 447.049Z" fill="white"/>
</g>
<g opacity="0.22">
<path opacity="0.22" d="M49.6132 409.372C48.0309 422.141 47.2476 434.997 47.2679 447.864V448.425L41.7107 450.108L39.8243 450.77L35.6436 452.351L34.0121 453.014C32.0747 453.88 30.0864 454.747 28.149 455.716C27.2313 456.175 26.3135 456.634 25.4468 457.143H24.6821H24.2232H23.1526C20.573 457.88 17.8274 457.791 15.301 456.889L7.90839 462.752C7.15498 463.336 6.20612 463.609 5.2575 463.514C4.30887 463.419 3.43282 462.964 2.81001 462.242L1.73935 461.477L0.872622 460.457C0.26124 459.694 -0.04733 458.732 0.0058966 457.755C0.00708212 457.199 0.131095 456.651 0.369066 456.148C0.607037 455.646 0.953085 455.202 1.38246 454.849L8.5202 448.986C7.91728 446.525 8.11371 443.935 9.08102 441.593C11.1932 437.035 14.1715 432.931 17.8502 429.51C25.1132 422.809 33.2826 417.162 42.1185 412.737C44.6337 411.513 47.1319 410.391 49.6132 409.372Z" fill="black"/>
</g>
<g opacity="0.5">
<path opacity="0.5" d="M59.5034 412.379H59.9113H62.2566H63.3272H65.1626C67.253 412.379 69.3433 412.073 71.3827 412.073H71.6886C72.6063 412.073 73.473 412.073 74.3907 412.073H78.6734H80.9676H82.0383H83.2619H85.8111H87.9524L91.5723 412.685H92.5919L95.1921 413.195L96.9256 413.603L100.24 414.418L101.412 414.724H101.718L103.706 415.285L105.797 415.948C107.377 416.458 108.958 417.018 110.487 417.63L111.762 418.089L116.401 420.027H116.86H117.217L118.594 420.689L120.786 421.76L121.5 422.117C123.233 423.035 125.018 424.003 126.598 425.074C128.179 426.145 130.218 427.266 131.951 428.439H132.257L135.775 430.988L136.948 431.906L138.07 432.772C139.293 433.741 140.466 434.761 141.638 435.781L142.913 436.953L145.105 438.992L146.176 440.063C146.473 440.309 146.746 440.582 146.992 440.879L147.807 441.695L148.674 442.612C149.694 443.683 150.663 444.754 151.631 445.875C152.498 446.895 153.314 447.915 154.129 448.985C159.566 456.34 165.566 463.26 172.076 469.685C174.028 471.496 176.39 472.807 178.959 473.509C179.65 473.635 180.358 473.635 181.049 473.509C181.385 473.453 181.711 473.35 182.018 473.203C182.342 473.091 182.651 472.937 182.935 472.744C183.586 472.323 184.185 471.827 184.72 471.265C185.748 470.148 186.591 468.875 187.218 467.492C187.55 466.797 187.84 466.082 188.085 465.351C189.338 461.069 189.754 456.586 189.308 452.146C186.501 437.826 180.699 424.261 172.283 412.341C163.867 400.42 153.026 390.413 140.471 382.975C127.916 375.538 113.931 370.838 99.4326 369.184C84.9343 367.529 70.25 368.958 56.3424 373.376C53.0083 386.795 50.5726 400.421 49.0518 414.163C50.8362 413.705 52.6206 413.297 54.456 412.94C56.2915 412.583 57.821 412.583 59.5034 412.379Z" fill="black"/>
</g>
<path d="M16.9841 400.296L23.51 408.199L7.90894 421.098C7.15098 421.67 6.20502 421.936 5.25993 421.841C4.31484 421.747 3.44017 421.299 2.81056 420.588L1.12809 418.549C0.567035 417.786 0.308598 416.843 0.402774 415.901C0.49695 414.96 0.937047 414.086 1.63793 413.45L16.9841 400.296Z" fill="#AC752C"/>
<path d="M16.9831 400.296L20.2461 404.273L1.73896 419.568L0.872234 418.549C0.311176 417.786 0.0527388 416.843 0.146915 415.901C0.241091 414.96 0.681187 414.086 1.38207 413.45L16.9831 400.296Z" fill="#7D551F"/>
<path d="M17.8504 387.907C25.0871 381.173 33.2615 375.523 42.1187 371.134C56.5174 364.009 72.3763 360.333 88.441 360.395C104.506 360.458 120.336 364.257 134.679 371.493C149.022 378.729 161.484 389.202 171.081 402.086C180.678 414.969 187.145 429.909 189.972 445.723C190.417 450.162 190.002 454.646 188.748 458.928C187.916 461.889 186.122 464.49 183.65 466.32C183.354 466.494 183.048 466.647 182.732 466.779C182.425 466.927 182.099 467.03 181.763 467.085C180.082 467.088 178.418 466.745 176.875 466.078C175.331 465.412 173.941 464.436 172.79 463.21C166.266 456.781 160.265 449.843 154.844 442.46C154.028 441.389 153.212 440.37 152.346 439.35C151.377 438.228 150.408 437.158 149.389 436.087L148.522 435.169L147.859 434.252C147.613 433.955 147.34 433.682 147.043 433.436L145.973 432.365L143.78 430.326L142.506 429.153C141.333 428.134 140.161 427.114 138.937 426.145L137.662 425.278L136.49 424.361L132.972 421.812H132.666C130.933 420.622 129.148 419.5 127.313 418.447C125.63 417.376 123.846 416.407 122.214 415.49L121.501 415.133C120.328 414.521 119.104 413.909 117.932 413.399H117.575H117.116C113.653 411.859 110.113 410.498 106.511 409.32L104.421 408.658L101.974 407.179H101.668L100.495 406.873L96.8753 405.956L95.1929 405.395L92.5927 404.885H91.573L87.9532 404.273C82.565 403.534 77.1264 403.227 71.6893 403.355H71.3834C69.3441 403.355 67.2537 403.355 65.1634 403.661C64.1947 403.661 63.226 403.661 62.2573 403.967H59.912H59.5042L54.4058 404.834C45.1115 406.598 36.1046 409.635 27.6393 413.858L24.9881 415.591H24.1724H23.7135H23.4076C20.7399 416.339 17.905 416.232 15.3012 415.286C12.7283 413.99 10.6249 411.922 9.28511 409.371C8.56865 407.903 8.19629 406.29 8.19629 404.655C8.19629 403.021 8.56865 401.408 9.28511 399.939C11.2868 395.385 14.202 391.29 17.8504 387.907Z" fill="#FFD54F"/>
<path d="M9.33496 409.371C16.1266 402.748 23.7947 397.087 32.1247 392.547L35.6936 390.762C49.7346 383.781 65.1778 380.081 80.8578 379.939C96.5378 379.798 112.045 383.219 126.21 389.946C140.374 396.672 152.827 406.528 162.626 418.769C172.426 431.01 179.318 445.317 182.782 460.61C182.782 461.783 183.292 462.955 183.496 464.128C183.7 465.301 183.802 465.606 183.904 466.371C183.608 466.544 183.302 466.698 182.986 466.83C182.679 466.978 182.353 467.081 182.017 467.136C180.336 467.138 178.672 466.796 177.129 466.129C175.585 465.463 174.195 464.487 173.044 463.261C166.52 456.832 160.519 449.893 155.098 442.511C154.282 441.44 153.466 440.42 152.6 439.401C151.631 438.279 150.662 437.208 149.642 436.138C149.558 436.12 149.472 436.12 149.388 436.138L148.776 435.475L147.858 434.251C147.603 433.946 147.297 433.691 147.042 433.436L145.972 432.365L143.779 430.326L142.505 429.153L140.261 427.267L138.936 426.145L137.661 425.278L136.489 424.361L132.971 421.811H132.665L131.339 420.69C129.912 419.721 128.433 418.803 126.955 417.937C125.476 417.07 123.947 416.203 122.417 415.387L121.754 414.979L121.041 414.623L118.848 413.552L117.268 412.889H116.911H116.452L114.464 412.022L112.985 411.411H112.322L110.232 410.595L108.244 409.881L105.847 409.065L103.757 408.403L101.973 407.179H101.667L100.494 406.873L96.8742 405.955L95.1917 405.395L92.5916 404.885H91.5719H90.5012L87.952 404.477H85.8107H83.2615H81.9869H80.9672H78.673H76.2767H71.3823H68.8331H67.2526H65.1623H63.3268H62.2562H59.9109H59.5031L57.5657 404.783L56.0361 405.089H54.4557L52.2124 405.547H51.0397L48.1337 406.261L46.1963 406.771L43.3922 407.587L41.5058 408.199L38.6507 409.218L36.8662 409.881C35.7956 410.238 34.7759 410.697 33.7562 411.105L32.5836 411.615H32.0737L27.6891 413.654L24.987 415.591H24.1713H23.7124H23.4065C20.7388 416.339 17.9038 416.232 15.3001 415.285C12.7461 413.981 10.6614 411.914 9.33496 409.371Z" fill="#FFB300"/>
<path d="M172.892 463.261C175.714 463.998 178.68 463.986 181.497 463.226C184.313 462.466 186.883 460.984 188.952 458.928C188.119 461.889 186.326 464.49 183.853 466.32C183.558 466.494 183.251 466.647 182.935 466.779C182.629 466.927 182.303 467.03 181.967 467.085C180.272 467.108 178.591 466.78 177.029 466.122C175.468 465.464 174.059 464.49 172.892 463.261Z" fill="#7D551F"/>
<g opacity="0.5">
<path opacity="0.5" d="M658.054 509.249C657.238 508.688 655.913 508.943 653.975 510.472C648.214 514.908 626.852 526.583 612.882 524.697C609.007 524.192 605.415 522.396 602.686 519.598C601.587 514.209 601.466 508.665 602.329 503.233C606.382 496.021 609.565 488.354 611.812 480.392C613.031 476.738 613.19 472.814 612.271 469.073C612.984 467.187 613.698 465.097 614.412 463.159C615.21 461.419 615.536 459.499 615.357 457.593C615.178 455.687 614.5 453.861 613.392 452.3C613.216 452.028 612.984 451.796 612.711 451.62C612.439 451.445 612.132 451.329 611.812 451.28C611.319 451.252 610.826 451.252 610.333 451.28C609.262 451.244 608.209 451.572 607.348 452.211C606.487 452.85 605.868 453.762 605.592 454.798L602.992 464.383C599.316 464.846 595.813 466.213 592.795 468.36C581.11 476.194 571.251 486.454 563.887 498.44C561.671 501.739 559.199 504.858 556.494 507.77C550.088 511.409 543.013 513.716 535.693 514.551C525.496 515.367 499.087 515.418 501.789 489.365C501.823 488.982 501.757 488.597 501.596 488.248C501.435 487.899 501.185 487.599 500.871 487.377C498.655 495.982 495.687 504.376 492 512.461C494.09 520.618 500.667 529.438 520.449 532.854H521.01C510.401 535.246 499.41 535.403 488.737 533.313C485.916 532.803 483.367 532.242 481.089 531.631C478.795 535.047 476.399 538.36 473.85 541.572C487.215 550.32 503.018 554.588 518.97 553.758C536.887 553.942 554.479 548.969 569.648 539.431C571.942 537.953 574.084 536.321 576.225 534.639C590.552 548.71 600.544 553.809 619.357 555.593C627.957 556.415 636.625 556.141 645.155 554.777C646.991 549.679 648.724 544.58 650.254 539.482C642.442 540.322 634.562 540.322 626.75 539.482C637.491 537.377 647.269 531.871 654.638 523.779L658.054 509.249Z" fill="black"/>
</g>
<path d="M506.48 447.865C506.48 487.853 490.598 526.205 462.326 554.486C434.055 582.767 395.709 598.661 355.72 598.675H351.387C390.533 597.428 427.658 581 454.908 552.869C482.158 524.737 497.395 487.107 497.395 447.941C497.395 408.775 482.158 371.146 454.908 343.014C427.658 314.882 390.533 298.455 351.387 297.208H355.72C395.686 297.208 434.017 313.077 462.287 341.328C490.557 369.579 506.452 407.899 506.48 447.865Z" fill="#5BAFC7"/>
<path d="M616.911 459.386L614.107 466.575C613.66 467.753 612.768 468.707 611.623 469.232C610.478 469.757 609.172 469.81 607.989 469.379C607.541 469.241 607.125 469.016 606.765 468.717C606.171 468.274 605.69 467.696 605.362 467.031C605.034 466.367 604.869 465.634 604.879 464.893V463.159C604.83 462.753 604.83 462.342 604.879 461.936L607.836 450.923C608.102 449.878 608.717 448.954 609.579 448.305C610.441 447.656 611.499 447.321 612.577 447.354H614.005C614.617 447.45 615.176 447.756 615.585 448.221C616.794 449.789 617.555 451.655 617.789 453.621C618.022 455.587 617.719 457.579 616.911 459.386Z" fill="#AC752C"/>
<path d="M616.91 459.387L614.106 466.575C613.66 467.753 612.767 468.707 611.622 469.232C610.477 469.757 609.172 469.81 607.988 469.379C608.008 468.266 608.269 467.17 608.753 466.167C611.435 460.237 613.255 453.953 614.157 447.507C614.769 447.603 615.328 447.909 615.738 448.374C616.893 449.94 617.611 451.786 617.817 453.721C618.023 455.657 617.71 457.612 616.91 459.387Z" fill="#7D551F"/>
<path d="M657.697 519.395C649.48 528.849 638.022 534.887 625.578 536.321C621.092 536.827 616.567 535.803 612.736 533.416C608.905 531.028 605.993 527.417 604.47 523.168C602.789 519.473 601.82 515.495 601.615 511.441C602.944 513.967 604.852 516.143 607.182 517.791C609.512 519.439 612.2 520.513 615.024 520.924C628.943 522.862 650.356 511.135 656.117 506.7C658.054 505.17 659.38 504.915 660.196 505.527C662.796 507.363 660.756 515.571 657.697 519.395Z" fill="#FFD54F"/>
<path d="M657.697 519.395C649.479 528.849 638.021 534.887 625.577 536.322C621.091 536.827 616.567 535.803 612.736 533.416C608.905 531.029 605.992 527.417 604.47 523.168C611.149 527.45 625.373 532.6 647.806 520.568C650.829 518.993 653.506 516.828 655.677 514.201C657.849 511.574 659.472 508.538 660.45 505.272C662.795 507.363 660.756 515.571 657.697 519.395Z" fill="#FFB300"/>
<path d="M686.86 533.771C686.86 535.607 683.648 538.309 681.761 539.482C663.324 549.331 642.43 553.634 621.6 551.871C602.787 550.035 592.744 544.937 578.468 530.916C572.605 525.104 576.378 516.998 582.853 509.452C590.122 501.734 598.266 494.89 607.121 489.059C607.121 489.059 596.924 516.233 612.984 529.846C629.044 543.458 674.726 531.681 682.883 531.885C685.84 531.885 686.911 532.854 686.86 533.771Z" fill="#FFD54F"/>
<path d="M686.86 533.773C686.86 535.608 683.648 538.31 681.761 539.483C663.324 549.333 642.43 553.635 621.6 551.872C602.787 550.037 592.744 544.938 578.468 530.918C572.605 525.105 576.378 516.999 582.853 509.453L590.194 506.445C590.194 506.445 589.838 534.537 615.177 542.134C626.639 545.769 638.722 547.029 650.687 545.837C662.653 544.645 674.25 541.025 684.769 535.2L686.86 533.773Z" fill="#FFB300"/>
<path d="M565.263 500.377C562.626 506.326 559.083 511.829 554.76 516.692C550.971 521.386 546.012 524.998 540.382 527.165C534.751 529.331 528.65 529.974 522.692 529.03C493.682 523.932 493.07 507.413 493.274 498.44C493.4 495.548 494.176 492.722 495.544 490.171C496.912 487.62 498.837 485.41 501.176 483.706C501.518 483.518 501.905 483.427 502.295 483.443C502.685 483.459 503.062 483.581 503.388 483.797C503.713 484.012 503.974 484.312 504.141 484.664C504.308 485.016 504.376 485.408 504.337 485.796C501.686 511.849 528.147 511.798 538.293 511.288C547.991 509.734 557.212 506.004 565.263 500.377Z" fill="#FFD54F"/>
<path d="M554.76 516.692C550.971 521.386 546.012 524.999 540.382 527.165C534.751 529.331 528.65 529.974 522.692 529.03C493.682 523.932 493.07 507.413 493.274 498.44C493.345 496.702 493.672 494.985 494.243 493.342C497.71 504.099 501.89 517.406 526.209 519.751C535.816 519.9 545.404 518.872 554.76 516.692Z" fill="#FFB300"/>
<path d="M614.157 476.773C607.264 500.721 592.34 521.568 571.892 535.812C556.632 545.398 538.928 550.373 520.908 550.138C511.546 550.795 502.147 549.578 493.261 546.558C484.376 543.537 476.182 538.775 469.159 532.549C468.128 531.528 467.309 530.313 466.749 528.974C466.189 527.636 465.9 526.2 465.896 524.749C465.813 524.349 465.852 523.934 466.007 523.556C466.162 523.179 466.427 522.856 466.768 522.631C467.108 522.406 467.509 522.288 467.917 522.293C468.325 522.298 468.722 522.425 469.057 522.658C475.988 525.948 483.353 528.232 490.93 529.439C507.448 532.396 523.406 530.918 533.705 524.799C546.615 517.129 557.767 506.828 566.437 494.566C573.798 482.608 583.638 472.368 595.293 464.537C597.48 462.74 600.065 461.492 602.832 460.898C605.599 460.304 608.469 460.38 611.2 461.121C613.036 461.987 616.911 465.352 614.157 476.773Z" fill="#FFD54F"/>
<path d="M614.156 476.772C607.263 500.72 592.339 521.567 571.891 535.811C556.631 545.398 538.927 550.373 520.907 550.138C511.545 550.795 502.146 549.577 493.261 546.557C484.375 543.537 476.181 538.774 469.158 532.549C468.127 531.527 467.309 530.313 466.749 528.974C466.189 527.635 465.899 526.199 465.896 524.748C465.896 524.748 501.176 554.574 543.595 536.627C577.04 522.505 602.073 479.219 611.199 461.477C613.035 461.987 616.91 465.352 614.156 476.772Z" fill="#FFB300"/>
<path d="M282.44 603.37L249.35 636.45L233.24 620.33L220.62 621.43L216.48 642.11L241.42 667.05C246.754 666.493 252.12 666.289 257.48 666.44L324.8 599.23H326.26V595.1H289.06L282.44 603.37Z" fill="#3A2322"/>
<path d="M286.58 607.51V599.24H278.31V607.51H286.58Z" fill="black"/>
<path d="M278.311 615.78V607.51H270.041V615.78H278.311Z" fill="black"/>
<path d="M270.03 624.05V615.78H261.76V624.05H270.03Z" fill="black"/>
<path d="M261.761 632.32V624.05H253.491V632.32H261.761Z" fill="black"/>
<path d="M253.49 640.59V632.32H245.22V640.59H253.49Z" fill="black"/>
<path d="M245.21 632.32V624.05H236.94V632.32H245.21Z" fill="black"/>
<path d="M237.37 624.47V616.2H229.1V624.47H237.37Z" fill="black"/>
<path d="M286.36 645.82V637.55H278.09V645.82H286.36Z" fill="black"/>
<path d="M278.091 654.09V645.82H269.821V654.09H278.091Z" fill="black"/>
<path d="M269.82 662.36V654.09H261.55V662.36H269.82Z" fill="black"/>
<path d="M261.551 670.64V662.37H253.281V670.64H261.551Z" fill="black"/>
<path d="M253.28 670.64V662.37H245.01V670.64H253.28Z" fill="black"/>
<path d="M245.011 670.64V662.37H236.741V670.64H245.011Z" fill="black"/>
<path d="M237.16 662.79V654.52H228.89V662.79H237.16Z" fill="black"/>
<path d="M228.891 654.52V646.25H220.621V654.52H228.891Z" fill="black"/>
<path d="M220.62 646.25V637.98H212.35V646.25H220.62Z" fill="black"/>
<path d="M220.62 637.98V629.71H212.35V637.98H220.62Z" fill="black"/>
<path d="M220.62 629.71V621.44H212.35V629.71H220.62Z" fill="black"/>
<path d="M229.101 621.43V613.16H220.621V621.43H229.101Z" fill="black"/>
<path d="M324.801 607.51V599.24H316.531V607.51H324.801Z" fill="black"/>
<path d="M316.53 615.78V607.51H308.26V615.78H316.53Z" fill="black"/>
<path d="M308.25 624.05V615.78H299.98V624.05H308.25Z" fill="black"/>
<path d="M299.98 632.32V624.05H291.71V632.32H299.98Z" fill="black"/>
<path d="M291.71 640.59V632.32H283.44V640.59H291.71Z" fill="black"/>
<path d="M500.94 349.46L476.94 325.46L459.24 324.57L455.11 342.15L471.22 358.26L438.14 391.39L429.87 398.01V435.21H434.01V433.75L502.5 365.14C501.94 359.91 501.37 354.7 500.94 349.46Z" fill="#3A2322"/>
<path d="M442.281 387.25H434.011V395.52H442.281V387.25Z" fill="black"/>
<path d="M450.55 378.98H442.28V387.25H450.55V378.98Z" fill="black"/>
<path d="M458.821 370.71H450.551V378.98H458.821V370.71Z" fill="black"/>
<path d="M467.09 362.44H458.82V370.71H467.09V362.44Z" fill="black"/>
<path d="M475.361 354.17H467.091V362.44H475.361V354.17Z" fill="black"/>
<path d="M467.09 345.9H458.82V354.17H467.09V345.9Z" fill="black"/>
<path d="M459.241 338.05H450.971V346.32H459.241V338.05Z" fill="black"/>
<path d="M480.59 387.04H472.32V395.31H480.59V387.04Z" fill="black"/>
<path d="M488.861 378.77H480.591V387.04H488.861V378.77Z" fill="black"/>
<path d="M497.13 370.5H488.86V378.77H497.13V370.5Z" fill="black"/>
<path d="M505.401 362.23H497.131V370.5H505.401V362.23Z" fill="black"/>
<path d="M505.401 353.96H497.131V362.23H505.401V353.96Z" fill="black"/>
<path d="M505.401 345.69H497.131V353.96H505.401V345.69Z" fill="black"/>
<path d="M497.56 337.84H489.29V346.11H497.56V337.84Z" fill="black"/>
<path d="M489.281 329.57H481.011V337.84H489.281V329.57Z" fill="black"/>
<path d="M481.01 321.3H472.74V329.57H481.01V321.3Z" fill="black"/>
<path d="M442.281 425.48H434.011V433.75H442.281V425.48Z" fill="black"/>
<path d="M450.55 417.21H442.28V425.48H450.55V417.21Z" fill="black"/>
<path d="M458.821 408.94H450.551V417.21H458.821V408.94Z" fill="black"/>
<path d="M467.09 400.67H458.82V408.94H467.09V400.67Z" fill="black"/>
<path d="M475.361 392.4H467.091V400.67H475.361V392.4Z" fill="black"/>
<path d="M275.491 391.39L242.411 358.3L258.531 342.19L254.391 324.57L236.751 325.39L211.811 350.37C212.368 355.704 212.572 361.069 212.421 366.43L279.631 433.75V435.21H283.761V398.01L275.491 391.39Z" fill="#3A2322"/>
<path d="M271.35 395.53H279.62V387.26H271.35V395.53Z" fill="black"/>
<path d="M263.09 387.25H271.36V378.98H263.09V387.25Z" fill="black"/>
<path d="M254.821 378.98H263.091V370.71H254.821V378.98Z" fill="black"/>
<path d="M246.55 370.71H254.82V362.44H246.55V370.71Z" fill="black"/>
<path d="M238.281 362.44H246.551V354.17H238.281V362.44Z" fill="black"/>
<path d="M246.55 354.17H254.82V345.9H246.55V354.17Z" fill="black"/>
<path d="M254.39 346.32H262.66V338.05H254.39V346.32Z" fill="black"/>
<path d="M233.041 395.31H241.311V387.04H233.041V395.31Z" fill="black"/>
<path d="M224.77 387.04H233.04V378.77H224.77V387.04Z" fill="black"/>
<path d="M216.501 378.77H224.771V370.5H216.501V378.77Z" fill="black"/>
<path d="M208.23 370.5H216.5V362.23H208.23V370.5Z" fill="black"/>
<path d="M208.23 362.23H216.5V353.96H208.23V362.23Z" fill="black"/>
<path d="M208.23 353.96H216.5V345.69H208.23V353.96Z" fill="black"/>
<path d="M216.071 346.11H224.341V337.84H216.071V346.11Z" fill="black"/>
<path d="M224.34 337.84H232.61V329.57H224.34V337.84Z" fill="black"/>
<path d="M232.621 329.57H240.891V321.3H232.621V329.57Z" fill="black"/>
<path d="M271.35 433.75H279.62V425.48H271.35V433.75Z" fill="black"/>
<path d="M263.09 425.48H271.36V417.21H263.09V425.48Z" fill="black"/>
<path d="M254.821 417.21H263.091V408.94H254.821V417.21Z" fill="black"/>
<path d="M246.55 408.94H254.82V400.67H246.55V408.94Z" fill="black"/>
<path d="M238.281 400.67H246.551V392.4H238.281V400.67Z" fill="black"/>
<path d="M427.631 602.82L460.711 635.9L476.831 619.79L489.451 620.88L493.581 641.57L468.641 666.5C463.31 665.943 457.948 665.74 452.591 665.89L385.261 598.69H383.811V594.57H421.001L427.631 602.82Z" fill="#3A2322"/>
<path d="M431.761 606.96V598.69H423.491V606.96H431.761Z" fill="black"/>
<path d="M440.03 615.23V606.96H431.76V615.23H440.03Z" fill="black"/>
<path d="M448.301 623.5V615.23H440.031V623.5H448.301Z" fill="black"/>
<path d="M456.58 631.78V623.51H448.31V631.78H456.58Z" fill="black"/>
<path d="M464.851 640.05V631.78H456.581V640.05H464.851Z" fill="black"/>
<path d="M473.12 631.77V623.5H464.85V631.77H473.12Z" fill="black"/>
<path d="M480.971 623.92V615.65H472.701V623.92H480.971Z" fill="black"/>
<path d="M431.98 645.28V637.01H423.71V645.28H431.98Z" fill="black"/>
<path d="M440.25 653.55V645.28H431.98V653.55H440.25Z" fill="black"/>
<path d="M448.521 661.82V653.55H440.25V661.82H448.521Z" fill="black"/>
<path d="M456.79 670.09V661.82H448.52V670.09H456.79Z" fill="black"/>
<path d="M465.061 670.09V661.82H456.791V670.09H465.061Z" fill="black"/>
<path d="M473.33 670.09V661.82H465.06V670.09H473.33Z" fill="black"/>
<path d="M481.171 662.24V653.97H472.901V662.24H481.171Z" fill="black"/>
<path d="M489.45 653.97V645.7H481.18V653.97H489.45Z" fill="black"/>
<path d="M497.721 645.7V637.43H489.451V645.7H497.721Z" fill="black"/>
<path d="M497.721 637.43V629.16H489.451V637.43H497.721Z" fill="black"/>
<path d="M497.721 629.16V620.89H489.451V629.16H497.721Z" fill="black"/>
<path d="M489.44 620.88V612.61H480.96V620.88H489.44Z" fill="black"/>
<path d="M393.53 606.96V598.69H385.26V606.96H393.53Z" fill="black"/>
<path d="M401.801 615.24V606.97H393.531V615.24H401.801Z" fill="black"/>
<path d="M410.07 623.51V615.24H401.8V623.51H410.07Z" fill="black"/>
<path d="M418.351 631.78V623.51H410.081V631.78H418.351Z" fill="black"/>
<path d="M426.62 640.05V631.78H418.35V640.05H426.62Z" fill="black"/>
<path d="M434.011 261.57V559.01C434.011 571.09 432.941 581.9 425.731 591.6C423.642 594.658 421.172 597.437 418.381 599.87C414.851 602.87 401.671 608.14 401.671 608.14C401.671 608.14 386.601 615.14 377.821 615.09H333.771C325.891 615.09 309.501 608.14 309.501 608.14C309.501 608.14 297.691 603.52 293.501 599.87C290.57 597.486 287.988 594.702 285.831 591.6C278.831 582.03 277.581 570.85 277.561 559.01V261.57H434.011Z" fill="#3A2322"/>
<path d="M354.29 595.19L368.16 594.55C374.81 594.55 401.67 586.28 401.67 586.28L410.05 578.01C410.05 578.01 416.32 563.81 416.32 552.38V453.57C416.323 450.906 415.689 448.279 414.47 445.91C413.26 443.54 410.05 437.39 410.05 437.39L401.78 429.12H393.51C393.51 429.12 393.3 435.55 385.24 437.39L354.29 443.82L325.94 437.4C317.88 435.56 317.67 429.13 317.67 429.13H309.4L301.13 437.4C301.13 437.4 297.92 443.55 296.71 445.92C295.497 448.291 294.863 450.916 294.86 453.58V552.38C294.86 563.81 301.13 578.01 301.13 578.01L309.51 586.28C309.51 586.28 336.36 594.57 343.02 594.57L356.88 595.21" fill="#F5DCB4"/>
<path d="M434 362.97H425.73V371.24H434V362.97Z" fill="black"/>
<path d="M434 371.24H425.73V379.51H434V371.24Z" fill="black"/>
<path d="M434 379.51H425.73V387.78H434V379.51Z" fill="black"/>
<path d="M434 387.78H425.73V396.05H434V387.78Z" fill="black"/>
<path d="M434 396.05H425.73V404.32H434V396.05Z" fill="black"/>
<path d="M434 404.32H425.73V412.59H434V404.32Z" fill="black"/>
<path d="M434 412.6H425.73V420.87H434V412.6Z" fill="black"/>
<path d="M434 420.87H425.73V429.14H434V420.87Z" fill="black"/>
<path d="M434 429.14H425.73V437.41H434V429.14Z" fill="black"/>
<path d="M434 437.41H425.73V445.68H434V437.41Z" fill="black"/>
<path d="M434 445.68H425.73V453.95H434V445.68Z" fill="black"/>
<path d="M434 453.95H425.73V462.22H434V453.95Z" fill="black"/>
<path d="M434 462.22H425.73V470.49H434V462.22Z" fill="black"/>
<path d="M434 470.49H425.73V478.76H434V470.49Z" fill="black"/>
<path d="M434 478.76H425.73V487.03H434V478.76Z" fill="black"/>
<path d="M434 487.03H425.73V495.3H434V487.03Z" fill="black"/>
<path d="M434 495.3H425.73V503.57H434V495.3Z" fill="black"/>
<path d="M434 503.57H425.73V511.84H434V503.57Z" fill="black"/>
<path d="M434 511.85H425.73V520.12H434V511.85Z" fill="black"/>
<path d="M434 520.12H425.73V528.39H434V520.12Z" fill="black"/>
<path d="M434 528.39H425.73V536.66H434V528.39Z" fill="black"/>
<path d="M434 536.66H425.73V544.93H434V536.66Z" fill="black"/>
<path d="M434 544.93H425.73V553.2H434V544.93Z" fill="black"/>
<path d="M434 553.2H425.73V561.47H434V553.2Z" fill="black"/>
<path d="M434 561.47H425.73V569.74H434V561.47Z" fill="black"/>
<path d="M434 569.74H425.73V578.01H434V569.74Z" fill="black"/>
<path d="M434 578.01H425.73V591.6H434V578.01Z" fill="black"/>
<path d="M285.81 362.97H277.54V371.24H285.81V362.97Z" fill="black"/>
<path d="M285.81 371.24H277.54V379.51H285.81V371.24Z" fill="black"/>
<path d="M285.81 379.51H277.54V387.78H285.81V379.51Z" fill="black"/>
<path d="M285.81 387.78H277.54V396.05H285.81V387.78Z" fill="black"/>
<path d="M285.81 396.05H277.54V404.32H285.81V396.05Z" fill="black"/>
<path d="M285.81 404.32H277.54V412.59H285.81V404.32Z" fill="black"/>
<path d="M285.81 412.6H277.54V420.87H285.81V412.6Z" fill="black"/>
<path d="M285.81 420.87H277.54V429.14H285.81V420.87Z" fill="black"/>
<path d="M285.81 429.14H277.54V437.41H285.81V429.14Z" fill="black"/>
<path d="M285.81 437.41H277.54V445.68H285.81V437.41Z" fill="black"/>
<path d="M285.81 445.68H277.54V453.95H285.81V445.68Z" fill="black"/>
<path d="M285.81 453.95H277.54V462.22H285.81V453.95Z" fill="black"/>
<path d="M285.81 462.22H277.54V470.49H285.81V462.22Z" fill="black"/>
<path d="M285.81 470.49H277.54V478.76H285.81V470.49Z" fill="black"/>
<path d="M285.81 478.76H277.54V487.03H285.81V478.76Z" fill="black"/>
<path d="M285.81 487.03H277.54V495.3H285.81V487.03Z" fill="black"/>
<path d="M285.81 495.3H277.54V503.57H285.81V495.3Z" fill="black"/>
<path d="M285.81 503.57H277.54V511.84H285.81V503.57Z" fill="black"/>
<path d="M285.81 511.85H277.54V520.12H285.81V511.85Z" fill="black"/>
<path d="M285.81 520.12H277.54V528.39H285.81V520.12Z" fill="black"/>
<path d="M285.81 528.39H277.54V536.66H285.81V528.39Z" fill="black"/>
<path d="M285.81 536.66H277.54V544.93H285.81V536.66Z" fill="black"/>
<path d="M285.81 544.93H277.54V553.2H285.81V544.93Z" fill="black"/>
<path d="M285.81 553.2H277.54V561.47H285.81V553.2Z" fill="black"/>
<path d="M285.81 561.47H277.54V569.74H285.81V561.47Z" fill="black"/>
<path d="M285.81 569.74H277.54V578.01H285.81V569.74Z" fill="black"/>
<path d="M285.81 578.01H277.54V591.6H285.81V578.01Z" fill="black"/>
<path d="M368.16 601.64V593.37H359.78V601.64H368.16Z" fill="black"/>
<path d="M359.78 601.64V593.37H351.4V601.64H359.78Z" fill="black"/>
<path d="M351.4 601.64V593.37H343.02V601.64H351.4Z" fill="black"/>
<path d="M343.011 594.55V586.28H334.631V594.55H343.011Z" fill="black"/>
<path d="M334.631 594.55V586.28H326.251V594.55H334.631Z" fill="black"/>
<path d="M326.261 594.55V586.28H317.881V594.55H326.261Z" fill="black"/>
<path d="M317.881 594.56V586.29H309.501V594.56H317.881Z" fill="black"/>
<path d="M309.511 586.29V578.02H301.131V586.29H309.511Z" fill="black"/>
<path d="M401.671 578.01V586.28H410.051V578.01H401.671Z" fill="black"/>
<path d="M401.671 594.56V586.29H393.291V594.56H401.671Z" fill="black"/>
<path d="M384.921 586.28V594.55H393.301V586.28H384.921Z" fill="black"/>
<path d="M384.91 594.55V586.28H376.53V594.55H384.91Z" fill="black"/>
<path d="M376.53 594.55V586.28H368.15V594.55H376.53Z" fill="black"/>
<path d="M368.16 623.5V615.23H359.78V623.5H368.16Z" fill="black"/>
<path d="M359.78 623.5V615.23H351.4V623.5H359.78Z" fill="black"/>
<path d="M351.4 623.5V615.23H343.02V623.5H351.4Z" fill="black"/>
<path d="M343.011 616.14V607.87H334.631V616.14H343.011Z" fill="black"/>
<path d="M334.641 616.14V607.87H326.261V616.14H334.641Z" fill="black"/>
<path d="M326.261 616.14V607.87H317.881V616.14H326.261Z" fill="black"/>
<path d="M317.881 616.15V607.88H309.501V616.15H317.881Z" fill="black"/>
<path d="M309.5 608.15V599.88H301.12V608.15H309.5Z" fill="black"/>
<path d="M301.851 608.14V599.87H293.471V608.14H301.851Z" fill="black"/>
<path d="M293.471 599.87V591.6H285.091V599.87H293.471Z" fill="black"/>
<path d="M401.681 599.87V608.14H410.061V599.87H401.681Z" fill="black"/>
<path d="M410 599.88V608.15H418.38V599.88H410Z" fill="black"/>
<path d="M418.381 591.61V599.88H426.761V591.61H418.381Z" fill="black"/>
<path d="M401.671 616.15V607.88H393.291V616.15H401.671Z" fill="black"/>
<path d="M384.921 607.87V616.14H393.301V607.87H384.921Z" fill="black"/>
<path d="M384.91 616.15V607.88H376.53V616.15H384.91Z" fill="black"/>
<path d="M376.53 616.14V607.87H368.15V616.14H376.53Z" fill="black"/>
<path d="M309.39 429.14H301.12V437.41H309.39V429.14Z" fill="black"/>
<path d="M317.661 420.87H309.391V429.14H317.661V420.87Z" fill="black"/>
<path d="M401.781 420.87H393.511V429.14H401.781V420.87Z" fill="black"/>
<path d="M410.05 429.14H401.78V437.41H410.05V429.14Z" fill="black"/>
<path d="M325.93 429.14H317.66V437.41H325.93V429.14Z" fill="black"/>
<path d="M334.201 437.41H325.931V445.68H334.201V437.41Z" fill="black"/>
<path d="M342.48 437.41H334.21V445.68H342.48V437.41Z" fill="black"/>
<path d="M350.75 437.41H342.48V445.68H350.75V437.41Z" fill="black"/>
<path d="M359.02 437.41H350.75V445.68H359.02V437.41Z" fill="black"/>
<path d="M367.291 437.41H359.021V445.68H367.291V437.41Z" fill="black"/>
<path d="M376.03 437.41H367.29V445.68H376.03V437.41Z" fill="black"/>
<path d="M384.77 437.41H376.03V445.68H384.77V437.41Z" fill="black"/>
<path d="M393.511 429.14H384.771V437.41H393.511V429.14Z" fill="black"/>
<path d="M301.121 437.41H292.851V445.68H301.121V437.41Z" fill="black"/>
<path d="M301.121 445.68H292.851V453.95H301.121V445.68Z" fill="black"/>
<path d="M301.121 453.95H292.851V462.22H301.121V453.95Z" fill="black"/>
<path d="M301.121 462.22H292.851V470.49H301.121V462.22Z" fill="black"/>
<path d="M301.121 470.49H292.851V478.76H301.121V470.49Z" fill="black"/>
<path d="M301.121 478.76H292.851V487.03H301.121V478.76Z" fill="black"/>
<path d="M301.121 487.03H292.851V495.3H301.121V487.03Z" fill="black"/>
<path d="M301.121 495.3H292.851V503.57H301.121V495.3Z" fill="black"/>
<path d="M301.121 503.57H292.851V511.84H301.121V503.57Z" fill="black"/>
<path d="M301.121 511.85H292.851V520.12H301.121V511.85Z" fill="black"/>
<path d="M301.121 520.12H292.851V528.39H301.121V520.12Z" fill="black"/>
<path d="M301.121 528.39H292.851V536.66H301.121V528.39Z" fill="black"/>
<path d="M301.121 536.66H292.851V544.93H301.121V536.66Z" fill="black"/>
<path d="M301.121 544.93H292.851V553.2H301.121V544.93Z" fill="black"/>
<path d="M301.121 553.2H292.851V561.47H301.121V553.2Z" fill="black"/>
<path d="M301.121 561.47H292.851V569.74H301.121V561.47Z" fill="black"/>
<path d="M301.121 569.74H292.851V578.01H301.121V569.74Z" fill="black"/>
<path d="M418.321 437.41H410.051V445.68H418.321V437.41Z" fill="black"/>
<path d="M418.321 445.68H410.051V453.95H418.321V445.68Z" fill="black"/>
<path d="M418.321 453.95H410.051V462.22H418.321V453.95Z" fill="black"/>
<path d="M418.321 462.22H410.051V470.49H418.321V462.22Z" fill="black"/>
<path d="M418.321 470.49H410.051V478.76H418.321V470.49Z" fill="black"/>
<path d="M418.321 478.76H410.051V487.03H418.321V478.76Z" fill="black"/>
<path d="M418.321 487.03H410.051V495.3H418.321V487.03Z" fill="black"/>
<path d="M418.321 495.3H410.051V503.57H418.321V495.3Z" fill="black"/>
<path d="M418.321 503.57H410.051V511.84H418.321V503.57Z" fill="black"/>
<path d="M418.321 511.85H410.051V520.12H418.321V511.85Z" fill="black"/>
<path d="M418.321 520.12H410.051V528.39H418.321V520.12Z" fill="black"/>
<path d="M418.321 528.39H410.051V536.66H418.321V528.39Z" fill="black"/>
<path d="M418.321 536.66H410.051V544.93H418.321V536.66Z" fill="black"/>
<path d="M418.321 544.93H410.051V553.2H418.321V544.93Z" fill="black"/>
<path d="M418.321 553.2H410.051V561.47H418.321V553.2Z" fill="black"/>
<path d="M418.321 561.47H410.051V569.74H418.321V561.47Z" fill="black"/>
<path d="M418.321 569.74H410.051V578.01H418.321V569.74Z" fill="black"/>
<path d="M522.54 208.65H514.25V208.57H514.16V191.97H505.94V191.88H505.85V183.82H489.2V191.88H489.12V191.97H472.38V166.79H464.09V150.27H464.18V150.19H505.81V141.93H505.94V141.84H513.94V133.57H505.94V133.49H505.85V125.42H480.86V133.49H480.77V133.57H472.52V133.49H472.43V125.02H464.03V100.11H455.69V66.81H447.49V66.72H447.4V33.42H439.15V33.33H439.06V16.73H430.8V16.64H430.72V8.38H422.46V8.3H422.37C422.37 5.53333 422.37 2.76667 422.37 0H389.03C389.03 2.76 389.03 5.52667 389.03 8.3H388.94V8.38H364.04V16.64H363.94V16.73H347.36V16.64H347.26V8.38H322.32V8.3H322.23C322.23 5.53333 322.23 2.76667 322.23 0H288.94C288.94 2.76 288.94 5.53 288.94 8.3H288.85V8.38H280.59V16.64H280.51V16.73H272.25V33.33H272.16V33.42H263.94V66.72H263.86V66.81H255.42V100.23H247.19V125.23H238.91V133.45H238.82V133.57H230.57V133.48H230.49V125.41H205.5V133.48H205.4V133.57H197.35V141.84H205.4V141.93H205.5V150.19H247.13V150.27H247.22V167.04H238.68V192.04H222.19V191.95H222.1V183.89H205.49V191.95H205.4V192.04H197.15V208.57H197.06V208.66H189V225.27H197.06V225.36H197.15V241.97H205.4V242.05H205.49V267.17H213.71V275.47H222.16V308.85H230.63V325.57H238.88V333.94H247.26V342.2H255.63V350.7H264.01V358.95H272.38V367.32H280.63V375.57H288.85V375.66H288.94V383.92H297.19V384.01H297.28V392.27H305.54V392.35H305.63V400.57H322.23V400.66H322.32V408.73H388.99V400.66H389.08V400.57H405.68V392.31H405.77V392.23H414.03V383.97H414.11V383.88H422.37V375.62H422.46V375.57H430.94V367.15H439.19V358.77H447.57V350.47H455.94V342.1H464.19V333.72H472.57V325.46H480.94V308.62H489.3V275.36H497.64V267.17H505.82V242.08H505.94V242H514.2V225.39H514.29V225.3H522.58L522.54 208.65ZM272.39 191.31C272.39 191.51 272.33 191.7 272.31 191.9C272.33 191.7 272.36 191.51 272.39 191.31Z" fill="black"/>
<path d="M325.74 408.94L380.81 408.86C362.45 408.86 344.1 408.77 325.74 408.94Z" fill="black"/>
<path d="M322.27 0C322.27 2.79 322.27 5.59 322.27 8.38L322.36 8.3H288.85L288.94 8.38C288.94 5.59 288.94 2.79 288.94 0H322.27Z" fill="black"/>
<path d="M389.08 8.38C389.08 5.59 389.08 2.79 389.03 0H422.41C422.41 2.79 422.41 5.59 422.41 8.38L422.5 8.3H388.94L389.08 8.38Z" fill="black"/>
<path d="M514.16 208.69H522.54V225.38H514.16L514.25 225.47V208.57L514.16 208.69Z" fill="black"/>
<path d="M464.09 150.19V166.79H472.38V192H489.2L489.12 191.91V200.49H481.12V225.12H489.18V217.12H497.36V233.84H481.1V242.03H505.94L505.85 241.95V267.17H497.56V250.82H489.56V267.06H497.64V275.36H489.3V308.62H480.94V325.46H472.57V333.72H464.19V342.1H455.94V350.47H447.56V358.73H439.18V367.11H430.94V375.57H422.39L422.48 375.66V358.69H430.83V342.05H439.24V300.27H447.52V291.98H455.82V283.57H463.82V258.57H455.58V250.47H447.39C447.32 249.09 447.18 247.71 447.18 246.34C447.18 229.933 447.18 213.53 447.18 197.13C447.18 191.71 447.73 192.25 442.44 192.2C441.29 192.2 440.15 192.07 439 192C438.95 191.08 438.86 190.16 438.84 189.23C438.75 183.23 439.67 183.87 433.48 183.87H279.56C272.62 183.87 272.62 183.87 272.44 190.63C272.44 191.09 272.35 191.55 272.3 192.01C271.15 192.08 270 192.2 268.85 192.21C263.56 192.26 264.13 191.72 264.12 197.14C264.12 206.61 264.12 216.08 264.12 225.55C264.12 233.86 263.98 242.17 263.9 250.48H255.48V258.87H247.43V283.81H255.64V292.11H264.06V300.57H272.34V342.35H280.74V358.99H288.86V375.67L288.94 375.57H280.63V367.39H272.38V359.02H264.01V350.77H255.63V342.27H247.26V333.97H238.88V325.57H230.63V308.88H222.16V275.5H213.71V267.09L221.71 266.73V250.73H213.81V267.16H205.49V241.96L205.4 242.04H230.23V200.25H222.23V191.91L222.14 192H238.72V167H247.26V150.19L247.17 150.27H280.74V158.32H430.81V150.27H464.18L464.09 150.19Z" fill="black"/>
<path d="M447.4 66.8102H455.69V100.11H464.03V125.02H472.43V133.57L472.52 133.49C471.52 133.49 470.44 133.58 469.4 133.58H241.94C240.94 133.58 239.86 133.52 238.82 133.49L238.91 133.57V125.27H247.19V100.27H255.42V66.8102H263.94L263.86 66.7202V99.8902H447.49V66.7202L447.4 66.8102Z" fill="black"/>
<path d="M388.99 400.57V408.73H322.32V400.57L322.23 400.66H389.08L388.99 400.57Z" fill="black"/>
<path d="M230.45 133.57H238.87L238.78 133.49V141.99H247.13V150.27L247.22 150.19H205.5V141.84L205.4 141.93H230.53V133.49L230.45 133.57Z" fill="black"/>
<path d="M263.94 66.8101V33.4201H272.29L272.2 33.3301V66.7201H263.86L263.94 66.8101Z" fill="black"/>
<path d="M205.5 133.57V125.42H230.45V133.57L230.53 133.48H205.4L205.5 133.57Z" fill="black"/>
<path d="M514.16 225.3V242H505.81L505.9 242.08V225.39H514.25L514.16 225.3Z" fill="black"/>
<path d="M272.25 33.4201V16.7301H280.59L280.51 16.6401V33.3301H272.16L272.25 33.4201Z" fill="black"/>
<path d="M197.15 208.69V192H205.49L205.4 191.91V208.69L205.49 208.61H197.05L197.15 208.69Z" fill="black"/>
<path d="M205.49 242H197.15V225.3L197.06 225.39H205.4V242.08L205.49 242Z" fill="black"/>
<path d="M205.49 192V183.85H222.1V192L222.19 191.91H205.4L205.49 192Z" fill="black"/>
<path d="M197.15 225.3H189V208.69H197.15L197.06 208.6V225.39L197.15 225.3Z" fill="black"/>
<path d="M322.32 400.57H305.63V392.23L305.54 392.31H322.23V400.66L322.32 400.57Z" fill="black"/>
<path d="M405.68 392.23V400.57H388.99L389.08 400.66V392.31H405.77L405.68 392.23Z" fill="black"/>
<path d="M280.59 16.7298V8.3798H288.94L288.85 8.2998V16.6398H280.51L280.59 16.7298Z" fill="black"/>
<path d="M297.28 383.88H288.94V375.57L288.85 375.66H297.19V384.01L297.28 383.88Z" fill="black"/>
<path d="M422.37 375.57V383.92H414.03L414.11 384.01V375.66H422.46L422.37 375.57Z" fill="black"/>
<path d="M305.63 392.23H297.28V383.88L297.19 383.97H305.54V392.31L305.63 392.23Z" fill="black"/>
<path d="M414.03 383.88V392.23H405.68L405.77 392.31V383.97H414.11L414.03 383.88Z" fill="black"/>
<path d="M205.5 141.84H197.35V133.57H205.5L205.4 133.49V141.93L205.5 141.84Z" fill="black"/>
<path d="M505.81 141.84V150.19H464.09L464.18 150.27V141.75H472.52V133.49L472.43 133.57H480.86L480.77 133.48V141.92H505.94L505.81 141.84Z" fill="black"/>
<path d="M439.06 33.4201H447.4V66.8101L447.49 66.7201H439.15V33.3301L439.06 33.4201Z" fill="black"/>
<path d="M480.86 133.57V125.41H505.81V133.57L505.9 133.49H480.77L480.86 133.57Z" fill="black"/>
<path d="M489.2 192V183.85H505.81V192L505.9 191.91H489.12L489.2 192Z" fill="black"/>
<path d="M505.81 192H514.16V208.69L514.25 208.6H505.94V191.91L505.81 192Z" fill="black"/>
<path d="M430.72 16.7301H439.06V33.4201L439.15 33.3301H430.8V16.6401L430.72 16.7301Z" fill="black"/>
<path d="M422.37 8.3798H430.72V16.7298L430.8 16.6398H422.46V8.2998L422.37 8.3798Z" fill="black"/>
<path d="M505.81 133.57H513.94V141.84H505.79L505.88 141.93V133.49L505.81 133.57Z" fill="black"/>
<path d="M322.23 8.3798H347.23V16.7298L347.33 16.6398H322.33V8.2998L322.23 8.3798Z" fill="black"/>
<path d="M364.04 16.7298V8.3798H389.04L388.94 8.2998V16.6398H363.94L364.04 16.7298Z" fill="black"/>
<path d="M347.26 16.7301H364.04L363.94 16.6401V24.8101H347.36V16.6401L347.26 16.7301Z" fill="black"/>
<path d="M347.36 16.6398V24.8098H363.94V16.6398H388.94V8.2998H422.42V16.6398H430.76V33.3298H439.11V66.7198H447.45V99.8898H263.82V66.7198H272.16V33.3298H280.51V16.6398H288.85V8.2998H322.32V16.6398H347.36Z" fill="#FFE7B8"/>
<path d="M505.94 191.91V208.57H514.29V225.36H505.94V242.05H481.14V233.86H497.37V217.17H489.19V225.17H481.13V200.49H489.13V191.91H505.94Z" fill="#F7E2C1"/>
<path d="M414.11 383.97H405.77V392.31H389.08V400.66H322.23V392.31H305.54V383.97H297.19V375.62H288.85V358.94H280.73V342.3H272.33V300.57H264.05V292.15H255.63V283.85H247.42V258.86H255.47V250.47H263.94L263.86 250.34V258.7H272.29V267.28H305.73V283.57H314.16V267.34H322.42V283.57H330.87V275.41H339.06V291.95H372.35V275.38H380.78V283.62H389.23V267.32H397.48V283.57H405.92V267.04H439.12V258.7H447.55V250.34L447.46 250.47H455.65V258.57H463.89V283.57H455.89V291.99H447.59V300.28H439.31V342.06H430.9V358.7H422.55V375.63H414.2L414.11 383.97ZM288.94 333.91L288.83 333.8V342.39H297.31V350.31H414.25V342.14H422.48V333.8L422.37 333.91H430.57V283.96H422.27V292.12H413.85V300.57H405.55V308.57H305.55V300.33H297.25V292.03H288.94V283.98H280.74V333.98L288.94 333.91Z" fill="#F7E2C1"/>
<path d="M472.52 133.49V141.75H464.18V150.27H430.81V158.32H280.74V150.27H247.13V141.99H238.78V133.49C239.78 133.49 240.86 133.58 241.9 133.58H469.4C470.44 133.57 471.48 133.57 472.52 133.49Z" fill="#FFE7B8"/>
<path d="M272.3 192C272.35 191.54 272.43 191.08 272.44 190.62C272.62 183.86 272.62 183.86 279.56 183.86H433.49C439.68 183.86 438.76 183.22 438.85 189.22C438.85 190.15 438.96 191.07 439.01 191.99L439.14 191.9C437.99 191.83 436.84 191.71 435.69 191.71C382.357 191.71 329 191.71 275.62 191.71C274.46 191.71 273.31 191.83 272.16 191.9L272.3 192Z" fill="#929292"/>
<path d="M197.06 225.39V208.57H205.5V217.13H213.94V233.41H221.94V208.69H205.41V191.91H222.2V200.25H230.2V242.08H205.4V225.39H197.06Z" fill="#F7E2C1"/>
<path d="M439.01 192C440.16 192.07 441.3 192.19 442.45 192.2C447.74 192.25 447.18 191.71 447.19 197.13C447.19 213.53 447.19 229.933 447.19 246.34C447.19 247.71 447.33 249.09 447.4 250.47L447.49 250.34L439.2 250.28C439.25 241.13 439.34 231.98 439.33 222.83C439.33 212.53 439.2 202.22 439.13 191.91L439.01 192Z" fill="#929292"/>
<path d="M263.94 250.47C264.02 242.16 264.12 233.85 264.16 225.54C264.16 216.07 264.16 206.6 264.16 197.13C264.16 191.71 263.6 192.25 268.89 192.2C270.04 192.2 271.19 192.07 272.34 192L272.2 191.91L272.13 250.28L263.85 250.34L263.94 250.47Z" fill="#929292"/>
<path d="M497.63 267.06H489.55V250.82H497.55V267.17L497.63 267.06Z" fill="#FFDB0F"/>
<path d="M213.81 267.2V250.77H221.71V266.77L213.71 267.13L213.81 267.2Z" fill="#FFDB0F"/>
<path d="M205.4 141.93V133.49H230.53V141.93H205.4Z" fill="#FFE7B8"/>
<path d="M505.94 133.49V141.93H480.77V133.49H505.94Z" fill="#FFE7B8"/>
<path d="M422.48 333.8V342.14H414.25V350.31H297.31V342.39H288.83V333.8H297.01V309.07H288.94V333.91H280.74V283.91H288.94V291.96H297.24V300.26H305.54V308.57H405.54V300.57H413.84V292.14H422.26V283.98H430.56V333.93H422.36V309.04H414.3V333.8H422.48ZM388.78 342.04V317.43H364.18V342.04H388.78ZM355.51 317.41H330.78V341.99H355.51V317.41ZM305.85 317.29V342.01H322.07V317.29H305.85ZM405.57 317.29H397.57V341.89H405.57V317.29Z" fill="black"/>
<path d="M439.07 258.7V267.04H405.87V283.57H397.43V267.32H389.18V283.62H380.73V275.38H372.3L372.38 275.46V267.33H338.94V275.46L339.03 275.38H330.84V283.57H322.39V267.37H314.13V283.57H305.7V267.28H272.24V258.7L272.17 258.77C273.31 258.67 274.46 258.49 275.6 258.49C328.967 258.49 382.333 258.49 435.7 258.49C436.85 258.49 437.99 258.67 439.14 258.77L439.07 258.7Z" fill="black"/>
<path d="M372.3 275.38V291.92H339.01V275.38L338.92 275.46H347.49V283.46H364.06V275.46H372.38L372.3 275.38Z" fill="black"/>
<path d="M263.81 250.34L272.09 250.28L272.31 250.49C272.27 253.25 272.223 256.01 272.17 258.77L272.24 258.7H263.81V250.34Z" fill="black"/>
<path d="M439.21 250.28L447.5 250.34V258.7H439.07L439.14 258.77L438.99 250.49L439.21 250.28Z" fill="black"/>
<path d="M272.09 250.28L272.16 191.91C273.31 191.84 274.46 191.72 275.62 191.72C328.953 191.72 382.31 191.72 435.69 191.72C436.84 191.72 437.99 191.84 439.14 191.91C439.21 202.22 439.32 212.53 439.34 222.83C439.34 231.98 439.26 241.13 439.21 250.28L438.99 250.49C437.99 250.54 436.92 250.63 435.88 250.63H275.43C274.43 250.63 273.35 250.54 272.31 250.49L272.09 250.28Z" fill="black"/>
<path d="M205.41 208.69H221.94V233.45H213.94V217.17H205.51V208.57L205.41 208.69Z" fill="black"/>
<path d="M388.78 342.04H364.18V317.43H388.78V342.04Z" fill="white"/>
<path d="M355.51 317.41V341.99H330.78V317.41H355.51Z" fill="white"/>
<path d="M305.85 317.29H322.07V342.01H305.85V317.29Z" fill="white"/>
<path d="M405.57 317.34V341.94H397.57V317.34H405.57Z" fill="white"/>
<path d="M422.48 333.8H414.31V309.04H422.37V333.91L422.48 333.8Z" fill="white"/>
<path d="M288.94 333.91V309.07H297.01V333.8H288.83L288.94 333.91Z" fill="white"/>
<path d="M272.31 250.49C273.31 250.54 274.39 250.63 275.43 250.63H435.88C436.88 250.63 437.96 250.54 438.99 250.49L439.14 258.77C437.99 258.67 436.85 258.49 435.7 258.49C382.367 258.49 329 258.49 275.6 258.49C274.46 258.49 273.31 258.67 272.17 258.77C272.217 256.01 272.263 253.25 272.31 250.49Z" fill="#929292"/>
<path d="M372.38 275.46H364.06V283.46H347.49V275.46H338.94V267.33H372.4L372.38 275.46Z" fill="#F7E2C1"/>
<path d="M455.69 250.43C455.69 237.85 455.87 225.27 455.69 212.7C455.64 209.28 456.69 208.34 459.98 208.57C464.11 208.85 468.28 208.66 472.43 208.67C472.43 221.38 472.5 234.09 472.43 246.8C472.43 249.35 472.87 250.53 475.81 250.42C481.22 250.22 480.81 249.57 480.81 255.34C480.81 273.127 480.81 290.92 480.81 308.72C472.49 308.81 472.5 308.81 472.49 317.18C472.49 319.92 472.49 322.663 472.49 325.41C464.24 325.49 464.24 325.49 464.15 333.75C455.9 333.84 455.9 333.84 455.81 342.09H447.48L447.42 300.26L447.36 300.32C455.94 300.49 455.94 300.49 455.76 291.91L455.7 291.97C464.28 292.15 464.28 292.15 464.1 283.57L464.04 283.63C465.89 283.63 467.75 283.54 469.59 283.7C471.92 283.91 472.59 282.95 472.52 280.7C472.39 276.07 472.52 271.44 472.52 266.81C472.52 258.51 472.52 258.51 464.08 258.68L464.14 258.74C464.32 250.18 464.32 250.18 455.75 250.33L455.69 250.43Z" fill="#3A2322"/>
<path d="M263.94 342.1H255.61C255.53 333.85 255.53 333.85 247.27 333.76C247.19 325.5 247.19 325.5 238.94 325.42C238.94 320.84 238.83 316.27 238.94 311.7C239 309.53 238.39 308.52 236.07 308.7C234.25 308.86 232.41 308.7 230.59 308.7C230.59 290.44 230.59 272.19 230.5 253.93C230.5 251.04 231.3 250.15 234.19 250.26C239.4 250.45 238.89 250.89 238.9 245.39C238.9 233.144 238.9 220.897 238.9 208.65C243.05 208.65 247.21 208.83 251.35 208.55C254.62 208.32 255.68 209.26 255.63 212.68C255.45 225.25 255.63 237.83 255.63 250.41V250.36C247.07 250.21 247.07 250.21 247.25 258.77L247.31 258.71C245.45 258.71 243.59 258.8 241.75 258.64C239.43 258.43 238.75 259.4 238.82 261.64C238.96 266.27 238.82 270.9 238.82 275.53C238.82 283.83 238.82 283.83 247.27 283.66L247.21 283.6C247.03 292.18 247.03 292.18 255.6 292V291.94C255.42 300.52 255.42 300.52 263.99 300.35L263.93 300.29L263.94 342.13V342.1Z" fill="#3A2322"/>
<path d="M247.311 183.57C247.311 183.11 247.311 182.64 247.311 182.18C247.311 175.82 247.311 175.76 253.491 175.27C255.151 175.14 255.691 174.51 255.671 172.94C255.611 169.12 255.761 165.3 255.611 161.49C255.521 159.24 256.261 158.49 258.551 158.49C265.951 158.59 273.351 158.49 280.741 158.49C280.817 159.877 280.794 161.267 280.671 162.65C280.101 166.21 281.541 167.05 285.021 167.02C305.801 166.86 326.591 166.95 347.371 166.96C347.371 168.23 347.371 169.5 347.371 170.77C347.371 175.28 347.371 175.28 342.901 175.28H280.501C272.231 175.28 272.231 175.28 272.351 183.7H272.401L247.311 183.57Z" fill="#3A2322"/>
<path d="M430.67 158.5C438.07 158.5 445.47 158.63 452.86 158.5C455.16 158.5 455.86 159.24 455.81 161.5C455.66 165.31 455.81 169.13 455.75 172.95C455.75 174.52 456.26 175.15 457.93 175.28C464.13 175.77 464.12 175.83 464.1 182.19C464.1 182.65 464.1 183.12 464.1 183.58L439.03 183.64H439.08C439.08 182.37 439.08 181.1 439.08 179.83C439.08 175.22 439.08 175.22 434.36 175.22H372.32C363.93 175.22 363.93 175.22 364.07 166.9H422.61C430.87 166.9 430.87 166.9 430.71 158.45L430.67 158.5Z" fill="#3A2322"/>
<path d="M380.81 408.86C362.45 408.86 344.1 408.77 325.74 408.94L380.81 408.86Z" fill="black"/>
</svg>
