<svg id="Capa_1" data-name="Capa 1" xmlns="http://www.w3.org/2000/svg" viewBox="0 0 852.04 595.62"><defs><style>.cls-1,.cls-3{fill:#fbb03b;}.cls-1{opacity:0.2;}.cls-2{fill:none;}.cls-2,.cls-3{stroke:#606060;stroke-miterlimit:10;stroke-width:8px;}</style></defs><path class="cls-1" d="M773.74,276.26a30.3,30.3,0,0,0-43.87-26.93L628.39,300.15l-123,59.93a30.35,30.35,0,0,1-23.89,1.14L363.37,317a30.34,30.34,0,0,0-18.81-.79L222.18,350.63a29.9,29.9,0,0,0-7.58,3.3l-72.67,44.32a30.31,30.31,0,0,0-14.53,25.87v99.1a30.31,30.31,0,0,0,30.3,30.3H744.83a30.3,30.3,0,0,0,30.3-30.47Z"/><path class="cls-2" d="M745,553.52H107.05a30.31,30.31,0,0,1-30.31-30.3V70a30.31,30.31,0,0,1,30.31-30.3H745A30.31,30.31,0,0,1,775.3,70V523.22A30.31,30.31,0,0,1,745,553.52Z"/><path class="cls-2" d="M76.74,374.4l139.13-76.55a29.44,29.44,0,0,1,4.77-2.11l121.41-41.65a30.34,30.34,0,0,1,23.43,1.58l113,56.78a30.29,30.29,0,0,0,29.56-1.33l118.74-73.6a33.1,33.1,0,0,0,3-2.12L773.47,120.12"/><line class="cls-2" x1="218.16" y1="296.59" x2="218.16" y2="553.52"/><line class="cls-2" x1="354.09" y1="249.96" x2="354.09" y2="553.52"/><line class="cls-2" x1="493.68" y1="320.06" x2="493.68" y2="555.96"/><line class="cls-2" x1="628.39" y1="236.55" x2="628.39" y2="553.52"/><circle class="cls-3" cx="628.39" cy="236.55" r="22.55"/><circle class="cls-3" cx="493.68" cy="320.06" r="22.55"/><circle class="cls-3" cx="354.02" cy="250.05" r="22.55"/><circle class="cls-3" cx="218.28" cy="296.63" r="22.55"/><line class="cls-2" x1="775.3" y1="108.54" x2="76.74" y2="108.54"/></svg>