<svg id="Capa_1" enable-background="new 0 0 497 497" height="512" viewBox="0 0 497 497" width="512" xmlns="http://www.w3.org/2000/svg"><g><path d="m227 182.5h-30v30h30c8.284 0 15-6.716 15-15s-6.716-15-15-15z" fill="#FFC000"/><path d="m227 287.5h-30v30h30c8.284 0 15-6.716 15-15s-6.716-15-15-15z" fill="#FFC000"/><path d="m212 302.5c0-8.284-6.716-15-15-15h-8.5v-75h8.5c8.284 0 15-6.716 15-15s-6.716-15-15-15h-8.5v-38.5c0-8.284-6.716-15-15-15s-15 6.716-15 15v38.5h-75v-38.5c0-8.284-6.716-15-15-15s-15 6.716-15 15v38.5h-38.5c-8.284 0-15 6.716-15 15s6.716 15 15 15h38.5v75h-38.5c-8.284 0-15 6.716-15 15s6.716 15 15 15h38.5v38.5c0 8.284 6.716 15 15 15s15-6.716 15-15v-38.5h75v38.5c0 8.284 6.716 15 15 15s15-6.716 15-15v-38.5h8.5c8.284 0 15-6.716 15-15zm-53.5-15h-75v-75h75z" fill="#FFB300"/><path d="m452 407v-362c0-24.853-20.147-45-45-45h-135c-24.853 0-45 20.147-45 45s20.147 45 45 45v317c-24.853 0-45 20.147-45 45s20.147 45 45 45h180c24.853 0 45-20.147 45-45s-20.147-45-45-45z" fill="#FFC000"/><path d="m452 438.5h-30v-392c0-8.284-6.716-15-15-15h-30v407c0 16.569 28.432 30 45 30h30c8.284 0 15-6.716 15-15s-6.716-15-15-15z" fill="#FFB300"/><path d="m392 438.5v-392c0-8.284-6.716-15-15-15h-105c-8.284 0-15 6.716-15 15s6.716 15 15 15h30v377h-30c-8.284 0-15 6.716-15 15s6.716 15 15 15h150c-16.568 0-30-13.431-30-30z" fill="#FFB300"/></g></svg>