<svg width="701" height="720" viewBox="0 0 701 720" fill="none" xmlns="http://www.w3.org/2000/svg">
<g style="mix-blend-mode:multiply" opacity="0.5">
<path d="M662.184 253.338C662.949 260.527 665.804 266.9 666.212 274.242C666.518 279.34 666.212 285.866 666.212 291.117C666.212 293.667 666.518 297.337 666.212 300.6C666.518 292.035 657.035 277.709 653.313 270.01C648.214 259.15 642.453 248.597 636.284 238.247C619.033 209.615 599.001 182.752 576.48 158.05C541.127 117.63 494.332 88.8991 442.291 75.6597C391.07 63.8968 337.83 64.0713 286.688 76.1695C211.691 93.453 138.172 144.845 95.3968 209.033C81.4272 230.039 75.0032 255.378 66.336 278.881C45.0589 336.215 41.1575 398.55 55.1195 458.089C63.0462 489.16 75.3911 518.932 91.7769 546.495C72.505 533.291 61.1866 509.94 47.5739 491.688C45.1267 488.476 40.4362 480.012 35.2359 481.491C31.616 482.562 33.4004 490.566 33.8083 492.707C36.3077 502.695 39.9516 512.361 44.6679 521.513C50.5299 533.806 57.3487 545.62 65.0614 556.845C79.3865 579.138 95.1216 600.493 112.17 620.779C129.49 641.396 148.654 660.389 169.425 677.524C178.425 684.985 187.801 691.979 197.517 698.478C206.745 704.749 216.84 709.389 226.323 715.252C229.433 717.138 236.52 721.217 240.14 718.311C242.791 716.17 241.618 711.887 240.14 709.542C233.319 700.376 225.838 691.719 217.758 683.642C209.953 675.866 202.567 667.68 195.631 659.119C235.602 685.63 278.582 708.675 326.965 713.773C376.573 719.178 430.463 707.145 476.195 688.281C531.258 665.696 570.821 620.524 610.384 578.054C643.983 542.009 661.98 498.978 670.443 451.309C672.719 467.556 673.164 484.008 671.769 500.355C671.463 506.269 668.965 527.376 676.867 529.926C689.919 534.208 697.261 473.385 697.975 467.317C702.109 428.334 702.006 389.017 697.669 350.055C694.1 314.366 686.095 279.901 665.039 250.279C663.459 248.342 662.082 252.319 662.184 253.338ZM498.118 366.726C498.118 367.083 498.118 367.389 498.475 367.695C504.351 385.575 505.717 404.63 502.452 423.165C498.821 440.986 491.107 457.723 479.917 472.059C455.927 502.255 422.345 523.354 384.73 531.863C362.053 537.348 338.356 536.998 315.851 530.843C301.471 527.774 287.748 522.181 275.319 514.325C253.877 500.946 235.469 483.233 221.276 462.321C209.831 445.13 202.538 425.515 199.972 405.024C197.406 384.532 199.638 363.724 206.491 344.242C208.198 337.71 210.449 331.332 213.22 325.175C243.454 258.233 327.169 210.716 399.311 236.259C454.017 255.633 490.521 309.981 498.118 366.726Z" fill="#49B4E5"/>
</g>
<path d="M664.172 373.049V373.865C664.179 394.411 662.129 414.907 658.054 435.045C657.034 440.144 655.964 444.834 654.689 449.678C653.415 454.521 651.936 460.129 650.305 465.228C648.673 470.326 646.991 475.425 645.206 480.523C641.79 489.598 638.068 498.469 633.888 507.137C613.772 548.868 584.556 585.559 548.388 614.508C517.884 638.956 483.001 657.366 445.604 668.755C438.773 670.846 431.89 672.681 424.854 674.312C379.673 684.509 332.787 684.509 287.606 674.312C242.443 664.204 200.135 644.06 163.817 615.375C127.532 586.644 98.2039 550.089 78.0228 508.438C57.8418 466.787 47.3285 421.116 47.2678 374.833V373.865C47.1711 327.513 57.5428 281.739 77.6088 239.956C97.6748 198.173 126.917 161.461 163.154 132.558C175.024 123.157 187.565 114.637 200.678 107.066C227.496 91.4513 256.532 80.0022 286.79 73.1112C291.531 72.0405 296.375 71.0719 301.218 70.2051C341.923 62.9657 383.663 63.9364 423.987 73.0602C453.879 79.7941 482.583 91.0008 509.13 106.302C522.679 114.082 535.63 122.859 547.878 132.558C584.079 161.337 613.332 197.901 633.465 239.534C653.598 281.168 664.094 326.803 664.172 373.049V373.049Z" fill="white"/>
<path d="M287.555 674.771C332.736 684.968 379.622 684.968 424.804 674.771C454.974 667.857 483.922 656.409 510.66 640.816L418.889 483.327C408.035 489.629 396.297 494.269 384.067 497.093C365.452 501.274 346.141 501.274 327.526 497.093C315.389 494.384 303.733 489.845 292.959 483.633L202.157 641.683C228.806 656.926 257.593 668.08 287.555 674.771V674.771ZM229.433 374.834V373.865C229.36 354.964 233.579 336.294 241.772 319.261C252.841 296.4 270.488 277.368 292.449 264.607L200.832 107.067C147.408 138.068 104.516 184.387 77.7056 240.032C57.5413 281.764 47.0833 327.517 47.1153 373.865V374.834H229.433ZM434.185 275.007C449.079 286.9 461.132 301.967 469.465 319.108C477.673 336.067 481.927 354.667 481.905 373.508L664.173 373.049C664.094 326.803 653.599 281.168 633.466 239.535C613.333 197.901 584.08 161.337 547.878 132.558C535.68 122.865 522.779 114.089 509.284 106.302L418.431 264.352C423.936 267.513 429.201 271.074 434.185 275.007V275.007Z" fill="#FF2E35"/>
<path d="M506.479 373.864C506.479 413.853 490.597 452.204 462.325 480.485C434.054 508.766 395.708 524.661 355.72 524.674H351.386C312.24 523.427 275.115 507 247.865 478.868C220.615 450.736 205.378 413.107 205.378 373.941C205.378 334.775 220.615 297.145 247.865 269.013C275.115 240.882 312.24 224.454 351.386 223.207H355.72C395.686 223.207 434.016 239.077 462.286 267.327C490.556 295.578 506.452 333.898 506.479 373.864V373.864Z" fill="#49B4E5"/>
<g opacity="0.25">
<path d="M664.172 373.049V373.865C664.179 394.411 662.129 414.907 658.054 435.045C657.034 440.144 655.964 444.834 654.689 449.678C653.415 454.521 651.936 460.129 650.305 465.228C648.673 470.326 646.991 475.425 645.206 480.523C641.79 489.598 638.068 498.469 633.888 507.137C613.772 548.868 584.556 585.559 548.388 614.508C517.884 638.956 483.001 657.366 445.605 668.755C401.29 676.721 355.769 674.886 312.24 663.378C268.711 651.871 228.23 630.97 193.643 602.145C159.055 573.32 131.199 537.27 112.033 496.529C92.8664 455.788 82.8549 411.343 82.7017 366.319V365.351C82.6921 311.32 96.8773 258.236 123.837 211.412C150.796 164.589 189.584 125.67 236.316 98.5521C256.808 86.5724 278.645 77.0573 301.371 70.2051C342.076 62.9657 383.817 63.9364 424.14 73.0602C454.032 79.7941 482.736 91.0008 509.283 106.302C522.779 114.089 535.679 122.865 547.878 132.558C584.079 161.337 613.332 197.901 633.465 239.534C653.598 281.168 664.094 326.803 664.172 373.049V373.049Z" fill="white"/>
</g>
<g opacity="0.22">
<path opacity="0.22" d="M49.6132 335.372C48.0309 348.141 47.2476 360.997 47.2679 373.864V374.425L41.7107 376.108L39.8243 376.77L35.6436 378.351L34.0121 379.014C32.0747 379.88 30.0864 380.747 28.149 381.716C27.2313 382.175 26.3135 382.634 25.4468 383.143H24.6821H24.2232H23.1526C20.573 383.88 17.8274 383.791 15.301 382.889V382.889L7.90839 388.752C7.15498 389.336 6.20612 389.609 5.2575 389.514C4.30887 389.419 3.43282 388.964 2.81001 388.242L1.73935 387.477L0.872622 386.457C0.26124 385.694 -0.04733 384.732 0.0058966 383.755C0.00708212 383.199 0.131095 382.651 0.369066 382.148C0.607037 381.646 0.953085 381.202 1.38246 380.849L8.5202 374.986C7.91728 372.525 8.11371 369.935 9.08102 367.593C11.1932 363.035 14.1715 358.931 17.8502 355.51C25.1132 348.809 33.2826 343.162 42.1185 338.737C44.6337 337.513 47.1319 336.391 49.6132 335.372Z" fill="black"/>
</g>
<g opacity="0.5">
<path opacity="0.5" d="M59.5039 338.379H59.9118H62.2571H63.3277H65.1631C67.2535 338.379 69.3438 338.073 71.3832 338.073H71.6891C72.6068 338.073 73.4735 338.073 74.3912 338.073H78.6739H80.9681H82.0388H83.2624H85.8116H87.9529L91.5728 338.685H92.5924L95.1926 339.195L96.9261 339.603L100.24 340.418L101.413 340.724H101.719L103.707 341.285L105.797 341.948C107.378 342.458 108.958 343.018 110.488 343.63L111.762 344.089L116.402 346.027H116.861H117.218L118.594 346.689L120.786 347.76L121.5 348.117C123.234 349.035 125.018 350.003 126.599 351.074C128.179 352.145 130.218 353.266 131.952 354.439H132.258L135.776 356.988L136.948 357.906L138.07 358.772C139.294 359.741 140.466 360.761 141.639 361.781L142.913 362.953L145.106 364.992L146.176 366.063C146.473 366.309 146.746 366.582 146.992 366.879L147.808 367.695L148.675 368.612C149.694 369.683 150.663 370.754 151.632 371.875C152.498 372.895 153.314 373.915 154.13 374.985C159.567 382.34 165.567 389.26 172.076 395.685C174.029 397.496 176.39 398.807 178.959 399.509C179.65 399.635 180.358 399.635 181.049 399.509C181.385 399.453 181.711 399.35 182.018 399.203V399.203C182.343 399.091 182.652 398.937 182.936 398.744C183.587 398.323 184.186 397.827 184.72 397.265C185.748 396.148 186.592 394.875 187.218 393.492C187.551 392.797 187.84 392.082 188.085 391.351C189.339 387.069 189.754 382.586 189.309 378.146C186.502 363.826 180.7 350.261 172.283 338.341C163.867 326.42 153.026 316.413 140.471 308.975C127.916 301.538 113.931 296.838 99.4331 295.184C84.9347 293.529 70.2504 294.958 56.3429 299.376C53.0087 312.795 50.5731 326.421 49.0522 340.163C50.8367 339.705 52.6211 339.297 54.4565 338.94C56.292 338.583 57.8215 338.583 59.5039 338.379Z" fill="black"/>
</g>
<path d="M16.9836 326.296L23.5095 334.199L7.90845 347.098C7.15049 347.67 6.20453 347.936 5.25944 347.841C4.31435 347.747 3.43968 347.299 2.81007 346.588L1.12761 344.549C0.566547 343.786 0.30811 342.843 0.402286 341.901C0.496462 340.96 0.936558 340.086 1.63744 339.45L16.9836 326.296Z" fill="#AC752C"/>
<path d="M16.9836 326.296L20.2466 330.273L1.73945 345.568L0.872723 344.549C0.311664 343.786 0.0532271 342.843 0.147403 341.901C0.241579 340.96 0.681676 340.086 1.38256 339.45L16.9836 326.296Z" fill="#7D551F"/>
<path d="M17.8504 313.907C25.0871 307.173 33.2615 301.523 42.1187 297.134C56.5174 290.009 72.3763 286.333 88.441 286.395C104.506 286.458 120.336 290.257 134.679 297.493C149.022 304.729 161.484 315.202 171.081 328.086C180.678 340.969 187.145 355.909 189.972 371.723C190.417 376.162 190.002 380.646 188.748 384.928C187.916 387.889 186.122 390.49 183.65 392.32C183.354 392.494 183.048 392.647 182.732 392.779V392.779C182.425 392.927 182.099 393.03 181.763 393.085C180.082 393.088 178.418 392.745 176.875 392.078C175.332 391.412 173.941 390.436 172.79 389.21C166.266 382.781 160.265 375.843 154.844 368.46V368.46C154.028 367.389 153.212 366.37 152.346 365.35C151.377 364.228 150.408 363.158 149.389 362.087L148.522 361.169L147.859 360.252C147.613 359.955 147.34 359.682 147.043 359.436L145.973 358.365L143.78 356.326L142.506 355.153C141.333 354.134 140.161 353.114 138.937 352.145L137.662 351.278L136.49 350.361L132.972 347.812H132.666C130.933 346.622 129.148 345.5 127.313 344.447C125.63 343.376 123.846 342.407 122.214 341.49L121.501 341.133C120.328 340.521 119.104 339.909 117.932 339.399H117.575H117.116C113.653 337.859 110.113 336.498 106.511 335.32L104.421 334.658L101.974 333.179H101.668L100.495 332.873L96.8753 331.956L95.1929 331.395L92.5927 330.885H91.573L87.9532 330.273C82.565 329.534 77.1264 329.227 71.6893 329.355H71.3834C69.3441 329.355 67.2537 329.355 65.1634 329.661C64.1947 329.661 63.226 329.661 62.2573 329.967H59.912H59.5042L54.4058 330.834C45.1115 332.598 36.1046 335.635 27.6393 339.858L24.9881 341.591H24.1724H23.7135H23.4076C20.7399 342.339 17.905 342.232 15.3012 341.286C12.7283 339.99 10.6249 337.922 9.28511 335.371V335.371C8.56865 333.903 8.19629 332.29 8.19629 330.655C8.19629 329.021 8.56865 327.408 9.28511 325.939C11.2868 321.385 14.202 317.29 17.8504 313.907V313.907Z" fill="#FFD54F"/>
<path d="M9.33545 335.371C16.1271 328.748 23.7952 323.087 32.1252 318.547L35.6941 316.762C49.7351 309.781 65.1782 306.081 80.8582 305.939C96.5382 305.798 112.046 309.219 126.21 315.946C140.375 322.672 152.827 332.528 162.627 344.769C172.427 357.01 179.319 371.317 182.782 386.61C182.782 387.783 183.292 388.955 183.496 390.128C183.7 391.301 183.802 391.606 183.904 392.371C183.609 392.544 183.302 392.698 182.986 392.83V392.83C182.68 392.978 182.354 393.081 182.018 393.136C180.336 393.138 178.673 392.796 177.129 392.129C175.586 391.463 174.196 390.487 173.045 389.261C166.521 382.832 160.52 375.893 155.098 368.511V368.511C154.282 367.44 153.467 366.42 152.6 365.401C151.631 364.279 150.663 363.208 149.643 362.138C149.559 362.12 149.472 362.12 149.388 362.138L148.776 361.475L147.859 360.251C147.604 359.946 147.298 359.691 147.043 359.436L145.972 358.365L143.78 356.326L142.505 355.153L140.262 353.267L138.936 352.145L137.662 351.278L136.489 350.361L132.971 347.811H132.665L131.34 346.69C129.912 345.721 128.434 344.803 126.955 343.937C125.477 343.07 123.947 342.203 122.418 341.387L121.755 340.979L121.041 340.623L118.849 339.552L117.268 338.889H116.911H116.452L114.464 338.022L112.986 337.411H112.323L110.232 336.595L108.244 335.881L105.848 335.065L103.758 334.403L101.973 333.179H101.667L100.495 332.873L96.8747 331.955L95.1922 331.395L92.592 330.885H91.5724H90.5017L87.9525 330.477H85.8112H83.262H81.9874H80.9677H78.6735H76.2772H71.3828H68.8336H67.2531H65.1627H63.3273H62.2567H59.9114H59.5035L57.5662 330.783L56.0366 331.089H54.4561L52.2128 331.547H51.0402L48.1341 332.261L46.1968 332.771L43.3926 333.587L41.5062 334.199L38.6512 335.218L36.8667 335.881C35.7961 336.238 34.7764 336.697 33.7567 337.105L32.5841 337.615H32.0742L27.6896 339.654L24.9875 341.591H24.1717H23.7129H23.407C20.7393 342.339 17.9043 342.232 15.3006 341.285C12.7466 339.981 10.6618 337.914 9.33545 335.371V335.371Z" fill="#FFB300"/>
<path d="M172.892 389.261C175.715 389.998 178.681 389.986 181.497 389.226C184.314 388.466 186.883 386.984 188.952 384.928C188.12 387.889 186.326 390.49 183.854 392.32C183.558 392.494 183.252 392.647 182.936 392.779V392.779C182.629 392.927 182.303 393.03 181.967 393.085C180.273 393.108 178.592 392.78 177.03 392.122C175.468 391.464 174.059 390.49 172.892 389.261V389.261Z" fill="#7D551F"/>
<g opacity="0.5">
<path opacity="0.5" d="M658.054 435.249C657.238 434.688 655.913 434.943 653.975 436.472C648.214 440.908 626.852 452.583 612.882 450.697C609.007 450.192 605.415 448.396 602.686 445.598C601.587 440.209 601.466 434.665 602.329 429.233C606.382 422.021 609.565 414.354 611.812 406.392C613.031 402.738 613.19 398.814 612.271 395.073C612.984 393.187 613.698 391.097 614.412 389.159C615.21 387.419 615.536 385.499 615.357 383.593C615.178 381.687 614.5 379.861 613.392 378.3C613.216 378.028 612.984 377.796 612.711 377.62C612.439 377.445 612.132 377.329 611.812 377.28C611.319 377.252 610.826 377.252 610.333 377.28C609.262 377.244 608.209 377.572 607.348 378.211C606.487 378.85 605.868 379.762 605.592 380.798L602.992 390.383C599.316 390.846 595.813 392.213 592.795 394.36C581.11 402.194 571.251 412.454 563.887 424.44C561.671 427.739 559.199 430.858 556.494 433.77C550.088 437.409 543.013 439.716 535.693 440.551C525.496 441.367 499.087 441.418 501.789 415.365C501.823 414.982 501.757 414.597 501.596 414.248C501.435 413.899 501.185 413.599 500.871 413.377C498.655 421.982 495.687 430.376 492 438.461C494.09 446.618 500.667 455.438 520.449 458.854H521.01C510.401 461.246 499.41 461.403 488.737 459.313C485.916 458.803 483.367 458.242 481.089 457.631C478.795 461.047 476.399 464.36 473.85 467.572C487.215 476.32 503.018 480.588 518.97 479.758C536.887 479.942 554.479 474.969 569.648 465.431C571.942 463.953 574.084 462.321 576.225 460.639C590.552 474.71 600.544 479.809 619.357 481.593C627.957 482.415 636.625 482.141 645.155 480.777C646.991 475.679 648.724 470.58 650.254 465.482C642.442 466.322 634.562 466.322 626.75 465.482C637.491 463.377 647.269 457.871 654.638 449.779L658.054 435.249Z" fill="black"/>
</g>
<path d="M506.48 373.864C506.48 413.853 490.598 452.204 462.326 480.485C434.055 508.766 395.709 524.661 355.72 524.674H351.387C390.533 523.427 427.658 507 454.908 478.868C482.158 450.736 497.395 413.107 497.395 373.941C497.395 334.775 482.158 297.145 454.908 269.013C427.658 240.882 390.533 224.454 351.387 223.207H355.72C395.686 223.207 434.017 239.077 462.287 267.327C490.557 295.578 506.452 333.898 506.48 373.864V373.864Z" fill="#5BAFC7"/>
<path d="M616.911 385.386L614.107 392.575C613.66 393.753 612.768 394.707 611.623 395.232C610.478 395.757 609.172 395.81 607.989 395.379C607.541 395.241 607.125 395.016 606.765 394.717C606.171 394.274 605.69 393.696 605.362 393.031C605.034 392.367 604.869 391.634 604.879 390.893V389.159C604.83 388.753 604.83 388.342 604.879 387.936L607.836 376.923C608.102 375.878 608.717 374.954 609.579 374.305C610.441 373.656 611.499 373.321 612.577 373.354H614.005C614.617 373.45 615.176 373.756 615.585 374.221C616.794 375.789 617.555 377.655 617.789 379.621C618.022 381.587 617.719 383.579 616.911 385.386V385.386Z" fill="#AC752C"/>
<path d="M616.91 385.387L614.106 392.575C613.66 393.753 612.767 394.707 611.622 395.232C610.477 395.757 609.172 395.81 607.988 395.379C608.008 394.266 608.269 393.17 608.753 392.167C611.435 386.237 613.255 379.953 614.157 373.507C614.769 373.603 615.328 373.909 615.738 374.374C616.893 375.94 617.611 377.786 617.817 379.721C618.023 381.657 617.71 383.612 616.91 385.387V385.387Z" fill="#7D551F"/>
<path d="M657.697 445.395C649.48 454.849 638.022 460.887 625.578 462.321C621.092 462.827 616.567 461.803 612.736 459.416C608.905 457.028 605.993 453.417 604.47 449.168C602.789 445.473 601.82 441.495 601.615 437.441C602.944 439.967 604.852 442.143 607.182 443.791C609.512 445.439 612.2 446.513 615.024 446.924C628.943 448.862 650.356 437.135 656.117 432.7C658.054 431.17 659.38 430.915 660.196 431.527C662.796 433.363 660.756 441.571 657.697 445.395Z" fill="#FFD54F"/>
<path d="M657.697 445.395C649.479 454.849 638.021 460.887 625.577 462.322C621.091 462.827 616.567 461.803 612.736 459.416C608.905 457.029 605.992 453.417 604.47 449.168C611.149 453.45 625.373 458.6 647.806 446.568C650.829 444.993 653.506 442.828 655.677 440.201C657.849 437.574 659.472 434.538 660.45 431.272C662.795 433.363 660.756 441.571 657.697 445.395Z" fill="#FFB300"/>
<path d="M686.86 459.771C686.86 461.607 683.648 464.309 681.761 465.482C663.324 475.331 642.43 479.634 621.6 477.871C602.787 476.035 592.744 470.937 578.468 456.916C572.605 451.104 576.378 442.998 582.853 435.452C590.122 427.734 598.266 420.89 607.121 415.059C607.121 415.059 596.924 442.233 612.984 455.846C629.044 469.458 674.726 457.681 682.883 457.885C685.84 457.885 686.911 458.854 686.86 459.771Z" fill="#FFD54F"/>
<path d="M686.86 459.773C686.86 461.608 683.648 464.31 681.761 465.483C663.324 475.333 642.43 479.635 621.6 477.872C602.787 476.037 592.744 470.938 578.468 456.918C572.605 451.105 576.378 442.999 582.853 435.453L590.194 432.445C590.194 432.445 589.838 460.537 615.177 468.134C626.639 471.769 638.722 473.029 650.687 471.837C662.653 470.645 674.25 467.025 684.769 461.2L686.86 459.773Z" fill="#FFB300"/>
<path d="M565.263 426.377C562.626 432.326 559.083 437.829 554.76 442.692C550.971 447.386 546.012 450.998 540.382 453.165C534.751 455.331 528.65 455.974 522.692 455.03C493.682 449.932 493.07 433.413 493.274 424.44C493.4 421.548 494.176 418.722 495.544 416.171C496.912 413.62 498.837 411.41 501.176 409.706C501.518 409.518 501.905 409.427 502.295 409.443C502.685 409.459 503.062 409.581 503.388 409.797C503.713 410.012 503.974 410.312 504.141 410.664C504.308 411.016 504.376 411.408 504.337 411.796C501.686 437.849 528.147 437.798 538.293 437.288C547.991 435.734 557.212 432.004 565.263 426.377V426.377Z" fill="#FFD54F"/>
<path d="M554.76 442.692C550.971 447.386 546.012 450.999 540.382 453.165C534.751 455.331 528.65 455.974 522.692 455.03C493.682 449.932 493.07 433.413 493.274 424.44C493.345 422.702 493.672 420.985 494.243 419.342C497.71 430.099 501.89 443.406 526.209 445.751C535.816 445.9 545.404 444.872 554.76 442.692V442.692Z" fill="#FFB300"/>
<path d="M614.157 402.773C607.264 426.721 592.34 447.568 571.892 461.812C556.632 471.398 538.928 476.373 520.908 476.138C511.546 476.795 502.147 475.578 493.261 472.558C484.376 469.537 476.182 464.775 469.159 458.549C468.128 457.528 467.309 456.313 466.749 454.974C466.189 453.636 465.9 452.2 465.896 450.749C465.813 450.349 465.852 449.934 466.007 449.556C466.162 449.179 466.427 448.856 466.768 448.631C467.108 448.406 467.509 448.288 467.917 448.293C468.325 448.298 468.722 448.425 469.057 448.658C475.988 451.948 483.353 454.232 490.93 455.439C507.448 458.396 523.406 456.918 533.705 450.799C546.615 443.129 557.767 432.828 566.437 420.566C573.798 408.608 583.638 398.368 595.293 390.537C597.48 388.74 600.065 387.492 602.832 386.898C605.599 386.304 608.469 386.38 611.2 387.121V387.121C613.036 387.987 616.911 391.352 614.157 402.773Z" fill="#FFD54F"/>
<path d="M614.156 402.772C607.263 426.72 592.339 447.567 571.891 461.811C556.631 471.398 538.927 476.373 520.907 476.138C511.545 476.795 502.146 475.577 493.261 472.557C484.375 469.537 476.181 464.774 469.158 458.549C468.127 457.527 467.309 456.313 466.749 454.974C466.189 453.635 465.899 452.199 465.896 450.748C465.896 450.748 501.176 480.574 543.595 462.627C577.04 448.505 602.073 405.219 611.199 387.477C613.035 387.987 616.91 391.352 614.156 402.772Z" fill="#FFB300"/>
<g opacity="0.5">
<path opacity="0.5" d="M505.409 119.506C500.932 117.571 496.064 116.711 491.195 116.994C486.326 117.277 481.59 118.696 477.368 121.138C475.777 116.341 473.904 111.642 471.76 107.066C470.23 103.701 468.599 100.387 466.661 97.1242C448.628 63.3449 418.737 37.4305 382.742 24.3703L382.028 5.45527L359.238 19.1189H356.536C354.803 19.1189 353.171 18.813 351.438 18.762L348.124 4.18067L347.155 0C346.033 0 344.912 0 343.841 0C322.632 1.68247 312.078 20.9544 310.447 24.2683C274.384 37.3108 244.444 63.272 226.425 97.1242C224.59 100.387 222.958 103.701 221.327 107.066C219.191 111.646 217.318 116.344 215.719 121.138L214.852 120.628C210.697 118.412 206.097 117.161 201.393 116.967C196.688 116.773 192.001 117.641 187.678 119.506C162.645 129.193 155.915 170.49 176.206 195.982C182.563 204.707 191.469 211.244 201.698 214.693L201.392 216.12C199.897 223.039 199.145 230.098 199.149 237.177C199.235 256.616 204.859 275.627 215.362 291.984L206.695 309.319C203.599 315.434 202.802 322.457 204.449 329.11C206.096 335.763 210.077 341.604 215.668 345.568L268.385 383.296V520.035C268.385 527.849 270.017 535.577 273.178 542.723C262.981 545.476 246.921 551.9 240.446 565.819C238.498 570.097 236.32 574.267 233.92 578.31H233.512C232.492 577.443 231.422 576.525 230.504 575.658C229.454 574.425 228.154 573.428 226.69 572.735C225.225 572.043 223.63 571.669 222.011 571.64C220.391 571.611 218.784 571.927 217.295 572.567C215.807 573.207 214.472 574.156 213.379 575.351C212.285 576.546 211.459 577.961 210.954 579.5C210.449 581.039 210.278 582.668 210.451 584.279C210.624 585.89 211.138 587.445 211.958 588.842C212.778 590.239 213.887 591.445 215.209 592.381C228.108 604.26 232.951 604.26 235.602 604.26C242.995 604.26 250.184 599.162 261.349 575.2C264.204 569.031 277.256 564.442 285.159 563.32C286.219 563.171 287.25 562.861 288.218 562.403C298.3 571.183 311.2 576.05 324.569 576.117H368.619C382.076 576.125 395.086 571.293 405.277 562.505C405.671 562.705 406.08 562.875 406.5 563.014C416.697 566.175 432.808 574.027 435.969 580.91C442.546 595.032 446.828 604.362 457.892 604.362C460.492 604.362 465.336 604.362 478.285 592.483C479.528 591.521 480.557 590.312 481.309 588.932C482.061 587.552 482.518 586.031 482.652 584.465C482.786 582.899 482.595 581.323 482.089 579.835C481.583 578.347 480.774 576.98 479.714 575.821C478.653 574.661 477.364 573.734 475.927 573.098C474.49 572.462 472.937 572.13 471.365 572.125C469.794 572.119 468.238 572.439 466.797 573.065C465.355 573.691 464.059 574.608 462.99 575.76C462.124 576.576 461.155 577.443 460.186 578.208C459.319 576.474 458.249 574.282 456.923 571.325C450.193 556.794 430.667 547.617 419.909 543.488C423.295 536.098 425.035 528.061 425.007 519.933V348.373L431.839 359.742C443.463 351.483 482.007 357.499 479.713 339.348L478.081 292.239C488.591 275.904 494.216 256.907 494.294 237.483C494.299 230.404 493.547 223.345 492.051 216.426L491.745 215.05C501.98 211.559 510.884 204.987 517.237 196.237C537.172 170.439 530.238 129.193 505.409 119.506Z" fill="black"/>
</g>
<path d="M486.646 345.823L433.929 383.5L412.975 398.336L406.347 389.108L399.719 379.829L433.776 355.459L473.288 327.265C474.445 326.433 475.265 325.215 475.602 323.831C475.939 322.447 475.769 320.989 475.124 319.719L471.249 311.918L462.888 295.298L453.915 277.3L444.584 258.385L442.494 254.205L440.863 250.84L434.949 239.114L442.596 235.341L445.145 234.066L450.244 231.517L455.342 228.968L456.668 231.568L457.228 232.741L460.746 239.623L464.366 246.863L465.437 249.004L473.645 265.421L486.952 292.086L495.619 309.369C498.761 315.508 499.583 322.574 497.934 329.27C496.286 335.966 492.278 341.843 486.646 345.823V345.823Z" fill="#A16552"/>
<path d="M298.312 398.387L224.742 345.772C219.143 341.814 215.155 335.974 213.507 329.318C211.86 322.662 212.663 315.635 215.769 309.522L256.046 228.917L276.44 239.114L236.112 319.668C235.471 320.944 235.31 322.406 235.656 323.791C236.002 325.175 236.833 326.39 237.998 327.214L311.517 379.829L298.312 398.387Z" fill="#A16552"/>
<path d="M433.929 222.544V520.035C433.951 532.117 430.071 543.883 422.866 553.582C420.377 556.902 417.521 559.929 414.352 562.606C404.176 571.374 391.177 576.172 377.745 576.117H333.695C320.234 576.152 307.214 571.317 297.038 562.504C293.724 559.693 290.763 556.492 288.218 552.97C281.245 543.402 277.48 531.873 277.46 520.035V222.544H433.929Z" fill="#A16552"/>
<path d="M396.456 398.999C369.969 407.876 341.29 407.751 314.882 398.642C312.354 397.803 309.663 397.575 307.03 397.979C304.398 398.382 301.898 399.405 299.738 400.963C297.578 402.521 295.818 404.57 294.604 406.941C293.39 409.311 292.756 411.936 292.755 414.6V513.407C292.755 524.832 297.294 535.79 305.373 543.87C313.452 551.949 324.41 556.488 335.836 556.488H375.145C386.571 556.488 397.529 551.949 405.608 543.87C413.687 535.79 418.226 524.832 418.226 513.407V415.008C418.226 412.378 417.607 409.784 416.419 407.438C415.231 405.091 413.509 403.056 411.39 401.498C409.271 399.94 406.815 398.902 404.221 398.467C401.627 398.033 398.967 398.215 396.456 398.999V398.999Z" fill="#F5DCB4"/>
<path d="M467.019 604.414C455.955 604.414 451.723 595.084 445.096 580.961C441.884 574.078 425.62 566.176 415.627 563.066C412.901 562.038 410.67 560.008 409.392 557.39C408.114 554.772 407.885 551.765 408.751 548.983C409.617 546.202 411.514 543.856 414.053 542.427C416.591 540.998 419.58 540.594 422.408 541.296C428.169 543.08 457.23 552.971 465.795 571.427C467.121 574.282 468.191 576.526 469.058 578.259C470.027 577.494 470.995 576.628 471.862 575.812C472.931 574.66 474.227 573.742 475.669 573.116C477.11 572.49 478.666 572.17 480.237 572.176C481.808 572.182 483.362 572.513 484.799 573.149C486.236 573.785 487.525 574.712 488.586 575.872C489.646 577.032 490.455 578.398 490.961 579.886C491.466 581.374 491.658 582.951 491.524 584.516C491.39 586.082 490.932 587.603 490.181 588.983C489.429 590.363 488.4 591.572 487.157 592.535C474.462 604.414 469.619 604.414 467.019 604.414Z" fill="#A16552"/>
<path d="M244.371 604.413C241.771 604.413 236.978 604.413 223.977 592.534C222.036 590.442 220.952 587.696 220.942 584.841C220.932 581.987 221.995 579.233 223.922 577.127C225.848 575.021 228.496 573.716 231.34 573.473C234.184 573.229 237.016 574.064 239.272 575.811L242.535 578.615C245.1 574.518 247.432 570.279 249.52 565.92C258.697 546.088 287.554 541.499 290.817 541.04C293.727 540.796 296.619 541.675 298.901 543.497C301.182 545.319 302.679 547.946 303.084 550.837C303.488 553.729 302.77 556.666 301.077 559.044C299.383 561.423 296.843 563.062 293.978 563.626C286.076 564.748 273.024 569.336 270.169 575.505C259.003 599.468 251.763 604.413 244.371 604.413Z" fill="#A16552"/>
<path d="M222.244 129.855C219.318 140.556 217.81 151.595 217.757 162.689V164.983C217.873 178.388 216.367 191.758 213.271 204.802C205.831 201.895 199.375 196.925 194.662 190.475C178.704 170.235 184.006 137.656 203.941 130.11C209.843 127.575 216.503 127.447 222.499 129.753L222.244 129.855Z" fill="#A16552"/>
<path d="M222.244 129.855C219.318 140.556 217.81 151.595 217.757 162.689V164.983C217.873 178.388 216.367 191.758 213.271 204.802C205.831 201.895 199.375 196.925 194.662 190.475C178.704 170.235 184.006 137.656 203.941 130.11C209.843 127.575 216.503 127.447 222.499 129.753L222.244 129.855Z" fill="#F5DCB4"/>
<path d="M516.727 190.475C512.014 196.925 505.558 201.895 498.118 204.802C495.047 191.754 493.541 178.387 493.631 164.983V162.689C493.58 151.562 492.071 140.489 489.145 129.754C495.139 127.442 501.801 127.57 507.703 130.11C527.382 137.656 532.736 170.235 516.727 190.475Z" fill="#A16552"/>
<path d="M516.727 190.475C512.014 196.925 505.558 201.895 498.118 204.802C495.047 191.754 493.541 178.387 493.631 164.983V162.689C493.58 151.562 492.071 140.489 489.145 129.754C495.139 127.442 501.801 127.57 507.703 130.11C527.382 137.656 532.736 170.235 516.727 190.475Z" fill="#F5DCB4"/>
<path d="M455.342 205.21C452.442 209.691 450.584 214.765 449.904 220.059C449.225 225.353 449.742 230.732 451.417 235.8C454.229 243.157 455.946 250.887 456.515 258.743C456.515 306.311 411.445 344.906 355.873 344.906C300.301 344.906 254.925 306.362 254.925 258.794C255.472 250.935 257.191 243.202 260.023 235.851C261.698 230.783 262.215 225.404 261.535 220.11C260.856 214.816 258.998 209.742 256.098 205.261C254.678 203.086 253.434 200.801 252.376 198.429C249.039 191.276 247.3 183.482 247.277 175.588C247.462 167.877 249.166 160.278 252.291 153.225C255.415 146.173 259.9 139.806 265.488 134.488C271.075 129.17 277.656 125.006 284.855 122.235C292.053 119.463 299.727 118.137 307.438 118.334C318.157 118.301 328.699 121.06 338.029 126.338C343.411 129.404 349.5 131.017 355.694 131.017C361.889 131.017 367.978 129.404 373.36 126.338C382.703 121.099 393.239 118.36 403.951 118.384C437.141 118.384 464.061 143.876 464.061 175.588C464.038 183.482 462.299 191.276 458.962 198.429C457.915 200.771 456.705 203.037 455.342 205.21V205.21Z" fill="#A16552"/>
<path d="M455.342 205.21C452.442 209.691 450.584 214.765 449.904 220.059C449.225 225.353 449.742 230.732 451.417 235.8C454.229 243.157 455.946 250.887 456.515 258.743C456.515 306.311 411.445 344.906 355.873 344.906C300.301 344.906 254.925 306.362 254.925 258.794C255.472 250.935 257.191 243.202 260.023 235.851C261.698 230.783 262.215 225.404 261.535 220.11C260.856 214.816 258.998 209.742 256.098 205.261C254.678 203.086 253.434 200.801 252.376 198.429C249.039 191.276 247.3 183.482 247.277 175.588C247.462 167.877 249.166 160.278 252.291 153.225C255.415 146.173 259.9 139.806 265.488 134.488C271.075 129.17 277.656 125.006 284.855 122.235C292.053 119.463 299.727 118.137 307.438 118.334C318.157 118.301 328.699 121.06 338.029 126.338C343.411 129.404 349.5 131.017 355.694 131.017C361.889 131.017 367.978 129.404 373.36 126.338C382.703 121.099 393.239 118.36 403.951 118.384C437.141 118.384 464.061 143.876 464.061 175.588C464.038 183.482 462.299 191.276 458.962 198.429C457.915 200.771 456.705 203.037 455.342 205.21V205.21Z" fill="#F5DCB4"/>
<path d="M304.43 269.45C303.607 269.451 302.794 269.627 302.044 269.966C301.294 270.305 300.625 270.799 300.08 271.416C299.535 272.033 299.128 272.758 298.885 273.544C298.641 274.331 298.568 275.159 298.669 275.976C302.238 301.468 326.404 321.199 355.72 321.199C385.036 321.199 409.151 301.468 412.975 275.976C413.084 275.162 413.017 274.334 412.78 273.548C412.543 272.762 412.141 272.036 411.6 271.418C411.06 270.8 410.393 270.304 409.645 269.965C408.897 269.626 408.086 269.45 407.265 269.45H304.43Z" fill="#4E3F3F"/>
<path d="M322.581 311.715C332.52 317.922 344.002 321.214 355.721 321.214C367.439 321.214 378.921 317.922 388.86 311.715C384.679 297.286 371.373 300.804 355.721 300.804C340.068 300.804 326.762 297.286 322.581 311.715Z" fill="#E6646E"/>
<path d="M514.484 119.455C510.012 117.524 505.15 116.671 500.288 116.963C495.427 117.255 490.702 118.685 486.494 121.138C484.863 116.355 482.991 111.659 480.885 107.066C479.356 103.701 477.673 100.387 475.787 97.1242C457.734 63.3415 427.826 37.4282 391.817 24.3703V24.0644L391.154 5.45527L368.364 19.1189H365.611C363.929 19.1189 362.246 18.813 360.513 18.762L357.25 4.18067L356.281 0C355.108 0 354.038 0 352.967 0C331.758 1.83542 321.204 21.1073 319.522 24.4213C283.499 37.4517 253.571 63.3481 235.5 97.1242C233.716 100.387 232.033 103.701 230.402 107.066C228.274 111.65 226.402 116.347 224.794 121.138L223.927 120.628C219.771 118.418 215.174 117.167 210.473 116.964C205.771 116.761 201.083 117.612 196.753 119.455C171.719 129.193 164.99 170.439 185.23 195.931C191.601 204.641 200.503 211.175 210.722 214.642L210.416 216.069C208.901 222.985 208.149 230.046 208.173 237.126C208.173 280.054 235.806 317.731 277.409 339.093C283.516 342.213 289.817 344.937 296.273 347.251C307.934 351.442 320.023 354.331 332.319 355.867H333.95C340.634 356.672 347.357 357.115 354.089 357.193H355.669C382.818 357.347 409.618 351.075 433.878 338.889C447.781 331.914 460.441 322.699 471.351 311.613C477.203 305.597 482.43 299.004 486.953 291.933V291.933C488.227 289.894 489.502 287.804 490.623 285.662C491.745 283.521 492.867 281.38 493.835 279.187C494.804 276.995 495.773 274.803 496.639 272.56L497.863 269.195L498.934 265.779L499.851 262.516C499.845 262.397 499.845 262.278 499.851 262.159C500.463 259.916 500.973 257.672 501.381 255.429C501.381 254.256 501.84 253.084 501.993 251.86L502.452 248.342C502.452 247.272 502.452 246.201 502.757 245.13C502.757 245.13 502.757 244.824 502.757 244.62C502.757 243.601 502.757 242.53 502.757 241.459C502.782 241.307 502.782 241.152 502.757 241.001C502.757 239.828 502.757 238.655 502.757 237.432C502.765 230.35 501.995 223.289 500.463 216.375C500.386 215.911 500.284 215.452 500.157 214.999C510.382 211.515 519.284 204.964 525.649 196.237C546.298 170.439 539.517 129.193 514.484 119.455ZM222.244 129.652C219.318 140.353 217.81 151.392 217.758 162.485V164.78C217.874 178.185 216.367 191.555 213.271 204.598C205.831 201.691 199.375 196.721 194.662 190.272C178.704 170.235 184.058 137.656 203.941 130.111C209.843 127.586 216.492 127.44 222.499 129.703L222.244 129.652ZM433.929 313.041C423.719 323.36 411.527 331.507 398.087 336.992C384.646 342.477 370.235 345.186 355.72 344.957C340.109 344.988 324.655 341.849 310.294 335.728C297.94 330.418 286.776 322.687 277.46 312.99C263.224 298.517 255.148 279.093 254.925 258.794C255.494 250.938 257.212 243.208 260.023 235.851C261.698 230.783 262.215 225.404 261.536 220.11C260.856 214.816 258.998 209.742 256.098 205.261C250.501 196.37 247.499 186.093 247.43 175.588C247.805 160.041 254.335 145.279 265.587 134.543C276.838 123.808 291.891 117.978 307.438 118.333C318.15 118.309 328.686 121.048 338.029 126.287C345.171 130.385 353.519 131.863 361.634 130.468C365.767 129.806 369.742 128.389 373.361 126.287C382.703 121.048 393.24 118.309 403.951 118.333C419.49 117.978 434.535 123.801 445.785 134.525C457.035 145.25 463.571 159.999 463.959 175.537C463.938 183.431 462.198 191.225 458.86 198.378C457.782 200.74 456.538 203.023 455.139 205.21C450.086 212.984 448.258 222.419 450.04 231.518C450.346 232.945 450.754 234.424 451.213 235.851C454.025 243.208 455.743 250.938 456.311 258.794C456.327 265.035 455.557 271.253 454.017 277.301C450.462 290.726 443.549 303.025 433.929 313.041V313.041ZM516.778 190.68C512.047 197.133 505.574 202.103 498.118 205.006C495.047 191.958 493.541 178.591 493.631 165.188V162.893C493.609 151.744 492.083 140.648 489.094 129.907C495.119 127.646 501.783 127.792 507.703 130.315C527.383 137.656 532.736 170.235 516.778 190.476V190.68Z" fill="#A16552"/>
<path d="M337.081 224.181C334.648 223.069 331.774 224.141 330.663 226.574C329.551 229.007 330.623 231.88 333.056 232.992L344.232 238.097C346.665 239.208 349.539 238.137 350.65 235.704C351.762 233.271 350.69 230.397 348.257 229.286L337.081 224.181Z" fill="#4E3F3F"/>
<path d="M363.202 229.25C360.769 230.361 359.697 233.234 360.809 235.668C361.92 238.101 364.794 239.172 367.227 238.061L378.403 232.956C380.836 231.844 381.908 228.971 380.796 226.538C379.685 224.105 376.812 223.033 374.378 224.144L363.202 229.25Z" fill="#4E3F3F"/>
<path d="M303.972 198.378C301.769 198.439 299.575 198.065 297.517 197.278C295.458 196.491 293.575 195.306 291.975 193.791C290.374 192.276 289.088 190.461 288.19 188.448C287.292 186.436 286.799 184.266 286.739 182.063V176.608C286.859 172.154 288.741 167.93 291.972 164.862C295.202 161.794 299.518 160.132 303.972 160.242C308.426 160.132 312.741 161.794 315.972 164.862C319.202 167.93 321.084 172.154 321.204 176.608V182.063C321.145 184.266 320.652 186.436 319.754 188.448C318.855 190.461 317.569 192.276 315.969 193.791C314.368 195.306 312.485 196.491 310.427 197.278C308.368 198.065 306.175 198.439 303.972 198.378V198.378Z" fill="#4E3F3F"/>
<path d="M303.971 160.242V179.31C303.971 181.595 304.878 183.787 306.494 185.402C308.11 187.018 310.302 187.926 312.587 187.926C314.872 187.926 317.064 187.018 318.68 185.402C320.295 183.787 321.203 181.595 321.203 179.31V176.608C321.083 172.154 319.201 167.93 315.971 164.862C312.74 161.794 308.425 160.132 303.971 160.242Z" fill="#5D5360"/>
<path d="M303.972 176.608C307.154 176.608 309.733 174.165 309.733 171.153C309.733 168.14 307.154 165.697 303.972 165.697C300.79 165.697 298.211 168.14 298.211 171.153C298.211 174.165 300.79 176.608 303.972 176.608Z" fill="white"/>
<path d="M407.418 198.378C402.973 198.488 398.665 196.833 395.436 193.776C392.206 190.719 390.319 186.508 390.186 182.063V176.608C390.306 172.154 392.187 167.93 395.418 164.862C398.649 161.794 402.964 160.132 407.418 160.242C411.877 160.132 416.198 161.792 419.437 164.859C422.675 167.925 424.568 172.15 424.702 176.608V182.063C424.568 186.517 422.674 190.736 419.433 193.794C416.193 196.853 411.872 198.501 407.418 198.378Z" fill="#4E3F3F"/>
<path d="M407.418 160.242V179.31C407.585 181.487 408.568 183.521 410.171 185.005C411.773 186.489 413.876 187.313 416.06 187.313C418.243 187.313 420.347 186.489 421.949 185.005C423.551 183.521 424.534 181.487 424.701 179.31V176.608C424.568 172.15 422.675 167.925 419.437 164.859C416.198 161.792 411.877 160.132 407.418 160.242V160.242Z" fill="#5D5360"/>
<path d="M407.418 176.608C410.6 176.608 413.18 174.165 413.18 171.153C413.18 168.14 410.6 165.697 407.418 165.697C404.237 165.697 401.657 168.14 401.657 171.153C401.657 174.165 404.237 176.608 407.418 176.608Z" fill="white"/>
<path d="M342.464 146.222V153.92C342.46 169.561 336.768 184.666 326.449 196.42C316.131 208.174 301.89 215.774 286.381 217.803C283.527 218.211 280.648 218.416 277.765 218.415C270.508 218.425 263.301 217.201 256.454 214.795C254.245 214.013 252.103 213.146 250.03 212.195C247.331 210.927 244.74 209.444 242.28 207.759C240.185 206.43 238.191 204.947 236.315 203.324C229.095 197.275 223.289 189.717 219.307 181.181C215.325 172.645 213.265 163.339 213.271 153.92V146.222C213.271 145.667 213.491 145.136 213.883 144.744C214.275 144.352 214.806 144.131 215.361 144.131H340.373C340.928 144.131 341.459 144.352 341.851 144.744C342.243 145.136 342.464 145.667 342.464 146.222V146.222Z" fill="#4E3F3F"/>
<path d="M497.914 146.221V153.919C497.911 169.264 492.437 184.104 482.476 195.776C472.514 207.447 458.718 215.184 443.565 217.598C440.194 218.149 436.784 218.422 433.368 218.414C430.656 218.434 427.946 218.246 425.262 217.853C422.65 217.576 420.06 217.116 417.512 216.477C414.59 215.74 411.727 214.786 408.947 213.621C406.835 212.756 404.776 211.768 402.778 210.664C394.35 206.08 387.038 199.691 381.365 191.953C373.286 180.92 368.945 167.594 368.976 153.919V146.221C368.976 145.942 369.031 145.666 369.14 145.409C369.248 145.152 369.406 144.919 369.606 144.724C369.805 144.53 370.042 144.377 370.301 144.275C370.561 144.173 370.838 144.124 371.117 144.131H495.773C496.051 144.124 496.329 144.173 496.588 144.275C496.848 144.377 497.084 144.53 497.284 144.724C497.483 144.919 497.642 145.152 497.75 145.409C497.858 145.666 497.914 145.942 497.914 146.221Z" fill="#4E3F3F"/>
<g opacity="0.46">
<path opacity="0.46" d="M338.233 151.574V159.273C338.22 174.916 332.526 190.022 322.21 201.782C311.895 213.542 297.659 221.155 282.151 223.206C279.293 223.574 276.416 223.762 273.535 223.767C266.277 223.777 259.071 222.553 252.223 220.147C250.032 219.409 247.887 218.54 245.799 217.547C234.801 212.288 225.514 204.026 219.009 193.715C212.505 183.404 209.049 171.464 209.04 159.273V151.574C209.04 151.02 209.26 150.488 209.652 150.096C210.044 149.704 210.576 149.484 211.13 149.484H336.143C336.697 149.484 337.229 149.704 337.621 150.096C338.013 150.488 338.233 151.02 338.233 151.574Z" fill="#4E3F3F"/>
<path opacity="0.46" d="M493.682 151.574V159.273C493.687 174.587 488.242 189.404 478.322 201.071C468.402 212.738 454.654 220.494 439.538 222.952C436.166 223.498 432.756 223.77 429.341 223.767C426.63 223.779 423.922 223.608 421.234 223.258C418.641 222.944 416.07 222.467 413.536 221.83C410.55 221.192 407.618 220.323 404.767 219.23C392.911 214.387 382.767 206.121 375.629 195.487C368.492 184.854 364.685 172.335 364.693 159.528V151.574C364.693 151.296 364.749 151.019 364.857 150.762C364.965 150.505 365.124 150.273 365.324 150.078C365.523 149.883 365.76 149.73 366.019 149.628C366.279 149.526 366.556 149.477 366.835 149.484H491.541C491.82 149.477 492.097 149.526 492.357 149.628C492.616 149.73 492.853 149.883 493.052 150.078C493.252 150.273 493.41 150.505 493.519 150.762C493.627 151.019 493.683 151.296 493.682 151.574V151.574Z" fill="#4E3F3F"/>
</g>
<path d="M377.542 153.614H333.849V167.277H377.542V153.614Z" fill="#4E3F3F"/>
<path d="M267.773 144.131L236.571 203.324C232.251 199.713 228.429 195.547 225.201 190.935L249.826 144.131H267.773Z" fill="white"/>
<path d="M325.486 144.131L286.637 217.803C283.783 218.211 280.903 218.416 278.02 218.415C270.763 218.425 263.556 217.201 256.709 214.795L293.978 144.131H325.486Z" fill="white"/>
<path d="M286.177 144.131L250.489 212.195C247.79 210.927 245.199 209.444 242.739 207.759L276.287 144.131H286.177Z" fill="white"/>
<path d="M486.136 144.131L443.565 217.599C440.194 218.15 436.784 218.422 433.368 218.415C430.656 218.435 427.946 218.247 425.262 217.854L467.782 144.131H486.136Z" fill="white"/>
<path d="M441.067 144.131L402.778 210.665C394.35 206.081 387.038 199.692 381.365 191.954L408.998 144.131H441.067Z" fill="white"/>
<path d="M459.319 144.131L417.563 216.477C414.641 215.741 411.778 214.787 408.998 213.622L449.071 144.131H459.319Z" fill="white"/>
<path opacity="0.2" d="M514.483 119.455C510.012 117.524 505.15 116.67 500.288 116.962C495.426 117.255 490.701 118.685 486.493 121.137C484.863 116.355 482.991 111.658 480.885 107.066C479.356 103.701 477.673 100.387 475.787 97.1238C457.734 63.3411 427.826 37.4278 391.816 24.3699V24.064C377.857 30.7021 366.928 42.3779 361.226 56.7446C352.661 80.2991 364.234 99.8259 361.838 130.467C361.838 132.405 361.532 134.444 361.226 136.483C356.688 170.642 347.664 189.201 329.361 204.853C322.595 210.291 316.223 216.203 310.293 222.544C299.536 234.525 291.531 249.82 291.072 274.853C291.14 296.627 297.845 317.863 310.293 335.728C315.921 344.189 323.49 351.181 332.369 356.122C336.998 358.543 342.134 359.836 347.358 359.894C313.199 498.723 355.72 576.117 355.72 576.117H377.745C391.189 576.144 404.191 571.309 414.351 562.504L415.626 563.014C425.822 566.175 441.933 574.026 445.094 580.909C451.62 595.032 455.954 604.362 467.017 604.362C469.618 604.362 474.461 604.362 487.411 592.483C488.653 591.52 489.683 590.311 490.435 588.931C491.186 587.551 491.644 586.03 491.778 584.464C491.912 582.899 491.72 581.322 491.214 579.834C490.709 578.346 489.9 576.98 488.839 575.82C487.779 574.66 486.489 573.733 485.052 573.097C483.615 572.461 482.062 572.13 480.491 572.124C478.919 572.118 477.364 572.439 475.922 573.064C474.481 573.69 473.185 574.608 472.116 575.76C471.249 576.576 470.28 577.442 469.312 578.207C468.445 576.474 467.374 574.281 465.998 571.324C459.319 556.794 439.792 547.617 429.035 543.487C432.421 536.098 434.16 528.061 434.133 519.933V383.5L486.85 345.823C492.454 341.857 496.447 336.011 498.103 329.348C499.759 322.686 498.968 315.651 495.874 309.522L487.207 292.239C488.533 290.149 489.756 288.058 490.929 285.968C492.101 283.878 493.172 281.685 494.141 279.493C495.11 277.301 496.078 275.108 496.945 272.865L498.169 269.5L499.239 266.084L500.157 262.821C500.15 262.702 500.15 262.583 500.157 262.464C500.735 260.221 501.245 257.978 501.686 255.734C501.686 254.562 502.145 253.389 502.298 252.166L502.757 248.648C502.757 247.577 502.757 246.506 503.063 245.436C503.063 245.436 503.063 245.13 503.063 244.926C503.063 243.906 503.063 242.836 503.063 241.765C503.088 241.613 503.088 241.458 503.063 241.306C503.063 240.133 503.063 238.961 503.063 237.737C503.07 230.656 502.301 223.595 500.769 216.681C500.691 216.217 500.589 215.757 500.463 215.304C510.688 211.821 519.589 205.269 525.955 196.542C546.297 170.439 539.516 129.193 514.483 119.455ZM475.277 319.719C475.922 320.989 476.092 322.448 475.755 323.832C475.418 325.215 474.598 326.433 473.441 327.265L433.929 355.459V339.195C447.832 332.22 460.492 323.005 471.402 311.919L475.277 319.719Z" fill="#FFF9F8"/>
</svg>
