<svg width="1407" height="1407" viewBox="0 0 1407 1407" fill="none" xmlns="http://www.w3.org/2000/svg">
<path d="M1407 0H0V1407H1407V0Z" fill="#03415D"/>
<path opacity="0.5" d="M1233.84 342.78C1186.93 343.102 1139.88 342.852 1093.12 338.591C1069.88 336.478 1046.53 333.936 1023.79 328.457C983.546 318.754 943.801 306.472 904.664 293.08C859.189 277.504 812.998 260.603 771.247 236.469C754.238 226.622 712.81 203.384 724.59 177.495C731.68 161.919 751.231 154.793 766.807 152.609C798.675 148.169 832.262 154.865 863.593 160.344C901.047 166.896 938.716 172.267 976.277 178.104C1002.09 182.114 1027.95 185.946 1053.91 188.703C1079.01 191.352 1104.18 192.57 1129.28 195.184C1221.45 204.887 1314.22 221.359 1407 214.842V176.886C1337.89 180.933 1269.11 182.723 1199.86 179.25C1091.25 173.771 985.981 145.233 878.99 128.332C824.241 119.703 768.848 114.009 713.383 116.337C658.455 118.664 604.135 127.258 550.389 138.537C445.224 160.63 341.133 192.212 233.39 199.337C155.366 204.529 77.6294 198.8 0.0356445 191.102V225.655C33.9091 239.871 72.1867 241.804 108.459 240.301C150.604 238.546 192.319 232.101 234.07 226.479C277.719 220.607 321.439 216.095 365.052 209.614C413.535 202.381 462.555 195.255 511.718 196.365C607.752 198.585 696.732 241.303 781.953 281.872C867.854 322.8 955.295 365.41 1050.86 377.37C1159.18 390.941 1268.36 383.887 1377.14 382.991C1387.16 382.92 1397.12 382.956 1407.07 383.206V343.747C1349.39 340.811 1291.38 342.386 1233.84 342.78Z" fill="#446671"/>
<path opacity="0.5" d="M236.147 465.813C258.741 456.718 286.134 445.94 302.283 426.783C308.119 419.836 312.201 410.598 307.51 401.861C301.925 391.513 290.753 384.137 279.832 380.377C250.291 370.208 216.597 373.001 186.017 375.651C156.512 378.193 126.649 383.636 96.9653 383.206C65.0971 382.74 32.3695 379.876 0.966789 374.541C0.644526 374.469 0.322263 374.433 0 374.362V515.728C15.576 514.94 31.0805 513.651 46.5133 511.896C111.037 504.627 175.777 490.126 236.147 465.813Z" fill="#446671"/>
<path opacity="0.5" d="M987.915 538.072C1006.25 524.608 1031.38 521.672 1053.37 519.703C1082.84 517.089 1112.49 517.411 1142.03 515.728C1231.47 510.608 1318.59 488.873 1407 475.875V448.053C1359.91 451.812 1313.04 457.577 1266.39 464.846C1221.09 471.936 1176.15 481.819 1130.57 486.653C1013.59 499.114 896.5 485.758 779.59 479.67C721.583 476.663 662.608 474.228 604.744 480.53C551.213 486.366 498.863 499.257 447.802 516.05C398.46 532.271 350.228 551.571 301.602 569.832C253.8 587.772 205.568 605.747 155.259 615.236C104.306 624.832 52.1708 629.021 0.035807 628.95V676.537C1.75454 676.645 3.47328 676.752 5.19201 676.859C32.5486 678.542 59.9051 681.156 87.2974 682.445C105.702 683.305 123.677 683.627 141.652 679.151C164.641 673.422 187.271 666.332 210.151 660.138C236.183 653.084 262.931 645.743 289.929 643.631C303.5 642.556 320.974 641.554 327.204 656.163C337.373 679.903 313.884 704.646 298.093 719.183C265.974 748.796 227.267 771.461 189.168 792.373C142.19 818.118 93.6711 840.963 44.5439 862.232C29.7198 868.677 14.8599 874.872 0 880.959V942.511C72.1511 934.992 138.358 898.003 195.757 855.357C260.675 807.125 318.074 749.619 374.219 691.648C398.675 666.404 422.881 640.873 447.945 616.238C478.274 586.447 512.291 561.919 551.535 545.126C590.493 528.511 632.029 518.7 674.138 514.725C715.782 510.787 760.899 509.068 801.683 519.81C876.519 539.54 930.588 597.225 982.902 650.649C1009.36 677.683 1036 704.968 1067.23 726.56C1097.02 747.149 1129.28 764.085 1162.62 778.157C1236.99 809.56 1316.95 829.075 1397.26 836.952C1400.48 837.275 1403.74 837.561 1406.96 837.848V784.531C1396.87 783.779 1386.73 783.063 1376.56 782.597C1341.12 780.986 1305.52 779.805 1270.36 774.684C1188.68 762.76 1107.47 727.061 1044.2 673.816C1017.38 651.257 990.027 623.364 977.495 589.92C970.513 571.336 970.584 550.783 987.915 538.072Z" fill="#446671"/>
<path opacity="0.5" d="M1079.4 927.115C1038.62 913.365 1001.88 893.886 964.927 872.044C926.435 849.27 886.796 828.144 845.332 811.243C764.372 778.229 676.43 761.615 588.882 768.168C448.877 778.695 333.506 865.563 220.929 940.972C165.5 978.104 108.603 1014.48 46.2986 1039.12C31.0806 1045.13 15.612 1050.33 -0.0356445 1054.62V1114.92C20.4818 1106.83 40.8201 1098.06 61.3017 1090.32C106.275 1073.35 149.96 1052.58 190.243 1026.23C266.368 976.385 328.422 899.4 418.226 872.473C463.88 858.795 511.539 861.66 557.658 871.686C607.287 882.464 655.268 900.188 701.817 920.383C747.829 940.328 788.577 969.51 831.009 995.864C875.302 1023.4 921.636 1046.42 973.055 1056.92C1081.16 1078.94 1193.45 1063.61 1300.94 1045.81C1336.32 1039.98 1371.62 1033.53 1406.96 1027.62V937.57C1300.01 965.285 1183.71 962.242 1079.4 927.115ZM1070.09 1009.29C1066.05 1015.38 1058.78 1018.28 1051.9 1019.75C1037.87 1022.83 1022.97 1022.54 1008.72 1021.47C968.543 1018.42 929.979 1004.49 893.886 987.199C854.427 968.293 817.151 945.376 780.091 922.209C764.157 912.255 748.402 900.94 731.537 892.633C718.396 886.152 705.147 879.778 692.543 872.259C675.499 862.089 643.595 842.754 652.833 818.333C662.752 792.087 700.242 794.629 722.191 798.46C727.527 799.391 732.826 800.537 738.125 801.79C747.614 802.22 757.067 803.831 766.305 806.087C801.074 814.609 833.981 830.185 865.742 846.406C893.528 860.585 921.171 875.159 948.814 889.625C967.684 899.508 985.588 911.503 1002.81 924C1022.11 938.036 1041.59 953.075 1057.13 971.301C1064.61 980.217 1078.29 996.974 1070.09 1009.29Z" fill="#446671"/>
<path opacity="0.5" d="M1209.31 1162.26C1239.24 1159.57 1268.64 1169.92 1297.9 1174.29C1322.57 1177.98 1346.81 1181.88 1371.69 1183.92C1383.19 1184.85 1395.43 1183.24 1407 1184.67V1169.74C1365.54 1166.45 1324.11 1162.58 1282.68 1159.18C1188 1151.41 1091.36 1144.57 996.652 1155.35C895.784 1166.81 794.7 1182.6 692.901 1181.45C642.27 1180.88 591.675 1176.26 541.975 1166.41C497.359 1157.57 453.675 1145.79 409.704 1134.36C364.229 1122.55 317.823 1111.38 270.701 1109.41C247.892 1108.44 224.832 1109.34 202.453 1114.13C180.969 1118.75 160.308 1126.95 140.22 1135.76C93.8501 1156.14 48.1962 1181.06 0 1194.77V1219.05C4.86975 1217.72 9.7037 1216.36 14.5734 1215.04C106.311 1189.97 205.747 1167.09 297.807 1203.11C378.408 1234.66 457.542 1276.3 544.266 1288.23C643.344 1301.83 741.455 1271.29 837.203 1249.45C885.543 1238.42 934.204 1228.22 983.546 1222.95C1036.04 1217.33 1088.03 1218.55 1140.45 1224.1C1229.4 1233.51 1317.45 1251.42 1406.96 1254.75V1240.35C1381.51 1238.35 1356.08 1234.48 1331.02 1231.26C1301.23 1227.46 1272.65 1225.1 1243.61 1217.01C1225.28 1211.89 1199.78 1205.94 1187 1190.55C1174.83 1175.76 1196.78 1163.4 1209.31 1162.26ZM705.111 1251.17C678.686 1260.33 650.255 1264.06 622.505 1266.42C591.281 1269.07 560.129 1268.53 529.12 1263.34C492.382 1257.18 452.278 1247.19 422.773 1223.24C413.392 1215.65 401.575 1205.01 400.286 1192.16C399.176 1181.13 406.338 1170.64 417.402 1168.63C431.761 1166.05 446.907 1169.46 460.908 1172.64C481.21 1177.3 501.835 1179.77 522.424 1182.95C546.701 1186.71 570.978 1190.62 595.255 1194.38C600.197 1194.09 605.138 1193.84 610.08 1193.7C639.62 1192.84 670.02 1192.34 699.239 1197.64C711.306 1199.82 733.793 1203.79 737.338 1218.44C741.706 1236.45 718.36 1246.55 705.111 1251.17Z" fill="#446671"/>
<path opacity="0.5" d="M1258.58 1308.17C1221.91 1307.85 1185.1 1308.39 1148.69 1313.04C1110.98 1317.84 1073.42 1323.93 1035.9 1329.94C935.959 1345.98 835.914 1363.32 734.724 1369.19C630.633 1375.24 525.539 1369.62 421.878 1359.59C370.781 1354.65 319.828 1348.38 269.09 1340.83C220.822 1333.63 172.984 1323.46 124.573 1317.45C83.4303 1312.33 41.3213 1310.11 0 1313.51V1407H1407V1308.78C1357.66 1311.11 1307.99 1308.6 1258.58 1308.17Z" fill="#446671"/>
<path opacity="0.2" d="M1081.08 1273.26C1061.53 1278.45 1061.89 1290.77 1069.73 1299.79C1070.56 1301.05 1071.45 1302.16 1072.31 1303.05C1076.11 1306.99 1087.1 1313.08 1098.31 1311.22C1110.95 1309.1 1117.54 1303.98 1120.47 1298.47C1125.38 1289.19 1112.52 1264.92 1081.08 1273.26Z" fill="white"/>
<path opacity="0.2" d="M823.346 1341.29C815.039 1343.51 815.182 1348.74 818.512 1352.54C818.87 1353.07 819.228 1353.54 819.622 1353.93C821.233 1355.62 825.888 1358.19 830.65 1357.41C836.022 1356.51 838.814 1354.33 840.068 1352C842.18 1348.06 836.702 1337.75 823.346 1341.29Z" fill="white"/>
<path opacity="0.2" d="M1220.7 1075.79C1206.66 1079.51 1206.95 1088.32 1212.57 1094.76C1213.14 1095.66 1213.79 1096.45 1214.43 1097.09C1217.15 1099.92 1225.03 1104.25 1233.05 1102.93C1242.11 1101.42 1246.84 1097.73 1248.91 1093.8C1252.46 1087.21 1243.22 1069.81 1220.7 1075.79Z" fill="white"/>
<path opacity="0.2" d="M245.743 1047.14C231.707 1050.86 231.993 1059.67 237.615 1066.12C238.224 1067.01 238.832 1067.8 239.477 1068.44C242.198 1071.27 250.076 1075.61 258.097 1074.28C267.156 1072.78 271.846 1069.09 273.959 1065.15C277.468 1058.56 268.266 1041.16 245.743 1047.14Z" fill="white"/>
<path opacity="0.2" d="M143.3 1253.92C132.737 1256.72 132.952 1263.38 137.177 1268.25C137.607 1268.93 138.108 1269.54 138.573 1270C140.614 1272.15 146.558 1275.41 152.61 1274.41C159.413 1273.26 162.994 1270.5 164.569 1267.53C167.219 1262.52 160.273 1249.41 143.3 1253.92Z" fill="white"/>
<path opacity="0.2" d="M476.018 1201.22C465.455 1204.01 465.634 1210.67 469.895 1215.54C470.325 1216.22 470.826 1216.79 471.292 1217.29C473.368 1219.44 479.277 1222.7 485.328 1221.7C492.131 1220.55 495.712 1217.8 497.288 1214.82C499.901 1209.81 492.991 1196.71 476.018 1201.22Z" fill="white"/>
<path opacity="0.2" d="M1198.35 240.659C1178.8 245.851 1179.16 258.168 1187 267.192C1187.83 268.445 1188.72 269.555 1189.58 270.45C1193.38 274.389 1204.37 280.476 1215.58 278.614C1228.22 276.501 1234.8 271.381 1237.74 265.867C1242.65 256.593 1229.79 232.316 1198.35 240.659Z" fill="white"/>
<path opacity="0.2" d="M1294.14 243.058C1285.83 245.278 1285.97 250.506 1289.3 254.301C1289.66 254.838 1290.02 255.304 1290.41 255.698C1292.02 257.381 1296.68 259.959 1301.44 259.171C1306.81 258.276 1309.6 256.092 1310.86 253.764C1312.93 249.825 1307.49 239.513 1294.14 243.058Z" fill="white"/>
<path opacity="0.2" d="M393.555 75.6606C385.248 77.8806 385.391 83.1084 388.721 86.904C389.079 87.4411 389.437 87.9066 389.831 88.2647C391.442 89.9476 396.097 92.5257 400.859 91.7379C406.23 90.8428 409.023 88.6585 410.277 86.3311C412.353 82.4281 406.875 72.1157 393.555 75.6606Z" fill="white"/>
<path opacity="0.2" d="M96.4644 761.078C82.9293 764.658 83.18 773.18 88.5868 779.447C89.1597 780.306 89.7684 781.094 90.3772 781.703C93.0269 784.424 100.618 788.649 108.388 787.36C117.125 785.892 121.708 782.347 123.713 778.516C127.151 772.106 118.235 755.277 96.4644 761.078Z" fill="white"/>
<path opacity="0.2" d="M156.154 706.365C143.371 709.766 143.622 717.787 148.742 723.66C149.279 724.483 149.852 725.199 150.425 725.772C152.896 728.35 160.093 732.325 167.398 731.107C175.633 729.747 179.93 726.381 181.864 722.764C185.05 716.785 176.672 700.922 156.154 706.365Z" fill="white"/>
<path opacity="0.2" d="M808.558 719.434C795.775 722.836 796.026 730.856 801.146 736.729C801.683 737.552 802.256 738.268 802.829 738.841C805.3 741.419 812.461 745.394 819.801 744.177C828.037 742.816 832.334 739.45 834.267 735.834C837.49 729.818 829.075 713.991 808.558 719.434Z" fill="white"/>
<path opacity="0.2" d="M878.775 675.499C869.68 677.934 869.824 683.663 873.476 687.853C873.87 688.426 874.264 688.963 874.693 689.357C876.448 691.183 881.568 694.011 886.796 693.152C892.669 692.185 895.748 689.786 897.109 687.208C899.4 682.911 893.421 671.596 878.775 675.499Z" fill="white"/>
<path opacity="0.2" d="M1289.95 671.452C1274.16 675.642 1274.44 685.56 1280.78 692.829C1281.46 693.832 1282.18 694.727 1282.86 695.443C1285.94 698.63 1294.78 703.5 1303.8 702.031C1314.01 700.349 1319.31 696.195 1321.67 691.719C1325.68 684.271 1315.3 664.721 1289.95 671.452Z" fill="white"/>
<path opacity="0.2" d="M1220.7 109.677C1206.66 113.401 1206.95 122.209 1212.57 128.654C1213.14 129.55 1213.79 130.337 1214.43 130.982C1217.15 133.811 1225.03 138.143 1233.05 136.818C1242.11 135.315 1246.84 131.626 1248.91 127.688C1252.46 121.099 1243.22 103.697 1220.7 109.677Z" fill="white"/>
<path opacity="0.2" d="M245.743 81.0312C231.707 84.7551 231.993 93.5637 237.615 100.009C238.224 100.904 238.832 101.692 239.477 102.336C242.198 105.165 250.076 109.498 258.097 108.173C267.156 106.669 271.846 102.981 273.959 99.0421C277.468 92.4536 268.266 75.0514 245.743 81.0312Z" fill="white"/>
<path opacity="0.2" d="M143.3 287.817C132.737 290.61 132.952 297.27 137.177 302.139C137.607 302.82 138.108 303.429 138.573 303.894C140.614 306.042 146.558 309.301 152.61 308.298C159.413 307.152 162.994 304.395 164.569 301.423C167.219 296.41 160.273 283.305 143.3 287.817Z" fill="white"/>
<path opacity="0.2" d="M476.018 235.109C465.455 237.902 465.634 244.562 469.895 249.432C470.325 250.112 470.826 250.721 471.292 251.186C473.368 253.335 479.277 256.593 485.328 255.591C492.131 254.445 495.712 251.688 497.288 248.716C499.901 243.703 492.991 230.597 476.018 235.109Z" fill="white"/>
</svg>
