<svg width="701" height="777" viewBox="0 0 701 777" fill="none" xmlns="http://www.w3.org/2000/svg">
<g style="mix-blend-mode:multiply" opacity="0.5">
<path d="M662.184 310.338C662.949 317.527 665.804 323.9 666.212 331.242C666.518 336.34 666.212 342.866 666.212 348.117C666.212 350.667 666.518 354.337 666.212 357.6C666.518 349.035 657.035 334.709 653.313 327.01C648.214 316.15 642.453 305.597 636.284 295.247C619.033 266.615 599.001 239.752 576.48 215.05C541.127 174.63 494.332 145.899 442.291 132.66C391.07 120.897 337.83 121.071 286.688 133.17C211.691 150.453 138.172 201.845 95.3968 266.033C81.4272 287.039 75.0032 312.378 66.336 335.881C45.0589 393.215 41.1575 455.55 55.1195 515.089C63.0462 546.16 75.3911 575.932 91.7769 603.495C72.505 590.291 61.1866 566.94 47.5739 548.688C45.1267 545.476 40.4362 537.012 35.2359 538.491C31.616 539.562 33.4004 547.566 33.8083 549.707C36.3077 559.695 39.9516 569.361 44.6679 578.513C50.5299 590.806 57.3487 602.62 65.0614 613.845C79.3865 636.138 95.1216 657.493 112.17 677.779C129.49 698.396 148.654 717.389 169.425 734.524C178.425 741.985 187.801 748.979 197.517 755.478C206.745 761.749 216.84 766.389 226.323 772.252C229.433 774.138 236.52 778.217 240.14 775.311C242.791 773.17 241.618 768.887 240.14 766.542C233.319 757.376 225.838 748.719 217.758 740.642C209.953 732.866 202.567 724.68 195.631 716.119C235.602 742.63 278.582 765.675 326.965 770.773C376.573 776.178 430.463 764.145 476.195 745.281C531.258 722.696 570.821 677.524 610.384 635.054C643.983 599.009 661.98 555.978 670.443 508.309C672.719 524.556 673.164 541.008 671.769 557.355C671.463 563.269 668.965 584.376 676.867 586.926C689.919 591.208 697.261 530.385 697.975 524.317C702.109 485.334 702.006 446.017 697.669 407.055C694.1 371.366 686.095 336.901 665.039 307.279C663.459 305.342 662.082 309.319 662.184 310.338ZM498.118 423.726C498.118 424.083 498.118 424.389 498.475 424.695C504.351 442.575 505.717 461.63 502.452 480.165C498.821 497.986 491.107 514.723 479.917 529.059C455.927 559.255 422.345 580.354 384.73 588.863C362.053 594.348 338.356 593.998 315.851 587.843C301.471 584.774 287.748 579.181 275.319 571.325C253.877 557.946 235.469 540.233 221.276 519.321C209.831 502.13 202.538 482.515 199.972 462.024C197.406 441.532 199.638 420.724 206.491 401.242C208.198 394.71 210.449 388.332 213.22 382.175C243.454 315.233 327.169 267.716 399.311 293.259C454.017 312.633 490.521 366.981 498.118 423.726Z" fill="#235367"/>
</g>
<path d="M664.172 430.049V430.865C664.179 451.411 662.129 471.907 658.054 492.045C657.034 497.144 655.964 501.834 654.689 506.678C653.415 511.521 651.936 517.129 650.305 522.228C648.673 527.326 646.991 532.425 645.206 537.523C641.79 546.598 638.068 555.469 633.888 564.137C613.772 605.868 584.556 642.559 548.388 671.508C517.884 695.956 483.001 714.366 445.604 725.755C438.773 727.846 431.89 729.681 424.854 731.312C379.673 741.509 332.787 741.509 287.606 731.312C242.443 721.204 200.135 701.06 163.817 672.375C127.532 643.644 98.2039 607.089 78.0228 565.438C57.8418 523.787 47.3285 478.116 47.2678 431.833V430.865C47.1711 384.513 57.5428 338.739 77.6088 296.956C97.6748 255.173 126.917 218.461 163.154 189.558C175.024 180.157 187.565 171.637 200.678 164.066C227.496 148.451 256.532 137.002 286.79 130.111C291.531 129.041 296.375 128.072 301.218 127.205C341.923 119.966 383.663 120.936 423.987 130.06C453.879 136.794 482.583 148.001 509.13 163.302C522.679 171.082 535.63 179.859 547.878 189.558C584.079 218.337 613.332 254.901 633.465 296.534C653.598 338.168 664.094 383.803 664.172 430.049V430.049Z" fill="white"/>
<path d="M287.555 731.771C332.736 741.968 379.622 741.968 424.804 731.771C454.974 724.857 483.922 713.409 510.66 697.816L418.889 540.327C408.035 546.629 396.297 551.269 384.067 554.093C365.452 558.274 346.141 558.274 327.526 554.093C315.389 551.384 303.733 546.845 292.959 540.633L202.157 698.683C228.806 713.926 257.593 725.08 287.555 731.771V731.771ZM229.433 431.834V430.865C229.36 411.964 233.579 393.294 241.772 376.261C252.841 353.4 270.488 334.368 292.449 321.607L200.832 164.067C147.408 195.068 104.516 241.387 77.7056 297.032C57.5413 338.764 47.0833 384.517 47.1153 430.865V431.834H229.433ZM434.185 332.007C449.079 343.9 461.132 358.967 469.465 376.108C477.673 393.067 481.927 411.667 481.905 430.508L664.173 430.049C664.094 383.803 653.599 338.168 633.466 296.535C613.333 254.901 584.08 218.337 547.878 189.558C535.68 179.865 522.779 171.089 509.284 163.302L418.431 321.352C423.936 324.513 429.201 328.074 434.185 332.007V332.007Z" fill="#FF2E35"/>
<path d="M506.479 430.864C506.479 470.853 490.597 509.204 462.325 537.485C434.054 565.766 395.708 581.661 355.72 581.674H351.386C312.24 580.427 275.115 564 247.865 535.868C220.615 507.736 205.378 470.107 205.378 430.941C205.378 391.775 220.615 354.145 247.865 326.013C275.115 297.882 312.24 281.454 351.386 280.207H355.72C395.686 280.207 434.016 296.077 462.286 324.327C490.556 352.578 506.452 390.898 506.479 430.864V430.864Z" fill="#03415E"/>
<g opacity="0.25">
<path d="M664.172 430.049V430.865C664.179 451.411 662.129 471.907 658.054 492.045C657.034 497.144 655.964 501.834 654.689 506.678C653.415 511.521 651.936 517.129 650.305 522.228C648.673 527.326 646.991 532.425 645.206 537.523C641.79 546.598 638.068 555.469 633.888 564.137C613.772 605.868 584.556 642.559 548.388 671.508C517.884 695.956 483.001 714.367 445.605 725.755C401.29 733.721 355.769 731.886 312.24 720.378C268.711 708.871 228.23 687.97 193.643 659.145C159.055 630.32 131.199 594.27 112.033 553.529C92.8664 512.788 82.8549 468.343 82.7017 423.319V422.35C82.6921 368.32 96.8773 315.236 123.837 268.412C150.796 221.589 189.584 182.67 236.316 155.552C256.808 143.572 278.645 134.057 301.371 127.205C342.076 119.966 383.817 120.936 424.14 130.06C454.032 136.794 482.736 148.001 509.283 163.302C522.779 171.089 535.679 179.865 547.878 189.558C584.079 218.337 613.332 254.901 633.465 296.534C653.598 338.168 664.094 383.803 664.172 430.049V430.049Z" fill="white"/>
</g>
<g opacity="0.22">
<path opacity="0.22" d="M49.6132 392.372C48.0309 405.141 47.2476 417.997 47.2679 430.864V431.425L41.7107 433.108L39.8243 433.77L35.6436 435.351L34.0121 436.014C32.0747 436.88 30.0864 437.747 28.149 438.716C27.2313 439.175 26.3135 439.634 25.4468 440.143H24.6821H24.2232H23.1526C20.573 440.88 17.8274 440.791 15.301 439.889V439.889L7.90839 445.752C7.15498 446.336 6.20612 446.609 5.2575 446.514C4.30887 446.419 3.43282 445.964 2.81001 445.242L1.73935 444.477L0.872622 443.457C0.26124 442.694 -0.04733 441.732 0.0058966 440.755C0.00708212 440.199 0.131095 439.651 0.369066 439.148C0.607037 438.646 0.953085 438.202 1.38246 437.849L8.5202 431.986C7.91728 429.525 8.11371 426.935 9.08102 424.593C11.1932 420.035 14.1715 415.931 17.8502 412.51C25.1132 405.809 33.2826 400.162 42.1185 395.737C44.6337 394.513 47.1319 393.391 49.6132 392.372Z" fill="black"/>
</g>
<g opacity="0.5">
<path opacity="0.5" d="M59.5039 395.379H59.9118H62.2571H63.3277H65.1631C67.2535 395.379 69.3438 395.073 71.3832 395.073H71.6891C72.6068 395.073 73.4735 395.073 74.3912 395.073H78.6739H80.9681H82.0388H83.2624H85.8116H87.9529L91.5728 395.685H92.5924L95.1926 396.195L96.9261 396.603L100.24 397.418L101.413 397.724H101.719L103.707 398.285L105.797 398.948C107.378 399.458 108.958 400.018 110.488 400.63L111.762 401.089L116.402 403.027H116.861H117.218L118.594 403.689L120.786 404.76L121.5 405.117C123.234 406.035 125.018 407.003 126.599 408.074C128.179 409.145 130.218 410.266 131.952 411.439H132.258L135.776 413.988L136.948 414.906L138.07 415.772C139.294 416.741 140.466 417.761 141.639 418.781L142.913 419.953L145.106 421.992L146.176 423.063C146.473 423.309 146.746 423.582 146.992 423.879L147.808 424.695L148.675 425.612C149.694 426.683 150.663 427.754 151.632 428.875C152.498 429.895 153.314 430.915 154.13 431.985C159.567 439.34 165.567 446.26 172.076 452.685C174.029 454.496 176.39 455.807 178.959 456.509C179.65 456.635 180.358 456.635 181.049 456.509C181.385 456.453 181.711 456.35 182.018 456.203V456.203C182.343 456.091 182.652 455.937 182.936 455.744C183.587 455.323 184.186 454.827 184.72 454.265C185.748 453.148 186.592 451.875 187.218 450.492C187.551 449.797 187.84 449.082 188.085 448.351C189.339 444.069 189.754 439.586 189.309 435.146C186.502 420.826 180.7 407.261 172.283 395.341C163.867 383.42 153.026 373.413 140.471 365.975C127.916 358.538 113.931 353.838 99.4331 352.184C84.9347 350.529 70.2504 351.958 56.3429 356.376C53.0087 369.795 50.5731 383.421 49.0522 397.163C50.8367 396.705 52.6211 396.297 54.4565 395.94C56.292 395.583 57.8215 395.583 59.5039 395.379Z" fill="black"/>
</g>
<path d="M16.9836 383.296L23.5095 391.199L7.90845 404.098C7.15049 404.67 6.20453 404.936 5.25944 404.841C4.31435 404.747 3.43968 404.299 2.81007 403.588L1.12761 401.549C0.566547 400.786 0.30811 399.843 0.402286 398.901C0.496462 397.96 0.936558 397.086 1.63744 396.45L16.9836 383.296Z" fill="#AC752C"/>
<path d="M16.9836 383.296L20.2466 387.273L1.73945 402.568L0.872723 401.549C0.311664 400.786 0.0532271 399.843 0.147403 398.901C0.241579 397.96 0.681676 397.086 1.38256 396.45L16.9836 383.296Z" fill="#7D551F"/>
<path d="M17.8504 370.907C25.0871 364.173 33.2615 358.523 42.1187 354.134C56.5174 347.009 72.3763 343.333 88.441 343.395C104.506 343.458 120.336 347.257 134.679 354.493C149.022 361.729 161.484 372.202 171.081 385.086C180.678 397.969 187.145 412.909 189.972 428.723C190.417 433.162 190.002 437.646 188.748 441.928C187.916 444.889 186.122 447.49 183.65 449.32C183.354 449.494 183.048 449.647 182.732 449.779V449.779C182.425 449.927 182.099 450.03 181.763 450.085C180.082 450.088 178.418 449.745 176.875 449.078C175.332 448.412 173.941 447.436 172.79 446.21C166.266 439.781 160.265 432.843 154.844 425.46V425.46C154.028 424.389 153.212 423.37 152.346 422.35C151.377 421.228 150.408 420.158 149.389 419.087L148.522 418.169L147.859 417.252C147.613 416.955 147.34 416.682 147.043 416.436L145.973 415.365L143.78 413.326L142.506 412.153C141.333 411.134 140.161 410.114 138.937 409.145L137.662 408.278L136.49 407.361L132.972 404.812H132.666C130.933 403.622 129.148 402.5 127.313 401.447C125.63 400.376 123.846 399.407 122.214 398.49L121.501 398.133C120.328 397.521 119.104 396.909 117.932 396.399H117.575H117.116C113.653 394.859 110.113 393.498 106.511 392.32L104.421 391.658L101.974 390.179H101.668L100.495 389.873L96.8753 388.956L95.1929 388.395L92.5927 387.885H91.573L87.9532 387.273C82.565 386.534 77.1264 386.227 71.6893 386.355H71.3834C69.3441 386.355 67.2537 386.355 65.1634 386.661C64.1947 386.661 63.226 386.661 62.2573 386.967H59.912H59.5042L54.4058 387.834C45.1115 389.598 36.1046 392.635 27.6393 396.858L24.9881 398.591H24.1724H23.7135H23.4076C20.7399 399.339 17.905 399.232 15.3012 398.286C12.7283 396.99 10.6249 394.922 9.28511 392.371V392.371C8.56865 390.903 8.19629 389.29 8.19629 387.655C8.19629 386.021 8.56865 384.408 9.28511 382.939C11.2868 378.385 14.202 374.29 17.8504 370.907V370.907Z" fill="#FFD54F"/>
<path d="M9.33545 392.371C16.1271 385.748 23.7952 380.087 32.1252 375.547L35.6941 373.762C49.7351 366.781 65.1782 363.081 80.8582 362.939C96.5382 362.798 112.046 366.219 126.21 372.946C140.375 379.672 152.827 389.528 162.627 401.769C172.427 414.01 179.319 428.317 182.782 443.61C182.782 444.783 183.292 445.955 183.496 447.128C183.7 448.301 183.802 448.606 183.904 449.371C183.609 449.544 183.302 449.698 182.986 449.83V449.83C182.68 449.978 182.354 450.081 182.018 450.136C180.336 450.138 178.673 449.796 177.129 449.129C175.586 448.463 174.196 447.487 173.045 446.261C166.521 439.832 160.52 432.893 155.098 425.511V425.511C154.282 424.44 153.467 423.42 152.6 422.401C151.631 421.279 150.663 420.208 149.643 419.138C149.559 419.12 149.472 419.12 149.388 419.138L148.776 418.475L147.859 417.251C147.604 416.946 147.298 416.691 147.043 416.436L145.972 415.365L143.78 413.326L142.505 412.153L140.262 410.267L138.936 409.145L137.662 408.278L136.489 407.361L132.971 404.811H132.665L131.34 403.69C129.912 402.721 128.434 401.803 126.955 400.937C125.477 400.07 123.947 399.203 122.418 398.387L121.755 397.979L121.041 397.623L118.849 396.552L117.268 395.889H116.911H116.452L114.464 395.022L112.986 394.411H112.323L110.232 393.595L108.244 392.881L105.848 392.065L103.758 391.403L101.973 390.179H101.667L100.495 389.873L96.8747 388.955L95.1922 388.395L92.592 387.885H91.5724H90.5017L87.9525 387.477H85.8112H83.262H81.9874H80.9677H78.6735H76.2772H71.3828H68.8336H67.2531H65.1627H63.3273H62.2567H59.9114H59.5035L57.5662 387.783L56.0366 388.089H54.4561L52.2128 388.547H51.0402L48.1341 389.261L46.1968 389.771L43.3926 390.587L41.5062 391.199L38.6512 392.218L36.8667 392.881C35.7961 393.238 34.7764 393.697 33.7567 394.105L32.5841 394.615H32.0742L27.6896 396.654L24.9875 398.591H24.1717H23.7129H23.407C20.7393 399.339 17.9043 399.232 15.3006 398.285C12.7466 396.981 10.6618 394.914 9.33545 392.371V392.371Z" fill="#FFB300"/>
<path d="M172.892 446.261C175.715 446.998 178.681 446.986 181.497 446.226C184.314 445.466 186.883 443.984 188.952 441.928C188.12 444.889 186.326 447.49 183.854 449.32C183.558 449.494 183.252 449.647 182.936 449.779V449.779C182.629 449.927 182.303 450.03 181.967 450.085C180.273 450.108 178.592 449.78 177.03 449.122C175.468 448.464 174.059 447.49 172.892 446.261V446.261Z" fill="#7D551F"/>
<path d="M506.479 430.864C506.479 470.853 490.597 509.204 462.326 537.485C434.054 565.766 395.708 581.661 355.72 581.674H351.386C390.532 580.427 427.658 564 454.907 535.868C482.157 507.736 497.394 470.107 497.394 430.941C497.394 391.775 482.157 354.145 454.907 326.013C427.658 297.882 390.532 281.454 351.386 280.207H355.72C395.686 280.207 434.017 296.077 462.287 324.327C490.557 352.578 506.452 390.898 506.479 430.864V430.864Z" fill="#235367"/>
<g opacity="0.5">
<path opacity="0.5" d="M505.409 176.506C500.932 174.571 496.064 173.711 491.195 173.994C486.326 174.277 481.59 175.696 477.368 178.138C475.777 173.341 473.904 168.642 471.76 164.066C470.23 160.701 468.599 157.387 466.661 154.124C448.628 120.345 418.737 94.4305 382.742 81.3703L382.028 62.4553L359.238 76.1189H356.536C354.803 76.1189 353.171 75.813 351.438 75.762L348.124 61.1807L347.155 57C346.033 57 344.912 57 343.841 57C322.632 58.6825 312.078 77.9544 310.447 81.2683C274.384 94.3108 244.444 120.272 226.425 154.124C224.59 157.387 222.958 160.701 221.327 164.066C219.191 168.646 217.318 173.344 215.719 178.138L214.852 177.628C210.697 175.412 206.097 174.161 201.393 173.967C196.688 173.773 192.001 174.641 187.678 176.506C162.645 186.193 155.915 227.49 176.206 252.982C182.563 261.707 191.469 268.244 201.698 271.693L201.392 273.12C199.897 280.039 199.145 287.098 199.149 294.177C199.235 313.616 204.859 332.627 215.362 348.984L206.695 366.319C203.599 372.434 202.802 379.457 204.449 386.11C206.096 392.763 210.077 398.604 215.668 402.568L268.385 440.296V577.035C268.385 584.849 270.017 592.577 273.178 599.723C262.981 602.476 246.921 608.9 240.446 622.819C238.498 627.097 236.32 631.267 233.92 635.31H233.512C232.492 634.443 231.422 633.525 230.504 632.658C229.454 631.425 228.154 630.428 226.69 629.735C225.225 629.043 223.63 628.669 222.011 628.64C220.391 628.611 218.784 628.927 217.295 629.567C215.807 630.207 214.472 631.156 213.379 632.351C212.285 633.546 211.459 634.961 210.954 636.5C210.449 638.039 210.278 639.668 210.451 641.279C210.624 642.89 211.138 644.445 211.958 645.842C212.778 647.239 213.887 648.445 215.209 649.381C228.108 661.26 232.951 661.26 235.602 661.26C242.995 661.26 250.184 656.162 261.349 632.2C264.204 626.031 277.256 621.442 285.159 620.32C286.219 620.171 287.25 619.861 288.218 619.403C298.3 628.183 311.2 633.05 324.569 633.117H368.619C382.076 633.125 395.086 628.293 405.277 619.505C405.671 619.705 406.08 619.875 406.5 620.014C416.697 623.175 432.808 631.027 435.969 637.91C442.546 652.032 446.828 661.362 457.892 661.362C460.492 661.362 465.336 661.362 478.285 649.483C479.528 648.521 480.557 647.312 481.309 645.932C482.061 644.552 482.518 643.031 482.652 641.465C482.786 639.899 482.595 638.323 482.089 636.835C481.583 635.347 480.774 633.98 479.714 632.821C478.653 631.661 477.364 630.734 475.927 630.098C474.49 629.462 472.937 629.13 471.365 629.125C469.794 629.119 468.238 629.439 466.797 630.065C465.355 630.691 464.059 631.608 462.99 632.76C462.124 633.576 461.155 634.443 460.186 635.208C459.319 633.474 458.249 631.282 456.923 628.325C450.193 613.794 430.667 604.617 419.909 600.488C423.295 593.098 425.035 585.061 425.007 576.933V405.373L431.839 416.742C443.463 408.483 482.007 414.499 479.713 396.348L478.081 349.239C488.591 332.904 494.216 313.907 494.294 294.483C494.299 287.404 493.547 280.345 492.051 273.426L491.745 272.05C501.98 268.559 510.884 261.987 517.237 253.237C537.172 227.439 530.238 186.193 505.409 176.506Z" fill="black"/>
</g>
<path d="M486.646 402.823L433.929 440.5L412.975 455.336L406.347 446.108L399.719 436.829L433.776 412.459L473.288 384.265C474.445 383.433 475.265 382.215 475.602 380.831C475.939 379.447 475.769 377.989 475.124 376.719L471.249 368.918L462.888 352.298L453.915 334.3L444.584 315.385L442.494 311.205L440.863 307.84L434.949 296.114L442.596 292.341L445.145 291.066L450.244 288.517L455.342 285.968L456.668 288.568L457.228 289.741L460.746 296.623L464.366 303.863L465.437 306.004L473.645 322.421L486.952 349.086L495.619 366.369C498.761 372.508 499.583 379.574 497.934 386.27C496.286 392.966 492.278 398.843 486.646 402.823V402.823Z" fill="#A16552"/>
<path d="M298.312 455.387L224.742 402.772C219.143 398.814 215.155 392.974 213.507 386.318C211.86 379.662 212.663 372.635 215.769 366.522L256.046 285.917L276.44 296.114L236.112 376.668C235.471 377.944 235.31 379.406 235.656 380.791C236.002 382.175 236.833 383.39 237.998 384.214L311.517 436.829L298.312 455.387Z" fill="#A16552"/>
<path d="M433.929 279.544V577.035C433.951 589.117 430.071 600.883 422.866 610.582C420.377 613.902 417.521 616.929 414.352 619.606C404.176 628.374 391.177 633.172 377.745 633.117H333.695C320.234 633.152 307.214 628.317 297.038 619.504C293.724 616.693 290.763 613.492 288.218 609.97C281.245 600.402 277.48 588.873 277.46 577.035V279.544H433.929Z" fill="#A16552"/>
<path d="M396.456 455.999C369.969 464.876 341.29 464.751 314.882 455.642C312.354 454.803 309.663 454.575 307.03 454.979C304.398 455.382 301.898 456.405 299.738 457.963C297.578 459.521 295.818 461.57 294.604 463.941C293.39 466.311 292.756 468.936 292.755 471.6V570.407C292.755 581.832 297.294 592.79 305.373 600.87C313.452 608.949 324.41 613.488 335.836 613.488H375.145C386.571 613.488 397.529 608.949 405.608 600.87C413.687 592.79 418.226 581.832 418.226 570.407V472.008C418.226 469.378 417.607 466.784 416.419 464.438C415.231 462.091 413.509 460.056 411.39 458.498C409.271 456.94 406.815 455.902 404.221 455.467C401.627 455.033 398.967 455.215 396.456 455.999V455.999Z" fill="#F5DCB4"/>
<path d="M467.018 661.414C455.955 661.414 451.723 652.084 445.095 637.961C441.883 631.078 425.619 623.176 415.626 620.066C412.9 619.038 410.67 617.008 409.392 614.39C408.114 611.772 407.884 608.765 408.751 605.983C409.617 603.202 411.514 600.856 414.052 599.427C416.591 597.998 419.58 597.594 422.407 598.296C428.168 600.08 457.229 609.971 465.794 628.427C467.12 631.282 468.191 633.526 469.057 635.259C470.026 634.494 470.995 633.628 471.862 632.812C472.93 631.66 474.227 630.742 475.668 630.116C477.11 629.49 478.665 629.17 480.237 629.176C481.808 629.182 483.361 629.513 484.798 630.149C486.235 630.785 487.525 631.712 488.585 632.872C489.646 634.032 490.454 635.398 490.96 636.886C491.466 638.374 491.658 639.951 491.523 641.516C491.389 643.082 490.932 644.603 490.18 645.983C489.429 647.363 488.399 648.572 487.157 649.535C474.462 661.414 469.618 661.414 467.018 661.414Z" fill="#A16552"/>
<path d="M244.371 661.413C241.771 661.413 236.978 661.413 223.977 649.534C222.036 647.442 220.952 644.696 220.942 641.841C220.932 638.987 221.995 636.233 223.922 634.127C225.848 632.021 228.496 630.716 231.34 630.473C234.184 630.229 237.016 631.064 239.272 632.811L242.535 635.615C245.1 631.518 247.432 627.279 249.52 622.92C258.697 603.088 287.554 598.499 290.817 598.04C293.727 597.796 296.619 598.675 298.901 600.497C301.182 602.319 302.679 604.946 303.084 607.837C303.488 610.729 302.77 613.666 301.077 616.044C299.383 618.423 296.843 620.062 293.978 620.626C286.076 621.748 273.024 626.336 270.169 632.505C259.003 656.468 251.763 661.413 244.371 661.413Z" fill="#A16552"/>
<path d="M222.244 186.855C219.318 197.556 217.81 208.595 217.757 219.689V221.983C217.873 235.388 216.367 248.758 213.271 261.802C205.831 258.895 199.375 253.925 194.662 247.475C178.704 227.235 184.006 194.656 203.941 187.11C209.843 184.575 216.503 184.447 222.499 186.753L222.244 186.855Z" fill="#A16552"/>
<path d="M222.244 186.855C219.318 197.556 217.81 208.595 217.757 219.689V221.983C217.873 235.388 216.367 248.758 213.271 261.802C205.831 258.895 199.375 253.925 194.662 247.475C178.704 227.235 184.006 194.656 203.941 187.11C209.843 184.575 216.503 184.447 222.499 186.753L222.244 186.855Z" fill="#F5DCB4"/>
<path d="M516.727 247.475C512.014 253.925 505.558 258.895 498.118 261.802C495.047 248.754 493.541 235.387 493.631 221.983V219.689C493.58 208.562 492.071 197.489 489.145 186.754C495.139 184.442 501.801 184.57 507.703 187.11C527.382 194.656 532.736 227.235 516.727 247.475Z" fill="#A16552"/>
<path d="M516.727 247.475C512.014 253.925 505.558 258.895 498.118 261.802C495.047 248.754 493.541 235.387 493.631 221.983V219.689C493.58 208.562 492.071 197.489 489.145 186.754C495.139 184.442 501.801 184.57 507.703 187.11C527.382 194.656 532.736 227.235 516.727 247.475Z" fill="#F5DCB4"/>
<path d="M455.343 262.21C452.443 266.691 450.584 271.765 449.905 277.059C449.226 282.353 449.742 287.732 451.417 292.8C454.229 300.157 455.947 307.887 456.515 315.743C456.515 363.311 411.446 401.906 355.873 401.906C300.301 401.906 254.925 363.362 254.925 315.794C255.473 307.935 257.191 300.202 260.024 292.851C261.699 287.783 262.215 282.404 261.536 277.11C260.856 271.816 258.998 266.742 256.098 262.261C254.679 260.086 253.434 257.801 252.376 255.429C249.04 248.276 247.3 240.482 247.278 232.588C247.463 224.877 249.167 217.278 252.291 210.225C255.416 203.173 259.9 196.806 265.488 191.488C271.076 186.17 277.657 182.006 284.855 179.235C292.053 176.463 299.728 175.137 307.439 175.334C318.157 175.301 328.7 178.06 338.029 183.338C343.412 186.404 349.5 188.017 355.695 188.017C361.89 188.017 367.978 186.404 373.361 183.338C382.704 178.099 393.24 175.36 403.951 175.384C437.142 175.384 464.061 200.876 464.061 232.588C464.039 240.482 462.299 248.276 458.963 255.429C457.915 257.771 456.706 260.037 455.343 262.21V262.21Z" fill="#A16552"/>
<path d="M455.343 262.21C452.443 266.691 450.584 271.765 449.905 277.059C449.226 282.353 449.742 287.732 451.417 292.8C454.229 300.157 455.947 307.887 456.515 315.743C456.515 363.311 411.446 401.906 355.873 401.906C300.301 401.906 254.925 363.362 254.925 315.794C255.473 307.935 257.191 300.202 260.024 292.851C261.699 287.783 262.215 282.404 261.536 277.11C260.856 271.816 258.998 266.742 256.098 262.261C254.679 260.086 253.434 257.801 252.376 255.429C249.04 248.276 247.3 240.482 247.278 232.588C247.463 224.877 249.167 217.278 252.291 210.225C255.416 203.173 259.9 196.806 265.488 191.488C271.076 186.17 277.657 182.006 284.855 179.235C292.053 176.463 299.728 175.137 307.439 175.334C318.157 175.301 328.7 178.06 338.029 183.338C343.412 186.404 349.5 188.017 355.695 188.017C361.89 188.017 367.978 186.404 373.361 183.338C382.704 178.099 393.24 175.36 403.951 175.384C437.142 175.384 464.061 200.876 464.061 232.588C464.039 240.482 462.299 248.276 458.963 255.429C457.915 257.771 456.706 260.037 455.343 262.21Z" fill="#F5DCB4"/>
<path d="M514.484 176.455C510.012 174.524 505.15 173.671 500.288 173.963C495.427 174.255 490.702 175.685 486.494 178.138C484.863 173.355 482.991 168.659 480.885 164.066C479.356 160.701 477.673 157.387 475.787 154.124C457.734 120.341 427.826 94.4282 391.817 81.3703V81.0644L391.154 62.4553L368.364 76.1189H365.611C363.929 76.1189 362.246 75.813 360.513 75.762L357.25 61.1807L356.281 57C355.108 57 354.038 57 352.967 57C331.758 58.8354 321.204 78.1073 319.522 81.4213C283.499 94.4517 253.571 120.348 235.5 154.124C233.716 157.387 232.033 160.701 230.402 164.066C228.274 168.65 226.402 173.347 224.794 178.138L223.927 177.628C219.771 175.418 215.174 174.167 210.473 173.964C205.771 173.761 201.083 174.612 196.753 176.455C171.719 186.193 164.99 227.439 185.23 252.931C191.601 261.641 200.503 268.175 210.722 271.642L210.416 273.069C208.901 279.985 208.149 287.046 208.173 294.126C208.173 337.054 235.806 374.731 277.409 396.093C283.516 399.213 289.817 401.937 296.273 404.251C307.934 408.442 320.023 411.331 332.319 412.867H333.95C340.634 413.672 347.357 414.115 354.089 414.193H355.669C382.818 414.347 409.618 408.075 433.878 395.889C447.781 388.914 460.441 379.699 471.351 368.613C477.203 362.597 482.43 356.004 486.953 348.933V348.933C488.227 346.894 489.502 344.804 490.623 342.662C491.745 340.521 492.867 338.38 493.835 336.187C494.804 333.995 495.773 331.803 496.639 329.56L497.863 326.195L498.934 322.779L499.851 319.516C499.845 319.397 499.845 319.278 499.851 319.159C500.463 316.916 500.973 314.672 501.381 312.429C501.381 311.256 501.84 310.084 501.993 308.86L502.452 305.342C502.452 304.272 502.452 303.201 502.757 302.13C502.757 302.13 502.757 301.824 502.757 301.62C502.757 300.601 502.757 299.53 502.757 298.459C502.782 298.307 502.782 298.152 502.757 298.001C502.757 296.828 502.757 295.655 502.757 294.432C502.765 287.35 501.995 280.289 500.463 273.375C500.386 272.911 500.284 272.452 500.157 271.999C510.382 268.515 519.284 261.964 525.649 253.237C546.298 227.439 539.517 186.193 514.484 176.455ZM222.244 186.652C219.318 197.353 217.81 208.392 217.758 219.485V221.78C217.874 235.185 216.367 248.555 213.271 261.598C205.831 258.691 199.375 253.721 194.662 247.272C178.704 227.235 184.058 194.656 203.941 187.111C209.843 184.586 216.492 184.44 222.499 186.703L222.244 186.652ZM433.929 370.041C423.719 380.36 411.527 388.507 398.087 393.992C384.646 399.477 370.235 402.186 355.72 401.957C340.109 401.988 324.655 398.849 310.294 392.728C297.94 387.418 286.776 379.687 277.46 369.99C263.224 355.517 255.148 336.093 254.925 315.794C255.494 307.938 257.212 300.208 260.023 292.851C261.698 287.783 262.215 282.404 261.536 277.11C260.856 271.816 258.998 266.742 256.098 262.261C250.501 253.37 247.499 243.093 247.43 232.588C247.805 217.041 254.335 202.279 265.587 191.543C276.838 180.808 291.891 174.978 307.438 175.333C318.15 175.309 328.686 178.048 338.029 183.287C345.171 187.385 353.519 188.863 361.634 187.468C365.767 186.806 369.742 185.389 373.361 183.287C382.703 178.048 393.24 175.309 403.951 175.333C419.49 174.978 434.535 180.801 445.785 191.525C457.035 202.25 463.571 216.999 463.959 232.537C463.938 240.431 462.198 248.225 458.86 255.378C457.782 257.74 456.538 260.023 455.139 262.21C450.086 269.984 448.258 279.419 450.04 288.518C450.346 289.945 450.754 291.424 451.213 292.851C454.025 300.208 455.743 307.938 456.311 315.794C456.327 322.035 455.557 328.253 454.017 334.301C450.462 347.726 443.549 360.025 433.929 370.041V370.041ZM516.778 247.68C512.047 254.133 505.574 259.103 498.118 262.006C495.047 248.958 493.541 235.591 493.631 222.188V219.893C493.609 208.744 492.083 197.648 489.094 186.907C495.119 184.646 501.783 184.792 507.703 187.315C527.383 194.656 532.736 227.235 516.778 247.476V247.68Z" fill="#A16552"/>
<path d="M337.081 281.181C334.648 280.069 331.774 281.141 330.663 283.574C329.551 286.007 330.623 288.88 333.056 289.992L344.232 295.097C346.665 296.208 349.539 295.137 350.65 292.704C351.762 290.271 350.69 287.397 348.257 286.286L337.081 281.181Z" fill="#4E3F3F"/>
<path d="M363.203 286.25C360.769 287.361 359.698 290.234 360.809 292.668C361.921 295.101 364.794 296.172 367.227 295.061L378.404 289.956C380.837 288.844 381.908 285.971 380.797 283.538C379.686 281.105 376.812 280.033 374.379 281.144L363.203 286.25Z" fill="#4E3F3F"/>
<path d="M303.972 255.378C301.769 255.439 299.575 255.065 297.517 254.278C295.458 253.491 293.575 252.306 291.975 250.791C290.374 249.276 289.088 247.461 288.19 245.448C287.292 243.436 286.799 241.266 286.739 239.063V233.608C286.859 229.154 288.741 224.93 291.972 221.862C295.202 218.794 299.518 217.132 303.972 217.242C308.426 217.132 312.741 218.794 315.972 221.862C319.202 224.93 321.084 229.154 321.204 233.608V239.063C321.145 241.266 320.652 243.436 319.754 245.448C318.855 247.461 317.569 249.276 315.969 250.791C314.368 252.306 312.485 253.491 310.427 254.278C308.368 255.065 306.175 255.439 303.972 255.378V255.378Z" fill="#4E3F3F"/>
<path d="M303.971 217.242V236.31C303.971 238.595 304.879 240.787 306.495 242.402C308.111 244.018 310.302 244.926 312.587 244.926C314.873 244.926 317.064 244.018 318.68 242.402C320.296 240.787 321.204 238.595 321.204 236.31V233.608C321.084 229.154 319.202 224.93 315.971 221.862C312.741 218.794 308.425 217.132 303.971 217.242Z" fill="#5D5360"/>
<path d="M303.972 233.608C307.153 233.608 309.733 231.165 309.733 228.153C309.733 225.14 307.153 222.697 303.972 222.697C300.79 222.697 298.21 225.14 298.21 228.153C298.21 231.165 300.79 233.608 303.972 233.608Z" fill="white"/>
<path d="M407.418 255.378C402.973 255.488 398.665 253.833 395.436 250.776C392.206 247.719 390.319 243.508 390.186 239.063V233.608C390.306 229.154 392.187 224.93 395.418 221.862C398.649 218.794 402.964 217.132 407.418 217.242C411.877 217.132 416.198 218.792 419.437 221.859C422.675 224.925 424.568 229.15 424.702 233.608V239.063C424.568 243.517 422.674 247.736 419.433 250.794C416.193 253.853 411.872 255.501 407.418 255.378Z" fill="#4E3F3F"/>
<path d="M355.5 371C362.956 371 369 364.956 369 357.5C369 350.044 362.956 344 355.5 344C348.044 344 342 350.044 342 357.5C342 364.956 348.044 371 355.5 371Z" fill="#4E3F3F"/>
<path d="M407.417 217.242V236.31C407.585 238.487 408.568 240.521 410.17 242.005C411.772 243.489 413.876 244.313 416.059 244.313C418.243 244.313 420.346 243.489 421.948 242.005C423.551 240.521 424.534 238.487 424.701 236.31V233.608C424.568 229.15 422.675 224.925 419.436 221.859C416.197 218.792 411.876 217.132 407.417 217.242V217.242Z" fill="#5D5360"/>
<path opacity="0.2" d="M514.483 176.455C510.012 174.524 505.15 173.671 500.288 173.963C495.426 174.255 490.701 175.685 486.493 178.138C484.863 173.356 482.991 168.659 480.885 164.066C479.356 160.701 477.673 157.387 475.787 154.124C457.734 120.342 427.826 94.4283 391.816 81.3704V81.0645C377.857 87.7026 366.928 99.3784 361.226 113.745C352.661 137.3 364.234 156.826 361.838 187.468C361.838 189.405 361.532 191.444 361.226 193.484C356.688 227.643 347.664 246.201 329.361 261.853C322.595 267.292 316.223 273.204 310.293 279.544C299.536 291.526 291.531 306.821 291.072 331.854C291.14 353.628 297.845 374.864 310.293 392.729C315.921 401.189 323.49 408.181 332.369 413.122C336.998 415.544 342.134 416.836 347.358 416.895C313.199 555.724 355.72 633.117 355.72 633.117H377.745C391.189 633.144 404.191 628.31 414.351 619.505L415.626 620.014C425.822 623.175 441.933 631.027 445.094 637.91C451.62 652.032 455.954 661.362 467.017 661.362C469.618 661.362 474.461 661.362 487.411 649.483C488.653 648.521 489.683 647.312 490.435 645.932C491.186 644.552 491.644 643.031 491.778 641.465C491.912 639.899 491.72 638.323 491.214 636.835C490.709 635.347 489.9 633.98 488.839 632.821C487.779 631.661 486.489 630.734 485.052 630.098C483.615 629.462 482.062 629.13 480.491 629.125C478.919 629.119 477.364 629.439 475.922 630.065C474.481 630.691 473.185 631.609 472.116 632.76C471.249 633.576 470.28 634.443 469.312 635.208C468.445 633.474 467.374 631.282 465.998 628.325C459.319 613.794 439.792 604.617 429.035 600.488C432.421 593.098 434.16 585.061 434.133 576.933V440.5L486.85 402.823C492.454 398.857 496.447 393.011 498.103 386.349C499.759 379.687 498.968 372.651 495.874 366.523L487.207 349.239C488.533 347.149 489.756 345.059 490.929 342.968C492.101 340.878 493.172 338.686 494.141 336.493C495.11 334.301 496.078 332.109 496.945 329.866L498.169 326.501L499.239 323.085L500.157 319.822C500.15 319.703 500.15 319.584 500.157 319.465C500.735 317.222 501.245 314.978 501.686 312.735C501.686 311.562 502.145 310.39 502.298 309.166L502.757 305.648C502.757 304.578 502.757 303.507 503.063 302.436C503.063 302.436 503.063 302.13 503.063 301.926C503.063 300.907 503.063 299.836 503.063 298.765C503.088 298.613 503.088 298.458 503.063 298.307C503.063 297.134 503.063 295.961 503.063 294.738C503.07 287.656 502.301 280.595 500.769 273.681C500.691 273.217 500.589 272.758 500.463 272.305C510.688 268.821 519.589 262.27 525.955 253.543C546.297 227.439 539.516 186.193 514.483 176.455ZM475.277 376.72C475.922 377.989 476.092 379.448 475.755 380.832C475.418 382.216 474.598 383.434 473.441 384.265L433.929 412.459V396.195C447.832 389.22 460.492 380.005 471.402 368.919L475.277 376.72Z" fill="#FFF9F8"/>
<path d="M407.418 233.608C410.6 233.608 413.179 231.165 413.179 228.153C413.179 225.14 410.6 222.697 407.418 222.697C404.236 222.697 401.657 225.14 401.657 228.153C401.657 231.165 404.236 233.608 407.418 233.608Z" fill="white"/>
<path opacity="0.2" d="M582.303 635.38C569.306 651.015 554.725 665.264 538.796 677.899C527.322 687.306 515.084 695.74 502.209 703.114C490.37 709.899 478.155 716.006 465.623 721.407C399.373 722.396 318.29 717.946 268.355 721.407C266.377 721.407 264.4 721.901 262.422 721.901C255.995 722.396 249.567 722.89 243.14 722.89C229.33 717.468 215.944 711.022 203.093 703.608C189.986 696.357 177.574 687.917 166.013 678.393C131.228 651.165 103.151 616.323 83.9409 576.545C84.4353 526.61 89.3794 472.72 97.7843 454.921C98.1663 454.035 98.6652 453.203 99.2675 452.449C118.549 422.29 241.162 416.852 355.371 421.796H356.359C388.99 423.279 420.632 425.751 449.308 428.718C452.274 429.212 454.746 429.212 457.218 429.707C509.131 435.145 548.684 442.561 558.572 449.483C578.348 463.326 584.775 564.68 582.303 635.38Z" fill="black"/>
<path d="M578.347 697.675C545.717 726.845 362.291 709.046 274.287 714.979C272.309 714.979 270.332 715.474 268.354 715.474C231.274 717.946 196.171 719.429 167.001 718.44C163.54 718.44 160.079 717.946 157.112 717.946C125.47 715.968 103.222 711.024 99.2668 700.641C96.7948 694.709 91.8507 643.785 90.3675 611.648V606.21C88.8842 548.858 93.3339 471.237 103.716 448.988C104.098 448.102 104.597 447.27 105.2 446.516C124.482 416.357 247.095 410.919 361.303 416.357H362.291C394.922 417.841 426.564 420.313 455.24 423.279C458.206 423.773 460.678 423.773 463.15 424.268C515.063 429.706 554.616 437.122 564.504 444.539C594.168 464.315 593.674 683.832 578.347 697.675Z" fill="#3995B5"/>
<path d="M170.58 518.274C171.14 515.462 171.14 512.565 170.58 509.754C169.388 501.993 165.285 495.001 159.131 490.237C152.976 485.474 145.245 483.309 137.554 484.194C134.857 484.61 132.224 485.374 129.717 486.466C128.476 487.02 127.34 487.789 126.359 488.738C126.147 488.962 125.987 489.232 125.89 489.526C125.793 489.821 125.762 490.134 125.799 490.442L123.56 491.578C123 491.578 123 492.146 123 492.714V493.282V493.85C123 494.418 123.56 494.418 124.12 494.418L126.359 493.282C126.976 493.88 127.756 494.276 128.598 494.418H129.717C136.706 493.441 143.818 494.797 149.981 498.28C158.489 503.108 162.632 519.58 166.774 521C170.021 520.83 170.58 518.842 170.58 518.274Z" stroke="#FFD54F" stroke-opacity="0.4" stroke-width="3" stroke-miterlimit="10"/>
<path d="M112.906 524.029C111.28 526.366 110.138 529.005 109.546 531.791C107.587 539.338 108.619 547.35 112.428 554.151C116.236 560.953 122.526 566.019 129.982 568.289C132.638 568.989 135.373 569.347 138.12 569.354C139.485 569.346 140.838 569.1 142.119 568.628C142.403 568.508 142.657 568.327 142.863 568.097C143.069 567.867 143.221 567.595 143.309 567.299L145.826 567.16C146.343 567.384 146.567 566.867 146.791 566.349L147.015 565.832L147.239 565.314C147.463 564.797 146.946 564.573 146.429 564.349L143.912 564.488C143.577 563.697 143.012 563.024 142.291 562.557L141.256 562.11C134.413 560.204 128.376 556.123 124.055 550.484C118.097 542.682 120.766 526.018 117.499 523.067C114.432 521.924 113.13 523.511 112.906 524.029Z" stroke="#FFD54F" stroke-opacity="0.4" stroke-width="3" stroke-miterlimit="10"/>
<path d="M141.187 540.8C142.791 543.153 144.849 545.161 147.24 546.708C153.593 551.229 161.446 553.121 169.159 551.989C176.871 550.857 183.847 546.787 188.627 540.631C190.228 538.399 191.537 535.972 192.524 533.408C193.003 532.13 193.256 530.778 193.272 529.412C193.261 529.104 193.182 528.802 193.041 528.528C192.9 528.254 192.699 528.015 192.455 527.827L193.222 525.426C193.616 525.023 193.212 524.629 192.809 524.235L192.405 523.841L192.002 523.448C191.598 523.054 191.204 523.457 190.811 523.86L190.043 526.262C189.184 526.292 188.354 526.58 187.661 527.088L186.874 527.894C182.653 533.608 176.688 537.793 169.879 539.819C160.465 542.602 145.849 534.166 141.927 536.167C139.764 538.624 140.783 540.406 141.187 540.8Z" stroke="#FFD54F" stroke-opacity="0.4" stroke-width="3" stroke-miterlimit="10"/>
<path d="M227.58 617.274C228.14 614.462 228.14 611.565 227.58 608.754C226.388 600.993 222.285 594.001 216.131 589.237C209.976 584.474 202.245 582.309 194.554 583.194C191.857 583.61 189.224 584.374 186.717 585.466C185.476 586.02 184.34 586.789 183.359 587.738C183.147 587.962 182.987 588.232 182.89 588.526C182.793 588.821 182.762 589.134 182.799 589.442L180.56 590.578C180 590.578 180 591.146 180 591.714V592.282V592.85C180 593.418 180.56 593.418 181.12 593.418L183.359 592.282C183.976 592.88 184.756 593.276 185.598 593.418H186.717C193.706 592.441 200.818 593.797 206.981 597.28C215.489 602.108 219.632 618.58 223.774 620C227.021 619.83 227.58 617.842 227.58 617.274Z" stroke="#FFD54F" stroke-opacity="0.4" stroke-width="3" stroke-miterlimit="10"/>
<path d="M169.906 623.029C168.28 625.366 167.138 628.005 166.546 630.791C164.587 638.338 165.619 646.35 169.428 653.151C173.236 659.953 179.526 665.019 186.982 667.289C189.638 667.989 192.373 668.347 195.12 668.354C196.485 668.346 197.838 668.1 199.119 667.628C199.403 667.508 199.657 667.327 199.863 667.097C200.069 666.867 200.221 666.595 200.309 666.299L202.826 666.16C203.343 666.384 203.567 665.867 203.791 665.349L204.015 664.832L204.239 664.314C204.463 663.797 203.946 663.573 203.429 663.349L200.912 663.488C200.577 662.697 200.012 662.024 199.291 661.557L198.256 661.11C191.413 659.204 185.376 655.123 181.055 649.484C175.097 641.682 177.766 625.018 174.499 622.067C171.432 620.924 170.13 622.511 169.906 623.029Z" stroke="#FFD54F" stroke-opacity="0.4" stroke-width="3" stroke-miterlimit="10"/>
<path d="M198.187 639.8C199.791 642.153 201.849 644.161 204.24 645.708C210.593 650.229 218.446 652.121 226.159 650.989C233.871 649.857 240.847 645.787 245.627 639.631C247.228 637.399 248.537 634.972 249.524 632.408C250.003 631.13 250.256 629.778 250.272 628.412C250.261 628.104 250.182 627.802 250.041 627.528C249.9 627.254 249.699 627.015 249.455 626.827L250.222 624.426C250.616 624.023 250.212 623.629 249.809 623.235L249.405 622.841L249.002 622.448C248.598 622.054 248.204 622.457 247.811 622.86L247.043 625.262C246.184 625.292 245.354 625.58 244.661 626.088L243.874 626.894C239.653 632.608 233.688 636.793 226.879 638.819C217.465 641.602 202.849 633.166 198.927 635.167C196.764 637.624 197.783 639.406 198.187 639.8Z" stroke="#FFD54F" stroke-opacity="0.4" stroke-width="3" stroke-miterlimit="10"/>
<path d="M287.58 517.274C288.14 514.462 288.14 511.565 287.58 508.754C286.388 500.993 282.285 494.001 276.131 489.237C269.976 484.474 262.245 482.309 254.554 483.194C251.857 483.61 249.224 484.374 246.717 485.466C245.476 486.02 244.34 486.789 243.359 487.738C243.147 487.962 242.987 488.232 242.89 488.526C242.793 488.821 242.762 489.134 242.799 489.442L240.56 490.578C240 490.578 240 491.146 240 491.714V492.282V492.85C240 493.418 240.56 493.418 241.12 493.418L243.359 492.282C243.976 492.88 244.756 493.276 245.598 493.418H246.717C253.706 492.441 260.818 493.797 266.981 497.28C275.489 502.108 279.632 518.58 283.774 520C287.021 519.83 287.58 517.842 287.58 517.274Z" stroke="#FFD54F" stroke-opacity="0.4" stroke-width="3" stroke-miterlimit="10"/>
<path d="M229.906 523.029C228.28 525.366 227.138 528.005 226.546 530.791C224.587 538.338 225.619 546.35 229.428 553.151C233.236 559.953 239.526 565.019 246.982 567.289C249.638 567.989 252.373 568.347 255.12 568.354C256.485 568.346 257.838 568.1 259.119 567.628C259.403 567.508 259.657 567.327 259.863 567.097C260.069 566.867 260.221 566.595 260.309 566.299L262.826 566.16C263.343 566.384 263.567 565.867 263.791 565.349L264.015 564.832L264.239 564.314C264.463 563.797 263.946 563.573 263.429 563.349L260.912 563.488C260.577 562.697 260.012 562.024 259.291 561.557L258.256 561.11C251.413 559.204 245.376 555.123 241.055 549.484C235.097 541.682 237.766 525.018 234.499 522.067C231.432 520.924 230.13 522.511 229.906 523.029Z" stroke="#FFD54F" stroke-opacity="0.4" stroke-width="3" stroke-miterlimit="10"/>
<path d="M258.187 539.8C259.791 542.153 261.849 544.161 264.24 545.708C270.593 550.229 278.446 552.121 286.159 550.989C293.871 549.857 300.847 545.787 305.627 539.631C307.228 537.399 308.537 534.972 309.524 532.408C310.003 531.13 310.256 529.778 310.272 528.412C310.261 528.104 310.182 527.802 310.041 527.528C309.9 527.254 309.699 527.015 309.455 526.827L310.222 524.426C310.616 524.023 310.212 523.629 309.809 523.235L309.405 522.841L309.002 522.448C308.598 522.054 308.204 522.457 307.811 522.86L307.043 525.262C306.184 525.292 305.354 525.58 304.661 526.088L303.874 526.894C299.653 532.608 293.688 536.793 286.879 538.819C277.465 541.602 262.849 533.166 258.927 535.167C256.764 537.624 257.783 539.406 258.187 539.8Z" stroke="#FFD54F" stroke-opacity="0.4" stroke-width="3" stroke-miterlimit="10"/>
<path d="M347.58 607.274C348.14 604.462 348.14 601.565 347.58 598.754C346.388 590.993 342.285 584.001 336.131 579.237C329.976 574.474 322.245 572.309 314.554 573.194C311.857 573.61 309.224 574.374 306.717 575.466C305.476 576.02 304.34 576.789 303.359 577.738C303.147 577.962 302.987 578.232 302.89 578.526C302.793 578.821 302.762 579.134 302.799 579.442L300.56 580.578C300 580.578 300 581.146 300 581.714V582.282V582.85C300 583.418 300.56 583.418 301.12 583.418L303.359 582.282C303.976 582.88 304.756 583.276 305.598 583.418H306.717C313.706 582.441 320.818 583.797 326.981 587.28C335.489 592.108 339.632 608.58 343.774 610C347.021 609.83 347.58 607.842 347.58 607.274Z" stroke="#FFD54F" stroke-opacity="0.4" stroke-width="3" stroke-miterlimit="10"/>
<path d="M289.906 613.029C288.28 615.366 287.138 618.005 286.546 620.791C284.587 628.338 285.619 636.35 289.428 643.151C293.236 649.953 299.526 655.019 306.982 657.289C309.638 657.989 312.373 658.347 315.12 658.354C316.485 658.346 317.838 658.1 319.119 657.628C319.403 657.508 319.657 657.327 319.863 657.097C320.069 656.867 320.221 656.595 320.309 656.299L322.826 656.16C323.343 656.384 323.567 655.867 323.791 655.349L324.015 654.832L324.239 654.314C324.463 653.797 323.946 653.573 323.429 653.349L320.912 653.488C320.577 652.697 320.012 652.024 319.291 651.557L318.256 651.11C311.413 649.204 305.376 645.123 301.055 639.484C295.097 631.682 297.766 615.018 294.499 612.067C291.432 610.924 290.13 612.511 289.906 613.029Z" stroke="#FFD54F" stroke-opacity="0.4" stroke-width="3" stroke-miterlimit="10"/>
<path d="M318.187 629.8C319.791 632.153 321.849 634.161 324.24 635.708C330.593 640.229 338.446 642.121 346.159 640.989C353.871 639.857 360.847 635.787 365.627 629.631C367.228 627.399 368.537 624.972 369.524 622.408C370.003 621.13 370.256 619.778 370.272 618.412C370.261 618.104 370.182 617.802 370.041 617.528C369.9 617.254 369.699 617.015 369.455 616.827L370.222 614.426C370.616 614.023 370.212 613.629 369.809 613.235L369.405 612.841L369.002 612.448C368.598 612.054 368.204 612.457 367.811 612.86L367.043 615.262C366.184 615.292 365.354 615.58 364.661 616.088L363.874 616.894C359.653 622.608 353.688 626.793 346.879 628.819C337.465 631.602 322.849 623.166 318.927 625.167C316.764 627.624 317.783 629.406 318.187 629.8Z" stroke="#FFD54F" stroke-opacity="0.4" stroke-width="3" stroke-miterlimit="10"/>
<path d="M417.58 517.274C418.14 514.462 418.14 511.565 417.58 508.754C416.388 500.993 412.285 494.001 406.131 489.237C399.976 484.474 392.245 482.309 384.554 483.194C381.857 483.61 379.224 484.374 376.717 485.466C375.476 486.02 374.34 486.789 373.359 487.738C373.147 487.962 372.987 488.232 372.89 488.526C372.793 488.821 372.762 489.134 372.799 489.442L370.56 490.578C370 490.578 370 491.146 370 491.714V492.282V492.85C370 493.418 370.56 493.418 371.12 493.418L373.359 492.282C373.976 492.88 374.756 493.276 375.598 493.418H376.717C383.706 492.441 390.818 493.797 396.981 497.28C405.489 502.108 409.632 518.58 413.774 520C417.021 519.83 417.58 517.842 417.58 517.274Z" stroke="#FFD54F" stroke-opacity="0.4" stroke-width="3" stroke-miterlimit="10"/>
<path d="M359.906 523.029C358.28 525.366 357.138 528.005 356.546 530.791C354.587 538.338 355.619 546.35 359.428 553.151C363.236 559.953 369.526 565.019 376.982 567.289C379.638 567.989 382.373 568.347 385.12 568.354C386.485 568.346 387.838 568.1 389.119 567.628C389.403 567.508 389.657 567.327 389.863 567.097C390.069 566.867 390.221 566.595 390.309 566.299L392.826 566.16C393.343 566.384 393.567 565.867 393.791 565.349L394.015 564.832L394.239 564.314C394.463 563.797 393.946 563.573 393.429 563.349L390.912 563.488C390.577 562.697 390.012 562.024 389.291 561.557L388.256 561.11C381.413 559.204 375.376 555.123 371.055 549.484C365.097 541.682 367.766 525.018 364.499 522.067C361.432 520.924 360.13 522.511 359.906 523.029Z" stroke="#FFD54F" stroke-opacity="0.4" stroke-width="3" stroke-miterlimit="10"/>
<path d="M388.187 539.8C389.791 542.153 391.849 544.161 394.24 545.708C400.593 550.229 408.446 552.121 416.159 550.989C423.871 549.857 430.847 545.787 435.627 539.631C437.228 537.399 438.537 534.972 439.524 532.408C440.003 531.13 440.256 529.778 440.272 528.412C440.261 528.104 440.182 527.802 440.041 527.528C439.9 527.254 439.699 527.015 439.455 526.827L440.222 524.426C440.616 524.023 440.212 523.629 439.809 523.235L439.405 522.841L439.002 522.448C438.598 522.054 438.204 522.457 437.811 522.86L437.043 525.262C436.184 525.292 435.354 525.58 434.661 526.088L433.874 526.894C429.653 532.608 423.688 536.793 416.879 538.819C407.465 541.602 392.849 533.166 388.927 535.167C386.764 537.624 387.783 539.406 388.187 539.8Z" stroke="#FFD54F" stroke-opacity="0.4" stroke-width="3" stroke-miterlimit="10"/>
<path d="M517.58 547.274C518.14 544.462 518.14 541.565 517.58 538.754C516.388 530.993 512.285 524.001 506.131 519.237C499.976 514.474 492.245 512.309 484.554 513.194C481.857 513.61 479.224 514.374 476.717 515.466C475.476 516.02 474.34 516.789 473.359 517.738C473.147 517.962 472.987 518.232 472.89 518.526C472.793 518.821 472.762 519.134 472.799 519.442L470.56 520.578C470 520.578 470 521.146 470 521.714V522.282V522.85C470 523.418 470.56 523.418 471.12 523.418L473.359 522.282C473.976 522.88 474.756 523.276 475.598 523.418H476.717C483.706 522.441 490.818 523.797 496.981 527.28C505.489 532.108 509.632 548.58 513.774 550C517.021 549.83 517.58 547.842 517.58 547.274Z" stroke="#FFD54F" stroke-opacity="0.4" stroke-width="3" stroke-miterlimit="10"/>
<path d="M459.906 553.029C458.28 555.366 457.138 558.005 456.546 560.791C454.587 568.338 455.619 576.35 459.428 583.151C463.236 589.953 469.526 595.019 476.982 597.289C479.638 597.989 482.373 598.347 485.12 598.354C486.485 598.346 487.838 598.1 489.119 597.628C489.403 597.508 489.657 597.327 489.863 597.097C490.069 596.867 490.221 596.595 490.309 596.299L492.826 596.16C493.343 596.384 493.567 595.867 493.791 595.349L494.015 594.832L494.239 594.314C494.463 593.797 493.946 593.573 493.429 593.349L490.912 593.488C490.577 592.697 490.012 592.024 489.291 591.557L488.256 591.11C481.413 589.204 475.376 585.123 471.055 579.484C465.097 571.682 467.766 555.018 464.499 552.067C461.432 550.924 460.13 552.511 459.906 553.029Z" stroke="#FFD54F" stroke-opacity="0.4" stroke-width="3" stroke-miterlimit="10"/>
<path d="M488.187 569.8C489.791 572.153 491.849 574.161 494.24 575.708C500.593 580.229 508.446 582.121 516.159 580.989C523.871 579.857 530.847 575.787 535.627 569.631C537.228 567.399 538.537 564.972 539.524 562.408C540.003 561.13 540.256 559.778 540.272 558.412C540.261 558.104 540.182 557.802 540.041 557.528C539.9 557.254 539.699 557.015 539.455 556.827L540.222 554.426C540.616 554.023 540.212 553.629 539.809 553.235L539.405 552.841L539.002 552.448C538.598 552.054 538.204 552.457 537.811 552.86L537.043 555.262C536.184 555.292 535.354 555.58 534.661 556.088L533.874 556.894C529.653 562.608 523.688 566.793 516.879 568.819C507.465 571.602 492.849 563.166 488.927 565.167C486.764 567.624 487.783 569.406 488.187 569.8Z" stroke="#FFD54F" stroke-opacity="0.4" stroke-width="3" stroke-miterlimit="10"/>
<path d="M557.58 647.274C558.14 644.462 558.14 641.565 557.58 638.754C556.388 630.993 552.285 624.001 546.131 619.237C539.976 614.474 532.245 612.309 524.554 613.194C521.857 613.61 519.224 614.374 516.717 615.466C515.476 616.02 514.34 616.789 513.359 617.738C513.147 617.962 512.987 618.232 512.89 618.526C512.793 618.821 512.762 619.134 512.799 619.442L510.56 620.578C510 620.578 510 621.146 510 621.714V622.282V622.85C510 623.418 510.56 623.418 511.12 623.418L513.359 622.282C513.976 622.88 514.756 623.276 515.598 623.418H516.717C523.706 622.441 530.818 623.797 536.981 627.28C545.489 632.108 549.632 648.58 553.774 650C557.021 649.83 557.58 647.842 557.58 647.274Z" stroke="#FFD54F" stroke-opacity="0.4" stroke-width="3" stroke-miterlimit="10"/>
<path d="M499.906 653.029C498.28 655.366 497.138 658.005 496.546 660.791C494.587 668.338 495.619 676.35 499.428 683.151C503.236 689.953 509.526 695.019 516.982 697.289C519.638 697.989 522.373 698.347 525.12 698.354C526.485 698.346 527.838 698.1 529.119 697.628C529.403 697.508 529.657 697.327 529.863 697.097C530.069 696.867 530.221 696.595 530.309 696.299L532.826 696.16C533.343 696.384 533.567 695.867 533.791 695.349L534.015 694.832L534.239 694.314C534.463 693.797 533.946 693.573 533.429 693.349L530.912 693.488C530.577 692.697 530.012 692.024 529.291 691.557L528.256 691.11C521.413 689.204 515.376 685.123 511.055 679.484C505.097 671.682 507.766 655.018 504.499 652.067C501.432 650.924 500.13 652.511 499.906 653.029Z" stroke="#FFD54F" stroke-opacity="0.4" stroke-width="3" stroke-miterlimit="10"/>
<path d="M528.187 669.8C529.791 672.153 531.849 674.161 534.24 675.708C540.593 680.229 548.446 682.121 556.159 680.989C563.871 679.857 570.847 675.787 575.627 669.631C577.228 667.399 578.537 664.972 579.524 662.408C580.003 661.13 580.256 659.778 580.272 658.412C580.261 658.104 580.182 657.802 580.041 657.528C579.9 657.254 579.699 657.015 579.455 656.827L580.222 654.426C580.616 654.023 580.212 653.629 579.809 653.235L579.405 652.841L579.002 652.448C578.598 652.054 578.204 652.457 577.811 652.86L577.043 655.262C576.184 655.292 575.354 655.58 574.661 656.088L573.874 656.894C569.653 662.608 563.688 666.793 556.879 668.819C547.465 671.602 532.849 663.166 528.927 665.167C526.764 667.624 527.783 669.406 528.187 669.8Z" stroke="#FFD54F" stroke-opacity="0.4" stroke-width="3" stroke-miterlimit="10"/>
<path d="M457.58 637.274C458.14 634.462 458.14 631.565 457.58 628.754C456.388 620.993 452.285 614.001 446.131 609.237C439.976 604.474 432.245 602.309 424.554 603.194C421.857 603.61 419.224 604.374 416.717 605.466C415.476 606.02 414.34 606.789 413.359 607.738C413.147 607.962 412.987 608.232 412.89 608.526C412.793 608.821 412.762 609.134 412.799 609.442L410.56 610.578C410 610.578 410 611.146 410 611.714V612.282V612.85C410 613.418 410.56 613.418 411.12 613.418L413.359 612.282C413.976 612.88 414.756 613.276 415.598 613.418H416.717C423.706 612.441 430.818 613.797 436.981 617.28C445.489 622.108 449.632 638.58 453.774 640C457.021 639.83 457.58 637.842 457.58 637.274Z" stroke="#FFD54F" stroke-opacity="0.4" stroke-width="3" stroke-miterlimit="10"/>
<path d="M399.906 643.029C398.28 645.366 397.138 648.005 396.546 650.791C394.587 658.338 395.619 666.35 399.428 673.151C403.236 679.953 409.526 685.019 416.982 687.289C419.638 687.989 422.373 688.347 425.12 688.354C426.485 688.346 427.838 688.1 429.119 687.628C429.403 687.508 429.657 687.327 429.863 687.097C430.069 686.867 430.221 686.595 430.309 686.299L432.826 686.16C433.343 686.384 433.567 685.867 433.791 685.349L434.015 684.832L434.239 684.314C434.463 683.797 433.946 683.573 433.429 683.349L430.912 683.488C430.577 682.697 430.012 682.024 429.291 681.557L428.256 681.11C421.413 679.204 415.376 675.123 411.055 669.484C405.097 661.682 407.766 645.018 404.499 642.067C401.432 640.924 400.13 642.511 399.906 643.029Z" stroke="#FFD54F" stroke-opacity="0.4" stroke-width="3" stroke-miterlimit="10"/>
<path d="M428.187 659.8C429.791 662.153 431.849 664.161 434.24 665.708C440.593 670.229 448.446 672.121 456.159 670.989C463.871 669.857 470.847 665.787 475.627 659.631C477.228 657.399 478.537 654.972 479.524 652.408C480.003 651.13 480.256 649.778 480.272 648.412C480.261 648.104 480.182 647.802 480.041 647.528C479.9 647.254 479.699 647.015 479.455 646.827L480.222 644.426C480.616 644.023 480.212 643.629 479.809 643.235L479.405 642.841L479.002 642.448C478.598 642.054 478.204 642.457 477.811 642.86L477.043 645.262C476.184 645.292 475.354 645.58 474.661 646.088L473.874 646.894C469.653 652.608 463.688 656.793 456.879 658.819C447.465 661.602 432.849 653.166 428.927 655.167C426.764 657.624 427.783 659.406 428.187 659.8Z" stroke="#FFD54F" stroke-opacity="0.4" stroke-width="3" stroke-miterlimit="10"/>
<path d="M148.58 673.274C149.14 670.462 149.14 667.565 148.58 664.754C147.388 656.993 143.285 650.001 137.131 645.237C130.976 640.474 123.245 638.309 115.554 639.194C112.857 639.61 110.224 640.374 107.717 641.466C106.476 642.02 105.34 642.789 104.359 643.738C104.147 643.962 103.987 644.232 103.89 644.526C103.793 644.821 103.762 645.134 103.799 645.442L101.56 646.578C101 646.578 101 647.146 101 647.714V648.282V648.85C101 649.418 101.56 649.418 102.12 649.418L104.359 648.282C104.976 648.88 105.756 649.276 106.598 649.418H107.717C114.706 648.441 121.818 649.797 127.981 653.28C136.489 658.108 140.632 674.58 144.774 676C148.021 675.83 148.58 673.842 148.58 673.274Z" stroke="#FFD54F" stroke-opacity="0.4" stroke-width="3" stroke-miterlimit="10"/>
<path d="M292.58 699.274C293.14 696.462 293.14 693.565 292.58 690.754C291.388 682.993 287.285 676.001 281.131 671.237C274.976 666.474 267.245 664.309 259.554 665.194C256.857 665.61 254.224 666.374 251.717 667.466C250.476 668.02 249.34 668.789 248.359 669.738C248.147 669.962 247.987 670.232 247.89 670.526C247.793 670.821 247.762 671.134 247.799 671.442L245.56 672.578C245 672.578 245 673.146 245 673.714V674.282V674.85C245 675.418 245.56 675.418 246.12 675.418L248.359 674.282C248.976 674.88 249.756 675.276 250.598 675.418H251.717C258.706 674.441 265.818 675.797 271.981 679.28C280.489 684.108 284.632 700.58 288.774 702C292.021 701.83 292.58 699.842 292.58 699.274Z" stroke="#FFD54F" stroke-opacity="0.4" stroke-width="3" stroke-miterlimit="10"/>
<path d="M581.58 555.274C582.14 552.462 582.14 549.565 581.58 546.754C580.388 538.993 576.285 532.001 570.131 527.237C563.976 522.474 556.245 520.309 548.554 521.194C545.857 521.61 543.224 522.374 540.717 523.466C539.476 524.02 538.34 524.789 537.359 525.738C537.147 525.962 536.987 526.232 536.89 526.526C536.793 526.821 536.762 527.134 536.799 527.442L534.56 528.578C534 528.578 534 529.146 534 529.714V530.282V530.85C534 531.418 534.56 531.418 535.12 531.418L537.359 530.282C537.976 530.88 538.756 531.276 539.598 531.418H540.717C547.706 530.441 554.818 531.797 560.981 535.28C569.489 540.108 573.632 556.58 577.774 558C581.021 557.83 581.58 555.842 581.58 555.274Z" stroke="#FFD54F" stroke-opacity="0.4" stroke-width="3" stroke-miterlimit="10"/>
<path d="M119.187 695.8C120.791 698.153 122.849 700.161 125.24 701.708C131.593 706.229 139.446 708.121 147.159 706.989C154.871 705.857 161.847 701.787 166.627 695.631C168.228 693.399 169.537 690.972 170.524 688.408C171.003 687.13 171.256 685.778 171.272 684.412C171.261 684.104 171.182 683.802 171.041 683.528C170.9 683.254 170.699 683.015 170.455 682.827L171.222 680.426C171.616 680.023 171.212 679.629 170.809 679.235L170.405 678.841L170.002 678.448C169.598 678.054 169.204 678.457 168.811 678.86L168.043 681.262C167.184 681.292 166.354 681.58 165.661 682.088L164.874 682.894C160.653 688.608 154.688 692.793 147.879 694.819C138.465 697.602 123.849 689.166 119.927 691.167C117.764 693.624 118.783 695.406 119.187 695.8Z" stroke="#FFD54F" stroke-opacity="0.4" stroke-width="3" stroke-miterlimit="10"/>
<path d="M106.232 600.178C107.836 602.531 109.894 604.539 112.286 606.086C118.638 610.607 126.491 612.499 134.204 611.367C141.917 610.235 148.892 606.165 153.672 600.009C155.273 597.777 156.583 595.35 157.569 592.786C158.048 591.508 158.301 590.156 158.317 588.79C158.306 588.482 158.228 588.18 158.086 587.906C157.945 587.632 157.745 587.393 157.5 587.205L158.268 584.804C158.661 584.401 158.258 584.007 157.854 583.613L157.451 583.219L157.047 582.825C156.644 582.432 156.25 582.835 155.856 583.238L155.089 585.64C154.23 585.67 153.4 585.957 152.707 586.465L151.92 587.272C147.698 592.986 141.734 597.171 134.924 599.197C125.51 601.98 110.894 593.544 106.972 595.544C104.81 598.002 105.829 599.784 106.232 600.178Z" stroke="#FFD54F" stroke-opacity="0.4" stroke-width="3" stroke-miterlimit="10"/>
<path d="M323.232 690.178C324.836 692.531 326.894 694.539 329.286 696.086C335.638 700.607 343.491 702.499 351.204 701.367C358.917 700.235 365.892 696.165 370.672 690.009C372.273 687.777 373.583 685.35 374.569 682.786C375.048 681.508 375.301 680.156 375.317 678.79C375.306 678.482 375.228 678.18 375.086 677.906C374.945 677.632 374.745 677.393 374.5 677.205L375.268 674.804C375.661 674.401 375.258 674.007 374.854 673.613L374.451 673.219L374.047 672.825C373.644 672.432 373.25 672.835 372.856 673.238L372.089 675.64C371.23 675.67 370.4 675.957 369.707 676.465L368.92 677.272C364.698 682.986 358.734 687.171 351.924 689.197C342.51 691.98 327.894 683.544 323.972 685.544C321.81 688.002 322.829 689.784 323.232 690.178Z" stroke="#FFD54F" stroke-opacity="0.4" stroke-width="3" stroke-miterlimit="10"/>
<path d="M191.232 701.178C192.836 703.531 194.894 705.539 197.286 707.086C203.638 711.607 211.491 713.499 219.204 712.367C226.917 711.235 233.892 707.165 238.672 701.009C240.273 698.777 241.583 696.35 242.569 693.786C243.048 692.508 243.301 691.156 243.317 689.79C243.306 689.482 243.228 689.18 243.086 688.906C242.945 688.632 242.745 688.393 242.5 688.205L243.268 685.804C243.661 685.401 243.258 685.007 242.854 684.613L242.451 684.219L242.047 683.825C241.644 683.432 241.25 683.835 240.856 684.238L240.089 686.64C239.23 686.67 238.4 686.957 237.707 687.465L236.92 688.272C232.698 693.986 226.734 698.171 219.924 700.197C210.51 702.98 195.894 694.544 191.972 696.544C189.81 699.002 190.829 700.784 191.232 701.178Z" stroke="#FFD54F" stroke-opacity="0.4" stroke-width="3" stroke-miterlimit="10"/>
<path d="M529.232 593.178C530.836 595.531 532.894 597.539 535.286 599.086C541.638 603.607 549.491 605.499 557.204 604.367C564.917 603.235 571.892 599.165 576.672 593.009C578.273 590.777 579.583 588.35 580.569 585.786C581.048 584.508 581.301 583.156 581.317 581.79C581.306 581.482 581.228 581.18 581.086 580.906C580.945 580.632 580.745 580.393 580.5 580.205L581.268 577.804C581.661 577.401 581.258 577.007 580.854 576.613L580.451 576.219L580.047 575.825C579.644 575.432 579.25 575.835 578.856 576.238L578.089 578.64C577.23 578.67 576.4 578.957 575.707 579.465L574.92 580.272C570.698 585.986 564.734 590.171 557.924 592.197C548.51 594.98 533.894 586.544 529.972 588.544C527.81 591.002 528.829 592.784 529.232 593.178Z" stroke="#FFD54F" stroke-opacity="0.4" stroke-width="3" stroke-miterlimit="10"/>
<path d="M481.656 438.2C480.781 442.531 480.781 446.994 481.656 451.325C483.519 463.281 489.929 474.053 499.546 481.391C509.162 488.729 521.242 492.065 533.259 490.701C537.473 490.06 541.588 488.884 545.504 487.201C547.443 486.347 549.219 485.163 550.752 483.701C551.083 483.355 551.333 482.941 551.484 482.487C551.635 482.033 551.684 481.551 551.627 481.076L555.125 479.326C556 479.326 556 478.451 556 477.576L556 476.701L556 475.826C556 474.951 555.125 474.951 554.251 474.951L550.752 476.701C549.788 475.78 548.569 475.17 547.254 474.951L545.504 474.951C534.585 476.455 523.472 474.367 513.842 469.001C500.548 461.563 494.076 436.188 487.603 434C482.53 434.262 481.656 437.325 481.656 438.2Z" stroke="#FFD54F" stroke-opacity="0.5" stroke-width="3" stroke-miterlimit="10"/>
<path d="M564.505 443.549C537.312 514.25 308.896 530.565 215.948 519.194C171.451 513.755 121.021 475.192 103.223 448.988L104.706 446.022C123.988 415.863 246.601 410.424 360.809 415.863L386.024 417.346C423.599 418.829 539.784 426.245 564.505 443.549Z" fill="white"/>
<path opacity="0.2" d="M578.348 697.676C545.717 726.846 362.292 709.047 274.288 714.98C272.31 714.98 270.332 715.475 268.355 715.475C263.905 715.969 258.961 715.969 254.511 716.463L362.292 415.864C394.923 417.347 426.565 419.819 455.241 422.785C457.713 423.28 460.679 423.28 463.151 423.774C515.064 429.213 554.616 436.629 564.505 444.045C594.169 464.316 594.169 683.832 578.348 697.676Z" fill="white"/>
<g opacity="0.5">
<path opacity="0.5" d="M658.054 492.248C657.238 491.687 655.913 491.942 653.975 493.472C648.214 497.907 626.852 509.583 612.882 507.696C609.007 507.191 605.415 505.395 602.686 502.598C601.587 497.208 601.466 491.665 602.329 486.232C606.382 479.02 609.565 471.353 611.812 463.391C613.031 459.738 613.19 455.813 612.271 452.073C612.984 450.187 613.698 448.096 614.412 446.159C615.21 444.418 615.536 442.499 615.357 440.592C615.178 438.686 614.5 436.861 613.392 435.299C613.216 435.027 612.984 434.796 612.711 434.62C612.439 434.444 612.132 434.328 611.812 434.28C611.319 434.252 610.826 434.252 610.333 434.28C609.262 434.243 608.209 434.572 607.348 435.21C606.487 435.849 605.868 436.761 605.592 437.797L602.992 447.382C599.316 447.846 595.813 449.212 592.795 451.359C581.11 459.193 571.251 469.453 563.887 481.44C561.671 484.738 559.199 487.858 556.494 490.77C550.088 494.409 543.013 496.715 535.693 497.551C525.496 498.366 499.087 498.417 501.789 472.365C501.823 471.982 501.757 471.597 501.596 471.248C501.435 470.899 501.185 470.598 500.871 470.376C498.655 478.981 495.687 487.375 492 495.46C494.09 503.618 500.667 512.438 520.449 515.854H521.01C510.401 518.246 499.41 518.402 488.737 516.313C485.916 515.803 483.367 515.242 481.089 514.63C478.795 518.046 476.399 521.36 473.85 524.572C487.215 533.32 503.018 537.587 518.97 536.757C536.887 536.941 554.479 531.968 569.648 522.431C571.942 520.952 574.084 519.321 576.225 517.638C590.552 531.71 600.544 536.808 619.357 538.592C627.957 539.414 636.625 539.14 645.155 537.777C646.991 532.678 648.724 527.58 650.254 522.482C642.442 523.321 634.562 523.321 626.75 522.482C637.491 520.376 647.269 514.871 654.638 506.779L658.054 492.248Z" fill="black"/>
</g>
<path d="M616.911 442.386L614.107 449.575C613.66 450.752 612.768 451.707 611.623 452.231C610.478 452.756 609.172 452.809 607.989 452.379C607.541 452.24 607.125 452.015 606.765 451.716C606.171 451.273 605.69 450.696 605.362 450.031C605.034 449.366 604.869 448.633 604.879 447.892V446.159C604.83 445.752 604.83 445.342 604.879 444.935L607.836 433.923C608.102 432.877 608.717 431.954 609.579 431.305C610.441 430.656 611.499 430.32 612.577 430.354H614.005C614.617 430.449 615.176 430.756 615.585 431.221C616.794 432.788 617.555 434.654 617.789 436.62C618.022 438.586 617.719 440.579 616.911 442.386V442.386Z" fill="#AC752C"/>
<path d="M616.91 442.387L614.106 449.575C613.66 450.753 612.767 451.707 611.622 452.232C610.477 452.757 609.172 452.81 607.988 452.379C608.008 451.266 608.269 450.17 608.753 449.167C611.435 443.237 613.255 436.953 614.157 430.507C614.769 430.603 615.328 430.909 615.738 431.374C616.893 432.94 617.611 434.786 617.817 436.721C618.023 438.657 617.71 440.612 616.91 442.387V442.387Z" fill="#7D551F"/>
<path d="M657.697 502.394C649.48 511.849 638.022 517.887 625.578 519.321C621.092 519.826 616.567 518.803 612.736 516.415C608.905 514.028 605.993 510.417 604.47 506.167C602.789 502.473 601.82 498.494 601.615 494.441C602.944 496.967 604.852 499.143 607.182 500.791C609.512 502.439 612.2 503.512 615.024 503.924C628.943 505.861 650.356 494.135 656.117 489.699C658.054 488.17 659.38 487.915 660.196 488.527C662.796 490.362 660.756 498.57 657.697 502.394Z" fill="#FFD54F"/>
<path d="M657.697 502.395C649.479 511.849 638.021 517.887 625.577 519.322C621.091 519.827 616.567 518.803 612.736 516.416C608.905 514.029 605.992 510.417 604.47 506.168C611.149 510.45 625.373 515.6 647.806 503.568C650.829 501.993 653.506 499.828 655.677 497.201C657.849 494.574 659.472 491.538 660.45 488.272C662.795 490.363 660.756 498.571 657.697 502.395Z" fill="#FFB300"/>
<path d="M686.86 516.771C686.86 518.607 683.648 521.309 681.761 522.482C663.324 532.331 642.43 536.634 621.6 534.871C602.787 533.035 592.744 527.937 578.468 513.916C572.605 508.104 576.378 499.998 582.853 492.452C590.122 484.734 598.266 477.89 607.121 472.059C607.121 472.059 596.924 499.233 612.984 512.846C629.044 526.458 674.726 514.681 682.883 514.885C685.84 514.885 686.911 515.854 686.86 516.771Z" fill="#FFD54F"/>
<path d="M686.86 516.772C686.86 518.608 683.648 521.31 681.761 522.482C663.324 532.332 642.43 536.635 621.6 534.871C602.787 533.036 592.744 527.938 578.468 513.917C572.605 508.105 576.378 499.998 582.853 492.453L590.194 489.445C590.194 489.445 589.838 517.537 615.177 525.134C626.639 528.769 638.722 530.029 650.687 528.836C662.653 527.644 674.25 524.025 684.769 518.2L686.86 516.772Z" fill="#FFB300"/>
<path d="M565.264 483.377C562.627 489.326 559.084 494.829 554.761 499.692C550.972 504.386 546.012 507.998 540.382 510.165C534.752 512.331 528.65 512.974 522.692 512.03C493.682 506.932 493.07 490.413 493.274 481.44C493.401 478.548 494.176 475.722 495.545 473.171C496.913 470.62 498.838 468.41 501.177 466.706C501.519 466.518 501.906 466.427 502.295 466.443C502.685 466.459 503.063 466.581 503.388 466.797C503.714 467.012 503.974 467.312 504.141 467.664C504.309 468.016 504.377 468.408 504.338 468.796C501.687 494.849 528.147 494.798 538.293 494.288C547.992 492.734 557.212 489.004 565.264 483.377V483.377Z" fill="#FFD54F"/>
<path d="M554.761 499.692C550.972 504.386 546.012 507.999 540.382 510.165C534.752 512.331 528.65 512.974 522.692 512.03C493.682 506.932 493.07 490.413 493.274 481.44C493.346 479.702 493.672 477.985 494.243 476.342C497.71 487.099 501.891 500.406 526.21 502.751C535.816 502.9 545.404 501.872 554.761 499.692V499.692Z" fill="#FFB300"/>
<path d="M614.157 459.772C607.264 483.72 592.34 504.567 571.892 518.812C556.632 528.398 538.928 533.373 520.908 533.138C511.546 533.795 502.147 532.577 493.261 529.557C484.376 526.537 476.182 521.774 469.159 515.549C468.128 514.527 467.309 513.313 466.749 511.974C466.189 510.635 465.9 509.199 465.896 507.748C465.813 507.348 465.852 506.933 466.007 506.556C466.162 506.178 466.427 505.856 466.768 505.631C467.108 505.406 467.509 505.288 467.917 505.293C468.325 505.297 468.722 505.425 469.057 505.658C475.988 508.948 483.353 511.231 490.93 512.439C507.448 515.396 523.406 513.917 533.705 507.799C546.615 500.128 557.767 489.827 566.437 477.566C573.798 465.608 583.638 455.368 595.293 447.536C597.48 445.739 600.065 444.492 602.832 443.897C605.599 443.303 608.469 443.38 611.2 444.12V444.12C613.036 444.987 616.911 448.352 614.157 459.772Z" fill="#FFD54F"/>
<path d="M614.157 459.772C607.264 483.72 592.34 504.567 571.891 518.811C556.631 528.397 538.927 533.372 520.908 533.137C511.546 533.794 502.147 532.577 493.261 529.557C484.375 526.536 476.181 521.774 469.159 515.548C468.128 514.527 467.309 513.312 466.749 511.973C466.189 510.635 465.899 509.199 465.896 507.748C465.896 507.748 501.177 537.573 543.595 519.627C577.041 505.504 602.074 462.219 611.2 444.477C613.035 444.986 616.91 448.351 614.157 459.772Z" fill="#FFB300"/>
<g clip-path="url(#clip0)">
<path d="M464.064 32.5635C464.738 40.7509 464.378 48.9902 462.993 57.0881C455.338 51.4912 448.449 41.5694 436.712 41.5694C442.326 57.3426 455.491 91.0767 469.933 93.6207C467.381 84.4622 465.85 79.8829 465.85 79.8829C483.2 92.0943 484.731 71.2331 484.731 71.2331C486.262 72.7595 487.793 73.7771 489.324 75.3036C485.497 59.5304 479.373 41.2133 464.064 32.5635Z" fill="#2B7EA3"/>
<path d="M538.058 69.3004C533.002 56.0073 526.68 43.2285 519.177 31.1396C519.177 50.4744 511.012 69.3004 501.316 86.6C505.909 91.6881 510.502 96.7762 515.094 102.373C531.648 122.387 545.54 144.448 556.428 168.01C556.41 134.263 550.183 100.807 538.058 69.3004V69.3004Z" fill="#2B7EA3"/>
<path d="M520.707 33.073C518.666 29.5113 516.114 25.9496 514.073 22.8968L451.307 4.68135L391.602 0.102051L306.383 28.4937C288.028 34.6302 271.503 45.2464 258.312 59.376C245.122 73.5057 235.685 90.7002 230.86 109.395L216.061 166.89L214.53 196.91C214.53 196.91 325.774 125.168 493.151 197.419C490.599 187.751 493.661 182.154 491.11 173.505C481.414 137.379 473.249 109.395 469.167 93.6214C456.41 80.9012 446.204 59.5311 440.591 43.758C451.817 43.758 455.899 54.9518 463.554 61.0576C465.228 52.3425 465.912 43.4672 465.595 34.5994C480.394 43.2492 484.986 59.5311 489.069 75.3042C493.661 79.3747 497.744 83.954 502.336 88.5333C512.542 71.2338 520.707 51.899 520.707 33.073Z" fill="#3995B5"/>
<g opacity="0.5">
<path d="M293.58 125.274C294.14 122.462 294.14 119.565 293.58 116.754C292.388 108.993 288.285 102.001 282.131 97.2375C275.976 92.4743 268.245 90.3089 260.554 91.194C257.857 91.6101 255.224 92.3736 252.717 93.466C251.476 94.0201 250.34 94.7889 249.359 95.738C249.147 95.9624 248.987 96.2316 248.89 96.5262C248.793 96.8209 248.762 97.1336 248.799 97.4419L246.56 98.5779C246 98.5779 246 99.1459 246 99.7139V100.282V100.85C246 101.418 246.56 101.418 247.12 101.418L249.359 100.282C249.976 100.88 250.756 101.276 251.598 101.418H252.717C259.706 100.441 266.818 101.797 272.981 105.28C281.489 110.108 285.632 126.58 289.774 128C293.021 127.83 293.58 125.842 293.58 125.274Z" stroke="#FFD54F" stroke-width="3" stroke-miterlimit="10"/>
<path d="M235.906 131.029C234.28 133.366 233.138 136.005 232.546 138.791C230.587 146.338 231.619 154.35 235.428 161.151C239.236 167.953 245.526 173.019 252.982 175.289C255.638 175.989 258.373 176.347 261.12 176.354C262.485 176.346 263.838 176.1 265.119 175.628C265.403 175.508 265.657 175.327 265.863 175.097C266.069 174.867 266.221 174.595 266.309 174.299L268.826 174.16C269.343 174.384 269.567 173.867 269.791 173.349L270.015 172.832L270.239 172.314C270.463 171.797 269.946 171.573 269.429 171.349L266.912 171.488C266.577 170.697 266.012 170.024 265.291 169.557L264.256 169.11C257.413 167.204 251.376 163.123 247.055 157.484C241.097 149.682 243.766 133.018 240.499 130.067C237.432 128.924 236.13 130.511 235.906 131.029Z" stroke="#FFD54F" stroke-width="3" stroke-miterlimit="10"/>
<path d="M264.187 147.8C265.791 150.153 267.849 152.161 270.24 153.708C276.593 158.229 284.446 160.121 292.159 158.989C299.871 157.857 306.847 153.787 311.627 147.631C313.228 145.399 314.537 142.972 315.524 140.408C316.003 139.13 316.256 137.778 316.272 136.412C316.261 136.104 316.182 135.802 316.041 135.528C315.9 135.254 315.699 135.015 315.455 134.827L316.222 132.426C316.616 132.023 316.212 131.629 315.809 131.235L315.405 130.841L315.002 130.448C314.598 130.054 314.204 130.457 313.811 130.86L313.043 133.262C312.184 133.292 311.354 133.58 310.661 134.088L309.874 134.894C305.653 140.608 299.688 144.793 292.879 146.819C283.465 149.602 268.849 141.166 264.927 143.167C262.764 145.624 263.783 147.406 264.187 147.8Z" stroke="#FFD54F" stroke-width="3" stroke-miterlimit="10"/>
</g>
<g opacity="0.5">
<path d="M385.58 62.2736C386.14 59.462 386.14 56.5653 385.58 53.7537C384.388 45.9932 380.285 39.0007 374.131 34.2375C367.976 29.4743 360.245 27.3089 352.554 28.194C349.857 28.6101 347.224 29.3736 344.717 30.466C343.476 31.0201 342.34 31.7889 341.359 32.738C341.147 32.9624 340.987 33.2316 340.89 33.5262C340.793 33.8209 340.762 34.1336 340.799 34.4419L338.56 35.5779C338 35.5779 338 36.1459 338 36.7139V37.2819V37.8499C338 38.4179 338.56 38.4179 339.12 38.4179L341.359 37.2819C341.976 37.8799 342.756 38.2757 343.598 38.4179H344.717C351.706 37.4413 358.818 38.7969 364.981 42.2803C373.489 47.1082 377.632 63.58 381.774 65C385.021 64.8296 385.58 62.8416 385.58 62.2736Z" stroke="#FFD54F" stroke-width="3" stroke-miterlimit="10"/>
<path d="M327.906 68.0285C326.28 70.3662 325.138 73.0053 324.546 75.7906C322.587 83.3379 323.619 91.3496 327.428 98.1514C331.236 104.953 337.526 110.019 344.982 112.289C347.638 112.989 350.373 113.347 353.12 113.354C354.485 113.346 355.838 113.1 357.119 112.628C357.403 112.508 357.657 112.327 357.863 112.097C358.069 111.867 358.221 111.595 358.309 111.299L360.826 111.16C361.343 111.384 361.567 110.867 361.791 110.349L362.015 109.832L362.239 109.314C362.463 108.797 361.946 108.573 361.429 108.349L358.912 108.488C358.577 107.697 358.012 107.024 357.291 106.557L356.256 106.11C349.413 104.204 343.376 100.123 339.055 94.4844C333.097 86.682 335.766 70.0182 332.499 67.0674C329.432 65.9238 328.13 67.511 327.906 68.0285Z" stroke="#FFD54F" stroke-width="3" stroke-miterlimit="10"/>
<path d="M507.906 49.6515C506.28 51.9893 505.138 54.6283 504.546 57.4136C502.587 64.961 503.619 72.9727 507.428 79.7744C511.236 86.5761 517.526 91.6416 524.982 93.9121C527.638 94.6119 530.373 94.9698 533.12 94.9773C534.485 94.9688 535.838 94.7231 537.119 94.251C537.403 94.1312 537.657 93.9499 537.863 93.7202C538.069 93.4905 538.221 93.2181 538.309 92.9225L540.826 92.7833C541.343 93.0072 541.567 92.4898 541.791 91.9723L542.015 91.4548L542.239 90.9373C542.463 90.4199 541.946 90.1959 541.429 89.972L538.912 90.1112C538.577 89.3195 538.012 88.6468 537.291 88.1805L536.256 87.7327C529.413 85.8266 523.376 81.7464 519.055 76.1074C513.097 68.3051 515.766 51.6412 512.499 48.6904C509.432 47.5469 508.13 49.1341 507.906 49.6515Z" stroke="#FFD54F" stroke-width="3" stroke-miterlimit="10"/>
<path d="M356.187 84.8C357.791 87.1527 359.849 89.1612 362.24 90.7076C368.593 95.2292 376.446 97.1215 384.159 95.989C391.871 94.8566 398.847 90.787 403.627 84.6308C405.228 82.3988 406.537 79.9717 407.524 77.408C408.003 76.1296 408.256 74.7776 408.272 73.4124C408.261 73.1043 408.182 72.8024 408.041 72.5283C407.9 72.2543 407.699 72.0149 407.455 71.8275L408.222 69.4262C408.616 69.0229 408.212 68.6291 407.809 68.2352L407.405 67.8414L407.002 67.4475C406.598 67.0537 406.204 67.4571 405.811 67.8605L405.043 70.2616C404.184 70.2918 403.354 70.5796 402.661 71.0875L401.874 71.8943C397.653 77.6076 391.688 81.7928 384.879 83.8186C375.465 86.6024 360.849 78.1661 356.927 80.1666C354.764 82.6243 355.783 84.4062 356.187 84.8Z" stroke="#FFD54F" stroke-width="3" stroke-miterlimit="10"/>
</g>
<g opacity="0.5">
<path d="M407.58 161.274C408.14 158.462 408.14 155.565 407.58 152.754C406.388 144.993 402.285 138.001 396.131 133.237C389.976 128.474 382.245 126.309 374.554 127.194C371.857 127.61 369.224 128.374 366.717 129.466C365.476 130.02 364.34 130.789 363.359 131.738C363.147 131.962 362.987 132.232 362.89 132.526C362.793 132.821 362.762 133.134 362.799 133.442L360.56 134.578C360 134.578 360 135.146 360 135.714V136.282V136.85C360 137.418 360.56 137.418 361.12 137.418L363.359 136.282C363.976 136.88 364.756 137.276 365.598 137.418H366.717C373.706 136.441 380.818 137.797 386.981 141.28C395.489 146.108 399.632 162.58 403.774 164C407.021 163.83 407.58 161.842 407.58 161.274Z" stroke="#FFD54F" stroke-width="3" stroke-miterlimit="10"/>
<path d="M349.906 167.029C348.28 169.366 347.138 172.005 346.546 174.791C344.587 182.338 345.619 190.35 349.428 197.151C353.236 203.953 359.526 209.019 366.982 211.289C369.638 211.989 372.373 212.347 375.12 212.354C376.485 212.346 377.838 212.1 379.119 211.628C379.403 211.508 379.657 211.327 379.863 211.097C380.069 210.867 380.221 210.595 380.309 210.299L382.826 210.16C383.343 210.384 383.567 209.867 383.791 209.349L384.015 208.832L384.239 208.314C384.463 207.797 383.946 207.573 383.429 207.349L380.912 207.488C380.577 206.697 380.012 206.024 379.291 205.557L378.256 205.11C371.413 203.204 365.376 199.123 361.055 193.484C355.097 185.682 357.766 169.018 354.499 166.067C351.432 164.924 350.13 166.511 349.906 167.029Z" stroke="#FFD54F" stroke-width="3" stroke-miterlimit="10"/>
<path d="M378.187 183.8C379.791 186.153 381.849 188.161 384.24 189.708C390.593 194.229 398.446 196.121 406.159 194.989C413.871 193.857 420.847 189.787 425.627 183.631C427.228 181.399 428.537 178.972 429.524 176.408C430.003 175.13 430.256 173.778 430.272 172.412C430.261 172.104 430.182 171.802 430.041 171.528C429.9 171.254 429.699 171.015 429.455 170.827L430.222 168.426C430.616 168.023 430.212 167.629 429.809 167.235L429.405 166.841L429.002 166.448C428.598 166.054 428.204 166.457 427.811 166.86L427.043 169.262C426.184 169.292 425.354 169.58 424.661 170.088L423.874 170.894C419.653 176.608 413.688 180.793 406.879 182.819C397.465 185.602 382.849 177.166 378.927 179.167C376.764 181.624 377.783 183.406 378.187 183.8Z" stroke="#FFD54F" stroke-width="3" stroke-miterlimit="10"/>
</g>
<g opacity="0.5">
<path d="M452.58 142.274C453.14 139.462 453.14 136.565 452.58 133.754C451.388 125.993 447.285 119.001 441.131 114.237C434.976 109.474 427.245 107.309 419.554 108.194C416.857 108.61 414.224 109.374 411.717 110.466C410.476 111.02 409.34 111.789 408.359 112.738C408.147 112.962 407.987 113.232 407.89 113.526C407.793 113.821 407.762 114.134 407.799 114.442L405.56 115.578C405 115.578 405 116.146 405 116.714V117.282V117.85C405 118.418 405.56 118.418 406.12 118.418L408.359 117.282C408.976 117.88 409.756 118.276 410.598 118.418H411.717C418.706 117.441 425.818 118.797 431.981 122.28C440.489 127.108 444.632 143.58 448.774 145C452.021 144.83 452.58 142.842 452.58 142.274Z" stroke="#FFD54F" stroke-width="3" stroke-miterlimit="10"/>
<path d="M328.054 48.9663C325.619 47.4546 322.907 46.4366 320.078 45.9723C312.393 44.3617 304.405 45.7451 297.783 49.8334C291.16 53.9217 286.416 60.3985 284.542 67.9102C283.984 70.5813 283.773 73.3151 283.915 76.0456C283.998 77.402 284.318 78.7361 284.862 79.9884C284.998 80.2654 285.194 80.5097 285.436 80.7039C285.677 80.898 285.959 81.0371 286.261 81.1112L286.537 83.6068C286.341 84.1308 286.872 84.3304 287.404 84.53L287.936 84.7296L288.468 84.9292C289 85.1288 289.196 84.6047 289.393 84.0807L289.116 81.5852C289.893 81.2175 290.538 80.6262 290.967 79.8881L291.36 78.84C292.902 71.9539 296.67 65.7718 302.097 61.2261C309.607 54.9569 326.484 56.8672 329.269 53.4881C330.25 50.3886 328.586 49.1659 328.054 48.9663Z" stroke="#FFD54F" stroke-width="3" stroke-miterlimit="10"/>
<path d="M450.58 60.2736C451.14 57.462 451.14 54.5653 450.58 51.7537C449.388 43.9932 445.285 37.0007 439.131 32.2375C432.976 27.4743 425.245 25.3089 417.554 26.194C414.857 26.6101 412.224 27.3736 409.717 28.466C408.476 29.0201 407.34 29.7889 406.359 30.738C406.147 30.9624 405.987 31.2316 405.89 31.5262C405.793 31.8209 405.762 32.1336 405.799 32.4419L403.56 33.5779C403 33.5779 403 34.1459 403 34.7139V35.2819V35.8499C403 36.4179 403.56 36.4179 404.12 36.4179L406.359 35.2819C406.976 35.8799 407.756 36.2757 408.598 36.4179H409.717C416.706 35.4413 423.818 36.7969 429.981 40.2803C438.489 45.1082 442.632 61.58 446.774 63C450.021 62.8296 450.58 60.8416 450.58 60.2736Z" stroke="#FFD54F" stroke-width="3" stroke-miterlimit="10"/>
<path d="M493.58 49.2736C494.14 46.462 494.14 43.5653 493.58 40.7537C492.388 32.9932 488.285 26.0007 482.131 21.2375C475.976 16.4743 468.245 14.3089 460.554 15.194C457.857 15.6101 455.224 16.3736 452.717 17.466C451.476 18.0201 450.34 18.7889 449.359 19.738C449.147 19.9624 448.987 20.2316 448.89 20.5262C448.793 20.8209 448.762 21.1336 448.799 21.4419L446.56 22.5779C446 22.5779 446 23.1459 446 23.7139V24.2819V24.8499C446 25.4179 446.56 25.4179 447.12 25.4179L449.359 24.2819C449.976 24.8799 450.756 25.2757 451.598 25.4179H452.717C459.706 24.4413 466.818 25.7969 472.981 29.2803C481.489 34.1082 485.632 50.58 489.774 52C493.021 51.8296 493.58 49.8416 493.58 49.2736Z" stroke="#FFD54F" stroke-width="3" stroke-miterlimit="10"/>
<path d="M394.906 148.029C393.28 150.366 392.138 153.005 391.546 155.791C389.587 163.338 390.619 171.35 394.428 178.151C398.236 184.953 404.526 190.019 411.982 192.289C414.638 192.989 417.373 193.347 420.12 193.354C421.485 193.346 422.838 193.1 424.119 192.628C424.403 192.508 424.657 192.327 424.863 192.097C425.069 191.867 425.221 191.595 425.309 191.299L427.826 191.16C428.343 191.384 428.567 190.867 428.791 190.349L429.015 189.832L429.239 189.314C429.463 188.797 428.946 188.573 428.429 188.349L425.912 188.488C425.577 187.697 425.012 187.024 424.291 186.557L423.256 186.11C416.413 184.204 410.376 180.123 406.055 174.484C400.097 166.682 402.766 150.018 399.499 147.067C396.432 145.924 395.13 147.511 394.906 148.029Z" stroke="#FFD54F" stroke-width="3" stroke-miterlimit="10"/>
<path d="M423.187 164.8C424.791 167.153 426.849 169.161 429.24 170.708C435.593 175.229 443.446 177.121 451.159 175.989C458.871 174.857 465.847 170.787 470.627 164.631C472.228 162.399 473.537 159.972 474.524 157.408C475.003 156.13 475.256 154.778 475.272 153.412C475.261 153.104 475.182 152.802 475.041 152.528C474.9 152.254 474.699 152.015 474.455 151.827L475.222 149.426C475.616 149.023 475.212 148.629 474.809 148.235L474.405 147.841L474.002 147.448C473.598 147.054 473.204 147.457 472.811 147.86L472.043 150.262C471.184 150.292 470.354 150.58 469.661 151.088L468.874 151.894C464.653 157.608 458.688 161.793 451.879 163.819C442.465 166.602 427.849 158.166 423.927 160.167C421.764 162.624 422.783 164.406 423.187 164.8Z" stroke="#FFD54F" stroke-width="3" stroke-miterlimit="10"/>
</g>
<path d="M496.724 201.998C328.837 130.255 213 204.033 213 204.033L216.572 167.398C266.581 150.099 366.088 128.729 492.131 174.013C494.172 182.764 494.172 192.33 496.724 201.998Z" fill="#82BBCE"/>
<path d="M549.794 152.643C549.794 152.643 529.383 161.293 542.65 216.753C548.774 210.647 549.794 194.366 549.794 187.751V231C549.794 231 572.758 181.645 549.794 152.643Z" fill="#2B7EA3"/>
</g>
<path opacity="0.2" d="M457.664 161.664C423.039 143.857 385.942 144.352 371.103 143.857C363.845 143.564 356.576 143.729 349.339 144.352C342.101 143.732 334.833 143.567 327.575 143.857C313.23 144.846 275.638 143.857 241.013 161.664C231.151 166.841 222.67 174.304 216.281 183.428C202.887 202.594 196.91 225.972 199.464 249.215C200.045 253.577 200.871 257.904 201.937 262.174C210.84 291.852 240.024 316.09 266.24 299.272C293.445 281.96 322.134 258.712 349.339 257.722C376.049 258.217 405.233 281.96 432.438 299.272C436.362 301.77 440.75 303.452 445.34 304.217C449.929 304.982 454.625 304.814 459.148 303.724C463.186 302.711 467.03 301.04 470.525 298.777C478.661 293.232 485.488 285.977 490.529 277.519C495.57 269.06 498.703 259.603 499.708 249.808C502.676 211.622 486.353 176.503 457.664 161.664Z" fill="black"/>
<path d="M378.028 221.515C316.693 209.149 261.788 224.483 209.851 255.151L206.883 256.635C215.787 286.313 244.97 310.55 271.186 293.732C298.391 276.42 327.08 253.172 354.285 252.183C380.995 252.678 410.179 276.42 437.384 293.732C441.309 296.231 445.697 297.913 450.286 298.678C454.875 299.443 459.571 299.275 464.094 298.184C457.826 278.926 446.554 261.679 431.432 248.208C416.309 234.737 397.879 225.525 378.028 221.515V221.515Z" fill="#23B4DB"/>
<path d="M398.736 178.89C343.552 151.592 276.328 156.059 220.642 178.394C207.057 197.624 200.996 221.083 203.585 244.405C204.179 248.749 205.016 253.057 206.094 257.309L209.104 255.82C261.779 225.048 317.967 209.662 379.672 222.07C399.777 226.027 418.439 235.254 433.706 248.787C448.973 262.32 456.825 279.162 463 298.5C467.096 297.484 472.956 295.27 476.5 293C469.477 245.353 446.395 203.706 398.736 178.89Z" fill="#28AEDC"/>
<path d="M462.61 156.718C427.986 138.911 390.888 139.405 376.049 138.911C368.791 138.617 361.522 138.783 354.285 139.405C347.048 138.786 339.779 138.621 332.521 138.911C318.176 139.9 280.584 138.911 245.959 156.718C236.097 161.895 227.617 169.357 221.228 178.482C276.132 155.728 342.414 151.771 396.824 178.976C444.309 203.708 468.546 246.247 475.471 293.732C483.607 288.187 490.434 280.932 495.475 272.473C500.516 264.015 503.649 254.558 504.654 244.763C507.622 206.676 491.299 171.557 462.61 156.718Z" fill="#26A5D1"/>
<path d="M378.027 221.515C319.66 209.644 266.24 223.493 216.281 251.193C221.722 270.484 238.045 286.807 253.379 286.807C257.949 286.702 262.401 285.332 266.24 282.85C271.186 279.882 276.132 276.42 281.079 272.957C304.821 257.129 329.058 240.806 354.285 239.816C379.017 240.311 403.254 257.129 426.996 272.957C431.943 276.42 436.889 279.882 441.836 282.85C445.674 285.332 450.126 286.702 454.696 286.807C456.197 286.887 457.701 286.72 459.148 286.312C451.823 269.792 440.627 255.278 426.507 243.999C412.387 232.72 395.758 225.008 378.027 221.515V221.515Z" fill="#1894BF"/>
<path d="M396.33 178.481C350.328 155.728 295.918 155.233 247.444 169.083C224.691 182.438 211.335 211.622 214.798 242.784L216.282 251.687C266.24 223.493 319.166 210.138 378.028 222.009C395.86 225.577 412.577 233.368 426.777 244.728C440.978 256.088 452.248 270.687 459.643 287.301C464.302 286.255 469.182 282.866 473 280C463.602 236.966 439.363 200.74 396.33 178.481Z" fill="#1686AC"/>
<path d="M493.772 242.785C497.234 210.633 482.89 180.46 458.158 167.6C429.469 152.761 398.307 151.772 381.489 151.277C381.489 151.277 373.575 150.782 372.586 150.782C368.134 150.782 361.704 151.277 354.779 151.772H353.79C346.865 151.277 340.929 150.782 335.983 150.782C334.994 150.782 327.079 151.277 327.079 151.277C310.262 151.772 279.1 152.761 250.411 167.6C249.524 167.982 248.692 168.481 247.938 169.084C296.907 155.234 350.822 155.729 396.823 178.482C439.362 200.741 463.104 238.333 472.502 280.377C478.368 275.839 483.27 270.177 486.922 263.722C490.574 257.268 492.903 250.15 493.772 242.785V242.785Z" fill="#147DA1"/>
<path d="M458.16 167.6C429.471 152.761 398.309 151.772 381.491 151.277C381.491 151.277 373.577 150.782 372.587 150.782C368.136 150.782 361.705 151.277 354.781 151.772H353.791C346.866 151.277 340.931 150.782 335.984 150.782C334.995 150.782 327.081 151.277 327.081 151.277C310.263 151.772 279.101 152.761 250.412 167.6C249.525 167.982 248.694 168.481 247.939 169.084C225.186 182.439 211.831 211.623 215.293 242.785L216.777 251.688C222.218 270.979 238.541 287.302 253.875 287.302C258.445 287.197 262.896 285.827 266.735 283.345C271.682 280.377 276.628 276.915 281.574 273.452C305.317 257.624 329.554 241.301 354.781 240.311C379.512 240.806 403.75 257.624 427.492 273.452C432.438 276.915 437.385 280.377 442.331 283.345C446.17 285.827 450.622 287.197 455.192 287.302C456.693 287.382 458.197 287.215 459.643 286.807C464.302 285.761 468.686 283.738 472.504 280.872C478.426 276.277 483.361 270.537 487.015 263.993C490.67 257.449 492.968 250.236 493.773 242.785C496.741 210.139 482.397 179.966 458.16 167.6ZM490.806 242.389C489.987 249.382 487.77 256.139 484.286 262.257C480.802 268.376 476.122 273.73 470.526 278.003C467.105 280.811 463.015 282.686 458.654 283.444C457.539 283.813 456.366 283.98 455.192 283.938C451.129 284.014 447.147 282.802 443.815 280.476C438.869 277.508 433.922 274.046 428.976 270.583C404.739 254.26 380.007 237.937 354.781 236.948C328.565 237.443 303.833 254.26 280.09 270.583C275.144 274.046 270.198 277.508 265.251 280.476C261.92 282.802 257.937 284.014 253.875 283.938C240.519 283.938 225.186 269.099 219.745 250.303C218.774 247.605 218.272 244.761 218.261 241.894C214.798 212.216 226.67 184.516 248.928 171.656L249.423 171.161C249.918 170.667 250.412 170.667 251.401 170.172C279.596 155.333 310.263 154.344 327.081 153.849C327.081 153.849 334.995 153.354 335.984 153.354C341.771 153.28 347.556 153.611 353.297 154.344H355.275C363.189 153.849 368.63 153.354 372.587 153.354C373.577 153.354 381.491 153.849 381.491 153.849C397.814 154.344 428.481 155.333 457.17 170.172C479.924 182.439 493.773 211.128 490.806 242.389Z" fill="#15738C"/>
<defs>
<clipPath id="clip0">
<rect width="347" height="231" fill="white" transform="translate(213)"/>
</clipPath>
</defs>
</svg>
