<svg width="2480" height="2475" xmlns="http://www.w3.org/2000/svg" xmlns:xlink="http://www.w3.org/1999/xlink" overflow="hidden"><defs><clipPath id="clip0"><rect x="971" y="0" width="2480" height="2475"/></clipPath><clipPath id="clip1"><rect x="973" y="0" width="2476" height="2475"/></clipPath><clipPath id="clip2"><rect x="973" y="0" width="2476" height="2475"/></clipPath><clipPath id="clip3"><rect x="973" y="0" width="2476" height="2475"/></clipPath><radialGradient cx="3.429e+06" cy="3.429e+06" r="4.84934e+06" fx="3.429e+06" fy="3.429e+06" gradientUnits="userSpaceOnUse" spreadMethod="pad" id="fill4" gradientTransform="matrix(0.000360892 0 0 0.000360892 973 0)"><stop offset="0" stop-color="#000000" stop-opacity="0"/><stop offset="0.6" stop-color="#000000" stop-opacity="0.0509804"/><stop offset="0.99" stop-color="#000000" stop-opacity="0.25098"/><stop offset="1" stop-color="#000000" stop-opacity="0.25098"/></radialGradient></defs><g clip-path="url(#clip0)" transform="translate(-971 0)"><g clip-path="url(#clip1)"><g clip-path="url(#clip2)"><g clip-path="url(#clip3)"><path d="M3448 0 973 0 973 2475 3448 2475 3448 0Z" fill="#49B4E5" fill-rule="nonzero" fill-opacity="1"/><path d="M3143.4 602.971C3060.88 603.538 2978.12 603.098 2895.87 595.602 2854.99 591.886 2813.91 587.414 2773.91 577.776 2703.12 560.708 2633.2 539.103 2564.36 515.546 2484.36 488.147 2403.11 458.417 2329.67 415.964 2299.75 398.642 2226.88 357.765 2247.6 312.225 2260.07 284.826 2294.46 272.29 2321.86 268.449 2377.92 260.638 2437 272.417 2492.11 282.055 2558 293.58 2624.26 303.028 2690.33 313.296 2735.74 320.35 2781.23 327.091 2826.89 331.94 2871.05 336.6 2915.32 338.743 2959.47 343.341 3121.61 360.409 3284.79 389.384 3448 377.92L3448 311.153C3326.43 318.272 3205.44 321.421 3083.63 315.312 2892.58 305.674 2707.4 255.474 2519.2 225.744 2422.89 210.565 2325.45 200.549 2227.88 204.644 2131.26 208.737 2035.71 223.855 1941.17 243.695 1756.18 282.558 1573.07 338.113 1383.55 350.646 1246.3 359.779 1109.55 349.702 973.062 336.16L973.062 396.941C1032.65 421.948 1099.98 425.348 1163.79 422.704 1237.92 419.617 1311.3 408.28 1384.74 398.391 1461.53 388.061 1538.43 380.124 1615.15 368.724 1700.43 356.001 1786.66 343.466 1873.14 345.418 2042.07 349.323 2198.59 424.467 2348.5 495.83 2499.61 567.825 2653.42 642.779 2821.53 663.817 3012.07 687.689 3204.11 675.281 3395.47 673.705 3413.1 673.58 3430.62 673.643 3448.12 674.083L3448.12 604.672C3346.66 599.508 3244.62 602.278 3143.4 602.971Z" fill="#ACEBFF" fill-rule="nonzero" fill-opacity="0.5"/><path d="M1388.4 819.394C1428.14 803.395 1476.33 784.436 1504.73 750.738 1515 738.517 1522.18 722.267 1513.93 706.898 1504.1 688.696 1484.45 675.721 1465.24 669.107 1413.28 651.219 1354.01 656.132 1300.22 660.793 1248.32 665.265 1195.79 674.839 1143.57 674.083 1087.51 673.263 1029.94 668.225 974.701 658.841 974.134 658.714 973.568 658.651 973.001 658.526L973.001 907.197C1000.4 905.811 1027.67 903.544 1054.82 900.457 1168.32 887.67 1282.2 862.162 1388.4 819.394Z" fill="#ACEBFF" fill-rule="nonzero" fill-opacity="0.5"/><path d="M2710.8 946.502C2743.06 922.818 2787.26 917.653 2825.94 914.19 2877.78 909.591 2929.94 910.158 2981.9 907.197 3139.23 898.191 3292.48 859.958 3448 837.094L3448 788.153C3365.17 794.765 3282.72 804.906 3200.66 817.693 3120.97 830.165 3041.92 847.549 2961.74 856.053 2755.97 877.972 2550 854.478 2344.35 843.769 2242.31 838.48 2138.57 834.196 2036.78 845.282 1942.62 855.548 1850.53 878.224 1760.71 907.764 1673.92 936.298 1589.07 970.247 1503.54 1002.37 1419.45 1033.93 1334.61 1065.55 1246.11 1082.24 1156.48 1099.12 1064.77 1106.49 973.064 1106.36L973.064 1190.07C976.087 1190.26 979.11 1190.45 982.134 1190.64 1030.26 1193.6 1078.38 1198.2 1126.56 1200.46 1158.94 1201.98 1190.56 1202.54 1222.18 1194.67 1262.61 1184.59 1302.42 1172.12 1342.67 1161.22 1388.46 1148.82 1435.51 1135.9 1483 1132.19 1506.88 1130.3 1537.61 1128.53 1548.57 1154.23 1566.46 1195.99 1525.14 1239.52 1497.36 1265.09 1440.87 1317.18 1372.78 1357.05 1305.76 1393.83 1223.12 1439.12 1137.77 1479.31 1051.36 1516.72 1025.28 1528.06 999.14 1538.95 973.001 1549.66L973.001 1657.94C1099.92 1644.71 1216.38 1579.64 1317.35 1504.63 1431.54 1419.78 1532.51 1318.63 1631.27 1216.65 1674.29 1172.25 1716.87 1127.34 1760.96 1084 1814.31 1031.6 1874.15 988.45 1943.18 958.91 2011.71 929.683 2084.78 912.425 2158.85 905.433 2232.1 898.506 2311.47 895.482 2383.21 914.378 2514.85 949.084 2609.96 1050.56 2701.99 1144.53 2748.53 1192.09 2795.39 1240.08 2850.32 1278.06 2902.73 1314.28 2959.47 1344.07 3018.12 1368.83 3148.94 1424.07 3289.6 1458.39 3430.87 1472.25 3436.53 1472.82 3442.27 1473.32 3447.93 1473.83L3447.93 1380.04C3430.18 1378.72 3412.34 1377.46 3394.45 1376.64 3332.11 1373.8 3269.49 1371.73 3207.64 1362.72 3063.96 1341.74 2921.11 1278.95 2809.81 1185.28 2762.63 1145.6 2714.52 1096.54 2692.47 1037.71 2680.19 1005.02 2680.32 968.861 2710.8 946.502Z" fill="#ACEBFF" fill-rule="nonzero" fill-opacity="0.5"/><path d="M2871.73 1630.85C2800 1606.67 2735.37 1572.4 2670.37 1533.98 2602.66 1493.92 2532.93 1456.76 2459.99 1427.03 2317.58 1368.95 2162.88 1339.73 2008.88 1351.26 1762.6 1369.77 1559.66 1522.58 1361.63 1655.23 1264.12 1720.55 1164.04 1784.53 1054.44 1827.88 1027.67 1838.45 1000.46 1847.6 972.938 1855.14L972.938 1961.21C1009.03 1946.98 1044.81 1931.56 1080.83 1917.94 1159.94 1888.09 1236.79 1851.55 1307.65 1805.2 1441.56 1717.52 1550.71 1582.1 1708.69 1534.73 1788.99 1510.67 1872.83 1515.71 1953.96 1533.35 2041.26 1552.31 2125.66 1583.49 2207.54 1619.01 2288.48 1654.1 2360.16 1705.43 2434.8 1751.79 2512.71 1800.22 2594.21 1840.72 2684.66 1859.19 2874.83 1897.92 3072.35 1870.96 3261.43 1839.64 3323.67 1829.39 3385.76 1818.04 3447.93 1807.65L3447.93 1649.24C3259.8 1698 3055.22 1692.64 2871.73 1630.85ZM2855.35 1775.4C2848.25 1786.12 2835.46 1791.22 2823.36 1793.8 2798.68 1799.22 2772.47 1798.71 2747.4 1796.83 2676.73 1791.46 2608.89 1766.96 2545.4 1736.54 2475.99 1703.29 2410.42 1662.97 2345.23 1622.22 2317.2 1604.71 2289.49 1584.81 2259.82 1570.2 2236.7 1558.8 2213.4 1547.58 2191.23 1534.36 2161.24 1516.47 2105.12 1482.46 2121.37 1439.5 2138.82 1393.33 2204.77 1397.8 2243.38 1404.54 2252.77 1406.18 2262.09 1408.19 2271.41 1410.4 2288.1 1411.15 2304.73 1413.99 2320.98 1417.96 2382.14 1432.95 2440.02 1460.35 2495.89 1488.88 2544.77 1513.82 2593.4 1539.46 2642.02 1564.91 2675.22 1582.29 2706.71 1603.39 2737 1625.37 2770.95 1650.06 2805.22 1676.52 2832.56 1708.58 2845.71 1724.26 2869.78 1753.74 2855.35 1775.4Z" fill="#ACEBFF" fill-rule="nonzero" fill-opacity="0.5"/><path d="M3100.25 2044.49C3152.9 2039.76 3204.62 2057.96 3256.09 2065.65 3299.48 2072.14 3342.12 2079 3385.89 2082.59 3406.12 2084.22 3427.65 2081.39 3448 2083.91L3448 2057.65C3375.07 2051.86 3302.19 2045.05 3229.31 2039.07 3062.77 2025.4 2892.77 2013.37 2726.17 2032.33 2548.74 2052.49 2370.93 2080.27 2191.86 2078.24 2102.79 2077.24 2013.79 2069.11 1926.37 2051.79 1847.89 2036.24 1771.04 2015.52 1693.69 1995.41 1613.7 1974.63 1532.07 1954.99 1449.18 1951.52 1409.06 1949.81 1368.49 1951.4 1329.13 1959.82 1291.34 1967.95 1254.99 1982.37 1219.66 1997.87 1138.09 2033.72 1057.78 2077.56 973.001 2101.67L973.001 2144.38C981.567 2142.04 990.07 2139.65 998.636 2137.33 1160.01 2093.23 1334.92 2052.98 1496.86 2116.34 1638.65 2171.84 1777.84 2245.09 1930.4 2266.08 2104.68 2290 2277.27 2236.28 2445.69 2197.86 2530.73 2178.46 2616.32 2160.51 2703.12 2151.24 2795.46 2141.36 2886.91 2143.5 2979.12 2153.27 3135.59 2169.82 3290.48 2201.33 3447.93 2207.18L3447.93 2181.85C3403.16 2178.33 3358.43 2171.53 3314.35 2165.86 3261.94 2159.18 3211.67 2155.03 3160.59 2140.8 3128.34 2131.79 3083.51 2121.32 3061.01 2094.25 3039.6 2068.23 3078.21 2046.49 3100.25 2044.49ZM2213.34 2200.89C2166.85 2217 2116.84 2223.56 2068.02 2227.71 2013.1 2232.37 1958.3 2231.42 1903.76 2222.29 1839.13 2211.46 1768.59 2193.88 1716.68 2151.75 1700.18 2138.4 1679.4 2119.69 1677.13 2097.08 1675.18 2077.68 1687.77 2059.23 1707.24 2055.69 1732.49 2051.15 1759.14 2057.15 1783.77 2062.75 1819.48 2070.94 1855.76 2075.29 1891.98 2080.88 1934.68 2087.5 1977.39 2094.37 2020.09 2100.99 2028.78 2100.48 2037.48 2100.04 2046.17 2099.79 2098.13 2098.28 2151.61 2097.4 2203 2106.72 2224.23 2110.56 2263.79 2117.54 2270.02 2143.31 2277.71 2174.99 2236.64 2192.76 2213.34 2200.89Z" fill="#ACEBFF" fill-rule="nonzero" fill-opacity="0.5"/><path d="M3186.92 2301.15C3122.42 2300.59 3057.66 2301.54 2993.62 2309.72 2927.28 2318.16 2861.21 2328.87 2795.21 2339.45 2619.41 2367.66 2443.42 2398.16 2265.43 2408.49 2082.32 2419.13 1897.46 2409.25 1715.11 2391.6 1625.23 2382.91 1535.6 2371.88 1446.35 2358.6 1361.44 2345.94 1277.29 2328.05 1192.13 2317.48 1119.76 2308.47 1045.69 2304.56 973.001 2310.55L973.001 2475 3448 2475 3448 2302.22C3361.21 2306.32 3273.84 2301.91 3186.92 2301.15Z" fill="#ACEBFF" fill-rule="nonzero" fill-opacity="0.5"/><path d="M2874.69 2239.74C2840.3 2248.87 2840.93 2270.54 2854.72 2286.41 2856.18 2288.63 2857.75 2290.58 2859.26 2292.15 2865.94 2299.08 2885.28 2309.79 2905 2306.52 2927.23 2302.79 2938.82 2293.78 2943.98 2284.09 2952.61 2267.76 2929.99 2225.07 2874.69 2239.74Z" fill="#FFFFFF" fill-rule="nonzero" fill-opacity="0.3"/><path d="M2421.32 2359.41C2406.7 2363.32 2406.96 2372.52 2412.81 2379.2 2413.44 2380.13 2414.07 2380.96 2414.77 2381.65 2417.6 2384.62 2425.79 2389.14 2434.17 2387.77 2443.61 2386.19 2448.53 2382.35 2450.73 2378.25 2454.45 2371.32 2444.81 2353.19 2421.32 2359.41Z" fill="#FFFFFF" fill-rule="nonzero" fill-opacity="0.3"/><path d="M3120.29 1892.38C3095.59 1898.92 3096.1 1914.42 3105.99 1925.75 3106.99 1927.33 3108.13 1928.72 3109.26 1929.85 3114.04 1934.83 3127.9 1942.44 3142.01 1940.12 3157.95 1937.47 3166.27 1930.97 3169.91 1924.06 3176.15 1912.47 3159.9 1881.86 3120.29 1892.38Z" fill="#FFFFFF" fill-rule="nonzero" fill-opacity="0.3"/><path d="M1405.28 1841.98C1380.59 1848.53 1381.09 1864.03 1390.98 1875.37 1392.05 1876.94 1393.12 1878.33 1394.26 1879.45 1399.04 1884.43 1412.9 1892.06 1427.01 1889.72 1442.94 1887.09 1451.19 1880.6 1454.91 1873.66 1461.08 1862.07 1444.9 1831.46 1405.28 1841.98Z" fill="#FFFFFF" fill-rule="nonzero" fill-opacity="0.3"/><path d="M1225.07 2205.72C1206.49 2210.65 1206.87 2222.36 1214.3 2230.93 1215.06 2232.13 1215.94 2233.2 1216.76 2234.01 1220.35 2237.79 1230.8 2243.53 1241.45 2241.77 1253.42 2239.74 1259.72 2234.89 1262.49 2229.66 1267.15 2220.85 1254.93 2197.79 1225.07 2205.72Z" fill="#FFFFFF" fill-rule="nonzero" fill-opacity="0.3"/><path d="M1810.35 2113.02C1791.76 2117.93 1792.08 2129.64 1799.57 2138.21 1800.33 2139.41 1801.21 2140.41 1802.03 2141.29 1805.68 2145.07 1816.08 2150.8 1826.72 2149.05 1838.69 2147.02 1844.99 2142.19 1847.76 2136.94 1852.36 2128.13 1840.2 2105.09 1810.35 2113.02Z" fill="#FFFFFF" fill-rule="nonzero" fill-opacity="0.3"/><path d="M3080.97 423.334C3046.58 432.467 3047.22 454.133 3061.01 470.007 3062.47 472.211 3064.03 474.164 3065.54 475.738 3072.23 482.667 3091.56 493.375 3111.28 490.099 3133.52 486.382 3145.09 477.376 3150.26 467.676 3158.9 451.363 3136.28 408.658 3080.97 423.334Z" fill="#FFFFFF" fill-rule="nonzero" fill-opacity="0.3"/><path d="M3249.47 427.554C3234.85 431.459 3235.1 440.656 3240.96 447.331 3241.59 448.276 3242.23 449.096 3242.91 449.789 3245.74 452.749 3253.94 457.284 3262.31 455.898 3271.76 454.323 3276.67 450.482 3278.88 446.387 3282.53 439.458 3272.96 421.318 3249.47 427.554Z" fill="#FFFFFF" fill-rule="nonzero" fill-opacity="0.3"/><path d="M1665.29 133.092C1650.68 136.997 1650.93 146.193 1656.78 152.87 1657.41 153.814 1658.04 154.633 1658.74 155.263 1661.57 158.223 1669.76 162.758 1678.14 161.373 1687.58 159.798 1692.5 155.956 1694.7 151.862 1698.35 144.996 1688.72 126.856 1665.29 133.092Z" fill="#FFFFFF" fill-rule="nonzero" fill-opacity="0.3"/><path d="M1142.69 1338.78C1118.88 1345.08 1119.32 1360.07 1128.83 1371.1 1129.84 1372.61 1130.91 1373.99 1131.98 1375.06 1136.64 1379.85 1149.99 1387.28 1163.66 1385.01 1179.03 1382.43 1187.09 1376.2 1190.62 1369.46 1196.67 1358.18 1180.98 1328.58 1142.69 1338.78Z" fill="#FFFFFF" fill-rule="nonzero" fill-opacity="0.3"/><path d="M1247.68 1242.54C1225.2 1248.52 1225.64 1262.63 1234.65 1272.96 1235.59 1274.41 1236.6 1275.67 1237.61 1276.68 1241.95 1281.21 1254.61 1288.2 1267.46 1286.06 1281.95 1283.67 1289.51 1277.75 1292.91 1271.39 1298.51 1260.87 1283.78 1232.97 1247.68 1242.54Z" fill="#FFFFFF" fill-rule="nonzero" fill-opacity="0.3"/><path d="M2395.3 1265.53C2372.82 1271.51 2373.26 1285.62 2382.27 1295.95 2383.21 1297.4 2384.22 1298.66 2385.23 1299.67 2389.57 1304.2 2402.17 1311.19 2415.08 1309.05 2429.57 1306.66 2437.13 1300.74 2440.53 1294.38 2446.2 1283.79 2431.39 1255.95 2395.3 1265.53Z" fill="#FFFFFF" fill-rule="nonzero" fill-opacity="0.3"/><path d="M2518.82 1188.24C2502.82 1192.53 2503.07 1202.61 2509.5 1209.98 2510.19 1210.98 2510.88 1211.93 2511.64 1212.62 2514.73 1215.83 2523.73 1220.81 2532.93 1219.3 2543.26 1217.6 2548.68 1213.38 2551.07 1208.84 2555.1 1201.28 2544.58 1181.38 2518.82 1188.24Z" fill="#FFFFFF" fill-rule="nonzero" fill-opacity="0.3"/><path d="M3242.1 1181.13C3214.33 1188.5 3214.82 1205.94 3225.97 1218.73 3227.17 1220.49 3228.43 1222.07 3229.63 1223.33 3235.05 1228.93 3250.6 1237.5 3266.47 1234.92 3284.43 1231.96 3293.75 1224.65 3297.9 1216.78 3304.95 1203.67 3286.69 1169.29 3242.1 1181.13Z" fill="#FFFFFF" fill-rule="nonzero" fill-opacity="0.3"/><path d="M3120.29 192.929C3095.59 199.479 3096.1 214.973 3105.99 226.31 3106.99 227.886 3108.13 229.271 3109.26 230.405 3114.04 235.382 3127.9 243.002 3142.01 240.671 3157.95 238.027 3166.27 231.538 3169.91 224.611 3176.15 213.021 3159.9 182.409 3120.29 192.929Z" fill="#FFFFFF" fill-rule="nonzero" fill-opacity="0.3"/><path d="M1405.28 142.539C1380.59 149.089 1381.09 164.584 1390.98 175.922 1392.05 177.496 1393.12 178.883 1394.26 180.015 1399.04 184.992 1412.9 192.614 1427.01 190.283 1442.94 187.637 1451.19 181.15 1454.91 174.221 1461.08 162.632 1444.9 132.02 1405.28 142.539Z" fill="#FFFFFF" fill-rule="nonzero" fill-opacity="0.3"/><path d="M1225.07 506.288C1206.49 511.201 1206.87 522.916 1214.3 531.481 1215.06 532.679 1215.94 533.75 1216.76 534.568 1220.35 538.347 1230.8 544.08 1241.45 542.315 1253.42 540.299 1259.72 535.45 1262.49 530.222 1267.15 521.404 1254.93 498.351 1225.07 506.288Z" fill="#FFFFFF" fill-rule="nonzero" fill-opacity="0.3"/><path d="M1810.35 413.571C1791.76 418.484 1792.08 430.2 1799.57 438.766 1800.33 439.962 1801.21 441.034 1802.03 441.852 1805.68 445.632 1816.08 451.363 1826.72 449.6 1838.69 447.585 1844.99 442.735 1847.76 437.507 1852.36 428.689 1840.2 405.634 1810.35 413.571Z" fill="#FFFFFF" fill-rule="nonzero" fill-opacity="0.3"/></g></g></g><rect x="973" y="0" width="2475" height="2475" fill="url(#fill4)"/></g></svg>