<svg width="64" height="64" viewBox="0 0 64 64" fill="none" xmlns="http://www.w3.org/2000/svg">
<g filter="url(#filter0_d)">
<path d="M32 48C41.9411 48 50 39.9411 50 30C50 20.0589 41.9411 12 32 12C22.0589 12 14 20.0589 14 30C14 39.9411 22.0589 48 32 48Z" fill="#F3BA2F"/>
<path d="M27.631 28.2045L32.0005 23.835L36.3722 28.2068L38.9147 25.6643L32.0005 18.75L25.0885 25.662L27.631 28.2045ZM20.7505 30L23.293 27.4575L25.8355 30L23.293 32.5425L20.7505 30ZM27.631 31.7955L32.0005 36.165L36.3722 31.7933L38.9147 34.3346L32.0005 41.25L25.0885 34.338L25.0851 34.3346L27.631 31.7955ZM38.1655 30L40.708 27.4575L43.2505 30L40.708 32.5425L38.1655 30ZM34.579 29.9978H34.5812V30L32.0005 32.5808L29.4231 30.0045L29.4186 30L29.4231 29.9966L29.8742 29.5444L30.0936 29.325L32.0005 27.4193L34.5801 29.9989L34.579 29.9978Z" fill="white"/>
</g>
<defs>
<filter id="filter0_d" x="0" y="0" width="64" height="64" filterUnits="userSpaceOnUse" color-interpolation-filters="sRGB">
<feFlood flood-opacity="0" result="BackgroundImageFix"/>
<feColorMatrix in="SourceAlpha" type="matrix" values="0 0 0 0 0 0 0 0 0 0 0 0 0 0 0 0 0 0 127 0" result="hardAlpha"/>
<feOffset dy="2"/>
<feGaussianBlur stdDeviation="7"/>
<feColorMatrix type="matrix" values="0 0 0 0 0 0 0 0 0 0 0 0 0 0 0 0 0 0 0.05 0"/>
<feBlend mode="normal" in2="BackgroundImageFix" result="effect1_dropShadow"/>
<feBlend mode="normal" in="SourceGraphic" in2="effect1_dropShadow" result="shape"/>
</filter>
</defs>
</svg>
