<svg width="16" height="16" viewBox="0 0 16 16" fill="none" xmlns="http://www.w3.org/2000/svg">
<path d="M8 16C12.4183 16 16 12.4183 16 8C16 3.58172 12.4183 0 8 0C3.58172 0 0 3.58172 0 8C0 12.4183 3.58172 16 8 16Z" fill="#F3BA2F"/>
<path d="M6.05824 7.202L8.00025 5.26L9.94325 7.203L11.0732 6.073L8.00025 3L4.92824 6.072L6.05824 7.202ZM3.00024 8L4.13024 6.87L5.26024 8L4.13024 9.13L3.00024 8ZM6.05824 8.798L8.00025 10.74L9.94325 8.797L11.0732 9.9265L8.00025 13L4.92824 9.928L4.92674 9.9265L6.05824 8.798ZM10.7402 8L11.8702 6.87L13.0002 8L11.8702 9.13L10.7402 8ZM9.14625 7.999H9.14725V8L8.00025 9.147L6.85474 8.002L6.85275 8L6.85474 7.9985L7.05524 7.7975L7.15275 7.7L8.00025 6.853L9.14675 7.9995L9.14625 7.999Z" fill="white"/>
</svg>
