<?xml version="1.0" encoding="utf-8"?>
<!-- Generator: Adobe Illustrator 26.0.3, SVG Export Plug-In . SVG Version: 6.00 Build 0)  -->
<svg version="1.1" xmlns="http://www.w3.org/2000/svg" xmlns:xlink="http://www.w3.org/1999/xlink" x="0px" y="0px"
	 viewBox="0 0 680 640" style="enable-background:new 0 0 680 640;" xml:space="preserve">
<style type="text/css">
	.st0{clip-path:url(#SVGID_00000011741563524731691010000009183868038859793280_);}
	
		.st1{clip-path:url(#SVGID_00000158725684184200105570000010180782365582920618_);fill:url(#SVGID_00000091722533010165849850000010414265400000052354_);}
	.st2{opacity:5.000000e-02;clip-path:url(#SVGID_00000158725684184200105570000010180782365582920618_);}
	.st3{fill:#FFFFFF;}
	.st4{opacity:0.1;clip-path:url(#SVGID_00000158725684184200105570000010180782365582920618_);fill:#FFFFFF;}
	.st5{display:none;clip-path:url(#SVGID_00000011741563524731691010000009183868038859793280_);}
	.st6{display:inline;}
	
		.st7{clip-path:url(#SVGID_00000025410095479592328320000006383690195470297782_);fill:url(#SVGID_00000065073557145467288120000014936410922119043968_);}
	.st8{opacity:5.000000e-02;clip-path:url(#SVGID_00000067215652356644511220000011138681928938467222_);}
	
		.st9{opacity:3.000000e-02;clip-path:url(#SVGID_00000031181599898320624900000008519536077235263878_);fill:#FFFFFF;enable-background:new    ;}
	
		.st10{opacity:3.000000e-02;clip-path:url(#SVGID_00000144317383554422332250000010547503035978232961_);fill:#FFFFFF;enable-background:new    ;}
	.st11{opacity:0.67;}
	.st12{fill:#606060;}
	.st13{opacity:0.5;fill:#3F3F3F;}
	.st14{opacity:0.75;fill:#787878;}
	.st15{clip-path:url(#SVGID_00000011741563524731691010000009183868038859793280_);fill:#808081;}
	.st16{fill:#676767;}
	.st17{fill:#F3C227;}
	.st18{font-family:'Poppins-Bold';}
	.st19{font-size:8.5901px;}
	.st20{fill:none;}
	.st21{fill:#010000;}
	.st22{font-size:10.9763px;}
	.st23{opacity:0.1;}
	.st24{opacity:0.5;}
	.st25{fill:#E6E5E5;}
	.st26{fill:#CCCBCB;}
	.st27{fill:#B3B3B2;}
	.st28{fill:#F1F1F1;}
	.st29{fill:#A06552;}
	.st30{fill:#F4DBB2;}
	.st31{fill:#4E3F3F;}
	.st32{fill:#E5646E;}
	.st33{fill:#5D5360;}
	.st34{opacity:0.35;fill:#4E3F3F;enable-background:new    ;}
	.st35{opacity:0.33;fill:#CCCBCB;}
	.st36{opacity:0.2;fill:#989898;}
	.st37{font-family:'TitanOne';}
	.st38{font-size:9.2843px;}
	.st39{opacity:0.5;fill:#FFFFFF;}
</style>
<g id="Laag_1">
	<g>
		<defs>
			<rect id="SVGID_1_" x="-0.2" y="-1.9" width="680" height="642.5"/>
		</defs>
		<clipPath id="SVGID_00000129202016526057085810000009596931785785139334_">
			<use xlink:href="#SVGID_1_"  style="overflow:visible;"/>
		</clipPath>
		<g style="clip-path:url(#SVGID_00000129202016526057085810000009596931785785139334_);">
			<defs>
				<rect id="SVGID_00000127727817090031412520000000534795582869459645_" x="-532.5" y="-62.9" width="1271.2" height="518.9"/>
			</defs>
			<clipPath id="SVGID_00000097482691686370134150000013293436861640297602_">
				<use xlink:href="#SVGID_00000127727817090031412520000000534795582869459645_"  style="overflow:visible;"/>
			</clipPath>
			
				<radialGradient id="SVGID_00000181788104278992693720000003126788649196709311_" cx="349.3178" cy="330.0473" r="940.1282" gradientTransform="matrix(1.0167 0 0 0.6265 -5.6667 182.1255)" gradientUnits="userSpaceOnUse">
				<stop  offset="0" style="stop-color:#53A2DA"/>
				<stop  offset="1" style="stop-color:#0971B7"/>
			</radialGradient>
			
				<rect x="-731.1" y="-95.6" style="clip-path:url(#SVGID_00000097482691686370134150000013293436861640297602_);fill:url(#SVGID_00000181788104278992693720000003126788649196709311_);" width="1686.9" height="554.3"/>
			<g style="opacity:5.000000e-02;clip-path:url(#SVGID_00000097482691686370134150000013293436861640297602_);">
				<path class="st3" d="M852,95.2c-54.4-2.1-108.6-5-162.4-8.5C587.1,80.1,482.1,72.4,385.4,60C286.6,47.4,185,36.7,84.5,25.2
					C-21.4,13.2-129.9,3.6-239-5.5c-21.5-1.8-43.7-4.2-65.8-5.1c-24.4-1-48.4-1.4-72.6-3.1c-45.5-3.1-90.7-6.6-135.7-10.3
					c-45.1-3.7-91.1-7-135.7-11.1c-22.6-2.1-45.1-4.3-67.6-6.5v11.3c19.4,4.1,39.3,7.9,61.5,10.1c25.4,2.5,63.4-3.1,89-0.6
					c27.5,2.6,55.1,5.1,82.8,7.6c52.8,4.7,98.4,19.4,148.1,26.5c24,3.5,60.7,1.8,86.4,3.9c28,2.3,69.9,11,97.8,13.4
					C-43,39.9,49.5,36.5,156.2,46.9c51.2,5,102,9.9,154.2,13.8c24.8,1.9,49.1,4.3,74.1,6c27,1.8,53.7,3.8,80.2,6.2
					c87.7,7.9,176.5,14.8,266.5,19.7c46.3,2.6,92.9,4.5,139.7,6c24.7,0.8,55.4,4.4,85.6,7.3v-7.5c-7.6-0.3-14.7-0.5-20.4-0.7
					C908.1,97.2,880,96.3,852,95.2z"/>
				<path class="st3" d="M691.3,74.1c-31.2-3.1-61.2-8.8-90.3-15.4c-12.9-2.9-24.9-6.5-37.1-10.3c-13.5-4.1-27.2-7.4-41.5-10.5
					c-28.6-6.3-58.6-11.1-88.6-15.1c-59.6-7.9-120.6-9.6-181.7-11.7c-30.7-1-61.4-2.3-92-4.3c-29-1.9-59.3-3.8-87.3-8.3
					c-55.9-8.9-110.9-19-168-25.6c-28.7-3.3-57.7-4.9-86.9-6.4c-33-1.7-65.8-4.1-98.5-6.8C-343.6-45.4-405.8-54.5-468-62
					c-24.6-2.9-48.7-6.9-72.7-11.1h-161.7c6.2,0.8,12.3,1.5,18.4,2.3c16.4,2.2,32.6,4.6,49,6.9c30.7,4.4,63.1,5.5,94.6,7.1
					c63.4,3.3,125.8,10,188.8,15.1C-289-36.5-226-30.5-162.8-28.1c30.5,1.2,60.2,2.9,89.9,7c28.2,3.8,55.9,8.7,83.5,13.5
					c56.1,9.9,112.1,19.7,170.1,25.8c59.7,6.2,120,10.5,179.6,17c29.8,3.3,59.2,6.6,88.4,11.2c29.1,4.5,57.8,9.7,86.9,14.4
					c13.4,2.1,28,2.6,41.7,4.3c15,1.8,29.8,4.4,44.7,6.4c14.7,2,29.6,3.7,44.4,5.3c16.1,1.7,31.9,4.3,47.8,6.4
					c30.8,4.2,61.6,8.2,92.6,12.1c15,1.9,30,3.9,44.9,6.1c15.6,2.3,30.7,5.7,46.4,8.2c19,2.9,38.6,4.7,58.5,5.9v-18
					c-58-1.9-114.2-9.1-171.1-14.9C754.2,79.3,722.6,77.1,691.3,74.1z"/>
				<path class="st3" d="M897,21c-27.6-4.1-56.5-8.2-82-14.7C764-6.5,714.6-20.6,661.5-31.4c-26.7-5.4-54.5-9.1-82.5-12.8
					c-31.6-4.1-62.8-8.9-93.8-14c-26.3-4.3-52.1-9.4-77.7-14.8h-39.7c16,2.8,32.1,5.5,48.2,8.2c59.2,9.7,118.4,20.3,179.4,27.4
					c29.4,3.4,57.8,7.4,85.1,13.6c26,5.9,51,12.7,75.9,19.6c50.7,13.9,101.2,27.7,155.5,38.1c14.7,2.8,29.6,5.5,44.5,8.1v-13
					C936.6,26.5,916.7,23.9,897,21z"/>
				<path class="st3" d="M659.8,8.3c-31.4-5.4-220.6-27-282.3-37c-29.6-4.8-58.7-10.8-87.3-16.7c-14.7-3-99.5-24.3-109.8-27.7h-40.1
					c0.6,0.2,1.1,0.4,1.7,0.6c21.7,7.6,81.1,32.9,85.9,35c12.9,5.6,97.9,30.5,129.2,35.6c62.5,10.2,126.9,15.6,191.9,19.4
					c33.6,2,164.3,10.4,195.4,14.7c60.6,8.4,113.8,25.6,173.8,35c12.8,2,25.6,4,38.4,5.9V51.5c-7.7-1.3-15.5-2.7-23.2-4
					C903.8,42.2,690.1,13.5,659.8,8.3z"/>
			</g>
			<path style="opacity:0.1;clip-path:url(#SVGID_00000097482691686370134150000013293436861640297602_);fill:#FFFFFF;" d="
				M780,520.4V323.8c-2.7-0.9-5.6-1.4-8.7-1.4c-5.3,0-10.2,1.5-14.3,4.1c-9.8-10.1-23.6-16.2-38.7-15.6
				c-22.3,0.9-40.5,16.1-46.4,36.4c-4.4-1.8-9.3-2.7-14.4-2.7c-17.1,0-31.6,10.9-36.3,25.9c-7.6-5.5-17.1-8.8-27.4-8.8
				c-21.1,0-38.9,13.8-43.5,32.4c-3.3-1.5-7-2.4-10.9-2.4c-8.3,0-15.6,3.8-20.2,9.7c-6.5-4.9-13.9-8.9-21.9-11.5
				c0.8-2.4,1.3-4.9,1.3-7.5c0-13.4-11.3-24.3-25.3-24.3c-0.1,0-0.2,0-0.3,0c-1.9-12.2-12.8-21.5-25.9-21.5
				c-12.2,0-22.4,8-25.4,18.8c-0.3,0-0.6,0-0.9,0c-12.3,0-22.5,8.4-24.8,19.5c-7.4,1.1-14.5,3.2-21,6.2
				c-0.8-12.8-11.7-22.9-25.2-22.9c-0.7,0-1.4,0-2,0.1c1.3-2.6,2-5.5,2-8.5c0-9.5-7-17.5-16.4-19.3c1.2-3.7,1.8-7.6,1.8-11.6
				c0-21.7-18.3-39.3-40.9-39.3c-4.4,0-8.5,0.7-12.5,1.9c4.3-10.1,6.6-21.2,6.6-32.8c0-49.1-42.2-88.9-94.4-88.9
				c-39.1,0-72.6,22.4-86.9,54.3c-4.3-2.9-9.5-4.7-15.2-4.7c-5.3,0-10.2,1.5-14.3,4.1c-9.8-10.1-23.6-16.2-38.7-15.6
				c-22.3,0.9-40.5,16.1-46.4,36.4c-4.4-1.8-9.3-2.7-14.4-2.7c-21,0-37.9,16.3-37.9,36.5c0,6.4,1.7,12.4,4.7,17.6
				c-5.1,2.7-8.6,7.9-8.6,13.9c0,6.5,4.1,12.1,9.9,14.6c-1.4,5.1-2.1,10.5-2.1,16c0,9.4,2.1,18.2,5.9,26.3
				c-5.9,4-11.2,8.6-15.9,13.8c-12.5-19.5-35.6-32.6-62-32.6c-11.8,0-22.9,2.6-32.8,7.3c-5.5-13.6-19.3-23.2-35.3-23.2
				c-12.7,0-23.9,6-30.8,15.2c-6.9-7-16.7-11.4-27.6-11.4c-8.9,0-17.1,3-23.6,7.9c-7.9-28.8-36.1-50-69.8-50
				c-30.6,0-56.8,17.7-67.2,42.6c-1.6-0.3-3.2-0.5-4.8-0.5c-10.2,0-19,5.8-23,14.2c-0.8-0.1-1.5-0.2-2.3-0.2
				c-9.1,0-16.5,7.1-16.5,15.9c0,2.6,0.7,5.1,1.9,7.3c-6.4,4.4-10.6,11.6-10.6,19.8c0,2.5,0.4,4.8,1.1,7.1
				c-7.1-2.1-14.6-3.3-22.5-3.3c-26.5,0-49.7,13.3-62.2,33c-3.8-8.9-12.8-15.2-23.4-15.2c-4.9,0-9.4,1.4-13.3,3.7
				c-3.6-9.2-12.8-15.8-23.7-15.8c-6.1,0-11.7,2.1-16.1,5.6c-6.6-10.6-18.7-17.7-32.5-17.7c-8.8,0-16.9,2.9-23.3,7.7v133.3H780z"/>
			<path style="opacity:0.1;clip-path:url(#SVGID_00000097482691686370134150000013293436861640297602_);fill:#FFFFFF;" d="
				M956.6,350.5c-1.9-1.5-4-2.5-6.3-3.1c-1.7-3.1-4.8-5.2-8.4-5.2c-5.4,0-9.7,4.8-9.7,10.7c0,0.1,0,0.2,0,0.3
				c-1.7-0.2-3.3-0.3-5-0.3c-11.7,0-22.6,3.7-31.8,10.1c-1.2-0.3-2.5-0.5-3.7-0.5c-9.6,0-17.4,8.6-17.4,19.2c0,0.2,0,0.5,0,0.7
				c0,0,0,0,0,0c-4.4,0-8.1,4-8.1,8.9c0,3.3,1.6,6.2,4,7.7c-1.3,4.6-2.2,9.5-2.5,14.5c-0.1,0-0.1,0-0.2,0c-8.6,0-16.4,4-21.9,10.4
				c-1.5-9.3-6.4-17.4-13.2-22.4c-1.3-9.1-8.5-16.1-17.2-16.1c-2,0-4,0.4-5.8,1.1c-1.4-0.9-3.1-1.5-4.9-1.5c-5,0-9.1,4.2-9.7,9.6
				c-3-2-6.6-3.2-10.5-3.2c-1.7,0-3.4,0.2-4.9,0.7c-6.8-5.9-15.6-9.5-25.1-9.5c-0.2,0-0.5,0-0.7,0c-0.7-4.1-4-7.1-7.9-7.1
				c-1.3,0-2.5,0.4-3.6,1c-0.8-3.6-2.8-6.7-5.4-8.8c0.7-1.4,1-3,1-4.6c0-5.6-4.1-10.1-9.1-10.1c-0.4,0-0.9,0-1.3,0.1
				c-2.2-5.3-7.1-9-12.7-9c-0.9,0-1.8,0.1-2.7,0.3c-5.7-15.7-20.2-26.9-37.1-26.9c-13.7,0-25.8,7.3-32.9,18.4
				c-0.8-0.2-1.6-0.3-2.4-0.3c-5.1,0-9.2,4.3-9.7,9.7c-2.1-0.8-4.3-1.2-6.6-1.2c-6,0-11.4,2.8-15.2,7.2c-3.8-5.8-10-9.6-17-9.6
				c-8.9,0-16.5,6.1-19.5,14.7c-5.4-2.9-11.6-4.6-18.1-4.6c-3.4,0-6.6,0.5-9.7,1.3c-4-10.4-13.4-17.7-24.3-17.7
				c-1.8,0-3.5,0.2-5.2,0.6c2.3-1.8,3.8-4.8,3.8-8.2c0-3.8-1.9-7.1-4.7-8.8c1.6-3.3,2.6-7.1,2.6-11.1c0-12.8-9.4-23.1-21-23.1
				c-2.8,0-5.5,0.6-8,1.7c-3.3-12.8-13.3-22.4-25.6-23c-1.1-0.1-2.2,0-3.3,0.1c-6.8-14.4-20.5-24.2-36.3-24.2c-4.2,0-8.3,0.7-12.2,2
				c-1.9-6.6-7.4-11.4-14-11.4c-6,0-11.2,4-13.5,9.8c-2.1-0.3-4.2-0.4-6.4-0.4c-28.8,0-52.1,25.2-52.1,56.2c0,7.3,1.3,14.3,3.7,20.7
				c-2.2-0.8-4.5-1.2-6.9-1.2c-12.5,0-22.6,11.1-22.6,24.9c0,2.6,0.4,5,1,7.3c-5.2,1.1-9.1,6.2-9.1,12.2c0,1.9,0.4,3.8,1.1,5.4
				c-0.4,0-0.7-0.1-1.1-0.1c-7.4,0-13.5,6.4-13.9,14.5c-3.6-1.9-7.5-3.3-11.6-3.9c-1.3-7-6.9-12.3-13.7-12.3c-0.2,0-0.3,0-0.5,0
				c-1.6-6.8-7.3-11.9-14-11.9c-5.7,0-10.6,3.6-13,8.9c-1.5-2.4-4.1-4-7-4c-4.7,0-8.5,4.2-8.5,9.4c0,0.1,0,0.1,0,0.2
				c-1.5-0.1-2.9-0.2-4.4-0.2c-10.3,0-19.8,3.3-27.9,8.9c-1.1-0.3-2.2-0.4-3.3-0.4c-0.2,0-0.4,0-0.7,0c-4.4-4.2-10.1-6.8-16.4-6.8
				c-0.8,0-1.5,0-2.2,0.1c-2.5-4.2-6.4-7.2-11-8.3c-1.7-3.1-4.8-5.2-8.4-5.2c-5.4,0-9.7,4.8-9.7,10.7c0,0.1,0,0.2,0,0.3
				c-1.7-0.2-3.3-0.3-5-0.3c-11.7,0-22.6,3.7-31.8,10.1c-1.2-0.3-2.5-0.5-3.7-0.5c-9.6,0-17.4,8.6-17.4,19.2c0,0.2,0,0.5,0,0.7
				c0,0,0,0,0,0c-0.3,0-0.7,0-1,0.1c-4-1.7-8.4-2.7-13-2.7c-0.2,0-0.4,0-0.6,0c-0.6-3.6-3.5-6.2-6.9-6.2c-1.1,0-2.2,0.3-3.2,0.8
				c-0.7-3.1-2.4-5.8-4.8-7.7c0.6-1.2,0.9-2.6,0.9-4.1c0-4.9-3.6-8.8-8-8.8c-0.4,0-0.8,0-1.1,0.1c-1.9-4.6-6.2-7.9-11.1-7.9
				c-0.8,0-1.6,0.1-2.3,0.3c-5-13.8-17.7-23.6-32.5-23.6c-12,0-22.6,6.4-28.8,16.2c-0.7-0.2-1.4-0.3-2.1-0.3c-4.4,0-8.1,3.7-8.5,8.5
				c-1.8-0.7-3.7-1-5.8-1c-5.3,0-10,2.4-13.3,6.3c-3.3-5.1-8.8-8.4-14.9-8.4c-7.8,0-14.4,5.3-17.1,12.9c-4.8-2.6-10.1-4-15.9-4
				c-2.9,0-5.8,0.4-8.5,1.1c-3.5-9.1-11.7-15.6-21.3-15.6c-1.6,0-3.1,0.2-4.6,0.5c2-1.6,3.4-4.2,3.4-7.2c0-3.3-1.7-6.2-4.1-7.7
				c1.4-2.9,2.3-6.2,2.3-9.7c0-11.2-8.2-20.2-18.4-20.2c-2.5,0-4.8,0.5-7,1.5c-2.9-11.2-11.7-19.6-22.5-20.2c-1,0-1.9,0-2.9,0.1
				c-6-12.6-18-21.2-31.8-21.2c-3.7,0-7.3,0.6-10.7,1.8c-1.6-5.8-6.5-10-12.3-10c-5.3,0-9.9,3.5-11.8,8.6c-1.8-0.2-3.7-0.4-5.6-0.4
				c-25.2,0-45.7,22.1-45.7,49.3c0,6.4,1.1,12.5,3.2,18.2c-1.9-0.7-3.9-1-6-1c-10.9,0-19.8,9.8-19.8,21.8c0,2.2,0.3,4.4,0.9,6.4
				c-4.5,1-7.9,5.4-7.9,10.7c0,1.7,0.4,3.3,1,4.7c-0.3,0-0.7-0.1-1-0.1c-6.5,0-11.8,5.6-12.2,12.7c-3.1-1.7-6.6-2.8-10.2-3.4
				c-1.1-6.2-6.1-10.8-12-10.8c-0.1,0-0.3,0-0.4,0c-1.4-6-6.4-10.4-12.3-10.4c-6.4,0-11.7,5.2-12.6,11.9c-0.1,0-0.1,0-0.2,0
				c-6.8,0-12.2,6-12.2,13.5c0,1.5,0.2,2.9,0.6,4.2c-3.9,1.5-7.5,3.6-10.6,6.4c-2.2-3.3-5.8-5.4-9.8-5.4c-1.9,0-3.7,0.5-5.3,1.3
				c-2.3-10.3-10.8-17.9-21.1-17.9c-0.7,0-1.3,0-1.9,0.1c-2.2-3.7-5.6-6.3-9.6-7.3c-1.5-2.7-4.2-4.6-7.3-4.6c-4.7,0-8.5,4.2-8.5,9.4
				c0,0.1,0,0.1,0,0.2c-1.5-0.1-2.9-0.2-4.4-0.2c-10.3,0-19.8,3.3-27.9,8.9c-1.1-0.3-2.1-0.4-3.3-0.4c-8.4,0-15.3,7.5-15.3,16.8
				c0,0.2,0,0.4,0,0.6c0,0,0,0,0,0c-3.9,0-7.1,3.5-7.1,7.8c0,2.9,1.4,5.4,3.5,6.7c-1.1,4.1-1.9,8.3-2.2,12.7c-0.1,0-0.1,0-0.2,0
				c-7.6,0-14.4,3.5-19.2,9.1c-1.3-8.2-5.6-15.2-11.6-19.7c-1.2-8-7.5-14.1-15.1-14.1c-1.8,0-3.5,0.4-5.1,1
				c-1.3-0.8-2.7-1.3-4.3-1.3c-4.4,0-8,3.7-8.5,8.4c-2.7-1.8-5.8-2.8-9.2-2.8c-7,0-13,4.4-15.8,10.9c-2.2-1.6-4.8-2.5-7.6-2.5
				c-4.6,0-8.7,2.4-11.3,6.2c-1.2-1.8-3.1-3-5.2-3c-3.6,0-6.5,3.2-6.5,7.1c0,1.6,0.5,3.1,1.4,4.4c-0.5,0-1-0.1-1.5-0.1
				c-9.9,0-18.3,6.8-21.6,16.4c-2.5-0.4-5-0.6-7.5-0.6c-0.4,0-0.9,0-1.3,0c0,0,0,0,0,0c0-5.9-3.3-10.9-7.9-13.1l-4.2,205.8l1677.2-4
				V350.5z"/>
		</g>
		<g style="display:none;clip-path:url(#SVGID_00000129202016526057085810000009596931785785139334_);">
			<g class="st6">
				<defs>
					<rect id="SVGID_00000173149906134393229950000018351256834410304441_" x="-532.2" y="-62.7" width="1271.2" height="518.9"/>
				</defs>
				<clipPath id="SVGID_00000156559057995508668190000014929326128376487060_">
					<use xlink:href="#SVGID_00000173149906134393229950000018351256834410304441_"  style="overflow:visible;"/>
				</clipPath>
				
					<radialGradient id="SVGID_00000137851686318641023570000010904717188280346535_" cx="340.351" cy="-0.7345" r="940.1282" gradientTransform="matrix(1.0167 0 0 -0.6265 3.7786 388.6161)" gradientUnits="userSpaceOnUse">
					<stop  offset="0" style="stop-color:#174453"/>
					<stop  offset="1" style="stop-color:#0C222A"/>
				</radialGradient>
				
					<rect x="-730.8" y="-95.4" style="clip-path:url(#SVGID_00000156559057995508668190000014929326128376487060_);fill:url(#SVGID_00000137851686318641023570000010904717188280346535_);" width="1686.9" height="554.3"/>
			</g>
			<g class="st6">
				<defs>
					<rect id="SVGID_00000016035144018561131770000017281146358318072246_" x="-532.2" y="-62.7" width="1271.2" height="518.9"/>
				</defs>
				<clipPath id="SVGID_00000046335018411562711480000010736481037524218811_">
					<use xlink:href="#SVGID_00000016035144018561131770000017281146358318072246_"  style="overflow:visible;"/>
				</clipPath>
				<g style="opacity:5.000000e-02;clip-path:url(#SVGID_00000046335018411562711480000010736481037524218811_);">
					<path class="st3" d="M852.3,95.4c-54.4-2.1-108.6-5-162.4-8.5c-102.6-6.7-207.5-14.4-304.3-26.7
						C286.8,47.6,185.2,36.9,84.8,25.4C-21.1,13.4-129.7,3.7-238.8-5.4c-21.5-1.8-43.7-4.2-65.8-5.1c-24.4-1-48.4-1.4-72.6-3.1
						c-45.5-3.1-90.7-6.6-135.7-10.3c-45.1-3.7-91.1-7-135.7-11.1c-22.6-2.1-45.1-4.3-67.6-6.5v11.3c19.4,4.1,39.3,7.9,61.5,10.1
						c25.4,2.5,63.4-3.1,89-0.6c27.5,2.6,55.1,5.1,82.8,7.6c52.8,4.7,98.4,19.4,148.1,26.5c24,3.5,60.7,1.8,86.4,3.9
						c28,2.3,69.9,11,97.8,13.4C-42.8,40,49.8,36.6,156.5,47c51.2,5,102,9.9,154.2,13.8c24.8,1.9,49.1,4.3,74.1,6
						c27,1.8,53.7,3.8,80.2,6.2c87.7,7.9,176.5,14.8,266.5,19.7c46.3,2.6,92.9,4.5,139.7,6c24.7,0.8,55.4,4.4,85.6,7.3v-7.5
						c-7.6-0.3-14.7-0.5-20.4-0.7C908.4,97.4,880.3,96.5,852.3,95.4z"/>
					<path class="st3" d="M691.6,74.2c-31.2-3.1-61.2-8.8-90.3-15.4c-12.9-2.9-24.9-6.5-37.1-10.3c-13.5-4.1-27.2-7.4-41.5-10.5
						c-28.6-6.3-58.6-11.1-88.6-15.1c-59.6-7.9-120.6-9.6-181.7-11.7c-30.7-1-61.4-2.3-92-4.3c-29-1.9-59.3-3.8-87.3-8.3
						c-55.9-8.9-110.9-19-168-25.6c-28.7-3.3-57.7-4.9-86.9-6.4c-33-1.7-65.8-4.1-98.5-6.8c-63.1-5.2-125.2-14.3-187.4-21.7
						c-24.6-2.9-48.7-6.9-72.7-11.1h-161.7c6.2,0.8,12.3,1.5,18.4,2.3c16.4,2.2,32.6,4.6,49,6.9c30.7,4.4,63.1,5.5,94.6,7.1
						c63.4,3.3,125.8,10,188.8,15.1c62.6,5.1,125.6,11.1,188.8,13.4c30.5,1.2,60.2,2.9,89.9,7c28.2,3.8,55.9,8.7,83.5,13.5
						C67,2.2,123,12,181,18.1c59.7,6.2,120,10.5,179.6,17c29.8,3.3,59.2,6.6,88.4,11.2c29.1,4.5,57.8,9.7,86.9,14.4
						c13.4,2.1,28,2.6,41.7,4.3c15,1.8,29.8,4.4,44.7,6.4c14.7,2,29.6,3.7,44.4,5.3c16.1,1.7,31.9,4.3,47.8,6.4
						c30.8,4.2,61.6,8.2,92.6,12.1c15,1.9,30,3.9,44.9,6.1c15.6,2.3,30.7,5.7,46.4,8.2c19,2.9,38.6,4.7,58.5,5.9v-18
						c-58-1.9-114.2-9.1-171.1-14.9C754.5,79.5,722.9,77.3,691.6,74.2z"/>
					<path class="st3" d="M897.3,21.2c-27.6-4.1-56.5-8.2-82-14.7C764.4-6.4,715-20.5,661.9-31.3c-26.7-5.4-54.5-9.1-82.5-12.8
						c-31.6-4.1-62.8-8.9-93.8-14c-26.3-4.3-52.1-9.4-77.7-14.8h-39.7c16,2.8,32.1,5.5,48.2,8.2c59.2,9.7,118.4,20.3,179.4,27.4
						c29.4,3.4,57.8,7.4,85.1,13.6c26,5.9,51,12.7,75.9,19.6C807.5,9.8,858,23.6,912.3,34c14.7,2.8,29.6,5.5,44.5,8.1v-13
						C936.9,26.7,917,24.1,897.3,21.2z"/>
					<path class="st3" d="M660.1,8.5c-31.4-5.4-220.6-27-282.3-37c-29.6-4.8-58.7-10.8-87.3-16.7c-14.7-3-99.5-24.3-109.8-27.7
						h-40.1c0.6,0.2,1.1,0.4,1.7,0.6c21.7,7.6,81.1,32.9,85.9,35c12.9,5.6,97.9,30.5,129.2,35.6c62.5,10.2,126.9,15.6,191.9,19.4
						c33.6,2,164.3,10.4,195.4,14.7c60.6,8.4,113.8,25.6,173.8,35c12.8,2,25.6,4,38.4,5.9V51.6c-7.7-1.3-15.5-2.7-23.2-4
						C904.1,42.4,690.4,13.7,660.1,8.5z"/>
				</g>
			</g>
			<g class="st6">
				<defs>
					<rect id="SVGID_00000146467390059685953880000007851509185054998203_" x="-532.2" y="-62.7" width="1271.2" height="518.9"/>
				</defs>
				<clipPath id="SVGID_00000028321771022982597100000004826165637101384879_">
					<use xlink:href="#SVGID_00000146467390059685953880000007851509185054998203_"  style="overflow:visible;"/>
				</clipPath>
				
					<path style="opacity:3.000000e-02;clip-path:url(#SVGID_00000028321771022982597100000004826165637101384879_);fill:#FFFFFF;enable-background:new    ;" d="
					M780.3,520.6V324c-2.7-0.9-5.6-1.4-8.7-1.4c-5.3,0-10.2,1.5-14.3,4.1c-9.8-10.1-23.6-16.2-38.7-15.6
					c-22.3,0.9-40.5,16.1-46.4,36.4c-4.4-1.8-9.3-2.7-14.4-2.7c-17.1,0-31.6,10.9-36.3,25.9c-7.6-5.5-17.1-8.8-27.4-8.8
					c-21.1,0-38.9,13.8-43.5,32.4c-3.3-1.5-7-2.4-10.9-2.4c-8.3,0-15.6,3.8-20.2,9.7c-6.5-4.9-13.9-8.9-21.9-11.5
					c0.8-2.4,1.3-4.9,1.3-7.5c0-13.4-11.3-24.3-25.3-24.3c-0.1,0-0.2,0-0.3,0c-1.9-12.2-12.8-21.5-25.9-21.5
					c-12.2,0-22.4,8-25.4,18.8c-0.3,0-0.6,0-0.9,0c-12.3,0-22.5,8.4-24.8,19.5c-7.4,1.1-14.5,3.2-21,6.2
					c-0.8-12.8-11.7-22.9-25.2-22.9c-0.7,0-1.4,0-2,0.1c1.3-2.6,2-5.5,2-8.5c0-9.5-7-17.5-16.4-19.3c1.2-3.7,1.8-7.6,1.8-11.6
					c0-21.7-18.3-39.3-40.9-39.3c-4.4,0-8.5,0.7-12.5,1.9c4.3-10.1,6.6-21.2,6.6-32.8c0-49.1-42.2-88.9-94.4-88.9
					c-39.1,0-72.6,22.4-86.9,54.3c-4.3-2.9-9.5-4.7-15.2-4.7c-5.3,0-10.2,1.5-14.3,4.1c-9.8-10.1-23.6-16.2-38.7-15.6
					c-22.4,0.5-40.6,15.7-46.5,36c-4.4-1.8-9.3-2.7-14.4-2.7c-21,0-37.9,16.3-37.9,36.5c0,6.4,1.7,12.4,4.7,17.6
					c-5.1,2.7-8.6,7.9-8.6,13.9c0,6.5,4.1,12.1,9.9,14.6c-1.4,5.1-2.1,10.5-2.1,16c0,9.4,2.1,18.2,5.9,26.3
					c-5.9,4-11.2,8.6-15.9,13.8c-12.5-19.5-35.6-32.6-62-32.6c-11.8,0-22.9,2.6-32.8,7.3c-5.5-13.6-19.3-23.2-35.3-23.2
					c-12.7,0-23.9,6-30.8,15.2c-6.9-7-16.7-11.4-27.6-11.4c-8.9,0-17.1,3-23.6,7.9c-7.9-28.8-36.1-50-69.8-50
					c-30.6,0-56.8,17.7-67.2,42.6c-1.6-0.3-3.2-0.5-4.8-0.5c-10.2,0-19,5.8-23,14.2c-0.8-0.1-1.5-0.2-2.3-0.2
					c-9.1,0-16.5,7.1-16.5,15.9c0,2.6,0.7,5.1,1.9,7.3c-6.4,4.4-10.6,11.6-10.6,19.8c0,2.5,0.4,4.8,1.1,7.1
					c-7.1-2.1-14.6-3.3-22.5-3.3c-26.5,0-49.7,13.3-62.2,33c-3.8-8.9-12.8-15.2-23.4-15.2c-4.9,0-9.4,1.4-13.3,3.7
					c-3.6-9.2-12.8-15.8-23.7-15.8c-6.1,0-11.7,2.1-16.1,5.6c-6.6-10.6-18.7-17.7-32.5-17.7c-8.8,0-16.9,2.9-23.3,7.7v133.1H780.3z"
					/>
			</g>
			<g class="st6">
				<defs>
					<rect id="SVGID_00000039118353246755855170000003018872147998604175_" x="-532.2" y="-62.7" width="1271.2" height="518.9"/>
				</defs>
				<clipPath id="SVGID_00000091696475401721178800000002087034363595462023_">
					<use xlink:href="#SVGID_00000039118353246755855170000003018872147998604175_"  style="overflow:visible;"/>
				</clipPath>
				
					<path style="opacity:3.000000e-02;clip-path:url(#SVGID_00000091696475401721178800000002087034363595462023_);fill:#FFFFFF;enable-background:new    ;" d="
					M956.9,350.7c-1.9-1.5-4-2.5-6.3-3.1c-1.7-3.1-4.8-5.2-8.4-5.2c-5.4,0-9.7,4.8-9.7,10.7c0,0.1,0,0.2,0,0.3
					c-1.7-0.2-3.3-0.3-5-0.3c-11.7,0-22.6,3.7-31.8,10.1c-1.2-0.3-2.5-0.5-3.7-0.5c-9.6,0-17.4,8.6-17.4,19.2c0,0.2,0,0.5,0,0.7l0,0
					c-4.4,0-8.1,4-8.1,8.9c0,3.3,1.6,6.2,4,7.7c-1.3,4.6-2.2,9.5-2.5,14.5c-0.1,0-0.1,0-0.2,0c-8.6,0-16.4,4-21.9,10.4
					c-1.5-9.3-6.4-17.4-13.2-22.4c-1.3-9.1-8.5-16.1-17.2-16.1c-2,0-4,0.4-5.8,1.1c-1.4-0.9-3.1-1.5-4.9-1.5c-5,0-9.1,4.2-9.7,9.6
					c-3-2-6.6-3.2-10.5-3.2c-1.7,0-3.4,0.2-4.9,0.7c-6.8-5.9-15.6-9.5-25.1-9.5c-0.2,0-0.5,0-0.7,0c-0.7-4.1-4-7.1-7.9-7.1
					c-1.3,0-2.5,0.4-3.6,1c-0.8-3.6-2.8-6.7-5.4-8.8c0.7-1.4,1-3,1-4.6c0-5.6-4.1-10.1-9.1-10.1c-0.4,0-0.9,0-1.3,0.1
					c-2.2-5.3-7.1-9-12.7-9c-0.9,0-1.8,0.1-2.7,0.3c-5.7-15.7-20.2-26.9-37.1-26.9c-13.7,0-25.8,7.3-32.9,18.4
					c-0.8-0.2-1.6-0.3-2.4-0.3c-5.1,0-9.2,4.3-9.7,9.7c-2.1-0.8-4.3-1.2-6.6-1.2c-6,0-11.4,2.8-15.2,7.2c-3.8-5.8-10-9.6-17-9.6
					c-8.9,0-16.5,6.1-19.5,14.7c-5.4-2.9-11.6-4.6-18.1-4.6c-3.4,0-6.6,0.5-9.7,1.3c-4-10.4-13.4-17.7-24.3-17.7
					c-1.8,0-3.5,0.2-5.2,0.6c2.3-1.8,3.8-4.8,3.8-8.2c0-3.8-1.9-7.1-4.7-8.8c1.6-3.3,2.6-7.1,2.6-11.1c0-12.8-9.4-23.1-21-23.1
					c-2.8,0-5.5,0.6-8,1.7c-3.3-12.8-13.3-22.4-25.6-23c-1.1-0.1-2.2,0-3.3,0.1c-7.2-14.4-20.8-24.2-36.6-24.2
					c-4.2,0-8.3,0.7-12.2,2c-1.9-6.6-7.4-11.4-14-11.4c-6,0-11.2,4-13.5,9.8c-2.1-0.3-4.2-0.4-6.4-0.4c-28.8,0-52.1,25.2-52.1,56.2
					c0,7.3,1.3,14.3,3.7,20.7c-2.2-0.8-4.5-1.2-6.9-1.2c-12.5,0-22.6,11.1-22.6,24.9c0,2.6,0.4,5,1,7.3c-5.2,1.1-9.1,6.2-9.1,12.2
					c0,1.9,0.4,3.8,1.1,5.4c-0.4,0-0.7-0.1-1.1-0.1c-7.4,0-13.5,6.4-13.9,14.5c-3.6-1.9-7.5-3.3-11.6-3.9c-1.3-7-6.9-12.3-13.7-12.3
					c-0.2,0-0.3,0-0.5,0c-1.6-6.8-7.3-11.9-14-11.9c-5.7,0-10.6,3.6-13,8.9c-1.5-2.4-4.1-4-7-4c-4.7,0-8.5,4.2-8.5,9.4
					c0,0.1,0,0.1,0,0.2c-1.5-0.1-2.9-0.2-4.4-0.2c-10.3,0-19.8,3.3-27.9,8.9c-1.1-0.3-2.2-0.4-3.3-0.4c-0.2,0-0.4,0-0.7,0
					c-4.4-4.2-10.1-6.8-16.4-6.8c-0.8,0-1.5,0-2.2,0.1c-2.5-4.2-6.4-7.2-11-8.3c-1.7-3.1-4.8-5.2-8.4-5.2c-5.4,0-9.7,4.8-9.7,10.7
					c0,0.1,0,0.2,0,0.3c-1.7-0.2-3.3-0.3-5-0.3c-11.7,0-22.6,3.7-31.8,10.1c-1.2-0.3-2.5-0.5-3.7-0.5c-9.6,0-17.4,8.6-17.4,19.2
					c0,0.2,0,0.5,0,0.7l0,0c-0.3,0-0.7,0-1,0.1c-4-1.7-8.4-2.7-13-2.7c-0.2,0-0.4,0-0.6,0c-0.6-3.6-3.5-6.2-6.9-6.2
					c-1.1,0-2.2,0.3-3.2,0.8c-0.7-3.1-2.4-5.8-4.8-7.7c0.6-1.2,0.9-2.6,0.9-4.1c0-4.9-3.6-8.8-8-8.8c-0.4,0-0.8,0-1.1,0.1
					c-1.9-4.6-6.2-7.9-11.1-7.9c-0.8,0-1.6,0.1-2.3,0.3c-5-13.8-17.7-23.6-32.5-23.6c-12,0-22.6,6.4-28.8,16.2
					c-0.7-0.2-1.4-0.3-2.1-0.3c-4.4,0-8.1,3.7-8.5,8.5c-1.8-0.7-3.7-1-5.8-1c-5.3,0-10,2.4-13.3,6.3c-3.3-5.1-8.8-8.4-14.9-8.4
					c-7.8,0-14.4,5.3-17.1,12.9c-4.8-2.6-10.1-4-15.9-4c-2.9,0-5.8,0.4-8.5,1.1c-3.5-9.1-11.7-15.6-21.3-15.6
					c-1.6,0-3.1,0.2-4.6,0.5c2-1.6,3.4-4.2,3.4-7.2c0-3.3-1.7-6.2-4.1-7.7c1.4-2.9,2.3-6.2,2.3-9.7c0-11.2-8.2-20.2-18.4-20.2
					c-2.5,0-4.8,0.5-7,1.5c-2.9-11.2-11.7-19.6-22.5-20.2c-1,0-1.9,0-2.9,0.1c-6-12.6-18-21.2-31.8-21.2c-3.7,0-7.3,0.6-10.7,1.8
					c-1.6-5.8-6.5-10-12.3-10c-5.3,0-9.9,3.5-11.8,8.6c-1.8-0.2-3.7-0.4-5.6-0.4c-25.2,0-45.7,22.1-45.7,49.3
					c0,6.4,1.1,12.5,3.2,18.2c-1.9-0.7-3.9-1-6-1c-10.9,0-19.8,9.8-19.8,21.8c0,2.2,0.3,4.4,0.9,6.4c-4.5,1-7.9,5.4-7.9,10.7
					c0,1.7,0.4,3.3,1,4.7c-0.3,0-0.7-0.1-1-0.1c-6.5,0-11.8,5.6-12.2,12.7c-3.1-1.7-6.6-2.8-10.2-3.4c-1.1-6.2-6.1-10.8-12-10.8
					c-0.1,0-0.3,0-0.4,0c-1.4-6-6.4-10.4-12.3-10.4c-6.4,0-11.7,5.2-12.6,11.9c-0.1,0-0.1,0-0.2,0c-6.8,0-12.2,6-12.2,13.5
					c0,1.5,0.2,2.9,0.6,4.2c-3.9,1.5-7.5,3.6-10.6,6.4c-2.2-3.3-5.8-5.4-9.8-5.4c-1.9,0-3.7,0.5-5.3,1.3
					c-2.3-10.3-10.8-17.9-21.1-17.9c-0.7,0-1.3,0-1.9,0.1c-2.2-3.7-5.6-6.3-9.6-7.3c-1.5-2.7-4.2-4.6-7.3-4.6
					c-4.7,0-8.5,4.2-8.5,9.4c0,0.1,0,0.1,0,0.2c-1.5-0.1-2.9-0.2-4.4-0.2c-10.3,0-19.8,3.3-27.9,8.9c-1.1-0.3-2.1-0.4-3.3-0.4
					c-8.4,0-15.3,7.5-15.3,16.8c0,0.2,0,0.4,0,0.6l0,0c-3.9,0-7.1,3.5-7.1,7.8c0,2.9,1.4,5.4,3.5,6.7c-1.1,4.1-1.9,8.3-2.2,12.7
					c-0.1,0-0.1,0-0.2,0c-7.6,0-14.4,3.5-19.2,9.1c-1.3-8.2-5.6-15.2-11.6-19.7c-1.2-8-7.5-14.1-15.1-14.1c-1.8,0-3.5,0.4-5.1,1
					c-1.3-0.8-2.7-1.3-4.3-1.3c-4.4,0-8,3.7-8.5,8.4c-2.7-1.8-5.8-2.8-9.2-2.8c-7,0-13,4.4-15.8,10.9c-2.2-1.6-4.8-2.5-7.6-2.5
					c-4.6,0-8.7,2.4-11.3,6.2c-1.2-1.8-3.1-3-5.2-3c-3.6,0-6.5,3.2-6.5,7.1c0,1.6,0.5,3.1,1.4,4.4c-0.5,0-1-0.1-1.5-0.1
					c-9.9,0-18.3,6.8-21.6,16.4c-2.5-0.4-5-0.6-7.5-0.6c-0.4,0-0.9,0-1.3,0l0,0c0-5.9-3.3-10.9-7.9-13.1l-4.2,205.8l1677.2-4V350.7
					H956.9z"/>
			</g>
		</g>
		<g style="clip-path:url(#SVGID_00000129202016526057085810000009596931785785139334_);">
			<rect x="-531.7" y="456.1" class="st3" width="1271.2" height="205.2"/>
			<g class="st11">
				<rect x="-531.7" y="456.1" class="st12" width="1271.2" height="205.2"/>
				<polygon class="st13" points="739.5,641.5 739.5,661.3 -531.7,661.3 -531.7,558.7 -272.9,575.5 -141,584.1 				"/>
				<path class="st13" d="M104.3,661.3l-0.2-205.2H103l0,41.3H19.5l4.3-41.3h-1.2l-4.4,41.3h-83.5l8.7-41.3h-1.2l-8.7,41.3H-150
					l13-41.3h-1.2l-13.1,41.3h-83.5l17.4-41.3h-1.2l-17.4,41.3h-83.5l21.7-41.3h-1.2l-21.8,41.3h-83.5l26.1-41.3h-1.2l-26.1,41.3
					h-83.5l30.4-41.3h-1.2l-30.5,41.3h-41.6v1.4h40.5l-40.5,54.9v1.8l41.8-56.7h83.6l-62.4,98.7h-62.9v1.8h61.8l-39.3,62.1h1.5
					l39.2-62.1h94.1l-32.8,62.1h1.5l32.7-62.1h94.1l-26.2,62.1h1.5l26.1-62.1h94.1l-19.7,62.1h1.5l19.6-62.1h94.1l-13.1,62.1h1.5
					l13-62.1H7.4l-6.6,62.1h1.5l6.5-62.1h94.1l0,62.1H104.3z M-373.5,597.4h-93.9l62.3-98.7h83.6L-373.5,597.4z M-278.2,597.4h-93.9
					l51.9-98.7h83.6L-278.2,597.4z M-182.9,597.4h-93.9l41.5-98.7h83.6L-182.9,597.4z M-87.7,597.4h-93.9l31.1-98.7h83.6
					L-87.7,597.4z M7.6,597.4h-93.9l20.7-98.7h83.6L7.6,597.4z M9,597.4l10.3-98.7h83.6l-0.1,98.7H9z M739.5,497.3h-42.3l-30.5-41.3
					h-1.2l30.4,41.3h-83.5l-26.1-41.3h-1.2l26.1,41.3h-83.5L506,456.1h-1.2l21.7,41.3H443l-17.4-41.3h-1.2l17.4,41.3h-83.5
					l-13.1-41.3h-1.2l13,41.3h-83.5l-8.7-41.3h-1.2l8.7,41.3h-83.5l-4.4-41.3h-1.2l4.3,41.3h-83.4v1.4h83.6l10.3,98.7h-93.8v1.8h94
					l6.5,62.1h1.5l-6.6-62.1h94.1l13,62.1h1.5l-13.1-62.1h94.1l19.6,62.1h1.5l-19.7-62.1h94.1l26.1,62.1h1.5l-26.2-62.1h94.1
					l32.7,62.1h1.5l-32.8-62.1h94.1l39.2,62.1h1.5L677,599.2h62.5v-1.8h-63.7l-62.4-98.7H697l42.5,57.7v-1.8l-41.2-55.9h41.2V497.3z
					 M199.5,597.4L189,498.7h83.6l20.7,98.7H199.5z M294.8,597.4l-20.9-98.7h83.6l31.1,98.7H294.8z M390,597.4l-31.3-98.7h83.6
					l41.5,98.7H390z M485.3,597.4l-41.7-98.7h83.6l51.9,98.7H485.3z M674.4,597.4h-93.9l-52-98.7h83.6L674.4,597.4z"/>
				<path class="st13" d="M154.2,576.7c0,2.3-6.9,4.2-15.5,4.2c-8.6,0-15.5-1.9-15.5-4.2s6.9-4.2,15.5-4.2
					C147.3,572.6,154.2,574.4,154.2,576.7z"/>
				<path class="st14" d="M-129.6,485c0,0.5-2,0.8-4.4,0.8c-2.4,0-4.4-0.4-4.4-0.8c0-0.5,2-0.8,4.4-0.8
					C-131.6,484.2-129.6,484.5-129.6,485z"/>
				<path class="st13" d="M428.1,539.1c0,1.2-4.5,2.2-10,2.2c-5.5,0-10-1-10-2.2c0-1.2,4.5-2.2,10-2.2
					C423.6,536.8,428.1,537.8,428.1,539.1z"/>
				<ellipse class="st13" cx="-490.7" cy="478.4" rx="6.1" ry="1.6"/>
				<ellipse class="st13" cx="-333.6" cy="487.6" rx="4.1" ry="1.8"/>
				<path class="st12" d="M718.1,478c0,0.9-2.8,1.6-6.1,1.6c-3.4,0-6.1-0.7-6.1-1.6c0-0.9,2.8-1.6,6.1-1.6
					C715.3,476.4,718.1,477.1,718.1,478z"/>
				<ellipse class="st12" cx="525" cy="468.5" rx="90.3" ry="1.4"/>
				<path class="st12" d="M-388,463.4c0,0.7-9.1,1.3-20.3,1.3c-11.2,0-20.3-0.6-20.3-1.3c0-0.7,9.1-1.3,20.3-1.3
					C-397.2,462.2-388,462.7-388,463.4z"/>
				<ellipse class="st12" cx="-147.5" cy="470.1" rx="44.3" ry="3.3"/>
				<ellipse class="st13" cx="-285.4" cy="466.3" rx="9.5" ry="1.6"/>
			</g>
		</g>
		<path style="clip-path:url(#SVGID_00000129202016526057085810000009596931785785139334_);fill:#808081;" d="M514.1,480h-2.5
			c-1.7,0-3-1.3-3-3v-58.5c0-1.7,1.3-3,3-3h2.5c1.7,0,3,1.3,3,3V477C517.1,478.7,515.7,480,514.1,480z"/>
		<path style="clip-path:url(#SVGID_00000129202016526057085810000009596931785785139334_);fill:#808081;" d="M56.7,480h-2.5
			c-1.7,0-3-1.3-3-3v-58.5c0-1.7,1.3-3,3-3h2.5c1.7,0,3,1.3,3,3V477C59.7,478.7,58.3,480,56.7,480z"/>
		<g style="clip-path:url(#SVGID_00000129202016526057085810000009596931785785139334_);">
			<path class="st16" d="M32.1,463v-37.3c0-3.3,2.7-6,6-6h492.3c3.3,0,6,2.7,6,6V463c0,3.3-2.7,6-6,6H38.1
				C34.7,469,32.1,466.4,32.1,463z"/>
			<path class="st17" d="M531.2,467.7h-494c-2.2,0-4-1.8-4-4V425c0-2.2,1.8-4,4-4h494c2.2,0,4,1.8,4,4v38.7
				C535.2,465.9,533.4,467.7,531.2,467.7z"/>
			<rect x="33.2" y="423.7" width="502" height="13.3"/>
			<text transform="matrix(1 0 0 1 40.0991 433.4397)" class="st17 st18 st19">WARNING     |     WARNING     |     WARNING     |     WARNING     |     WARNING     |     WARNING     |     WARNING     |     WARNING</text>
			<g>
				<polygon class="st17" points="284.2,457.2 284.2,465 292.1,457.2 				"/>
				<polygon points="284.2,465 292.1,465 292.1,457.2 				"/>
				<polygon class="st17" points="299.9,465 299.9,457.2 292.1,465 				"/>
				<polygon points="299.9,457.2 292.1,457.2 292.1,465 				"/>
				<polygon class="st17" points="299.9,457.2 299.9,465 307.7,457.2 				"/>
				<polygon points="299.9,465 307.7,465 307.7,457.2 				"/>
				<polygon class="st17" points="315.6,465 315.6,457.2 307.7,465 				"/>
				<polygon points="315.6,457.2 307.7,457.2 307.7,465 				"/>
				<polygon class="st17" points="315.6,457.2 315.6,465 323.4,457.2 				"/>
				<polygon points="315.6,465 323.4,465 323.4,457.2 				"/>
				<polygon class="st17" points="331.3,465 331.3,457.2 323.4,465 				"/>
				<polygon points="331.3,457.2 323.4,457.2 323.4,465 				"/>
				<polygon class="st17" points="331.3,457.2 331.3,465 339.1,457.2 				"/>
				<polygon points="331.3,465 339.1,465 339.1,457.2 				"/>
				<polygon class="st17" points="347,465 347,457.2 339.1,465 				"/>
				<polygon points="347,457.2 339.1,457.2 339.1,465 				"/>
				<polygon class="st17" points="347,457.2 347,465 354.8,457.2 				"/>
				<polygon points="347,465 354.8,465 354.8,457.2 				"/>
				<polygon class="st17" points="362.7,465 362.7,457.2 354.8,465 				"/>
				<polygon points="362.7,457.2 354.8,457.2 354.8,465 				"/>
				<polygon class="st17" points="362.7,457.2 362.7,465 370.5,457.2 				"/>
				<polygon points="362.7,465 370.5,465 370.5,457.2 				"/>
				<polygon class="st17" points="378.3,465 378.3,457.2 370.5,465 				"/>
				<polygon points="378.3,457.2 370.5,457.2 370.5,465 				"/>
				<polygon class="st17" points="378.3,457.2 378.3,465 386.2,457.2 				"/>
				<polygon points="378.3,465 386.2,465 386.2,457.2 				"/>
				<polygon class="st17" points="394,465 394,457.2 386.2,465 				"/>
				<polygon points="394,457.2 386.2,457.2 386.2,465 				"/>
				<polygon class="st17" points="394,457.2 394,465 401.9,457.2 				"/>
				<polygon points="394,465 401.9,465 401.9,457.2 				"/>
				<polygon class="st17" points="409.7,465 409.7,457.2 401.9,465 				"/>
				<polygon points="409.7,457.2 401.9,457.2 401.9,465 				"/>
				<polygon class="st17" points="409.7,457.2 409.7,465 417.6,457.2 				"/>
				<polygon points="409.7,465 417.6,465 417.6,457.2 				"/>
				<polygon class="st17" points="425.4,465 425.4,457.2 417.6,465 				"/>
				<polygon points="425.4,457.2 417.6,457.2 417.6,465 				"/>
				<polygon class="st17" points="425.4,457.2 425.4,465 433.2,457.2 				"/>
				<polygon points="425.4,465 433.2,465 433.2,457.2 				"/>
				<polygon class="st17" points="441.1,465 441.1,457.2 433.2,465 				"/>
				<polygon points="441.1,457.2 433.2,457.2 433.2,465 				"/>
				<polygon class="st17" points="441.1,457.2 441.1,465 448.9,457.2 				"/>
				<polygon points="441.1,465 448.9,465 448.9,457.2 				"/>
				<polygon class="st17" points="456.8,465 456.8,457.2 448.9,465 				"/>
				<polygon points="456.8,457.2 448.9,457.2 448.9,465 				"/>
				<polygon class="st17" points="456.8,457.2 456.8,465 464.6,457.2 				"/>
				<polygon points="456.8,465 464.6,465 464.6,457.2 				"/>
				<polygon class="st17" points="472.5,465 472.5,457.2 464.6,465 				"/>
				<polygon points="472.5,457.2 464.6,457.2 464.6,465 				"/>
				<polygon class="st17" points="472.5,457.2 472.5,465 480.3,457.2 				"/>
				<polygon points="472.5,465 480.3,465 480.3,457.2 				"/>
				<polygon class="st17" points="488.2,465 488.2,457.2 480.3,465 				"/>
				<polygon points="488.2,457.2 480.3,457.2 480.3,465 				"/>
				<polygon class="st17" points="488.2,457.2 488.2,465 496,457.2 				"/>
				<polygon points="488.2,465 496,465 496,457.2 				"/>
				<polygon class="st17" points="503.8,465 503.8,457.2 496,465 				"/>
				<polygon points="503.8,457.2 496,457.2 496,465 				"/>
				<polygon class="st17" points="503.8,457.2 503.8,465 511.7,457.2 				"/>
				<polygon points="503.8,465 511.7,465 511.7,457.2 				"/>
				<polygon class="st17" points="519.5,465 519.5,457.2 511.7,465 				"/>
				<polygon points="519.5,457.2 511.7,457.2 511.7,465 				"/>
				<polygon class="st17" points="519.5,457.2 519.5,465 527.4,457.2 				"/>
				<polygon points="519.5,465 527.4,465 527.4,457.2 				"/>
				<polygon class="st17" points="535.2,465 535.2,457.2 527.4,465 				"/>
				<polygon points="535.2,457.2 527.4,457.2 527.4,465 				"/>
			</g>
			<g>
				<polygon class="st17" points="33.2,457.2 33.2,465 41.1,457.2 				"/>
				<polygon points="33.2,465 41.1,465 41.1,457.2 				"/>
				<polygon class="st17" points="48.9,465 48.9,457.2 41.1,465 				"/>
				<polygon points="48.9,457.2 41.1,457.2 41.1,465 				"/>
				<polygon class="st17" points="48.9,457.2 48.9,465 56.8,457.2 				"/>
				<polygon points="48.9,465 56.8,465 56.8,457.2 				"/>
				<polygon class="st17" points="64.6,465 64.6,457.2 56.8,465 				"/>
				<polygon points="64.6,457.2 56.8,457.2 56.8,465 				"/>
				<polygon class="st17" points="64.6,457.2 64.6,465 72.4,457.2 				"/>
				<polygon points="64.6,465 72.4,465 72.4,457.2 				"/>
				<polygon class="st17" points="80.3,465 80.3,457.2 72.4,465 				"/>
				<polygon points="80.3,457.2 72.4,457.2 72.4,465 				"/>
				<polygon class="st17" points="80.3,457.2 80.3,465 88.1,457.2 				"/>
				<polygon points="80.3,465 88.1,465 88.1,457.2 				"/>
				<polygon class="st17" points="96,465 96,457.2 88.1,465 				"/>
				<polygon points="96,457.2 88.1,457.2 88.1,465 				"/>
				<polygon class="st17" points="96,457.2 96,465 103.8,457.2 				"/>
				<polygon points="96,465 103.8,465 103.8,457.2 				"/>
				<polygon class="st17" points="111.7,465 111.7,457.2 103.8,465 				"/>
				<polygon points="111.7,457.2 103.8,457.2 103.8,465 				"/>
				<polygon class="st17" points="111.7,457.2 111.7,465 119.5,457.2 				"/>
				<polygon points="111.7,465 119.5,465 119.5,457.2 				"/>
				<polygon class="st17" points="127.3,465 127.3,457.2 119.5,465 				"/>
				<polygon points="127.3,457.2 119.5,457.2 119.5,465 				"/>
				<polygon class="st17" points="127.3,457.2 127.3,465 135.2,457.2 				"/>
				<polygon points="127.3,465 135.2,465 135.2,457.2 				"/>
				<polygon class="st17" points="143,465 143,457.2 135.2,465 				"/>
				<polygon points="143,457.2 135.2,457.2 135.2,465 				"/>
				<polygon class="st17" points="143,457.2 143,465 150.9,457.2 				"/>
				<polygon points="143,465 150.9,465 150.9,457.2 				"/>
				<polygon class="st17" points="158.7,465 158.7,457.2 150.9,465 				"/>
				<polygon points="158.7,457.2 150.9,457.2 150.9,465 				"/>
				<polygon class="st17" points="158.7,457.2 158.7,465 166.6,457.2 				"/>
				<polygon points="158.7,465 166.6,465 166.6,457.2 				"/>
				<polygon class="st17" points="174.4,465 174.4,457.2 166.6,465 				"/>
				<polygon points="174.4,457.2 166.6,457.2 166.6,465 				"/>
				<polygon class="st17" points="174.4,457.2 174.4,465 182.3,457.2 				"/>
				<polygon points="174.4,465 182.3,465 182.3,457.2 				"/>
				<polygon class="st17" points="190.1,465 190.1,457.2 182.3,465 				"/>
				<polygon points="190.1,457.2 182.3,457.2 182.3,465 				"/>
				<polygon class="st17" points="190.1,457.2 190.1,465 197.9,457.2 				"/>
				<polygon points="190.1,465 197.9,465 197.9,457.2 				"/>
				<polygon class="st17" points="205.8,465 205.8,457.2 197.9,465 				"/>
				<polygon points="205.8,457.2 197.9,457.2 197.9,465 				"/>
				<polygon class="st17" points="205.8,457.2 205.8,465 213.6,457.2 				"/>
				<polygon points="205.8,465 213.6,465 213.6,457.2 				"/>
				<polygon class="st17" points="221.5,465 221.5,457.2 213.6,465 				"/>
				<polygon points="221.5,457.2 213.6,457.2 213.6,465 				"/>
				<polygon class="st17" points="221.5,457.2 221.5,465 229.3,457.2 				"/>
				<polygon points="221.5,465 229.3,465 229.3,457.2 				"/>
				<polygon class="st17" points="237.2,465 237.2,457.2 229.3,465 				"/>
				<polygon points="237.2,457.2 229.3,457.2 229.3,465 				"/>
				<polygon class="st17" points="237.2,457.2 237.2,465 245,457.2 				"/>
				<polygon points="237.2,465 245,465 245,457.2 				"/>
				<polygon class="st17" points="252.8,465 252.8,457.2 245,465 				"/>
				<polygon points="252.8,457.2 245,457.2 245,465 				"/>
				<polygon class="st17" points="252.8,457.2 252.8,465 260.7,457.2 				"/>
				<polygon points="252.8,465 260.7,465 260.7,457.2 				"/>
				<polygon class="st17" points="268.5,465 268.5,457.2 260.7,465 				"/>
				<polygon points="268.5,457.2 260.7,457.2 260.7,465 				"/>
				<polygon class="st17" points="268.5,457.2 268.5,465 276.4,457.2 				"/>
				<polygon points="268.5,465 276.4,465 276.4,457.2 				"/>
				<polygon class="st17" points="284.2,465 284.2,457.2 276.4,465 				"/>
				<polygon points="284.2,457.2 276.4,457.2 276.4,465 				"/>
			</g>
			<rect x="33.2" y="436.5" class="st20" width="502" height="20.2"/>
			<text transform="matrix(1 0 0 1 40.1821 450.6482)" class="st21 st18 st22">Self serve IAOs are NOT ApeSwap endorsed or official ApeSwap partners. Always DYOR!</text>
		</g>
		<g style="clip-path:url(#SVGID_00000129202016526057085810000009596931785785139334_);">
			<ellipse class="st23" cx="616.9" cy="464.5" rx="32.2" ry="5.2"/>
			<g class="st24">
				<path class="st25" d="M636.7,454.6c-1.6,0-2.9,0.8-3.5,1.8c-0.6-0.3-1.3-0.5-2.1-0.5c-0.2,0-0.4,0-0.5,0c-1-3.1-4.5-5.4-8.6-5.4
					c-3.6,0-6.7,1.8-8.1,4.3c-0.9-0.4-1.9-0.7-3-0.7c-1.9,0-3.6,0.7-4.7,1.9c-0.2,0-0.4,0-0.5,0c-1.1,0-2.1,0.2-3,0.7
					c-0.6-1.6-2.4-2.8-4.6-2.8c-2.7,0-4.8,1.8-4.8,4c0,2.2,2.2,4,4.8,4c0.6,0,1.1-0.1,1.7-0.2c0.4,2.4,2.9,4.3,5.9,4.3
					c1.9,0,3.6-0.7,4.7-1.9c0.2,0,0.4,0,0.5,0c1.6,0,3.1-0.6,4.2-1.4c1.6,1.6,4.1,2.7,6.9,2.7c3.1,0,5.9-1.3,7.5-3.3
					c0.5,0.2,1.1,0.3,1.7,0.3c1.6,0,2.9-0.8,3.5-1.8c0.6,0.3,1.3,0.5,2.1,0.5c2.1,0,3.9-1.4,3.9-3.2
					C640.6,456.1,638.8,454.6,636.7,454.6z"/>
				<path class="st3" d="M634.3,449.2c-1.1,0-2.1,0.3-2.9,0.8c-0.7-2.3-3.1-3.9-6.1-3.9c-1.8,0-3.3,0.6-4.5,1.6
					c-1.5-2.5-4.5-4.2-8-4.2c-3.9,0-7.2,2-8.4,4.9c-0.9-0.5-2.1-0.8-3.3-0.8c-3.3,0-6,2.2-6,5c0,2.7,2.7,5,6,5c0.2,0,0.3,0,0.5,0
					c1.1,1,2.7,1.6,4.4,1.6c1.5,0,2.8-0.4,3.9-1.2c0.9,0.3,1.9,0.4,2.9,0.4c3.3,0,6.2-1.5,7.8-3.7c1.1,1.1,2.8,1.8,4.7,1.8
					c1.7,0,3.2-0.6,4.3-1.5c0.7,1.5,2.5,2.5,4.6,2.5c2.7,0,5-1.8,5-4.1C639.2,451,637,449.2,634.3,449.2z"/>
			</g>
			<path class="st25" d="M596.7,411.4c0,0-34.5,26.1-18.8,48.6c2.6,3.7,5.2,4.5,5.2,4.5l11.6-28.1L596.7,411.4z"/>
			<path class="st26" d="M637.1,411.4c0,0,34.5,26.1,18.8,48.6c-2.6,3.7-5.2,4.5-5.2,4.5l-11.6-28.1L637.1,411.4z"/>
			<path class="st26" d="M609.1,446h-7.4h-7.4c0,0-2,3.8-2,5.3h9.4h9.4C611,449.9,609.1,446,609.1,446z"/>
			<polygon class="st27" points="611.4,453 591.7,453 591.7,449.8 611.4,450.4 			"/>
			<path class="st26" d="M613.4,443.8v3.4h-21.2c0-0.2,0-0.4,0-0.6c0,0,0,0,0-0.1c0-0.6,0-1.2,0.1-1.9l2-0.1l8.2-0.3l2-0.1l6.8-0.3
				l1.1,0L613.4,443.8z"/>
			<path class="st27" d="M612.9,447C612.9,447,612.9,447,612.9,447c0-0.1,0-0.1,0-0.2c0,0,0-0.1,0-0.1c-0.1-0.9-0.2-1.8-0.3-2.9
				l-1.1,0l0.9,2.9l-6.8-0.1l-0.7-1.7l-2.1,0.1l0.5,1.6l-8.8-0.1l-0.1-2l-2,0.1c0,0.6-0.1,1.2-0.1,1.9c0,0,0,0,0,0.1
				c0,0.2,0,0.4,0,0.6h11.2h2.3h7.2C612.9,447.2,612.9,447.1,612.9,447z"/>
			<path class="st26" d="M624.8,446h7.4h7.4c0,0,2,3.8,2,5.3h-9.4h-9.4C622.8,449.9,624.8,446,624.8,446z"/>
			<polygon class="st27" points="622.5,453 642.1,453 642.1,449.8 622.5,450.4 			"/>
			<path class="st26" d="M620.4,443.8v3.4h21.2c0-0.2,0-0.4,0-0.6c0,0,0,0,0-0.1c0-0.6,0-1.2-0.1-1.9l-2-0.1l-8.2-0.3l-2-0.1
				l-6.8-0.3l-1.1,0L620.4,443.8z"/>
			<path class="st27" d="M621,447C621,447,621,447,621,447c0-0.1,0-0.1,0-0.2c0,0,0-0.1,0-0.1c0.1-0.9,0.2-1.8,0.3-2.9l1.1,0
				l-0.9,2.9l6.8-0.1l0.7-1.7l2.1,0.1l-0.5,1.6l8.8-0.1l0.1-2l2,0.1c0,0.6,0.1,1.2,0.1,1.9c0,0,0,0,0,0.1c0,0.2,0,0.4,0,0.6h-11.2
				h-2.3H621C621,447.2,621,447.1,621,447z"/>
			<path class="st28" d="M642.6,280.4v163.2c0,0.9-1,1.6-2.2,1.6h-47c-1.2,0-2.2-0.7-2.2-1.6V280.4h0c0-0.5,0-0.9,0-1.3
				c0.5-11.3,7.2-20.3,13.6-26.3l0.4-0.4c0.3-0.2,0.5-0.5,0.8-0.7c5.1-4.6,9.8-7.2,10.7-7.7c0.1,0,0.1-0.1,0.1-0.1c0,0,0,0,0,0
				c0,0,0,0,0,0c0,0,0,0,0,0c0,0,5.2,2.7,10.8,7.8c0.3,0.2,0.5,0.5,0.8,0.7c0.5,0.4,0.9,0.8,1.4,1.3c6.1,6,12.2,14.6,12.7,25.4
				C642.6,279.5,642.6,279.9,642.6,280.4z"/>
			<g>
				<path class="st29" d="M606.1,326.5c-0.2,0.9-0.4,1.8-0.4,2.7c0,0.1,0,0.1,0,0.2c0,1.1-0.1,2.2-0.4,3.2c-0.5-0.2-1-0.5-1.5-1.2
					c-1.3-1.6-0.9-4.3,0.7-4.9C605.2,326.2,605.7,326.3,606.1,326.5C606.1,326.5,606.1,326.5,606.1,326.5z"/>
				<path class="st30" d="M606.1,326.5c-0.2,0.9-0.4,1.8-0.4,2.7c0,0.1,0,0.1,0,0.2c0,1.1-0.1,2.2-0.4,3.2c-0.5-0.2-1-0.5-1.5-1.2
					c-1.3-1.6-0.9-4.3,0.7-4.9C605.2,326.2,605.7,326.3,606.1,326.5C606.1,326.5,606.1,326.5,606.1,326.5z"/>
				<path class="st29" d="M630,331.4c-0.5,0.6-1,1-1.5,1.2c-0.2-1.1-0.4-2.1-0.4-3.2c0-0.1,0-0.1,0-0.2c0-0.9-0.1-1.8-0.4-2.7
					c0.4-0.2,0.9-0.2,1.5,0C630.9,327.1,631.3,329.7,630,331.4z"/>
				<path class="st30" d="M630,331.4c-0.5,0.6-1,1-1.5,1.2c-0.2-1.1-0.4-2.1-0.4-3.2c0-0.1,0-0.1,0-0.2c0-0.9-0.1-1.8-0.4-2.7
					c0.4-0.2,0.9-0.2,1.5,0C630.9,327.1,631.3,329.7,630,331.4z"/>
				<path class="st29" d="M625,332.6c-0.5,0.7-0.6,1.7-0.3,2.5c0.2,0.6,0.4,1.3,0.4,1.9c0,3.9-3.7,7-8.2,7c-4.5,0-8.2-3.1-8.2-7
					c0-0.5,0.2-1.2,0.4-1.9c0.3-0.8,0.2-1.7-0.3-2.5c-0.1-0.2-0.2-0.4-0.3-0.6c-0.3-0.6-0.4-1.2-0.4-1.9c0-2.6,2.2-4.6,4.9-4.6
					c0.9,0,1.7,0.2,2.5,0.6c0.9,0.5,2,0.5,2.9,0c0.8-0.4,1.6-0.6,2.5-0.6c2.7,0,4.9,2.1,4.9,4.6c0,0.6-0.1,1.3-0.4,1.9
					C625.2,332.2,625.1,332.4,625,332.6z"/>
				<path class="st30" d="M625,332.6c-0.5,0.7-0.6,1.7-0.3,2.5c0.2,0.6,0.4,1.3,0.4,1.9c0,3.9-3.7,7-8.2,7c-4.5,0-8.2-3.1-8.2-7
					c0-0.5,0.2-1.2,0.4-1.9c0.3-0.8,0.2-1.7-0.3-2.5c-0.1-0.2-0.2-0.4-0.3-0.6c-0.3-0.6-0.4-1.2-0.4-1.9c0-2.6,2.2-4.6,4.9-4.6
					c0.9,0,1.7,0.2,2.5,0.6c0.9,0.5,2,0.5,2.9,0c0.8-0.4,1.6-0.6,2.5-0.6c2.7,0,4.9,2.1,4.9,4.6c0,0.6-0.1,1.3-0.4,1.9
					C625.2,332.2,625.1,332.4,625,332.6z"/>
				<path class="st31" d="M612.8,337.8c-0.3,0-0.5,0.2-0.5,0.5c0,0,0,0,0,0.1c0.3,2.1,2.2,3.7,4.6,3.7c2.4,0,4.3-1.6,4.6-3.7
					c0-0.3-0.1-0.5-0.4-0.5c0,0,0,0-0.1,0H612.8z"/>
				<path class="st32" d="M614.2,341.2c1.6,1,3.7,1,5.4,0c-0.3-1.2-1.4-0.9-2.7-0.9S614.6,340.1,614.2,341.2z"/>
				<path class="st29" d="M629.8,325.6c-1-0.4-1.7-0.2-2.3,0.1c-0.1-0.4-0.3-0.8-0.5-1.1c-0.1-0.3-0.3-0.5-0.4-0.8
					c-1.5-2.7-4-5-6.8-5.9l-0.1-1.5l-1.8,1.1c-0.1,0-0.1,0-0.2,0c-0.1,0-0.3,0-0.4,0l-0.3-1.2l-0.1-0.3c-0.1,0-0.2,0-0.3,0
					c-1.7,0.1-2.6,1.7-2.7,2c-2.9,0.9-5.3,3.2-6.8,5.9c-0.1,0.3-0.3,0.5-0.4,0.8c-0.2,0.4-0.3,0.8-0.5,1.1c0,0,0,0-0.1,0
					c-0.5-0.3-1.3-0.5-2.2-0.1c-2,0.8-2.6,4.1-0.9,6.2c0.7,0.8,1.4,1.3,2.1,1.5c0,0,0,0.1,0,0.1c-0.1,0.6-0.2,1.1-0.2,1.7
					c0,4,2.9,7.4,7.2,8.9c1,0.4,2,0.6,3.1,0.7c0.5,0.1,1.1,0.1,1.6,0.1c0,0,0.1,0,0.1,0c6.6,0,12-4.4,12-9.7c0-0.6-0.1-1.1-0.2-1.7
					c0,0,0-0.1,0-0.1c0.7-0.2,1.4-0.7,2.1-1.5C632.4,329.8,631.9,326.4,629.8,325.6z M606.1,326.5c-0.2,0.9-0.4,1.8-0.4,2.7
					c0,0.1,0,0.1,0,0.2c0,1.1-0.1,2.2-0.4,3.2c-0.5-0.2-1-0.5-1.5-1.2c-1.3-1.6-0.9-4.3,0.7-4.9
					C605.2,326.2,605.7,326.3,606.1,326.5C606.1,326.5,606.1,326.5,606.1,326.5z M625.3,332c-0.1,0.2-0.2,0.4-0.3,0.6
					c-0.5,0.7-0.6,1.7-0.3,2.5c0.2,0.6,0.4,1.3,0.4,1.9c0,3.9-3.7,7-8.2,7c-4.5,0-8.2-3.1-8.2-7c0-0.5,0.2-1.2,0.4-1.9
					c0.3-0.8,0.2-1.7-0.3-2.5c-0.1-0.2-0.2-0.4-0.3-0.6c-0.3-0.6-0.4-1.2-0.4-1.9c0-2.6,2.2-4.6,4.9-4.6c0.9,0,1.7,0.2,2.5,0.6
					c0.9,0.5,2,0.5,2.9,0c0.8-0.4,1.6-0.6,2.5-0.6c2.7,0,4.9,2.1,4.9,4.6C625.7,330.8,625.6,331.4,625.3,332z M630,331.4
					c-0.5,0.6-1,1-1.5,1.2c-0.2-1.1-0.4-2.1-0.4-3.2c0-0.1,0-0.1,0-0.2c0-0.9-0.1-1.8-0.4-2.7c0.4-0.2,0.9-0.2,1.5,0
					C630.9,327.1,631.3,329.7,630,331.4L630,331.4z"/>
				<path class="st31" d="M614.9,334.3L614.9,334.3c0.1-0.2,0.3-0.3,0.5-0.2l0.9,0.4c0.2,0.1,0.3,0.3,0.2,0.5l0,0
					c-0.1,0.2-0.3,0.3-0.5,0.2l-0.9-0.4C614.9,334.7,614.8,334.5,614.9,334.3z"/>
				<path class="st31" d="M617.3,335.1L617.3,335.1c-0.1-0.2,0-0.4,0.2-0.5l0.9-0.4c0.2-0.1,0.4,0,0.5,0.2l0,0
					c0.1,0.2,0,0.4-0.2,0.5l-0.9,0.4C617.7,335.3,617.4,335.2,617.3,335.1z"/>
				<path class="st31" d="M612.7,332L612.7,332c-0.8,0-1.4-0.6-1.4-1.3v-0.4c0-0.7,0.6-1.3,1.4-1.3l0,0c0.8,0,1.4,0.6,1.4,1.3v0.4
					C614.1,331.4,613.5,332,612.7,332z"/>
				<path class="st33" d="M612.7,328.9v1.5c0,0.4,0.3,0.7,0.7,0.7c0.4,0,0.7-0.3,0.7-0.7v-0.2C614.1,329.5,613.5,328.9,612.7,328.9z
					"/>
				<ellipse class="st3" cx="612.7" cy="329.8" rx="0.5" ry="0.4"/>
				<path class="st31" d="M621.1,332L621.1,332c-0.8,0-1.4-0.6-1.4-1.3v-0.4c0-0.7,0.6-1.3,1.4-1.3l0,0c0.8,0,1.4,0.6,1.4,1.3v0.4
					C622.5,331.4,621.9,332,621.1,332z"/>
				<path class="st33" d="M621.1,328.9v1.5c0,0.4,0.3,0.7,0.7,0.7c0.4,0,0.7-0.3,0.7-0.7v-0.2C622.5,329.5,621.9,328.9,621.1,328.9z
					"/>
				<ellipse class="st3" cx="621.1" cy="329.8" rx="0.5" ry="0.4"/>
				<path class="st34" d="M617.1,316.3c-0.3,0-1,0.5-1.8,1.3c-0.2,0.2-0.4,0.4-0.6,0.7c-1.6,1.9-3.5,4.9-4.1,7.9
					c-1.1,5.1-1.5,11.1,0.4,14.4c1.6,2.8,4.3,4.3,4.3,4.3c-1-0.1-2.1-0.4-3.1-0.7c-4.2-1.5-7.2-4.9-7.2-8.9c0-0.6,0.1-1.1,0.2-1.7
					c0,0,0-0.1,0-0.1c-0.7-0.2-1.4-0.7-2.1-1.5c-1.6-2.1-1.1-5.4,0.9-6.2c0.9-0.4,1.7-0.2,2.2,0.1c0,0,0,0,0.1,0
					c0.1-0.4,0.3-0.8,0.5-1.1c0.1-0.3,0.3-0.5,0.4-0.8c1.5-2.7,4-5,6.8-5.9c0.1-0.3,1-1.8,2.7-2c0.1,0,0.2,0,0.3,0L617.1,316.3z"/>
			</g>
			<polygon class="st35" points="642.6,308.4 642.6,309.7 592.3,308.9 591.3,308.9 591.3,308.4 591.3,308.4 			"/>
			<path class="st27" d="M627.8,251.6c-5.7-5.1-10.8-7.8-10.8-7.8c0,0,0,0,0,0c0,0,0,0,0,0c0,0,0,0,0,0c0,0-0.1,0-0.1,0.1
				c-0.9,0.5-5.6,3.2-10.7,7.7H627.8z"/>
			<path class="st27" d="M642.6,280.4h-51.4c0-0.5,0-0.9,0-1.3h51.3C642.6,279.5,642.6,279.9,642.6,280.4z"/>
			<path class="st27" d="M642.6,308.4h-51.4c0-0.5,0-0.9,0-1.3h51.3C642.6,307.5,642.6,308,642.6,308.4z"/>
			<path class="st27" d="M596.7,308.4l-0.6,19.3c-0.4,0.9-0.7,1.8-1.1,2.6l0.6-21.9H596.7z"/>
			<path class="st27" d="M637.7,308.4v19.3c0.4,0.9,0.7,1.8,1.1,2.6v-21.9H637.7z"/>
			<path class="st35" d="M629.9,253.6c-5.6-0.2-25-0.9-25-0.9l0.4-0.4h23.2C629,252.8,629.5,253.2,629.9,253.6z"/>
			<polygon class="st35" points="642.6,280.4 642.6,281.7 592.3,280.8 591.3,280.8 591.3,280.4 591.3,280.4 			"/>
			<path class="st26" d="M622.4,417.8c0-2.5-1.6-4.5-3.7-4.5h-1.9l-0.5,22.2l0.5,35.3c0,0,1.4-0.5,2.6-3.7
				C620.6,463.9,622.4,417.8,622.4,417.8z"/>
			<path class="st25" d="M615.1,413.3c-2,0-3.7,2-3.7,4.5c0,0,2,46.4,3,49.4c1,3,2.3,3.7,2.3,3.7v-57.5H615.1z"/>
			<path class="st36" d="M642.6,280.4v163.2c0,0.9-1,1.6-2.2,1.6h-10.5V279c0-20.5-13-35.2-13-35.2s0,0,0,0c0,0,0,0,0,0
				c0,0,5.2,2.7,10.8,7.8c0.3,0.2,0.5,0.5,0.8,0.7c0.5,0.4,0.9,0.8,1.4,1.3c6.1,6,12.2,14.6,12.7,25.4
				C642.6,279.5,642.6,279.9,642.6,280.4z"/>
			<path class="st27" d="M642.9,369.2h-52c-0.6,0-1-0.5-1-1v-0.3c0-0.6,0.5-1,1-1h52c0.6,0,1,0.5,1,1v0.3
				C643.9,368.8,643.5,369.2,642.9,369.2z"/>
			<path class="st27" d="M641.9,365.2h-50c-1.1,0-2-0.9-2-2v-7.6c0-1.1,0.9-2,2-2h50c1.1,0,2,0.9,2,2v7.6
				C643.9,364.3,643,365.2,641.9,365.2z"/>
			<text transform="matrix(1 0 0 1 599.687 362.8928)" class="st28 st37 st38">SS-IAO</text>
			<path class="st39" d="M608.2,460.9c-1.8,0-3.3,0.9-4,2.1c-0.7-0.4-1.5-0.6-2.4-0.6c-0.2,0-0.4,0-0.6,0c-1.2-3.6-5.2-6.2-9.9-6.2
				c-4.1,0-7.7,2-9.3,5c-1-0.5-2.2-0.8-3.4-0.8c-2.2,0-4.1,0.9-5.4,2.2c-0.2,0-0.4,0-0.6,0c-1.3,0-2.4,0.3-3.4,0.8
				c-0.7-1.9-2.8-3.2-5.3-3.2c-3.1,0-5.5,2-5.5,4.6s2.5,4.6,5.5,4.6c0.7,0,1.3-0.1,1.9-0.3c0.4,2.8,3.3,4.9,6.8,4.9
				c2.2,0,4.1-0.9,5.4-2.2c0.2,0,0.4,0,0.6,0c1.9,0,3.6-0.6,4.8-1.6c1.9,1.9,4.7,3.1,7.9,3.1c3.6,0,6.7-1.5,8.5-3.8
				c0.6,0.2,1.3,0.4,2,0.4c1.8,0,3.3-0.9,4-2.1c0.7,0.4,1.5,0.6,2.4,0.6c2.5,0,4.5-1.6,4.5-3.7C612.6,462.6,610.6,460.9,608.2,460.9
				z"/>
			<path class="st39" d="M669.7,462.4c-1.3,0-2.5,0.3-3.5,0.9c-0.8-2.8-3.8-4.8-7.4-4.8c-2.1,0-4.1,0.7-5.5,1.9
				c-1.8-3-5.5-5.1-9.8-5.1c-4.7,0-8.8,2.5-10.3,6c-1.2-0.6-2.5-1-4-1c-4.1,0-7.3,2.7-7.3,6.1c0,3.4,3.3,6.1,7.3,6.1
				c0.2,0,0.4,0,0.6,0c1.3,1.2,3.3,2,5.4,2c1.8,0,3.5-0.5,4.7-1.4c1.1,0.3,2.3,0.5,3.5,0.5c4.1,0,7.6-1.8,9.5-4.6
				c1.4,1.4,3.5,2.2,5.8,2.2c2.1,0,3.9-0.7,5.3-1.8c0.9,1.8,3.1,3.1,5.6,3.1c3.3,0,6.1-2.2,6.1-5
				C675.8,464.6,673.1,462.4,669.7,462.4z"/>
		</g>
	</g>
</g>
<g id="Laag_2">
</g>
</svg>
