<?xml version="1.0" encoding="utf-8"?>
<!-- Generator: Adobe Illustrator 24.3.0, SVG Export Plug-In . SVG Version: 6.00 Build 0)  -->
<svg version="1.1" id="Laag_1" xmlns="http://www.w3.org/2000/svg" xmlns:xlink="http://www.w3.org/1999/xlink" x="0px" y="0px"
	 viewBox="0 0 1268 300" style="enable-background:new 0 0 1268 300;" xml:space="preserve">
<style type="text/css">
	.st0{clip-path:url(#SVGID_2_);fill:url(#SVGID_3_);}
	.st1{opacity:5.000000e-02;clip-path:url(#SVGID_5_);}
	.st2{fill:#FFFFFF;}
	.st3{opacity:3.000000e-02;clip-path:url(#SVGID_7_);fill:#FFFFFF;enable-background:new    ;}
	.st4{opacity:3.000000e-02;clip-path:url(#SVGID_9_);fill:#FFFFFF;enable-background:new    ;}
	.st5{opacity:0.67;}
	.st6{fill:#606060;}
	.st7{opacity:0.5;fill:#3F3F3F;enable-background:new    ;}
	.st8{opacity:0.75;fill:#787878;enable-background:new    ;}
	.st9{fill:#818181;}
	.st10{fill:#676767;}
	.st11{fill:#F4C328;}
	.st12{fill:#020203;}
	.st13{font-family:'Poppins-Bold';}
	.st14{font-size:9.4193px;}
	.st15{fill:none;}
	.st16{font-size:12.0357px;}
	.st17{opacity:0.1;fill:#020203;enable-background:new    ;}
	.st18{opacity:0.5;}
	.st19{fill:#E7E6E6;}
	.st20{fill:#CDCCCC;}
	.st21{fill:#B4B4B4;}
	.st22{fill:#F2F2F2;}
	.st23{fill:#A16653;}
	.st24{fill:#F5DCB4;}
	.st25{fill:#4F4040;}
	.st26{fill:#E6656E;}
	.st27{fill:#5E5461;}
	.st28{opacity:0.35;fill:#4F4040;enable-background:new    ;}
	.st29{opacity:0.33;fill:#CDCCCC;enable-background:new    ;}
	.st30{opacity:0.2;fill:#9A9999;enable-background:new    ;}
	.st31{font-family:'TitanOne';}
	.st32{font-size:10.1804px;}
	.st33{opacity:0.5;fill:#FFFFFF;enable-background:new    ;}
</style>
<g id="Laag_2_1_">
	<g>
		<g>
			<defs>
				<rect id="SVGID_1_" x="-2" y="-271.3" width="1271.2" height="518.9"/>
			</defs>
			<clipPath id="SVGID_2_">
				<use xlink:href="#SVGID_1_"  style="overflow:visible;"/>
			</clipPath>
			
				<radialGradient id="SVGID_3_" cx="866.6662" cy="-109.1206" r="940.1282" gradientTransform="matrix(1.0167 0 0 -0.6265 -1.1312 112.1111)" gradientUnits="userSpaceOnUse">
				<stop  offset="0" style="stop-color:#174453"/>
				<stop  offset="1" style="stop-color:#0C222A"/>
			</radialGradient>
			<rect x="-200.6" y="-304" class="st0" width="1686.9" height="554.3"/>
		</g>
		<g>
			<defs>
				<rect id="SVGID_4_" x="-2" y="-271.3" width="1271.2" height="518.9"/>
			</defs>
			<clipPath id="SVGID_5_">
				<use xlink:href="#SVGID_4_"  style="overflow:visible;"/>
			</clipPath>
			<g class="st1">
				<path class="st2" d="M1382.5-113.2c-54.4-2.1-108.6-5-162.4-8.5c-102.6-6.7-207.5-14.4-304.3-26.7
					C817-161,715.4-171.7,615-183.2c-105.9-12-214.5-21.7-323.6-30.8c-21.5-1.8-43.7-4.2-65.8-5.1c-24.4-1-48.4-1.4-72.6-3.1
					c-45.5-3.1-90.7-6.6-135.7-10.3c-45.1-3.7-91.1-7-135.7-11.1c-22.6-2.1-45.1-4.3-67.6-6.5v11.3c19.4,4.1,39.3,7.9,61.5,10.1
					c25.4,2.5,63.4-3.1,89-0.6c27.5,2.6,55.1,5.1,82.8,7.6c52.8,4.7,98.4,19.4,148.1,26.5c24,3.5,60.7,1.8,86.4,3.9
					c28,2.3,69.9,11,97.8,13.4c107.8,9.3,200.4,5.9,307.1,16.3c51.2,5,102,9.9,154.2,13.8c24.8,1.9,49.1,4.3,74.1,6
					c27,1.8,53.7,3.8,80.2,6.2c87.7,7.9,176.5,14.8,266.5,19.7c46.3,2.6,92.9,4.5,139.7,6c24.7,0.8,55.4,4.4,85.6,7.3v-7.5
					c-7.6-0.3-14.7-0.5-20.4-0.7C1438.6-111.2,1410.5-112.1,1382.5-113.2z"/>
				<path class="st2" d="M1221.8-134.4c-31.2-3.1-61.2-8.8-90.3-15.4c-12.9-2.9-24.9-6.5-37.1-10.3c-13.5-4.1-27.2-7.4-41.5-10.5
					c-28.6-6.3-58.6-11.1-88.6-15.1c-59.6-7.9-120.6-9.6-181.7-11.7c-30.7-1-61.4-2.3-92-4.3c-29-1.9-59.3-3.8-87.3-8.3
					c-55.9-8.9-110.9-19-168-25.6c-28.7-3.3-57.7-4.9-86.9-6.4c-33-1.7-65.8-4.1-98.5-6.8c-63.1-5.2-125.2-14.3-187.4-21.7
					c-24.6-2.9-48.7-6.9-72.7-11.1h-161.7c6.2,0.8,12.3,1.5,18.4,2.3c16.4,2.2,32.6,4.6,49,6.9c30.7,4.4,63.1,5.5,94.6,7.1
					c63.4,3.3,125.8,10,188.8,15.1c62.6,5.1,125.6,11.1,188.8,13.4c30.5,1.2,60.2,2.9,89.9,7c28.2,3.8,55.9,8.7,83.5,13.5
					c56.1,9.9,112.1,19.7,170.1,25.8c59.7,6.2,120,10.5,179.6,17c29.8,3.3,59.2,6.6,88.4,11.2c29.1,4.5,57.8,9.7,86.9,14.4
					c13.4,2.1,28,2.6,41.7,4.3c15,1.8,29.8,4.4,44.7,6.4c14.7,2,29.6,3.7,44.4,5.3c16.1,1.7,31.9,4.3,47.8,6.4
					c30.8,4.2,61.6,8.2,92.6,12.1c15,1.9,30,3.9,44.9,6.1c15.6,2.3,30.7,5.7,46.4,8.2c19,2.9,38.6,4.7,58.5,5.9v-18
					c-58-1.9-114.2-9.1-171.1-14.9C1284.7-129.1,1253.1-131.3,1221.8-134.4z"/>
				<path class="st2" d="M1427.5-187.4c-27.6-4.1-56.5-8.2-82-14.7c-50.9-12.9-100.3-27-153.4-37.8c-26.7-5.4-54.5-9.1-82.5-12.8
					c-31.6-4.1-62.8-8.9-93.8-14c-26.3-4.3-52.1-9.4-77.7-14.8h-39.7c16,2.8,32.1,5.5,48.2,8.2c59.2,9.7,118.4,20.3,179.4,27.4
					c29.4,3.4,57.8,7.4,85.1,13.6c26,5.9,51,12.7,75.9,19.6c50.7,13.9,101.2,27.7,155.5,38.1c14.7,2.8,29.6,5.5,44.5,8.1v-13
					C1467.1-181.9,1447.2-184.5,1427.5-187.4z"/>
				<path class="st2" d="M1190.3-200.1c-31.4-5.4-220.6-27-282.3-37c-29.6-4.8-58.7-10.8-87.3-16.7c-14.7-3-99.5-24.3-109.8-27.7
					h-40.1c0.6,0.2,1.1,0.4,1.7,0.6c21.7,7.6,81.1,32.9,85.9,35c12.9,5.6,97.9,30.5,129.2,35.6c62.5,10.2,126.9,15.6,191.9,19.4
					c33.6,2,164.3,10.4,195.4,14.7c60.6,8.4,113.8,25.6,173.8,35c12.8,2,25.6,4,38.4,5.9V-157c-7.7-1.3-15.5-2.7-23.2-4
					C1434.3-166.2,1220.6-194.9,1190.3-200.1z"/>
			</g>
		</g>
		<g>
			<defs>
				<rect id="SVGID_6_" x="-2" y="-271.3" width="1271.2" height="518.9"/>
			</defs>
			<clipPath id="SVGID_7_">
				<use xlink:href="#SVGID_6_"  style="overflow:visible;"/>
			</clipPath>
			<path class="st3" d="M1310.5,312V115.4c-2.7-0.9-5.6-1.4-8.7-1.4c-5.3,0-10.2,1.5-14.3,4.1c-9.8-10.1-23.6-16.2-38.7-15.6
				c-22.3,0.9-40.5,16.1-46.4,36.4c-4.4-1.8-9.3-2.7-14.4-2.7c-17.1,0-31.6,10.9-36.3,25.9c-7.6-5.5-17.1-8.8-27.4-8.8
				c-21.1,0-38.9,13.8-43.5,32.4c-3.3-1.5-7-2.4-10.9-2.4c-8.3,0-15.6,3.8-20.2,9.7c-6.5-4.9-13.9-8.9-21.9-11.5
				c0.8-2.4,1.3-4.9,1.3-7.5c0-13.4-11.3-24.3-25.3-24.3c-0.1,0-0.2,0-0.3,0c-1.9-12.2-12.8-21.5-25.9-21.5
				c-12.2,0-22.4,8-25.4,18.8c-0.3,0-0.6,0-0.9,0c-12.3,0-22.5,8.4-24.8,19.5c-7.4,1.1-14.5,3.2-21,6.2
				c-0.8-12.8-11.7-22.9-25.2-22.9c-0.7,0-1.4,0-2,0.1c1.3-2.6,2-5.5,2-8.5c0-9.5-7-17.5-16.4-19.3c1.2-3.7,1.8-7.6,1.8-11.6
				c0-21.7-18.3-39.3-40.9-39.3c-4.4,0-8.5,0.7-12.5,1.9c4.3-10.1,6.6-21.2,6.6-32.8c0-49.1-42.2-88.9-94.4-88.9
				c-39.1,0-72.6,22.4-86.9,54.3c-4.3-2.9-9.5-4.7-15.2-4.7c-5.3,0-10.2,1.5-14.3,4.1c-9.8-10.1-23.6-16.2-38.7-15.6
				c-22.4,0.5-40.6,15.7-46.5,36c-4.4-1.8-9.3-2.7-14.4-2.7c-21,0-37.9,16.3-37.9,36.5c0,6.4,1.7,12.4,4.7,17.6
				c-5.1,2.7-8.6,7.9-8.6,13.9c0,6.5,4.1,12.1,9.9,14.6c-1.4,5.1-2.1,10.5-2.1,16c0,9.4,2.1,18.2,5.9,26.3
				c-5.9,4-11.2,8.6-15.9,13.8c-12.5-19.5-35.6-32.6-62-32.6c-11.8,0-22.9,2.6-32.8,7.3c-5.5-13.6-19.3-23.2-35.3-23.2
				c-12.7,0-23.9,6-30.8,15.2c-6.9-7-16.7-11.4-27.6-11.4c-8.9,0-17.1,3-23.6,7.9c-7.9-28.8-36.1-50-69.8-50
				c-30.6,0-56.8,17.7-67.2,42.6c-1.6-0.3-3.2-0.5-4.8-0.5c-10.2,0-19,5.8-23,14.2c-0.8-0.1-1.5-0.2-2.3-0.2
				c-9.1,0-16.5,7.1-16.5,15.9c0,2.6,0.7,5.1,1.9,7.3c-6.4,4.4-10.6,11.6-10.6,19.8c0,2.5,0.4,4.8,1.1,7.1
				c-7.1-2.1-14.6-3.3-22.5-3.3c-26.5,0-49.7,13.3-62.2,33c-3.8-8.9-12.8-15.2-23.4-15.2c-4.9,0-9.4,1.4-13.3,3.7
				c-3.6-9.2-12.8-15.8-23.7-15.8c-6.1,0-11.7,2.1-16.1,5.6c-6.6-10.6-18.7-17.7-32.5-17.7c-8.8,0-16.9,2.9-23.3,7.7V312H1310.5z"/>
		</g>
		<g>
			<defs>
				<rect id="SVGID_8_" x="-2" y="-271.3" width="1271.2" height="518.9"/>
			</defs>
			<clipPath id="SVGID_9_">
				<use xlink:href="#SVGID_8_"  style="overflow:visible;"/>
			</clipPath>
			<path class="st4" d="M1487.1,142.1c-1.9-1.5-4-2.5-6.3-3.1c-1.7-3.1-4.8-5.2-8.4-5.2c-5.4,0-9.7,4.8-9.7,10.7c0,0.1,0,0.2,0,0.3
				c-1.7-0.2-3.3-0.3-5-0.3c-11.7,0-22.6,3.7-31.8,10.1c-1.2-0.3-2.5-0.5-3.7-0.5c-9.6,0-17.4,8.6-17.4,19.2c0,0.2,0,0.5,0,0.7l0,0
				c-4.4,0-8.1,4-8.1,8.9c0,3.3,1.6,6.2,4,7.7c-1.3,4.6-2.2,9.5-2.5,14.5c-0.1,0-0.1,0-0.2,0c-8.6,0-16.4,4-21.9,10.4
				c-1.5-9.3-6.4-17.4-13.2-22.4c-1.3-9.1-8.5-16.1-17.2-16.1c-2,0-4,0.4-5.8,1.1c-1.4-0.9-3.1-1.5-4.9-1.5c-5,0-9.1,4.2-9.7,9.6
				c-3-2-6.6-3.2-10.5-3.2c-1.7,0-3.4,0.2-4.9,0.7c-6.8-5.9-15.6-9.5-25.1-9.5c-0.2,0-0.5,0-0.7,0c-0.7-4.1-4-7.1-7.9-7.1
				c-1.3,0-2.5,0.4-3.6,1c-0.8-3.6-2.8-6.7-5.4-8.8c0.7-1.4,1-3,1-4.6c0-5.6-4.1-10.1-9.1-10.1c-0.4,0-0.9,0-1.3,0.1
				c-2.2-5.3-7.1-9-12.7-9c-0.9,0-1.8,0.1-2.7,0.3c-5.7-15.7-20.2-26.9-37.1-26.9c-13.7,0-25.8,7.3-32.9,18.4
				c-0.8-0.2-1.6-0.3-2.4-0.3c-5.1,0-9.2,4.3-9.7,9.7c-2.1-0.8-4.3-1.2-6.6-1.2c-6,0-11.4,2.8-15.2,7.2c-3.8-5.8-10-9.6-17-9.6
				c-8.9,0-16.5,6.1-19.5,14.7c-5.4-2.9-11.6-4.6-18.1-4.6c-3.4,0-6.6,0.5-9.7,1.3c-4-10.4-13.4-17.7-24.3-17.7
				c-1.8,0-3.5,0.2-5.2,0.6c2.3-1.8,3.8-4.8,3.8-8.2c0-3.8-1.9-7.1-4.7-8.8c1.6-3.3,2.6-7.1,2.6-11.1c0-12.8-9.4-23.1-21-23.1
				c-2.8,0-5.5,0.6-8,1.7c-3.3-12.8-13.3-22.4-25.6-23c-1.1-0.1-2.2,0-3.3,0.1C981.3,40.8,967.7,31,951.9,31c-4.2,0-8.3,0.7-12.2,2
				c-1.9-6.6-7.4-11.4-14-11.4c-6,0-11.2,4-13.5,9.8c-2.1-0.3-4.2-0.4-6.4-0.4c-28.8,0-52.1,25.2-52.1,56.2c0,7.3,1.3,14.3,3.7,20.7
				c-2.2-0.8-4.5-1.2-6.9-1.2c-12.5,0-22.6,11.1-22.6,24.9c0,2.6,0.4,5,1,7.3c-5.2,1.1-9.1,6.2-9.1,12.2c0,1.9,0.4,3.8,1.1,5.4
				c-0.4,0-0.7-0.1-1.1-0.1c-7.4,0-13.5,6.4-13.9,14.5c-3.6-1.9-7.5-3.3-11.6-3.9c-1.3-7-6.9-12.3-13.7-12.3c-0.2,0-0.3,0-0.5,0
				c-1.6-6.8-7.3-11.9-14-11.9c-5.7,0-10.6,3.6-13,8.9c-1.5-2.4-4.1-4-7-4c-4.7,0-8.5,4.2-8.5,9.4c0,0.1,0,0.1,0,0.2
				c-1.5-0.1-2.9-0.2-4.4-0.2c-10.3,0-19.8,3.3-27.9,8.9c-1.1-0.3-2.2-0.4-3.3-0.4c-0.2,0-0.4,0-0.7,0c-4.4-4.2-10.1-6.8-16.4-6.8
				c-0.8,0-1.5,0-2.2,0.1c-2.5-4.2-6.4-7.2-11-8.3c-1.7-3.1-4.8-5.2-8.4-5.2c-5.4,0-9.7,4.8-9.7,10.7c0,0.1,0,0.2,0,0.3
				c-1.7-0.2-3.3-0.3-5-0.3c-11.7,0-22.6,3.7-31.8,10.1c-1.2-0.3-2.5-0.5-3.7-0.5c-9.6,0-17.4,8.6-17.4,19.2c0,0.2,0,0.5,0,0.7l0,0
				c-0.3,0-0.7,0-1,0.1c-4-1.7-8.4-2.7-13-2.7c-0.2,0-0.4,0-0.6,0c-0.6-3.6-3.5-6.2-6.9-6.2c-1.1,0-2.2,0.3-3.2,0.8
				c-0.7-3.1-2.4-5.8-4.8-7.7c0.6-1.2,0.9-2.6,0.9-4.1c0-4.9-3.6-8.8-8-8.8c-0.4,0-0.8,0-1.1,0.1c-1.9-4.6-6.2-7.9-11.1-7.9
				c-0.8,0-1.6,0.1-2.3,0.3c-5-13.8-17.7-23.6-32.5-23.6c-12,0-22.6,6.4-28.8,16.2c-0.7-0.2-1.4-0.3-2.1-0.3c-4.4,0-8.1,3.7-8.5,8.5
				c-1.8-0.7-3.7-1-5.8-1c-5.3,0-10,2.4-13.3,6.3c-3.3-5.1-8.8-8.4-14.9-8.4c-7.8,0-14.4,5.3-17.1,12.9c-4.8-2.6-10.1-4-15.9-4
				c-2.9,0-5.8,0.4-8.5,1.1c-3.5-9.1-11.7-15.6-21.3-15.6c-1.6,0-3.1,0.2-4.6,0.5c2-1.6,3.4-4.2,3.4-7.2c0-3.3-1.7-6.2-4.1-7.7
				c1.4-2.9,2.3-6.2,2.3-9.7c0-11.2-8.2-20.2-18.4-20.2c-2.5,0-4.8,0.5-7,1.5c-2.9-11.2-11.7-19.6-22.5-20.2c-1,0-1.9,0-2.9,0.1
				c-6-12.6-18-21.2-31.8-21.2c-3.7,0-7.3,0.6-10.7,1.8c-1.6-5.8-6.5-10-12.3-10c-5.3,0-9.9,3.5-11.8,8.6c-1.8-0.2-3.7-0.4-5.6-0.4
				c-25.2,0-45.7,22.1-45.7,49.3c0,6.4,1.1,12.5,3.2,18.2c-1.9-0.7-3.9-1-6-1c-10.9,0-19.8,9.8-19.8,21.8c0,2.2,0.3,4.4,0.9,6.4
				c-4.5,1-7.9,5.4-7.9,10.7c0,1.7,0.4,3.3,1,4.7c-0.3,0-0.7-0.1-1-0.1c-6.5,0-11.8,5.6-12.2,12.7c-3.1-1.7-6.6-2.8-10.2-3.4
				c-1.1-6.2-6.1-10.8-12-10.8c-0.1,0-0.3,0-0.4,0c-1.4-6-6.4-10.4-12.3-10.4c-6.4,0-11.7,5.2-12.6,11.9c-0.1,0-0.1,0-0.2,0
				c-6.8,0-12.2,6-12.2,13.5c0,1.5,0.2,2.9,0.6,4.2c-3.9,1.5-7.5,3.6-10.6,6.4c-2.2-3.3-5.8-5.4-9.8-5.4c-1.9,0-3.7,0.5-5.3,1.3
				c-2.3-10.3-10.8-17.9-21.1-17.9c-0.7,0-1.3,0-1.9,0.1c-2.2-3.7-5.6-6.3-9.6-7.3c-1.5-2.7-4.2-4.6-7.3-4.6c-4.7,0-8.5,4.2-8.5,9.4
				c0,0.1,0,0.1,0,0.2c-1.5-0.1-2.9-0.2-4.4-0.2c-10.3,0-19.8,3.3-27.9,8.9c-1.1-0.3-2.1-0.4-3.3-0.4c-8.4,0-15.3,7.5-15.3,16.8
				c0,0.2,0,0.4,0,0.6l0,0c-3.9,0-7.1,3.5-7.1,7.8c0,2.9,1.4,5.4,3.5,6.7c-1.1,4.1-1.9,8.3-2.2,12.7c-0.1,0-0.1,0-0.2,0
				c-7.6,0-14.4,3.5-19.2,9.1c-1.3-8.2-5.6-15.2-11.6-19.7c-1.2-8-7.5-14.1-15.1-14.1c-1.8,0-3.5,0.4-5.1,1
				c-1.3-0.8-2.7-1.3-4.3-1.3c-4.4,0-8,3.7-8.5,8.4c-2.7-1.8-5.8-2.8-9.2-2.8c-7,0-13,4.4-15.8,10.9c-2.2-1.6-4.8-2.5-7.6-2.5
				c-4.6,0-8.7,2.4-11.3,6.2c-1.2-1.8-3.1-3-5.2-3c-3.6,0-6.5,3.2-6.5,7.1c0,1.6,0.5,3.1,1.4,4.4c-0.5,0-1-0.1-1.5-0.1
				c-9.9,0-18.3,6.8-21.6,16.4c-2.5-0.4-5-0.6-7.5-0.6c-0.4,0-0.9,0-1.3,0l0,0c0-5.9-3.3-10.9-7.9-13.1l-4.2,205.8l1677.2-4V142.1
				H1487.1z"/>
		</g>
	</g>
	<g>
		<rect x="-1.2" y="247.6" class="st2" width="1271.2" height="205.2"/>
		<g class="st5">
			<rect x="-1.2" y="247.6" class="st6" width="1271.2" height="205.2"/>
			<polygon class="st7" points="1270,433.1 1270,452.9 -1.2,452.9 -1.2,350.3 257.6,367.1 389.5,375.7 			"/>
			<path class="st7" d="M634.8,452.9l-0.2-205.2h-1.2V289H550l4.3-41.3h-1.2l-4.4,41.3h-83.5l8.7-41.3h-1.2L464,289h-83.5l13-41.3
				h-1.2L379.2,289h-83.5l17.4-41.3H312L294.6,289h-83.5l21.7-41.3h-1.2L209.8,289h-83.5l26.1-41.3h-1.2L125.1,289H41.6L72,247.6
				h-1.2l-30.5,41.3H-1.2v1.4h40.5l-40.5,54.9v1.8l41.8-56.7h83.6L61.8,389h-63v1.8h61.8l-39.3,62.1h1.5L62,390.8h94.1l-32.8,62.1
				h1.5l32.7-62.1h94.1l-26.2,62.1h1.5l26.1-62.1h94l-19.7,62.1h1.5l19.6-62.1h94.1l-13.1,62.1h1.5l13-62.1H538l-6.6,62.1h1.5
				l6.5-62.1h94.1v62.1H634.8z M157,389H63.2l62.3-98.7h83.6L157,389z M252.3,389h-93.9l51.9-98.7H294L252.3,389z M347.6,389h-93.9
				l41.5-98.7h83.6L347.6,389z M442.8,389H349l31.1-98.7h83.6L442.8,389z M538.1,389h-93.9l20.7-98.7h83.6L538.1,389z M539.5,389
				l10.3-98.7h83.6l-0.1,98.7H539.5z M1270,288.9h-42.3l-30.5-41.3h-1.2l30.4,41.3H1143l-26.1-41.3h-1.2l26.1,41.3h-83.5l-21.8-41.3
				h-1.2l21.7,41.3h-83.5l-17.4-41.3h-1.2l17.4,41.3h-83.5l-13.1-41.3h-1.2l13,41.3H804l-8.7-41.3h-1.2l8.7,41.3h-83.5l-4.4-41.3
				h-1.2l4.3,41.3h-83.4v1.4h83.6l10.3,98.7h-93.8v1.8h94l6.5,62.1h1.5l-6.6-62.1h94.1l13,62.1h1.5l-13.1-62.1h94.1l19.6,62.1h1.5
				l-19.7-62.1h94.1l26.1,62.1h1.5l-26.2-62.1h94.1l32.7,62.1h1.5l-32.8-62.1h94.1l39.2,62.1h1.5l-39.3-62.1h62.5V389h-63.7
				l-62.4-98.7h83.6L1270,348v-1.8l-41.2-55.9h41.2V288.9z M730,389l-10.5-98.7h83.6l20.7,98.7H730z M825.3,389l-20.9-98.7H888
				l31.1,98.7H825.3z M920.5,389l-31.3-98.7h83.6l41.5,98.7H920.5z M1015.8,389l-41.7-98.7h83.6l51.9,98.7H1015.8z M1204.9,389H1111
				l-52-98.7h83.6L1204.9,389z"/>
			<path class="st7" d="M684.7,368.3c0,2.3-6.9,4.2-15.5,4.2s-15.5-1.9-15.5-4.2s6.9-4.2,15.5-4.2
				C677.8,364.1,684.7,366,684.7,368.3z"/>
			<path class="st8" d="M400.9,276.6c0,0.5-2,0.8-4.4,0.8s-4.4-0.4-4.4-0.8c0-0.5,2-0.8,4.4-0.8C399,275.8,400.9,276.1,400.9,276.6z
				"/>
			<path class="st7" d="M958.6,330.6c0,1.2-4.5,2.2-10,2.2s-10-1-10-2.2s4.5-2.2,10-2.2S958.6,329.4,958.6,330.6z"/>
			<ellipse class="st7" cx="39.8" cy="270" rx="6.1" ry="1.6"/>
			<ellipse class="st7" cx="196.9" cy="279.2" rx="4.1" ry="1.8"/>
			<path class="st6" d="M1248.6,269.6c0,0.9-2.8,1.6-6.1,1.6c-3.4,0-6.1-0.7-6.1-1.6s2.8-1.6,6.1-1.6
				C1245.8,268,1248.6,268.7,1248.6,269.6z"/>
			<ellipse class="st6" cx="1055.5" cy="260" rx="90.3" ry="1.4"/>
			<path class="st6" d="M142.5,255c0,0.7-9.1,1.3-20.3,1.3s-20.3-0.6-20.3-1.3s9.1-1.3,20.3-1.3S142.5,254.3,142.5,255z"/>
			<ellipse class="st6" cx="383" cy="261.7" rx="44.3" ry="3.3"/>
			<ellipse class="st7" cx="245.1" cy="257.9" rx="9.5" ry="1.6"/>
		</g>
	</g>
</g>
<g id="Laag_3">
	<path class="st9" d="M1081.4,283h-3.4c-1.7,0-3-1.3-3-3v-64.7c0-1.7,1.3-3,3-3h3.4c1.7,0,3,1.3,3,3V280
		C1084.4,281.7,1083.1,283,1081.4,283z"/>
	<path class="st9" d="M579.8,283h-3.4c-1.7,0-3-1.3-3-3v-64.7c0-1.7,1.3-3,3-3h3.4c1.7,0,3,1.3,3,3V280
		C582.8,281.7,581.5,283,579.8,283z"/>
	<g>
		<path class="st10" d="M552.6,265v-42.1c0-3.3,2.7-6,6-6h541c3.3,0,6,2.7,6,6V265c0,3.3-2.7,6-6,6h-541
			C555.3,271,552.6,268.3,552.6,265z"/>
		<path class="st11" d="M1100.3,269.5H557.8c-2.2,0-4-1.8-4-4v-43.2c0-2.2,1.8-4,4-4h542.4c2.2,0,4,1.8,4,4v43.2
			C1104.3,267.7,1102.5,269.5,1100.3,269.5z"/>
		<rect x="553.8" y="221.2" class="st12" width="550.4" height="14.5"/>
		<text transform="matrix(1 0 0 1 561.3813 231.9277)" class="st11 st13 st14">WARNING     |     WARNING     |     WARNING     |     WARNING     |     WARNING     |     WARNING     |     WARNING     |     WARNING</text>
		<g>
			<polygon class="st11" points="829.1,257.9 829.1,266.5 837.7,257.9 			"/>
			<polygon class="st12" points="829.1,266.5 837.7,266.5 837.7,257.9 			"/>
			<polygon class="st11" points="846.3,266.5 846.3,257.9 837.7,266.5 			"/>
			<polygon class="st12" points="846.3,257.9 837.7,257.9 837.7,266.5 			"/>
			<polygon class="st11" points="846.3,257.9 846.3,266.5 854.9,257.9 			"/>
			<polygon class="st12" points="846.3,266.5 854.9,266.5 854.9,257.9 			"/>
			<polygon class="st11" points="863.5,266.5 863.5,257.9 854.9,266.5 			"/>
			<polygon class="st12" points="863.5,257.9 854.9,257.9 854.9,266.5 			"/>
			<polygon class="st11" points="863.5,257.9 863.5,266.5 872.1,257.9 			"/>
			<polygon class="st12" points="863.5,266.5 872.1,266.5 872.1,257.9 			"/>
			<polygon class="st11" points="880.7,266.5 880.7,257.9 872.1,266.5 			"/>
			<polygon class="st12" points="880.7,257.9 872.1,257.9 872.1,266.5 			"/>
			<polygon class="st11" points="880.7,257.9 880.7,266.5 889.3,257.9 			"/>
			<polygon class="st12" points="880.7,266.5 889.3,266.5 889.3,257.9 			"/>
			<polygon class="st11" points="897.9,266.5 897.9,257.9 889.3,266.5 			"/>
			<polygon class="st12" points="897.9,257.9 889.3,257.9 889.3,266.5 			"/>
			<polygon class="st11" points="897.9,257.9 897.9,266.5 906.5,257.9 			"/>
			<polygon class="st12" points="897.9,266.5 906.5,266.5 906.5,257.9 			"/>
			<polygon class="st11" points="915.1,266.5 915.1,257.9 906.5,266.5 			"/>
			<polygon class="st12" points="915.1,257.9 906.5,257.9 906.5,266.5 			"/>
			<polygon class="st11" points="915.1,257.9 915.1,266.5 923.7,257.9 			"/>
			<polygon class="st12" points="915.1,266.5 923.7,266.5 923.7,257.9 			"/>
			<polygon class="st11" points="932.3,266.5 932.3,257.9 923.7,266.5 			"/>
			<polygon class="st12" points="932.3,257.9 923.7,257.9 923.7,266.5 			"/>
			<polygon class="st11" points="932.3,257.9 932.3,266.5 940.9,257.9 			"/>
			<polygon class="st12" points="932.3,266.5 940.9,266.5 940.9,257.9 			"/>
			<polygon class="st11" points="949.5,266.5 949.5,257.9 940.9,266.5 			"/>
			<polygon class="st12" points="949.5,257.9 940.9,257.9 940.9,266.5 			"/>
			<polygon class="st11" points="949.5,257.9 949.5,266.5 958.1,257.9 			"/>
			<polygon class="st12" points="949.5,266.5 958.1,266.5 958.1,257.9 			"/>
			<polygon class="st11" points="966.7,266.5 966.7,257.9 958.1,266.5 			"/>
			<polygon class="st12" points="966.7,257.9 958.1,257.9 958.1,266.5 			"/>
			<polygon class="st11" points="966.7,257.9 966.7,266.5 975.3,257.9 			"/>
			<polygon class="st12" points="966.7,266.5 975.3,266.5 975.3,257.9 			"/>
			<polygon class="st11" points="983.9,266.5 983.9,257.9 975.3,266.5 			"/>
			<polygon class="st12" points="983.9,257.9 975.3,257.9 975.3,266.5 			"/>
			<polygon class="st11" points="983.9,257.9 983.9,266.5 992.5,257.9 			"/>
			<polygon class="st12" points="983.9,266.5 992.5,266.5 992.5,257.9 			"/>
			<polygon class="st11" points="1001.1,266.5 1001.1,257.9 992.5,266.5 			"/>
			<polygon class="st12" points="1001.1,257.9 992.5,257.9 992.5,266.5 			"/>
			<polygon class="st11" points="1001.1,257.9 1001.1,266.5 1009.7,257.9 			"/>
			<polygon class="st12" points="1001.1,266.5 1009.7,266.5 1009.7,257.9 			"/>
			<polygon class="st11" points="1018.3,266.5 1018.3,257.9 1009.7,266.5 			"/>
			<polygon class="st12" points="1018.3,257.9 1009.7,257.9 1009.7,266.5 			"/>
			<polygon class="st11" points="1018.3,257.9 1018.3,266.5 1026.9,257.9 			"/>
			<polygon class="st12" points="1018.3,266.5 1026.9,266.5 1026.9,257.9 			"/>
			<polygon class="st11" points="1035.5,266.5 1035.5,257.9 1026.9,266.5 			"/>
			<polygon class="st12" points="1035.5,257.9 1026.9,257.9 1026.9,266.5 			"/>
			<polygon class="st11" points="1035.5,257.9 1035.5,266.5 1044.1,257.9 			"/>
			<polygon class="st12" points="1035.5,266.5 1044.1,266.5 1044.1,257.9 			"/>
			<polygon class="st11" points="1052.7,266.5 1052.7,257.9 1044.1,266.5 			"/>
			<polygon class="st12" points="1052.7,257.9 1044.1,257.9 1044.1,266.5 			"/>
			<polygon class="st11" points="1052.7,257.9 1052.7,266.5 1061.3,257.9 			"/>
			<polygon class="st12" points="1052.7,266.5 1061.3,266.5 1061.3,257.9 			"/>
			<polygon class="st11" points="1069.9,266.5 1069.9,257.9 1061.3,266.5 			"/>
			<polygon class="st12" points="1069.9,257.9 1061.3,257.9 1061.3,266.5 			"/>
			<polygon class="st11" points="1069.9,257.9 1069.9,266.5 1078.5,257.9 			"/>
			<polygon class="st12" points="1069.9,266.5 1078.5,266.5 1078.5,257.9 			"/>
			<polygon class="st11" points="1087.1,266.5 1087.1,257.9 1078.5,266.5 			"/>
			<polygon class="st12" points="1087.1,257.9 1078.5,257.9 1078.5,266.5 			"/>
			<polygon class="st11" points="1087.1,257.9 1087.1,266.5 1095.7,257.9 			"/>
			<polygon class="st12" points="1087.1,266.5 1095.7,266.5 1095.7,257.9 			"/>
			<polygon class="st11" points="1104.3,266.5 1104.3,257.9 1095.7,266.5 			"/>
			<polygon class="st12" points="1104.3,257.9 1095.7,257.9 1095.7,266.5 			"/>
		</g>
		<g>
			<polygon class="st11" points="553.8,257.9 553.8,266.5 562.4,257.9 			"/>
			<polygon class="st12" points="553.8,266.5 562.4,266.5 562.4,257.9 			"/>
			<polygon class="st11" points="571,266.5 571,257.9 562.4,266.5 			"/>
			<polygon class="st12" points="571,257.9 562.4,257.9 562.4,266.5 			"/>
			<polygon class="st11" points="571,257.9 571,266.5 579.6,257.9 			"/>
			<polygon class="st12" points="571,266.5 579.6,266.5 579.6,257.9 			"/>
			<polygon class="st11" points="588.2,266.5 588.2,257.9 579.6,266.5 			"/>
			<polygon class="st12" points="588.2,257.9 579.6,257.9 579.6,266.5 			"/>
			<polygon class="st11" points="588.2,257.9 588.2,266.5 596.8,257.9 			"/>
			<polygon class="st12" points="588.2,266.5 596.8,266.5 596.8,257.9 			"/>
			<polygon class="st11" points="605.4,266.5 605.4,257.9 596.8,266.5 			"/>
			<polygon class="st12" points="605.4,257.9 596.8,257.9 596.8,266.5 			"/>
			<polygon class="st11" points="605.4,257.9 605.4,266.5 614,257.9 			"/>
			<polygon class="st12" points="605.4,266.5 614,266.5 614,257.9 			"/>
			<polygon class="st11" points="622.7,266.5 622.7,257.9 614,266.5 			"/>
			<polygon class="st12" points="622.7,257.9 614,257.9 614,266.5 			"/>
			<polygon class="st11" points="622.7,257.9 622.7,266.5 631.3,257.9 			"/>
			<polygon class="st12" points="622.7,266.5 631.3,266.5 631.3,257.9 			"/>
			<polygon class="st11" points="639.9,266.5 639.9,257.9 631.3,266.5 			"/>
			<polygon class="st12" points="639.9,257.9 631.3,257.9 631.3,266.5 			"/>
			<polygon class="st11" points="639.9,257.9 639.9,266.5 648.5,257.9 			"/>
			<polygon class="st12" points="639.9,266.5 648.5,266.5 648.5,257.9 			"/>
			<polygon class="st11" points="657.1,266.5 657.1,257.9 648.5,266.5 			"/>
			<polygon class="st12" points="657.1,257.9 648.5,257.9 648.5,266.5 			"/>
			<polygon class="st11" points="657.1,257.9 657.1,266.5 665.7,257.9 			"/>
			<polygon class="st12" points="657.1,266.5 665.7,266.5 665.7,257.9 			"/>
			<polygon class="st11" points="674.3,266.5 674.3,257.9 665.7,266.5 			"/>
			<polygon class="st12" points="674.3,257.9 665.7,257.9 665.7,266.5 			"/>
			<polygon class="st11" points="674.3,257.9 674.3,266.5 682.9,257.9 			"/>
			<polygon class="st12" points="674.3,266.5 682.9,266.5 682.9,257.9 			"/>
			<polygon class="st11" points="691.5,266.5 691.5,257.9 682.9,266.5 			"/>
			<polygon class="st12" points="691.5,257.9 682.9,257.9 682.9,266.5 			"/>
			<polygon class="st11" points="691.5,257.9 691.5,266.5 700.1,257.9 			"/>
			<polygon class="st12" points="691.5,266.5 700.1,266.5 700.1,257.9 			"/>
			<polygon class="st11" points="708.7,266.5 708.7,257.9 700.1,266.5 			"/>
			<polygon class="st12" points="708.7,257.9 700.1,257.9 700.1,266.5 			"/>
			<polygon class="st11" points="708.7,257.9 708.7,266.5 717.3,257.9 			"/>
			<polygon class="st12" points="708.7,266.5 717.3,266.5 717.3,257.9 			"/>
			<polygon class="st11" points="725.9,266.5 725.9,257.9 717.3,266.5 			"/>
			<polygon class="st12" points="725.9,257.9 717.3,257.9 717.3,266.5 			"/>
			<polygon class="st11" points="725.9,257.9 725.9,266.5 734.5,257.9 			"/>
			<polygon class="st12" points="725.9,266.5 734.5,266.5 734.5,257.9 			"/>
			<polygon class="st11" points="743.1,266.5 743.1,257.9 734.5,266.5 			"/>
			<polygon class="st12" points="743.1,257.9 734.5,257.9 734.5,266.5 			"/>
			<polygon class="st11" points="743.1,257.9 743.1,266.5 751.7,257.9 			"/>
			<polygon class="st12" points="743.1,266.5 751.7,266.5 751.7,257.9 			"/>
			<polygon class="st11" points="760.3,266.5 760.3,257.9 751.7,266.5 			"/>
			<polygon class="st12" points="760.3,257.9 751.7,257.9 751.7,266.5 			"/>
			<polygon class="st11" points="760.3,257.9 760.3,266.5 768.9,257.9 			"/>
			<polygon class="st12" points="760.3,266.5 768.9,266.5 768.9,257.9 			"/>
			<polygon class="st11" points="777.5,266.5 777.5,257.9 768.9,266.5 			"/>
			<polygon class="st12" points="777.5,257.9 768.9,257.9 768.9,266.5 			"/>
			<polygon class="st11" points="777.5,257.9 777.5,266.5 786.1,257.9 			"/>
			<polygon class="st12" points="777.5,266.5 786.1,266.5 786.1,257.9 			"/>
			<polygon class="st11" points="794.7,266.5 794.7,257.9 786.1,266.5 			"/>
			<polygon class="st12" points="794.7,257.9 786.1,257.9 786.1,266.5 			"/>
			<polygon class="st11" points="794.7,257.9 794.7,266.5 803.3,257.9 			"/>
			<polygon class="st12" points="794.7,266.5 803.3,266.5 803.3,257.9 			"/>
			<polygon class="st11" points="811.9,266.5 811.9,257.9 803.3,266.5 			"/>
			<polygon class="st12" points="811.9,257.9 803.3,257.9 803.3,266.5 			"/>
			<polygon class="st11" points="811.9,257.9 811.9,266.5 820.5,257.9 			"/>
			<polygon class="st12" points="811.9,266.5 820.5,266.5 820.5,257.9 			"/>
			<polygon class="st11" points="829.1,266.5 829.1,257.9 820.5,266.5 			"/>
			<polygon class="st12" points="829.1,257.9 820.5,257.9 820.5,266.5 			"/>
		</g>
		<rect x="553.8" y="235.3" class="st15" width="550.4" height="22.2"/>
		<text transform="matrix(1 0 0 1 561.4727 250.7959)" class="st12 st13 st16">Self serve IAOs are NOT ApeSwap endorsed or official ApeSwap partners. Always DYOR!</text>
	</g>
	<g>
		<ellipse class="st17" cx="1193.9" cy="266" rx="35.3" ry="5.8"/>
		<g class="st18">
			<path class="st19" d="M1215.5,255.1c-1.7,0-3.2,0.8-3.9,2c-0.7-0.3-1.4-0.5-2.3-0.5c-0.2,0-0.4,0-0.6,0c-1.1-3.4-4.9-6-9.5-6
				c-4,0-7.4,1.9-8.9,4.7c-1-0.5-2.1-0.7-3.3-0.7c-2.1,0-4,0.8-5.2,2.1c-0.2,0-0.4,0-0.6,0c-1.2,0-2.3,0.3-3.3,0.7
				c-0.7-1.8-2.7-3.1-5-3.1c-2.9,0-5.3,2-5.3,4.4s2.4,4.4,5.3,4.4c0.6,0,1.3-0.1,1.8-0.3c0.4,2.7,3.2,4.7,6.5,4.7
				c2.1,0,4-0.8,5.2-2.1c0.2,0,0.4,0,0.6,0c1.8,0,3.4-0.6,4.6-1.6c1.8,1.8,4.5,2.9,7.6,2.9c3.4,0,6.4-1.4,8.2-3.6
				c0.6,0.2,1.2,0.4,1.9,0.4c1.7,0,3.2-0.8,3.9-2c0.7,0.3,1.4,0.5,2.3,0.5c2.4,0,4.3-1.6,4.3-3.5
				C1219.8,256.7,1217.9,255.1,1215.5,255.1z"/>
			<path class="st2" d="M1212.9,249.2c-1.2,0-2.2,0.3-3.1,0.8c-0.7-2.5-3.4-4.3-6.6-4.3c-1.9,0-3.7,0.7-4.9,1.7
				c-1.6-2.7-4.9-4.6-8.8-4.6c-4.2,0-7.9,2.2-9.2,5.4c-1-0.6-2.3-0.9-3.6-0.9c-3.6,0-6.6,2.4-6.6,5.4s2.9,5.4,6.6,5.4
				c0.2,0,0.4,0,0.5,0c1.2,1.1,2.9,1.8,4.9,1.8c1.6,0,3.1-0.5,4.2-1.3c1,0.3,2.1,0.4,3.2,0.4c3.7,0,6.8-1.7,8.5-4.1
				c1.3,1.2,3.1,2,5.2,2c1.8,0,3.5-0.6,4.7-1.6c0.8,1.6,2.8,2.8,5,2.8c3,0,5.4-2,5.4-4.5C1218.3,251.2,1215.9,249.2,1212.9,249.2z"
				/>
		</g>
		<path class="st19" d="M1171.7,207.8c0,0-37.9,28.6-20.6,53.3c2.9,4,5.7,5,5.7,5l12.7-30.8L1171.7,207.8z"/>
		<path class="st20" d="M1216,207.8c0,0,37.9,28.6,20.6,53.3c-2.9,4-5.7,5-5.7,5l-12.7-30.8L1216,207.8z"/>
		<path class="st20" d="M1185.3,245.7h-8.1h-8.1c0,0-2.1,4.2-2.1,5.8h10.3h10.3C1187.4,250,1185.3,245.7,1185.3,245.7z"/>
		<polygon class="st21" points="1187.8,253.4 1166.2,253.4 1166.2,249.9 1187.8,250.6 		"/>
		<path class="st20" d="M1190.1,243.3v3.8h-23.3c0-0.2,0-0.5,0-0.7c0,0,0,0,0-0.1c0-0.7,0-1.4,0.1-2l2.2-0.1l9-0.4l2.2-0.1l7.5-0.3
			h1.2L1190.1,243.3z"/>
		<path class="st21" d="M1189.4,246.8L1189.4,246.8c0-0.1,0-0.1,0-0.2v-0.1c-0.1-0.9-0.3-2-0.4-3.2h-1.2l1,3.1l-7.5-0.1l-0.7-1.9
			l-2.3,0.1l0.5,1.8l-9.6-0.1l-0.1-2.2l-2.2,0.1c0,0.7-0.1,1.3-0.1,2c0,0,0,0,0,0.1c0,0.2,0,0.5,0,0.7h12.2h2.6h7.9
			C1189.5,247,1189.4,246.9,1189.4,246.8z"/>
		<path class="st20" d="M1202.5,245.7h8.1h8.1c0,0,2.1,4.2,2.1,5.8h-10.3h-10.3C1200.4,250,1202.5,245.7,1202.5,245.7z"/>
		<polygon class="st21" points="1200,253.4 1221.5,253.4 1221.5,249.9 1200,250.6 		"/>
		<path class="st20" d="M1197.7,243.3v3.8h23.3c0-0.2,0-0.5,0-0.7c0,0,0,0,0-0.1c0-0.7,0-1.4-0.1-2l-2.2-0.1l-9-0.4l-2.2-0.1
			l-7.5-0.3h-1.2L1197.7,243.3z"/>
		<path class="st21" d="M1198.3,246.8L1198.3,246.8c0-0.1,0-0.1,0-0.2v-0.1c0.1-0.9,0.3-2,0.4-3.2h1.2l-1,3.1l7.5-0.1l0.7-1.9
			l2.3,0.1l-0.5,1.8l9.6-0.1l0.1-2.2l2.2,0.1c0,0.7,0.1,1.3,0.1,2c0,0,0,0,0,0.1c0,0.2,0,0.5,0,0.7h-12.2h-2.6h-7.9
			C1198.3,247,1198.3,246.9,1198.3,246.8z"/>
		<path class="st22" d="M1222.1,64.1v179c0,1-1.1,1.8-2.4,1.8h-51.6c-1.3,0-2.4-0.8-2.4-1.8v-179l0,0c0-0.5,0-1,0-1.5
			c0.5-12.4,7.9-22.2,14.9-28.8l0.5-0.4c0.3-0.3,0.6-0.5,0.8-0.8c5.6-5,10.8-7.9,11.7-8.5c0.1,0,0.1-0.1,0.1-0.1l0,0l0,0l0,0
			c0,0,5.6,3,11.9,8.6c0.3,0.3,0.6,0.5,0.8,0.8c0.5,0.5,1,0.9,1.5,1.4c6.7,6.6,13.4,16.1,13.9,27.9
			C1222,63.1,1222.1,63.6,1222.1,64.1z"/>
		<g>
			<path class="st23" d="M1182,114.6c-0.3,1-0.4,1.9-0.4,2.9c0,0.1,0,0.1,0,0.2c0,1.2-0.1,2.4-0.4,3.5c-0.6-0.2-1.1-0.6-1.7-1.3
				c-1.4-1.8-0.9-4.7,0.8-5.4C1181,114.4,1181.6,114.4,1182,114.6L1182,114.6z"/>
			<path class="st24" d="M1182,114.6c-0.3,1-0.4,1.9-0.4,2.9c0,0.1,0,0.1,0,0.2c0,1.2-0.1,2.4-0.4,3.5c-0.6-0.2-1.1-0.6-1.7-1.3
				c-1.4-1.8-0.9-4.7,0.8-5.4C1181,114.4,1181.6,114.4,1182,114.6L1182,114.6z"/>
			<path class="st23" d="M1208.2,120c-0.5,0.7-1.1,1.1-1.7,1.3c-0.3-1.2-0.4-2.3-0.4-3.5c0-0.1,0-0.1,0-0.2c0-1-0.1-2-0.4-2.9
				c0.4-0.2,1-0.2,1.7,0C1209.2,115.3,1209.6,118.2,1208.2,120z"/>
			<path class="st24" d="M1208.2,120c-0.5,0.7-1.1,1.1-1.7,1.3c-0.3-1.2-0.4-2.3-0.4-3.5c0-0.1,0-0.1,0-0.2c0-1-0.1-2-0.4-2.9
				c0.4-0.2,1-0.2,1.7,0C1209.2,115.3,1209.6,118.2,1208.2,120z"/>
			<path class="st23" d="M1202.8,121.3c-0.5,0.8-0.7,1.8-0.3,2.7c0.2,0.7,0.4,1.5,0.4,2c0,4.2-4,7.7-9,7.7c-4.9,0-9-3.4-9-7.7
				c0-0.6,0.2-1.4,0.4-2c0.3-0.9,0.2-1.9-0.3-2.7c-0.1-0.2-0.2-0.4-0.3-0.6c-0.3-0.6-0.4-1.3-0.4-2c0-2.8,2.4-5.1,5.3-5.1
				c1,0,1.9,0.2,2.7,0.7c1,0.6,2.2,0.6,3.1,0c0.8-0.5,1.8-0.7,2.7-0.7c3,0,5.3,2.3,5.3,5.1c0,0.7-0.1,1.4-0.4,2
				C1203,120.9,1202.9,121.1,1202.8,121.3z"/>
			<path class="st24" d="M1202.8,121.3c-0.5,0.8-0.7,1.8-0.3,2.7c0.2,0.7,0.4,1.5,0.4,2c0,4.2-4,7.7-9,7.7c-4.9,0-9-3.4-9-7.7
				c0-0.6,0.2-1.4,0.4-2c0.3-0.9,0.2-1.9-0.3-2.7c-0.1-0.2-0.2-0.4-0.3-0.6c-0.3-0.6-0.4-1.3-0.4-2c0-2.8,2.4-5.1,5.3-5.1
				c1,0,1.9,0.2,2.7,0.7c1,0.6,2.2,0.6,3.1,0c0.8-0.5,1.8-0.7,2.7-0.7c3,0,5.3,2.3,5.3,5.1c0,0.7-0.1,1.4-0.4,2
				C1203,120.9,1202.9,121.1,1202.8,121.3z"/>
			<path class="st25" d="M1189.3,127c-0.3,0-0.5,0.2-0.5,0.5c0,0,0,0,0,0.1c0.3,2.3,2.5,4,5.1,4s4.8-1.8,5.1-4
				c0-0.3-0.2-0.5-0.4-0.6c0,0,0,0-0.1,0C1198.5,127,1189.3,127,1189.3,127z"/>
			<path class="st26" d="M1190.9,130.8c1.8,1.1,4.1,1.1,5.9,0c-0.4-1.3-1.6-1-2.9-1C1192.5,129.8,1191.3,129.5,1190.9,130.8z"/>
			<path class="st23" d="M1208,113.7c-1.1-0.4-1.9-0.2-2.5,0.1c-0.1-0.4-0.3-0.8-0.5-1.3c-0.1-0.3-0.3-0.6-0.4-0.9
				c-1.6-3-4.4-5.4-7.5-6.5l-0.1-1.7l-2,1.2c-0.1,0-0.2,0-0.2,0c-0.2,0-0.3,0-0.4,0l-0.3-1.3l-0.1-0.4c-0.1,0-0.2,0-0.3,0
				c-1.9,0.2-2.8,1.9-3,2.2c-3.1,1-5.9,3.5-7.5,6.5c-0.2,0.3-0.3,0.6-0.4,0.9c-0.2,0.4-0.4,0.8-0.5,1.3h-0.1
				c-0.6-0.3-1.4-0.5-2.4-0.1c-2.2,0.9-2.8,4.5-1,6.8c0.7,0.9,1.5,1.4,2.3,1.7v0.1c-0.1,0.6-0.2,1.2-0.2,1.9c0,4.4,3.2,8.1,7.8,9.8
				c1.1,0.4,2.2,0.7,3.4,0.8c0.6,0.1,1.2,0.1,1.8,0.1h0.1c7.3,0,13.1-4.8,13.1-10.7c0-0.6-0.1-1.3-0.2-1.9v-0.1
				c0.7-0.2,1.5-0.7,2.3-1.7C1210.9,118.2,1210.3,114.6,1208,113.7z M1182,114.6c-0.3,1-0.4,1.9-0.4,2.9c0,0.1,0,0.1,0,0.2
				c0,1.2-0.1,2.4-0.4,3.5c-0.6-0.2-1.1-0.6-1.7-1.3c-1.4-1.8-0.9-4.7,0.8-5.4C1181,114.4,1181.6,114.4,1182,114.6L1182,114.6z
				 M1203.1,120.7c-0.1,0.2-0.2,0.4-0.3,0.6c-0.5,0.8-0.7,1.8-0.3,2.7c0.2,0.7,0.4,1.5,0.4,2c0,4.2-4,7.7-9,7.7s-9-3.4-9-7.7
				c0-0.6,0.2-1.4,0.4-2c0.3-0.9,0.2-1.9-0.3-2.7c-0.1-0.2-0.2-0.4-0.3-0.6c-0.3-0.6-0.4-1.3-0.4-2c0-2.8,2.4-5.1,5.3-5.1
				c1,0,1.9,0.2,2.7,0.7c1,0.6,2.2,0.6,3.1,0c0.8-0.5,1.8-0.7,2.7-0.7c3,0,5.3,2.3,5.3,5.1C1203.5,119.4,1203.4,120.1,1203.1,120.7z
				 M1208.2,120c-0.5,0.7-1.1,1.1-1.7,1.3c-0.3-1.2-0.4-2.3-0.4-3.5c0-0.1,0-0.1,0-0.2c0-1-0.1-2-0.4-2.9c0.4-0.2,1-0.2,1.7,0
				C1209.2,115.3,1209.6,118.2,1208.2,120L1208.2,120z"/>
			<path class="st25" d="M1191.7,123.2L1191.7,123.2c0.1-0.2,0.4-0.3,0.6-0.2l1,0.5c0.2,0.1,0.3,0.4,0.2,0.6l0,0
				c-0.1,0.2-0.4,0.3-0.6,0.2l-1-0.5C1191.7,123.7,1191.6,123.4,1191.7,123.2z"/>
			<path class="st25" d="M1194.3,124L1194.3,124c-0.1-0.2,0-0.5,0.2-0.6l1-0.5c0.2-0.1,0.5,0,0.6,0.2l0,0c0.1,0.2,0,0.5-0.2,0.6
				l-1,0.5C1194.7,124.4,1194.4,124.3,1194.3,124z"/>
			<path class="st25" d="M1189.3,120.7L1189.3,120.7c-0.8,0-1.5-0.7-1.5-1.5v-0.5c0-0.8,0.7-1.5,1.5-1.5l0,0c0.8,0,1.5,0.7,1.5,1.5
				v0.5C1190.8,120.1,1190.1,120.7,1189.3,120.7z"/>
			<path class="st27" d="M1189.3,117.3v1.7c0,0.4,0.3,0.7,0.8,0.7s0.8-0.3,0.8-0.7v-0.2C1190.8,118,1190.1,117.3,1189.3,117.3z"/>
			<ellipse class="st2" cx="1189.3" cy="118.3" rx="0.5" ry="0.5"/>
			<path class="st25" d="M1198.5,120.7L1198.5,120.7c-0.8,0-1.5-0.7-1.5-1.5v-0.5c0-0.8,0.7-1.5,1.5-1.5l0,0c0.8,0,1.5,0.7,1.5,1.5
				v0.5C1200,120.1,1199.3,120.7,1198.5,120.7z"/>
			<path class="st27" d="M1198.5,117.3v1.7c0,0.4,0.3,0.7,0.8,0.7c0.4,0,0.8-0.3,0.8-0.7v-0.2C1200,118,1199.3,117.3,1198.5,117.3z"
				/>
			<ellipse class="st2" cx="1198.5" cy="118.3" rx="0.5" ry="0.5"/>
			<path class="st28" d="M1194,103.4c-0.3,0-1.1,0.5-2,1.4c-0.2,0.2-0.5,0.5-0.7,0.8c-1.8,2.1-3.8,5.3-4.5,8.7
				c-1.2,5.6-1.7,12.1,0.4,15.8c1.8,3.1,4.7,4.7,4.7,4.7c-1.1-0.1-2.3-0.4-3.4-0.8c-4.6-1.7-7.8-5.4-7.8-9.8c0-0.6,0.1-1.3,0.2-1.9
				v-0.1c-0.7-0.2-1.5-0.7-2.3-1.7c-1.8-2.3-1.2-6,1-6.8c1-0.4,1.8-0.2,2.4,0.1h0.1c0.1-0.4,0.3-0.8,0.5-1.3
				c0.1-0.3,0.3-0.6,0.4-0.9c1.6-3,4.3-5.4,7.5-6.5c0.1-0.3,1.1-2,3-2.2c0.1,0,0.2,0,0.3,0L1194,103.4z"/>
		</g>
		<polygon class="st29" points="1222.1,94.8 1222.1,96.3 1166.8,95.3 1165.7,95.3 1165.7,94.8 1165.7,94.8 		"/>
		<path class="st21" d="M1205.8,32.6c-6.2-5.6-11.9-8.6-11.9-8.6l0,0l0,0l0,0c0,0-0.1,0-0.1,0.1c-1,0.5-6.1,3.5-11.7,8.5H1205.8z"/>
		<path class="st21" d="M1222.1,64.1h-56.3c0-0.5,0-1,0-1.5h56.3C1222,63.1,1222.1,63.6,1222.1,64.1z"/>
		<path class="st21" d="M1222.1,94.8h-56.3c0-0.5,0-1,0-1.5h56.3C1222,93.9,1222.1,94.3,1222.1,94.8z"/>
		<path class="st21" d="M1171.8,94.8l-0.6,21.2c-0.4,1-0.8,1.9-1.2,2.9l0.6-24L1171.8,94.8L1171.8,94.8z"/>
		<path class="st21" d="M1216.6,94.8V116c0.4,1,0.8,1.9,1.2,2.9v-24L1216.6,94.8L1216.6,94.8z"/>
		<path class="st29" d="M1208.1,34.8c-6.2-0.2-27.4-1-27.4-1l0.5-0.4h25.5C1207.1,33.8,1207.6,34.3,1208.1,34.8z"/>
		<polygon class="st29" points="1222.1,64.1 1222.1,65.6 1166.8,64.6 1165.7,64.6 1165.7,64.1 1165.7,64.1 		"/>
		<path class="st20" d="M1199.9,214.7c0-2.7-1.8-4.9-4-4.9h-2.1l-0.6,24.3l0.6,38.7c0,0,1.5-0.5,2.8-4
			C1197.9,265.3,1199.9,214.7,1199.9,214.7z"/>
		<path class="st19" d="M1191.9,209.8c-2.2,0-4,2.2-4,4.9c0,0,2.2,50.9,3.3,54.1c1.1,3.3,2.6,4,2.6,4v-63.1h-1.9V209.8z"/>
		<path class="st30" d="M1222.1,64.1v179c0,1-1.1,1.8-2.4,1.8h-11.6V62.6c0-22.5-14.2-38.6-14.2-38.6l0,0l0,0c0,0,5.6,3,11.9,8.6
			c0.3,0.3,0.6,0.5,0.8,0.8c0.5,0.5,1,0.9,1.5,1.4c6.7,6.6,13.4,16.1,13.9,27.9C1222,63.1,1222.1,63.6,1222.1,64.1z"/>
		<path class="st21" d="M1222.5,161.5h-57.2c-0.6,0-1-0.5-1-1V160c0-0.6,0.5-1,1-1h57.2c0.6,0,1,0.5,1,1v0.5
			C1223.5,161.1,1223,161.5,1222.5,161.5z"/>
		<path class="st21" d="M1221.5,157h-55.2c-1.1,0-2-0.9-2-2v-8.7c0-1.1,0.9-2,2-2h55.2c1.1,0,2,0.9,2,2v8.7
			C1223.5,156.2,1222.6,157,1221.5,157z"/>
		<text transform="matrix(1 0 0 1 1174.9805 154.5713)" class="st22 st31 st32">SS-IAO</text>
		<path class="st33" d="M1184.3,262c-1.9,0-3.6,0.9-4.4,2.3c-0.8-0.4-1.6-0.6-2.6-0.6c-0.2,0-0.5,0-0.7,0c-1.3-3.9-5.7-6.8-10.8-6.8
			c-4.5,0-8.4,2.2-10.2,5.4c-1.1-0.5-2.4-0.8-3.7-0.8c-2.4,0-4.5,0.9-5.9,2.4c-0.2,0-0.4,0-0.7,0c-1.4,0-2.7,0.3-3.8,0.8
			c-0.8-2-3.1-3.5-5.8-3.5c-3.3,0-6.1,2.2-6.1,5s2.7,5,6.1,5c0.7,0,1.4-0.1,2.1-0.3c0.5,3,3.6,5.4,7.4,5.4c2.4,0,4.5-0.9,5.9-2.4
			c0.2,0,0.4,0,0.7,0c2.1,0,3.9-0.7,5.3-1.8c2.1,2.1,5.2,3.4,8.7,3.4c3.9,0,7.4-1.7,9.4-4.2c0.6,0.3,1.4,0.4,2.1,0.4
			c1.9,0,3.6-0.9,4.4-2.3c0.8,0.4,1.6,0.6,2.6,0.6c2.7,0,4.9-1.8,4.9-4C1189.2,263.9,1187,262,1184.3,262z"/>
		<path class="st33" d="M1251.8,263.6c-1.4,0-2.7,0.4-3.8,1c-0.9-3-4.2-5.3-8.1-5.3c-2.4,0-4.5,0.8-6,2.1c-2-3.3-6-5.6-10.8-5.6
			c-5.2,0-9.6,2.7-11.3,6.6c-1.3-0.7-2.8-1.1-4.4-1.1c-4.4,0-8,3-8,6.7s3.6,6.7,8,6.7c0.2,0,0.4,0,0.7,0c1.5,1.3,3.6,2.2,6,2.2
			c2,0,3.8-0.6,5.2-1.6c1.2,0.3,2.5,0.5,3.9,0.5c4.5,0,8.4-2,10.4-5c1.5,1.5,3.8,2.4,6.3,2.4c2.3,0,4.3-0.7,5.8-1.9
			c1,2,3.4,3.4,6.1,3.4c3.7,0,6.7-2.5,6.7-5.5C1258.4,266.1,1255.5,263.6,1251.8,263.6z"/>
	</g>
</g>
</svg>
