<svg width="36" height="32" viewBox="0 0 36 32" fill="none" xmlns="http://www.w3.org/2000/svg">
<path d="M30.0911 29.6831L35.4562 2.88662C35.675 1.75283 35.5472 0.940818 35.0727 0.45058C34.5983 -0.0396581 33.9718 -0.129856 33.1932 0.179985L1.65851 13.0556C0.953127 13.3402 0.472843 13.6615 0.217642 14.0196C-0.0375593 14.3776 -0.0683329 14.7189 0.125343 15.0434C0.320318 15.3647 0.710269 15.6172 1.2952 15.8008L9.35873 18.4703L28.0829 5.9809C28.5937 5.62011 28.9837 5.54277 29.2527 5.74887C29.423 5.87831 29.3745 6.07179 29.1071 6.3293L13.9595 20.8285L13.3746 29.6459C13.9339 29.6459 14.4812 29.3622 15.0163 28.7949L18.9587 24.7738L27.1346 31.1531C28.6914 32.0813 29.6769 31.5912 30.0911 29.6831Z" fill="#FFB300"/>
</svg>
