<svg width="40" height="32" viewBox="0 0 40 32" fill="none" xmlns="http://www.w3.org/2000/svg">
<path d="M35.4501 7.87708C35.4744 8.22223 35.4744 8.56804 35.4744 8.91319C35.4744 19.4582 27.3271 31.6086 12.4349 31.6086C8.02621 31.6201 3.70809 30.3765 0 28.0276C0.649394 28.0983 1.30245 28.1314 1.95579 28.1266C5.6004 28.1356 9.14185 26.935 12.0089 24.7185C10.3192 24.6882 8.68124 24.1388 7.32385 23.1471C5.96645 22.1554 4.95737 20.7709 4.4375 19.1869C4.94338 19.2655 5.45452 19.3066 5.96663 19.3099C6.68582 19.3081 7.40191 19.2169 8.09795 19.0386C6.26435 18.6733 4.61568 17.694 3.43201 16.2671C2.24834 14.8401 1.60269 13.0535 1.60473 11.2108V11.1117C2.72647 11.729 3.98057 12.076 5.26453 12.1245C4.15351 11.3963 3.24257 10.4087 2.61287 9.24967C1.98316 8.09067 1.65423 6.79626 1.65536 5.48171C1.651 4.0668 2.0317 2.67658 2.75783 1.45576C4.79189 3.92207 7.32955 5.93966 10.2062 7.37766C13.0829 8.81566 16.2343 9.64196 19.456 9.80295C19.3257 9.20218 19.2583 8.58983 19.2548 7.97551C19.2545 6.928 19.4637 5.8907 19.8705 4.92287C20.2773 3.95505 20.8738 3.07567 21.6257 2.335C22.3777 1.59433 23.2705 1.00689 24.2531 0.606244C25.2356 0.205597 26.2887 -0.000402355 27.3521 2.31009e-05C28.461 -0.00260849 29.5585 0.219624 30.5764 0.652891C31.5943 1.08616 32.5108 1.72118 33.2688 2.51843C35.0821 2.17459 36.821 1.52293 38.4077 0.592552C37.8037 2.43519 36.5379 3.99745 34.8479 4.98632C36.4557 4.80725 38.0274 4.39255 39.5109 3.75594C38.4019 5.3446 37.0291 6.73782 35.4501 7.87708Z" fill="#FFB300"/>
</svg>
