<svg width="34" height="33" viewBox="0 0 34 33" fill="none" xmlns="http://www.w3.org/2000/svg">
<path d="M10.377 20.655C9.97687 17.716 9.97687 14.7368 10.377 11.7979H23.2074C23.6089 14.7367 23.6089 17.7161 23.2074 20.655H10.377Z" fill="#FFB300"/>
<path d="M22.7881 9.52993H10.7607C11.377 6.94277 12.171 4.46204 13.866 2.36463C14.3221 1.80114 14.8538 1.31766 15.5037 0.973307C16.4019 0.500954 17.2896 0.528783 18.1696 1.01992C19.0252 1.49784 19.6569 2.20602 20.2025 2.9942C21.4421 4.78622 22.148 6.80155 22.6684 8.89201C22.716 9.08262 22.7545 9.27532 22.7972 9.46732C22.7966 9.48847 22.7936 9.50949 22.7881 9.52993Z" fill="#FFB300"/>
<path d="M10.7666 22.9199H22.8604C22.584 23.8584 22.3413 24.7739 22.0447 25.6713C21.555 27.1523 20.9254 28.5784 19.9328 29.7958C19.4588 30.3801 18.9072 30.8975 18.293 31.3339C17.2976 32.0331 16.235 31.9635 15.215 31.3103C14.2091 30.6647 13.5151 29.7388 12.9177 28.7363C11.8544 26.9394 11.2346 24.9812 10.7666 22.9199Z" fill="#FFB300"/>
<path d="M8.12218 20.6814H7.74303C5.4821 20.6814 3.22186 20.6765 0.957423 20.6883C0.682501 20.6883 0.579664 20.6021 0.516005 20.3447C-0.168152 17.5801 -0.183537 14.8197 0.539095 12.06C0.583167 11.8931 0.609035 11.7672 0.838487 11.7686C3.22674 11.7783 5.61571 11.7762 8.00466 11.7783C8.04174 11.7855 8.07805 11.7963 8.1131 11.8103C7.74607 14.7563 7.74911 17.7362 8.12218 20.6814Z" fill="#FFB300"/>
<path d="M25.4703 11.7898C25.5976 11.7836 25.7004 11.7738 25.8026 11.7738C28.0866 11.7738 30.3706 11.7773 32.6546 11.7676C32.896 11.7676 32.9932 11.8295 33.0541 12.0709C33.7599 14.8577 33.7655 17.6362 33.0387 20.423C32.996 20.5851 32.9568 20.6859 32.7519 20.6852C30.3734 20.6792 27.9964 20.6774 25.6207 20.6797C25.5686 20.6741 25.5171 20.6641 25.4668 20.6498C25.8377 17.708 25.8388 14.7318 25.4703 11.7898Z" fill="#FFB300"/>
<path d="M32.1316 9.53699H25.1214C24.7548 7.79228 24.282 6.07678 23.5551 4.44267C22.8283 2.80857 21.9217 1.26976 20.5667 0.0273138C21.8021 -0.0422523 25.5733 1.78873 27.4782 3.36648C29.4978 5.04442 31.5181 7.71089 32.1316 9.53699Z" fill="#FFB300"/>
<path d="M8.46763 9.53055H1.46655C2.49908 5.65433 8.83839 0.417396 13.0469 0C11.6813 1.26819 10.7726 2.78751 10.0451 4.4244C9.31758 6.06129 8.83209 7.77401 8.46763 9.53055Z" fill="#FFB300"/>
<path d="M25.129 22.9199H32.1167C31.2458 26.6598 24.6652 32.0964 20.5742 32.4505C23.2325 29.8146 24.3378 26.4462 25.129 22.9199Z" fill="#FFB300"/>
<path d="M8.45969 22.9199C9.24948 26.4427 10.3415 29.8035 12.99 32.4205C11.884 32.5402 7.9693 30.6417 6.08892 29.0675C4.08891 27.393 1.80771 24.3599 1.47192 22.9199H8.45969Z" fill="#FFB300"/>
</svg>
