<svg width="32" height="34" viewBox="0 0 32 34" fill="none" xmlns="http://www.w3.org/2000/svg">
<path d="M28.1083 12.2459C28.1083 11.7728 27.7974 11.4821 27.3135 11.4843C25.672 11.4924 24.0305 11.5094 22.3898 11.5079C20.8722 11.5079 19.5639 10.9684 18.4901 9.90576C17.4163 8.84309 16.8738 7.54426 16.8575 6.03511C16.8382 4.34369 16.8374 2.65152 16.8285 0.95936C16.8285 0.246482 16.5725 0 15.8638 0C13.0572 0.0172193 10.2506 0.0356685 7.44403 0.0553477C7.04466 0.0512658 6.64563 0.079153 6.25076 0.138739C2.56702 0.75937 -0.0191871 3.82858 0.000107236 7.54647L0.0468684 16.3534C0.0626997 19.3053 0.0787711 22.2571 0.0950971 25.209C0.0943425 25.471 0.106975 25.7328 0.132945 25.9935C0.347409 27.8997 1.14665 29.5247 2.55217 30.836C3.95769 32.1474 5.6452 32.9024 7.59022 32.9024C10.6447 32.9068 13.6991 32.8891 16.7543 32.8706C16.8084 32.8702 16.8615 32.8555 16.9079 32.828C16.9544 32.8004 16.9927 32.7611 17.0188 32.7139C17.0449 32.6668 17.0578 32.6136 17.0563 32.5598C17.0549 32.506 17.039 32.4536 17.0103 32.4079C16.4837 31.579 16.1338 30.6514 15.9825 29.6826C15.9447 29.4368 15.9202 29.2073 15.8957 28.9859C15.8868 28.8996 15.8772 28.8133 15.8675 28.7269C15.8548 28.6207 15.8506 28.5136 15.8549 28.4066C15.8817 27.6545 16.0123 26.9095 16.243 26.1927C16.5563 25.2319 17.0611 24.3436 17.7272 23.5811C18.664 22.5028 19.8855 21.7068 21.2536 21.283C21.5304 21.1932 21.8137 21.1246 22.1011 21.0779C22.2368 21.0565 22.374 21.0454 22.5115 21.0447C22.6533 21.0438 22.795 21.0542 22.9352 21.0757C22.9919 21.0847 23.0499 21.0814 23.1052 21.0661C23.1605 21.0508 23.2118 21.0238 23.2556 20.987C23.2994 20.9501 23.3347 20.9043 23.3591 20.8526C23.3835 20.8009 23.3963 20.7446 23.3968 20.6875C23.3931 20.5073 23.4013 20.3271 23.4213 20.148C23.5063 19.7019 23.7114 19.287 24.0149 18.9476C24.3183 18.6083 24.7087 18.3572 25.1444 18.2212C25.4114 18.1401 25.689 18.0988 25.9681 18.0987C26.0208 18.0987 26.075 18.0987 26.1284 18.0987C26.6109 18.1198 27.0908 18.1813 27.5629 18.2824C27.6343 18.2986 27.7085 18.2984 27.7798 18.2821C27.8512 18.2657 27.9179 18.2335 27.975 18.1878C28.0321 18.1422 28.0781 18.0843 28.1095 18.0185C28.1409 17.9528 28.157 17.8808 28.1566 17.8079C28.1368 15.9551 28.1207 14.1011 28.1083 12.2459ZM5.91088 13.0576C6.83775 13.0355 7.7661 13.0436 8.69149 13.0384C9.6013 13.034 10.5114 13.0296 11.4216 13.0252C12.1252 13.0252 12.6617 13.5321 12.6832 14.2162C12.6886 14.3758 12.6618 14.5347 12.6044 14.6838C12.5471 14.8329 12.4603 14.9691 12.3493 15.0843C12.2382 15.1995 12.1051 15.2915 11.9578 15.3549C11.8105 15.4182 11.6519 15.4516 11.4914 15.4531C9.63766 15.4777 7.78243 15.4873 5.92571 15.4819C5.76536 15.485 5.60603 15.4558 5.45727 15.3962C5.30851 15.3366 5.17338 15.2477 5.06001 15.1349C4.94663 15.0221 4.85735 14.8877 4.79749 14.7397C4.73763 14.5917 4.70844 14.4333 4.71166 14.2738C4.71166 13.5956 5.20366 13.0761 5.91088 13.0591V13.0576ZM15.4445 19.9348C15.2328 20.0389 15.0002 20.0944 14.764 20.0971C13.311 20.1185 11.858 20.12 10.405 20.1274C8.93491 20.1355 7.46481 20.1488 5.99472 20.1488C5.03372 20.1488 4.42743 19.1658 4.88159 18.343C5.14058 17.8729 5.57174 17.7002 6.09566 17.7002C7.49772 17.7002 8.89977 17.6972 10.3018 17.6913C11.8142 17.6854 13.3266 17.6729 14.8397 17.6699C15.1097 17.6628 15.3741 17.7463 15.5905 17.907C15.8068 18.0676 15.9625 18.2961 16.0323 18.5555C16.1755 19.1053 15.9529 19.6735 15.4445 19.9348ZM24.498 27.3676V27.389H24.5173L24.498 27.3676Z" fill="#FFB300"/>
<path d="M19.2248 3.74676C19.2208 3.00879 19.2168 2.27328 19.2129 1.54023C19.2129 1.13878 19.3806 0.860564 19.7116 0.737324C20.0618 0.607441 20.3565 0.702643 20.611 0.966835C22.7952 3.22994 24.9794 5.49058 27.1636 7.74876C27.4048 7.99819 27.4738 8.28822 27.3417 8.61071C27.2888 8.76015 27.1889 8.8887 27.0569 8.97734C26.9249 9.06598 26.7677 9.11002 26.6085 9.10293C25.206 9.10958 23.8034 9.13172 22.4016 9.10736C20.7134 9.07858 19.2567 7.58493 19.2366 5.90237C19.2292 5.18432 19.2292 4.46554 19.2248 3.74676Z" fill="#FFB300"/>
<path d="M29.2089 28.9585C29.1188 29.9266 28.7715 30.8534 28.2026 31.644C27.748 32.2781 27.1638 32.8098 26.4884 33.204C25.8293 33.5936 25.0968 33.8448 24.3363 33.942C24.0903 33.9748 23.8424 33.992 23.5942 33.9937C22.7531 33.9977 21.9216 33.8154 21.1602 33.4601C20.7985 33.2939 20.4553 33.0905 20.1361 32.8535C19.6545 32.4943 19.2354 32.059 18.8953 31.565C18.4334 30.9132 18.1276 30.165 18.0011 29.3777C17.9356 29.0373 17.9082 28.6908 17.9195 28.3445C17.9452 27.8278 18.0349 27.3162 18.1866 26.8213C18.4141 26.1193 18.7827 25.4705 19.2701 24.9144C19.961 24.1192 20.8624 23.5327 21.8718 23.2215C22.0509 23.1635 22.2339 23.1186 22.4195 23.0872C22.4527 23.0824 22.4862 23.0797 22.5197 23.0791C22.9182 23.0791 23.1987 23.4481 23.2187 23.7492C23.2692 24.4798 23.3256 25.2089 23.3783 25.9387C23.4213 26.5291 23.4688 27.1195 23.5044 27.7099C23.5319 28.1526 23.7931 28.4242 24.2206 28.422C24.2369 28.422 24.2539 28.422 24.271 28.422C24.9174 28.3873 25.5623 28.3349 26.2079 28.2906L27.7099 28.1873H27.7351C27.9236 28.1748 28.1113 28.1534 28.2991 28.1497H28.4089C28.5161 28.1462 28.6233 28.1558 28.728 28.1785C29.0709 28.2611 29.2475 28.5681 29.2089 28.9585Z" fill="#FFB300"/>
<path d="M24.498 27.3672V27.3886H24.5173L24.498 27.3672Z" fill="#222222"/>
<path d="M31.3122 25.7367C30.726 25.7824 30.139 25.8193 29.5527 25.8614L28.1583 25.961L27.3176 26.0208L26.4946 26.0762C26.4775 26.0762 26.4619 26.0762 26.4456 26.0762C26.0434 26.0762 25.8 25.8887 25.7718 25.5736C25.754 25.3758 25.7399 25.1773 25.7251 24.9832C25.6464 23.9196 25.5675 22.8562 25.4883 21.793C25.4609 21.4159 25.4305 21.038 25.4141 20.6595C25.4055 20.5519 25.4337 20.4445 25.4942 20.3549C25.5547 20.2652 25.6439 20.1986 25.7473 20.1658C25.8197 20.1449 25.8946 20.1345 25.9699 20.1348H26.0293C26.7618 20.1624 27.4835 20.3196 28.1606 20.599C28.2192 20.6226 28.2771 20.6477 28.3342 20.6728C29.4085 21.1497 30.3193 21.9284 30.9545 22.9132C31.3846 23.5804 31.6763 24.3263 31.8124 25.1072C31.8725 25.4408 31.6639 25.7057 31.3122 25.7367Z" fill="#FFB300"/>
</svg>
