<svg width="228" height="228" xmlns="http://www.w3.org/2000/svg" xmlns:xlink="http://www.w3.org/1999/xlink" overflow="hidden"><defs><clipPath id="clip0"><rect x="206" y="292" width="228" height="228"/></clipPath><clipPath id="clip1"><rect x="207" y="292" width="227" height="227"/></clipPath><clipPath id="clip2"><rect x="207" y="292" width="227" height="227"/></clipPath></defs><g clip-path="url(#clip0)" transform="translate(-206 -292)"><g clip-path="url(#clip1)"><g clip-path="url(#clip2)"><path d="M372.901 384.248 340.416 351.78 291.197 351.78 275.447 367.522 275.447 311.441 258.711 311.441 258.711 410.812 258.711 432.459 291.197 464.926 340.416 464.926 356.168 449.185 356.168 505.265 373.887 505.265 373.887 411.797 372.901 384.248ZM332.54 448.2 300.057 448.2 276.431 424.587 276.431 410.812 276.431 392.119 300.057 368.506 332.54 368.506 356.168 392.119 356.168 412.78 356.168 424.587 332.54 448.2Z" fill="#FFFFFF" fill-rule="nonzero" fill-opacity="1"/><path d="M235.092 441.311 235.092 351.778 218.358 351.778 218.358 449.183 275.453 506.248 332.546 506.248 332.546 489.522 283.327 489.522 235.092 441.311Z" fill="#66DDDD" fill-rule="nonzero" fill-opacity="1"/><path d="M300.065 310.456 300.065 327.182 349.284 327.182 397.518 375.392 397.518 464.925 414.253 464.925 414.253 367.521 357.157 310.456 300.065 310.456Z" fill="#66DDDD" fill-rule="nonzero" fill-opacity="1"/></g></g></g></svg>