<svg width="32" height="32" viewBox="0 0 32 32" fill="none" xmlns="http://www.w3.org/2000/svg">
<circle cx="16" cy="16" r="16" fill="black"/>
<path d="M14.015 9.86744L14.4837 14.4996L16.2189 9.21924L14.015 9.86744Z" fill="#C9CED6"/>
<path d="M11.1625 7L14.0146 9.86706L16.2185 9.21885L11.1625 7Z" fill="#E1E4E8"/>
<path d="M13.3913 14.1751L14.4833 14.4992L14.0146 9.86706L11.1625 7L13.3913 14.1751Z" fill="#F1F2F4"/>
<path d="M8.82939 7.48389L11.4272 16.1698L8.77454 20.7023L5 12.1709L8.82939 7.48389Z" fill="#C9CED6"/>
<path d="M18.9165 9.01929L21.4445 12.9135L16.8423 15.1673L18.9165 9.01929Z" fill="#F1F2F4"/>
<path d="M24.2872 7.6333L21.4451 12.9137L18.9171 9.01946L24.2872 7.6333Z" fill="#F7F8F9"/>
<path d="M26.9139 13.4322L21.4441 12.9137L24.2862 7.6333L26.9139 13.4322Z" fill="#E1E4E8"/>
<path d="M23.8823 17.5654C23.7726 17.371 21.4441 12.9133 21.4441 12.9133L26.9289 13.4119L23.8823 17.5654Z" fill="#C9CED6"/>
<path d="M16.8423 15.1671L23.8828 17.5654L21.4445 12.9133L16.8423 15.1671Z" fill="#E1E4E8"/>
<path d="M13.9248 16.623L17.4999 26.5306L22.1919 19.53L13.9248 16.623Z" fill="#A83C3B"/>
<path d="M14.9923 26.9999L8.77454 20.7024L11.4272 16.1699L14.9923 26.9999Z" fill="#C73C38"/>
<path d="M17.0711 19.6646L17.4999 26.5306L13.9248 16.623L17.0711 19.6646Z" fill="#F1F2F4"/>
<path d="M22.1919 19.53L17.0711 19.6646L13.9248 16.623L22.1919 19.53Z" fill="#E1E4E8"/>
<path d="M17.5006 26.5309L17.0718 19.6649L22.1926 19.5303L17.5006 26.5309Z" fill="#C9CED6"/>
<path d="M5 12.1709L11.4272 16.1698L8.82939 7.48389L5 12.1709Z" fill="#E1E4E8"/>
<path d="M11.4272 16.1699L8.77454 20.7024L13.2073 21.5749L11.4272 16.1699Z" fill="#DB4545"/>
<path d="M14.9923 26.9999L8.77454 20.7024L11.4272 16.1699L14.9923 26.9999Z" fill="#C9CED6"/>
<path d="M11.4272 16.1699L8.77454 20.7024L13.2073 21.5749L11.4272 16.1699Z" fill="#E1E4E8"/>
</svg>
