<svg width="635" height="642" xmlns="http://www.w3.org/2000/svg" xmlns:xlink="http://www.w3.org/1999/xlink" xml:space="preserve" overflow="hidden"><defs><clipPath id="clip0"><rect x="193" y="60" width="635" height="642"/></clipPath><clipPath id="clip1"><rect x="194" y="60" width="634" height="642"/></clipPath><clipPath id="clip2"><rect x="194" y="60" width="634" height="643"/></clipPath><linearGradient x1="665.721" y1="580.323" x2="119.549" y2="169.923" gradientUnits="userSpaceOnUse" spreadMethod="pad" id="fill3"><stop offset="0" stop-color="#325FAC" stop-opacity="1"/><stop offset="0.9948" stop-color="#214080" stop-opacity="1"/><stop offset="1" stop-color="#214080" stop-opacity="1"/></linearGradient></defs><g clip-path="url(#clip0)" transform="translate(-193 -60)"><g clip-path="url(#clip1)"><g clip-path="url(#clip2)"><path d="M668.705 355.127C668.705 524.426 533.192 661.67 366.028 661.67 198.863 661.67 63.3498 524.426 63.3498 355.127 63.3498 185.828 198.863 48.5846 366.028 48.5846 533.192 48.5846 668.705 185.828 668.705 355.127Z" fill="url(#fill3)" fill-rule="nonzero" transform="matrix(1.00035 0 0 1 145.063 25.9941)"/><path d="M544.336 279.543C534.616 256.492 520.722 235.787 503.033 217.998L503.087 217.944 556.987 171.234 440.679 233.697C440.679 233.697 440.671 233.697 440.671 233.697 440.671 233.697 440.671 233.697 440.671 233.697L258.745 331.39 335.232 373.48 263.366 449.967 262.564 450.792C238.271 425.397 223.321 391.014 223.321 353.206 223.321 275.23 286.879 211.788 364.994 211.788 379.852 211.788 394.177 214.087 407.638 218.337 407.638 218.337 407.638 218.337 407.638 218.337L465.118 188.329C457.511 183.777 449.581 179.735 441.35 176.241 417.482 166.112 392.133 160.974 366.02 160.974 339.899 160.974 314.558 166.112 290.69 176.241 267.64 186.022 246.95 200.016 229.184 217.844 211.418 235.672 197.463 256.431 187.719 279.558 177.621 303.511 172.507 328.937 172.507 355.143 172.507 381.348 177.629 406.774 187.719 430.727 196.799 452.258 209.52 471.736 225.574 488.708L178.154 533.134 461.507 372.978 394.262 328.829 466.637 254.911 466.691 254.857C491.423 280.33 506.674 315.021 506.674 353.214 506.674 431.19 443.116 494.632 365.002 494.632 348.894 494.632 333.412 491.932 318.97 486.964L318.963 486.964 260.997 518.254C270.386 524.348 280.291 529.624 290.69 534.037 314.558 544.166 339.907 549.304 366.02 549.304 392.133 549.304 417.482 544.166 441.35 534.037 464.4 524.255 485.09 510.262 502.856 492.434 520.622 474.606 534.577 453.847 544.32 430.72 554.418 406.767 559.533 381.34 559.533 355.135 559.548 328.922 554.426 303.496 544.336 279.543Z" fill="#FFFFFF" fill-rule="nonzero" fill-opacity="1" transform="matrix(1.00035 0 0 1 145.063 25.9941)"/></g></g></g></svg>