<svg width="1998" height="2003" xmlns="http://www.w3.org/2000/svg" xmlns:xlink="http://www.w3.org/1999/xlink" overflow="hidden"><defs><clipPath id="clip0"><rect x="797" y="279" width="1998" height="2003"/></clipPath><clipPath id="clip1"><rect x="930" y="411" width="1738" height="1737"/></clipPath><clipPath id="clip2"><rect x="930" y="411" width="1738" height="1737"/></clipPath></defs><g clip-path="url(#clip0)" transform="translate(-797 -279)"><path d="M800 1281C800 730.372 1246.6 284 1797.5 284 2348.4 284 2795 730.372 2795 1281 2795 1831.63 2348.4 2278 1797.5 2278 1246.6 2278 800 1831.63 800 1281Z" fill="#FFFFFF" fill-rule="evenodd" fill-opacity="1"/><g clip-path="url(#clip1)"><g clip-path="url(#clip2)"><path d="M2180.83 2356.15 2180.83 2403.26 2035.58 2403.26 1995.78 2403.26 1995.78 2129.81 2055.06 2129.81 2180.83 2129.81 2180.83 2176.92 2054.96 2176.92 2054.96 2239.91 2162.84 2239.91 2162.84 2285.85 2055.06 2285.85 2055.06 2356.15 2180.83 2356.15ZM1898.7 2260.55C1898.7 2233.87 1892.56 2213.44 1881.87 2198.94 1871.07 2184.43 1854.03 2178.29 1833.38 2178.29L1806.7 2178.29 1806.7 2357.63 1832.01 2357.63C1853.81 2357.63 1869.48 2350.32 1881.66 2335.82 1892.45 2321.32 1898.49 2300.67 1898.49 2274.21L1898.7 2260.55ZM1898.7 2145.58C1918.18 2156.38 1932.68 2172.26 1943.48 2191.52 1954.28 2210.69 1959.15 2233.98 1959.15 2259.28L1959.15 2271.45C1959.15 2296.76 1954.28 2319.94 1943.48 2339.21 1932.68 2358.69 1918.18 2374.35 1898.7 2385.15 1879.22 2395.95 1857.41 2401.99 1833.28 2401.99L1773.99 2401.99 1748.69 2401.99 1748.69 2129.91 1807.97 2129.91 1834.65 2129.91C1857.73 2129.81 1879.54 2134.78 1898.7 2145.58ZM1625.25 2301.84 1592.64 2201.26 1559.82 2301.84 1625.25 2301.84ZM1640.92 2348.95 1544.16 2348.95 1526.16 2403.26 1463.06 2403.26 1564.48 2128.64 1604.29 2128.64 1618.79 2128.64 1720.53 2403.47 1657.54 2403.47 1640.92 2348.95ZM1287.33 2257.06 1332.11 2257.06C1346.61 2257.06 1356.24 2253.56 1363.55 2246.26 1370.85 2238.95 1374.35 2229.42 1374.35 2217.25 1374.35 2205.08 1370.85 2195.44 1363.55 2188.24 1356.24 2180.94 1345.55 2177.44 1330.94 2177.44L1286.16 2177.44 1287.33 2257.06ZM1444.85 2400.93 1444.85 2403.26 1381.86 2403.26 1331.05 2304.17 1288.6 2304.17 1288.6 2403.47 1229.31 2403.47 1229.31 2129.81 1333.38 2129.81C1355.19 2129.81 1373.18 2133.3 1387.69 2139.44 1403.35 2145.58 1414.36 2155.11 1422.83 2167.28 1431.3 2179.46 1435.01 2195.12 1435.01 2212.06 1435.01 2231.54 1431.52 2247.21 1422.83 2259.17 1414.36 2271.35 1402.19 2280.98 1386.52 2288.18L1444.85 2400.93ZM1200.2 2177.13 1116.78 2177.13 1116.78 2403.47 1057.49 2403.47 1057.49 2177.13 975.234 2177.13 975.234 2130.02 1116.78 2130.02 1200.2 2130.02 1200.2 2177.13ZM942.416 2362.29C932.782 2376.79 920.608 2387.59 904.94 2396.27 889.271 2404.95 869.792 2408.44 847.984 2408.44 825.011 2408.44 804.367 2403.57 787.535 2392.78 770.702 2381.98 757.257 2366.1 747.729 2346.83 738.095 2327.35 734.39 2303.21 734.39 2276.53L734.39 2259.7C734.39 2233.02 739.26 2208.89 748.894 2189.41 758.527 2168.76 771.866 2154.26 788.699 2143.46 805.532 2132.66 826.176 2127.79 849.148 2127.79 872.121 2127.79 890.436 2131.29 907.269 2139.97 922.937 2148.44 936.276 2159.45 944.745 2173.95 953.214 2188.45 959.249 2205.39 960.413 2224.77L901.128 2224.77C899.964 2207.93 894.988 2195.76 887.789 2187.29 879.32 2178.82 867.145 2175.12 849.148 2175.12 831.151 2175.12 816.542 2182.42 807.861 2195.76 799.391 2209.1 794.522 2230.91 794.522 2259.91L794.522 2276.75C794.522 2296.23 796.851 2311.89 800.662 2323.86 804.155 2336.03 810.296 2345.67 817.495 2351.7 825.964 2357.84 835.492 2360.17 848.937 2360.17 865.769 2360.17 877.944 2356.68 886.413 2347.99 894.882 2340.69 899.752 2328.51 900.917 2312.85L960.201 2312.85C957.025 2330.84 950.885 2347.78 942.416 2362.29M632.653 2403.57 691.938 2403.57 691.938 2129.91 632.653 2129.91 632.653 2403.57ZM564.687 2386.42C555.054 2392.56 544.044 2397.22 529.54 2400.93 515.036 2404.42 499.262 2407.07 479.889 2407.07 455.752 2407.07 435.108 2402.2 416.899 2391.4 398.902 2380.6 385.457 2366.1 374.447 2345.45 364.813 2325.97 359.943 2301.84 359.943 2273.99L359.943 2258.33C359.943 2230.48 364.813 2206.35 374.447 2186.87 384.081 2167.39 397.42 2151.72 414.252 2140.92 431.085 2130.12 451.729 2125.25 474.702 2125.25 509.849 2125.25 535.151 2133.72 553.466 2149.39 571.463 2165.06 581.308 2188.03 584.908 2217.14L527.952 2217.14C525.623 2202.64 520.647 2191.84 513.448 2184.54 504.979 2177.23 493.969 2173.74 478.301 2173.74 460.304 2173.74 445.694 2181.04 435.849 2195.55 426.215 2210.05 421.345 2230.7 421.345 2258.54L421.345 2275.37C421.345 2303.21 426.215 2325.02 437.013 2339.52 447.812 2354.03 463.692 2361.33 484.124 2361.33 504.767 2361.33 519.271 2356.46 527.74 2347.99L527.74 2303.21 478.089 2303.21 478.089 2260.76 587.025 2260.76 587.025 2370.86C580.461 2375.62 574.533 2381.77 564.687 2386.42" fill="#001469" fill-rule="evenodd" fill-opacity="1" transform="matrix(1.00013 0 0 1 523.662 93.7984)"/><path d="M1270.39 1596.03C1439.03 1596.03 1585.44 1502.13 1659.02 1364.29 1657.64 1364.18 1550.19 1352.86 1412.67 1418.18 1406.21 1421.67 1399.76 1424.85 1393.09 1427.92L1392.87 1428.02C1354.23 1447.61 1313.58 1454.17 1270.49 1454.17 1107.14 1454.17 974.705 1323.11 974.705 1161.56 974.705 1000.01 1107.14 868.945 1270.49 868.945 1313.58 868.945 1354.34 875.403 1392.87 895.094 1392.87 895.094 1406.32 901.552 1412.67 904.94 1550.4 970.259 1657.64 958.931 1659.02 958.825 1585.44 820.67 1439.03 726.662 1270.49 726.662 1027.85 726.662 831.151 921.243 831.151 1161.13 831.151 1401.56 1027.85 1596.03 1270.39 1596.03Z" fill="#FF6600" fill-rule="evenodd" fill-opacity="1" transform="matrix(1.00013 0 0 1 523.662 93.7984)"/><path d="M1857.84 1114.13 1475.66 1113.92C1464.86 1067.34 1438.4 1026.69 1402.4 997.572 1366.3 968.565 1320.57 951.203 1270.6 951.203 1154.25 951.203 1060.03 1045.42 1060.03 1161.56 1060.03 1277.9 1154.25 1372.12 1270.6 1372.12 1370.32 1372.12 1453.85 1302.68 1475.56 1209.41L1808.19 1209.41 1807.97 1212.06C1795.16 1347.35 1731.01 1467.72 1634.88 1554.32 1538.86 1641.02 1410.98 1693.96 1270.6 1693.96 972.588 1693.96 730.896 1455.65 730.896 1161.56 730.896 867.463 972.694 629.16 1270.6 629.16 1493.02 629.16 1684 761.809 1766.58 951.203 1821.74 943.475 1834.76 912.562 1834.44 888.53 1834.33 870.216 1824.81 854.865 1823.11 851.795 1769.33 758.633 1692.05 680.504 1599.31 624.925 1537.06 587.554 1467.51 560.77 1393.62 546.478L1393.62 359.943 1311.36 359.943 1311.36 536.104C1297.91 535.257 1284.15 534.727 1270.6 534.727 1257.05 534.727 1243.29 535.151 1229.84 536.104L1229.84 359.943 1147.58 359.943 1147.58 546.478C855.606 602.905 635.3 856.877 635.3 1161.35 635.3 1466.03 855.5 1719.79 1147.58 1776.21L1147.58 1962.33 1229.74 1962.33 1229.74 1786.69C1243.18 1787.54 1256.94 1788.07 1270.49 1788.07 1284.04 1788.07 1297.81 1787.65 1311.25 1786.69L1311.25 1962.33 1393.51 1962.33 1393.51 1776.21C1679.56 1720.74 1896.79 1476.08 1905.48 1179.66 1907.38 1134.77 1892.24 1114.13 1857.84 1114.13ZM1270.49 1314.75C1185.8 1314.75 1117.2 1246.14 1117.2 1161.45 1117.2 1076.87 1185.8 1008.26 1270.49 1008.26 1355.08 1008.26 1423.68 1076.87 1423.68 1161.45 1423.68 1246.25 1355.08 1314.75 1270.49 1314.75Z" fill="#001469" fill-rule="evenodd" fill-opacity="1" transform="matrix(1.00013 0 0 1 523.662 93.7984)"/></g></g></g></svg>