<svg width="69" height="69" viewBox="0 0 69 69" fill="none" xmlns="http://www.w3.org/2000/svg">
<rect width="69" height="69" rx="34.5" fill="#02051F"/>
<path fill-rule="evenodd" clip-rule="evenodd" d="M39.4479 19.803C38.7483 19.8201 38.0521 19.9063 37.3692 20.0606C40.2034 20.4882 43.2493 20.804 46.2952 22.5436C57.1653 28.7583 53.7873 49.2685 40.3044 49.2685C33.9287 49.2685 28.9821 49.2054 28.9821 49.2054C16.938 49.5892 12.1886 31.5134 20.7875 23.4959C21.2988 23.1106 21.8412 22.7693 22.4091 22.4755C21.2638 22.4221 18.9204 23.8458 18.9204 23.8458C18.9204 23.8458 20.0079 22.3443 19.9309 21.3482C19.854 20.3521 19.7818 19.3657 20.1282 18.6612C18.3334 20.9498 17.5346 24.2054 17.1497 27.5047C16.3605 26.8439 14.3059 29.3609 14.3299 33.5202C14.354 37.6796 16.067 38.5008 16.7359 39.0499C17.1834 39.4289 17.5298 40.804 17.7752 42.3443H17.8233C18.0107 42.998 18.1221 43.6715 18.1554 44.3511C18.1554 44.7885 18.1554 45.2792 18.1265 45.77H18.0495C17.9581 46.6495 17.6742 47.116 17.5443 48.0441C18.6077 48.4425 20.1234 48.8604 21.2783 48.6271L22.7651 48.3259C22.7651 48.3259 24.4926 49.5261 23.7756 51.4503C23.2944 52.7574 21.2446 52.7622 19.9791 52.631C20.0221 52.6879 20.0607 52.748 20.0945 52.8108C20.4169 53.4668 27.245 57.184 34.8333 56.9702C39.9292 56.7921 44.8965 55.309 49.269 52.6602C48.0034 52.7525 46.2567 52.6602 45.814 51.4503C45.1019 49.5066 46.8293 48.3259 46.8293 48.3259L48.3162 48.6271C49.346 48.8312 50.6548 48.5251 51.6845 48.1752C51.6557 47.6893 51.6027 46.7175 51.569 45.7457C51.569 45.2598 51.545 44.7739 51.545 44.3268C51.5787 43.6476 51.6885 42.9744 51.8722 42.32C52.2908 40.6874 52.95 38.9624 52.95 38.9624C53.6045 38.5251 55.5533 36.392 54.9566 31.8487C54.3599 27.3055 52.031 27.4755 52.031 27.4755C51.9059 24.2637 50.2217 20.9303 48.0467 18.3502L48.0227 18.3162L47.7773 18.0392C45.9498 16.0673 43.7788 14.4515 41.3727 13.2724C41.1417 14.5552 41.7095 15.0897 41.0647 16.8439C40.2996 18.9235 38.7069 18.6757 41.3438 18.1752C41.4978 18.1461 40.7086 19.6816 39.4479 19.803ZM23.3378 48.4036H23.4051C24.2568 48.4036 24.9449 49.4386 24.9449 50.7068C24.9449 51.9751 24.2568 52.9906 23.4051 52.9906H23.3378C24.0066 52.9371 24.5407 51.9265 24.5407 50.6874C24.5407 49.4483 24.0066 48.4376 23.3378 48.389V48.4036ZM46.3337 48.4036C45.6649 48.4522 45.1356 49.4629 45.1356 50.702C45.1356 51.941 45.6649 52.9517 46.3337 53.0052H46.2664C45.4195 53.0052 44.7266 51.9751 44.7266 50.702C44.7266 49.4289 45.4195 48.3988 46.2664 48.3988L46.3337 48.4036Z" fill="#FDFDFD"/>
<path fill-rule="evenodd" clip-rule="evenodd" d="M19.6086 52.461C19.3632 52.4221 19.2092 52.3881 19.2092 52.3881C19.2092 52.3881 15.172 51.8293 13.9594 49.9974C12.7468 48.1655 12.4485 45.459 14.4647 43.7778C15.9082 42.5824 17.0246 42.4707 17.5587 42.4998C17.7461 43.1552 17.8575 43.8302 17.8907 44.5115C17.8907 44.9488 17.8907 45.4396 17.8618 45.9304C17.6646 45.9935 16.6829 46.3288 16.6348 46.8341C16.5867 47.3395 16.5338 48.0052 17.3422 48.3648L17.7367 48.53C18.6414 48.8895 20.0946 49.3463 21.1772 49.1276L22.4379 48.875C22.4379 48.875 23.8815 49.8954 23.2993 51.5232C22.8181 52.8108 20.5421 52.6067 19.6086 52.461Z" fill="#FDFDFD"/>
<path fill-rule="evenodd" clip-rule="evenodd" d="M28.0342 22.427C30.5588 22.0448 33.1081 21.8532 35.661 21.8536C38.7598 21.9702 42.3976 22.0528 46.0402 24.4678C54.0664 29.8128 51.9829 47.7282 39.7848 47.7282C34.1164 47.7282 29.7183 47.6699 29.7183 47.6699C19.0744 48.0489 14.7101 32.0237 22.4187 24.8322C24.0967 23.6258 26.0117 22.7973 28.0342 22.4027V22.427ZM40.0398 48.3745C52.849 48.3745 55.0336 29.5504 46.608 23.9527C42.8162 21.4066 38.9667 21.3288 35.7091 21.2073C32.4515 21.0859 27.7021 21.8099 27.7021 21.8099C25.5818 22.2114 23.5717 23.0681 21.8076 24.322C13.714 31.8682 18.2949 48.6903 29.4729 48.2967C29.4729 48.3162 34.0875 48.3745 40.0398 48.3745Z" fill="#FDFDFD"/>
<path fill-rule="evenodd" clip-rule="evenodd" d="M28.3806 23.0003C30.7875 22.637 33.2178 22.4551 35.6514 22.4561C38.6011 22.563 42.0849 22.6456 45.5398 24.944C53.1859 30.0266 51.2082 47.1111 39.5779 47.1111C34.179 47.1111 29.9926 47.0528 29.9926 47.0528C19.8636 47.4172 15.7061 32.1451 23.0539 25.2938C24.6478 24.1556 26.4638 23.3737 28.3806 23.0003Z" fill="url(#paint0_linear)"/>
<path fill-rule="evenodd" clip-rule="evenodd" d="M30.9262 28.564C30.9862 28.564 31.0448 28.5819 31.0946 28.6156C31.1445 28.6492 31.1833 28.697 31.2063 28.7529C31.2292 28.8089 31.2352 28.8704 31.2235 28.9298C31.2118 28.9892 31.183 29.0437 31.1406 29.0865C31.0982 29.1294 31.0441 29.1585 30.9853 29.1703C30.9265 29.1821 30.8656 29.1761 30.8102 29.1529C30.7548 29.1297 30.7074 29.0905 30.6741 29.0402C30.6408 28.9898 30.623 28.9306 30.623 28.8701C30.623 28.8299 30.6309 28.7901 30.6461 28.7529C30.6614 28.7158 30.6837 28.6821 30.7118 28.6536C30.74 28.6252 30.7734 28.6027 30.8102 28.5873C30.847 28.5719 30.8864 28.564 30.9262 28.564Z" fill="#FDFDFD"/>
<path fill-rule="evenodd" clip-rule="evenodd" d="M34.0058 25.3521C34.0857 25.3521 34.1638 25.3761 34.2303 25.4209C34.2968 25.4658 34.3486 25.5295 34.3792 25.6041C34.4098 25.6787 34.4178 25.7607 34.4022 25.8399C34.3866 25.9191 34.3481 25.9918 34.2916 26.0489C34.235 26.106 34.163 26.1448 34.0846 26.1606C34.0062 26.1763 33.9249 26.1683 33.8511 26.1374C33.7772 26.1065 33.7141 26.0542 33.6697 25.987C33.6253 25.9199 33.6016 25.841 33.6016 25.7603C33.6016 25.652 33.6441 25.5482 33.7199 25.4717C33.7957 25.3951 33.8986 25.3521 34.0058 25.3521Z" fill="#FDFDFD"/>
<path fill-rule="evenodd" clip-rule="evenodd" d="M36.1759 34.0402C36.219 34.0402 36.261 34.0531 36.2967 34.0774C36.3324 34.1016 36.3602 34.1361 36.3764 34.1763C36.3927 34.2165 36.3967 34.2607 36.3879 34.3033C36.3791 34.3458 36.358 34.3848 36.3273 34.4152C36.2965 34.4455 36.2575 34.466 36.2152 34.4738C36.1728 34.4817 36.1292 34.4767 36.0897 34.4594C36.0502 34.4421 36.0167 34.4133 35.9935 34.3767C35.9703 34.3401 35.9584 34.2974 35.9594 34.254C35.9594 34.2255 35.965 34.1973 35.976 34.171C35.9869 34.1447 36.0029 34.1209 36.0231 34.101C36.0433 34.0811 36.0672 34.0655 36.0934 34.055C36.1197 34.0446 36.1477 34.0395 36.1759 34.0402Z" fill="#FDFDFD"/>
<path fill-rule="evenodd" clip-rule="evenodd" d="M29.8916 37.0965C29.9954 37.0978 30.0945 37.1403 30.1675 37.2149C30.2405 37.2895 30.2814 37.3901 30.2813 37.4949C30.2813 37.5993 30.2403 37.6994 30.1672 37.7732C30.0941 37.8471 29.995 37.8885 29.8916 37.8885C29.7882 37.8885 29.6891 37.8471 29.616 37.7732C29.5429 37.6994 29.5018 37.5993 29.5018 37.4949C29.5018 37.3901 29.5427 37.2895 29.6157 37.2149C29.6886 37.1403 29.7878 37.0978 29.8916 37.0965Z" fill="#FDFDFD"/>
<path fill-rule="evenodd" clip-rule="evenodd" d="M28.833 32.3298C28.8675 32.3298 28.9005 32.3436 28.9249 32.3682C28.9493 32.3928 28.963 32.4262 28.963 32.461C28.963 32.4958 28.9493 32.5291 28.9249 32.5537C28.9005 32.5783 28.8675 32.5922 28.833 32.5922C28.7986 32.5922 28.7655 32.5783 28.7412 32.5537C28.7168 32.5291 28.7031 32.4958 28.7031 32.461C28.7031 32.4262 28.7168 32.3928 28.7412 32.3682C28.7655 32.3436 28.7986 32.3298 28.833 32.3298Z" fill="#FDFDFD"/>
<path fill-rule="evenodd" clip-rule="evenodd" d="M37.042 29.7545C37.0765 29.7545 37.1095 29.7683 37.1339 29.7929C37.1583 29.8175 37.172 29.8509 37.172 29.8857C37.172 29.9204 37.1583 29.9538 37.1339 29.9784C37.1095 30.003 37.0765 30.0168 37.042 30.0168C37.0076 30.0168 36.9745 30.003 36.9502 29.9784C36.9258 29.9538 36.9121 29.9204 36.9121 29.8857C36.9121 29.8509 36.9258 29.8175 36.9502 29.7929C36.9745 29.7683 37.0076 29.7545 37.042 29.7545Z" fill="#FDFDFD"/>
<path fill-rule="evenodd" clip-rule="evenodd" d="M35.7332 40.357C35.8065 40.357 35.8781 40.3789 35.939 40.4201C36 40.4612 36.0475 40.5196 36.0755 40.588C36.1035 40.6563 36.1109 40.7316 36.0966 40.8041C36.0823 40.8767 36.047 40.9434 35.9952 40.9957C35.9434 41.048 35.8773 41.0837 35.8055 41.0981C35.7336 41.1125 35.6591 41.1051 35.5914 41.0768C35.5237 41.0485 35.4658 41.0005 35.4251 40.939C35.3844 40.8775 35.3627 40.8051 35.3627 40.7311C35.3627 40.682 35.3723 40.6334 35.3909 40.588C35.4095 40.5426 35.4368 40.5013 35.4712 40.4666C35.5056 40.4318 35.5464 40.4043 35.5914 40.3855C35.6364 40.3667 35.6845 40.357 35.7332 40.357Z" fill="#FDFDFD"/>
<path fill-rule="evenodd" clip-rule="evenodd" d="M31.8259 41.4163C31.8744 41.4163 31.9209 41.4357 31.9552 41.4703C31.9895 41.505 32.0088 41.5519 32.0088 41.6009C32.0088 41.6499 31.9895 41.6968 31.9552 41.7315C31.9209 41.7661 31.8744 41.7856 31.8259 41.7856C31.7774 41.7856 31.7309 41.7661 31.6966 41.7315C31.6623 41.6968 31.6431 41.6499 31.6431 41.6009C31.6431 41.5519 31.6623 41.505 31.6966 41.4703C31.7309 41.4357 31.7774 41.4163 31.8259 41.4163Z" fill="#FDFDFD"/>
<path fill-rule="evenodd" clip-rule="evenodd" d="M35.8583 44.5844C35.8992 44.5844 35.9383 44.6008 35.9672 44.63C35.9961 44.6591 36.0123 44.6987 36.0123 44.7399C36.0123 44.7811 35.9961 44.8207 35.9672 44.8499C35.9383 44.879 35.8992 44.8954 35.8583 44.8954C35.8179 44.8942 35.7794 44.8774 35.7508 44.8485C35.7222 44.8196 35.7056 44.7808 35.7043 44.7399C35.7043 44.6987 35.7206 44.6591 35.7494 44.63C35.7783 44.6008 35.8175 44.5844 35.8583 44.5844Z" fill="#FDFDFD"/>
<path fill-rule="evenodd" clip-rule="evenodd" d="M47.58 38.7778C47.6208 38.7778 47.66 38.7942 47.6889 38.8233C47.7178 38.8525 47.734 38.892 47.734 38.9333C47.734 38.9745 47.7178 39.014 47.6889 39.0432C47.66 39.0724 47.6208 39.0888 47.58 39.0888C47.5392 39.0888 47.5 39.0724 47.4711 39.0432C47.4423 39.014 47.426 38.9745 47.426 38.9333C47.426 38.892 47.4423 38.8525 47.4711 38.8233C47.5 38.7942 47.5392 38.7778 47.58 38.7778Z" fill="#FDFDFD"/>
<path d="M47.758 33.1947C47.968 33.1947 48.1382 33.0228 48.1382 32.8108C48.1382 32.5988 47.968 32.4269 47.758 32.4269C47.5481 32.4269 47.3779 32.5988 47.3779 32.8108C47.3779 33.0228 47.5481 33.1947 47.758 33.1947Z" fill="#FDFDFD"/>
<path fill-rule="evenodd" clip-rule="evenodd" d="M22.1926 38.219C22.268 38.218 22.3419 38.2397 22.4051 38.2813C22.4682 38.3229 22.5177 38.3825 22.5472 38.4525C22.5767 38.5226 22.5849 38.5999 22.5708 38.6747C22.5567 38.7495 22.5209 38.8183 22.4679 38.8725C22.4149 38.9267 22.3472 38.9637 22.2733 38.9789C22.1995 38.9941 22.1228 38.9868 22.0531 38.9579C21.9833 38.929 21.9237 38.8798 21.8817 38.8166C21.8397 38.7534 21.8173 38.679 21.8173 38.6028C21.8173 38.5019 21.8566 38.405 21.9269 38.3331C21.9971 38.2612 22.0926 38.2202 22.1926 38.219Z" fill="#FDFDFD"/>
<path fill-rule="evenodd" clip-rule="evenodd" d="M20.6432 34.0401C20.6884 34.0474 20.7296 34.0708 20.7593 34.1059C20.789 34.1411 20.8054 34.1858 20.8054 34.2321C20.8054 34.2783 20.789 34.323 20.7593 34.3582C20.7296 34.3934 20.6884 34.4167 20.6432 34.424C20.6157 34.4284 20.5876 34.4268 20.5608 34.4192C20.534 34.4116 20.5092 34.3982 20.488 34.38C20.4668 34.3617 20.4498 34.339 20.4381 34.3135C20.4264 34.288 20.4204 34.2602 20.4204 34.2321C20.4204 34.204 20.4264 34.1762 20.4381 34.1507C20.4498 34.1251 20.4668 34.1025 20.488 34.0842C20.5092 34.066 20.534 34.0526 20.5608 34.045C20.5876 34.0374 20.6157 34.0357 20.6432 34.0401Z" fill="#FDFDFD"/>
<path fill-rule="evenodd" clip-rule="evenodd" d="M22.5053 32.461C22.5736 32.4619 22.6401 32.4833 22.6965 32.5223C22.7528 32.5613 22.7965 32.6163 22.8219 32.6803C22.8474 32.7443 22.8536 32.8145 22.8397 32.882C22.8258 32.9495 22.7924 33.0114 22.7438 33.0599C22.6952 33.1083 22.6334 33.1412 22.5663 33.1543C22.4993 33.1674 22.4299 33.1602 22.3668 33.1336C22.3038 33.1069 22.25 33.0621 22.2121 33.0047C22.1743 32.9473 22.1541 32.8798 22.1541 32.8108C22.154 32.7645 22.1632 32.7186 22.1809 32.6758C22.1986 32.633 22.2245 32.5943 22.2572 32.5617C22.2899 32.5292 22.3287 32.5035 22.3713 32.4862C22.4139 32.4689 22.4594 32.4603 22.5053 32.461Z" fill="#FDFDFD"/>
<path fill-rule="evenodd" clip-rule="evenodd" d="M26.0324 44.8808C24.8006 39.7933 24.0548 31.1928 23.6746 25.5125C23.6746 25.425 23.6746 25.3327 23.6746 25.2452L23.5158 25.3619L23.357 25.5125C23.1838 25.6826 23.0202 25.8526 22.8759 26.0276C23.256 31.494 23.9537 39.3414 25.0749 44.322C25.382 44.5287 25.7018 44.7153 26.0324 44.8808Z" fill="#FDFDFD"/>
<path fill-rule="evenodd" clip-rule="evenodd" d="M24.5696 25.5125C24.9642 31.3434 25.7389 40.2501 27.0285 45.2744C27.6439 45.4741 28.2801 45.6013 28.9244 45.6534C27.5722 40.7117 26.7686 31.494 26.3645 25.5125C26.326 24.9342 26.2923 24.39 26.2586 23.8798C25.6631 24.1092 25.0856 24.3837 24.5311 24.701C24.5311 24.9634 24.5311 25.2355 24.5696 25.5125Z" fill="#FDFDFD"/>
<path fill-rule="evenodd" clip-rule="evenodd" d="M38.1488 25.5125C38.2306 31.5232 38.1776 40.7263 37.2345 45.7263H38.9668C40.1809 45.7358 41.3858 45.5132 42.5179 45.0703C43.3504 39.9488 43.3985 31.2608 43.3167 25.5076C43.3167 25.0897 43.3167 24.6864 43.3167 24.3026C41.6968 23.4882 39.9379 22.9934 38.1343 22.8448C38.1151 23.6417 38.1343 24.5358 38.1488 25.5125Z" fill="#FDFDFD"/>
<path fill-rule="evenodd" clip-rule="evenodd" d="M44.5101 25.5125C44.5871 31.0275 44.5486 39.2345 43.8124 44.4143C44.4266 44.0376 44.9923 43.5855 45.4965 43.0683C46.0355 38.1752 46.0932 31.3531 46.0355 26.3482C45.7667 26.0476 45.4755 25.7682 45.1645 25.5125C44.9562 25.3396 44.7394 25.1774 44.5149 25.0266C44.5053 25.182 44.5101 25.3472 44.5101 25.5125Z" fill="#FDFDFD"/>
<path d="M20.7875 23.496C26.3818 20.3212 32.8909 19.1968 39.2122 20.3133" stroke="#FDFDFD" stroke-width="0.02" stroke-miterlimit="2.61"/>
<path fill-rule="evenodd" clip-rule="evenodd" d="M20.7876 23.496C25.8789 20.6037 31.7422 19.4018 37.5473 20.0606C38.219 19.9639 38.8952 19.9023 39.5731 19.8759C40.7713 19.7642 41.7289 18.0003 41.5749 18.0295C38.938 18.5154 40.319 18.9236 41.0937 16.8439C41.7096 15.1723 41.2717 14.4483 41.4257 13.287C39.1123 12.3006 36.6033 11.8714 34.0972 12.0334C28.3566 12.3249 22.9337 14.7302 19.7578 19.1811C19.7645 19.9071 19.8256 20.6316 19.9407 21.3482C20.0032 22.1694 18.9302 23.8458 18.9302 23.8458C18.9302 23.8458 21.2736 22.4221 22.4188 22.4755C21.8476 22.7688 21.302 23.1102 20.7876 23.496Z" fill="#D1D2D4"/>
<path fill-rule="evenodd" clip-rule="evenodd" d="M50.063 52.461C50.3132 52.4221 50.4624 52.3881 50.4624 52.3881C50.4624 52.3881 54.4996 51.8293 55.7122 49.9974C56.9248 48.1656 57.252 45.4591 55.2069 43.7584C53.7634 42.563 52.647 42.4513 52.1129 42.4804C51.9291 43.1364 51.8194 43.8112 51.7857 44.4921C51.7857 44.9294 51.7857 45.4202 51.8097 45.9109C52.007 45.9741 52.9934 46.3094 53.0368 46.8147C53.0801 47.3201 53.1378 47.9858 52.3294 48.3454L51.9348 48.5106C51.035 48.8701 49.577 49.3269 48.4943 49.1082L47.2336 48.8556C47.2336 48.8556 45.7901 49.876 46.3771 51.5038C46.8535 52.8109 49.1295 52.6068 50.063 52.461Z" fill="#FDFDFD"/>
<defs>
<linearGradient id="paint0_linear" x1="43.514" y1="30.3035" x2="25.1458" y2="39.9703" gradientUnits="userSpaceOnUse">
<stop stop-color="#19B2C0"/>
<stop offset="0.44" stop-color="#757BAE"/>
<stop offset="1" stop-color="#BF75AE"/>
</linearGradient>
</defs>
</svg>
