<svg width="80" height="80" viewBox="0 0 80 80" fill="none" xmlns="http://www.w3.org/2000/svg">
    <g clip-path="url(#clip0_5704_16208)">
        <path
            d="M80 58.5C80 70.3711 70.3711 80 58.5 80C57.8857 80 57.2714 79.9693 56.6572 79.9232C45.6461 78.9864 37 69.7568 37 58.5C37 46.6289 46.6289 37 58.5 37C61.1107 37 63.5986 37.4607 65.9175 38.3054C74.1336 41.3307 80 49.2243 80 58.5Z"
            fill="#333333" />
        <path
            d="M69.9096 48.5481L68.1742 48.6249L68.0514 45.2002C68.0361 44.847 68.3125 44.5552 68.6657 44.5399L69.1111 44.5245C69.4642 44.5092 69.7561 44.7856 69.7714 45.1388L69.9096 48.5481Z"
            fill="url(#paint0_linear_5704_16208)" />
        <path
            d="M69.9095 48.5485L69.0495 48.5793L68.896 44.5096L69.1263 44.4943C69.4795 44.4789 69.7713 44.7553 69.7867 45.1085L69.9095 48.5485Z"
            fill="url(#paint1_linear_5704_16208)" />
        <path
            d="M71.4916 49.9462C71.6451 51.574 71.5683 53.2479 71.2458 54.9373C69.403 64.4279 60.2194 70.6323 50.7287 68.7894C49.0394 68.4669 47.4576 67.8987 45.9986 67.1462C45.8911 67.0848 44.9391 66.4858 44.3555 65.6258C44.0637 65.1958 43.8487 64.7044 43.8794 64.1823C43.8794 64.1823 43.8794 64.1823 43.8794 64.1669C43.8794 64.1054 43.8947 64.044 43.9101 63.9979C43.9255 63.9365 43.9408 63.8904 43.9715 63.8444C44.1866 63.4451 44.7241 63.1994 45.4151 63.0458C46.9201 62.7079 49.1161 62.8154 50.0376 62.7694H50.053C50.2833 62.7694 50.4983 62.754 50.7287 62.7387C50.7441 62.7387 50.7594 62.7387 50.7594 62.7387C51.0051 62.7233 51.2508 62.7079 51.4966 62.6773C51.5733 62.6773 51.6501 62.6619 51.7116 62.6619C51.773 62.6465 51.8344 62.6465 51.9111 62.6312C51.9726 62.6312 52.0341 62.6158 52.0955 62.6004C52.1876 62.5851 52.2644 62.5851 52.3566 62.5698C52.5255 62.539 52.6944 62.5237 52.848 62.4929C52.9401 62.4776 53.0322 62.4623 53.1397 62.4315C53.4008 62.3854 53.6619 62.324 53.9076 62.2626C53.9844 62.2473 54.0611 62.2319 54.1533 62.2012C54.2301 62.1858 54.3069 62.1551 54.3991 62.1398C54.6294 62.0783 54.8751 62.0015 55.1055 61.9248C55.1208 61.9248 55.1362 61.9094 55.1516 61.9094L55.213 61.894C55.5508 61.7865 55.8887 61.6637 56.2266 61.5254C56.5337 61.4026 56.8562 61.2644 57.1633 61.1262C57.2094 61.1108 57.2401 61.0954 57.2862 61.0648L57.3322 61.0494C57.5319 60.9573 57.7316 60.8498 57.9312 60.7423C57.9466 60.7269 57.9772 60.7269 57.9926 60.7115C58.0233 60.6962 58.0387 60.6808 58.0694 60.6654C58.6376 60.3583 59.1751 60.0358 59.7126 59.6673C59.8201 59.6058 59.9122 59.529 60.0197 59.4523C60.1119 59.3908 60.2041 59.314 60.3116 59.2373C60.3269 59.2219 60.3422 59.2065 60.3576 59.2065C60.4037 59.1604 60.4651 59.1298 60.5112 59.0837C60.6647 58.9608 60.8183 58.8379 60.9719 58.7151C61.0487 58.6537 61.1255 58.5923 61.2022 58.5308C61.3097 58.4387 61.4326 58.3312 61.5401 58.2237C61.5862 58.1776 61.6322 58.1469 61.663 58.1008C61.8166 57.9626 61.9701 57.8244 62.1083 57.6708C62.7533 57.0258 63.3676 56.3348 63.9051 55.5823C63.9205 55.5669 63.9205 55.5515 63.9358 55.5362C64.1508 55.2598 64.3505 54.9679 64.5347 54.6608C64.6269 54.5226 64.7191 54.3844 64.7958 54.2462C64.8572 54.1387 64.9341 54.0158 64.9955 53.9083C65.0108 53.8929 65.0262 53.8623 65.0262 53.8469C65.1644 53.6012 65.3026 53.3401 65.4255 53.079C66.1319 51.6815 66.6541 50.1612 66.9612 48.564C66.9919 48.3951 67.0226 48.2262 67.0533 48.0573C67.0533 48.0573 67.0687 48.0112 67.0994 47.9344C67.1147 47.9037 67.1147 47.8883 67.1301 47.8576C67.1301 47.8423 67.1455 47.8269 67.1455 47.8115C67.1455 47.7962 67.1608 47.7808 67.1608 47.7654C67.2991 47.4737 67.5755 47.0744 68.0669 46.8133C68.4201 46.629 68.8808 46.5215 69.4797 46.6137C70.048 46.7058 70.4626 47.0744 70.7697 47.5504C71.2305 48.2876 71.4147 49.3165 71.4916 49.9462Z"
            fill="url(#paint2_linear_5704_16208)" />
        <path
            d="M69.4797 46.5981C69.4797 46.6134 69.4797 46.6134 69.4797 46.6288C69.664 48.1798 69.6487 49.777 69.3876 51.3895C69.3569 51.6045 69.3108 51.8195 69.2801 52.0345C67.4372 61.5252 58.2537 67.7295 48.763 65.8867C47.3501 65.6102 46.0294 65.1802 44.7701 64.612C44.5858 64.5198 44.4015 64.4431 44.2172 64.3509C44.1098 64.2895 43.9869 64.2281 43.8794 64.182C43.8794 64.1206 43.8948 64.0592 43.9101 64.0131C43.9255 63.9517 43.9408 63.9056 43.9715 63.8595C44.1865 63.4602 44.724 63.2145 45.4151 63.0609C46.9201 62.7231 49.1162 62.8306 50.0376 62.7845H50.053C50.2833 62.7845 50.4983 62.7692 50.7287 62.7538C50.744 62.7538 50.7594 62.7538 50.7594 62.7538C51.0051 62.7384 51.2508 62.7231 51.4965 62.6923C51.5119 62.6923 51.5426 62.6923 51.558 62.6923C51.604 62.6923 51.6655 62.677 51.7115 62.677C51.773 62.6617 51.8344 62.6617 51.9112 62.6463C51.988 62.6309 52.034 62.6309 52.0955 62.6156C52.1876 62.6002 52.2644 62.6002 52.3565 62.5848C52.5255 62.5542 52.6944 62.5234 52.848 62.5081C52.9401 62.4927 53.0322 62.4773 53.1397 62.4467C53.3087 62.4159 53.4622 62.3852 53.6158 62.3392C53.708 62.3238 53.8001 62.2931 53.9076 62.2777C53.9844 62.2623 54.0612 62.2317 54.1533 62.2163C54.2301 62.2009 54.3069 62.1702 54.399 62.1548C54.6294 62.0934 54.8751 62.0167 55.1055 61.9398C55.1208 61.9398 55.1362 61.9245 55.1515 61.9245L55.213 61.9092C55.2744 61.8938 55.3358 61.8631 55.3972 61.8477C55.6737 61.7556 55.9501 61.6481 56.2265 61.5406C56.503 61.4331 56.764 61.3102 57.0405 61.1873C57.0865 61.172 57.1172 61.1567 57.1633 61.1259C57.2094 61.1106 57.2401 61.0952 57.2862 61.0645L57.3322 61.0492C57.4551 60.9877 57.578 60.9263 57.7008 60.8648C57.7776 60.8188 57.8544 60.7881 57.9312 60.7573C57.9465 60.742 57.9772 60.742 57.9926 60.7267C58.0233 60.7113 58.0387 60.6959 58.0694 60.6806C58.1769 60.6192 58.2844 60.5577 58.3919 60.4963C58.4687 60.4502 58.5455 60.4042 58.6222 60.3581C58.653 60.3427 58.699 60.312 58.7297 60.2967C58.8372 60.2352 58.9447 60.1584 59.0522 60.097C59.1597 60.0356 59.2519 59.9742 59.344 59.8973C59.4669 59.8206 59.5744 59.7438 59.6972 59.667C59.8047 59.5902 59.8969 59.5288 60.0044 59.452C60.0965 59.3752 60.1887 59.3138 60.2962 59.237C60.3115 59.2217 60.3269 59.2063 60.3422 59.2063C60.3883 59.1602 60.4497 59.1295 60.4958 59.0834C60.6494 58.9606 60.803 58.8377 60.9565 58.7148C61.0333 58.6534 61.1101 58.592 61.1869 58.5306C61.2944 58.4384 61.4172 58.3309 61.5247 58.2234C61.5708 58.1773 61.6169 58.1467 61.6476 58.1006C61.6937 58.0545 61.7397 58.0238 61.7705 57.9777C61.878 57.8702 61.9855 57.7781 62.093 57.6706C62.1851 57.5784 62.2619 57.5017 62.354 57.4095C62.4615 57.302 62.5537 57.2098 62.6458 57.1023C62.6919 57.0563 62.738 56.9948 62.7994 56.9334C62.8301 56.8873 62.8762 56.8413 62.9069 56.8106C62.999 56.7184 63.0758 56.6109 63.168 56.5188C63.2601 56.4113 63.3369 56.3192 63.429 56.2117C63.4905 56.1348 63.5672 56.0427 63.6287 55.9659C63.7208 55.8431 63.813 55.7202 63.9051 55.5973C63.9205 55.582 63.9205 55.5667 63.9358 55.5513C64.028 55.4284 64.1047 55.3209 64.1815 55.1981C64.2276 55.1213 64.289 55.0445 64.3351 54.9677C64.3965 54.8756 64.458 54.7681 64.5347 54.6759C64.5962 54.5838 64.6422 54.507 64.7037 54.4148C64.7344 54.3688 64.7651 54.3073 64.7958 54.2613C64.8572 54.1538 64.934 54.0309 64.9955 53.9234C65.0108 53.9081 65.0262 53.8773 65.0262 53.862C65.0722 53.7698 65.1337 53.6777 65.1797 53.5702C65.2258 53.4934 65.2565 53.4167 65.3026 53.3398C65.3487 53.2631 65.3794 53.1863 65.4255 53.0942C65.4869 52.9867 65.533 52.8638 65.5944 52.7409C65.6251 52.6795 65.6558 52.6181 65.6865 52.5567C65.7633 52.4031 65.8247 52.2495 65.8862 52.0959C65.9322 51.9884 65.9783 51.8963 66.009 51.7888C66.0705 51.6352 66.1319 51.4817 66.1933 51.3281C66.224 51.2206 66.2701 51.1131 66.3008 51.0056C66.3622 50.852 66.4083 50.6831 66.4544 50.5142C66.4851 50.4067 66.5158 50.3145 66.5465 50.207C66.608 50.0227 66.654 49.8384 66.7001 49.6695C66.7155 49.5927 66.7308 49.5313 66.7615 49.4545C66.7615 49.4238 66.7769 49.3931 66.7769 49.3777C66.8383 49.1167 66.8997 48.8402 66.9612 48.5792C66.9919 48.4102 67.0226 48.2413 67.0533 48.0723C67.0533 48.0723 67.0687 48.0263 67.0994 47.9495C67.1147 47.9188 67.1147 47.9034 67.1301 47.8727C67.1301 47.8573 67.1455 47.842 67.1455 47.8267C67.1455 47.8113 67.1608 47.7959 67.1608 47.7806C67.299 47.4888 67.5755 47.0895 68.0669 46.8284C68.4201 46.6134 68.8808 46.5059 69.4797 46.5981Z"
            fill="url(#paint3_linear_5704_16208)" />
        <path
            d="M45.4305 63.0151C44.6319 63.7062 44.2326 64.5509 44.3555 65.6106C44.0637 65.1806 43.8487 64.6891 43.8794 64.167C43.8794 64.167 43.8794 64.167 43.8794 64.1516C43.8794 64.0902 43.8947 64.0287 43.9101 63.9826C43.9255 63.9212 43.9408 63.8751 43.9715 63.8291C44.2019 63.4145 44.7547 63.1687 45.4305 63.0151Z"
            fill="url(#paint4_linear_5704_16208)" />
        <g filter="url(#filter0_d_5704_16208)">
            <path
                d="M80 58.5C80 70.3711 70.3711 80 58.5 80C57.8857 80 57.2714 79.9692 56.6572 79.9232C45.6461 78.9864 37 69.7568 37 58.5C37 46.6289 46.6289 37 58.5 37C61.1107 37 63.5986 37.4607 65.9175 38.3054C74.1336 41.3307 80 49.2243 80 58.5Z"
                fill="#333333" />
            <path
                d="M69.9096 48.5481L68.1742 48.6249L68.0514 45.2002C68.0361 44.847 68.3125 44.5552 68.6657 44.5399L69.1111 44.5245C69.4642 44.5092 69.7561 44.7856 69.7714 45.1388L69.9096 48.5481Z"
                fill="url(#paint5_linear_5704_16208)" />
            <path
                d="M69.9095 48.5485L69.0495 48.5793L68.896 44.5096L69.1263 44.4943C69.4795 44.4789 69.7713 44.7553 69.7867 45.1085L69.9095 48.5485Z"
                fill="url(#paint6_linear_5704_16208)" />
            <path
                d="M71.4916 49.9462C71.6451 51.574 71.5683 53.2479 71.2458 54.9373C69.403 64.4279 60.2194 70.6323 50.7287 68.7894C49.0394 68.4669 47.4576 67.8987 45.9986 67.1462C45.8911 67.0848 44.9391 66.4858 44.3555 65.6258C44.0637 65.1958 43.8487 64.7044 43.8794 64.1823C43.8794 64.1823 43.8794 64.1823 43.8794 64.1669C43.8794 64.1054 43.8947 64.044 43.9101 63.9979C43.9255 63.9365 43.9408 63.8904 43.9715 63.8444C44.1866 63.4451 44.7241 63.1994 45.4151 63.0458C46.9201 62.7079 49.1161 62.8154 50.0376 62.7694H50.053C50.2833 62.7694 50.4983 62.754 50.7287 62.7387C50.7441 62.7387 50.7594 62.7387 50.7594 62.7387C51.0051 62.7233 51.2508 62.7079 51.4966 62.6773C51.5733 62.6773 51.6501 62.6619 51.7116 62.6619C51.773 62.6465 51.8344 62.6465 51.9111 62.6312C51.9726 62.6312 52.0341 62.6158 52.0955 62.6004C52.1876 62.5851 52.2644 62.5851 52.3566 62.5698C52.5255 62.539 52.6944 62.5237 52.848 62.4929C52.9401 62.4776 53.0322 62.4623 53.1397 62.4315C53.4008 62.3854 53.6619 62.324 53.9076 62.2626C53.9844 62.2473 54.0611 62.2319 54.1533 62.2012C54.2301 62.1858 54.3069 62.1551 54.3991 62.1398C54.6294 62.0783 54.8751 62.0015 55.1055 61.9248C55.1208 61.9248 55.1362 61.9094 55.1516 61.9094L55.213 61.894C55.5508 61.7865 55.8887 61.6637 56.2266 61.5254C56.5337 61.4026 56.8562 61.2644 57.1633 61.1262C57.2094 61.1108 57.2401 61.0954 57.2862 61.0648L57.3322 61.0494C57.5319 60.9573 57.7316 60.8498 57.9312 60.7423C57.9466 60.7269 57.9772 60.7269 57.9926 60.7115C58.0233 60.6962 58.0387 60.6808 58.0694 60.6654C58.6376 60.3583 59.1751 60.0358 59.7126 59.6673C59.8201 59.6058 59.9122 59.529 60.0197 59.4523C60.1119 59.3908 60.2041 59.314 60.3116 59.2373C60.3269 59.2219 60.3422 59.2065 60.3576 59.2065C60.4037 59.1604 60.4651 59.1298 60.5112 59.0837C60.6647 58.9608 60.8183 58.8379 60.9719 58.7151C61.0487 58.6537 61.1255 58.5923 61.2022 58.5308C61.3097 58.4387 61.4326 58.3312 61.5401 58.2237C61.5862 58.1776 61.6322 58.1469 61.663 58.1008C61.8166 57.9626 61.9701 57.8244 62.1083 57.6708C62.7533 57.0258 63.3676 56.3348 63.9051 55.5823C63.9205 55.5669 63.9205 55.5515 63.9358 55.5362C64.1508 55.2598 64.3505 54.9679 64.5347 54.6608C64.6269 54.5226 64.7191 54.3844 64.7958 54.2462C64.8572 54.1387 64.9341 54.0158 64.9955 53.9083C65.0108 53.8929 65.0262 53.8623 65.0262 53.8469C65.1644 53.6012 65.3026 53.3401 65.4255 53.079C66.1319 51.6815 66.6541 50.1612 66.9612 48.564C66.9919 48.3951 67.0226 48.2262 67.0533 48.0573C67.0533 48.0573 67.0687 48.0112 67.0994 47.9344C67.1147 47.9037 67.1147 47.8883 67.1301 47.8576C67.1301 47.8423 67.1455 47.8269 67.1455 47.8115C67.1455 47.7962 67.1608 47.7808 67.1608 47.7654C67.2991 47.4737 67.5755 47.0744 68.0669 46.8133C68.4201 46.629 68.8808 46.5215 69.4797 46.6137C70.048 46.7058 70.4626 47.0744 70.7697 47.5504C71.2305 48.2876 71.4147 49.3165 71.4916 49.9462Z"
                fill="url(#paint7_linear_5704_16208)" />
            <path
                d="M69.4797 46.5981C69.4797 46.6134 69.4797 46.6134 69.4797 46.6288C69.664 48.1798 69.6487 49.777 69.3876 51.3895C69.3569 51.6045 69.3108 51.8195 69.2801 52.0345C67.4372 61.5252 58.2537 67.7295 48.763 65.8867C47.3501 65.6102 46.0294 65.1802 44.7701 64.612C44.5858 64.5198 44.4015 64.4431 44.2172 64.3509C44.1098 64.2895 43.9869 64.2281 43.8794 64.182C43.8794 64.1206 43.8948 64.0592 43.9101 64.0131C43.9255 63.9517 43.9408 63.9056 43.9715 63.8595C44.1865 63.4602 44.724 63.2145 45.4151 63.0609C46.9201 62.7231 49.1162 62.8306 50.0376 62.7845H50.053C50.2833 62.7845 50.4983 62.7692 50.7287 62.7538C50.744 62.7538 50.7594 62.7538 50.7594 62.7538C51.0051 62.7384 51.2508 62.7231 51.4965 62.6923C51.5119 62.6923 51.5426 62.6923 51.558 62.6923C51.604 62.6923 51.6655 62.677 51.7115 62.677C51.773 62.6617 51.8344 62.6617 51.9112 62.6463C51.988 62.6309 52.034 62.6309 52.0955 62.6156C52.1876 62.6002 52.2644 62.6002 52.3565 62.5848C52.5255 62.5542 52.6944 62.5234 52.848 62.5081C52.9401 62.4927 53.0322 62.4773 53.1397 62.4467C53.3087 62.4159 53.4622 62.3852 53.6158 62.3392C53.708 62.3238 53.8001 62.2931 53.9076 62.2777C53.9844 62.2623 54.0612 62.2317 54.1533 62.2163C54.2301 62.2009 54.3069 62.1702 54.399 62.1548C54.6294 62.0934 54.8751 62.0167 55.1055 61.9398C55.1208 61.9398 55.1362 61.9245 55.1515 61.9245L55.213 61.9092C55.2744 61.8938 55.3358 61.8631 55.3972 61.8477C55.6737 61.7556 55.9501 61.6481 56.2265 61.5406C56.503 61.4331 56.764 61.3102 57.0405 61.1873C57.0865 61.172 57.1172 61.1567 57.1633 61.1259C57.2094 61.1106 57.2401 61.0952 57.2862 61.0645L57.3322 61.0492C57.4551 60.9877 57.578 60.9263 57.7008 60.8648C57.7776 60.8188 57.8544 60.7881 57.9312 60.7573C57.9465 60.742 57.9772 60.742 57.9926 60.7267C58.0233 60.7113 58.0387 60.6959 58.0694 60.6806C58.1769 60.6192 58.2844 60.5577 58.3919 60.4963C58.4687 60.4502 58.5455 60.4042 58.6222 60.3581C58.653 60.3427 58.699 60.312 58.7297 60.2967C58.8372 60.2352 58.9447 60.1584 59.0522 60.097C59.1597 60.0356 59.2519 59.9742 59.344 59.8973C59.4669 59.8206 59.5744 59.7438 59.6972 59.667C59.8047 59.5902 59.8969 59.5288 60.0044 59.452C60.0965 59.3752 60.1887 59.3138 60.2962 59.237C60.3115 59.2217 60.3269 59.2063 60.3422 59.2063C60.3883 59.1602 60.4497 59.1295 60.4958 59.0834C60.6494 58.9606 60.803 58.8377 60.9565 58.7148C61.0333 58.6534 61.1101 58.592 61.1869 58.5306C61.2944 58.4384 61.4172 58.3309 61.5247 58.2234C61.5708 58.1773 61.6169 58.1467 61.6476 58.1006C61.6937 58.0545 61.7397 58.0238 61.7705 57.9777C61.878 57.8702 61.9855 57.7781 62.093 57.6706C62.1851 57.5784 62.2619 57.5017 62.354 57.4095C62.4615 57.302 62.5537 57.2098 62.6458 57.1023C62.6919 57.0563 62.738 56.9948 62.7994 56.9334C62.8301 56.8873 62.8762 56.8413 62.9069 56.8106C62.999 56.7184 63.0758 56.6109 63.168 56.5188C63.2601 56.4113 63.3369 56.3192 63.429 56.2117C63.4905 56.1348 63.5672 56.0427 63.6287 55.9659C63.7208 55.8431 63.813 55.7202 63.9051 55.5973C63.9205 55.582 63.9205 55.5667 63.9358 55.5513C64.028 55.4284 64.1047 55.3209 64.1815 55.1981C64.2276 55.1213 64.289 55.0445 64.3351 54.9677C64.3965 54.8756 64.458 54.7681 64.5347 54.6759C64.5962 54.5838 64.6422 54.507 64.7037 54.4148C64.7344 54.3688 64.7651 54.3073 64.7958 54.2613C64.8572 54.1538 64.934 54.0309 64.9955 53.9234C65.0108 53.9081 65.0262 53.8773 65.0262 53.862C65.0722 53.7698 65.1337 53.6777 65.1797 53.5702C65.2258 53.4934 65.2565 53.4167 65.3026 53.3398C65.3487 53.2631 65.3794 53.1863 65.4255 53.0942C65.4869 52.9867 65.533 52.8638 65.5944 52.7409C65.6251 52.6795 65.6558 52.6181 65.6865 52.5567C65.7633 52.4031 65.8247 52.2495 65.8862 52.0959C65.9322 51.9884 65.9783 51.8963 66.009 51.7888C66.0705 51.6352 66.1319 51.4817 66.1933 51.3281C66.224 51.2206 66.2701 51.1131 66.3008 51.0056C66.3622 50.852 66.4083 50.6831 66.4544 50.5142C66.4851 50.4067 66.5158 50.3145 66.5465 50.207C66.608 50.0227 66.654 49.8384 66.7001 49.6695C66.7155 49.5927 66.7308 49.5313 66.7615 49.4545C66.7615 49.4238 66.7769 49.3931 66.7769 49.3777C66.8383 49.1167 66.8997 48.8402 66.9612 48.5792C66.9919 48.4102 67.0226 48.2413 67.0533 48.0723C67.0533 48.0723 67.0687 48.0263 67.0994 47.9495C67.1147 47.9188 67.1147 47.9034 67.1301 47.8727C67.1301 47.8573 67.1455 47.842 67.1455 47.8267C67.1455 47.8113 67.1608 47.7959 67.1608 47.7806C67.299 47.4888 67.5755 47.0895 68.0669 46.8284C68.4201 46.6134 68.8808 46.5059 69.4797 46.5981Z"
                fill="url(#paint8_linear_5704_16208)" />
            <path
                d="M45.4305 63.0151C44.6319 63.7062 44.2326 64.5509 44.3555 65.6106C44.0637 65.1806 43.8487 64.6891 43.8794 64.167C43.8794 64.167 43.8794 64.167 43.8794 64.1516C43.8794 64.0902 43.8947 64.0287 43.9101 63.9826C43.9255 63.9212 43.9408 63.8751 43.9715 63.8291C44.2019 63.4145 44.7547 63.1687 45.4305 63.0151Z"
                fill="url(#paint9_linear_5704_16208)" />
        </g>
    </g>
    <path
        d="M21.5 43C33.3741 43 43 33.3741 43 21.5C43 9.62588 33.3741 0 21.5 0C9.62588 0 0 9.62588 0 21.5C0 33.3741 9.62588 43 21.5 43Z"
        fill="#F3BA2F" />
    <path
        d="M16.2809 19.3554L21.5 14.1363L26.7218 19.3581L29.7587 16.3212L21.5 8.0625L13.244 16.3185L16.2809 19.3554ZM8.0625 21.5L11.0994 18.4631L14.1362 21.5L11.0994 24.5369L8.0625 21.5ZM16.2809 23.6446L21.5 28.8638L26.7218 23.6419L29.7587 26.6775L21.5 34.9375L13.244 26.6815L13.24 26.6775L16.2809 23.6446ZM28.8637 21.5L31.9006 18.4631L34.9375 21.5L31.9006 24.5369L28.8637 21.5ZM24.5799 21.4973H24.5826V21.5L21.5 24.5826L18.4215 21.5054L18.4161 21.5L18.4215 21.496L18.9603 20.9558L19.2223 20.6938L21.5 18.4174L24.5812 21.4987L24.5799 21.4973Z"
        fill="white" />
    <defs>
        <filter id="filter0_d_5704_16208" x="33" y="33" width="51" height="51" filterUnits="userSpaceOnUse"
            color-interpolation-filters="sRGB">
            <feFlood flood-opacity="0" result="BackgroundImageFix" />
            <feColorMatrix in="SourceAlpha" type="matrix" values="0 0 0 0 0 0 0 0 0 0 0 0 0 0 0 0 0 0 127 0"
                result="hardAlpha" />
            <feOffset />
            <feGaussianBlur stdDeviation="2" />
            <feComposite in2="hardAlpha" operator="out" />
            <feColorMatrix type="matrix" values="0 0 0 0 1 0 0 0 0 0.835294 0 0 0 0 0.309804 0 0 0 0.15 0" />
            <feBlend mode="normal" in2="BackgroundImageFix" result="effect1_dropShadow_5704_16208" />
            <feBlend mode="normal" in="SourceGraphic" in2="effect1_dropShadow_5704_16208" result="shape" />
        </filter>
        <linearGradient id="paint0_linear_5704_16208" x1="65.7965" y1="43.099" x2="69.5087" y2="47.3776"
            gradientUnits="userSpaceOnUse">
            <stop stop-color="#FFE988" />
            <stop offset="0.25" stop-color="#BA801E" />
            <stop offset="0.5" stop-color="#FBEC83" />
            <stop offset="0.75" stop-color="#BA801F" />
            <stop offset="1" stop-color="#FFE97F" />
        </linearGradient>
        <linearGradient id="paint1_linear_5704_16208" x1="66.0518" y1="42.8779" x2="69.764" y2="47.1565"
            gradientUnits="userSpaceOnUse">
            <stop stop-color="#FFE988" />
            <stop offset="0.25" stop-color="#BA801E" />
            <stop offset="0.5" stop-color="#FBEC83" />
            <stop offset="0.75" stop-color="#BA801F" />
            <stop offset="1" stop-color="#FFE97F" />
        </linearGradient>
        <linearGradient id="paint2_linear_5704_16208" x1="43.4371" y1="56.4741" x2="90.9036" y2="60.0931"
            gradientUnits="userSpaceOnUse">
            <stop stop-color="#FFE988" />
            <stop offset="0.25" stop-color="#BA801E" />
            <stop offset="0.5" stop-color="#FBEC83" />
            <stop offset="0.75" stop-color="#BA801F" />
            <stop offset="1" stop-color="#FFE97F" />
        </linearGradient>
        <linearGradient id="paint3_linear_5704_16208" x1="42.1274" y1="58.5079" x2="74.2762" y2="54.8908"
            gradientUnits="userSpaceOnUse">
            <stop stop-color="#FFE988" />
            <stop offset="0.25" stop-color="#BA801E" />
            <stop offset="0.5" stop-color="#FBEC83" />
            <stop offset="0.75" stop-color="#BA801F" />
            <stop offset="1" stop-color="#FFE97F" />
        </linearGradient>
        <linearGradient id="paint4_linear_5704_16208" x1="42.8582" y1="62.2016" x2="45.0216" y2="64.445"
            gradientUnits="userSpaceOnUse">
            <stop stop-color="#FFE988" />
            <stop offset="0.25" stop-color="#BA801E" />
            <stop offset="0.5" stop-color="#FBEC83" />
            <stop offset="0.75" stop-color="#BA801F" />
            <stop offset="1" stop-color="#FFE97F" />
        </linearGradient>
        <linearGradient id="paint5_linear_5704_16208" x1="65.7965" y1="43.099" x2="69.5087" y2="47.3776"
            gradientUnits="userSpaceOnUse">
            <stop stop-color="#FFE988" />
            <stop offset="0.25" stop-color="#BA801E" />
            <stop offset="0.5" stop-color="#FBEC83" />
            <stop offset="0.75" stop-color="#BA801F" />
            <stop offset="1" stop-color="#FFE97F" />
        </linearGradient>
        <linearGradient id="paint6_linear_5704_16208" x1="66.0518" y1="42.8779" x2="69.764" y2="47.1565"
            gradientUnits="userSpaceOnUse">
            <stop stop-color="#FFE988" />
            <stop offset="0.25" stop-color="#BA801E" />
            <stop offset="0.5" stop-color="#FBEC83" />
            <stop offset="0.75" stop-color="#BA801F" />
            <stop offset="1" stop-color="#FFE97F" />
        </linearGradient>
        <linearGradient id="paint7_linear_5704_16208" x1="43.4371" y1="56.4741" x2="90.9036" y2="60.0931"
            gradientUnits="userSpaceOnUse">
            <stop stop-color="#FFE988" />
            <stop offset="0.25" stop-color="#BA801E" />
            <stop offset="0.5" stop-color="#FBEC83" />
            <stop offset="0.75" stop-color="#BA801F" />
            <stop offset="1" stop-color="#FFE97F" />
        </linearGradient>
        <linearGradient id="paint8_linear_5704_16208" x1="42.1274" y1="58.5079" x2="74.2762" y2="54.8908"
            gradientUnits="userSpaceOnUse">
            <stop stop-color="#FFE988" />
            <stop offset="0.25" stop-color="#BA801E" />
            <stop offset="0.5" stop-color="#FBEC83" />
            <stop offset="0.75" stop-color="#BA801F" />
            <stop offset="1" stop-color="#FFE97F" />
        </linearGradient>
        <linearGradient id="paint9_linear_5704_16208" x1="42.8582" y1="62.2016" x2="45.0216" y2="64.445"
            gradientUnits="userSpaceOnUse">
            <stop stop-color="#FFE988" />
            <stop offset="0.25" stop-color="#BA801E" />
            <stop offset="0.5" stop-color="#FBEC83" />
            <stop offset="0.75" stop-color="#BA801F" />
            <stop offset="1" stop-color="#FFE97F" />
        </linearGradient>
        <clipPath id="clip0_5704_16208">
            <rect width="43" height="43" fill="white" transform="translate(37 37)" />
        </clipPath>
    </defs>
</svg>