<svg width="84" height="84" viewBox="0 0 84 84" fill="none" xmlns="http://www.w3.org/2000/svg">
    <path
        d="M21.5 43C33.3741 43 43 33.3741 43 21.5C43 9.62588 33.3741 0 21.5 0C9.62588 0 0 9.62588 0 21.5C0 33.3741 9.62588 43 21.5 43Z"
        fill="#F3BA2F" />
    <path
        d="M16.2809 19.3554L21.5 14.1363L26.7218 19.3581L29.7587 16.3212L21.5 8.0625L13.244 16.3185L16.2809 19.3554ZM8.0625 21.5L11.0994 18.4631L14.1362 21.5L11.0994 24.5369L8.0625 21.5ZM16.2809 23.6446L21.5 28.8638L26.7218 23.6419L29.7587 26.6775L21.5 34.9375L13.244 26.6815L13.24 26.6775L16.2809 23.6446ZM28.8637 21.5L31.9006 18.4631L34.9375 21.5L31.9006 24.5369L28.8637 21.5ZM24.5799 21.4973H24.5826V21.5L21.5 24.5826L18.4215 21.5054L18.4161 21.5L18.4215 21.496L18.9603 20.9558L19.2223 20.6938L21.5 18.4174L24.5812 21.4987L24.5799 21.4973Z"
        fill="white" />
    <g filter="url(#filter0_d_5703_16208)">
        <path
            d="M80 58.5C80 70.3711 70.3711 80 58.5 80C57.8857 80 57.2714 79.9692 56.6572 79.9232C45.6461 78.9864 37 69.7568 37 58.5C37 46.6289 46.6289 37 58.5 37C61.1107 37 63.5986 37.4607 65.9175 38.3054C74.1336 41.3307 80 49.2243 80 58.5Z"
            fill="#333333" />
        <path
            d="M69.9096 48.5481L68.1742 48.6249L68.0514 45.2002C68.036 44.847 68.3125 44.5552 68.6657 44.5399L69.111 44.5245C69.4642 44.5092 69.756 44.7856 69.7714 45.1388L69.9096 48.5481Z"
            fill="url(#paint0_linear_5703_16208)" />
        <path
            d="M69.9094 48.5485L69.0494 48.5793L68.8959 44.5096L69.1262 44.4943C69.4794 44.4789 69.7712 44.7553 69.7866 45.1085L69.9094 48.5485Z"
            fill="url(#paint1_linear_5703_16208)" />
        <path
            d="M71.4917 49.9462C71.6452 51.574 71.5684 53.2479 71.2459 54.9373C69.4031 64.4279 60.2195 70.6323 50.7288 68.7894C49.0395 68.4669 47.4577 67.8987 45.9988 67.1462C45.8913 67.0848 44.9392 66.4858 44.3556 65.6258C44.0638 65.1958 43.8488 64.7044 43.8795 64.1823C43.8795 64.1823 43.8795 64.1823 43.8795 64.1669C43.8795 64.1054 43.8949 64.044 43.9102 63.9979C43.9256 63.9365 43.9409 63.8904 43.9716 63.8444C44.1867 63.4451 44.7242 63.1994 45.4152 63.0458C46.9202 62.7079 49.1163 62.8154 50.0377 62.7694H50.0531C50.2834 62.7694 50.4984 62.754 50.7288 62.7387C50.7442 62.7387 50.7595 62.7387 50.7595 62.7387C51.0052 62.7233 51.2509 62.7079 51.4967 62.6773C51.5734 62.6773 51.6502 62.6619 51.7117 62.6619C51.7731 62.6465 51.8345 62.6465 51.9113 62.6312C51.9727 62.6312 52.0342 62.6158 52.0956 62.6004C52.1877 62.5851 52.2645 62.5851 52.3567 62.5698C52.5256 62.539 52.6945 62.5237 52.8481 62.4929C52.9402 62.4776 53.0323 62.4623 53.1398 62.4315C53.4009 62.3854 53.662 62.324 53.9077 62.2626C53.9845 62.2473 54.0613 62.2319 54.1534 62.2012C54.2302 62.1858 54.307 62.1551 54.3992 62.1398C54.6295 62.0783 54.8752 62.0015 55.1056 61.9248C55.1209 61.9248 55.1363 61.9094 55.1517 61.9094L55.2131 61.894C55.5509 61.7865 55.8888 61.6637 56.2267 61.5254C56.5338 61.4026 56.8563 61.2644 57.1634 61.1262C57.2095 61.1108 57.2402 61.0954 57.2863 61.0648L57.3323 61.0494C57.532 60.9573 57.7317 60.8498 57.9313 60.7423C57.9467 60.7269 57.9773 60.7269 57.9927 60.7115C58.0234 60.6962 58.0388 60.6808 58.0695 60.6654C58.6377 60.3583 59.1752 60.0358 59.7127 59.6673C59.8202 59.6058 59.9123 59.529 60.0198 59.4523C60.112 59.3908 60.2042 59.314 60.3117 59.2373C60.327 59.2219 60.3423 59.2065 60.3577 59.2065C60.4038 59.1604 60.4652 59.1298 60.5113 59.0837C60.6648 58.9608 60.8184 58.8379 60.972 58.7151C61.0488 58.6537 61.1256 58.5923 61.2023 58.5308C61.3098 58.4387 61.4327 58.3312 61.5402 58.2237C61.5863 58.1776 61.6323 58.1469 61.6631 58.1008C61.8167 57.9626 61.9702 57.8244 62.1084 57.6708C62.7534 57.0258 63.3677 56.3348 63.9052 55.5823C63.9206 55.5669 63.9206 55.5515 63.9359 55.5362C64.1509 55.2598 64.3506 54.9679 64.5348 54.6608C64.627 54.5226 64.7192 54.3844 64.7959 54.2462C64.8573 54.1387 64.9342 54.0158 64.9956 53.9083C65.0109 53.8929 65.0263 53.8623 65.0263 53.8469C65.1645 53.6012 65.3027 53.3401 65.4256 53.079C66.132 51.6815 66.6542 50.1612 66.9613 48.564C66.992 48.3951 67.0227 48.2262 67.0534 48.0573C67.0534 48.0573 67.0688 48.0112 67.0995 47.9344C67.1148 47.9037 67.1148 47.8883 67.1302 47.8576C67.1302 47.8423 67.1456 47.8269 67.1456 47.8115C67.1456 47.7962 67.1609 47.7808 67.1609 47.7654C67.2992 47.4737 67.5756 47.0744 68.067 46.8133C68.4202 46.629 68.8809 46.5215 69.4798 46.6137C70.0481 46.7058 70.4627 47.0744 70.7698 47.5504C71.2306 48.2876 71.4148 49.3165 71.4917 49.9462Z"
            fill="url(#paint2_linear_5703_16208)" />
        <path
            d="M69.4797 46.5981C69.4797 46.6134 69.4797 46.6134 69.4797 46.6288C69.664 48.1798 69.6487 49.777 69.3876 51.3895C69.3568 51.6045 69.3108 51.8195 69.2801 52.0345C67.4372 61.5252 58.2537 67.7295 48.7629 65.8867C47.3501 65.6102 46.0293 65.1802 44.7701 64.612C44.5858 64.5198 44.4015 64.4431 44.2172 64.3509C44.1097 64.2895 43.9869 64.2281 43.8794 64.182C43.8794 64.1206 43.8947 64.0592 43.9101 64.0131C43.9254 63.9517 43.9408 63.9056 43.9715 63.8595C44.1865 63.4602 44.724 63.2145 45.4151 63.0609C46.9201 62.7231 49.1162 62.8306 50.0376 62.7845H50.0529C50.2833 62.7845 50.4983 62.7692 50.7287 62.7538C50.744 62.7538 50.7593 62.7538 50.7593 62.7538C51.0051 62.7384 51.2508 62.7231 51.4965 62.6923C51.5118 62.6923 51.5426 62.6923 51.5579 62.6923C51.604 62.6923 51.6654 62.677 51.7115 62.677C51.7729 62.6617 51.8343 62.6617 51.9112 62.6463C51.9879 62.6309 52.034 62.6309 52.0954 62.6156C52.1876 62.6002 52.2643 62.6002 52.3565 62.5848C52.5254 62.5542 52.6943 62.5234 52.8479 62.5081C52.9401 62.4927 53.0322 62.4773 53.1397 62.4467C53.3087 62.4159 53.4622 62.3852 53.6158 62.3392C53.7079 62.3238 53.8001 62.2931 53.9076 62.2777C53.9843 62.2623 54.0612 62.2317 54.1533 62.2163C54.2301 62.2009 54.3068 62.1702 54.399 62.1548C54.6293 62.0934 54.8751 62.0167 55.1054 61.9398C55.1208 61.9398 55.1362 61.9245 55.1515 61.9245L55.2129 61.9092C55.2743 61.8938 55.3358 61.8631 55.3972 61.8477C55.6737 61.7556 55.9501 61.6481 56.2265 61.5406C56.5029 61.4331 56.764 61.3102 57.0404 61.1873C57.0865 61.172 57.1172 61.1567 57.1633 61.1259C57.2093 61.1106 57.2401 61.0952 57.2862 61.0645L57.3322 61.0492C57.4551 60.9877 57.5779 60.9263 57.7008 60.8648C57.7776 60.8188 57.8544 60.7881 57.9312 60.7573C57.9465 60.742 57.9772 60.742 57.9926 60.7267C58.0233 60.7113 58.0387 60.6959 58.0693 60.6806C58.1768 60.6192 58.2843 60.5577 58.3918 60.4963C58.4687 60.4502 58.5454 60.4042 58.6222 60.3581C58.6529 60.3427 58.699 60.312 58.7297 60.2967C58.8372 60.2352 58.9447 60.1584 59.0522 60.097C59.1597 60.0356 59.2518 59.9742 59.344 59.8973C59.4668 59.8206 59.5743 59.7438 59.6972 59.667C59.8047 59.5902 59.8968 59.5288 60.0043 59.452C60.0965 59.3752 60.1887 59.3138 60.2962 59.237C60.3115 59.2217 60.3268 59.2063 60.3422 59.2063C60.3883 59.1602 60.4497 59.1295 60.4958 59.0834C60.6493 58.9606 60.8029 58.8377 60.9565 58.7148C61.0333 58.6534 61.1101 58.592 61.1868 58.5306C61.2943 58.4384 61.4172 58.3309 61.5247 58.2234C61.5708 58.1773 61.6168 58.1467 61.6476 58.1006C61.6937 58.0545 61.7397 58.0238 61.7704 57.9777C61.8779 57.8702 61.9854 57.7781 62.0929 57.6706C62.1851 57.5784 62.2618 57.5017 62.354 57.4095C62.4615 57.302 62.5537 57.2098 62.6458 57.1023C62.6918 57.0563 62.7379 56.9948 62.7993 56.9334C62.8301 56.8873 62.8762 56.8413 62.9068 56.8106C62.999 56.7184 63.0758 56.6109 63.1679 56.5188C63.2601 56.4113 63.3368 56.3192 63.429 56.2117C63.4904 56.1348 63.5672 56.0427 63.6287 55.9659C63.7208 55.8431 63.8129 55.7202 63.9051 55.5973C63.9204 55.582 63.9204 55.5667 63.9358 55.5513C64.0279 55.4284 64.1047 55.3209 64.1815 55.1981C64.2276 55.1213 64.289 55.0445 64.3351 54.9677C64.3965 54.8756 64.4579 54.7681 64.5347 54.6759C64.5962 54.5838 64.6422 54.507 64.7037 54.4148C64.7343 54.3688 64.7651 54.3073 64.7958 54.2613C64.8572 54.1538 64.934 54.0309 64.9954 53.9234C65.0108 53.9081 65.0262 53.8773 65.0262 53.862C65.0722 53.7698 65.1337 53.6777 65.1797 53.5702C65.2258 53.4934 65.2565 53.4167 65.3026 53.3398C65.3487 53.2631 65.3793 53.1863 65.4254 53.0942C65.4868 52.9867 65.5329 52.8638 65.5943 52.7409C65.6251 52.6795 65.6558 52.6181 65.6865 52.5567C65.7633 52.4031 65.8247 52.2495 65.8862 52.0959C65.9322 51.9884 65.9783 51.8963 66.009 51.7888C66.0704 51.6352 66.1318 51.4817 66.1933 51.3281C66.224 51.2206 66.2701 51.1131 66.3008 51.0056C66.3622 50.852 66.4083 50.6831 66.4543 50.5142C66.4851 50.4067 66.5158 50.3145 66.5465 50.207C66.6079 50.0227 66.654 49.8384 66.7001 49.6695C66.7154 49.5927 66.7308 49.5313 66.7615 49.4545C66.7615 49.4238 66.7768 49.3931 66.7768 49.3777C66.8383 49.1167 66.8997 48.8402 66.9612 48.5792C66.9918 48.4102 67.0226 48.2413 67.0533 48.0723C67.0533 48.0723 67.0687 48.0263 67.0993 47.9495C67.1147 47.9188 67.1147 47.9034 67.1301 47.8727C67.1301 47.8573 67.1454 47.842 67.1454 47.8267C67.1454 47.8113 67.1608 47.7959 67.1608 47.7806C67.299 47.4888 67.5754 47.0895 68.0668 46.8284C68.4201 46.6134 68.8808 46.5059 69.4797 46.5981Z"
            fill="url(#paint3_linear_5703_16208)" />
        <path
            d="M45.4306 63.0151C44.632 63.7062 44.2327 64.5509 44.3556 65.6106C44.0638 65.1806 43.8488 64.6891 43.8795 64.167C43.8795 64.167 43.8795 64.167 43.8795 64.1516C43.8795 64.0902 43.8949 64.0287 43.9102 63.9826C43.9256 63.9212 43.9409 63.8751 43.9716 63.8291C44.202 63.4145 44.7548 63.1687 45.4306 63.0151Z"
            fill="url(#paint4_linear_5703_16208)" />
    </g>
    <defs>
        <filter id="filter0_d_5703_16208" x="33" y="33" width="51" height="51" filterUnits="userSpaceOnUse"
            color-interpolation-filters="sRGB">
            <feFlood flood-opacity="0" result="BackgroundImageFix" />
            <feColorMatrix in="SourceAlpha" type="matrix" values="0 0 0 0 0 0 0 0 0 0 0 0 0 0 0 0 0 0 127 0"
                result="hardAlpha" />
            <feOffset />
            <feGaussianBlur stdDeviation="2" />
            <feComposite in2="hardAlpha" operator="out" />
            <feColorMatrix type="matrix" values="0 0 0 0 1 0 0 0 0 0.835294 0 0 0 0 0.309804 0 0 0 0.15 0" />
            <feBlend mode="normal" in2="BackgroundImageFix" result="effect1_dropShadow_5703_16208" />
            <feBlend mode="normal" in="SourceGraphic" in2="effect1_dropShadow_5703_16208" result="shape" />
        </filter>
        <linearGradient id="paint0_linear_5703_16208" x1="65.7965" y1="43.099" x2="69.5087" y2="47.3776"
            gradientUnits="userSpaceOnUse">
            <stop stop-color="#FFE988" />
            <stop offset="0.25" stop-color="#BA801E" />
            <stop offset="0.5" stop-color="#FBEC83" />
            <stop offset="0.75" stop-color="#BA801F" />
            <stop offset="1" stop-color="#FFE97F" />
        </linearGradient>
        <linearGradient id="paint1_linear_5703_16208" x1="66.0517" y1="42.8779" x2="69.7638" y2="47.1565"
            gradientUnits="userSpaceOnUse">
            <stop stop-color="#FFE988" />
            <stop offset="0.25" stop-color="#BA801E" />
            <stop offset="0.5" stop-color="#FBEC83" />
            <stop offset="0.75" stop-color="#BA801F" />
            <stop offset="1" stop-color="#FFE97F" />
        </linearGradient>
        <linearGradient id="paint2_linear_5703_16208" x1="43.4372" y1="56.4741" x2="90.9037" y2="60.0931"
            gradientUnits="userSpaceOnUse">
            <stop stop-color="#FFE988" />
            <stop offset="0.25" stop-color="#BA801E" />
            <stop offset="0.5" stop-color="#FBEC83" />
            <stop offset="0.75" stop-color="#BA801F" />
            <stop offset="1" stop-color="#FFE97F" />
        </linearGradient>
        <linearGradient id="paint3_linear_5703_16208" x1="42.1274" y1="58.5079" x2="74.2761" y2="54.8908"
            gradientUnits="userSpaceOnUse">
            <stop stop-color="#FFE988" />
            <stop offset="0.25" stop-color="#BA801E" />
            <stop offset="0.5" stop-color="#FBEC83" />
            <stop offset="0.75" stop-color="#BA801F" />
            <stop offset="1" stop-color="#FFE97F" />
        </linearGradient>
        <linearGradient id="paint4_linear_5703_16208" x1="42.8583" y1="62.2016" x2="45.0217" y2="64.445"
            gradientUnits="userSpaceOnUse">
            <stop stop-color="#FFE988" />
            <stop offset="0.25" stop-color="#BA801E" />
            <stop offset="0.5" stop-color="#FBEC83" />
            <stop offset="0.75" stop-color="#BA801F" />
            <stop offset="1" stop-color="#FFE97F" />
        </linearGradient>
    </defs>
</svg>