<svg width="54" height="60" viewBox="0 0 54 60" fill="none" xmlns="http://www.w3.org/2000/svg">
    <path
        d="M37.949 6.76573e-06C39.2226 -0.00298494 40.2297 0.986519 40.2327 2.30586L40.2356 4.55473C48.4996 5.20241 53.9585 10.8336 53.9674 19.4693L54 44.7466C54.0118 54.1619 48.0967 59.955 38.6154 59.97L15.4557 60C6.0336 60.0119 0.0444696 54.0809 0.0326216 44.6387L1.98822e-05 19.6582C-0.0118081 10.9655 5.2546 5.34933 13.5185 4.59071L13.5156 2.34184C13.5126 1.0225 14.4901 0.0299985 15.7933 0.0299985C17.0966 0.027 18.0741 1.0165 18.077 2.33584L18.08 4.43479L35.6742 4.4108L35.6712 2.31186C35.6682 0.992516 36.6457 0.00301206 37.949 6.76573e-06ZM39.1575 42.5757H39.1278C37.7653 42.6087 36.6724 43.7511 36.702 45.1304C36.7049 46.5097 37.8038 47.6461 39.1663 47.6761C40.5555 47.6731 41.6811 46.5307 41.6781 45.1214C41.6781 43.7121 40.5496 42.5757 39.1575 42.5757ZM14.7507 42.5787C13.3882 42.6387 12.3219 43.7811 12.3248 45.1604C12.3871 46.5397 13.5126 47.6192 14.8751 47.5562C16.211 47.4962 17.2743 46.3538 17.2121 44.9745C17.1825 43.6252 16.0836 42.5757 14.7507 42.5787ZM26.9541 42.5637C25.5916 42.6267 24.5282 43.7661 24.5282 45.1454C24.5904 46.5247 25.716 47.6012 27.0785 47.5412C28.4114 47.4782 29.4777 46.3388 29.4155 44.9565C29.3859 43.6102 28.287 42.5607 26.9541 42.5637ZM14.7359 31.7841C13.3734 31.8441 12.31 32.9865 12.313 34.3658C12.3722 35.7451 13.5008 36.8246 14.8633 36.7616C16.1962 36.7016 17.2595 35.5592 17.1973 34.1799C17.1677 32.8306 16.0718 31.7811 14.7359 31.7841ZM26.9422 31.6791C25.5797 31.7391 24.5134 32.8815 24.5164 34.2608C24.5756 35.6402 25.7041 36.7166 27.0666 36.6566C28.3995 36.5937 29.4629 35.4543 29.4036 34.0749C29.3711 32.7256 28.2751 31.6761 26.9422 31.6791ZM39.1456 31.6941C37.7831 31.7241 36.7168 32.8336 36.7197 34.2129V34.2459C36.7494 35.6252 37.8749 36.6716 39.2404 36.6417C40.5733 36.6087 41.6366 35.4662 41.607 34.0869C41.5448 32.7676 40.4755 31.6911 39.1456 31.6941ZM35.6801 9.02849L18.0859 9.05248L18.0889 11.4783C18.0889 12.7706 17.1144 13.7901 15.8111 13.7901C14.5078 13.7931 13.5274 12.7766 13.5274 11.4843L13.5245 9.17542C7.74859 9.75413 4.55261 13.1484 4.56148 19.6522L4.56446 20.5847L49.4089 20.5247V19.4753C49.2815 13.0285 46.047 9.64618 40.2415 9.14243L40.2445 11.4513C40.2445 12.7406 39.2404 13.7631 37.9667 13.7631C36.6635 13.7661 35.6831 12.7466 35.6831 11.4573L35.6801 9.02849Z"
        fill="#FAFAFA" />
</svg>