<svg width="87" height="67" viewBox="0 0 87 67" fill="none" xmlns="http://www.w3.org/2000/svg">
    <path
        d="M74.7816 12.3402H29.5211C28.2426 12.3415 27.017 12.8495 26.113 13.7528C25.209 14.6561 24.7005 15.8809 24.6992 17.1583V25.1983H79.6085V17.1583C79.6059 15.8804 79.0963 14.6557 78.1915 13.7525C77.2868 12.8494 76.0605 12.3415 74.7816 12.3402ZM32.8737 21.9813C32.5558 21.9813 32.2451 21.8871 31.9807 21.7106C31.7164 21.5342 31.5104 21.2833 31.3888 20.9899C31.2671 20.6964 31.2353 20.3735 31.2973 20.062C31.3593 19.7504 31.5124 19.4642 31.7372 19.2396C31.962 19.015 32.2484 18.8621 32.5602 18.8001C32.8719 18.7381 33.1951 18.7699 33.4888 18.8915C33.7825 19.0131 34.0335 19.2189 34.2101 19.483C34.3867 19.7471 34.481 20.0576 34.481 20.3753C34.4804 20.5881 34.4375 20.7986 34.355 20.9948C34.2724 21.191 34.1518 21.3689 34.0001 21.5182C33.8483 21.6675 33.6685 21.7854 33.4709 21.8649C33.2734 21.9443 33.062 21.9839 32.849 21.9813H32.8737ZM39.2832 21.9813C38.9653 21.9813 38.6545 21.8871 38.3902 21.7106C38.1259 21.5342 37.9199 21.2833 37.7982 20.9899C37.6766 20.6964 37.6447 20.3735 37.7067 20.062C37.7688 19.7504 37.9218 19.4642 38.1466 19.2396C38.3714 19.015 38.6578 18.8621 38.9696 18.8001C39.2814 18.7381 39.6046 18.7699 39.8983 18.8915C40.1919 19.0131 40.443 19.2189 40.6196 19.483C40.7962 19.7471 40.8905 20.0576 40.8905 20.3753C40.8905 20.8012 40.7211 21.2097 40.4197 21.5109C40.1183 21.8121 39.7094 21.9813 39.2832 21.9813ZM45.6926 21.9813C45.3747 21.9813 45.064 21.8871 44.7996 21.7106C44.5353 21.5342 44.3293 21.2833 44.2077 20.9899C44.086 20.6964 44.0542 20.3735 44.1162 20.062C44.1782 19.7504 44.3313 19.4642 44.5561 19.2396C44.7809 19.015 45.0673 18.8621 45.379 18.8001C45.6908 18.7381 46.014 18.7699 46.3077 18.8915C46.6014 19.0131 46.8524 19.2189 47.029 19.483C47.2056 19.7471 47.2999 20.0576 47.2999 20.3753C47.3 20.797 47.134 21.2018 46.8379 21.5023C46.5418 21.8028 46.1393 21.9748 45.7173 21.9813H45.6926ZM71.429 21.9813H61.7803C61.5693 21.9813 61.3602 21.9398 61.1652 21.859C60.9702 21.7783 60.793 21.66 60.6438 21.5109C60.4945 21.3618 60.3762 21.1847 60.2954 20.9899C60.2146 20.795 60.173 20.5862 60.173 20.3753C60.173 20.1644 60.2146 19.9555 60.2954 19.7607C60.3762 19.5658 60.4945 19.3888 60.6438 19.2396C60.793 19.0905 60.9702 18.9722 61.1652 18.8915C61.3602 18.8108 61.5693 18.7692 61.7803 18.7692H71.429C71.6401 18.7692 71.8491 18.8108 72.0441 18.8915C72.2391 18.9722 72.4163 19.0905 72.5655 19.2396C72.7148 19.3888 72.8332 19.5658 72.914 19.7607C72.9948 19.9555 73.0363 20.1644 73.0363 20.3753C73.0363 20.5862 72.9948 20.795 72.914 20.9899C72.8332 21.1847 72.7148 21.3618 72.5655 21.5109C72.4163 21.66 72.2391 21.7783 72.0441 21.859C71.8491 21.9398 71.6401 21.9813 71.429 21.9813Z"
        fill="#FAFAFA" />
    <path
        d="M24.6992 62.1666C24.7005 63.4445 25.2088 64.6697 26.1127 65.5738C27.0165 66.4778 28.2422 66.987 29.5211 66.9896H74.7816C76.061 66.987 77.2872 66.478 78.1918 65.5741C79.0965 64.6702 79.6059 63.4449 79.6085 62.1666V28.4104H24.6992V62.1666ZM61.3465 42.5641C61.0137 42.2976 60.8005 41.9099 60.7538 41.4863C60.7071 41.0627 60.8307 40.6379 61.0975 40.3054C61.3642 39.9729 61.7522 39.7598 62.1762 39.7132C62.6001 39.6665 63.0252 39.79 63.358 40.0566L71.3994 46.4856C71.5875 46.6361 71.7394 46.8269 71.8437 47.0439C71.9481 47.2609 72.0022 47.4986 72.0022 47.7394C72.0022 47.9802 71.9481 48.2179 71.8437 48.4349C71.7394 48.6519 71.5875 48.8427 71.3994 48.9932L63.358 55.4223C63.0252 55.6888 62.6001 55.8123 62.1762 55.7657C61.7522 55.719 61.3642 55.506 61.0975 55.1735C60.8307 54.8409 60.7071 54.4161 60.7538 53.9925C60.8005 53.5689 61.0137 53.1812 61.3465 52.9147L67.82 47.7419L61.3465 42.5641ZM45.8455 58.3584L55.4991 35.8543C55.6671 35.4623 55.9841 35.1531 56.3803 34.9947C56.7765 34.8362 57.2195 34.8415 57.6117 35.0094C58.004 35.1773 58.3134 35.494 58.472 35.8899C58.6306 36.2858 58.6253 36.7284 58.4573 37.1204L48.8037 59.6245C48.6357 60.0165 48.3187 60.3257 47.9225 60.4842C47.5263 60.6426 47.0833 60.6373 46.691 60.4694C46.2987 60.3015 45.9892 59.9848 45.8307 59.5889C45.6721 59.193 45.6775 58.7504 45.8455 58.3584ZM32.9033 46.4856L40.9447 40.0467C41.1095 39.9148 41.2987 39.8165 41.5015 39.7576C41.7042 39.6986 41.9166 39.6802 42.1265 39.7033C42.3364 39.7264 42.5397 39.7906 42.7248 39.8922C42.9099 39.9938 43.0731 40.1309 43.2052 40.2955C43.3373 40.4602 43.4357 40.6492 43.4947 40.8518C43.5536 41.0544 43.5721 41.2667 43.5489 41.4764C43.5258 41.6862 43.4616 41.8893 43.3599 42.0743C43.2582 42.2592 43.121 42.4223 42.9562 42.5543L36.4828 47.732L42.9562 52.9048C43.289 53.1713 43.5023 53.5591 43.5489 53.9827C43.5956 54.4063 43.472 54.8311 43.2052 55.1636C42.9385 55.4961 42.5505 55.7091 42.1265 55.7558C41.7026 55.8025 41.2775 55.6789 40.9447 55.4124L32.9033 48.9834C32.717 48.8328 32.5667 48.6425 32.4634 48.4264C32.3602 48.2103 32.3066 47.9739 32.3066 47.7345C32.3066 47.495 32.3602 47.2586 32.4634 47.0425C32.5667 46.8265 32.717 46.6362 32.9033 46.4856Z"
        fill="#FAFAFA" />
    <path
        d="M13.7585 28.3365C13.6599 28.3365 13.5613 28.366 13.4578 28.3857V28.77L13.4184 30.11C13.2655 30.1445 13.1225 30.1839 12.9746 30.2282L12.7331 30.307L10.4552 29.4893L10.7313 31.1938C7.74312 32.9973 5.52854 35.8419 4.51415 39.1796C4.41061 39.4998 4.3219 39.825 4.24301 40.1649C4.13948 40.6083 4.05566 41.0615 3.99156 41.5197C3.5721 41.3755 3.12454 41.332 2.68513 41.3928C2.24572 41.4535 1.82679 41.6169 1.46229 41.8695C-0.603521 43.1799 -0.470436 46.9832 1.79752 48.9193C2.51916 49.581 3.42556 50.0072 4.39582 50.141V50.274C4.3816 50.9189 4.43947 51.5633 4.56837 52.1954C5.74673 58.1071 12.5999 61.738 19.8524 60.2896L19.9954 60.26C20.5945 60.1301 21.1854 59.9656 21.7654 59.7674L21.8739 59.7329V31.514C20.4218 30.6786 18.8209 30.1332 17.1605 29.908C16.9682 29.6469 15.6814 28.1148 13.7585 28.3365Z"
        fill="#FAFAFA" />
    <path
        d="M84.8938 10.3499C84.6142 10.1571 84.2932 10.0325 83.9567 9.98633C83.6201 9.94013 83.2774 9.97355 82.9561 10.0839C82.9116 9.73407 82.8475 9.38703 82.7639 9.04441C82.7047 8.79809 82.6357 8.55176 82.5568 8.30051C81.7838 5.74665 80.0903 3.57002 77.8039 2.19169L78.011 0.891096L76.2706 1.51184L76.0882 1.45272C75.9748 1.42316 75.8614 1.38868 75.748 1.36405L75.7135 0.339334V0.0437424L75.4818 0.00433727C74.9815 -0.0222652 74.4822 0.0738097 74.0276 0.284188C73.573 0.494565 73.1769 0.812866 72.8736 1.21133C70.2348 1.61156 67.8376 2.9733 66.1437 5.03426C65.976 5.23132 65.8183 5.43824 65.6506 5.64515C65.4436 5.93089 65.2513 6.22647 65.0738 6.52698L65.0245 6.48264C64.7707 6.27579 64.4739 6.12819 64.1558 6.05063C63.8376 5.97307 63.5061 5.9675 63.1855 6.03433C61.8839 6.26588 60.9915 7.68963 60.9471 9.22176H74.8014C76.8214 9.22539 78.7643 9.99748 80.235 11.3811C81.7058 12.7647 82.5942 14.656 82.7195 16.6706C83.4335 16.5537 84.0981 16.2319 84.6324 15.7444C86.3729 14.2616 86.4468 11.3549 84.8938 10.3499Z"
        fill="#FAFAFA" />
</svg>