<svg width="106" height="57" viewBox="0 0 106 57" fill="none" xmlns="http://www.w3.org/2000/svg">
    <path
        d="M76.9493 21.0305H93.7798C94.152 21.0305 94.5089 20.8827 94.7721 20.6197C95.0353 20.3566 95.1831 19.9998 95.1831 19.6278C95.1831 19.2558 95.0353 18.899 94.7721 18.636C94.5089 18.3729 94.152 18.2251 93.7798 18.2251H76.9493C76.765 18.2251 76.5825 18.2614 76.4122 18.3319C76.2419 18.4024 76.0872 18.5057 75.9569 18.636C75.8266 18.7662 75.7232 18.9209 75.6527 19.0911C75.5822 19.2612 75.5459 19.4436 75.5459 19.6278C75.5459 19.812 75.5822 19.9944 75.6527 20.1646C75.7232 20.3348 75.8266 20.4894 75.9569 20.6197C76.0872 20.7499 76.2419 20.8533 76.4122 20.9238C76.5825 20.9943 76.765 21.0305 76.9493 21.0305Z"
        fill="#FAFAFA" />
    <path
        d="M76.9493 15.4197H82.5627C82.9199 15.3985 83.2554 15.2417 83.5008 14.9814C83.7461 14.7212 83.8827 14.3771 83.8827 14.0195C83.8827 13.6619 83.7461 13.3178 83.5008 13.0575C83.2554 12.7973 82.9199 12.6405 82.5627 12.6193H76.9493C76.7583 12.6079 76.567 12.6357 76.3871 12.7009C76.2073 12.7662 76.0427 12.8674 75.9034 12.9986C75.7642 13.1297 75.6533 13.2879 75.5775 13.4635C75.5016 13.6391 75.4625 13.8283 75.4625 14.0195C75.4625 14.2107 75.5016 14.3999 75.5775 14.5755C75.6533 14.751 75.7642 14.9093 75.9034 15.0404C76.0427 15.1715 76.2073 15.2728 76.3871 15.338C76.567 15.4033 76.7583 15.4311 76.9493 15.4197Z"
        fill="#FAFAFA" />
    <path
        d="M76.9493 26.6363H82.5627C82.9349 26.6363 83.2919 26.4885 83.5551 26.2255C83.8182 25.9624 83.9661 25.6056 83.9661 25.2336C83.9661 24.8616 83.8182 24.5048 83.5551 24.2418C83.2919 23.9787 82.9349 23.8309 82.5627 23.8309H76.9493C76.5771 23.8309 76.2201 23.9787 75.9569 24.2418C75.6937 24.5048 75.5459 24.8616 75.5459 25.2336C75.5459 25.6056 75.6937 25.9624 75.9569 26.2255C76.2201 26.4885 76.5771 26.6363 76.9493 26.6363Z"
        fill="#FAFAFA" />
    <path
        d="M76.9493 37.853H82.5627C82.9349 37.853 83.2919 37.7052 83.5551 37.4422C83.8182 37.1791 83.9661 36.8223 83.9661 36.4503C83.9661 36.0783 83.8182 35.7215 83.5551 35.4584C83.2919 35.1954 82.9349 35.0476 82.5627 35.0476H76.9493C76.5771 35.0476 76.2201 35.1954 75.9569 35.4584C75.6937 35.7215 75.5459 36.0783 75.5459 36.4503C75.5459 36.8223 75.6937 37.1791 75.9569 37.4422C76.2201 37.7052 76.5771 37.853 76.9493 37.853Z"
        fill="#FAFAFA" />
    <path
        d="M93.7798 29.4418H76.9492C76.1742 29.4418 75.5459 30.0698 75.5459 30.8445C75.5459 31.6192 76.1742 32.2472 76.9492 32.2472H93.7798C94.5549 32.2472 95.1832 31.6192 95.1832 30.8445C95.1832 30.0698 94.5549 29.4418 93.7798 29.4418Z"
        fill="#FAFAFA" />
    <path
        d="M100.722 2.87187e-06H27.9304C26.7954 2.87187e-06 25.7069 0.45067 24.9043 1.25285C24.1017 2.05504 23.6508 3.14303 23.6508 4.27748V13.5858C24.2983 14.0069 24.8913 14.5064 25.4162 15.0728C27.9542 15.8274 30.3218 17.0662 32.3884 18.7208C33.824 16.8173 35.6829 15.2737 37.8182 14.2122C39.9535 13.1506 42.3067 12.6002 44.6915 12.6044V28.0242H60.1187C60.1158 30.1399 59.6776 32.2324 58.8311 34.1716C57.9846 36.1107 56.7481 37.8551 55.1983 39.2963C53.6486 40.7374 51.8188 41.8445 49.8227 42.5486C47.8267 43.2528 45.7071 43.539 43.5956 43.3894C43.1956 43.3596 42.7989 43.3151 42.4055 43.2556C42.2879 45.26 41.7827 47.2226 40.9178 49.0349H100.727C101.29 49.0349 101.847 48.9241 102.366 48.7088C102.886 48.4935 103.358 48.178 103.755 47.7803C104.153 47.3826 104.468 46.9104 104.682 46.3909C104.897 45.8713 105.007 45.3146 105.007 44.7524V4.27748C105.007 3.71534 104.896 3.15871 104.681 2.63942C104.465 2.12013 104.149 1.64836 103.752 1.2511C103.354 0.853832 102.881 0.538857 102.362 0.324185C101.842 0.109514 101.285 -0.000648511 100.722 2.87187e-06ZM50.3001 22.4332V7.00852C52.3264 7.00852 54.3329 7.40752 56.205 8.18274C58.077 8.95796 59.7779 10.0942 61.2105 11.5266C62.6431 12.959 63.7794 14.6594 64.5544 16.5308C65.3293 18.4022 65.7279 20.4079 65.7272 22.4332H50.3001ZM99.3933 43.4588H71.3457V5.60583H99.3982L99.3933 43.4588Z"
        fill="#FAFAFA" />
    <path
        d="M41.0418 36.1975C41.5889 35.3134 41.9139 34.31 41.9889 33.2732C42.1972 30.6759 40.9228 28.0986 38.7557 27.5187C38.2335 27.3626 37.6827 27.3262 37.1445 27.412C36.6062 27.4978 36.0942 27.7037 35.6465 28.0143L35.5572 28.0787C35.3092 27.5534 35.0316 27.0329 34.734 26.5323C34.5158 26.1655 34.2828 25.8086 34.0348 25.4518C31.5206 21.8533 27.6478 19.0479 23.4575 18.1409C23.2244 17.784 21.7714 15.7023 19.3118 15.7717C19.1829 15.7645 19.0539 15.7645 18.925 15.7717L18.6622 17.9575L18.0869 18.0566L17.7745 18.126L14.9827 16.8423L15.1414 19.0281C11.2387 20.8125 8.06002 24.3812 6.37895 28.4455C6.21696 28.842 6.06818 29.2435 5.93264 29.65C5.74619 30.2031 5.58896 30.7656 5.46157 31.3352C4.94558 31.1081 4.38367 31.0047 3.82062 31.0331C3.25757 31.0615 2.70892 31.2209 2.21842 31.4987C-0.538737 32.9262 -0.801549 37.7588 1.85643 40.4651C2.69607 41.3835 3.79653 42.0234 5.01029 42.299C5.01029 42.3535 5.01029 42.413 5.01029 42.4675C4.92352 43.2814 4.92352 44.1022 5.01029 44.916C5.84338 52.5392 14.1099 57.8972 23.4822 56.8761H23.6657C24.4394 56.7862 25.2075 56.6538 25.9667 56.4796C27.4242 56.1422 28.8397 55.6435 30.1867 54.9927C35.9291 52.2071 39.569 46.8937 38.9491 41.2433C38.8631 40.4287 38.6884 39.626 38.4284 38.8493C38.4132 38.7954 38.395 38.7424 38.3739 38.6906C39.4963 38.1504 40.4271 37.2806 41.0418 36.1975Z"
        fill="#FAFAFA" />
</svg>