<svg width="72" height="83" viewBox="0 0 72 83" fill="none" xmlns="http://www.w3.org/2000/svg">
    <path
        d="M47.4054 32.9864H54.6814C54.8272 32.9864 54.967 32.9279 55.0701 32.824C55.1732 32.72 55.2311 32.579 55.2311 32.4319V0.838631C55.2299 0.616588 55.1419 0.403984 54.9862 0.246974C54.8306 0.0899635 54.6198 0.0012234 54.3996 0H47.6826C47.4624 0.0012234 47.2516 0.0899635 47.0959 0.246974C46.9402 0.403984 46.8522 0.616588 46.851 0.838631V32.4506C46.8558 32.5952 46.9165 32.7321 47.0201 32.8322C47.1237 32.9323 47.2619 32.9877 47.4054 32.9864Z"
        fill="#FAFAFA" />
    <path
        d="M7.09861 32.9864H14.3746C14.5204 32.9864 14.6602 32.9279 14.7633 32.824C14.8664 32.72 14.9244 32.579 14.9244 32.4319V21.1569C14.9244 20.9353 14.8374 20.7227 14.6824 20.5656C14.5275 20.4084 14.3172 20.3195 14.0974 20.3183H7.3804C7.16024 20.3195 6.94943 20.4083 6.79375 20.5653C6.63807 20.7223 6.55008 20.9349 6.54887 21.1569V32.4459C6.55248 32.5905 6.61198 32.728 6.71469 32.8289C6.8174 32.9299 6.95518 32.9864 7.09861 32.9864Z"
        fill="#FAFAFA" />
    <path
        d="M51.9697 62.0684C51.5847 61.8015 51.1433 61.6288 50.6806 61.5641C50.2178 61.4994 49.7465 61.5444 49.3041 61.6957C49.2402 61.2114 49.1508 60.7308 49.0361 60.2561C48.9576 59.9066 48.8606 59.5618 48.7543 59.2171C47.6641 55.7088 45.2988 52.5033 42.2036 50.7282L42.4947 48.9205L40.0971 49.7871L39.843 49.7032C39.6859 49.6566 39.5335 49.6147 39.381 49.5774L39.3348 48.1564V47.7417C39.2285 47.7417 39.1223 47.6998 39.016 47.6905C36.9926 47.4529 35.6391 49.0882 35.4219 49.3631C31.8925 49.829 28.4924 51.865 26.1548 54.6791C25.9239 54.954 25.6929 55.2382 25.4988 55.5271C25.2132 55.923 24.948 56.3336 24.7042 56.7571L24.6349 56.6965C24.2869 56.4067 23.8785 56.2 23.4401 56.0919C23.0017 55.9838 22.5447 55.9771 22.1034 56.0722C20.2555 56.3937 19.0313 58.4483 19.0128 60.6288C19.0002 61.4982 19.1951 62.3579 19.581 63.1354C20.0159 64.0792 20.7269 64.8661 21.6183 65.3904L21.5629 65.5208C21.2912 66.1494 21.0867 66.8054 20.9531 67.4777C20.0291 72.1367 22.6531 76.8331 27.1896 79.5913C28.2555 80.2349 29.3898 80.7554 30.5713 81.1427C31.1853 81.3438 31.8099 81.5102 32.4422 81.6413L32.5901 81.6692C40.2541 83.2114 47.4747 79.3397 48.7174 73.0639C48.8508 72.3923 48.9112 71.708 48.8976 71.0232C48.8976 70.972 48.8976 70.9254 48.8976 70.8788C49.9199 70.7376 50.8755 70.2858 51.637 69.5835C54.0069 67.5056 54.1409 63.4615 51.9697 62.0684Z"
        fill="#FAFAFA" />
    <path
        d="M16.8692 42.3046C17.2945 43.0654 17.9389 43.6779 18.7171 44.0611C18.7027 44.0976 18.6904 44.1349 18.6802 44.1729C18.4946 44.7198 18.3676 45.2853 18.3014 45.8595C17.9826 48.6083 19.0867 51.2594 21.1147 53.314C21.2672 53.2721 21.415 53.2348 21.5767 53.2069C21.9506 53.1423 22.3292 53.1096 22.7085 53.109C23.0177 53.1085 23.3264 53.1303 23.6325 53.1742L23.9281 52.8108C26.4978 49.6726 30.0434 47.5021 33.9898 46.6515C35.24 45.459 36.8889 44.7838 38.6095 44.7599C38.8359 44.7599 39.0715 44.7599 39.3025 44.7972C39.5027 44.8192 39.7016 44.8518 39.8984 44.895C40.2712 44.9668 40.6262 45.112 40.9433 45.3222C41.2604 45.5325 41.5332 45.8037 41.7463 46.1204C42 46.0461 42.2628 46.0084 42.527 46.0086C42.8608 46.0098 43.1919 46.0681 43.5064 46.1809C43.784 45.9927 44.0438 45.779 44.2825 45.5427C46.1535 43.6464 45.9964 40.2359 44.0746 39.2109C43.7325 39.0132 43.3494 38.8984 42.9557 38.8758C42.562 38.8531 42.1685 38.9232 41.8063 39.0805C41.7229 38.6771 41.6165 38.2788 41.4876 37.8878C41.3952 37.6036 41.2936 37.3194 41.1781 37.0351C40.0422 34.1247 37.8782 31.7414 35.1032 30.3447L35.2233 28.8025L33.2645 29.6971L33.0474 29.6458L32.6455 29.5713L32.5115 28.3785L32.4746 28.0338L32.202 28.0105C30.4835 27.9546 29.4579 29.4082 29.2916 29.6645C26.2714 30.3885 23.6237 32.2141 21.8585 34.7895C21.683 35.0364 21.5167 35.288 21.3642 35.5442C21.1521 35.8975 20.9579 36.2614 20.7821 36.6345L20.7175 36.5879C20.4048 36.3689 20.0475 36.2234 19.6717 36.1621C19.2959 36.1008 18.9113 36.1253 18.5462 36.2338C17.0263 36.6298 16.1209 38.4422 16.2363 40.2779C16.287 40.9941 16.5038 41.6883 16.8692 42.3046Z"
        fill="#FAFAFA" />
    <path
        d="M15.4418 45.538C15.4418 45.4448 15.4418 45.347 15.4787 45.2538C15.0747 44.8275 14.7169 44.3589 14.4116 43.856C13.7837 42.8221 13.4128 41.6505 13.3306 40.4409C13.2967 39.8601 13.3262 39.2774 13.4183 38.7031L12.8085 39.3088L12.5868 39.3367C12.4482 39.3367 12.3142 39.3787 12.1803 39.4066L11.649 38.3303L11.4966 38.0229C11.4074 38.0406 11.3195 38.064 11.2332 38.0927C9.59788 38.6332 9.13128 40.3617 9.06199 40.6552C6.47444 42.3756 4.60739 44.9985 3.81864 48.0213C3.73548 48.3148 3.6708 48.6083 3.61075 48.9065C3.53158 49.3101 3.47298 49.7175 3.43519 50.1272H3.35667C2.98893 50.0291 2.60402 50.0159 2.23052 50.0885C1.85702 50.1611 1.50453 50.3176 1.19927 50.5465C-0.0896257 51.4457 -0.325227 53.4631 0.423163 55.1357C0.716871 55.8082 1.16689 56.3995 1.73515 56.8596C2.39773 57.4272 3.21666 57.7767 4.08196 57.8613C4.08196 57.9032 4.08196 57.9405 4.08196 57.9824C4.09116 58.5606 4.16556 59.1358 4.30371 59.697C5.22765 63.5966 8.87258 66.2616 13.3075 66.7508C14.3482 66.8696 15.3989 66.8696 16.4396 66.7508C16.9803 66.6863 17.5171 66.5914 18.0473 66.4666L18.172 66.4386H18.1997C18.1976 66.4107 18.1976 66.3827 18.1997 66.3548C17.7141 65.7861 17.2984 65.1604 16.9616 64.4911C16.3615 63.2913 16.0572 61.9632 16.0747 60.6194C16.0643 59.5294 16.2745 58.4487 16.6923 57.4434C17.1101 56.438 17.7268 55.5291 18.5046 54.7723C17.3726 53.5411 16.5139 52.0806 15.9857 50.4883C15.4576 48.8959 15.2721 47.2083 15.4418 45.538Z"
        fill="#FAFAFA" />
    <path
        d="M68.4943 43.2598C68.1114 43.1668 67.7122 43.1656 67.3287 43.2563C66.9453 43.3469 66.5882 43.5268 66.2861 43.7816C66.0874 43.4182 65.8749 43.0687 65.6439 42.7286C65.473 42.4817 65.2975 42.2627 65.108 42.0018C63.2023 39.5334 60.4569 37.8651 57.4024 37.3194L57.0837 35.8052L55.4575 37.2029H55.2358L54.8246 37.2495L54.2287 35.8192C54.1398 35.8339 54.0518 35.8542 53.9654 35.8798C52.2976 36.3131 51.7248 38.0043 51.6555 38.2932C50.4079 38.9865 49.3001 39.9094 48.3894 41.0141C48.3894 41.0141 48.3894 41.0467 48.3894 41.0653C48.5604 42.2366 48.4614 43.4318 48.1001 44.5582C47.7388 45.6846 47.1248 46.7119 46.3059 47.5601C46.0051 47.8577 45.6824 48.1318 45.3404 48.3801C45.4005 48.687 45.4099 49.0019 45.3681 49.3119C48.2864 51.6055 50.436 54.7476 51.5261 58.3133C51.5723 58.4577 51.6139 58.6068 51.6555 58.7512C52.3209 58.9218 52.9544 59.2003 53.5311 59.5759C54.3766 60.1479 55.0763 60.9132 55.5732 61.8094C56.0701 62.7056 56.3502 63.7075 56.3907 64.7335V64.7754C56.7187 64.7754 57.0513 64.7987 57.3793 64.7754C57.9229 64.7474 58.4644 64.6867 59.0008 64.5938H59.1255C65.6255 63.4569 70.1481 58.2155 69.2334 52.8854C69.1381 52.3161 68.9832 51.7586 68.7715 51.2221C68.7541 51.1857 68.7387 51.1484 68.7252 51.1103C69.4885 50.6857 70.1045 50.0352 70.49 49.2467C71.7327 46.9172 70.6147 43.7024 68.4943 43.2598Z"
        fill="#FAFAFA" />
    <path
        d="M35.1909 25.9978C35.9261 25.9978 36.6311 26.2923 37.1509 26.8166C37.6707 27.3408 37.9627 28.0518 37.9627 28.7932C39.4436 29.7995 40.7369 31.0612 41.7832 32.5205V14.3827C41.782 14.1606 41.694 13.948 41.5383 13.791C41.3826 13.634 41.1718 13.5452 40.9517 13.544H34.2485C34.0284 13.5452 33.8176 13.634 33.6619 13.791C33.5062 13.948 33.4182 14.1606 33.417 14.3827V25.4014C33.8087 25.5481 34.1624 25.7823 34.4518 26.0863C34.6934 26.0249 34.9418 25.9952 35.1909 25.9978Z"
        fill="#FAFAFA" />
    <path
        d="M27.6932 27.158C27.9035 26.9404 28.1272 26.7366 28.363 26.5476V9.86341C28.3618 9.6418 28.2737 9.42968 28.1179 9.27341C27.962 9.11715 27.7512 9.02942 27.5315 9.02943H20.8145C20.5947 9.02942 20.3839 9.11715 20.2281 9.27341C20.0723 9.42968 19.9842 9.6418 19.9829 9.86341V32.5532C21.9335 29.9892 24.6289 28.1031 27.6932 27.158Z"
        fill="#FAFAFA" />
</svg>