<svg width="932" height="130" viewBox="0 0 932 130" fill="none" xmlns="http://www.w3.org/2000/svg">
<rect width="932" height="130" fill="url(#paint0_linear_6653_32834)"/>
<g clip-path="url(#clip0_6653_32834)">
<g filter="url(#filter0_f_6653_32834)">
<path d="M366.345 69.0245C365.727 67.8898 364.937 66.8761 363.995 65.9873C363.548 65.5656 363.153 65.0929 362.665 64.709C362.283 64.4094 361.93 64.072 361.536 63.7816C361.453 63.7204 361.22 63.6456 361.411 63.4214C362.151 62.554 362.697 61.5634 363.164 60.531C363.518 59.7491 363.743 58.9456 363.558 58.0661C363.434 57.4789 363.048 57.0256 362.453 56.9159C362.043 56.8405 361.626 56.8715 361.212 56.9099C360.565 56.9705 359.954 57.1671 359.312 57.4385C359.494 57.0371 359.65 56.6856 359.812 56.3368C360.511 54.8263 361.103 53.2733 361.519 51.663C361.799 50.5795 361.953 49.4703 362.007 48.3456C362.044 47.5773 362.099 46.8136 362.003 46.0465C361.882 45.0842 361.264 44.5595 360.299 44.6215C359.51 44.672 358.856 45.0727 358.223 45.4849C357.293 46.0916 356.515 46.8823 355.751 47.683C355.198 48.2635 354.744 48.9208 354.359 49.6185C354.213 49.8845 354.115 49.8663 353.888 49.7471C349.138 47.2567 344.102 45.7536 338.74 45.3784C336.698 45.2357 334.659 45.2963 332.628 45.53C329.796 45.8552 327.039 46.5085 324.367 47.5079C322.928 48.046 321.532 48.6763 320.189 49.4225C319.729 49.6784 319.743 49.675 319.46 49.238C319.196 48.8285 318.928 48.415 318.614 48.0439C317.907 47.2075 317.116 46.4526 316.231 45.8034C315.551 45.305 314.842 44.8458 314.006 44.6565C313.079 44.4464 312.394 44.8269 312.108 45.695C312.002 46.0196 311.944 46.3603 311.935 46.7045C311.924 47.1631 311.969 47.619 311.995 48.0763C312.053 49.0663 312.157 50.0521 312.368 51.0159C312.735 52.692 313.331 54.2989 314.02 55.8694C314.242 56.3738 314.469 56.8755 314.689 57.3671C314.619 57.4318 314.586 57.4035 314.544 57.3846C313.688 57.0008 312.787 56.8485 311.853 56.8836C311.263 56.9058 310.827 57.1719 310.601 57.7254C310.5 57.9725 310.461 58.2393 310.439 58.5106C310.368 59.4218 310.727 60.2178 311.1 61.0058C311.49 61.8308 311.973 62.6025 312.529 63.3291C312.589 63.4079 312.86 63.519 312.615 63.6921C311.986 64.1393 311.408 64.6504 310.84 65.169C309.872 66.0533 308.983 67.0115 308.266 68.116C307.927 68.5881 307.644 69.0931 307.421 69.6279C307.163 70.2468 306.96 70.8811 307.006 71.5668C307.107 71.7055 307.239 71.7829 307.408 71.8354C308.936 72.3123 310.47 72.7668 312.009 73.2059C313.101 73.5178 314.174 73.9063 315.276 74.1743C316.456 74.4613 317.608 74.8438 318.792 75.1185C320.315 75.472 321.818 75.9219 323.37 76.1388C323.894 76.2121 324.252 76.4674 324.568 76.8775C324.864 77.262 325.13 77.6648 325.414 78.056C325.902 78.7281 326.439 79.3633 326.983 79.9929C327.86 81.0078 328.788 81.9681 329.791 82.8618C331.065 83.9973 332.568 84.5293 334.239 84.7084C334.549 84.7414 334.795 84.7845 335.177 84.8249C336.569 84.8249 337.962 84.8249 339.354 84.8249C339.8 84.7683 340.025 84.7394 340.361 84.7016C341.483 84.5756 342.576 84.3426 343.566 83.785C344.253 83.3979 344.87 82.8995 345.438 82.3526C346.62 81.2139 347.761 80.0326 348.695 78.6776C349.168 77.9908 349.769 77.4163 350.254 76.7435C350.434 76.493 350.546 76.1678 350.911 76.0936C351.59 75.9569 352.269 75.8236 352.943 75.6686C353.901 75.4485 355.008 75.2168 355.945 74.9178C355.96 74.9158 355.974 74.9131 355.988 74.909C357.222 74.5615 358.451 74.2013 359.687 73.8659C360.931 73.5285 362.165 73.1588 363.398 72.7864C364.257 72.527 365.131 72.3143 365.98 72.0274C366.341 71.9055 366.769 71.8948 367.043 71.5594C367.077 70.6421 366.773 69.8084 366.345 69.0245ZM342.704 58.5598C343.554 58.3693 344.403 58.1713 345.28 57.9699C345.244 58.6641 345.273 59.3255 345.418 59.972C345.552 60.566 345.762 61.1378 346.248 61.5451C346.799 62.0085 347.274 61.9499 347.726 61.395C348.236 60.7694 348.288 60.0259 348.275 59.2655C348.273 59.1289 348.231 59.1134 348.092 59.141C347.651 59.2285 347.372 59.0218 347.323 58.5773C347.283 58.2218 347.388 57.8904 347.542 57.5733C347.589 57.4735 347.668 57.4244 347.773 57.4001C349.093 57.0991 350.413 56.796 351.734 56.4936C352.098 59.4569 350.165 62.2173 347.345 62.7844C345.645 63.1264 344.253 62.5103 343.37 61.0199C342.965 60.3384 342.727 59.5935 342.552 58.8251C342.517 58.6756 342.541 58.5969 342.704 58.5598ZM339.604 72.56C339.605 72.5379 339.604 72.5149 339.604 72.4928C339.595 71.8368 339.994 71.3903 340.41 70.9626C340.946 70.4091 341.625 70.133 342.381 70.0434C342.533 70.0253 342.699 70.0353 342.847 70.075C343.116 70.1471 343.308 70.308 343.303 70.6185C343.298 70.9425 343.053 71.0354 342.808 71.0664C342.34 71.1256 341.877 71.195 341.425 71.3358C341.018 71.463 340.693 71.7169 340.386 71.9978C340.233 72.1371 340.168 72.3183 340.246 72.5156C340.314 72.6894 340.394 72.8544 340.22 73.0045C340.106 73.1035 339.969 73.0846 339.838 73.0321C339.622 72.9453 339.592 72.7621 339.604 72.56ZM331.941 70.0366C333.052 70.0374 334.358 70.9215 334.777 71.956C334.846 72.1256 334.865 72.3021 334.861 72.5095C334.876 72.7278 334.873 72.9655 334.576 73.0516C334.452 73.088 334.33 73.088 334.23 72.9904C334.131 72.8934 334.106 72.7709 334.169 72.6516C334.357 72.294 334.175 72.0711 333.918 71.8449C333.329 71.3276 332.612 71.1775 331.87 71.096C331.367 71.0408 331.157 70.9054 331.163 70.597C331.17 70.2461 331.462 70.036 331.941 70.0366ZM322.103 56.4903C323.214 56.7429 324.293 56.9968 325.377 57.2284C325.633 57.2829 325.548 57.4258 325.53 57.5699C325.382 58.6871 325.44 59.7794 325.937 60.8159C326.104 61.166 326.335 61.4644 326.685 61.6543C327.07 61.8638 327.419 61.8266 327.735 61.5243C328.413 60.8738 328.488 60.0333 328.463 59.1639C328.461 59.0615 328.42 59.0494 328.314 59.0629C327.752 59.1376 327.475 58.8743 327.507 58.3073C327.512 58.2184 327.542 58.1308 327.547 58.0419C327.559 57.8083 327.645 57.747 327.891 57.8069C328.926 58.0581 329.965 58.2931 331.007 58.5134C331.299 58.5753 331.355 58.6824 331.28 58.9679C331.092 59.6865 330.867 60.3869 330.485 61.0286C329.606 62.5035 328.223 63.1156 326.537 62.7898C324.142 62.3264 322.846 60.7863 322.313 58.4979C322.161 57.8446 322.083 57.1813 322.103 56.4903ZM352.537 70.8038C352.522 71.0623 352.364 71.1573 352.143 71.1748C351.893 71.1943 351.781 71.0455 351.753 70.8118C351.691 70.2771 351.405 69.8758 350.988 69.5571C350.89 69.4824 350.764 69.4124 350.644 69.4716C350.518 69.5349 350.594 69.6744 350.596 69.7768C350.642 72.2288 349.683 74.2154 347.825 75.7893C347.773 75.833 347.723 75.8781 347.668 75.9165C347.234 76.2216 347.215 76.2195 346.833 75.8384C346.793 75.7986 346.748 75.7636 346.715 75.7185C346.565 75.5104 346.463 75.5273 346.295 75.7346C345.357 76.8916 344.294 77.9146 343.02 78.7066C342.778 78.8575 342.53 78.9114 342.252 78.8884C341.426 78.8211 340.641 78.5834 339.883 78.2729C339.094 77.9504 338.313 77.6015 337.59 77.1455C337.423 77.0399 337.309 77.0513 337.141 77.1469C335.902 77.8588 334.616 78.4568 333.213 78.7868C332.491 78.9565 331.868 78.8844 331.254 78.421C330.217 77.6379 329.272 76.7684 328.457 75.7596C328.3 75.5664 328.217 75.5024 328.012 75.7171C327.487 76.2688 327.473 76.2606 326.881 75.7656C325.13 74.2996 324.227 72.42 324.142 70.1438C324.142 70.009 324.15 69.8736 324.14 69.7404C324.133 69.6488 324.212 69.5241 324.087 69.4703C323.977 69.4225 323.865 69.477 323.772 69.543C323.35 69.84 323.067 70.2388 322.989 70.7505C322.947 71.0246 322.861 71.2051 322.554 71.1741C322.27 71.1451 322.17 70.9788 322.211 70.6334C322.356 69.4198 323.435 68.6224 324.579 68.8804C324.825 68.9356 325.016 69.0474 324.959 69.3329C324.747 70.4058 324.934 71.4294 325.329 72.426C325.745 73.4766 326.372 74.3798 327.237 75.1151C327.411 75.2619 327.521 75.2915 327.708 75.1151C328.349 74.513 328.349 74.4228 328.965 75.2181C329.858 76.3704 330.927 77.3429 332.158 78.1321C332.36 78.2615 332.57 78.2958 332.8 78.2548C333.488 78.1321 334.156 77.9389 334.794 77.656C335.593 77.3011 336.403 76.9624 337.12 76.4499C337.311 76.3131 337.461 76.3684 337.64 76.4775C338.881 77.2351 340.182 77.8548 341.606 78.1948C342.033 78.2971 342.392 78.2649 342.777 78.0029C344.035 77.1469 345.106 76.1064 346.022 74.8989C346.26 74.5851 346.412 74.5635 346.705 74.8221C347.293 75.3414 347.304 75.3509 347.869 74.769C349.159 73.4403 349.87 71.8658 349.861 69.9929C349.861 69.7901 349.843 69.5909 349.789 69.3943C349.72 69.147 349.811 68.9861 350.061 68.9039C351.223 68.5228 352.606 69.5848 352.537 70.8038Z" fill="#21E6C1"/>
</g>
<g filter="url(#filter1_f_6653_32834)">
<path d="M382.059 70.3663C382.664 70.8179 383.2 71.1734 383.678 71.4521C384.147 71.7307 384.576 71.9613 384.957 72.1534C385.338 72.3361 385.699 72.4706 386.03 72.5474C386.372 72.6243 386.753 72.6627 387.162 72.6627C387.992 72.6627 388.734 72.4321 389.378 71.9613C390.022 71.5001 390.344 70.8371 390.344 69.9819V45.0576H404.865V71.6538C404.865 73.8926 404.386 75.8431 403.45 77.5149C402.503 79.1868 401.254 80.5897 399.702 81.7043C398.151 82.8188 396.394 83.6548 394.423 84.1928C392.452 84.7309 390.471 84.9999 388.47 84.9999C387.904 84.9999 387.299 84.9231 386.655 84.7789C386.011 84.6252 385.386 84.4331 384.781 84.1928C384.176 83.9431 383.639 83.6932 383.161 83.4338C382.693 83.1743 382.322 82.9342 382.059 82.7132V70.3663Z" fill="#21E6C1"/>
</g>
<g filter="url(#filter2_f_6653_32834)">
<path d="M407.587 84.1641V45.0576H423.592C426.578 45.0576 429.349 45.538 431.906 46.5085C434.462 47.479 436.659 48.8242 438.513 50.5633C440.367 52.2928 441.82 54.3586 442.885 56.7607C443.938 59.1628 444.475 61.7763 444.475 64.6108C444.475 67.4453 443.948 70.0588 442.885 72.4609C441.82 74.8631 440.367 76.9288 438.513 78.6584C436.659 80.3879 434.453 81.7427 431.906 82.7132C429.349 83.6836 426.578 84.1641 423.592 84.1641H407.587ZM423.592 70.7506C425.67 70.7506 427.212 70.2222 428.217 69.1556C429.222 68.0987 429.72 66.5806 429.72 64.6012C429.72 62.6314 429.222 61.1133 428.217 60.0468C427.212 58.9898 425.67 58.4518 423.592 58.4518H422.118V70.7506H423.592Z" fill="#21E6C1"/>
</g>
<g filter="url(#filter3_f_6653_32834)">
<path d="M447.022 45.0576H461.544V84.1641H447.022V45.0576Z" fill="#21E6C1"/>
</g>
<g filter="url(#filter4_f_6653_32834)">
<path d="M463.934 45H478.455L484.3 56.5109L490.146 45H504.667L491.561 68.1853V84.164H477.039V68.1853L463.934 45Z" fill="white"/>
</g>
<g filter="url(#filter5_f_6653_32834)">
<path d="M507.048 45.0576H521.569V84.1641H507.048V45.0576Z" fill="white"/>
</g>
<g filter="url(#filter6_f_6653_32834)">
<path d="M524.418 45.0576H550.288V56.3956H538.939V59.6337H549.381V69.1844H538.939V72.8164H550.855V84.1544H524.418V45.0576Z" fill="white"/>
</g>
<g filter="url(#filter7_f_6653_32834)">
<path d="M553.636 45.0576H568.157V72.8261H578.599V84.1641H553.636V45.0576Z" fill="white"/>
</g>
<g filter="url(#filter8_f_6653_32834)">
<path d="M580.921 84.1641V45.0576H596.925C599.912 45.0576 602.683 45.538 605.24 46.5085C607.797 47.479 609.992 48.8242 611.846 50.5633C613.7 52.2928 615.154 54.3586 616.219 56.7607C617.272 59.1628 617.809 61.7763 617.809 64.6108C617.809 67.4453 617.282 70.0588 616.219 72.4609C615.154 74.8631 613.7 76.9288 611.846 78.6584C609.992 80.3879 607.787 81.7427 605.24 82.7132C602.683 83.6836 599.912 84.1641 596.925 84.1641H580.921ZM596.925 70.7506C599.004 70.7506 600.546 70.2222 601.551 69.1556C602.557 68.0987 603.053 66.5806 603.053 64.6012C603.053 62.6314 602.557 61.1133 601.551 60.0468C600.546 58.9898 599.004 58.4518 596.925 58.4518H595.452V70.7506H596.925Z" fill="white"/>
</g>
<path d="M366.345 69.0245C365.727 67.8898 364.937 66.8761 363.995 65.9873C363.548 65.5656 363.153 65.0929 362.665 64.709C362.283 64.4094 361.93 64.072 361.536 63.7816C361.453 63.7204 361.22 63.6456 361.411 63.4214C362.151 62.554 362.697 61.5634 363.164 60.531C363.518 59.7491 363.743 58.9456 363.558 58.0661C363.434 57.4789 363.048 57.0256 362.453 56.9159C362.043 56.8405 361.626 56.8715 361.212 56.9099C360.565 56.9705 359.954 57.1671 359.312 57.4385C359.494 57.0371 359.65 56.6856 359.812 56.3368C360.511 54.8263 361.103 53.2733 361.519 51.663C361.799 50.5795 361.953 49.4703 362.007 48.3456C362.044 47.5773 362.099 46.8136 362.003 46.0465C361.882 45.0842 361.264 44.5595 360.299 44.6215C359.51 44.672 358.856 45.0727 358.223 45.4849C357.293 46.0916 356.515 46.8823 355.751 47.683C355.198 48.2635 354.744 48.9208 354.359 49.6185C354.213 49.8845 354.115 49.8663 353.888 49.7471C349.138 47.2567 344.102 45.7536 338.74 45.3784C336.698 45.2357 334.659 45.2963 332.628 45.53C329.796 45.8552 327.039 46.5085 324.367 47.5079C322.928 48.046 321.532 48.6763 320.189 49.4225C319.729 49.6784 319.743 49.675 319.46 49.238C319.196 48.8285 318.928 48.415 318.614 48.0439C317.907 47.2075 317.116 46.4526 316.231 45.8034C315.551 45.305 314.842 44.8458 314.006 44.6565C313.079 44.4464 312.394 44.8269 312.108 45.695C312.002 46.0196 311.944 46.3603 311.935 46.7045C311.924 47.1631 311.969 47.619 311.995 48.0763C312.053 49.0663 312.157 50.0521 312.368 51.0159C312.735 52.692 313.331 54.2989 314.02 55.8694C314.242 56.3738 314.469 56.8755 314.689 57.3671C314.619 57.4318 314.586 57.4035 314.544 57.3846C313.688 57.0008 312.787 56.8485 311.853 56.8836C311.263 56.9058 310.827 57.1719 310.601 57.7254C310.5 57.9725 310.461 58.2393 310.439 58.5106C310.368 59.4218 310.727 60.2178 311.1 61.0058C311.49 61.8308 311.973 62.6025 312.529 63.3291C312.589 63.4079 312.86 63.519 312.615 63.6921C311.986 64.1393 311.408 64.6504 310.84 65.169C309.872 66.0533 308.983 67.0115 308.266 68.116C307.927 68.5881 307.644 69.0931 307.421 69.6279C307.163 70.2468 306.96 70.8811 307.006 71.5668C307.107 71.7055 307.239 71.7829 307.408 71.8354C308.936 72.3123 310.47 72.7668 312.009 73.2059C313.101 73.5178 314.174 73.9063 315.276 74.1743C316.456 74.4613 317.608 74.8438 318.792 75.1185C320.315 75.472 321.818 75.9219 323.37 76.1388C323.894 76.2121 324.252 76.4674 324.568 76.8775C324.864 77.262 325.13 77.6648 325.414 78.056C325.902 78.7281 326.439 79.3633 326.983 79.9929C327.86 81.0078 328.788 81.9681 329.791 82.8618C331.065 83.9973 332.568 84.5293 334.239 84.7084C334.549 84.7414 334.795 84.7845 335.177 84.8249C336.569 84.8249 337.962 84.8249 339.354 84.8249C339.8 84.7683 340.025 84.7394 340.361 84.7016C341.483 84.5756 342.576 84.3426 343.566 83.785C344.253 83.3979 344.87 82.8995 345.438 82.3526C346.62 81.2139 347.761 80.0326 348.695 78.6776C349.168 77.9908 349.769 77.4163 350.254 76.7435C350.434 76.493 350.546 76.1678 350.911 76.0936C351.59 75.9569 352.269 75.8236 352.943 75.6686C353.901 75.4485 355.008 75.2168 355.945 74.9178C355.96 74.9158 355.974 74.9131 355.988 74.909C357.222 74.5615 358.451 74.2013 359.687 73.8659C360.931 73.5285 362.165 73.1588 363.398 72.7864C364.257 72.527 365.131 72.3143 365.98 72.0274C366.341 71.9055 366.769 71.8948 367.043 71.5594C367.077 70.6421 366.773 69.8084 366.345 69.0245ZM342.704 58.5598C343.554 58.3693 344.403 58.1713 345.28 57.9699C345.244 58.6641 345.273 59.3255 345.418 59.972C345.552 60.566 345.762 61.1378 346.248 61.5451C346.799 62.0085 347.274 61.9499 347.726 61.395C348.236 60.7694 348.288 60.0259 348.275 59.2655C348.273 59.1289 348.231 59.1134 348.092 59.141C347.651 59.2285 347.372 59.0218 347.323 58.5773C347.283 58.2218 347.388 57.8904 347.542 57.5733C347.589 57.4735 347.668 57.4244 347.773 57.4001C349.093 57.0991 350.413 56.796 351.734 56.4936C352.098 59.4569 350.165 62.2173 347.345 62.7844C345.645 63.1264 344.253 62.5103 343.37 61.0199C342.965 60.3384 342.727 59.5935 342.552 58.8251C342.517 58.6756 342.541 58.5969 342.704 58.5598ZM339.604 72.56C339.605 72.5379 339.604 72.5149 339.604 72.4928C339.595 71.8368 339.994 71.3903 340.41 70.9626C340.946 70.4091 341.625 70.133 342.381 70.0434C342.533 70.0253 342.699 70.0353 342.847 70.075C343.116 70.1471 343.308 70.308 343.303 70.6185C343.298 70.9425 343.053 71.0354 342.808 71.0664C342.34 71.1256 341.877 71.195 341.425 71.3358C341.018 71.463 340.693 71.7169 340.386 71.9978C340.233 72.1371 340.168 72.3183 340.246 72.5156C340.314 72.6894 340.394 72.8544 340.22 73.0045C340.106 73.1035 339.969 73.0846 339.838 73.0321C339.622 72.9453 339.592 72.7621 339.604 72.56ZM331.941 70.0366C333.052 70.0374 334.358 70.9215 334.777 71.956C334.846 72.1256 334.865 72.3021 334.861 72.5095C334.876 72.7278 334.873 72.9655 334.576 73.0516C334.452 73.088 334.33 73.088 334.23 72.9904C334.131 72.8934 334.106 72.7709 334.169 72.6516C334.357 72.294 334.175 72.0711 333.918 71.8449C333.329 71.3276 332.612 71.1775 331.87 71.096C331.367 71.0408 331.157 70.9054 331.163 70.597C331.17 70.2461 331.462 70.036 331.941 70.0366ZM322.103 56.4903C323.214 56.7429 324.293 56.9968 325.377 57.2284C325.633 57.2829 325.548 57.4258 325.53 57.5699C325.382 58.6871 325.44 59.7794 325.937 60.8159C326.104 61.166 326.335 61.4644 326.685 61.6543C327.07 61.8638 327.419 61.8266 327.735 61.5243C328.413 60.8738 328.488 60.0333 328.463 59.1639C328.461 59.0615 328.42 59.0494 328.314 59.0629C327.752 59.1376 327.475 58.8743 327.507 58.3073C327.512 58.2184 327.542 58.1308 327.547 58.0419C327.559 57.8083 327.645 57.747 327.891 57.8069C328.926 58.0581 329.965 58.2931 331.007 58.5134C331.299 58.5753 331.355 58.6824 331.28 58.9679C331.092 59.6865 330.867 60.3869 330.485 61.0286C329.606 62.5035 328.223 63.1156 326.537 62.7898C324.142 62.3264 322.846 60.7863 322.313 58.4979C322.161 57.8446 322.083 57.1813 322.103 56.4903ZM352.537 70.8038C352.522 71.0623 352.364 71.1573 352.143 71.1748C351.893 71.1943 351.781 71.0455 351.753 70.8118C351.691 70.2771 351.405 69.8758 350.988 69.5571C350.89 69.4824 350.764 69.4124 350.644 69.4716C350.518 69.5349 350.594 69.6744 350.596 69.7768C350.642 72.2288 349.683 74.2154 347.825 75.7893C347.773 75.833 347.723 75.8781 347.668 75.9165C347.234 76.2216 347.215 76.2195 346.833 75.8384C346.793 75.7986 346.748 75.7636 346.715 75.7185C346.565 75.5104 346.463 75.5273 346.295 75.7346C345.357 76.8916 344.294 77.9146 343.02 78.7066C342.778 78.8575 342.53 78.9114 342.252 78.8884C341.426 78.8211 340.641 78.5834 339.883 78.2729C339.094 77.9504 338.313 77.6015 337.59 77.1455C337.423 77.0399 337.309 77.0513 337.141 77.1469C335.902 77.8588 334.616 78.4568 333.213 78.7868C332.491 78.9565 331.868 78.8844 331.254 78.421C330.217 77.6379 329.272 76.7684 328.457 75.7596C328.3 75.5664 328.217 75.5024 328.012 75.7171C327.487 76.2688 327.473 76.2606 326.881 75.7656C325.13 74.2996 324.227 72.42 324.142 70.1438C324.142 70.009 324.15 69.8736 324.14 69.7404C324.133 69.6488 324.212 69.5241 324.087 69.4703C323.977 69.4225 323.865 69.477 323.772 69.543C323.35 69.84 323.067 70.2388 322.989 70.7505C322.947 71.0246 322.861 71.2051 322.554 71.1741C322.27 71.1451 322.17 70.9788 322.211 70.6334C322.356 69.4198 323.435 68.6224 324.579 68.8804C324.825 68.9356 325.016 69.0474 324.959 69.3329C324.747 70.4058 324.934 71.4294 325.329 72.426C325.745 73.4766 326.372 74.3798 327.237 75.1151C327.411 75.2619 327.521 75.2915 327.708 75.1151C328.349 74.513 328.349 74.4228 328.965 75.2181C329.858 76.3704 330.927 77.3429 332.158 78.1321C332.36 78.2615 332.57 78.2958 332.8 78.2548C333.488 78.1321 334.156 77.9389 334.794 77.656C335.593 77.3011 336.403 76.9624 337.12 76.4499C337.311 76.3131 337.461 76.3684 337.64 76.4775C338.881 77.2351 340.182 77.8548 341.606 78.1948C342.033 78.2971 342.392 78.2649 342.777 78.0029C344.035 77.1469 345.106 76.1064 346.022 74.8989C346.26 74.5851 346.412 74.5635 346.705 74.8221C347.293 75.3414 347.304 75.3509 347.869 74.769C349.159 73.4403 349.87 71.8658 349.861 69.9929C349.861 69.7901 349.843 69.5909 349.789 69.3943C349.72 69.147 349.811 68.9861 350.061 68.9039C351.223 68.5228 352.606 69.5848 352.537 70.8038Z" fill="#21E6C1"/>
<path d="M382.059 70.3663C382.664 70.8179 383.2 71.1734 383.678 71.4521C384.147 71.7307 384.576 71.9613 384.957 72.1534C385.338 72.3361 385.699 72.4706 386.03 72.5474C386.372 72.6243 386.753 72.6627 387.162 72.6627C387.992 72.6627 388.734 72.4321 389.378 71.9613C390.022 71.5001 390.344 70.8371 390.344 69.9819V45.0576H404.865V71.6538C404.865 73.8926 404.386 75.8431 403.45 77.5149C402.503 79.1868 401.254 80.5897 399.702 81.7043C398.151 82.8188 396.394 83.6548 394.423 84.1928C392.452 84.7309 390.471 84.9999 388.47 84.9999C387.904 84.9999 387.299 84.9231 386.655 84.7789C386.011 84.6252 385.386 84.4331 384.781 84.1928C384.176 83.9431 383.639 83.6932 383.161 83.4338C382.693 83.1743 382.322 82.9342 382.059 82.7132V70.3663Z" fill="#21E6C1"/>
<path d="M407.587 84.1641V45.0576H423.592C426.578 45.0576 429.349 45.538 431.906 46.5085C434.462 47.479 436.659 48.8242 438.513 50.5633C440.367 52.2928 441.82 54.3586 442.885 56.7607C443.938 59.1628 444.475 61.7763 444.475 64.6108C444.475 67.4453 443.948 70.0588 442.885 72.4609C441.82 74.8631 440.367 76.9288 438.513 78.6584C436.659 80.3879 434.453 81.7427 431.906 82.7132C429.349 83.6836 426.578 84.1641 423.592 84.1641H407.587ZM423.592 70.7506C425.67 70.7506 427.212 70.2222 428.217 69.1556C429.222 68.0987 429.72 66.5806 429.72 64.6012C429.72 62.6314 429.222 61.1133 428.217 60.0468C427.212 58.9898 425.67 58.4518 423.592 58.4518H422.118V70.7506H423.592Z" fill="#21E6C1"/>
<path d="M447.022 45.0576H461.544V84.1641H447.022V45.0576Z" fill="#21E6C1"/>
<path d="M463.934 45H478.455L484.3 56.5109L490.146 45H504.667L491.561 68.1853V84.164H477.039V68.1853L463.934 45Z" fill="white"/>
<path d="M507.048 45.0576H521.569V84.1641H507.048V45.0576Z" fill="white"/>
<path d="M524.418 45.0576H550.288V56.3956H538.939V59.6337H549.381V69.1844H538.939V72.8164H550.855V84.1544H524.418V45.0576Z" fill="white"/>
<path d="M553.636 45.0576H568.157V72.8261H578.599V84.1641H553.636V45.0576Z" fill="white"/>
<path d="M580.921 84.1641V45.0576H596.925C599.912 45.0576 602.683 45.538 605.24 46.5085C607.797 47.479 609.992 48.8242 611.846 50.5633C613.7 52.2928 615.154 54.3586 616.219 56.7607C617.272 59.1628 617.809 61.7763 617.809 64.6108C617.809 67.4453 617.282 70.0588 616.219 72.4609C615.154 74.8631 613.7 76.9288 611.846 78.6584C609.992 80.3879 607.787 81.7427 605.24 82.7132C602.683 83.6836 599.912 84.1641 596.925 84.1641H580.921ZM596.925 70.7506C599.004 70.7506 600.546 70.2222 601.551 69.1556C602.557 68.0987 603.053 66.5806 603.053 64.6012C603.053 62.6314 602.557 61.1133 601.551 60.0468C600.546 58.9898 599.004 58.4518 596.925 58.4518H595.452V70.7506H596.925Z" fill="white"/>
</g>
<defs>
<filter id="filter0_f_6653_32834" x="305" y="42.5999" width="64.0459" height="44.2251" filterUnits="userSpaceOnUse" color-interpolation-filters="sRGB">
<feFlood flood-opacity="0" result="BackgroundImageFix"/>
<feBlend mode="normal" in="SourceGraphic" in2="BackgroundImageFix" result="shape"/>
<feGaussianBlur stdDeviation="1" result="effect1_foregroundBlur_6653_32834"/>
</filter>
<filter id="filter1_f_6653_32834" x="378.059" y="41.0576" width="30.8062" height="47.9424" filterUnits="userSpaceOnUse" color-interpolation-filters="sRGB">
<feFlood flood-opacity="0" result="BackgroundImageFix"/>
<feBlend mode="normal" in="SourceGraphic" in2="BackgroundImageFix" result="shape"/>
<feGaussianBlur stdDeviation="2" result="effect1_foregroundBlur_6653_32834"/>
</filter>
<filter id="filter2_f_6653_32834" x="403.587" y="41.0576" width="44.8877" height="47.1064" filterUnits="userSpaceOnUse" color-interpolation-filters="sRGB">
<feFlood flood-opacity="0" result="BackgroundImageFix"/>
<feBlend mode="normal" in="SourceGraphic" in2="BackgroundImageFix" result="shape"/>
<feGaussianBlur stdDeviation="2" result="effect1_foregroundBlur_6653_32834"/>
</filter>
<filter id="filter3_f_6653_32834" x="443.022" y="41.0576" width="22.5215" height="47.1064" filterUnits="userSpaceOnUse" color-interpolation-filters="sRGB">
<feFlood flood-opacity="0" result="BackgroundImageFix"/>
<feBlend mode="normal" in="SourceGraphic" in2="BackgroundImageFix" result="shape"/>
<feGaussianBlur stdDeviation="2" result="effect1_foregroundBlur_6653_32834"/>
</filter>
<filter id="filter4_f_6653_32834" x="459.934" y="41" width="48.7334" height="47.1641" filterUnits="userSpaceOnUse" color-interpolation-filters="sRGB">
<feFlood flood-opacity="0" result="BackgroundImageFix"/>
<feBlend mode="normal" in="SourceGraphic" in2="BackgroundImageFix" result="shape"/>
<feGaussianBlur stdDeviation="2" result="effect1_foregroundBlur_6653_32834"/>
</filter>
<filter id="filter5_f_6653_32834" x="503.048" y="41.0576" width="22.5215" height="47.1064" filterUnits="userSpaceOnUse" color-interpolation-filters="sRGB">
<feFlood flood-opacity="0" result="BackgroundImageFix"/>
<feBlend mode="normal" in="SourceGraphic" in2="BackgroundImageFix" result="shape"/>
<feGaussianBlur stdDeviation="2" result="effect1_foregroundBlur_6653_32834"/>
</filter>
<filter id="filter6_f_6653_32834" x="520.418" y="41.0576" width="34.437" height="47.0969" filterUnits="userSpaceOnUse" color-interpolation-filters="sRGB">
<feFlood flood-opacity="0" result="BackgroundImageFix"/>
<feBlend mode="normal" in="SourceGraphic" in2="BackgroundImageFix" result="shape"/>
<feGaussianBlur stdDeviation="2" result="effect1_foregroundBlur_6653_32834"/>
</filter>
<filter id="filter7_f_6653_32834" x="549.636" y="41.0576" width="32.9634" height="47.1064" filterUnits="userSpaceOnUse" color-interpolation-filters="sRGB">
<feFlood flood-opacity="0" result="BackgroundImageFix"/>
<feBlend mode="normal" in="SourceGraphic" in2="BackgroundImageFix" result="shape"/>
<feGaussianBlur stdDeviation="2" result="effect1_foregroundBlur_6653_32834"/>
</filter>
<filter id="filter8_f_6653_32834" x="576.921" y="41.0576" width="44.8877" height="47.1064" filterUnits="userSpaceOnUse" color-interpolation-filters="sRGB">
<feFlood flood-opacity="0" result="BackgroundImageFix"/>
<feBlend mode="normal" in="SourceGraphic" in2="BackgroundImageFix" result="shape"/>
<feGaussianBlur stdDeviation="2" result="effect1_foregroundBlur_6653_32834"/>
</filter>
<linearGradient id="paint0_linear_6653_32834" x1="466" y1="0" x2="466" y2="130" gradientUnits="userSpaceOnUse">
<stop stop-color="#061D3E"/>
<stop offset="1" stop-color="#092146"/>
</linearGradient>
<clipPath id="clip0_6653_32834">
<rect width="319" height="60" fill="white" transform="translate(307 35)"/>
</clipPath>
</defs>
</svg>
