<svg width="932" height="130" viewBox="0 0 932 130" fill="none" xmlns="http://www.w3.org/2000/svg">
  <rect width="932" height="130" fill="url(#paint0_linear_3108_6083)" />
  <path
    d="M404.733 52.4983H410.24V81.7057H406.82V81.7492L391.464 62.04V81.7057H385.96V52.5418H390.422L404.733 70.6082V52.4983Z"
    fill="white" />
  <path d="M415.288 81.7057V52.5986H436.271V57.8914H420.795V65.8473H435.441V70.9294H420.795V81.7057H415.288Z"
    fill="white" />
  <path d="M448.914 57.5404H439.651V52.542H463.683V57.5404H454.421V81.7059H448.914V57.5404Z" fill="white" />
  <path
    d="M481.079 64.5829L488.837 52.5386H495.473V52.7861L483.832 69.6615V81.7058H478.325V69.6615L467.103 52.7861V52.5386H473.652L481.079 64.5829Z"
    fill="white" />
  <path d="M511.824 52.542V76.6306H526.844V81.7059H506.32V52.542H511.824Z" fill="white" />
  <path
    d="M553.127 76.2057H537.852L535.35 81.7059H529.39L542.488 52.542H548.498L561.595 81.7059H555.606L553.127 76.2057ZM545.493 58.6645L540.069 71.1002H550.916L545.493 58.6645Z"
    fill="white" />
  <path
    d="M589.047 60.9998C589.047 63.248 587.962 65.416 585.248 66.6238C588.672 67.6643 589.938 71.2909 589.938 73.1243C589.938 79.6249 585.058 81.7059 579.008 81.7059H565.139V52.542H578.991C584.749 52.542 589.047 55.1248 589.047 60.9998ZM570.563 64.2484H578.991C582.455 64.2484 583.58 62.7897 583.58 61.1235C583.58 59.7853 582.495 57.5404 578.991 57.5404H570.563V64.2484ZM570.563 76.5837H578.991C581.245 76.5837 584.458 75.8309 584.458 73.0842C584.458 70.4579 581.245 69.0694 578.991 69.0694H570.563V76.5837Z"
    fill="white" />
  <path
    d="M612.7 59.581C611.696 57.9082 608.945 56.3324 605.776 56.3324C601.686 56.3324 599.727 58.0387 599.727 60.2067C599.727 62.7493 602.741 63.4553 606.235 63.8869C612.325 64.6363 618 66.2288 618 73.1777C618 79.6782 612.242 82.4719 605.733 82.4719C599.767 82.4719 595.177 80.6351 593.003 75.3022L597.589 72.9268C598.886 76.1352 602.262 77.5538 605.81 77.5538C609.274 77.5538 612.526 76.346 612.526 73.1777C612.526 70.4309 609.649 69.3034 605.77 68.8852C599.804 68.1793 594.296 66.5968 594.296 60.0528C594.296 54.054 600.219 51.595 605.602 51.5515C610.148 51.5515 614.864 52.8463 617.075 57.3428L612.7 59.581Z"
    fill="white" />
  <path
    d="M404.733 52.4983H410.24V81.7057H406.82V81.7492L391.464 62.04V81.7057H385.96V52.5418H390.422L404.733 70.6082V52.4983Z"
    fill="white" />
  <path d="M415.288 81.7057V52.5986H436.271V57.8914H420.795V65.8473H435.441V70.9294H420.795V81.7057H415.288Z"
    fill="white" />
  <path d="M448.914 57.5404H439.651V52.542H463.683V57.5404H454.421V81.7059H448.914V57.5404Z" fill="white" />
  <path
    d="M481.079 64.5829L488.837 52.5386H495.473V52.7861L483.832 69.6615V81.7058H478.325V69.6615L467.103 52.7861V52.5386H473.652L481.079 64.5829Z"
    fill="white" />
  <path d="M511.824 52.542V76.6306H526.844V81.7059H506.32V52.542H511.824Z" fill="white" />
  <path
    d="M553.127 76.2057H537.852L535.35 81.7059H529.39L542.488 52.542H548.498L561.595 81.7059H555.606L553.127 76.2057ZM545.493 58.6645L540.069 71.1002H550.916L545.493 58.6645Z"
    fill="white" />
  <path
    d="M589.047 60.9998C589.047 63.248 587.962 65.416 585.248 66.6238C588.672 67.6643 589.938 71.2909 589.938 73.1243C589.938 79.6249 585.058 81.7059 579.008 81.7059H565.139V52.542H578.991C584.749 52.542 589.047 55.1248 589.047 60.9998ZM570.563 64.2484H578.991C582.455 64.2484 583.58 62.7897 583.58 61.1235C583.58 59.7853 582.495 57.5404 578.991 57.5404H570.563V64.2484ZM570.563 76.5837H578.991C581.245 76.5837 584.458 75.8309 584.458 73.0842C584.458 70.4579 581.245 69.0694 578.991 69.0694H570.563V76.5837Z"
    fill="white" />
  <path
    d="M612.7 59.581C611.696 57.9082 608.945 56.3324 605.776 56.3324C601.686 56.3324 599.727 58.0387 599.727 60.2067C599.727 62.7493 602.741 63.4553 606.235 63.8869C612.325 64.6363 618 66.2288 618 73.1777C618 79.6782 612.242 82.4719 605.733 82.4719C599.767 82.4719 595.177 80.6351 593.003 75.3022L597.589 72.9268C598.886 76.1352 602.262 77.5538 605.81 77.5538C609.274 77.5538 612.526 76.346 612.526 73.1777C612.526 70.4309 609.649 69.3034 605.77 68.8852C599.804 68.1793 594.296 66.5968 594.296 60.0528C594.296 54.054 600.219 51.595 605.602 51.5515C610.148 51.5515 614.864 52.8463 617.075 57.3428L612.7 59.581Z"
    fill="white" />
  <path
    d="M369.013 66.9944C369.027 74.5267 366.596 81.8601 362.085 87.892C361.964 88.0648 361.842 88.2368 361.711 88.3985C360.75 89.6426 359.708 90.8213 358.591 91.9266C358.517 92.0082 358.439 92.0788 358.358 92.1596C356.466 93.9857 354.377 95.5962 352.129 96.9616C352.098 96.9814 352.056 97.002 352.028 97.0219C350.497 97.9487 348.895 98.7517 347.237 99.4232C347.177 99.4533 347.105 99.4739 347.035 99.5041C344.959 100.345 342.805 100.976 340.603 101.388C340.309 101.449 340.016 101.5 339.722 101.54C337.831 101.857 335.917 102.015 333.999 102.013H333.926C324.858 102.006 316.148 98.4708 309.638 92.1567C309.556 92.0758 309.476 92.0053 309.405 91.9237C308.288 90.8185 307.245 89.6399 306.285 88.3955C306.154 88.2338 306.032 88.0618 305.911 87.8891C301.39 81.823 298.959 74.4539 298.983 66.8883C299.006 59.3226 301.483 51.9689 306.042 45.9313C306.116 45.8203 306.204 45.7108 306.285 45.5976C307.287 44.293 308.383 43.0645 309.567 41.9224L309.648 41.8416C311.534 40.0127 313.62 38.4019 315.867 37.0396C315.968 36.9786 316.059 36.9183 316.161 36.8676C317.695 35.951 319.3 35.1583 320.961 34.4971C321.001 34.4766 321.052 34.467 321.093 34.4464C323.229 33.5958 325.444 32.9613 327.707 32.5522C328.082 32.4787 328.466 32.4207 328.841 32.37C330.548 32.1131 332.273 31.9846 333.999 31.9855H334.394C334.482 31.9838 334.57 31.9873 334.658 31.9958C343.519 32.1477 351.99 35.6696 358.348 41.8453L358.429 41.9261C359.612 43.0682 360.709 44.2966 361.711 45.6013C361.791 45.7123 361.883 45.8218 361.954 45.935C366.548 51.9929 369.028 59.391 369.013 66.9944Z"
    fill="white" />
  <path
    d="M369.013 66.9944C369.027 74.5267 366.596 81.8601 362.085 87.892C361.964 88.0648 361.842 88.2368 361.711 88.3985C360.75 89.6426 359.708 90.8213 358.591 91.9266C358.517 92.0082 358.439 92.0788 358.358 92.1596C356.466 93.9857 354.377 95.5962 352.129 96.9616C352.098 96.9814 352.056 97.002 352.028 97.0219C350.497 97.9487 348.895 98.7517 347.237 99.4232C347.177 99.4533 347.105 99.4739 347.035 99.5041C344.959 100.345 342.805 100.976 340.603 101.388C340.309 101.449 340.016 101.5 339.722 101.54C337.831 101.857 335.917 102.015 333.999 102.013H333.926C324.858 102.006 316.148 98.4708 309.638 92.1567C309.556 92.0758 309.476 92.0053 309.405 91.9237C308.288 90.8185 307.245 89.6399 306.285 88.3955C306.154 88.2338 306.032 88.0618 305.911 87.8891C301.39 81.823 298.959 74.4539 298.983 66.8883C299.006 59.3226 301.483 51.9689 306.042 45.9313C306.116 45.8203 306.204 45.7108 306.285 45.5976C307.287 44.293 308.383 43.0645 309.567 41.9224L309.648 41.8416C311.534 40.0127 313.62 38.4019 315.867 37.0396C315.968 36.9786 316.059 36.9183 316.161 36.8676C317.695 35.951 319.3 35.1583 320.961 34.4971C321.001 34.4766 321.052 34.467 321.093 34.4464C323.229 33.5958 325.444 32.9613 327.707 32.5522C328.082 32.4787 328.466 32.4207 328.841 32.37C330.548 32.1131 332.273 31.9846 333.999 31.9855H334.394C334.482 31.9838 334.57 31.9873 334.658 31.9958C343.519 32.1477 351.99 35.6696 358.348 41.8453L358.429 41.9261C359.612 43.0682 360.709 44.2966 361.711 45.6013C361.791 45.7123 361.883 45.8218 361.954 45.935C366.548 51.9929 369.028 59.391 369.013 66.9944Z"
    fill="url(#paint1_linear_3108_6083)" />
  <path
    d="M345.86 66.8226L361.955 45.9345C361.881 45.8235 361.792 45.714 361.711 45.6008C360.71 44.2961 359.613 43.0677 358.43 41.9256L351.916 50.3917C351.725 50.6387 351.479 50.8384 351.199 50.9755C350.918 51.1126 350.61 51.1834 350.297 51.1825C349.985 51.1816 349.677 51.1089 349.397 50.9702C349.117 50.8314 348.873 50.6302 348.683 50.3821L334.661 31.9961C334.573 31.9875 334.485 31.9841 334.397 31.9858H334C332.274 31.9853 330.55 32.114 328.844 32.3709L345.495 54.2102C346.087 54.9911 346.346 55.9747 346.216 56.9461C346.085 57.9175 345.576 58.7977 344.798 59.3945C344.021 59.9913 343.039 60.2561 342.067 60.1312C341.095 60.0063 340.212 59.5017 339.611 58.7277L321.157 34.7715C321.083 34.6804 321.025 34.5893 320.964 34.4981C319.303 35.1593 317.698 35.952 316.164 36.8686L328.814 53.2995C329.364 54.0133 329.656 54.8925 329.643 55.7938C329.63 56.695 329.312 57.5652 328.74 58.2624C328.7 58.3234 328.64 58.3741 328.599 58.4352C328.227 58.9203 327.748 59.3134 327.2 59.584C326.652 59.8545 326.05 59.9952 325.438 59.9952C324.827 59.9952 324.224 59.8545 323.676 59.584C323.128 59.3134 322.65 58.9203 322.278 58.4352L309.564 41.9234C308.381 43.0655 307.284 44.2939 306.283 45.5986C306.202 45.7095 306.111 45.8191 306.039 45.9323L322.134 66.8204L305.914 87.8923C306.035 88.065 306.157 88.237 306.288 88.3987C307.248 89.643 308.291 90.8217 309.408 91.9269L316.234 83.0602C316.425 82.8138 316.669 82.6145 316.949 82.4777C317.228 82.3409 317.536 82.2703 317.847 82.2713C318.159 82.2723 318.466 82.3448 318.744 82.4834C319.023 82.622 319.266 82.8229 319.455 83.0705L333.736 101.709C333.807 101.806 333.871 101.908 333.928 102.014H334.002C335.919 102.014 337.833 101.855 339.724 101.537L322.6 79.1807C322.191 78.6496 321.94 78.0145 321.873 77.3475C321.807 76.6806 321.929 76.0084 322.225 75.4073C322.522 74.8062 322.981 74.3001 323.55 73.9466C324.119 73.593 324.776 73.4061 325.446 73.407C325.995 73.4043 326.537 73.529 327.029 73.7713C327.521 74.0137 327.95 74.3671 328.282 74.8036L328.606 75.2189C328.607 75.2188 328.609 75.2189 328.61 75.2194C328.611 75.2198 328.612 75.2205 328.613 75.2214C328.614 75.2223 328.615 75.2234 328.615 75.2246C328.616 75.2258 328.616 75.2271 328.616 75.2284L347.04 99.1169C347.114 99.2184 347.182 99.3198 347.242 99.4212C348.901 98.7498 350.503 97.9468 352.033 97.0199L339.185 80.356C338.635 79.6421 338.342 78.7627 338.356 77.8613C338.369 76.9599 338.687 76.0897 339.259 75.3923C339.299 75.3324 339.343 75.275 339.39 75.2203C339.762 74.7349 340.24 74.3415 340.788 74.0708C341.336 73.8001 341.939 73.6593 342.55 73.6593C343.162 73.6593 343.765 73.8001 344.313 74.0708C344.861 74.3415 345.339 74.7349 345.711 75.2203L358.594 91.9239C359.711 90.8186 360.753 89.6399 361.714 88.3958C361.845 88.2341 361.967 88.0621 362.088 87.8893L345.86 66.8226ZM337.909 68.5646L335.249 72.0296C335.101 72.2187 334.912 72.3717 334.696 72.4769C334.48 72.5821 334.243 72.6367 334.003 72.6367C333.763 72.6367 333.526 72.5821 333.31 72.4769C333.094 72.3717 332.905 72.2187 332.757 72.0296L330.09 68.5646C329.706 68.067 329.497 67.4561 329.497 66.8274C329.497 66.1987 329.706 65.5877 330.09 65.0901L332.754 61.6259C332.902 61.4367 333.091 61.2836 333.307 61.1783C333.522 61.073 333.759 61.0183 334 61.0183C334.24 61.0183 334.477 61.073 334.693 61.1783C334.908 61.2836 335.097 61.4367 335.245 61.6259L337.909 65.0887C338.293 65.5864 338.502 66.1976 338.502 66.8266C338.502 67.4557 338.293 68.0669 337.909 68.5646Z"
    fill="white" />
  <path
    d="M333.999 102.999H333.925C324.6 102.999 315.643 99.3634 308.954 92.8654L308.944 92.8551L308.877 92.7911C308.821 92.7368 308.758 92.6765 308.692 92.603C307.554 91.4765 306.493 90.2763 305.514 89.0101C305.367 88.8279 305.233 88.639 305.115 88.4714C300.46 82.2302 297.999 74.8042 297.999 66.9945C297.984 59.1882 300.527 51.592 305.237 45.3677C305.298 45.275 305.361 45.192 305.417 45.1177L305.491 45.0207L305.506 45.0001C306.536 43.6589 307.663 42.3954 308.879 41.2199L308.966 41.1339C310.905 39.2541 313.05 37.5983 315.36 36.1974L315.433 36.1511C315.506 36.1063 315.587 36.0555 315.683 36.0041C317.247 35.0722 318.882 34.2651 320.573 33.5903C320.627 33.5667 320.672 33.5506 320.704 33.5403L320.729 33.53C322.926 32.6558 325.205 32.0037 327.531 31.5836C327.899 31.5101 328.295 31.4498 328.707 31.3947C330.459 31.132 332.228 31 333.999 31H334.393C334.487 31 334.592 31 334.715 31.011C343.813 31.1721 352.508 34.7915 359.033 41.1339L359.119 41.2199C360.335 42.3951 361.462 43.6586 362.492 45.0001L362.507 45.02C362.53 45.0516 362.554 45.0839 362.581 45.1155C362.637 45.189 362.701 45.2743 362.763 45.3677C367.473 51.5921 370.015 59.1883 370.001 66.9945C370.001 74.8042 367.54 82.2302 362.885 88.4714C362.761 88.6478 362.632 88.8293 362.485 89.0109C361.506 90.2768 360.445 91.4768 359.308 92.603C359.242 92.6765 359.177 92.739 359.123 92.7904L359.057 92.8544L359.044 92.8676C357.101 94.7412 354.956 96.3941 352.65 97.796C352.624 97.8121 352.595 97.8291 352.567 97.8452L352.539 97.8621C350.971 98.8109 349.331 99.6338 347.634 100.323C347.568 100.354 347.509 100.375 347.464 100.392L347.422 100.408L347.403 100.416C345.269 101.279 343.055 101.929 340.793 102.355C340.489 102.417 340.179 102.471 339.871 102.513C337.93 102.838 335.966 103 333.999 102.999ZM310.334 91.4534C316.656 97.5914 325.119 101.025 333.93 101.027H333.999C335.861 101.027 337.721 100.873 339.558 100.565L339.586 100.56C339.859 100.523 340.133 100.475 340.402 100.419H340.422C342.556 100.019 344.644 99.4074 346.657 98.5935C346.699 98.5758 346.742 98.5597 346.783 98.545L346.81 98.5347L346.866 98.5104C348.471 97.8579 350.023 97.0788 351.505 96.1804C351.531 96.1635 351.56 96.1466 351.589 96.1304L351.618 96.1128C353.8 94.7869 355.829 93.2233 357.667 91.4505L357.757 91.3637C357.794 91.3277 357.83 91.2902 357.848 91.2733L357.896 91.2211C358.982 90.1496 359.995 89.0071 360.929 87.801L360.945 87.7797C361.054 87.6474 361.159 87.4967 361.273 87.3387L361.295 87.3078C365.699 81.4018 368.026 74.3801 368.026 66.9945C368.041 59.606 365.631 52.4167 361.166 46.5305L361.12 46.4636C361.095 46.4232 361.051 46.3666 361.006 46.3063C360.977 46.2681 360.948 46.2328 360.92 46.1916C359.95 44.9289 358.888 43.7393 357.743 42.6326L357.654 42.5451C351.479 36.5445 343.248 33.1246 334.64 32.9824H334.593L334.548 32.9772C334.512 32.9772 334.468 32.9772 334.393 32.9772H333.999C332.322 32.9772 330.648 33.1023 328.99 33.3514H328.975C328.596 33.4021 328.232 33.4609 327.892 33.5248H327.885C325.696 33.9212 323.551 34.5345 321.484 35.3558C321.441 35.3747 321.397 35.3914 321.353 35.4058L321.329 35.4153C319.718 36.0573 318.16 36.8263 316.67 37.7152L316.604 37.752C316.569 37.7689 316.523 37.7983 316.469 37.8314L316.376 37.888C314.197 39.21 312.173 40.7721 310.341 42.5451L310.254 42.6326C309.109 43.7391 308.047 44.9284 307.077 46.1909L306.989 46.3085C306.945 46.368 306.901 46.4246 306.876 46.4643L306.83 46.5305C302.366 52.4171 299.957 59.6062 299.972 66.9945C299.972 74.3801 302.3 81.4011 306.704 87.3027L306.72 87.324C306.828 87.4791 306.94 87.6393 307.053 87.7768L307.07 87.7966C308.003 89.0052 309.016 90.15 310.102 91.2233L310.15 91.2748C310.169 91.2961 310.205 91.3306 310.242 91.3667C310.28 91.4027 310.301 91.4233 310.334 91.4534Z"
    fill="white" />
  <defs>
    <linearGradient id="paint0_linear_3108_6083" x1="107.5" y1="-22.4999" x2="1003" y2="184"
      gradientUnits="userSpaceOnUse">
      <stop stop-color="#D51F7B" />
      <stop offset="1" stop-color="#812981" />
    </linearGradient>
    <linearGradient id="paint1_linear_3108_6083" x1="298.985" y1="66.9995" x2="369.013" y2="66.9995"
      gradientUnits="userSpaceOnUse">
      <stop stop-color="#DB1D7A" />
      <stop offset="1" stop-color="#772A81" />
    </linearGradient>
  </defs>
</svg>