<svg width="70" height="71" viewBox="0 0 70 71" fill="none" xmlns="http://www.w3.org/2000/svg">
    <path
        d="M9.02 2.816C9.02 2.14133 9.57733 1.51067 10.692 0.923999C11.8067 0.308 13.2733 0 15.092 0C16.5 0 17.4093 0.293333 17.82 0.879999C18.1133 1.29067 18.26 1.672 18.26 2.024V3.344C21.5747 3.696 23.8773 4.312 25.168 5.192C25.696 5.544 25.96 5.88133 25.96 6.204C25.96 7.72933 25.5933 9.372 24.86 11.132C24.156 12.892 23.4667 13.772 22.792 13.772C22.6747 13.772 22.2933 13.64 21.648 13.376C19.712 12.5253 18.0987 12.1 16.808 12.1C15.5467 12.1 14.6813 12.2173 14.212 12.452C13.772 12.6867 13.552 13.0533 13.552 13.552C13.552 14.0213 13.8747 14.388 14.52 14.652C15.1653 14.916 15.9573 15.1507 16.896 15.356C17.864 15.532 18.9053 15.84 20.02 16.28C21.164 16.72 22.22 17.248 23.188 17.864C24.156 18.48 24.9627 19.404 25.608 20.636C26.2533 21.8387 26.576 23.0707 26.576 24.332C26.576 25.5933 26.4587 26.6347 26.224 27.456C25.9893 28.2773 25.5787 29.128 24.992 30.008C24.4347 30.888 23.5693 31.68 22.396 32.384C21.252 33.0587 19.8733 33.5573 18.26 33.88V34.584C18.26 35.2587 17.7027 35.8893 16.588 36.476C15.4733 37.092 14.0067 37.4 12.188 37.4C10.78 37.4 9.87067 37.1067 9.46 36.52C9.16667 36.1093 9.02 35.728 9.02 35.376V34.056C7.11333 33.88 5.456 33.6013 4.048 33.22C1.34933 32.4867 0 31.6947 0 30.844C0 29.2013 0.234667 27.5 0.704 25.74C1.17333 23.9507 1.73067 23.056 2.376 23.056C2.49333 23.056 3.71067 23.452 6.028 24.244C8.34533 25.036 10.0907 25.432 11.264 25.432C12.4373 25.432 13.2 25.3147 13.552 25.08C13.904 24.816 14.08 24.4493 14.08 23.98C14.08 23.5107 13.7573 23.1147 13.112 22.792C12.4667 22.44 11.66 22.1613 10.692 21.956C9.724 21.7507 8.668 21.428 7.524 20.988C6.40933 20.548 5.368 20.0347 4.4 19.448C3.432 18.8613 2.62533 17.996 1.98 16.852C1.33467 15.708 1.012 14.3733 1.012 12.848C1.012 7.45067 3.68133 4.29733 9.02 3.388V2.816Z"
        fill="white" />
    <path
        d="M52.02 9.816C52.02 9.14133 52.5773 8.51067 53.692 7.924C54.8067 7.308 56.2733 7 58.092 7C59.5 7 60.4093 7.29333 60.82 7.88C61.1133 8.29067 61.26 8.672 61.26 9.024V10.344C64.5747 10.696 66.8773 11.312 68.168 12.192C68.696 12.544 68.96 12.8813 68.96 13.204C68.96 14.7293 68.5933 16.372 67.86 18.132C67.156 19.892 66.4667 20.772 65.792 20.772C65.6747 20.772 65.2933 20.64 64.648 20.376C62.712 19.5253 61.0987 19.1 59.808 19.1C58.5467 19.1 57.6813 19.2173 57.212 19.452C56.772 19.6867 56.552 20.0533 56.552 20.552C56.552 21.0213 56.8747 21.388 57.52 21.652C58.1653 21.916 58.9573 22.1507 59.896 22.356C60.864 22.532 61.9053 22.84 63.02 23.28C64.164 23.72 65.22 24.248 66.188 24.864C67.156 25.48 67.9627 26.404 68.608 27.636C69.2533 28.8387 69.576 30.0707 69.576 31.332C69.576 32.5933 69.4587 33.6347 69.224 34.456C68.9893 35.2773 68.5787 36.128 67.992 37.008C67.4347 37.888 66.5693 38.68 65.396 39.384C64.252 40.0587 62.8733 40.5573 61.26 40.88V41.584C61.26 42.2587 60.7027 42.8893 59.588 43.476C58.4733 44.092 57.0067 44.4 55.188 44.4C53.78 44.4 52.8707 44.1067 52.46 43.52C52.1667 43.1093 52.02 42.728 52.02 42.376V41.056C50.1133 40.88 48.456 40.6013 47.048 40.22C44.3493 39.4867 43 38.6947 43 37.844C43 36.2013 43.2347 34.5 43.704 32.74C44.1733 30.9507 44.7307 30.056 45.376 30.056C45.4933 30.056 46.7107 30.452 49.028 31.244C51.3453 32.036 53.0907 32.432 54.264 32.432C55.4373 32.432 56.2 32.3147 56.552 32.08C56.904 31.816 57.08 31.4493 57.08 30.98C57.08 30.5107 56.7573 30.1147 56.112 29.792C55.4667 29.44 54.66 29.1613 53.692 28.956C52.724 28.7507 51.668 28.428 50.524 27.988C49.4093 27.548 48.368 27.0347 47.4 26.448C46.432 25.8613 45.6253 24.996 44.98 23.852C44.3347 22.708 44.012 21.3733 44.012 19.848C44.012 14.4507 46.6813 11.2973 52.02 10.388V9.816Z"
        fill="white" />
    <path
        d="M24.02 35.816C24.02 35.1413 24.5773 34.5107 25.692 33.924C26.8067 33.308 28.2733 33 30.092 33C31.5 33 32.4093 33.2933 32.82 33.88C33.1133 34.2907 33.26 34.672 33.26 35.024V36.344C36.5747 36.696 38.8773 37.312 40.168 38.192C40.696 38.544 40.96 38.8813 40.96 39.204C40.96 40.7293 40.5933 42.372 39.86 44.132C39.156 45.892 38.4667 46.772 37.792 46.772C37.6747 46.772 37.2933 46.64 36.648 46.376C34.712 45.5253 33.0987 45.1 31.808 45.1C30.5467 45.1 29.6813 45.2173 29.212 45.452C28.772 45.6867 28.552 46.0533 28.552 46.552C28.552 47.0213 28.8747 47.388 29.52 47.652C30.1653 47.916 30.9573 48.1507 31.896 48.356C32.864 48.532 33.9053 48.84 35.02 49.28C36.164 49.72 37.22 50.248 38.188 50.864C39.156 51.48 39.9627 52.404 40.608 53.636C41.2533 54.8387 41.576 56.0707 41.576 57.332C41.576 58.5933 41.4587 59.6347 41.224 60.456C40.9893 61.2773 40.5787 62.128 39.992 63.008C39.4347 63.888 38.5693 64.68 37.396 65.384C36.252 66.0587 34.8733 66.5573 33.26 66.88V67.584C33.26 68.2587 32.7027 68.8893 31.588 69.476C30.4733 70.092 29.0067 70.4 27.188 70.4C25.78 70.4 24.8707 70.1067 24.46 69.52C24.1667 69.1093 24.02 68.728 24.02 68.376V67.056C22.1133 66.88 20.456 66.6013 19.048 66.22C16.3493 65.4867 15 64.6947 15 63.844C15 62.2013 15.2347 60.5 15.704 58.74C16.1733 56.9507 16.7307 56.056 17.376 56.056C17.4933 56.056 18.7107 56.452 21.028 57.244C23.3453 58.036 25.0907 58.432 26.264 58.432C27.4373 58.432 28.2 58.3147 28.552 58.08C28.904 57.816 29.08 57.4493 29.08 56.98C29.08 56.5107 28.7573 56.1147 28.112 55.792C27.4667 55.44 26.66 55.1613 25.692 54.956C24.724 54.7507 23.668 54.428 22.524 53.988C21.4093 53.548 20.368 53.0347 19.4 52.448C18.432 51.8613 17.6253 50.996 16.98 49.852C16.3347 48.708 16.012 47.3733 16.012 45.848C16.012 40.4507 18.6813 37.2973 24.02 36.388V35.816Z"
        fill="white" />
</svg>