<svg width="932" height="130" viewBox="0 0 932 130" fill="none" xmlns="http://www.w3.org/2000/svg">
<rect width="932" height="130" fill="#00011C"/>
<path fill-rule="evenodd" clip-rule="evenodd" d="M340.155 55.915L344.471 59.144L340.384 72.462L362.689 55.748L340.155 55.915Z" fill="#151DF4"/>
<path fill-rule="evenodd" clip-rule="evenodd" d="M482.245 53V67.4751H503.044V72.7376H482.245V78H508.245V62.2107H487.443V58.2644H497.898V53H482.245Z" fill="#FF0002"/>
<path fill-rule="evenodd" clip-rule="evenodd" d="M561.59 53.0019V67.0108H557.967V53.0019H502.245V58.2659H517.362V78H522.52V58.2659H532.171V78H537.333V72.4763H552.809V78H557.967V72.4511H561.59V78H566.749V72.4763H578.554L579.462 78H585.589L584.613 72.4763H587.385V53H561.59V53.0019ZM566.749 67.0108H582.225V58.2659H566.747V67.0108H566.749ZM537.333 67.0108H552.809V58.2659H537.333V67.0108ZM590.453 53.0019V58.2659H608.412L590.453 72.738V78H616.245V72.738H598.32L616.245 58.2659V53.0019H590.453Z" fill="#FF0002"/>
<path fill-rule="evenodd" clip-rule="evenodd" d="M419.245 53V67.4749H440.591V78H445.927V53H419.245ZM424.581 62.2085H440.589V58.2607H424.581V62.2085ZM450.561 53V67.4749H471.908V78H477.245V53H450.561ZM455.899 62.2085H471.91V58.2607H455.899V62.2085Z" fill="#151DF4"/>
<path fill-rule="evenodd" clip-rule="evenodd" d="M382.162 62.761L365.512 74.331L370.988 78.281L354.161 78.251L409.547 38.001L362.518 43.267L316 38L335.338 52.361H373.147L319.417 92.664L361.824 87.581L403.507 92.664L384.777 78.782L382.162 62.762V62.761Z" fill="#FF0002"/>
</svg>
