<svg width="62" height="62" viewBox="0 0 62 62" fill="none" xmlns="http://www.w3.org/2000/svg">
    <path
        d="M31 0C48.143 0 62 13.888 62 31C62 48.143 48.143 62 31 62C13.888 62 0 48.143 0 31C0 13.888 13.888 0 31 0ZM29.915 15.283C28.644 15.283 27.59 16.306 27.59 17.608V33.263C27.59 34.069 28.024 34.813 28.737 35.247L40.889 42.501C41.261 42.718 41.664 42.842 42.098 42.842C42.873 42.842 43.648 42.439 44.082 41.695C44.733 40.61 44.392 39.184 43.276 38.502L32.24 31.93V17.608C32.24 16.306 31.186 15.283 29.915 15.283Z"
        fill="#FAFAFA" />
</svg>