<svg xmlns="http://www.w3.org/2000/svg" xmlns:xlink="http://www.w3.org/1999/xlink" viewBox="0 0 1200 300" xmlns:v="https://vecta.io/nano"><style><![CDATA[.D,.E{isolation:isolate}.Bc{opacity:.15}.Bd{fill:#c0c1b6}.Be{opacity:.5}.Bf{fill:#a16552}]]></style><defs><clipPath id="A"><path d="M0 0h1200v300H0z" fill="none"/></clipPath><linearGradient id="B" x1="612.14" y1="515.43" x2="613.15" y2="29.32" xlink:href="#BT"><stop offset="0" stop-color="#f8f4c7"/><stop offset="1" stop-color="#fcb422"/></linearGradient><linearGradient id="C" x1="986.05" y1="3.23" x2="986.05" y2="143.91" xlink:href="#BT"><stop offset="0" stop-color="#f8f4c7" stop-opacity=".3"/><stop offset="1" stop-color="#f8f4c7" stop-opacity="0"/></linearGradient><linearGradient id="D" x1="1165.9" y1="-1.29" x2="1165.9" y2="49.45" xlink:href="#BT"><stop offset="0" stop-color="#f8f4c7" stop-opacity=".2"/><stop offset="1" stop-color="#f8f4c7" stop-opacity="0"/></linearGradient><linearGradient id="E" x1="667.42" y1="290.57" x2="985.67" y2="238.69" xlink:href="#BT"><stop offset="0" stop-color="#d8b41e"/><stop offset="1" stop-color="#eec61d"/></linearGradient><linearGradient id="F" x1="642.77" y1="246.03" x2="624.29" y2="204.52" xlink:href="#BT"><stop offset=".3" stop-color="#726f0e"/><stop offset=".61" stop-color="#767311"/><stop offset=".95" stop-color="#81811a"/><stop offset="1" stop-color="#83831c"/></linearGradient><linearGradient id="G" x1="662.69" y1="249.74" x2="660.52" y2="165.4" xlink:href="#F"/><linearGradient id="H" x1="703.23" y1="274.3" x2="1368.07" y2="274.3" xlink:href="#BT"><stop offset=".52" stop-color="#ada10c"/><stop offset="1" stop-color="#a3900a"/></linearGradient><linearGradient id="I" x1="623.21" y1="414.68" x2="911.33" y2="294.52" xlink:href="#BT"><stop offset="0" stop-color="#ada10c"/><stop offset="1" stop-color="#d2be07"/></linearGradient><linearGradient id="J" x1="975.54" y1="252.91" x2="872.44" y2="272.83" xlink:href="#BT"><stop offset="0" stop-color="#4e3f3f"/><stop offset=".44" stop-color="#4e3f3f" stop-opacity=".7"/><stop offset=".74" stop-color="#4e3f3f" stop-opacity=".2"/><stop offset=".91" stop-color="#4e3f3f" stop-opacity="0"/></linearGradient><linearGradient id="K" x1="973.93" y1="247.13" x2="871.28" y2="209.38" xlink:href="#BT"><stop offset="0" stop-color="#726f0e"/><stop offset="1" stop-color="#83831c"/></linearGradient><linearGradient id="L" x1="964.63" y1="203.36" x2="964.63" y2="256.33" xlink:href="#BT"><stop offset="0" stop-color="#ab473c"/><stop offset=".26" stop-color="#913e32"/><stop offset=".75" stop-color="#652f20"/><stop offset="1" stop-color="#542919"/></linearGradient><linearGradient id="M" x1="782.58" y1="251.53" x2="782.58" y2="251.53" xlink:href="#J"/><linearGradient id="N" x1="778.61" y1="250.55" x2="778.61" y2="250.55" xlink:href="#J"/><linearGradient id="O" x1="1040.52" y1="83.27" x2="962.2" y2="173.24" xlink:href="#BT"><stop offset=".31" stop-color="#968e62"/><stop offset="1" stop-color="#a8a274"/></linearGradient><linearGradient id="P" x1="985.74" y1="168.05" x2="971.58" y2="189" xlink:href="#BT"><stop offset="0" stop-color="#757451"/><stop offset="1" stop-color="#878752"/></linearGradient><linearGradient id="Q" x1="1080.08" y1="54.98" x2="1081.26" y2="276.42" xlink:href="#BT"><stop offset="0" stop-color="#cf6842"/><stop offset=".69" stop-color="#cc5632"/><stop offset=".83" stop-color="#ca5533"/><stop offset=".91" stop-color="#c25135"/><stop offset=".97" stop-color="#b44b39"/><stop offset="1" stop-color="#ab473c"/></linearGradient><linearGradient id="R" x1="1347.57" y1="153.69" x2="1233.41" y2="235.69" xlink:href="#BT"><stop offset="0" stop-color="#9b2b26"/><stop offset="1" stop-color="#ab473c"/></linearGradient><linearGradient id="S" x1="1242.44" y1="97.08" x2="1252.28" y2="162.77" xlink:href="#BT"><stop offset=".06" stop-color="#e5dfbe"/><stop offset="1" stop-color="#f2edce"/></linearGradient><linearGradient id="T" x1="1112.93" y1="31.18" x2="1269.07" y2="101.98" xlink:href="#BT"><stop offset=".06" stop-color="#f2edce"/><stop offset="1" stop-color="#fcf9de"/></linearGradient><linearGradient id="U" x1="1265.2" y1="163.71" x2="1265.98" y2="183.38" xlink:href="#T"/><linearGradient id="V" x1="1087.05" y1="38.15" x2="1208.59" y2="189.38" xlink:href="#BT"><stop offset=".06" stop-color="#eae6ce"/><stop offset="1" stop-color="#fff"/></linearGradient><linearGradient id="W" x1="1047.36" y1="45.74" x2="949.62" y2="180.25" xlink:href="#V"/><linearGradient id="X" x1="1059.94" y1="62.3" x2="995.43" y2="91.8" xlink:href="#P"/><linearGradient id="Y" x1="1157.49" y1="28.08" x2="1149.34" y2="29.89" xlink:href="#P"/><linearGradient id="Z" x1="1194.15" y1="24.62" x2="1204.57" y2="51.47" xlink:href="#R"/><linearGradient id="a" x1="1169.84" y1="68.15" x2="1168.8" y2="17.71" xlink:href="#Q"/><linearGradient id="b" x1="1172.54" y1="10.51" x2="1213.84" y2="27.18" xlink:href="#T"/><linearGradient id="c" x1="1188.35" y1="27.6" x2="1253.84" y2="33.57" xlink:href="#S"/><linearGradient id="d" x1="1185.76" y1="28.49" x2="1170.06" y2="14.3" xlink:href="#BT"><stop offset="0" stop-color="#a8a274"/><stop offset=".75" stop-color="#878752"/><stop offset="1" stop-color="#a8a274"/></linearGradient><linearGradient id="e" x1="1153.07" y1="27.71" x2="1167.65" y2="15" xlink:href="#d"/><linearGradient id="f" x1="1093.67" y1="282.75" x2="1066.83" y2="194.55" xlink:href="#R"/><linearGradient id="g" x1="1114.7" y1="235.48" x2="1122.37" y2="235.48" xlink:href="#BT"><stop offset="0" stop-color="#4e3f3f"/><stop offset=".44" stop-color="#4e3f3f" stop-opacity=".7"/><stop offset=".6" stop-color="#4e3f3f" stop-opacity=".2"/><stop offset=".69" stop-color="#4e3f3f" stop-opacity="0"/></linearGradient><linearGradient id="h" x1="1043.02" y1="235.48" x2="1052.46" y2="235.48" xlink:href="#J"/><linearGradient id="i" x1="1079.23" y1="235.48" x2="1085.42" y2="235.48" xlink:href="#J"/><linearGradient id="j" x1="1079.45" y1="194.42" x2="1079.53" y2="202.55" xlink:href="#J"/><linearGradient id="k" x1="1079.29" y1="234.97" x2="1079.36" y2="242.05" xlink:href="#J"/><linearGradient id="l" x1="1063.3" y1="215.28" x2="1067.48" y2="212.23" xlink:href="#J"/><linearGradient id="m" x1="1097.76" y1="213.87" x2="1101.6" y2="217.11" xlink:href="#J"/><linearGradient id="n" x1="1060.25" y1="253.48" x2="1069.29" y2="261.05" xlink:href="#J"/><linearGradient id="o" x1="1095.32" y1="259.17" x2="1099.5" y2="256.12" xlink:href="#J"/><linearGradient id="p" x1="1105.83" y1="199.84" x2="1051.36" y2="269.46" xlink:href="#BT"><stop offset=".12" stop-color="#f2edce"/><stop offset="1" stop-color="#fcf9de"/></linearGradient><linearGradient id="q" x1="1051.16" y1="200.7" x2="1110.55" y2="272.48" xlink:href="#p"/><linearGradient id="r" x1="1078.73" y1="199.23" x2="1079.13" y2="276.81" xlink:href="#p"/><linearGradient id="s" x1="1078.53" y1="277.12" x2="1079.26" y2="192.01" xlink:href="#T"/><linearGradient id="t" x1="1040.69" y1="234.24" x2="1117.13" y2="234.24" xlink:href="#p"/><linearGradient id="u" x1="1095.57" y1="158.23" x2="1062.83" y2="109.55" xlink:href="#R"/><linearGradient id="v" x1="1078.69" y1="111.25" x2="1078.69" y2="119.14" xlink:href="#J"/><linearGradient id="w" x1="1067.19" y1="123.02" x2="1126.48" y2="176.11" xlink:href="#J"/><linearGradient id="x" x1="1058.1" y1="134.14" x2="1065.4" y2="134.29" xlink:href="#J"/><linearGradient id="y" x1="1079.05" y1="133.68" x2="1083.77" y2="137.88" xlink:href="#J"/><linearGradient id="z" x1="1062.74" y1="135.38" x2="1099.18" y2="135.38" xlink:href="#J"/><linearGradient id="AA" x1="1074.43" y1="119.33" x2="1085.57" y2="154.43" xlink:href="#BT"><stop offset="0" stop-color="#f2edce"/><stop offset="1" stop-color="#fcf9de"/></linearGradient><linearGradient id="AB" x1="1059.52" y1="109.07" x2="1099.2" y2="159.07" xlink:href="#T"/><linearGradient id="AC" x1="1254.39" y1="179.34" x2="1254.69" y2="197.18" xlink:href="#J"/><linearGradient id="AD" x1="1172.25" y1="60.85" x2="1104.01" y2="137.94" xlink:href="#J"/><linearGradient id="AE" x1="782.59" y1="180.21" x2="693.69" y2="148.52" xlink:href="#BT"><stop offset=".2" stop-color="#162944"/><stop offset=".54" stop-color="#213058"/><stop offset=".82" stop-color="#2b366b"/></linearGradient><linearGradient id="AF" x1="823.19" y1="179.51" x2="860.13" y2="170.5" xlink:href="#AE"/><linearGradient id="AG" x1="783.33" y1="251.82" x2="788.98" y2="117.8" xlink:href="#AE"/><linearGradient id="AH" x1="792.65" y1="191.85" x2="794.52" y2="188.63" xlink:href="#BT"><stop offset="0" stop-color="#0a061d"/><stop offset=".72" stop-color="#12223e"/><stop offset=".79" stop-color="#0f1731"/><stop offset=".91" stop-color="#0b0a22"/><stop offset="1" stop-color="#0a061d"/></linearGradient><linearGradient id="AI" x1="789.92" y1="214.48" x2="791.79" y2="211.26" xlink:href="#AH"/><linearGradient id="AJ" x1="786.51" y1="236.75" x2="788.38" y2="233.54" xlink:href="#AH"/><linearGradient id="AK" x1="794.87" y1="167.63" x2="797.92" y2="169.4" xlink:href="#AH"/><linearGradient id="AL" x1="797.14" y1="147.18" x2="779.05" y2="280.86" xlink:href="#AE"/><linearGradient id="AM" x1="796.8" y1="157.45" x2="799.63" y2="153.25" xlink:href="#BT"><stop offset="0" stop-color="#ffe988"/><stop offset=".25" stop-color="#ba801e"/><stop offset=".5" stop-color="#fbec83"/><stop offset=".75" stop-color="#ba801f"/><stop offset="1" stop-color="#ffe97f"/></linearGradient><linearGradient id="AN" x1="784.51" y1="154.8" x2="772.88" y2="304.64" xlink:href="#BT"><stop offset=".1" stop-color="#0973a3"/><stop offset=".18" stop-color="#177ea8"/><stop offset=".3" stop-color="#2689ad"/><stop offset=".4" stop-color="#2b8daf"/><stop offset=".55" stop-color="#1d82aa"/><stop offset=".77" stop-color="#0e77a5"/><stop offset=".96" stop-color="#0973a3"/></linearGradient><linearGradient id="AO" x1="814.06" y1="171.67" x2="828.78" y2="125.8" xlink:href="#BT"><stop offset=".04" stop-color="#0c5591"/><stop offset=".09" stop-color="#0e5994"/><stop offset=".31" stop-color="#1868a1"/><stop offset=".5" stop-color="#1b6da5"/><stop offset=".54" stop-color="#1969a2"/><stop offset=".72" stop-color="#0f5a95"/><stop offset=".88" stop-color="#0c5591"/><stop offset=".9" stop-color="#0b5086"/><stop offset=".95" stop-color="#094a77"/><stop offset=".99" stop-color="#094872"/></linearGradient><linearGradient id="AP" x1="743.59" y1="191.75" x2="652.32" y2="204.09" xlink:href="#AE"/><linearGradient id="AQ" x1="784.1" y1="237.02" x2="788.49" y2="185.63" xlink:href="#BT"><stop offset=".15" stop-color="#0c5591"/><stop offset=".18" stop-color="#0e5994"/><stop offset=".35" stop-color="#1868a1"/><stop offset=".5" stop-color="#1b6da5"/><stop offset=".54" stop-color="#1969a2"/><stop offset=".75" stop-color="#0f5a95"/><stop offset=".92" stop-color="#0c5591"/></linearGradient><linearGradient id="AR" x1="741.97" y1="297.62" x2="770.55" y2="189" xlink:href="#BT"><stop offset="0" stop-color="#282525"/><stop offset=".44" stop-color="#282525" stop-opacity=".7"/><stop offset=".66" stop-color="#282525" stop-opacity=".39"/><stop offset="1" stop-color="#282525" stop-opacity="0"/></linearGradient><linearGradient id="AS" x1="768.14" y1="208" x2="707.67" y2="201.86" xlink:href="#BT"><stop offset="0" stop-color="#a16552"/><stop offset=".26" stop-color="#935848"/><stop offset=".64" stop-color="#935848"/><stop offset=".71" stop-color="#905344"/><stop offset=".84" stop-color="#8c4e40"/><stop offset="1" stop-color="#894636"/></linearGradient><linearGradient id="AT" x1="764.15" y1="164.93" x2="755.6" y2="118.05" xlink:href="#AO"/><linearGradient id="AU" x1="760.13" y1="169.16" x2="764.87" y2="157.77" xlink:href="#AM"/><linearGradient id="AV" x1="753.96" y1="91.292" x2="750.845" y2="24.312" xlink:href="#BT"><stop offset=".1" stop-color="#3c3c3b"/><stop offset=".19" stop-color="#5a5a59"/><stop offset=".36" stop-color="#8a8a89"/><stop offset=".44" stop-color="#9d9d9c"/><stop offset=".45" stop-color="#9c9c9b"/><stop offset=".58" stop-color="#848383"/><stop offset=".7" stop-color="#757474"/><stop offset=".79" stop-color="#706f6f"/></linearGradient><linearGradient id="AW" x1="740.338" y1="94.753" x2="736.93" y2="21.369" xlink:href="#AV"/><linearGradient id="AX" x1="-2104.58" y1="-250.75" x2="-2096.92" y2="-317.79" gradientTransform="matrix(-0.97, -0.24, -0.24, 0.97, -1344.55, -164.99)" xlink:href="#AV"/><linearGradient id="AY" x1="753.34" y1="112.156" x2="752.57" y2="95.702" xlink:href="#BT"><stop offset=".15" stop-color="#706f6f"/><stop offset=".22" stop-color="#696868"/><stop offset=".51" stop-color="#50504f"/><stop offset=".78" stop-color="#414140"/><stop offset="1" stop-color="#3c3c3b"/></linearGradient><linearGradient id="AZ" x1="754.99" y1="110.46" x2="744.65" y2="111.63" xlink:href="#BT"><stop offset="0" stop-color="#282525"/><stop offset=".15" stop-color="#282525" stop-opacity=".7"/><stop offset=".3" stop-color="#282525" stop-opacity=".39"/><stop offset=".53" stop-color="#282525" stop-opacity="0"/><stop offset=".63" stop-color="#282525" stop-opacity=".29"/><stop offset=".85" stop-color="#282525" stop-opacity=".8"/><stop offset="1" stop-color="#282525" stop-opacity=".98"/></linearGradient><linearGradient id="Aa" x1="765.52" y1="204.54" x2="755.57" y2="205.67" xlink:href="#BT"><stop offset="0" stop-color="#776a4d"/><stop offset=".03" stop-color="#908257"/><stop offset=".07" stop-color="#a69661"/><stop offset=".11" stop-color="#b5a567"/><stop offset=".16" stop-color="#bead6b"/><stop offset=".23" stop-color="#c1b06c"/><stop offset=".55" stop-color="#d7be77"/><stop offset=".79" stop-color="#e2c57d"/></linearGradient><linearGradient id="Ab" x1="760.77" y1="181.96" x2="773.82" y2="174.32" xlink:href="#BT"><stop offset="0" stop-color="#935848"/><stop offset=".2" stop-color="#894b3d"/><stop offset=".28" stop-color="#894839"/><stop offset=".5" stop-color="#894434"/><stop offset=".62" stop-color="#8e503a"/><stop offset=".83" stop-color="#945f41"/><stop offset="1" stop-color="#966444"/></linearGradient><linearGradient id="Ac" x1="747.03" y1="178.42" x2="754" y2="184.79" xlink:href="#BT"><stop offset="0" stop-color="#935848"/><stop offset=".2" stop-color="#894b3d"/><stop offset=".29" stop-color="#894839"/><stop offset=".5" stop-color="#894434"/><stop offset=".62" stop-color="#8e503a"/><stop offset=".83" stop-color="#945f41"/><stop offset="1" stop-color="#966444"/></linearGradient><linearGradient id="Ad" x1="777.37" y1="180.16" x2="755.21" y2="189.47" xlink:href="#Ab"/><linearGradient id="Ae" x1="737.06" y1="194.132" x2="764.258" y2="176.245" xlink:href="#BT"><stop offset=".13" stop-color="#935848"/><stop offset=".5" stop-color="#935848"/><stop offset=".54" stop-color="#955a4a"/><stop offset=".7" stop-color="#995e4f"/><stop offset=".89" stop-color="#8c4e40"/><stop offset="1" stop-color="#894636"/></linearGradient><linearGradient id="Af" x1="-2747.79" y1="106.96" x2="-2760.5" y2="101.03" gradientTransform="matrix(-0.99, -0.01, -0.01, 0.98, -1960.54, 67.82)" xlink:href="#Ac"/><linearGradient id="Ag" x1="-2751.64" y1="100.27" x2="-2761.95" y2="95.71" gradientTransform="matrix(-0.99, -0.01, -0.01, 0.98, -1960.54, 67.82)" xlink:href="#Ac"/><linearGradient id="Ah" x1="799.35" y1="147.61" x2="802.18" y2="143.41" xlink:href="#AM"/><linearGradient id="Ai" x1="792.02" y1="117.17" x2="784.82" y2="142.25" xlink:href="#BT"><stop offset=".15" stop-color="#6b3930"/><stop offset=".47" stop-color="#774338"/><stop offset=".79" stop-color="#7c483c"/></linearGradient><linearGradient id="Aj" x1="794.81" y1="127.36" x2="799.71" y2="148.48" xlink:href="#BT"><stop offset="0" stop-color="#e6e6e6"/><stop offset=".31" stop-color="#ddd"/><stop offset=".32" stop-color="#dedede"/><stop offset=".54" stop-color="#ededed"/><stop offset=".73" stop-color="#f2f2f2"/><stop offset=".88" stop-color="#f9f9f9"/><stop offset="1" stop-color="#fff"/></linearGradient><linearGradient id="Ak" x1="802.22" y1="149.33" x2="733.97" y2="96.85" xlink:href="#AE"/><linearGradient id="Al" x1="770.89" y1="107.88" x2="777.28" y2="138.86" xlink:href="#AE"/><linearGradient id="Am" x1="789.43" y1="154.34" x2="841.81" y2="103.7" xlink:href="#AE"/><linearGradient id="An" x1="808.04" y1="110.67" x2="809.8" y2="140.5" xlink:href="#AE"/><linearGradient id="Ao" x1="764.25" y1="249.32" x2="764.25" y2="249.32" xlink:href="#J"/><linearGradient id="Ap" x1="760.13" y1="248.31" x2="760.13" y2="248.31" xlink:href="#J"/><linearGradient id="Aq" x1="871.53" y1="233.12" x2="828.74" y2="228.78" xlink:href="#BT"><stop offset="0" stop-color="#a16552"/><stop offset=".2" stop-color="#935848"/><stop offset=".64" stop-color="#935848"/><stop offset=".71" stop-color="#905344"/><stop offset=".84" stop-color="#8c4e40"/><stop offset="1" stop-color="#894636"/></linearGradient><linearGradient id="Ar" x1="815.08" y1="173.19" x2="821.17" y2="161.56" xlink:href="#AM"/><linearGradient id="As" x1="802.07" y1="290.99" x2="832.73" y2="174.44" xlink:href="#BT"><stop offset="0" stop-color="#282525"/><stop offset=".44" stop-color="#282525" stop-opacity=".7"/><stop offset=".62" stop-color="#282525" stop-opacity=".39"/><stop offset=".91" stop-color="#282525" stop-opacity="0"/></linearGradient><linearGradient id="At" x1="835.28" y1="206.07" x2="897" y2="205.35" xlink:href="#AE"/><linearGradient id="Au" x1="850.01" y1="224.75" x2="822.94" y2="252.28" xlink:href="#BT"><stop offset="0" stop-color="#a16552"/><stop offset=".54" stop-color="#905445"/><stop offset=".75" stop-color="#935848"/><stop offset=".79" stop-color="#905344"/><stop offset=".87" stop-color="#8c4e40"/><stop offset="1" stop-color="#894636"/></linearGradient><linearGradient id="Av" x1="830.88" y1="245.12" x2="804.5" y2="261.86" xlink:href="#Ab"/><linearGradient id="Aw" x1="833.76" y1="249.68" x2="807.39" y2="266.41" xlink:href="#Ab"/><linearGradient id="Ax" x1="836.41" y1="253.84" x2="810.03" y2="270.58" xlink:href="#Ab"/><linearGradient id="Ay" x1="825.394" y1="76.084" x2="839.412" y2="76.878" xlink:href="#BT"><stop offset="0" stop-color="#e7bc91"/><stop offset=".4" stop-color="#f3d5b5"/><stop offset=".66" stop-color="#f5dcb4"/></linearGradient><linearGradient id="Az" x1="762.005" y1="72.496" x2="744.662" y2="71.354" xlink:href="#Ay"/><linearGradient id="BA" x1="794.769" y1="65.747" x2="791.478" y2="115.751" xlink:href="#BT"><stop offset="0" stop-color="#e7bc91"/><stop offset=".4" stop-color="#f3d5b5"/><stop offset=".66" stop-color="#f5dcb4"/><stop offset=".7" stop-color="#f4dab2"/><stop offset="1" stop-color="#efd3ab"/></linearGradient><radialGradient id="BB" cx="752.29" cy="8.89" r="16.83" gradientTransform="translate(41.37 55.75) rotate(3.24)" xlink:href="#BT"><stop offset=".49" stop-color="#3a2e2e"/><stop offset=".81" stop-color="#4c3b3b"/><stop offset="1" stop-color="#4e3f3f"/></radialGradient><radialGradient id="BC" cx="752.85" cy="6.37" r="10.54" gradientTransform="translate(1543.37 161.38) rotate(-175.94) scale(1 0.53)" xlink:href="#BT"><stop offset="0" stop-color="#e6646e"/><stop offset=".45" stop-color="#dd4e6d"/><stop offset="1" stop-color="#e6646e"/></radialGradient><linearGradient id="BD" x1="756.809" y1="62.727" x2="836.135" y2="94.411" xlink:href="#BT"><stop offset="0" stop-color="#a16552"/><stop offset=".2" stop-color="#935848"/><stop offset=".5" stop-color="#935848"/><stop offset=".6" stop-color="#9c604e"/><stop offset=".73" stop-color="#a16552"/><stop offset="1" stop-color="#966444"/></linearGradient><linearGradient id="BE" x1="751.33" y1="-7.77" x2="746.92" y2="-9.96" gradientTransform="translate(470.48 -588.47) rotate(65.45)" xlink:href="#BB"/><linearGradient id="BF" x1="753.87" y1="-7.74" x2="758.42" y2="-9.95" gradientTransform="translate(105.34 -216.48) rotate(24.55)" xlink:href="#BB"/><linearGradient id="BG" x1="739.43" y1="-25.13" x2="741.91" y2="-15.81" xlink:href="#BB"/><radialGradient id="BH" cx="743.2" cy="-24.54" r="4.96" gradientTransform="translate(41.37 55.75) rotate(3.24)" xlink:href="#BT"><stop offset="0" stop-color="#5d5360"/><stop offset="1" stop-color="#5d5360" stop-opacity=".4"/></radialGradient><linearGradient id="BI" x1="752.51" y1="80.91" x2="826.9" y2="73.16" xlink:href="#BT"><stop offset="0" stop-color="#4e3f3f"/><stop offset=".14" stop-color="#4e3f3f" stop-opacity=".7"/><stop offset=".46" stop-color="#4e3f3f" stop-opacity=".4"/><stop offset=".73" stop-color="#4e3f3f" stop-opacity=".2"/><stop offset=".84" stop-color="#4e3f3f" stop-opacity=".09"/><stop offset="1" stop-color="#4e3f3f" stop-opacity="0"/></linearGradient><linearGradient id="BJ" x1="763.42" y1="-25.26" x2="765.9" y2="-15.94" xlink:href="#BB"/><radialGradient id="BK" cx="767.19" cy="-24.67" xlink:href="#BH"/><linearGradient id="BL" x1="764.032" y1="45.042" x2="828.667" y2="54.382" xlink:href="#BT"><stop offset=".08" stop-color="#88756e"/><stop offset=".28" stop-color="#938076"/><stop offset=".67" stop-color="#a18f81"/><stop offset=".98" stop-color="#a69485"/></linearGradient><linearGradient id="BM" x1="814.972" y1="52.51" x2="830.474" y2="54.747" xlink:href="#BL"/><linearGradient id="BN" x1="762.002" y1="48.665" x2="888.046" y2="68.22" xlink:href="#BL"/><linearGradient id="BO" x1="794.73" y1="56.44" x2="794.34" y2="78.39" xlink:href="#BT"><stop offset="0" stop-color="#685a56"/><stop offset=".11" stop-color="#584d48"/><stop offset=".25" stop-color="#49403b"/><stop offset=".37" stop-color="#443c36"/></linearGradient><linearGradient id="BP" x1="793.84" y1="50.21" x2="794.9" y2="68.35" xlink:href="#BT"><stop offset=".08" stop-color="#a49385"/><stop offset=".3" stop-color="#b09b8c"/><stop offset=".67" stop-color="#bfa594"/><stop offset=".98" stop-color="#c4a997"/></linearGradient><path id="BQ" d="M831.55 82.07a9.93 9.93 0 0 1-4.55 3.11 39.84 39.84 0 0 1-.52-9.38v-.54a29.41 29.41 0 0 0-.62-7.77 5.82 5.82 0 0 1 4.34.34c4.54 2.04 5.35 9.71 1.35 14.24z"/><path id="BR" d="M763.44 64a29.64 29.64 0 0 0-1.44 7.6v.54a39.81 39.81 0 0 1-1.58 9.26 9.79 9.79 0 0 1-4.16-3.6c-3.47-5-1.8-12.48 2.92-14a5.8 5.8 0 0 1 4.34.15z"/><path id="BS" d="M817,84.7a8.4,8.4,0,0,0-1.32,7.12,18.68,18.68,0,0,1,.86,5.44c-.64,11.13-11.69,19.55-24.7,18.81s-23.05-10.34-22.42-21.48a18.68,18.68,0,0,1,1.47-5.31,8.38,8.38,0,0,0-.5-7.21A13,13,0,0,1,768.72,75c.42-7.38,7-13,14.81-12.58a14.52,14.52,0,0,1,7.05,2.27,8.39,8.39,0,0,0,8.27.47,14.45,14.45,0,0,1,7.26-1.46c7.76.43,13.72,6.78,13.3,14.17a12.89,12.89,0,0,1-1.47,5.29A11.65,11.65,0,0,1,817,84.7Z"/><linearGradient id="BT" gradientUnits="userSpaceOnUse"/></defs><g clip-path="url(#A)"><path d="M-142.26-7.41h1510.33v307.49H-142.26z" fill="url(#B)"/><g fill="#fff8bb"><path class="D Bc" d="M1016.31-7.41L895.09 300.02h-90.3L966.43-7.41h49.88z"/><path class="E" d="M882.65-7.41L723.01 300.02h-27.48L867.36-7.41h15.29z" opacity=".2"/></g><path d="M1365.2 1.49a28.84 28.84 0 0 0-5.71-8.9H1317l-1.58 1.81.18-1.81H827.78a25.6 25.6 0 0 0 1.88 11.11c-4.92-4.57-14.59-.22-14.44 6.56-4.92-16-27.67-21-42-12.18s-20.65 26.55-21.42 43.34a12.33 12.33 0 0 0-16.68 18.15c.27.24.54.48.83.7-9.42-2.74-19.44-5.48-28.93-3s-17.8 12.38-14.86 21.77c-8.9-4.92-21.74 3.85-20.34 14-11.26-11.59-34.13-6.92-39.93 8.19a52 52 0 0 0-27.89 3.24 96.8 96.8 0 0 0 56.74 2.8c5.72 8.76 20.39 9.35 26.8 1.1 9.83 11.66 31.89 8 37.35-6.24 23.16 19.55 64.71 7.9 74.35-20.83 10.63 14.25 35 14.89 46.37 1.24a22.08 22.08 0 0 0 42.84 4.39c25.65 29.19 78.29 27.41 101.91-3.44a50.33 50.33 0 0 0 85.23-2.29c8.89 12.6 28.65 15.7 41 6.44 16.17 16.39 47.1 14.27 60.76-4.34a41.19 41.19 0 0 0 77.88 1.63c4.64 9.49 19.39 11.84 26.73 4.23 11.71 20.06 44.75 22.24 59 3.89a55.36 55.36 0 0 0 27.09 17V-4.33c-2.45 1.64-3.75 3.61-2.85 5.82z" fill="url(#C)"/><path d="M1125.46-7.41a59.06,59.06,0,0,0-8.22,15.83C1112,1.61,1105.44-5,1097-6.33s-18.31,6-16.62,14.36c-6-2.92-12.44-5.92-19.15-5.46-8.08.58-11.78,6.35-14.52,13.12A13.52,13.52,0,0,0,1030.83,11,16.21,16.21,0,0,0,1021,24.83c-1.55-4.44-7.45-6.29-11.8-4.47s-7.08,6.39-8,11c-3.89-2.88-8.62-3.78-12.77-.85a31.66,31.66,0,0,1-4.7,3.36,15.43,15.43,0,0,1-6.69.95L964,34.73c-1,1.84,1.16,3.75,3,4.61a39.35,39.35,0,0,0,30.57,0c6,5.55,17.23,3.47,20.85-3.87a18.24,18.24,0,0,0,18-1.1c9.54,14.36,31.35,22.06,44.47,6.88,2.45,10.46,15.34,16.21,25.6,13.12s17.37-13.12,19.55-23.67c-1.29,6.26,19.8,13.28,23.78,14,11.48,1.9,20-2.69,30.28-6.94a8.19,8.19,0,0,0,15,4,22.71,22.71,0,0,0,16,8.79,41.93,41.93,0,0,0,18.48-2.74c10.06-3.57,21.47-9.7,29.25-17a27.78,27.78,0,0,0,51.71.41,21.31,21.31,0,0,0,40.52,8.43,35.91,35.91,0,0,0,16.93,13.24V-7.41Z" fill="url(#D)"/><path d="M1125.08,196c-40.22-16.19-141.65-21.49-242-18.78-142.87,4-297.06,56.61-560.73,123.51h802.72Z" fill="url(#E)"/><path d="M1179,209.22c-10.92-4.4-80.29-21.23-99-24.09,90,31.53-18.63,126-258.87,108.14-227.84-16.91-196-57-172.49-78.07-46,9-75,20.8-120.7,31.33L322.36,300.71l802.72-.35,243-.34Z" fill="#dab20e"/><path d="M637.16 195.92s-8.45 11.47-12.09 35.16 12.09 26.11 12.09 26.11 13.77-4.1 11.15-26.22-11.15-35.05-11.15-35.05z" fill="url(#F)"/><path d="M636.59 229.57L635 271.26h3.87l-2.28-41.69z" fill="#443226"/><path d="M751.55 263.78a16.55 16.55 0 0 0 3.45-10.07c.4-8.89 1.81.7.06-8-.15-3.1-1.92-6.38-9.89-7.61.22-4.85-7-7.07-10.1-3.75 1.18-6.85-11.2-7.22-10.64-3.6a5.06 5.06 0 0 0-7 1.23 5.19 5.19 0 0 0-.84 2 13.9 13.9 0 0 0-5.16-4.05 6.28 6.28 0 0 0-6.28.68 4.17 4.17 0 0 0-.6 5.84h0a6.44 6.44 0 0 0-5.7 1.24 4.12 4.12 0 0 0-.69 5.43 4.94 4.94 0 0 0-7.88 5.87c-1.56-2.38-5.34-1-6.34 1.26-2.14-3.4-6.46-4.8-10.49-5.09a11.39 11.39 0 0 0-6.45 1.07c-3.92 2.16-4.94 7.22-5.54 11.66a11 11 0 0 0-3.41-2.87c-3.23-1.56-6.49 1-8.08 3.75a19.28 19.28 0 0 0-12.75-6.77c-4.92-.23-10.16 2.87-11.21 7.69a14.64 14.64 0 0 0-6.09-1.51 5.09 5.09 0 0 0-4.84 3.41 8.44 8.44 0 0 0-11.29 3.8c-1.36 2.74.57 5.58.46 6.58z" fill="#83831c"/><path d="M662.79 164.56s-12 16.23-17.07 49.74 17.07 37.1 17.07 37.1 19.48-5.77 15.78-37-15.78-49.84-15.78-49.84z" fill="url(#G)"/><path d="M662.01 212.31l-2.26 58.95h5.45l-3.19-58.95z" fill="#443226"/><g fill="#fff8bb"><path class="D Bc" d="M1360.27-7.41l-140.7 307.43h-182.28L1206.44-7.41h153.83z"/><path class="E" d="M1327.58-7.41l-139.02 307.43h-55.2L1297.63-7.41h29.95z" opacity=".2"/></g><path d="M1368.07,248.58H746.57a43.34,43.34,0,0,0-43.34,43.34V300h664.84Z" fill="url(#H)"/><path d="M1000.06 300c116.86-10.48 237-17.58 368-22.65v-28.77H734C594.71 260.88 482.52 300 482.52 300h517.54z" fill="url(#I)"/><path d="M931.31,252s-2.77.28-9.36,2.94c-5.8,3,14.16,6.19,25,6.68s34.38.79,34.38.79V248.79h-39.1Z" fill="url(#J)" class="Be"/><path d="M967.8 300c53.91-20.72 134.34-38.57 200.22-49.61l39.14-1.83c-29.51 6.93-80.78 24.92-129 45q-39.64 3-78.51 6.5L967.8 300z" fill="#ffd039"/><path d="M1078.15 293.58l-6.84 6.44-71.67.06 37.71-3.25 40.8-3.25z" fill="#edbd05"/><path d="M989.5 248.79a17.53 17.53 0 0 0 4-10.56 117.17 117.17 0 0 0-1.31-28.18c-1.37-8.13-5.74-14.91-15.08-14a22.08 22.08 0 0 0-12.59 6.32c-3 2.83-3.18 6.62-2.7 10.49a5.36 5.36 0 0 0-8.46 3.19 14.78 14.78 0 0 0-5.36-4.45 6.67 6.67 0 0 0-6.68.52 4.41 4.41 0 0 0-.83 6.17h0a6.88 6.88 0 0 0-6.09 1.13 4.38 4.38 0 0 0-.9 5.74 5.24 5.24 0 0 0-8.55 6c-1.57-2.58-5.63-1.26-6.76 1.13-2.16-3.67-6.7-5.3-11-5.74a12.18 12.18 0 0 0-6.87.92c-4.23 2.16-5.47 7.5-6.26 12.19a11.58 11.58 0 0 0-3.52-3.16c-3.37-1.76-6.91.81-8.69 3.72a20.46 20.46 0 0 0-13.3-7.66c-5.21-.4-10.87 2.72-12.14 7.79a15.63 15.63 0 0 0-6.41-1.8 5.38 5.38 0 0 0-5.24 3.47 8.94 8.94 0 0 0-12.1 3.66 8.8 8.8 0 0 0-1 3z" fill="url(#K)"/><path d="M994.05,229.84v-7.52h-3.54v-2.84c.63-.22.63-.73.63-1.32V214a1.43,1.43,0,0,0-.86-1.34,40.17,40.17,0,0,1,.18-4.71c.18-1.05,1.59-.81,1.61-.81V206c-.88,0-2.62.19-2.82,1.84-.13,1.13-.17,3.66-.17,4.83a1.49,1.49,0,0,0-.91,1.34v4.11a1.5,1.5,0,0,0,1.13,1.41v2.82h-6.68l-.88,3.66a15.85,15.85,0,0,0-10.69,6,15.35,15.35,0,0,1-7.33-2.37l5.5-5.49,2.73,2.73a.92.92,0,0,0,1.3,0h0a.92.92,0,0,0,0-1.29L966.93,219a.91.91,0,0,0-1.29,0h0a.91.91,0,0,0,0,1.28l2.73,2.73-5.73,5.66a9.26,9.26,0,0,1-1-1v-9.51a1.57,1.57,0,0,0-1.58-1.57h0a1.59,1.59,0,0,0-1.57,1.57v7.09H941.28a3.14,3.14,0,0,0-3.06,2.35h-1.38v5.19H938V236a11,11,0,1,0,13.74,10.67v-.11a11.14,11.14,0,0,0-.51-3.34h16.63a15.8,15.8,0,1,0,26.19-13.34Z" fill-rule="evenodd" fill="url(#L)"/><path d="M782.59,251.53Z" fill="url(#M)"/><path d="M778.61 250.55h.01-.01 0z" fill="url(#N)"/><path d="M957.54 184.61h34v-20.76l94.48-115.58-9.95-6.82-87.79 56.77-17.04 65.63-13.7 20.76z" fill="url(#O)"/><path d="M957.54 184.61l17.32-18.69h16.68v18.69h-34z" fill="url(#P)"/><path d="M1180.62 163.85l-16.06-65.63-80.4-55.57-88.29 61.7-14.56 59.5V277.4h199.31V163.85z" fill="url(#Q)"/><path d="M1174.8 163.85h159.19V277.4H1174.8z" fill="url(#R)"/><path d="M1336.31 163.85l-16.08-65.63h-161.49l16.06 65.63h161.51z" fill="url(#S)"/><path d="M1320.26 98.22l-82.67-56.77h-161.52l82.67 56.77h161.52z" fill="url(#T)"/><path d="M1194.95 184.61h161.49l-20.13-20.76H1174.8l20.15 20.76z" fill="url(#U)"/><path d="M1066.3 41.45l85.21 58.95 16 65.52 17.32 18.69h10.12l-20.15-20.76-16.06-65.63-82.67-56.77h-9.77z" fill="url(#V)"/><path d="M1076.07 41.45l-85.19 58.95-16.02 65.52-17.32 18.69h-10.09l20.12-20.76 16.06-65.63 82.67-56.77h9.77z" fill="url(#W)"/><path d="M995.87 104.35l-4.99-3.95 79.86-55.8 5.39 3.64-80.26 56.11z" fill="url(#X)"/><path d="M1151.43 30.26h3.87v-3.38l-3.87 3.38z" fill="url(#Y)"/><path d="M1182.94 24.76h33.43v28.1h-33.43z" fill="url(#Z)"/><path d="M1182.94 52.86l-17.84-11.41h-9.8V24.79l13.82-12.19 13.82 12.19v28.07z" fill="url(#a)"/><path d="M1224.8 28.11l-17.69-15.51h-37.99l17.66 15.51h38.02z" fill="url(#b)"/><path d="M1186.81 28.11h37.99v2.15h-37.99z" fill="url(#c)"/><path d="M1186.78 30.26l-17.66-15.51V12.6l17.66 15.51v2.15z" fill="url(#d)"/><path d="M1151.43 30.26l17.69-15.51V12.6l-17.69 15.51v2.15z" fill="url(#e)"/><path d="M1040.69 191.09h76.44v86.31h-76.44z" fill="url(#f)"/><path d="M1114.67 193.56h4.93v83.84h-4.93z" fill="url(#g)"/><path d="M1043.16 193.56h4.93v83.84h-4.93z" fill="url(#h)" class="Be"/><path d="M1078.91 193.56h4.93v83.84h-4.93z" fill="url(#i)" class="Be"/><path d="M1043.13 193.59h72.68v4.93h-72.68z" fill="url(#j)" class="Be"/><path d="M1044.86 234.24h68.88v4.93h-68.88z" fill="url(#k)" class="Be"/><path d="M1048.09 193.56l35.75 43.15h-4.93l-35.75-43.15h4.93z" fill="url(#l)" class="Be"/><path d="M1114.67 193.56l-35.76 43.15h4.93l35.76-43.15h-4.93z" fill="url(#m)" class="Be"/><path d="M1050.12 277.4l33.72-40.69h-4.93l-33.72 40.69h4.93z" fill="url(#n)" class="Be"/><path d="M1112.63 277.4l-33.72-40.69h4.93l33.7 40.69h-4.91z" fill="url(#o)"/><path d="M1112.2 191.09l-35.75 43.15-35.76 43.16h4.93l35.76-43.16 35.75-43.15h-4.93z" fill="url(#p)"/><path d="M1081.38 234.24l-35.76-43.15h-4.93l35.76 43.15 35.75 43.16h4.93l-35.75-43.16z" fill="url(#q)"/><path d="M1076.45 191.09h4.93v86.31h-4.93z" fill="url(#r)"/><path d="M1112.2 191.09v.03h-66.58v-.03h-4.93v.03h-.03v4.93h.03v81.35h4.93v-81.35h66.58v81.35h4.93v-86.31h-4.93z" fill="url(#s)"/><path d="M1040.69 231.78h76.44v4.93h-76.44z" fill="url(#t)"/><path d="M1056 108.31h45.82v50.29H1056z" fill="url(#u)"/><path d="M1062.74 110.23h31.9v4.7h-31.9z" fill="url(#v)" class="Be"/><path d="M1103.89 110.2h-4.71v45.62h-41.11v4.71h45.82v-.03h0v-50.3z" fill="url(#w)" class="Be"/><path d="M1058.07 110.2h4.7v47.97h-4.7z" fill="url(#x)" class="Be"/><path d="M1099.18 110.23l-36.44 45.59v4.71l36.44-45.59v-4.71z" fill="url(#y)" class="Be"/><path d="M1062.74 110.23l36.44 45.59v4.71l-36.44-45.59v-4.71z" fill="url(#z)" class="Be"/><path d="M1097.12 108.31l-18.21 22.8-18.21-22.8v4.7l16.33 20.45-16.33 20.44v4.7l18.21-22.79 18.21 22.79v-4.7l-16.33-20.44 16.33-20.45v-4.7z" fill="url(#AA)"/><path d="M1097.12 108.34H1056v50.29h4.71 0 36.44 0 4.7v-50.29zm-36.44 45.56V113h36.44v40.9z" fill="url(#AB)"/><path d="M1333.99 184.61v8.98l-149.3 1.17-5.76-11.75-4.13-9.23 10.03 10.83h149.16z" opacity=".35" fill="url(#AC)"/><path d="M1174.8 173.78v6.57l-11.35-12.39-15.34-66.22-74.77-51.55 2.79-1.95 75.38 52.16 16 65.52 7.29 7.86z" opacity=".35" fill="url(#AD)"/><path d="M736.44,131.81s-.6-.1-2,.95-7,8.17-7.72,10.36-1.48,3.82-2.13,6.27-9,17-9,17-3.56,5.43-3.44,7.92-.31,12.58-.31,12.58h12.59l9.49,3.83,3.8,2.52,2.38-2.52,4.51-8.34.71-2,.47-11.76-1.66-8.69-3.62-14.89Z" fill="url(#AE)"/><g class="Bc Bd"><path d="M732.24 137.36l2.51 2.38a12.24 12.24 0 0 1 3.54-1.89l-1-3.3a15.94 15.94 0 0 0-4.82 2.61zM728 154.18c.45-2.07 2.95-7.89 4.86-11.5l-2.59-2.46a73.8 73.8 0 0 0-5.64 13.22 44.07 44.07 0 0 1-3.06 6.27 79.03 79.03 0 0 1 3.57.65 33.56 33.56 0 0 0 2.86-6.18zm-10.85 29.65l-3.46.36a22.51 22.51 0 0 0 0 2.82h3.1l.36-.07a15.33 15.33 0 0 1 0-3.11zm1.68-19.16l-3.68 7a75.61 75.61 0 0 0-1.23 9l3.49-.34a69.76 69.76 0 0 1 1.05-7.66c.2-.62 2-3.8 3.38-6.35l1.55-2.81-3.61-.58z"/><path d="M713.92 180.69l-1.93.24-.12 3.49 1.82-.23.23-3.5zm3.49-.34l-.26 3.48 6.74-.34c4.15 0 12.07 4.81 16 7.52l.15-.16 1.54-2.86c-3.65-2.48-12.31-7.94-17.73-7.94-2.16 0-4.41.13-6.44.3z"/><path d="M713.69 184.19l3.46-.36.26-3.48-3.49.34-.23 3.5zm7.86-24.48l-2.06-.27-1.83 3.28 2.12.23 1.77-3.24zm3.57.65l-1.73 3.17c2 .38 4.2.9 6.7 1.63a66.48 66.48 0 0 1 15.54 7.39l.15-3.86v-.11a66.34 66.34 0 0 0-14.7-6.72l-5.96-1.5z"/><path d="M721.55 159.71l-1.77 3.24 3.61.58 1.73-3.17-3.57-.65zm10.69-22.35l-1.06-1-2.09 2.77 1.16 1.06a14.76 14.76 0 0 1 1.99-2.83zm2.51 2.38h-.06a12.55 12.55 0 0 0-1.85 2.89c3.71 3.64 8.26 8.57 10.1 12.44l-2.22-9.1c-1.96-2.23-4.09-4.42-5.97-6.23z"/><path d="M734.69 139.79h.06l-2.51-2.38a14.76 14.76 0 0 0-2 2.86l2.59 2.46a12.55 12.55 0 0 1 1.86-2.94z"/></g><g class="Bc Bd"><path d="M732.28 138.18l1.67 1.57a2.48 2.48 0 0 1 .37-.4 12.84 12.84 0 0 1 3.8-2l-.67-2.2a15.37 15.37 0 0 0-4.62 2.5 4.5 4.5 0 0 0-.55.53zm-4.86 15.87a71.69 71.69 0 0 1 5.27-12.3l-1.71-1.63a71.46 71.46 0 0 0-5.81 13.44 46.33 46.33 0 0 1-3.3 6.78l2.38.43a37.9 37.9 0 0 0 3.17-6.72zM716.6 183.3l-2.3.24a24.52 24.52 0 0 0 0 3.47h2.32a18.67 18.67 0 0 1-.02-3.71zm2.73-18.36a67.14 67.14 0 0 0-3.63 6.93 80.28 80.28 0 0 0-1.24 9.34l2.32-.23a74.48 74.48 0 0 1 1.13-8.47c.17-.57 1.9-3.7 3.43-6.45l1.75-3.17-2.4-.4z"/><path d="M714.46 181.21l-2.49.3-.08 2.33 2.41-.3.16-2.33zm2.32-.21l-.18 2.32 7.29-.38c4.66 0 13.13 5.43 16.36 7.62l1.1-2c-3.53-2.38-12.22-7.88-17.46-7.88-2.43-.06-4.89.1-7.11.32z"/><path d="M714.3 183.54l2.3-.24c0-.73.11-1.52.18-2.32l-2.32.23-.16 2.33zm7.57-23.2l-2.68-.36-1.19 2.19 2.73.32zm2.38.43l-1.16 2.12a72.2 72.2 0 0 1 7.16 1.72 66.2 66.2 0 0 1 15.41 7.28l.1-2.64a66.3 66.3 0 0 0-14.86-6.84l-6.65-1.64z"/><path d="M721.87 160.34l-1.18 2.15 2.4.4 1.16-2.12-2.38-.43zM734 139.75a16.88 16.88 0 0 0-1.26 2c3.28 3.17 7.38 7.49 9.73 11.26l-1.47-5.75a96.77 96.77 0 0 0-7-7.51zm-1.72-1.57l-1.46-1.34-1.39 1.85 1.55 1.43a17.94 17.94 0 0 1 1.3-1.94z"/><path d="M734 139.75l-1.67-1.57a17.94 17.94 0 0 0-1.3 1.94l1.71 1.63a16.88 16.88 0 0 1 1.26-2z"/></g><g class="Bc Bd"><path d="M732.35 139l.84.79a4.87 4.87 0 0 1 .76-.91 13.33 13.33 0 0 1 4-2.16l-.34-1.1a14.36 14.36 0 0 0-4.41 2.38 5.38 5.38 0 0 0-.85 1zm-16.29 43.78l-1.15.11a25.69 25.69 0 0 0 0 4.12h1.16a22.5 22.5 0 0 1-.01-4.23zm3.78-17.56a68.36 68.36 0 0 0-3.58 6.81 81.85 81.85 0 0 0-1.27 9.7l1.16-.12a76.24 76.24 0 0 1 1.21-9.26c.18-.62 1.86-3.65 3.48-6.57l1.95-3.53-1.2-.2zm7.02-11.29a71.31 71.31 0 0 1 5.69-13.12l-.84-.8a71.32 71.32 0 0 0-6 13.67 49 49 0 0 1-3.55 7.29l1.19.21a45 45 0 0 0 3.51-7.25z"/><path d="M715 181.73l-3 .37v1.16l3-.37c-.07-.37 0-.76 0-1.16zm1.15-.12c0 .4-.06.79-.09 1.17l7.83-.44c4.79 0 13.33 5.45 16.63 7.69l.55-1c-3.45-2.34-12.07-7.81-17.18-7.81-2.65-.02-5.42.17-7.74.39z"/><path d="M714.91 182.89l1.15-.11c0-.38.05-.77.09-1.17l-1.16.12c.01.4-.06.79-.08 1.16zm7.27-21.89l-3.3-.45-.61 1.1 3.32.43zm1.19.18l-.58 1.07a72.93 72.93 0 0 1 7.62 1.81 66.77 66.77 0 0 1 15.27 7.17l.06-1.32a67 67 0 0 0-15-6.95 73.15 73.15 0 0 0-7.37-1.78z"/><path d="M722.18 161l-.59 1.08 1.2.2.58-1.07zm10.17-22l-1.88-1.73-.7.92 1.94 1.79.64-.98zm.84.82c-.2.28-.41.62-.64 1a78.94 78.94 0 0 1 9.45 10.56l-.69-2.83a90.86 90.86 0 0 0-8.12-8.73z"/><path d="M733.19 139.82l-.84-.79-.64 1 .84.8.64-1.01z"/></g><path d="M841.53 139.69s1 .28 2.54 3.39 8.15 15.85 9.41 19.8 6.65 16.46 8.15 19.39 4.67 10.13 5 17.53v4.47s-18.77-4.42-24.74-3.36c-1-2.66-3.91-2.68-7.15-3.34s-9-4.69-9.16-8.65 3.93-18.41 3.93-18.41l7.76-23z" fill="url(#AF)"/><g class="Bc Bd"><path d="M858.17 190.59l3-.15-.44-1.51c-1.3-4-3.93-8.61-6.54-13.13a73.44 73.44 0 0 0-3.4 1h0c2.65 4.58 5.4 9.32 6.66 13.18.07.21.12.42.18.64h.46zm3.61 3.28l-3.38.15h-.07a29.59 29.59 0 0 1-.36 8.43l3.39.67a32.83 32.83 0 0 0 .42-9.25zm-13.3-29.09c0-.07-.84-2.57-2.11-5.86l-3.17 1.32 2 5.61a48 48 0 0 0 3.84 7.89l3.37-1a50.79 50.79 0 0 1-3.93-7.96zm-3.39-9.04c-1.75-4.22-4-8.85-6.1-11.36l-1.73 3.17v.16a57.64 57.64 0 0 1 4.72 9.36c.92-.45 2.02-.9 3.11-1.33z"/><path d="M861.19 190.44a26.19 26.19 0 0 1 .59 3.43h4l-.91-3.47c-.99-.02-2.21-.01-3.68.04zm-3.53.2c-11.88 1.14-19.4 5.06-22.49 7a18.89 18.89 0 0 1 4.92 1.23 52.28 52.28 0 0 1 18.24-4.87 21.61 21.61 0 0 0-.67-3.36z"/><path d="M858.17 190.59h0-.46a21.61 21.61 0 0 1 .67 3.39h.07l3.38-.15a26.19 26.19 0 0 0-.59-3.43l-3.07.19zm-23.69-4.94a47.57 47.57 0 0 1 16.33-8.84l-1.76-3.07c-14.22 4.8-20.81 12.71-23.24 16.43a8.76 8.76 0 0 0 2.08 3.25 28.5 28.5 0 0 1 6.59-7.77zm19.32-10.55l.41.7 4.07-1-1.38-3.23-4.48 1.09z"/><path d="M853.8 175.1l-1.38-2.39-3.37 1 1.76 3.07 3.4-1zm-22.45-2.89c2-4.1 4-8.29 11.85-12-.4-1.05-.83-2.12-1.27-3.17-5.58 2.57-8.65 5.4-10.67 8.24l-1.76 5.2-1.32 4.91 1.12.69a43.15 43.15 0 0 0 2.05-3.87zm15.02-13.29l4.77-1.58-1.5-3.14-4.55 1.54 1.28 3.18z"/><path d="M845.09 155.74l-3.16 1.33 1.27 3.17 3.17-1.32-1.28-3.18z"/></g><g class="Bc Bd"><path d="M860.21 189.11c-1.35-4.13-4.16-9-6.87-13.67a61.21 61.21 0 0 0-2.27.67c.09.14.17.28.25.42 2.67 4.61 5.43 9.38 6.7 13.29.15.44.27.88.38 1.33l2.33-.12a19.53 19.53 0 0 0-.52-1.92zM847.94 165l-2.3-6.39-2.12.89 2.23 6.21a51.85 51.85 0 0 0 4.15 8.41l2.26-.69a52.07 52.07 0 0 1-4.22-8.43zm-3.15-8.53c-1.83-4.46-4-9.06-6.1-11.55l-1.19 2.2a56.9 56.9 0 0 1 5.17 10.24 48.51 48.51 0 0 1 2.12-.89zm16.35 36.84l-2.31.11a30 30 0 0 1-.29 9.15l2.26.44a31.66 31.66 0 0 0 .34-9.7z"/><path d="M860.73 191a23.8 23.8 0 0 1 .41 2.28h4.54l-.61-2.31-4.34.03zm-1.9 2.42a20.57 20.57 0 0 0-.43-2.27h-.23c-11.4 1-18.8 4.62-22.16 6.65a19.33 19.33 0 0 1 3.39.77 52.56 52.56 0 0 1 19-5.13z"/><path d="M858.4 191.15a20.57 20.57 0 0 1 .43 2.27l2.31-.11-.41-2.28zm-5.1-15.77v.06l4.71-1.13-.92-2.15-5 1.23 1.21 1.99zm-19.25 9.89a48.1 48.1 0 0 1 17-9.16l-1.17-2a50.26 50.26 0 0 0-17.47 9.55 33.42 33.42 0 0 0-6.36 7.21 9 9 0 0 0 1.41 2.13 29.44 29.44 0 0 1 6.59-7.73z"/><path d="M853.3 175.38l-1.14-2-2.26.69 1.17 2 2.27-.67zm-7.66-16.81q2.33-.9 5.25-1.76l-1-2.08-5.11 1.74.86 2.1zM830.83 172c2.06-4.29 4.17-8.68 12.69-12.5l-.85-2.1c-7.08 3.16-10.16 6.73-12.18 10.22l-1 2.93-1.32 4.91.63.39a41.88 41.88 0 0 0 2.03-3.85z"/><path d="M844.79 156.47l-2.12.89.85 2.1 2.12-.89-.85-2.1z"/></g><g class="Bc Bd"><path d="M859.66 189.29c-1.33-4.09-4.14-8.93-6.85-13.62-.12-.19-.23-.39-.34-.58l-1.13.33.47.83c2.69 4.63 5.46 9.42 6.76 13.39a19.21 19.21 0 0 1 .54 2l1.17-.05a20.22 20.22 0 0 0-.62-2.3zm.82 3.48h-1.16a30 30 0 0 1-.22 9.86l1.14.22a30.65 30.65 0 0 0 .24-10.08zm-13.09-27.64l-2.51-6.87-1 .43 2.47 6.8a55.49 55.49 0 0 0 4.45 8.92l1.13-.34a55.77 55.77 0 0 1-4.54-8.94zm-2.94-7.95c-1.78-4.37-4-9.13-6.05-11.72l-.6 1.11c1.81 2.45 3.85 6.78 5.6 11.05z"/><path d="M859.32 192.82l-.21-1.14h-.89c-10.7 1-17.81 4.2-21.34 6.23.62.11 1.21.22 1.75.37a52.56 52.56 0 0 1 19.68-5.45zm.96-1.19l.2 1.14h5.06l-.3-1.16c-1.24-.08-2.88-.08-4.96.02z"/><path d="M859.11 191.68c.09.38.15.76.21 1.14h1.16l-.2-1.14zm-6.64-16.59q2.52-.74 5.35-1.31l-.46-1.08-5.48 1.37zm-1.13.33l-.59-1a49.9 49.9 0 0 0-17.94 9.65 32.56 32.56 0 0 0-6.43 7.37 7.93 7.93 0 0 0 .71 1.07c1.47-2.51 7.91-12.01 24.25-17.09z"/><path d="M851.88 174.07l-1.13.34.59 1 1.13-.33zm-21.57-2.36c2.15-4.48 4.35-9.07 13.52-13-.15-.35-.29-.71-.43-1.07-9.46 4-11.82 8.79-14 13.44l-1.17 4.36.14.09a40.75 40.75 0 0 0 1.94-3.82zm14.57-13.45l5.76-2-.5-1.05-5.69 2 .43 1.05z"/><path d="M844.45 157.18l-1.05.44.43 1.07 1-.43c-.09-.36-.23-.72-.38-1.08z"/></g><path d="M836.92 136.06c-2.74-1.66-22.8-12.58-25.89-14.36s-40.35-4.7-40.35-4.7l-25.28 10.13c-3.6 1.43-7.72 3.67-8.22 3.76s-.92.54-.74.89 5.86 27.15 8.3 34.51-6 48.9-7.65 56.14-6.53 14.13-7 18-.72 6.65 4.74 6.17 9.38-2.25 11.87-1.78 22.08 5.94 26.23 6.18l16.36.88 4.48.3a35.85 35.85 0 0 0 11.68-1.9c3.09-1.18 9.14-1.18 13.06-3.68s5.93-4.39 5.58-6.64 1.62-2.38 0-8.55-1.09-11.68-1.31-14.41 1.66-21.81 2.49-25.38c.64-2.73 3.61-14.19 6.2-22.49.81-2.59 1.58-4.88 2.23-6.49 2.73-6.76 7.36-20.41 8.07-22.19s-2.11-2.73-4.85-4.39z" fill="url(#AG)"/><g class="Bc Bd"><path d="M823.61 239.75l.44-.32c0-1.42 1-2.13.58-5.41l-3.19.54a16.92 16.92 0 0 0 2.17 5.19zm13.87-96.23l2.09 1.82 2.13-6.1c-.49-.85-1.86-1.55-3.42-2.4l-2.06 5.89a8 8 0 0 1 1.26.79zm-2.58 3.09h0l-6.11 17.77a126.97 126.97 0 0 1 3.8 1.32l5.56-16.18c-.45-.45-1.43-1.4-3.25-2.91zm-11.69 34.88l-1.32 6 3.93.88 1.28-5.89c.5-1.93 2.14-7 4.18-13a114.12 114.12 0 0 0-3.81-1.31l-4.26 13.32zM819.43 208l3.87.12c.52-5.88 1.31-12.91 1.83-15.76l-3.92-.89a162.11 162.11 0 0 0-1.78 16.53zm-.09 11.51a78.58 78.58 0 0 0 1.19 11.13l3.28-.55c-1.19-5.61-.81-10.56-1-13.09a44.92 44.92 0 0 1 .19-4.88l-3.7-.11a93.79 93.79 0 0 0 .04 7.5zm-15.77-82.85l3.58 1 .74-4-3.19-.93c-5.48-1.61-18.79-2-32.38-1.64q.13 1.92.27 4c14.54-.29 26.59.28 30.98 1.57zm-35-1.35l-.26-4a242.91 242.91 0 0 0-25.77 2.18l1.12 3.88a236.8 236.8 0 0 1 24.91-2.06zm-30.01-1.08l-1.48.38.88 3.93 1.72-.46-1.12-3.85z"/><path d="M838.13 149.5l.27.28.08-.07 1.43-4.06-.34-.31-1.44 4.16zm-26.97-10.66c8.69 2.47 21.79 6.19 23.72 7.75l1.34-3.86c-3.54-1.87-12-4.36-24-7.75l-.48-.14-.73 4z"/><path d="M836.22 142.73l-1.34 3.86h0l3.23 2.89 1.44-4.16-2.09-1.82a8 8 0 0 0-1.24-.77zm-28.87 20.4a159.88 159.88 0 0 1 20.12 5.05l1.3-3.82a161.36 161.36 0 0 0-20.87-5.22l-.55 3.99zm-33.53-6.76l.26 4c7 0 14.27.29 21 1a144.96 144.96 0 0 1 8.24 1.08l.56-4a160.5 160.5 0 0 0-8.39-1.09c-6.97-.7-14.49-.97-21.67-.99zm-4.02.01c-7.8.07-15.09.37-20.88.64l.9 4c5.68-.26 12.74-.54 20.23-.6-.05-1.36-.17-2.7-.25-4.04zm61.48 13.11h.07l.12-.39 1.12-3.44h0q-.69 1.97-1.31 3.83zm-86.45-12.28l-2.53.12 1 4 2.44-.12-.91-4z"/><path d="M827.47 168.18l3.81 1.31q.62-1.86 1.29-3.81l-3.8-1.32-1.3 3.82zm-23.26 19.6l17 3.68.68-4-17.2-3.72-.48 4.04zm21.02 4.07v-.23l.79-3.18-.24-.06-.55 3.47zm-54.08-11.99c-7.14.17-15.18.65-21.19 1.06l-.47 4.06c6-.41 14.36-.92 21.65-1.1l.01-4.02zm4.02-.07q0 2 0 4a80.8 80.8 0 0 1 8.62.28c3.63.4 9.85 1.55 16.43 2.88l.49-4c-6.56-1.32-12.76-2.45-16.48-2.86a85.79 85.79 0 0 0-9.06-.3zm-29.28 1.42l-1.53.11-.53 4.08 1.58-.12.48-4.07z"/><path d="M821.89 187.5l-.68 4 3.92.89a4.9 4.9 0 0 1 .1-.5l.59-3.47zm-51.65 17.35l-23.29-2.08-.67 4 23.69 2.11zM743 202.41l-1.85-.17-.73 4 1.9.17.68-4zm31.27 2.79l-.28 4 16.81 1.42 6.71.45.43-4-6.83-.45-16.84-1.42zm27.27 6.09l17.73.72.16-4-17.46-.7-.43 3.98z"/><path d="M819.27 212l3.7.11.33-4-3.87-.12-.16 4.01zm-47.33 20.66l-.4 4c4.8.39 10.11.64 15.89.64 3.45 0 7.08-.1 10.84-.3l-1-4a196.5 196.5 0 0 1-25.33-.34zm30.42 4.09a225.05 225.05 0 0 0 19.08-2.19l-.91-3.92c-6.75 1.06-13.16 1.76-19.2 2.16l1.03 3.95zm-64.46-10.63l-1.7-.59-1.47 3.74 1.92.68 1.25-3.83zm21.1 5.01a140.61 140.61 0 0 1-17.27-3.81l-1.25 3.83a143 143 0 0 0 17.72 3.92l9.31 1.22.41-4-8.92-1.16z"/><path d="M821.44 234.56l3.19-.54a21.56 21.56 0 0 0-.5-2.54l-.32-1.39-3.28.55.91 3.92zM800.71 183l4 .82 2.66-20.65-4-.68-2.66 20.51zm11.07-48.16a79.79 79.79 0 0 1 2.71-11.21L811 121.7h-.08a77.89 77.89 0 0 0-3.06 12.08zm-13.84 72.24l4 .21 2.24-19.51-4-.81-2.24 20.11zm6.64 39.4a70.4 70.4 0 0 0-2.12-9.35c0-.13-.07-.25-.1-.38l-4.09.25.31 1.16a72.41 72.41 0 0 1 2 8.72c.3 3 0 3.78 0 3.81a1.57 1.57 0 0 1 .8-.72l.62 1.37 2.66-.71a20.46 20.46 0 0 0-.08-4.15zm-8.48-20.67a30.86 30.86 0 0 0 1.15 7.23q2-.09 4.08-.24a32 32 0 0 1-1.22-6.87c0-1 .56-6.56 1.43-14.64l-4-.21-1.44 14.73zm11.8-66.67a516.67 516.67 0 0 1 3.15-20.33l-3.9-1.11c-1.09 6.06-2.19 13.2-3.25 20.76l4 .68z"/><path d="M811.05 138.81l.73-4-3.89-1.11-.74 4zm-7.15 19.65l-.56 4 4 .68.55-4-3.99-.68zM800.22 187l4 .81.48-4-4-.82-.48 4.01zm-2.71 24.08l4 .21.43-4-4-.21-.43 4zm-.26 21.92l1 4 4.09-.25-1-3.95q-2.08.2-4.09.2zm-27.45-76.62h4l-.61-10.62-.62-10.57h-1.74l-2.28.08.62 10.66.63 10.45zm5.37 27.43l-4 .07c-.08 6.47-.42 13.7-.9 21l4 .35c.48-7.41.83-14.79.9-21.42zm-7.65 52.48l-1.49 13.46 4 .86 1.56-14-4.07-.32zm4.8-105.13c-.41-5.89-.85-10.61-1.44-14.12h-.2l-3.63 1.45c.51 3.34.9 7.79 1.26 12.81l4.01-.14zm-2.32 77.7l-2 23.43 4 .37 2-23.45zm4.8-38.52l-.72-10h-4l.75 10.27.35 9.19 4-.07a151.35 151.35 0 0 0-.38-9.39z"/><path d="M770.85 135.23h1.74q-.14-2.1-.27-4l-4 .13.26 4zm3.23 25.16l-.26-4h-4l.25 4h4.01zm1.09 19.4l-4 .07v4l4-.07q.02-2.05 0-4zm-4.93 25.06l-.27 4 4 .35.28-4zm-2.31 27.44l-.41 4 4 .37.4-4-3.99-.37zM736.65 230a60 60 0 0 1-6.78 13.71 2.8 2.8 0 0 0 2.83 3 62.32 62.32 0 0 0 7.79-15.51l-3.84-1.2zm12.27-73c-1.46-6.18-3.47-13.46-5.26-19.67-1.53.23-2.87.48-4 .73 1.81 6.28 3.73 13.27 5.15 19.13l1.93-.09zm.57 28l-4.08.3c-.65 5.23-1.48 11.15-2.46 17.13l4 .36c1.05-6.25 1.88-12.41 2.54-17.79zm1.51-15.78a41.91 41.91 0 0 0-1.16-8.22l-2.87.14-1.2.05a40.19 40.19 0 0 1 1.21 7.9c-.07 2.25-.45 6.62-1.07 12.12l4.07-.29c.57-5.3.92-9.49 1.02-11.7zm-8.46-35.75l-1.33-4.45-3.66 1.77 1 3.44 3.99-.76zm.46 89.25c1.2-4.91 2.3-10.41 3.28-16l-4-.37c-.95 5.36-2 10.64-3.18 15.38-.37 1.53-.77 3-1.19 4.36a104.38 104.38 0 0 0 3.84 1.2c.43-1.42.85-2.95 1.25-4.57z"/><path d="M742.54 133.47l-4 .76 1.12 3.85 4-.73-1.12-3.88zm7.28 27.53l-.9-4-2.16.1-1.93.09.92 4 1.2-.05zm.18 19.92l-4.07.29-.48 4.07 4.08-.3.47-4.06zm-3 21.85l-4-.36-.68 4 4 .37.68-4.01zm-9.1 23.35l-1.25 3.83 3.84 1.2 1.25-3.83-3.84-1.2z"/></g><g class="Bc Bd"><path d="M838.07 145.73l2.61-7.49a13.68 13.68 0 0 0-1.25-.77l-2.53 7.25zm-8.5 20.27l1.36.47 6.63-19.28-1.17-1-6.82 19.81zm-8.91 43.32l1.43.05a157.12 157.12 0 0 1 2-18.59l-1.4-.31a158.7 158.7 0 0 0-2.03 18.85zm-.03 10.13a72.69 72.69 0 0 0 1.44 12.24l1.42-.23a71.09 71.09 0 0 1-1.43-12.07v-8.59h-1.43v8.65zm3.83-37.64l-1.54 7.24 1.4.32 1.53-7.2c.54-2.09 2.38-7.71 4.62-14.34l-1.36-.47-4.65 14.45zm-2.07 51.28a23.53 23.53 0 0 0 1.86 5.23 8.39 8.39 0 0 0 .49-2.47c-.28-.77-.6-1.76-.92-3zM769.78 134l-.09-1.43a224.67 224.67 0 0 0-28.08 2.38l.4 1.37c6.63-1.19 17.16-2.01 27.77-2.32z"/><path d="M811.52 137.6c9.86 2.8 22.14 6.3 24.21 8l.66.56.51-1.46-.25-.2c-2.3-1.92-14.22-5.31-24.74-8.3l-1.64-.47-.26 1.42zm-7.59-2.18l4.72 1.36.26-1.41-4.57-1.33c-5.78-1.7-20.88-1.92-33.21-1.55q0 .7.09 1.44c13.93-.4 27.71.01 32.71 1.49zm-63.75-.23l-2.81.68.31 1.41c.81-.25 1.78-.49 2.9-.72l-.4-1.37zm97.38 12l1.36 1.28.53-1.49-1.38-1.25z"/><path d="M836.39 146.18l1.17 1 .51-1.46-1.17-1-.51 1.46zm-41.16 13.91l9.6 1.29.2-1.42-9.65-1.3c-7.33-.75-15.22-1-22.78-1 0 .48.07 1 .1 1.43a223.36 223.36 0 0 1 22.53 1zm10.99 1.53a160.2 160.2 0 0 1 22.89 5.74l.46-1.36a161.64 161.64 0 0 0-23.15-5.8l-.2 1.42zm-35.05-3.96c-8.78 0-17 .41-23.26.7l.32 1.42c6.23-.29 14.37-.64 23-.68zm-24.72.77l-3.83.18.38 1.39 3.8-.18-.35-1.39zm84.02 9.4l1.27.45.44-1.36-1.25-.45-.46 1.36z"/><path d="M829.11 167.36l1.36.47.46-1.36-1.36-.47-.46 1.36zm-5.03 23.42l1.32.3.35-1.39-1.43-.32q-.12.69-.24 1.41zm-77.03-8.36l-2.85.21-.19 1.46 2.87-.22.17-1.45zm26.83-1.33v1.44a91.05 91.05 0 0 1 10 .28c3.89.43 10.69 1.7 17.75 3.14.05-.48.11-1 .17-1.43-7.06-1.44-13.86-2.71-17.77-3.14a93.77 93.77 0 0 0-10.15-.29zm-1.43.03c-8 .16-17.49.74-24 1.19 0 .48-.11 1-.17 1.46 6.44-.45 16-1.05 24.11-1.21.06-.49.06-.97.06-1.44zm30.62 5.11l19.61 4.24.24-1.42-19.68-4.25-.17 1.43z"/><path d="M822.68 190.47l1.4.31q.12-.72.24-1.41l-1.4-.32-.24 1.42zM744 203.8l-3.15-.28-.26 1.42 3.17.28zm27.44 2.45l-26-2.32-.24 1.42 26.13 2.34.11-1.44zm28.94 3.69l20.22.82.06-1.44-20.13-.81-.15 1.43zm21.62.86h1c0-.46.08-.94.12-1.43h-1.1zm-31-2.89l-18.14-1.53c0 .48-.07 1-.1 1.43l18.13 1.53 8.05.53c0-.47.11-1 .16-1.43l-8.1-.53z"/><path d="M820.6 210.76h1.43l.06-1.43-1.43-.05zm-61.9 21.63a140.77 140.77 0 0 1-18.58-4.2l-.44 1.36a141.39 141.39 0 0 0 18.73 4.25c3.11.49 6.64 1 10.53 1.33 0-.46.09-.94.14-1.42-3.84-.37-7.31-.83-10.38-1.32zm65.12.45l.6-.1-.29-1.26v-.13l-.61.11q.14.74.3 1.38zm-53.31 1c0 .48-.1 1-.14 1.43a194.06 194.06 0 0 0 17.06.74c3.75 0 7.7-.12 11.82-.35l-.37-1.41a197.93 197.93 0 0 1-28.37-.41zm-31.76-6.08l-3-1-.53 1.34 3.06 1zm61.59 6.41l.37 1.41c6.77-.43 14-1.23 21.68-2.49-.11-.44-.22-.9-.32-1.4a217.89 217.89 0 0 1-21.73 2.48z"/><path d="M822.39 233.09l1.43-.25q-.17-.65-.33-1.38l-1.42.23.32 1.4zM803.3 246.6a73.69 73.69 0 0 0-2.09-9.14l-.5-1.88-1.46.08.58 2.17a72.11 72.11 0 0 1 2 8.92c.38 3.75-.12 4.49-.14 4.52a.47.47 0 0 1 .18-.13l.09.2 1.29-.31a15.9 15.9 0 0 0 .05-4.43zm-2.92-36.66l-1.43-.07c-1 8.87-1.53 15-1.56 16a36.84 36.84 0 0 0 1.49 8.4l1.46-.08a37.55 37.55 0 0 1-1.52-8.28c.03-.99.61-7.12 1.56-15.97zm-1.27-1.5l1.42.07 2.54-22.28-1.39-.28-2.57 22.49zm11.16-72.69a86.55 86.55 0 0 1 3.08-12.75l-1.27-.71a86.88 86.88 0 0 0-3.17 13.08zm-3.85 24.45c1.18-8.49 2.4-16.48 3.59-23l-1.36-.39c-1.2 6.6-2.43 14.65-3.62 23.18zm-4.57 24.32l1.39.28 3-23.18-1.39-.24-3 23.14z"/><path d="M810 137.17l.26-1.42-1.36-.38-.26 1.41zm-5.17 24.21l1.39.24.2-1.42-1.42-.2c0 .43-.1.9-.17 1.38zM801.68 186l1.39.28.17-1.43-1.39-.28-.17 1.43zM799 209.87l1.43.07c0-.47.1-.94.15-1.43l-1.42-.07a7.04 7.04 0 0 0-.16 1.43zm-.12 24.38l.37 1.41 1.46-.08-.37-1.41zm-25-51.72h-1.44c0 7.22-.44 15.46-1 23.69l1.43.13c.56-8.25.96-16.54 1.01-23.82zm-.37-12.08l-.81-11.36h-1.44l.82 11.47c.26 3.07.37 6.64.37 10.55h1.43c0-3.96-.11-7.56-.37-10.66zm-2.34-12.79h1.43l-.68-11.84-.7-11.89h-1.44l.7 11.93.69 11.8zm.17 50.03c-.65 9.26-1.49 18.43-2.26 26l1.43.13 2.26-26zm-2.4 27.44l-1.64 14.91 1.41.31 1.66-15.08zm1.83-102.63h.36c-.41-6.09-.86-11.25-1.48-15.05l-1.37.55c.58 3.71 1 8.74 1.41 14.55z"/><path d="M771.22 133.93q0-.74-.09-1.44h-.36-1.08l.09 1.43zm1.48 25.16c0-.47-.07-1-.1-1.43h-1.43l.09 1.44zm1.18 22h-1.43v1.44h1.44zm-2.44 25.16c0 .48-.06 1-.1 1.44l1.43.12c0-.48.07-.95.1-1.43zm-2.36 27.46l-.14 1.42 1.43.14c0-.47.09-1 .14-1.43zm-27.47-98.79l-1.58-5.33-1.31.64 1.46 5zm6.72 48.85l-1.45.1c-.72 6-1.68 12.94-2.86 19.93l1.43.13a429.91 429.91 0 0 0 2.88-20.16zm-6.59 38.64c1.29-5.23 2.45-11.12 3.47-17.06l-1.43-.13c-1 5.86-2.16 11.68-3.43 16.85-.5 2-1 3.92-1.6 5.69l1.37.43a87.26 87.26 0 0 0 1.62-5.78zm6.17-64.05c-1.58-6.8-3.93-15.25-5.9-22.07l-1.43.27c2 6.75 4.3 15.14 5.87 21.87h.37zm1.78 10.82a47.41 47.41 0 0 0-1.46-9.4l-1.34.07h-.11a46.65 46.65 0 0 1 1.47 9.28c-.08 2.41-.5 7.24-1.2 13.29l1.45-.11c.69-5.97 1.11-10.73 1.19-13.13zm-11.39 59.94a60.92 60.92 0 0 1-8 16.2 2.33 2.33 0 0 0 1.08 1 61.19 61.19 0 0 0 8.31-16.76z"/><path d="M741.61 134.92l-1.43.27.4 1.37 1.43-.27-.4-1.37zm6.62 24.86l-.32-1.42h-1.09-.37l.33 1.42h.11zm.27 22.53l-1.45.11-.17 1.45 1.45-.1.17-1.46zm-3.05 21.62l-1.45-.13-.24 1.42 1.43.13zm-6.7 23.83l-.45 1.36 1.38.43.44-1.36z"/></g><g class="Bc Bd"><path d="M822.08 233.58a21.08 21.08 0 0 0 2 5.34 9.91 9.91 0 0 0 .57-4.63l-.31-1.1zm14.85-89.39l1.64 1.41 2.47-7.09a13.57 13.57 0 0 0-2-1.25l-2.35 6.74a2.07 2.07 0 0 1 .24.19zm-7.63 21.27l2.18.75 6.27-18.26-1.86-1.63-6.59 19.14zm-9.05 43.42l2.3.07a162.16 162.16 0 0 1 1.89-17.64l-2.26-.51a161.65 161.65 0 0 0-1.93 18.08zm-.05 10.59a74.38 74.38 0 0 0 1.36 11.87l2.27-.38a71.75 71.75 0 0 1-1.34-11.59v-8.13l-2.3-.07.01 8.3zm3.8-37.77l-1.46 6.83 2.25.51 1.43-6.76c.53-2 2.31-7.46 4.48-13.9l-2.17-.74L824 181.7zm-20.19-45.87l4.36 1.26.42-2.27-4.13-1.19c-5.77-1.7-20.64-1.93-32.93-1.58q.08 1.13.15 2.28c13.72-.33 27.2.05 32.13 1.5zm-34.43-1.43q-.07-1.16-.15-2.28a224.75 224.75 0 0 0-27.32 2.32l.64 2.19a225.56 225.56 0 0 1 26.83-2.23z"/><path d="M811.4 138c9.31 2.65 22.06 6.27 24.06 7.94l.43.37.8-2.3c-2.56-1.84-11.87-4.58-24.66-8.21l-1.24-.36-.41 2.27zm-71.76-3.14l-2.37.59.5 2.25 2.51-.64zM837.75 148l1 1 .84-2.38-1-.94z"/><path d="M836.69 144l-.8 2.3 1.86 1.63.82-2.35-1.64-1.41a2.07 2.07 0 0 0-.24-.17zm-41.5 16.51l9.17 1.23.31-2.28-9.25-1.23a224.06 224.06 0 0 0-22.41-1l.15 2.3c7.33 0 14.95.26 22.03.98zM745.92 158l-3.41.15.58 2.27 3.35-.15-.52-2.27zm84.82 10.38l.87.31.7-2.18-.83-.3zm-60.03-11.15c-8.45.06-16.36.4-22.47.69l.52 2.27c6.06-.28 13.83-.61 22.1-.66zm35.89 4.89a158.13 158.13 0 0 1 22 5.52l.73-2.18a161.9 161.9 0 0 0-22.38-5.61l-.35 2.27z"/><path d="M828.57 167.64l2.17.74.74-2.17-2.18-.75zm-4.13 23.67l.86.19.55-2.23-1-.23-.41 2.27zM746.66 182l-2.41.18-.3 2.33 2.44-.18.27-2.33zm25.34-1.3c-7.73.16-16.71.71-23 1.15l-.27 2.32c6.3-.44 15.48-1 23.29-1.17-.02-.78-.02-1.55-.02-2.3zm31.45 6.05l18.73 4.05.4-2.27-18.86-4.08zm-29.14-6.09v2.3a85.2 85.2 0 0 1 9.58.28c3.81.42 10.42 1.65 17.33 3l.28-2.29c-6.89-1.4-13.48-2.62-17.36-3a86.84 86.84 0 0 0-9.83-.29z"/><path d="M822.18 190.8l2.26.51.39-2.27-2.25-.51-.4 2.27zm.28 20.44h.58l.19-2.29h-.68l-.09 2.29zm-21.7-.85l19.4.78.09-2.29-19.24-.77-.25 2.28zm-29.76-4.6l-25-2.24-.38 2.27 25.31 2.26.07-2.29zm20 1.69l-17.71-1.49-.16 2.29 17.69 1.49 7.62.5.25-2.29-7.69-.5zm-47.34-4.14l-2.71-.25-.42 2.27 2.75.25.38-2.27z"/><path d="M820.16 211.17l2.3.07.09-2.29-2.3-.07-.09 2.29zm4.2 22.02h.14l-.37-1.69c0-.18-.09-.36-.13-.55h-.17l.53 2.24zm-23.69.52l.59 2.26c6.52-.43 13.48-1.2 20.82-2.39-.18-.68-.35-1.42-.52-2.24a216.81 216.81 0 0 1-20.89 2.37zm-62.2-6.5l-2.55-.87-.85 2.14 2.68.93.72-2.2zm20.34 4.79a139.78 139.78 0 0 1-18.15-4.07l-.71 2.2a141.62 141.62 0 0 0 18.4 4.12 171.95 171.95 0 0 0 10.11 1.3l.24-2.28-9.89-1.27zm12.19 1.45l-.23 2.28c5 .43 10.58.71 16.68.71 3.65 0 7.49-.11 11.49-.33l-.58-2.26a197.66 197.66 0 0 1-27.36-.4z"/><path d="M822.08 233.58l2.28-.39-.53-2.23-2.27.38.52 2.24zm-18.35 12.98a73.43 73.43 0 0 0-2.1-9.21l-.37-1.38-2.34.14.49 1.83a72 72 0 0 1 2 8.85c.35 3.43-.06 4.22-.08 4.25a.91.91 0 0 1 .37-.29l.27.59 1.76-.44a17.92 17.92 0 0 0 0-4.34zm-5-38.56l2.28.13 2.44-21.36-2.24-.46-2.48 21.69zm2.03 2.39l-2.28-.12-1.52 15.56a34.6 34.6 0 0 0 1.38 8l2.33-.14a36.12 36.12 0 0 1-1.42-7.81c.03-.95.59-6.88 1.51-15.49zm10.03-74.94a87.42 87.42 0 0 1 2.94-12.24l-2-1.13a83.31 83.31 0 0 0-3.12 12.74zm-9.3 48.55l2.23.45.94-7.59q1-7.87 1.94-14.74l-2.24-.38-2.87 22.26zm5.43-24.15c1.23-8.78 2.39-16.2 3.46-22.13l-2.21-.63c-1.16 6.43-2.35 14.17-3.5 22.37l2.25.39z"/><path d="M810.38 137.72l.41-2.27-2.2-.63-.42 2.27zm-6.02 24.02l2.24.38.32-2.27-2.25-.39-.31 2.28zm-3.15 24.55l2.24.46.27-2.3-2.23-.45-.28 2.29zm-2.73 23.98l2.28.12.25-2.28-2.28-.13-.25 2.29zm-.14 23.58l.58 2.26 2.34-.14-.59-2.26zm-27.63-76.62H773l-.66-11.43-.67-11.47-2.3.07.67 11.53.67 11.3zM774.3 183H772c-.06 7-.44 14.88-1 22.79l2.29.2c.57-7.99.96-15.99 1.01-22.99zm-3.55-50.93h.78c-.41-6-.86-11-1.48-14.77l-2.18.88c.55 3.61 1 8.47 1.36 14zm3.19 38.34l-.78-10.88h-2.3l.79 11.07c.25 3 .36 6.37.37 10.1h2.29c-.01-3.82-.12-7.29-.37-10.29zm-3.06 37.67c-.63 8.94-1.44 17.77-2.18 25.16l2.28.21 2.19-25.17zm-2.42 27.44l-1.58 14.42 2.25.5 1.62-14.71-2.29-.21z"/><path d="M771.68 134.33q-.07-1.16-.15-2.28h-.78l-1.52.05q.07 1.13.15 2.28zm1.48 25.2l-.15-2.3h-2.3l.15 2.3zm1.15 21.13h-2.29v2.3h2.29v-2.3zM771 205.79c0 .76-.1 1.52-.16 2.29l2.29.2.16-2.29zm-2.3 27.45l-.24 2.28 2.29.21.23-2.28zm-18.58-64.05a45.66 45.66 0 0 0-1.36-9l-1.85.09h-.47a43.8 43.8 0 0 1 1.38 8.82c-.08 2.36-.48 7-1.16 12.89l2.33-.16c.66-5.73 1.01-10.3 1.13-12.64zm-1.4 14.98l-2.33.17c-.69 5.72-1.62 12.34-2.73 19l2.29.21c1.14-6.8 2.05-13.55 2.77-19.38zm-6.81-49.73l-1.49-5-2.09 1 1.31 4.44 2.27-.44zm6.33 23.48c-1.54-6.61-3.78-14.67-5.69-21.29a58.66 58.66 0 0 0-2.27.43c1.89 6.51 4.1 14.47 5.64 21l.88-.05zm-6.08 64.6c1.26-5.13 2.4-10.89 3.41-16.7l-2.29-.21c-1 5.69-2.11 11.33-3.35 16.36-.46 1.86-.95 3.6-1.46 5.24q1 .33 2.19.69.8-2.52 1.5-5.38zm-4.41 6.89a60.26 60.26 0 0 1-7.66 15.45 2.39 2.39 0 0 0 1.69 1.61A61.19 61.19 0 0 0 740 230.1z"/><path d="M741.91 134.44l-2.27.42.64 2.2 2.27-.43zm6.85 25.75l-.52-2.27-1.44.06-.88.05.52 2.27h.47zm.24 21.66l-2.33.16-.27 2.33 2.33-.17.27-2.32zm-3 21.7l-2.29-.21-.38 2.27 2.29.21c.08-.76.21-1.52.38-2.27zm-7.53 23.66l-.72 2.2 2.2.69.71-2.2q-1.2-.36-2.19-.69z"/></g><circle cx="793.3" cy="190.74" r="1.28" fill="url(#AH)"/><circle cx="790.56" cy="213.37" r="1.28" fill="url(#AI)"/><circle cx="787.15" cy="235.65" r="1.28" fill="url(#AJ)"/><ellipse cx="795.92" cy="168.23" rx="1.28" ry=".99" transform="matrix(.203983 -.978974 .978974 .203983 468.86 913.09)" fill="url(#AK)"/><path d="M777.92,251.34a18.56,18.56,0,0,0,4.67-11,129.09,129.09,0,0,1,2.84-17.56c.72-2.3,2.62-18.67,3.09-21.68s2.77-23.42,3.88-26.9.61-7.92,1.37-10.29,2.39-12.42,2.92-15a76,76,0,0,1,5.52-6.57s-.63,8.46-1.42,12.34-3.6,11-4.1,17.25-.57,14.55-1.21,18.16-2.37,19.35-2.69,21.8-2,21.76-2.72,25-2.68,14-3.54,14.94Z" opacity=".51" fill="url(#AL)"/><circle cx="797.59" cy="156.27" r="1.28" fill="url(#AM)"/><path d="M756.43 156s15.71-3 39.49-.12 31.69 8.23 31.69 8.23-1.71 10.94-1.17 13.26-2 17.72-1.28 20.21-1.19 16.14-.24 23 1.42 17.42 1.19 19.42.39 26.74-1.51 36.87-3.16 23.9-3.16 23.9h-98.12s6.91-45.9 6.54-48.51-1.16-14.4 1.06-17.92 7.75-27.1 8.7-31.37 11.76-23 12.59-29.78c0 .03 2.79-15.88 4.22-17.19z" fill="url(#AN)"/><path d="M820.86 171.61a1.23 1.23 0 0 0 .95-.92l8.39-39.1c-.05-1.01-.24-1.05-1.13-1.7s-6.35-4.06-6.88-3.9-1.14.32-1.25 1.19-5.72 33.77-7.64 40.5a1.47 1.47 0 0 0 .08 1.11 8.86 8.86 0 0 0 7.48 2.82z" fill="url(#AO)"/><path d="M737.29 192.67a17.61 17.61 0 0 0-6.77-4.71c-3.88-1.3-6.17-2.88-7.59-3.28s-4.63-2.45-8.91.43-5.14 6.14-6.29 7.56-.71 4.59-.59 6.45-.36 6.86 4 8.28 18.61-8 18.76-8.08 7.39-6.65 7.39-6.65z" fill="url(#AP)"/><g class="Bc Bd"><path d="M727.05 186.57l-1.71-.82.34.47c.4.08.86.2 1.37.35zm-14.22 5.24c1.89-2.38 5.77-4.24 8.85-5.12a10.83 10.83 0 0 0-3.51-2.44 20 20 0 0 0-8 5.42l-.35.45-2.15 2.73c-1 1.49-.6 4.48-.49 6.27v.44a61.63 61.63 0 0 1 5.31-7.29z"/><path d="M721.68 186.69c2 2.09 3.51 5.35 3.71 10.43l3.44-.14a20.15 20.15 0 0 0-3.15-10.76l-.27-.06a10.25 10.25 0 0 0-3.73.53zm-1.96-2.99a7 7 0 0 0-2.78.1 12.18 12.18 0 0 1 1.23.45l1.55-.55z"/><path d="M721.68 186.69a10.25 10.25 0 0 1 3.73-.53l.27.06-.34-.47a17 17 0 0 0-2.41-1.07 19.56 19.56 0 0 0-3.21-1l-1.55.55a10.83 10.83 0 0 1 3.51 2.46z"/></g><g class="Bc Bd"><path d="M724.94 185.56l-.75-.37.32.38a3.16 3.16 0 0 1 .43-.01zm-12.56 5.9c2-2.58 6.18-4.53 9.42-5.4a11.17 11.17 0 0 0-2.24-1.69c-3.37 1.16-7 3.17-9 5.66l-.35.45-3.17 4.07a18.86 18.86 0 0 0 0 4 77.56 77.56 0 0 1 4.92-6.62z"/><path d="M726 197.1l2.29-.09c-.19-4.8-1.45-8.62-3.74-11.44a13.5 13.5 0 0 0-2.71.49c2.16 2.14 3.9 5.56 4.16 11.04zm-5.14-13.1a7.59 7.59 0 0 0-2.8-.33 11.57 11.57 0 0 1 1.5.74c.44-.2.88-.33 1.3-.41z"/><path d="M721.8 186.06a13.5 13.5 0 0 1 2.71-.49l-.32-.38a8.53 8.53 0 0 0-1.26-.51c-.49-.13-1.19-.46-2.07-.72l-1.3.41a11.17 11.17 0 0 1 2.24 1.69z"/></g><g class="Bc Bd"><path d="M723.88 185.05a7.29 7.29 0 0 0-.94-.36l.44.43zm-11.95 6.05c2.08-2.62 6.57-4.79 10.05-5.68a9.88 9.88 0 0 0-1.09-.89c-3.55 1-7.71 3.15-9.86 5.86l-.35.45c-1.45 1.82-2.69 3.39-3.71 4.8v1.92c1.11-1.67 2.67-3.63 4.55-6z"/><path d="M726.53 197.08l1.15-.05c-.23-5.77-2-9.5-4.3-11.91a14.17 14.17 0 0 0-1.4.3c2.4 2.21 4.32 5.8 4.55 11.66zm-4.72-12.8a10.14 10.14 0 0 0-2.3-.62 12.16 12.16 0 0 1 1.38.87l.92-.25z"/><path d="M722 185.42a14.17 14.17 0 0 1 1.4-.3l-.44-.43h0c-.3-.08-.68-.24-1.12-.4l-.92.25a9.88 9.88 0 0 1 1.08.88z"/></g><path d="M814.81 201.53s-15-8.9-55.82-6.2c-3.59 8.85-5.15 35.28-5.15 35.28s31.61 12.13 60.1 6.43c4.33-12.6.87-35.51.87-35.51z" fill="url(#AQ)"/><path d="M737.33,212.66c-2.08,8.46-5,19.4-6.41,21.71-2.22,3.52-1.43,15.31-1.06,17.92s-6.54,48.51-6.54,48.51h30.52c1.32-3.09-3.46-4.51-12.6-5.46s-6.64-4.16-5.93-8.43-1.46-24.41-.83-29.24-.16-13,1.29-15,6.46-1.66,7.81-1.66,4.9-.95,2.17-2.09-8.27-4.8-9.61-6.63,1.42-6.79,1.54-9.78,2.81-6,6.61-8.3,11.24-7.42,11.24-7.42l10.42,94h3.14l-12-99.23Z" opacity=".2" fill="url(#AR)"/><path d="M738.47 192a17.58 17.58 0 0 1-3.28 1.54c-1.19.3-4.09-1.4-6.05-1.94s-6.71-1.2-13.95 3.78c-4.15 3.06-3 3.85-3.2 6.17s-1.07 4.47-.89 5.83 1.48 5.93 3.79 7.41 3.33 1 6.89.91 5.46 1.26 7.42 1.24 14.12-5.59 22.73-11.06c-3.57-6.09-13.46-13.88-13.46-13.88z" fill="url(#AS)"/><path d="M766.72 166.8a1.94 1.94 0 0 0 1.73-2.18l-6.47-44.94c-.92-1.66-6.14 1.54-8.27 2.25s-2.73 1.9-2.73 2.61 5.59 32.43 7.1 41a2.3 2.3 0 0 0 2.51 1.88z" fill="url(#AT)"/><circle cx="763.03" cy="162.19" r="2.35" fill="url(#AU)"/><path d="M748.28 90.37a80.38 80.38 0 0 1-1.6-21.55c.82-11.35 4-43.2 4-43.2s.54-1.61 1.39-1.83.47 2.89.47 2.89-4.95 43.32-4.08 52.12 2.39 11.87 2.39 11.87-2.48.52-2.57-.3z" fill="url(#AV)"/><path d="M747.64 90.77s-9.42-.9-12.91-4.15a18.87 18.87 0 0 1-6.63-13c-.76-6.45-1.88-50.85-1.88-50.85s0-1.44-.82-1.34-.85 3.29-.84 4.28l.69 36.83s.58 15.84 3.8 20.12 4.66 6.52 12.24 8.8c1.69.8 1.65 1.86 5.69 2.24s.66-2.93.66-2.93z" fill="url(#AW)"/><path d="M751.25 91.55a19.58 19.58 0 0 0 7.2-3.39 16.47 16.47 0 0 0 6.69-10.84l9.66-46.94s.12-1.25.81-1.11.51 2.93.43 3.79-7.63 34.82-7.63 34.82-1.62 13.74-4.73 17.24-.18 6.06-6.94 7.5c-1.53.57-1.57 1.5-5.12 1.54s-.37-2.61-.37-2.61z" fill="url(#AX)"/><path d="M746.21 113.43s-.49.27-.7-2-.77-10.73-.77-10.73a10.57 10.57 0 0 1 1.78-4.34 2.35 2.35 0 0 0 .34-2.86s-.11-2.18 1-2.93a3.24 3.24 0 0 1 3.74.8c.4.77.53 3.07 1 4a21.17 21.17 0 0 1 1.62 3.07c.44 1.25 2.16 13.36 2.16 13.36s-.19 1-.52 1.24-9.65.39-9.65.39z" fill="url(#AY)"/><path d="M746.21 113.43l-.08-.67s1.14-3.47 4.46-3.72 5.09 3.16 5.13 3.46a1.42 1.42 0 0 0 .19.52 1.53 1.53 0 0 0 .13-.13 2.71 2.71 0 0 0 0-.84 8.36 8.36 0 0 0-1-2.08 5.33 5.33 0 0 0-2.57-1.53 6.22 6.22 0 0 0-3.55.23 5.1 5.1 0 0 0-2.75 2.71 2.44 2.44 0 0 0 .04 2.05z" fill="url(#AZ)" class="Be"/><path d="M768,300.8l-21.86-188s.21-3.44,4.47-4.09,5.2,3.68,5.2,3.68L777.1,300.8Z" fill="url(#Aa)"/><path d="M764.78 176.48s2-.12 2.47 1.31.66 3.61-.26 4.2l-2.77 1.69a34.44 34.44 0 0 1-2.23-4.46c-.17-.87 1.42-2.55 1.42-2.55z" fill="url(#Ab)"/><path d="M753.16,173.22a2.43,2.43,0,0,0-1.11,1.45c-.27.85-2,2.62-4.53,4s-6,5.51-6,5.51c2.6,1.52,12.18-4.52,12.18-4.52a.45.45,0,0,0,.15-.11Z" fill="url(#Ac)"/><path d="M767.27 181.4s2-.12 2.42 1.29.65 3.52-.25 4.11a14.66 14.66 0 0 1-3.14 1.2 30.18 30.18 0 0 1-1.76-3.88c-.16-.85 1.4-2.49 1.4-2.49z" fill="url(#Ad)"/><path d="M739.21 189.63a2.31 2.31 0 0 1 .06-.31c.26-1.24 1.4-5.68 5-7.2a34.7 34.7 0 0 1 9.26-2.38c.83-.12 4.52-1.23 8-2.29s4.27 4.78 3.92 5.71 1.33 3.74 1.33 4.42-.69 9.67-6.2 12.85-8.61 5.47-8.61 5.47-14.82-4.49-14.23-9.41a24.85 24.85 0 0 1 1.47-6.86z" fill="url(#Ae)"/><path d="M761.49,199.8s4.48-3.18,5.13-4.41a5.24,5.24,0,0,0,.33-3l-1.59.5Z" fill="url(#Af)"/><path d="M765.36,192.92s2.53-.06,3-1.89.54-3,0-3.65-2.06.58-2.06.58Z" fill="url(#Ag)"/><circle cx="800.14" cy="146.43" r="1.28" fill="url(#Ah)"/><path d="M775.3,114.7l6.69,1.48,25.42.29-1,5.29.34,1.24a7,7,0,0,1-.45,4.83l-1.61,3.35a7.65,7.65,0,0,1-2.79,3.15l-.33.21a17.12,17.12,0,0,1-8.61,2.69l-1.15.05a6.89,6.89,0,0,1-4.37-1.39l-4.7-3.55a12.22,12.22,0,0,1-3.94-5.11l-1.31-2.51-1.88-5.28Z" fill="url(#Ai)"/><path d="M806.4,121.76a12.58,12.58,0,0,1-.57,7,13,13,0,0,1-4.58,6c-1,.54-5.14,2.33-8.14,2.36s-3.62.41-9.11-4c-4.51-3.74-5.21-5.89-5.21-5.89l2.45,4.36,4.31,3.81,5.72,5.62,2.5,2.74a55.24,55.24,0,0,1,2.27,6l.65-.87,3.21-4.63,6.66-7.62,3.3-5,.5-6.1-1.74-4.29-1.94-1Z" fill="url(#Aj)"/><path d="M781.24 131.59s6.81 4 9.85 8.27 3.09 4.27 2.22 3.56-6.73-6.14-7.72-6.93-6.51-3-7-3.31 2.65-1.59 2.65-1.59z" fill="url(#Ak)"/><path d="M775.3 114.7a32.84 32.84 0 0 0 3.18 11.77l2.76 5.12c-.32-.35-4.66 4.86-7.1 5.34s-2.39.9-2.55.35-1.74-9.77-2.42-11.29-.15-6.63 1.51-9l2.48-3.52z" fill="url(#Al)"/><g class="Bc Bd"><path d="M772.38 125.4l-.32-.76a21.85 21.85 0 0 1-.88-2.81l-2.29 2.2a5.66 5.66 0 0 0 .28 2 14.12 14.12 0 0 1 .62 2.25 31.78 31.78 0 0 1 2.59-2.88zm2.78-2.33a15.89 15.89 0 0 1 1.56-1l-.87-3.43a18.41 18.41 0 0 0-1.63.91 19.39 19.39 0 0 0 .94 3.52z"/><path d="M774.22 119.55a35.6 35.6 0 0 1-.52-5.74l-.54-.3-2.48 3.52a3.17 3.17 0 0 0-.23.36 33.09 33.09 0 0 0 .73 4.44 25.63 25.63 0 0 1 3.04-2.28zm.94 3.52a24.27 24.27 0 0 0-2.78 2.33c1.71 4.09 3.9 8.16 4.76 9.73 1-.79 1.89-1.69 2.63-2.39a97.12 97.12 0 0 1-4.51-9.39c-.04-.09-.07-.19-.1-.28z"/><path d="M771.18 121.83a21.85 21.85 0 0 0 .88 2.81l.32.76a24.27 24.27 0 0 1 2.78-2.33 19.39 19.39 0 0 1-.94-3.52 25.63 25.63 0 0 0-3.04 2.28z"/></g><g class="Bc Bd"><path d="M774.47 122.86a19.71 19.71 0 0 1 2.09-1.36l-.59-2.28a18.47 18.47 0 0 0-2.15 1.28 20 20 0 0 0 .65 2.36zm-1.88 1.55a22.07 22.07 0 0 1-.77-2.38 30.11 30.11 0 0 0-2.89 2.81 3.9 3.9 0 0 0 .24 1.15 9.78 9.78 0 0 1 .46 1.54 32.63 32.63 0 0 1 2.96-3.12z"/><path d="M773.82 120.5a36.18 36.18 0 0 1-.7-6.93l-2.16 3.07a31.69 31.69 0 0 0 .86 5.39l2-1.53zm.65 2.36l-1.88 1.55h0a102.42 102.42 0 0 0 5 10.33l1.75-1.6a98.05 98.05 0 0 1-4.61-9.59c-.1-.22-.18-.45-.26-.69z"/><path d="M771.82 122a22.07 22.07 0 0 0 .77 2.38l1.88-1.55a20 20 0 0 1-.65-2.36l-2 1.53z"/></g><g class="Bc Bd"><path d="M772.84 123.43l-.37-1.19a31.53 31.53 0 0 0-3.43 3.32 3.17 3.17 0 0 0 .13.43 5.08 5.08 0 0 1 .28.86 31.56 31.56 0 0 1 3.39-3.42zm.95-.78a19.83 19.83 0 0 1 2.6-1.72l-.29-1.13a19.26 19.26 0 0 0-2.64 1.66l.33 1.19z"/><path d="M773.46 121.46a34.46 34.46 0 0 1-.9-7.1l-1.08 1.54a31.82 31.82 0 0 0 1 6.34l.98-.78zm.33 1.19l-.95.78.29.78a105.36 105.36 0 0 0 4.9 10.15l.87-.8a104.58 104.58 0 0 1-4.71-9.78l-.4-1.13z"/><path d="M772.47 122.24l.37 1.19.95-.78-.33-1.19-.99.78z"/></g><path d="M805.45,137.28s-7.37,7.2-8.76,11.6c3.24-3.33,8.69-8.73,9.41-9.2s.15-2.4.15-2.4Z" fill="url(#Am)"/><path d="M808.62 116.48s1-.64 3 5.1a28.86 28.86 0 0 1 1.63 11.55l-.07 2.5c0 2.1-.13 4.71-1.18 5.67-1.59.28-6.08-3.79-6.6-4 1-1.3 4.4-6.27 4-10.37a9.25 9.25 0 0 0-2.84-6l.75-3.91z" fill="url(#An)"/><g class="Bc Bd"><path d="M810.34 126.68c.52 4.65-.28 10.62-.78 13.63a4.45 4.45 0 0 0 2.49 1c1.05-1 1.17-3.57 1.18-5.67 0-.84 0-1.67.07-2.5a28.69 28.69 0 0 0-1.58-11.38l-2.07 1.62a19.31 19.31 0 0 1 .69 3.3zm.04-8.24c-1.17-2.32-1.76-2-1.76-2l-1.3.48-.21 1.12a17.44 17.44 0 0 1 1.19 2z"/><path d="M808.3 120.05l-1.42 1.12a8.79 8.79 0 0 1 1.85 2.93l.92-.73a19.86 19.86 0 0 0-1.35-3.32z"/><path d="M809.65 123.37l2.07-1.62-.05-.17a27.69 27.69 0 0 0-1.29-3.14l-2.08 1.61a19.86 19.86 0 0 1 1.35 3.32z"/></g><g class="Bc Bd"><path d="M811.67 121.58l-.15-.4-1.52 1.23a19.48 19.48 0 0 1 1 4.21c.55 4.84-.32 11-.82 14a3.46 3.46 0 0 0 2 .66 1.82 1.82 0 0 0 .32-.4 70.8 70.8 0 0 0 1-9 28.44 28.44 0 0 0-1.83-10.3zm-1.04-2.58c-1.33-2.91-2-2.49-2-2.49l-1.3.48-.07.34a17.43 17.43 0 0 1 1.78 2.91z"/><path d="M809 120.21l-1.77 1.38a8.93 8.93 0 0 1 1.23 2l1.46-1.14a19.2 19.2 0 0 0-.92-2.24z"/><path d="M810 122.41l1.57-1.23-.89-2.21-1.6 1.24a19.2 19.2 0 0 1 .92 2.2z"/></g><g class="Bc Bd"><path d="M812.62 126.43a21.26 21.26 0 0 0-1.46-5.69l-.95.74a20.28 20.28 0 0 1 1.27 5.08c.57 5-.36 11.45-.86 14.36a3.57 3.57 0 0 0 1.1.39c.51-2.87 1.5-9.55.9-14.88zm-1.94-6.77a19.82 19.82 0 0 0-1.89-3.19.29.29 0 0 0-.17 0l-1 .37a19.21 19.21 0 0 1 2.11 3.53z"/><path d="M811.16 120.74l.15-.12-.44-1.11-.19.15q.24.51.48 1.08zm-1.42-.36l-2.12 1.67a10.75 10.75 0 0 1 .61 1l2-1.55-.49-1.12z"/><path d="M809.74 120.38l.47 1.1.95-.74q-.24-.57-.48-1.08z"/></g><path d="M764.26,249.33Z" fill="url(#Ao)"/><path d="M760.12 248.3l.01.01-.01-.01h0z" fill="url(#Ap)"/><path d="M830.45 239.13S838 226.94 839.7 222a37.26 37.26 0 0 0 1.66-10.87l-.48-1.37 1.66-1.9 11.61.24 7.8 2.67V213l-1.07 1.24-15.13 30.33a25.65 25.65 0 0 1-6.81 8.47l-4.53-8.89z" fill="url(#Aq)"/><circle cx="818.56" cy="166.55" r="2.35" fill="url(#Ar)"/><path d="M824.13 179.68c-3.32 2.14-1.5 10.37-3.87 14.32s-5 11.16-3.17 15.52 1.82 2.84 0 8-1.34 5.22-1.74 13.69-4.43 3.32-9.89 10.36-14.46 8.28-14.46 8.28h0l4.49.3a36.43 36.43 0 0 0 11.68-1.9 32.44 32.44 0 0 1 5.4-1.2h0s.13 2.87-.85 4.13-.6 2.46 0 5.27.19 2.73 1.93 5.54a23.82 23.82 0 0 0 3.17 4.39c1.82 2.21 2.93 1.34 4.59 2.05s.31 3.33 0 4.83-3.09 10.76-3 15-1 6.49-4.36 8.55-15.22 4-15.22 4h22.67s1.26-13.77 3.16-23.9 1.27-34.85 1.51-36.87c0-.45.06-1.32 0-2.47L826 236c.36-1.14.83-2.6-.19-6.6-1.59-6.18-1.11-11.75-1.35-14.48s1.66-21.82 2.49-25.39c.64-2.72 3.61-14.19 6.2-22.49h0s-5.69 10.51-9.02 12.64z" opacity=".2" fill="url(#As)"/><path d="M841.36 211.13s-1.25-2.61 6.11-1.84 13.29 1.6 13.89 2.19-.78 2.38-.48 2.79 2.43 1.07 4.57-1.48 3-8.55 2.79-10.8-4.39-3.74-12-4.87-15.66 3.44-16.55 4.39a4.87 4.87 0 0 0-1 4.3 37.53 37.53 0 0 1 1 4.37s.91 2.45 1.67.95z" fill="url(#At)"/><path d="M822.72 239.08l-7.06 2c-.36.4-2.19 4.45 2.67 4s3.8 2 4.39 2a3.77 3.77 0 0 1 3.31 2c1.14 1.84 3.7 10.21 5.3 10.15s6.29-1.84 7.06-4.39 1.42-3.21 1.66-5.17-1.13-7.83-3.14-9.14-10.63-1.75-14.19-1.45z" fill="url(#Au)"/><path d="M822.72 247l-6.78 4.83c-.91.62-3.34 1.88-2.94 3.74s1.32 2.09 4.4.51 9.57-5.11 9.57-5.11a14.33 14.33 0 0 0-1.14-3 2.28 2.28 0 0 0-3.11-.97z" fill="url(#Av)"/><path d="M829 255.78l-6 3.3c-.84.42-4.43 3.66-6.86 2.75s-.73-3.37 0-3.84 7.53-4.27 8.36-4.79 1.88-2 2.49-2.26 2.4 3.14 2.01 4.84z" fill="url(#Aw)"/><path d="M831.33 259.08s-2.61 3.14-3.78 3.58-5.36 2.81-6.27 2.89-2.61-1.11-1.5-2.54 4.9-3.28 6-3.93a7.42 7.42 0 0 0 2.31-2.79c.34-.71 1.53-1.58 1.88-1s1.48 2.38 1.36 3.79z" fill="url(#Ax)"/><g class="Bc Bd"><path d="M859.23 208c-1-.26-2.05-.46-3.06-.63a8.69 8.69 0 0 1-.19 1.73 9.3 9.3 0 0 1-2.4.85l5.46.82a7.69 7.69 0 0 0 .53-2.69zm.36-3.41l-.05-1.34-.54-5.67-2.81-.46c-.26 0-.51-.05-.77-.08a48.85 48.85 0 0 1 .7 6.87l3.47.68z"/><path d="M859.59 204.59v3.53c4.18 1.08 6.47 2.14 6.79 3.17h0a17.15 17.15 0 0 0 1.29-3.72c-1.34-.94-3.6-1.91-7.59-2.91zM842.63 208a29.08 29.08 0 0 1 13.54-.6v-3.5a32.34 32.34 0 0 0-14.53.81 10.32 10.32 0 0 0-2.83 1.47c.43 1.43.88 4 .88 4l.13.29a2.17 2.17 0 0 1-.08-.47 6.31 6.31 0 0 1 2.89-2z"/><path d="M859.59 204.59l-3.47-.68v3.5l3.06.63.34.08c.11-.89.12-2.04.07-3.53z"/></g><g class="Bc Bd"><path d="M856.76 206.92a8.34 8.34 0 0 1-.29 2.56 4.54 4.54 0 0 1-1.45.7l3.42.52a7.26 7.26 0 0 0 .59-3.3l-2.27-.48zm2.24-1.87l-.07-1.77-.55-5.8-2.22-.36H856a54.54 54.54 0 0 1 .7 7.48l2.3.45z"/><path d="M859 205.05v2.35l.34.08c5.44 1.37 6.87 2.48 7.32 3.16a17.32 17.32 0 0 0 .82-2.43c-1.23-.93-3.43-1.91-7.58-3zm-16.55 2.41a30 30 0 0 1 14.31-.54v-2.33a32 32 0 0 0-15 .68 9.9 9.9 0 0 0-2.85 1.51l.56 2.56a7.45 7.45 0 0 1 2.98-1.88z"/><path d="M859 205.05l-2.3-.46v2.33l2.27.48c.08-.65.09-1.4.03-2.35z"/></g><g class="Bc Bd"><path d="M858.48 205.52a62.82 62.82 0 0 0-.69-8.15l-1.17-.18a60.77 60.77 0 0 1 .69 8.07zm-1.16.92a8.23 8.23 0 0 1-.39 3.4 3 3 0 0 1-.77.5l1.63.25c.46-.55.65-2.05.68-3.9l-1.15-.25z"/><path d="M858.48 205.52v1.17l1 .23c4.91 1.24 6.71 2.32 7.43 3.11l.4-1.22c-1.07-.87-3.18-1.9-7.55-3l-1.28-.29zm-1.16.92v-1.18a31.87 31.87 0 0 0-15.37.56 9.17 9.17 0 0 0-2.87 1.57l.28 1.28a8.18 8.18 0 0 1 2.93-1.76 30.81 30.81 0 0 1 15.03-.47z"/><path d="M858.48 205.52l-1.17-.26v1.18l1.15.25.02-1.17z"/></g><use xlink:href="#BQ" class="Bf"/><use xlink:href="#BQ" fill="url(#Ay)"/><use xlink:href="#BR" class="Bf"/><use xlink:href="#BR" fill="url(#Az)"/><use xlink:href="#BS" class="Bf"/><use xlink:href="#BS" fill="url(#BA)"/><path d="M780.82 97.74a1.34 1.34 0 0 0-1.43 1.26.54.54 0 0 0 0 .18c.5 6 5.9 10.94 12.74 11.33s12.77-3.9 13.94-9.82a1.34 1.34 0 0 0-1.07-1.57 1.13 1.13 0 0 0-.18 0z" fill="url(#BB)"/><path d="M784.51 107.86a14.66 14.66 0 0 0 15.5.88c-.78-3.42-3.94-2.82-7.61-3s-6.73-1.19-7.89 2.12z" fill="url(#BC)"/><path d="M832 65.43a7.3 7.3 0 0 0-6.57 0 35.82 35.82 0 0 0-1.13-3.36l-1-2.4c-3.83-8-10.64-14.92-18.71-18.13l.09-4.44-5.58 2.9-.64-.11c-.39-.06-.78-.11-1.18-.15l-.59-3.39-.17-1a6.82 6.82 0 0 0-.78 0c-5 .12-7.7 4.49-8.13 5.24C779.22 42.87 771.68 49 767 56.5a29.97 29.97 0 0 0-1.3 2.26 32.24 32.24 0 0 0-1.5 3.21l-.19-.12a7.37 7.37 0 0 0-6.34-.63c-6 1.94-8.12 11.51-3.71 17.79a12.22 12.22 0 0 0 5.69 4.72l-.09.33a22.7 22.7 0 0 0-.81 4.9c-.66 11.5 7.26 21.87 19.16 26.9a40.63 40.63 0 0 0 8.7 2.57 43.48 43.48 0 0 0 4.69.56h.37c19.07 1.08 35.23-10.62 36.11-26.14a23.55 23.55 0 0 0-.25-5l-.06-.33a12.4 12.4 0 0 0 6.19-4c5.07-5.74 4.03-15.52-1.66-18.09zM763.44 64a29.64 29.64 0 0 0-1.44 7.6v.54a39.81 39.81 0 0 1-1.58 9.26 9.79 9.79 0 0 1-4.16-3.6c-3.47-5-1.8-12.48 2.92-14a5.8 5.8 0 0 1 4.34.15zm54.5 19.18a11.65 11.65 0 0 1-1 1.54 8.4 8.4 0 0 0-1.32 7.12 18.68 18.68 0 0 1 .86 5.44c-.64 11.13-11.69 19.55-24.7 18.81s-23.05-10.34-22.42-21.48a18.68 18.68 0 0 1 1.47-5.31 8.38 8.38 0 0 0-.5-7.21 13 13 0 0 1-1.61-7.09c.42-7.38 7-13 14.81-12.58a14.52 14.52 0 0 1 7.05 2.27 8.39 8.39 0 0 0 8.27.47 14.45 14.45 0 0 1 7.26-1.46c7.76.43 13.72 6.78 13.3 14.17a12.74 12.74 0 0 1-1.47 5.29zm13.61-1.09a9.93 9.93 0 0 1-4.55 3.09 39.84 39.84 0 0 1-.52-9.38v-.54a29.41 29.41 0 0 0-.62-7.77 5.82 5.82 0 0 1 4.34.34c4.51 2 5.32 9.71 1.32 14.24z" fill="url(#BD)"/><rect x="788.66" y="86.67" width="2.27" height="5.15" rx="1.1" transform="matrix(.466232 -.884662 .884662 .466232 342.61 746.33)" fill="url(#BE)"/><rect x="794.28" y="88.51" width="5.15" height="2.27" rx="1.1" transform="matrix(.931628 -.363414 .363414 .931628 21.9 295.71)" fill="url(#BF)"/><path d="M781.66 81.1h0a3.94 3.94 0 0 1-3.82-4l.07-1.28a3.93 3.93 0 0 1 4.25-3.59h0a3.94 3.94 0 0 1 3.82 4l-.07 1.27a3.94 3.94 0 0 1-4.25 3.6z" fill="url(#BG)"/><path d="M782.16 72.18l-.25 4.46a2 2 0 0 0 4 .23v-.63a3.94 3.94 0 0 0-3.75-4.06z" fill="url(#BH)"/><ellipse cx="782.02" cy="74.73" rx="1.28" ry="1.35" transform="matrix(.056519 -.998402 .998402 .056519 663.2 851.27)" fill="#fff"/><path d="M803.25 61.14c5.26-.83 12.68-4.13 14-5.92 1.42-2-7.19-4.54-7.19-4.54L786.9 45.4l-1.12.43c1.18-1.49 2.37-2.84 3.51-4 .67-.7 1.32-1.35 2-1.93 2.5-2.33 4.55-3.64 5.45-3.5l-.17-1h-.78c-5 .12-7.7 4.48-8.13 5.23-8.44 2.25-15.98 8.37-20.66 15.88-.46.74-.9 1.49-1.3 2.26a32.24 32.24 0 0 0-1.5 3.21l-.19-.12a7.3 7.3 0 0 0-6.34-.63c-6 1.94-8.12 11.5-3.71 17.79a12.3 12.3 0 0 0 5.68 4.71l-.09.33a23.31 23.31 0 0 0-.8 4.9c-.66 11.49 7.26 21.87 19.17 26.9a39.88 39.88 0 0 0 8.7 2.56 35.68 35.68 0 0 1-11.7-13c-3.79-7.57-3.33-19.47-1.12-31.21l1.79-8.09h0a1.22 1.22 0 0 1 1.08-.9 139.24 139.24 0 0 1 41.29 3 12.39 12.39 0 0 0 4.85.11 4.18 4.18 0 0 0 3.27-3.23c-7.67-.92-15.25-2.54-22.83-3.96zm-24-2.76h-1.14a39.2 39.2 0 0 1 1.06-2.28s7.36-.24 10.64 1.69c.92.55 1.83 1.07 2.77 1.54a99 99 0 0 0-13.34-.95z" fill="url(#BI)"/><path d="M805.61 82.32h0a3.93 3.93 0 0 1-3.81-4l.07-1.27a4 4 0 0 1 4.25-3.6h0a3.94 3.94 0 0 1 3.82 4.06l-.08 1.27a3.93 3.93 0 0 1-4.25 3.54z" fill="url(#BJ)"/><path d="M806.12 73.4l-.25 4.46a2 2 0 0 0 4 .23v-.63a4 4 0 0 0-3.75-4.06z" fill="url(#BK)"/><ellipse cx="805.98" cy="75.95" rx="1.28" ry="1.35" transform="matrix(.056519 -.998402 .998402 .056519 684.58 876.35)" fill="#fff"/><path d="M812.86 37.25c-14.87-5-15.71-4.59-15.75-4.54s-.87-.54-16.28 2.71c-14.31 4.11-18.65 25.24-18.1 25.79s4.5 1.49 4.5 1.49l27.88-2.06 27.36 5.22s4.06-.48 4.68-1-.67-21.86-14.29-27.61z" fill="url(#BL)"/><path d="M818.13 40.71c3.06 8.32 3.6 19.77 3.68 25l.66.13s4.06-.48 4.68-1-.34-15.98-9.02-24.13z" fill="url(#BM)"/><path d="M762.73 61.21c.55.55 4.5 1.49 4.5 1.49l1.79-.13c.78-6.87 5-19.28 7-25-10.49 6.82-13.77 23.16-13.29 23.64z" fill="url(#BN)"/><path d="M795.09 61.24s-11.74.37-17.17 1.06a84 84 0 0 1-12.17.55c-.43-.07-.36-2.35-.36-2.35l17.7-5.15h12.24l12.57 1.9 16 6.25a18.36 18.36 0 0 1-.36 2.57c-.24.73-16.64-4.01-28.45-4.83z" fill="url(#BO)"/><path d="M765.75 62.85s0-.87 2.24-1.61 18.09-6.07 26.64-5.64c9.15.11 24.7 7.21 26.26 7.75a3.3 3.3 0 0 1 1.94 2.26 1.47 1.47 0 0 0 1 .76c.68 0 1.38-.7 1.27-2.43a2.77 2.77 0 0 0-1.84-2.15c-.85-.39-9.82-6-20.88-8a55.48 55.48 0 0 0-14.67-.71 124.51 124.51 0 0 0-22 5.88c-1.74.48-1.85 2.63-1.69 3.12s1.11 1.61 1.73.77z" fill="url(#BP)"/></g></svg>