<svg xmlns="http://www.w3.org/2000/svg" xmlns:xlink="http://www.w3.org/1999/xlink" viewBox="0 0 1200 300"><defs><style>.a{mask:url(#a);filter:url(#m);}.b,.d{mix-blend-mode:multiply;}.b{fill:url(#c);}.c{mask:url(#d);filter:url(#p);}.d{fill:url(#f);}.e{fill:none;}.cn,.cv,.ds,.f{isolation:isolate;}.g{clip-path:url(#g);}.h{fill:#2f3459;}.i,.j{fill:#09b9ea;}.as,.i,.k,.l,.m,.o{fill-rule:evenodd;}.k,.n{fill:#0970c0;}.l{fill:#095cc0;}.m,.p{fill:#09ffff;}.o{fill:#92ffff;}.q{fill:url(#h);}.r{fill:url(#i);}.s{fill:url(#j);}.t{fill:url(#k);}.u{mask:url(#l);}.v,.x{mix-blend-mode:overlay;}.bp,.bq,.cw,.dt,.fx,.v,.x{opacity:0.5;}.v{fill:url(#n);}.w{mask:url(#o);}.x{fill:url(#q);}.ce,.y,.z{opacity:0.18;}.y{fill:url(#r);}.z{fill:url(#s);}.aa,.ab{opacity:0.05;}.aa{fill:url(#t);}.ab{fill:url(#u);}.ac{fill:#579abc;}.ad{fill:#404d59;}.ae{fill:#7da2cc;}.af{fill:#92b6dd;}.ag{fill:#48535e;}.ah{fill:#4b6d87;}.ai{fill:#6aa6ce;}.aj{fill:url(#v);}.ak{fill:#f7cf77;}.al,.ap{opacity:0.3;}.al{fill:url(#w);}.am{fill:#434649;}.an{fill:url(#x);}.ao{fill:url(#y);}.ap{fill:url(#z);}.aq{fill:url(#aa);}.ar{fill:url(#ab);}.as{fill:#2b405e;opacity:0.6;}.at{fill:#353e47;}.au{fill:url(#ac);}.av{fill:url(#ad);}.aw{fill:url(#ae);}.ax{fill:url(#af);}.ay{fill:url(#ag);}.az{fill:url(#ah);}.ba{fill:url(#ai);}.bb{fill:url(#aj);}.bc{fill:url(#ak);}.bd{fill:url(#al);}.be{fill:url(#am);}.bf{fill:url(#an);}.bg{fill:url(#ao);}.bh{fill:url(#ap);}.bi{fill:url(#aq);}.bj{fill:url(#ar);}.bk{fill:url(#as);}.bl{fill:url(#at);}.bm{fill:url(#au);}.bn{fill:url(#av);}.bo{fill:url(#aw);}.bp{fill:url(#ax);}.bq{fill:url(#ay);}.br{opacity:0.27;fill:url(#az);}.bs{fill:#486272;}.bt{fill:#364456;}.bu{fill:#a8a4ea;}.bv{fill:#55747c;}.bw{fill:url(#ba);}.bx{fill:url(#bb);}.by{fill:#3e4959;}.bz{fill:url(#bc);}.ca{fill:url(#bd);}.cb{fill:url(#be);}.cc{fill:#889097;}.cd{fill:url(#bf);}.ce{fill:url(#bg);}.cf,.cg{opacity:0.2;}.cf{fill:url(#bh);}.cg{fill:url(#bi);}.ch{mix-blend-mode:screen;fill:url(#bj);}.ci{fill:#fffcfa;opacity:0.25;}.cj{fill:url(#bk);}.ck{fill:url(#bl);}.cl{fill:url(#bm);}.cm{fill:url(#bn);}.cn,.cv,.ds{opacity:0.35;}.cn{fill:url(#bo);}.co{fill:url(#bp);}.cp{fill:url(#bq);}.cq{fill:url(#br);}.cr{fill:url(#bs);}.cs{fill:url(#bt);}.ct{fill:url(#bu);}.cu{fill:url(#bv);}.cv{fill:url(#bw);}.cw{fill:url(#bx);}.cx{fill:#fff;}.cy{fill:url(#by);}.cz{fill:url(#bz);}.da{fill:url(#ca);}.db{fill:url(#cb);}.dc{fill:url(#cc);}.dd{fill:url(#cd);}.de{fill:url(#ce);}.df{fill:url(#cf);}.dg{fill:url(#cg);}.dh{fill:url(#ch);}.di{fill:url(#ci);}.dj{fill:url(#cj);}.dk{fill:url(#ck);}.dl{fill:url(#cl);}.dm{fill:url(#cm);}.dn{fill:url(#cn);}.do{fill:url(#co);}.dp{fill:url(#cp);}.dq{fill:url(#cq);}.dr{fill:url(#cr);}.ds{fill:url(#cs);}.dt{fill:url(#ct);}.du{fill:url(#cu);}.dv{fill:url(#cv);}.dw{fill:url(#cw);}.dx{fill:url(#cx);}.dy{fill:url(#cy);}.dz{fill:url(#cz);}.ea{fill:url(#da);}.eb{fill:url(#db);}.ec{fill:url(#dc);}.ed{fill:url(#dd);}.ee{fill:url(#de);}.ef{fill:url(#df);}.eg{fill:url(#dg);}.eh{fill:url(#dh);}.ei{fill:url(#di);}.ej{fill:url(#dj);}.ek{fill:url(#dk);}.el{fill:#79868e;}.em{fill:url(#dl);}.en{fill:url(#dm);}.eo{fill:url(#dn);}.ep{fill:url(#do);}.eq{fill:url(#dp);}.er{fill:url(#dq);}.es{fill:url(#dr);}.et{fill:url(#ds);}.eu{fill:url(#dt);}.ev{fill:url(#du);}.ew{fill:url(#dv);}.ex{fill:url(#dw);}.ey{fill:url(#dx);}.ez{fill:url(#dy);}.fa{fill:#5b5959;}.fb{fill:url(#dz);}.fc{fill:url(#ea);}.fd{fill:url(#eb);}.fe{fill:url(#ec);}.ff{fill:url(#ed);}.fg{fill:url(#ee);}.fh{fill:url(#ef);}.fi{fill:url(#eg);}.fj{fill:url(#eh);}.fk{fill:url(#ei);}.fl{fill:url(#ej);}.fm{fill:url(#ek);}.fn{opacity:0.62;fill:url(#el);}.fo{fill:url(#em);}.fp{fill:url(#en);}.fq{fill:url(#eo);}.fr{fill:url(#ep);}.fs{fill:url(#eq);}.ft{fill:url(#er);}.fu{fill:url(#es);}.fv{fill:url(#et);}.fw{fill:url(#eu);}.fx{fill:url(#ev);}.fy{opacity:0.56;fill:url(#ew);}.fz,.ga,.gc{opacity:0.65;}.fz{fill:url(#ex);}.ga{fill:url(#ey);}.gb{fill:url(#ez);}.gc{fill:url(#fa);}.gd{filter:url(#e);}.ge{filter:url(#b);}</style><filter id="b" x="425.94" y="-7817.26" width="780.69" height="32766" filterUnits="userSpaceOnUse" color-interpolation-filters="sRGB"><feFlood flood-color="#fff" result="bg"/><feBlend in="SourceGraphic" in2="bg"/></filter><mask id="a" x="425.94" y="-7817.26" width="780.69" height="32766" maskUnits="userSpaceOnUse"><g class="ge"/></mask><linearGradient id="c" x1="5301.04" y1="260.17" x2="4523.26" y2="260.17" gradientTransform="matrix(-1, -0.06, -0.06, 1, 5743.79, 228.56)" gradientUnits="userSpaceOnUse"><stop offset="0"/><stop offset="1" stop-color="#fff"/></linearGradient><filter id="e" x="426.38" y="-7817.26" width="782.01" height="32766" filterUnits="userSpaceOnUse" color-interpolation-filters="sRGB"><feFlood flood-color="#fff" result="bg"/><feBlend in="SourceGraphic" in2="bg"/></filter><mask id="d" x="426.38" y="-7817.26" width="782.01" height="32766" maskUnits="userSpaceOnUse"><g class="gd"/></mask><linearGradient id="f" x1="2727.88" y1="274.94" x2="1949.32" y2="274.94" gradientTransform="matrix(-1, -0.03, -0.06, 1, 3177.59, -8.86)" gradientUnits="userSpaceOnUse"><stop offset="0" stop-color="#fff"/><stop offset="1"/></linearGradient><clipPath id="g"><rect class="e" width="1200" height="300"/></clipPath><radialGradient id="h" cx="730" cy="21.86" r="99.4" gradientUnits="userSpaceOnUse"><stop offset="0.01" stop-color="#006dff"/><stop offset="0.01" stop-color="#006dff"/><stop offset="0.23" stop-color="#006dff" stop-opacity="0.7"/><stop offset="0.44" stop-color="#006dff" stop-opacity="0.45"/><stop offset="0.62" stop-color="#006dff" stop-opacity="0.26"/><stop offset="0.78" stop-color="#006dff" stop-opacity="0.12"/><stop offset="0.92" stop-color="#006dff" stop-opacity="0.03"/><stop offset="1" stop-color="#006dff" stop-opacity="0"/></radialGradient><radialGradient id="i" cx="730" cy="21.86" r="39.13" gradientTransform="translate(580.9 -693.1) rotate(76.5)" gradientUnits="userSpaceOnUse"><stop offset="0.01" stop-color="#0093ff"/><stop offset="0.16" stop-color="#0093ff" stop-opacity="0.87"/><stop offset="0.5" stop-color="#0093ff" stop-opacity="0.54"/><stop offset="0.99" stop-color="#0093ff" stop-opacity="0.01"/><stop offset="1" stop-color="#0093ff" stop-opacity="0"/></radialGradient><linearGradient id="j" x1="730" y1="49.46" x2="730" y2="-5.74" gradientTransform="translate(636 -702.4) rotate(80.9)" gradientUnits="userSpaceOnUse"><stop offset="0" stop-color="#d1e8ff"/><stop offset="0.39" stop-color="#d9f2f1"/><stop offset="0.99" stop-color="#e4ffe0"/></linearGradient><linearGradient id="k" x1="2345.26" y1="355.22" x2="2345.26" y2="241.65" gradientTransform="matrix(-1, -0.06, -0.06, 1, 3175.64, 84.78)" gradientUnits="userSpaceOnUse"><stop offset="0" stop-color="#4c7289"/><stop offset="1" stop-color="#5e8faa"/></linearGradient><filter id="m" x="425.94" y="198.41" width="781.21" height="23.28" filterUnits="userSpaceOnUse" color-interpolation-filters="sRGB"><feFlood flood-color="#fff" result="bg"/><feBlend in="SourceGraphic" in2="bg"/></filter><mask id="l" x="425.94" y="198.41" width="781.21" height="23.28" maskUnits="userSpaceOnUse"><g class="a"><path class="b" d="M1206.6,209.4l-75.5-8.1a514.3,514.3,0,0,0-106.7-.2l-7.6.8a478,478,0,0,1-84.5,1.2l-29.5-2.2C789.6,192,772,212.5,649.6,207.8c-12.3-.5-57.6-2-69.4-1.5l-70.1,3.1a281.9,281.9,0,0,1-55.1-2.9l-28-4.4-1.1,19.6,117.8-4.9a1065.8,1065.8,0,0,1,123.5,2h0a371.7,371.7,0,0,0,53.8-.1l91.1-6.9a436.3,436.3,0,0,1,53.7-.6l150.4,8h.3a304.2,304.2,0,0,0,41.6-.9c44.7-4,92.2-6,147.9,1.8Z"/></g></mask><linearGradient id="n" x1="5301.03" y1="260.17" x2="4522.14" y2="260.17" gradientTransform="matrix(-1, -0.06, -0.06, 1, 5743.79, 228.56)" gradientUnits="userSpaceOnUse"><stop offset="0" stop-color="#fff"/><stop offset="1" stop-color="#fff"/></linearGradient><filter id="p" x="426.38" y="185.84" width="782.01" height="42.8" filterUnits="userSpaceOnUse" color-interpolation-filters="sRGB"><feFlood flood-color="#fff" result="bg"/><feBlend in="SourceGraphic" in2="bg"/></filter><mask id="o" x="426.38" y="185.84" width="782.01" height="42.8" maskUnits="userSpaceOnUse"><g class="c"><path class="d" d="M426.4,221.6l47.1,5.4a297.9,297.9,0,0,0,73.5-1.4l5.6-.8a330.5,330.5,0,0,1,65.4-2.4l24.4,1.5c102.5,6.8,119.8-13.9,252.3-12.5,14.6.2,70.8.5,86.1-.4l96.6-5.9a518.1,518.1,0,0,1,83.8,1.4l45.8,4.7,1.4-25.4-178.7,11.8a1514.1,1514.1,0,0,1-155.5,2.6h0a420.7,420.7,0,0,0-59.5,2l-91.4,9.5a365.5,365.5,0,0,1-48.9,1.9L553.1,210h-.2a185.5,185.5,0,0,0-29.9,1.7c-30.7,4.3-61.7,6.7-96.2,1.7Z"/></g></mask><linearGradient id="q" x1="2727.88" y1="274.96" x2="1949.15" y2="274.96" gradientTransform="matrix(-1, -0.03, -0.06, 1, 3177.59, -8.86)" xlink:href="#n"/><linearGradient id="r" x1="1065.14" y1="128.48" x2="1250.23" y2="330.62" gradientUnits="userSpaceOnUse"><stop offset="0.16" stop-color="#1d1d1b"/><stop offset="0.61" stop-color="#1d1d1b"/><stop offset="0.75" stop-color="#1d1d1b" stop-opacity="0.84"/><stop offset="0.92" stop-color="#1d1d1b" stop-opacity="0.36"/><stop offset="1" stop-color="#1d1d1b" stop-opacity="0"/></linearGradient><linearGradient id="s" x1="917.09" y1="136.31" x2="1002.33" y2="342.71" xlink:href="#r"/><linearGradient id="t" x1="1006.25" y1="119.01" x2="864.08" y2="250.22" xlink:href="#r"/><linearGradient id="u" x1="1221.52" y1="21.6" x2="1078.44" y2="305.94" xlink:href="#r"/><linearGradient id="v" x1="3131.24" y1="-939.9" x2="3134.41" y2="-961.4" gradientTransform="translate(4299.2 -748.5) rotate(180)" gradientUnits="userSpaceOnUse"><stop offset="0" stop-color="#585d60"/><stop offset="1" stop-color="#262c30"/></linearGradient><linearGradient id="w" x1="2539.25" y1="120.15" x2="2653.56" y2="120.15" gradientTransform="matrix(-1, 0, 0, 1, 3706.01, 0)" gradientUnits="userSpaceOnUse"><stop offset="0" stop-color="#efd93f"/><stop offset="0.47" stop-color="#f4a15b"/><stop offset="0.89" stop-color="#f4c45b" stop-opacity="0"/></linearGradient><linearGradient id="x" x1="3132.54" y1="-953.36" x2="3133.38" y2="-959.05" xlink:href="#v"/><linearGradient id="y" x1="1649.07" y1="-941.33" x2="1652.23" y2="-962.82" gradientTransform="matrix(1, 0, 0, -1, -746.9, -748.48)" xlink:href="#v"/><linearGradient id="z" x1="903.37" y1="121.59" x2="1017.68" y2="121.59" gradientTransform="matrix(1, 0, 0, 1, 0, 0)" xlink:href="#w"/><linearGradient id="aa" x1="1650.37" y1="-954.79" x2="1651.21" y2="-960.48" gradientTransform="matrix(1, 0, 0, -1, -746.9, -748.48)" xlink:href="#v"/><linearGradient id="ab" x1="1183.22" y1="212.58" x2="886.4" y2="211.97" gradientUnits="userSpaceOnUse"><stop offset="0" stop-color="#475b6d"/><stop offset="0.93" stop-color="#475b6d"/><stop offset="0.95" stop-color="#4a6273"/><stop offset="0.97" stop-color="#537785"/><stop offset="0.99" stop-color="#6198a1"/><stop offset="1" stop-color="#639ca5"/></linearGradient><linearGradient id="ac" x1="937.49" y1="97.85" x2="937.49" y2="95.19" gradientUnits="userSpaceOnUse"><stop offset="0" stop-color="#55747c"/><stop offset="0.51" stop-color="#54727a"/><stop offset="0.69" stop-color="#506b73"/><stop offset="0.82" stop-color="#496068"/><stop offset="0.93" stop-color="#3f4f57"/><stop offset="1" stop-color="#353e47"/></linearGradient><linearGradient id="ad" x1="918.54" y1="157.06" x2="918.54" y2="152.46" xlink:href="#ac"/><linearGradient id="ae" x1="937.49" y1="36.48" x2="937.49" y2="38.92" xlink:href="#ac"/><linearGradient id="af" x1="1136.36" y1="97.85" x2="1136.36" y2="95.19" xlink:href="#ac"/><linearGradient id="ag" x1="1152.01" y1="157.06" x2="1152.01" y2="152.45" xlink:href="#ac"/><linearGradient id="ah" x1="1136.36" y1="36.48" x2="1136.36" y2="38.92" xlink:href="#ac"/><linearGradient id="ai" x1="1038.14" y1="213.35" x2="1036.16" y2="164.11" gradientUnits="userSpaceOnUse"><stop offset="0" stop-color="#fad643"/><stop offset="0.06" stop-color="#fbd849"/><stop offset="0.14" stop-color="#fcdc59"/><stop offset="0.23" stop-color="#fee474"/><stop offset="0.25" stop-color="#ffe67b"/><stop offset="0.28" stop-color="#f4d86b"/><stop offset="0.35" stop-color="#e5c655"/><stop offset="0.43" stop-color="#dab844"/><stop offset="0.52" stop-color="#d2ad38"/><stop offset="0.65" stop-color="#cda831"/><stop offset="1" stop-color="#cca62f"/></linearGradient><linearGradient id="aj" x1="995.83" y1="38.86" x2="1074.4" y2="38.86" gradientUnits="userSpaceOnUse"><stop offset="0" stop-color="#fad643"/><stop offset="0.1" stop-color="#fbd849"/><stop offset="0.23" stop-color="#fcdc59"/><stop offset="0.37" stop-color="#fee474"/><stop offset="0.4" stop-color="#ffe67b"/><stop offset="1" stop-color="#cca62f"/></linearGradient><linearGradient id="ak" x1="2099.33" y1="81.35" x2="2134.55" y2="79.99" gradientTransform="matrix(-1, 0, 0, 1, 3112.6, 0)" gradientUnits="userSpaceOnUse"><stop offset="0" stop-color="#603813"/><stop offset="0.18" stop-color="#663e18"/><stop offset="0.4" stop-color="#754c24"/><stop offset="1" stop-color="#42210b"/></linearGradient><linearGradient id="al" x1="925.72" y1="155.46" x2="1099.62" y2="-9.78" gradientUnits="userSpaceOnUse"><stop offset="0" stop-color="#805b10"/><stop offset="0.03" stop-color="#896319"/><stop offset="0.11" stop-color="#9e742c"/><stop offset="0.19" stop-color="#ab7e38"/><stop offset="0.27" stop-color="#af823c"/><stop offset="0.61" stop-color="#916922"/></linearGradient><linearGradient id="am" x1="1056.88" y1="81.35" x2="1092.11" y2="79.99" gradientTransform="matrix(1, 0, 0, 1, 0, 0)" xlink:href="#ak"/><linearGradient id="an" x1="1149.29" y1="149.36" x2="988.01" y2="20.56" xlink:href="#al"/><linearGradient id="ao" x1="931.66" y1="176.65" x2="974.65" y2="174.34" xlink:href="#aj"/><linearGradient id="ap" x1="1116.62" y1="176.41" x2="1155.31" y2="174.92" xlink:href="#aj"/><linearGradient id="aq" x1="1023.75" y1="54.41" x2="1050.27" y2="54.41" xlink:href="#al"/><linearGradient id="ar" x1="1035.11" y1="43.21" x2="1035.11" y2="65.32" gradientUnits="userSpaceOnUse"><stop offset="0" stop-color="#273b4d"/><stop offset="1" stop-color="#634845"/></linearGradient><linearGradient id="as" x1="1023.75" y1="90.37" x2="1050.27" y2="90.37" xlink:href="#al"/><linearGradient id="at" x1="1035.11" y1="79.17" x2="1035.11" y2="101.28" xlink:href="#ar"/><linearGradient id="au" x1="1035.03" y1="165.39" x2="1035.44" y2="106.21" gradientUnits="userSpaceOnUse"><stop offset="0" stop-color="#c9c9c8"/><stop offset="0.2" stop-color="#f0f0ef"/><stop offset="0.3" stop-color="#fff"/><stop offset="1" stop-color="#c9c9c8"/></linearGradient><linearGradient id="av" x1="1035.32" y1="117.44" x2="1034.95" y2="183.17" gradientTransform="matrix(1, 0, 0, 1, 0, 0)" xlink:href="#ak"/><linearGradient id="aw" x1="1035.03" y1="165.4" x2="1035.44" y2="107.36" xlink:href="#al"/><linearGradient id="ax" x1="1026.88" y1="57.47" x2="1055.5" y2="42.2" gradientUnits="userSpaceOnUse"><stop offset="0.04" stop-color="#a2e6ed"/><stop offset="0.19" stop-color="#85d7e5"/><stop offset="0.37" stop-color="#68c9de"/><stop offset="0.47" stop-color="#5dc3db"/><stop offset="0.55" stop-color="#5bbfd7"/><stop offset="0.64" stop-color="#55b2cb"/><stop offset="0.73" stop-color="#4b9db6"/><stop offset="0.82" stop-color="#3d809a"/><stop offset="0.89" stop-color="#30657f"/></linearGradient><linearGradient id="ay" x1="1026.88" y1="93.42" x2="1055.5" y2="78.16" xlink:href="#ax"/><linearGradient id="az" x1="1177.72" y1="131.08" x2="839.19" y2="-26.62" gradientUnits="userSpaceOnUse"><stop offset="0.04" stop-color="#29235c"/><stop offset="0.06" stop-color="#282760"/><stop offset="0.24" stop-color="#224f90"/><stop offset="0.37" stop-color="#1e68ad"/><stop offset="0.45" stop-color="#1d71b8"/><stop offset="0.55" stop-color="#1f75bb"/><stop offset="0.65" stop-color="#2482c4"/><stop offset="0.75" stop-color="#2e96d3"/><stop offset="0.82" stop-color="#36a9e1"/></linearGradient><linearGradient id="ba" x1="967.27" y1="97.28" x2="896.34" y2="97.12" gradientUnits="userSpaceOnUse"><stop offset="0.04" stop-color="#29235c" stop-opacity="0"/><stop offset="0.45" stop-color="#1d71b8" stop-opacity="0"/><stop offset="0.59" stop-color="#267dbb" stop-opacity="0.02"/><stop offset="0.73" stop-color="#3fa0c5" stop-opacity="0.07"/><stop offset="0.88" stop-color="#6ad9d6" stop-opacity="0.15"/><stop offset="0.95" stop-color="#86ffe1" stop-opacity="0.2"/></linearGradient><linearGradient id="bb" x1="1178.29" y1="97.35" x2="1103.09" y2="97.05" xlink:href="#ba"/><linearGradient id="bc" x1="3104.59" y1="-936.68" x2="3111.47" y2="-983.34" xlink:href="#v"/><linearGradient id="bd" x1="3107.45" y1="-965.9" x2="3109.27" y2="-978.25" xlink:href="#v"/><linearGradient id="be" x1="1674.4" y1="-936.68" x2="1681.27" y2="-983.34" gradientTransform="matrix(1, 0, 0, -1, -800, -748.48)" xlink:href="#v"/><linearGradient id="bf" x1="1677.26" y1="-965.9" x2="1679.08" y2="-978.25" gradientTransform="matrix(1, 0, 0, -1, -800, -748.48)" gradientUnits="userSpaceOnUse"><stop offset="0" stop-color="#889097"/><stop offset="1" stop-color="#4c5963"/></linearGradient><linearGradient id="bg" x1="830.71" y1="236.89" x2="798.87" y2="333.98" gradientUnits="userSpaceOnUse"><stop offset="0" stop-color="#1d1d1b" stop-opacity="0"/><stop offset="0.16" stop-color="#1d1d1b"/><stop offset="0.61" stop-color="#1d1d1b"/><stop offset="0.75" stop-color="#1d1d1b" stop-opacity="0.84"/><stop offset="0.92" stop-color="#1d1d1b" stop-opacity="0.36"/><stop offset="1" stop-color="#1d1d1b" stop-opacity="0"/></linearGradient><linearGradient id="bh" x1="1185.47" y1="211.29" x2="1000.68" y2="73.69" gradientUnits="userSpaceOnUse"><stop offset="0" stop-color="#efd93f"/><stop offset="0.33" stop-color="#f4a15b"/><stop offset="0.61" stop-color="#f4c45b" stop-opacity="0"/></linearGradient><linearGradient id="bi" x1="882.81" y1="209.68" x2="1067.91" y2="73.9" gradientUnits="userSpaceOnUse"><stop offset="0" stop-color="#efd93f"/><stop offset="0.24" stop-color="#f4a15b"/><stop offset="0.66" stop-color="#f4c45b" stop-opacity="0"/></linearGradient><radialGradient id="bj" cx="-1.1" cy="-1069.76" r="164.83" gradientTransform="matrix(0.09, 0.35, -0.36, 0.08, 482.29, 295.89)" gradientUnits="userSpaceOnUse"><stop offset="0.01" stop-color="#f38600"/><stop offset="0.17" stop-color="#f38600" stop-opacity="0.86"/><stop offset="0.52" stop-color="#f38600" stop-opacity="0.51"/><stop offset="1" stop-color="#f38600" stop-opacity="0"/></radialGradient><linearGradient id="bk" x1="872.39" y1="178.48" x2="863.36" y2="179.28" gradientUnits="userSpaceOnUse"><stop offset="0" stop-color="#50c6ef"/><stop offset="0.24" stop-color="#33b3db"/><stop offset="0.64" stop-color="#3fbff2"/><stop offset="0.93" stop-color="#50c6ef"/></linearGradient><linearGradient id="bl" x1="865.21" y1="147.06" x2="746.04" y2="157.59" gradientUnits="userSpaceOnUse"><stop offset="0" stop-color="#f9b233"/><stop offset="0.24" stop-color="#efbb48"/><stop offset="0.64" stop-color="#e29823"/><stop offset="0.94" stop-color="#f9b233"/></linearGradient><linearGradient id="bm" x1="803.64" y1="158.73" x2="794.27" y2="200.08" gradientUnits="userSpaceOnUse"><stop offset="0" stop-color="#f9b233"/><stop offset="0.12" stop-color="#e5a82e"/><stop offset="0.64" stop-color="#c47b12"/><stop offset="0.94" stop-color="#f9b233"/></linearGradient><linearGradient id="bn" x1="1043.66" y1="220.24" x2="1071.56" y2="220.24" gradientTransform="translate(-219.1 -294.9) rotate(11.8)" gradientUnits="userSpaceOnUse"><stop offset="0" stop-color="#a16552"/><stop offset="0.2" stop-color="#935848"/><stop offset="0.5" stop-color="#935848"/><stop offset="0.6" stop-color="#9c604e"/><stop offset="0.73" stop-color="#a16552"/><stop offset="1" stop-color="#966444"/></linearGradient><linearGradient id="bo" x1="4592.03" y1="-60.71" x2="4606.11" y2="-60.71" gradientTransform="matrix(-0.99, -0.15, -0.15, 0.99, 5317.61, 878.92)" gradientUnits="userSpaceOnUse"><stop offset="0" stop-color="#4e3f3f"/><stop offset="0.44" stop-color="#4e3f3f" stop-opacity="0.7"/><stop offset="0.74" stop-color="#4e3f3f" stop-opacity="0.2"/><stop offset="0.91" stop-color="#4e3f3f" stop-opacity="0"/></linearGradient><linearGradient id="bp" x1="769.35" y1="150.42" x2="769.61" y2="148.11" gradientUnits="userSpaceOnUse"><stop offset="0.1" stop-color="#6b3930"/><stop offset="0.45" stop-color="#774338"/><stop offset="0.79" stop-color="#7c483c"/></linearGradient><linearGradient id="bq" x1="760.04" y1="151.26" x2="777.52" y2="151.26" gradientUnits="userSpaceOnUse"><stop offset="0" stop-color="#e6e6e6"/><stop offset="0.41" stop-color="#e6e6e6"/><stop offset="0.54" stop-color="#ededed"/><stop offset="0.73" stop-color="#f2f2f2"/><stop offset="1" stop-color="#fff"/></linearGradient><linearGradient id="br" x1="758.67" y1="187.73" x2="770.28" y2="158.12" gradientUnits="userSpaceOnUse"><stop offset="0" stop-color="#012a4a"/><stop offset="0.32" stop-color="#012a4a"/><stop offset="0.39" stop-color="#012d4f"/><stop offset="0.66" stop-color="#01375e"/><stop offset="0.88" stop-color="#013a63"/><stop offset="1" stop-color="#013a63"/></linearGradient><linearGradient id="bs" x1="785.01" y1="179.03" x2="786.22" y2="162.11" gradientUnits="userSpaceOnUse"><stop offset="0" stop-color="#012a4a"/><stop offset="0.41" stop-color="#012a4a"/><stop offset="0.45" stop-color="#012d4f"/><stop offset="0.6" stop-color="#01375e"/><stop offset="0.73" stop-color="#013a63"/><stop offset="1" stop-color="#013a63"/></linearGradient><linearGradient id="bt" x1="756.34" y1="169.29" x2="756.09" y2="176.78" gradientUnits="userSpaceOnUse"><stop offset="0" stop-color="#8c6b3e"/><stop offset="0.46" stop-color="#8a683d"/><stop offset="0.8" stop-color="#825e38"/><stop offset="1" stop-color="#7a5534"/></linearGradient><linearGradient id="bu" x1="769.08" y1="176.47" x2="775.66" y2="176.47" gradientUnits="userSpaceOnUse"><stop offset="0" stop-color="#fff"/><stop offset="1" stop-color="#c9c9c8"/></linearGradient><linearGradient id="bv" x1="1101.07" y1="207.23" x2="1128.97" y2="207.23" gradientTransform="translate(-267.3 -354.6) rotate(14.2)" xlink:href="#bn"/><linearGradient id="bw" x1="4533.98" y1="-70.46" x2="4548.06" y2="-70.46" gradientTransform="matrix(-0.98, -0.19, -0.19, 0.98, 5213.59, 1057.01)" xlink:href="#bo"/><linearGradient id="bx" x1="755.19" y1="105.8" x2="772.47" y2="137.31" gradientUnits="userSpaceOnUse"><stop offset="0.05" stop-color="#f7e589"/><stop offset="0.2" stop-color="#edcd69"/><stop offset="0.37" stop-color="#e4b74c"/><stop offset="0.47" stop-color="#e0af41"/><stop offset="0.57" stop-color="#dcac40"/><stop offset="0.68" stop-color="#cfa43e"/><stop offset="0.78" stop-color="#bb963b"/><stop offset="0.89" stop-color="#a08437"/></linearGradient><linearGradient id="by" x1="745.04" y1="131.23" x2="795.55" y2="133.96" gradientUnits="userSpaceOnUse"><stop offset="0.04" stop-color="#878787"/><stop offset="0.1" stop-color="#838383"/><stop offset="0.16" stop-color="#767676"/><stop offset="0.22" stop-color="#626261"/><stop offset="0.28" stop-color="#454544"/><stop offset="0.29" stop-color="#3c3c3b"/><stop offset="0.34" stop-color="#40403f"/><stop offset="0.38" stop-color="#4d4d4c"/><stop offset="0.43" stop-color="#626261"/><stop offset="0.47" stop-color="#7f7f7e"/><stop offset="0.52" stop-color="#a4a4a3"/><stop offset="0.55" stop-color="#c9c9c8"/><stop offset="0.74" stop-color="#878787"/></linearGradient><radialGradient id="bz" cx="755.62" cy="132.47" r="7.55" gradientUnits="userSpaceOnUse"><stop offset="0.01" stop-color="#878787"/><stop offset="1" stop-color="#575756"/></radialGradient><linearGradient id="ca" x1="710.83" y1="176.08" x2="721.33" y2="150.59" gradientUnits="userSpaceOnUse"><stop offset="0" stop-color="#c9c9c8"/><stop offset="0.22" stop-color="#f0f0ef"/><stop offset="0.34" stop-color="#fff"/><stop offset="1" stop-color="#c9c9c8"/></linearGradient><linearGradient id="cb" x1="726.88" y1="135.35" x2="739.77" y2="156.8" xlink:href="#ca"/><linearGradient id="cc" x1="753.73" y1="134.14" x2="726.12" y2="220.34" xlink:href="#ca"/><linearGradient id="cd" x1="761.53" y1="173.86" x2="739.91" y2="173.42" xlink:href="#by"/><linearGradient id="ce" x1="1457.13" y1="188.53" x2="1519.92" y2="184.93" gradientTransform="matrix(-1, -0.07, -0.07, 1, 2221.38, 76.03)" gradientUnits="userSpaceOnUse"><stop offset="0.06" stop-color="#dcdcdc"/><stop offset="0.1" stop-color="#dadada"/><stop offset="0.19" stop-color="#ededed"/><stop offset="0.46" stop-color="#f6f6f6"/></linearGradient><linearGradient id="cf" x1="1474.62" y1="216.42" x2="1474.62" y2="182.94" gradientTransform="matrix(-1, -0.07, -0.07, 1, 2221.38, 76.03)" gradientUnits="userSpaceOnUse"><stop offset="0.04" stop-color="#878787"/><stop offset="0.09" stop-color="#9a9a9a"/><stop offset="0.19" stop-color="#ccc"/><stop offset="0.22" stop-color="#dadada"/><stop offset="1" stop-color="#eee"/></linearGradient><linearGradient id="cg" x1="1456.64" y1="164.41" x2="1485.52" y2="155.99" gradientTransform="matrix(-1, -0.07, -0.07, 1, 2221.38, 76.03)" gradientUnits="userSpaceOnUse"><stop offset="0.04" stop-color="#878787"/><stop offset="0.09" stop-color="#9a9a9a"/><stop offset="0.19" stop-color="#ccc"/><stop offset="0.22" stop-color="#dadada"/></linearGradient><linearGradient id="ch" x1="1473.14" y1="161.55" x2="1498.06" y2="154.29" xlink:href="#cg"/><radialGradient id="ci" cx="2826.72" cy="-150.85" r="1.21" gradientTransform="matrix(0, -0.81, -0.41, 0, 687.25, 2433.59)" gradientUnits="userSpaceOnUse"><stop offset="0.01" stop-color="#3c3c3b"/><stop offset="1"/></radialGradient><linearGradient id="cj" x1="1484.7" y1="190.67" x2="1487.21" y2="217.33" gradientTransform="matrix(-0.11, -1.01, -0.99, 0.11, 1091.33, 1639.08)" gradientUnits="userSpaceOnUse"><stop offset="0" stop-color="#dadada"/><stop offset="0.27" stop-color="#878787"/><stop offset="0.35" stop-color="#9a9a9a"/><stop offset="0.53" stop-color="#ccc"/><stop offset="0.57" stop-color="#dadada"/><stop offset="1" stop-color="#eee"/></linearGradient><radialGradient id="ck" cx="3271.56" cy="-743.9" r="1.56" gradientTransform="matrix(0, -2.01, -4.15, 0, -2353.31, 6736.74)" xlink:href="#ci"/><linearGradient id="cl" x1="1479.18" y1="206.43" x2="1475.19" y2="166.61" gradientTransform="matrix(-0.11, -0.99, -0.99, 0.11, 1090.86, 1614.67)" xlink:href="#cf"/><radialGradient id="cm" cx="2846.2" cy="-152.24" r="1.05" gradientTransform="matrix(0, -0.81, -0.41, 0, 671.24, 2445.67)" xlink:href="#ci"/><linearGradient id="cn" x1="1669.96" y1="189.93" x2="1716.73" y2="187.24" gradientTransform="matrix(-1, -0.07, -0.07, 1, 2434.91, 91.81)" gradientUnits="userSpaceOnUse"><stop offset="0" stop-color="#9d9d9c"/><stop offset="0.02" stop-color="#aaa"/><stop offset="0.1" stop-color="#dadada"/><stop offset="0.19" stop-color="#ededed"/><stop offset="0.46" stop-color="#f6f6f6"/></linearGradient><linearGradient id="co" x1="707.03" y1="183.7" x2="710.57" y2="183.7" xlink:href="#bu"/><linearGradient id="cp" x1="709.84" y1="178.03" x2="717.76" y2="183.71" xlink:href="#ca"/><linearGradient id="cq" x1="822.75" y1="171.35" x2="822.75" y2="182.09" gradientUnits="userSpaceOnUse"><stop offset="0" stop-color="#8c6b3e"/><stop offset="0.24" stop-color="#8b683d"/><stop offset="0.41" stop-color="#865e3a"/><stop offset="0.47" stop-color="#845a38"/><stop offset="1" stop-color="#7a5534"/></linearGradient><linearGradient id="cr" x1="966.05" y1="195.76" x2="996.98" y2="195.76" gradientTransform="translate(-125.8 -165.2) rotate(6.3)" xlink:href="#bn"/><linearGradient id="cs" x1="4665.1" y1="-89.46" x2="4680.71" y2="-89.46" gradientTransform="matrix(-1, -0.05, -0.05, 1, 5497.7, 474.31)" xlink:href="#bo"/><linearGradient id="ct" x1="813.6" y1="120.21" x2="848.81" y2="154.41" xlink:href="#bx"/><linearGradient id="cu" x1="806.82" y1="148.9" x2="897.63" y2="153.81" xlink:href="#by"/><radialGradient id="cv" cx="826.47" cy="152.54" r="13.09" xlink:href="#bz"/><linearGradient id="cw" x1="788.99" y1="154.91" x2="808.71" y2="187.7" xlink:href="#ca"/><linearGradient id="cx" x1="825.61" y1="156.69" x2="828.35" y2="200.79" xlink:href="#ca"/><linearGradient id="cy" x1="807.83" y1="168.47" x2="884.68" y2="164.06" gradientTransform="matrix(1, 0, 0, 1, 0, 0)" xlink:href="#ce"/><linearGradient id="cz" x1="845.28" y1="166.84" x2="811.3" y2="169.15" gradientTransform="matrix(1, 0, 0, 1, 0, 0)" xlink:href="#cn"/><linearGradient id="da" x1="833.9" y1="154.62" x2="841.81" y2="125.85" gradientUnits="userSpaceOnUse"><stop offset="0.04" stop-color="#878787"/><stop offset="0.1" stop-color="#9a9a9a"/><stop offset="0.22" stop-color="#ccc"/><stop offset="0.25" stop-color="#dadada"/></linearGradient><linearGradient id="db" x1="815.28" y1="154.97" x2="823.18" y2="126.2" xlink:href="#da"/><radialGradient id="dc" cx="2320.88" cy="941.3" r="1.05" gradientTransform="translate(-1599.5 -94.9) scale(1.04 0.26)" xlink:href="#ci"/><radialGradient id="dd" cx="2389.81" cy="1002.71" r="1.05" gradientTransform="translate(-1652.6 -111) scale(1.04 0.26)" xlink:href="#ci"/><radialGradient id="de" cx="741.76" cy="252.44" r="84.65" gradientTransform="translate(824.8 -489.3) rotate(90) scale(1 0.33)" gradientUnits="userSpaceOnUse"><stop offset="0" stop-color="#1d1d1b"/><stop offset="0.48" stop-color="#1d1d1b"/><stop offset="0.69" stop-color="#292b29"/><stop offset="0.9" stop-color="#393d3b"/></radialGradient><linearGradient id="df" x1="746.9" y1="248.02" x2="829.85" y2="248.02" gradientUnits="userSpaceOnUse"><stop offset="0" stop-color="#1d1d1b"/><stop offset="0.48" stop-color="#1d1d1b"/><stop offset="0.9" stop-color="#1e1e1e"/></linearGradient><linearGradient id="dg" x1="817.66" y1="240.61" x2="708.97" y2="226.49" gradientUnits="userSpaceOnUse"><stop offset="0" stop-color="#e09419"/><stop offset="0.26" stop-color="#efc16f"/><stop offset="0.55" stop-color="#e89613"/><stop offset="0.94" stop-color="#f9b233"/></linearGradient><radialGradient id="dh" cx="850.91" cy="257.44" r="84.65" gradientTransform="translate(935.6 -593.5) rotate(90) scale(1 0.33)" gradientUnits="userSpaceOnUse"><stop offset="0" stop-color="#575756"/><stop offset="0.39" stop-color="#303332"/><stop offset="0.41" stop-color="#313433"/><stop offset="0.54" stop-color="#373b39"/><stop offset="0.9" stop-color="#393d3b"/></radialGradient><radialGradient id="di" cx="847.93" cy="253.69" r="51.17" gradientTransform="matrix(0.03, 1, -0.26, 0.01, 891.73, -595.68)" gradientUnits="userSpaceOnUse"><stop offset="0" stop-color="#76a181"/><stop offset="0.39" stop-color="#5c7762"/><stop offset="0.41" stop-color="#5f7c66"/><stop offset="0.46" stop-color="#698d72"/><stop offset="0.53" stop-color="#71987b"/><stop offset="0.63" stop-color="#759f80"/><stop offset="0.9" stop-color="#76a181"/></radialGradient><linearGradient id="dj" x1="836.27" y1="255.24" x2="851.49" y2="255.24" xlink:href="#bl"/><linearGradient id="dk" x1="849.81" y1="255.67" x2="835.86" y2="255.16" gradientTransform="matrix(1, 0, 0, 1, 0, 0)" xlink:href="#dh"/><radialGradient id="dl" cx="879.71" cy="233.11" r="60.12" gradientTransform="translate(956.4 -646.6) rotate(90) scale(1 0.33)" xlink:href="#dh"/><radialGradient id="dm" cx="877.59" cy="230.45" r="36.35" gradientTransform="matrix(0.03, 1, -0.26, 0.01, 914.56, -648.42)" xlink:href="#di"/><linearGradient id="dn" x1="864.38" y1="231.47" x2="882.34" y2="231.57" xlink:href="#bl"/><linearGradient id="do" x1="878.93" y1="231.85" x2="869.02" y2="231.49" gradientTransform="matrix(1, 0, 0, 1, 0, 0)" xlink:href="#dh"/><linearGradient id="dp" x1="704.79" y1="208.7" x2="835.35" y2="208.7" xlink:href="#bl"/><linearGradient id="dq" x1="875.04" y1="209.2" x2="833.52" y2="212.87" gradientUnits="userSpaceOnUse"><stop offset="0.03" stop-color="#f9b233"/><stop offset="0.4" stop-color="#efbb48"/><stop offset="0.64" stop-color="#e29823"/><stop offset="0.94" stop-color="#f9b233"/></linearGradient><linearGradient id="dr" x1="873.43" y1="170.41" x2="877.93" y2="170.41" xlink:href="#bu"/><linearGradient id="ds" x1="875.99" y1="170.98" x2="881.16" y2="170.98" xlink:href="#bu"/><linearGradient id="dt" x1="877.93" y1="173.38" x2="882.56" y2="173.38" xlink:href="#bu"/><linearGradient id="du" x1="878.29" y1="175.98" x2="883.21" y2="175.98" xlink:href="#bu"/><linearGradient id="dv" x1="878" y1="171.85" x2="863.44" y2="185.1" xlink:href="#ca"/><linearGradient id="dw" x1="859.5" y1="181.99" x2="961.73" y2="191.08" xlink:href="#ca"/><linearGradient id="dx" x1="839.59" y1="145.47" x2="869.79" y2="195.71" xlink:href="#ca"/><linearGradient id="dy" x1="717.22" y1="222.62" x2="707.75" y2="222.39" xlink:href="#ar"/><linearGradient id="dz" x1="709.45" y1="222.51" x2="714.98" y2="222.51" gradientUnits="userSpaceOnUse"><stop offset="0" stop-color="#d32a33"/><stop offset="0.08" stop-color="#d53038"/><stop offset="0.19" stop-color="#d94147"/><stop offset="0.31" stop-color="#e15d5f"/><stop offset="0.37" stop-color="#e56e6e"/><stop offset="0.39" stop-color="#e56c6d"/><stop offset="0.79" stop-color="#e14349"/><stop offset="1" stop-color="#e0333b"/></linearGradient><linearGradient id="ea" x1="836.28" y1="226.31" x2="826.81" y2="226.08" xlink:href="#ar"/><linearGradient id="eb" x1="828.51" y1="226.19" x2="834.04" y2="226.19" xlink:href="#dz"/><linearGradient id="ec" x1="728.38" y1="235.04" x2="692.25" y2="233.64" xlink:href="#ar"/><linearGradient id="ed" x1="700.46" y1="234.69" x2="727.46" y2="234.69" gradientUnits="userSpaceOnUse"><stop offset="0" stop-color="#d32a33"/><stop offset="0.07" stop-color="#d53038"/><stop offset="0.16" stop-color="#d94147"/><stop offset="0.27" stop-color="#e15d5f"/><stop offset="0.32" stop-color="#e56e6e"/><stop offset="0.38" stop-color="#e3585b"/><stop offset="0.45" stop-color="#e2474d"/><stop offset="0.54" stop-color="#e13c42"/><stop offset="0.66" stop-color="#e0353d"/><stop offset="1" stop-color="#e0333b"/></linearGradient><radialGradient id="ee" cx="860.21" cy="207.14" r="82.64" gradientTransform="translate(928.3 -653.1) rotate(90) scale(1 0.33)" xlink:href="#dh"/><radialGradient id="ef" cx="857.31" cy="203.48" r="49.96" gradientTransform="matrix(0.03, 1, -0.26, 0.01, 887.79, -654.92)" xlink:href="#di"/><linearGradient id="eg" x1="846.89" y1="204.73" x2="859.17" y2="205.03" xlink:href="#bl"/><linearGradient id="eh" x1="859.14" y1="205.41" x2="845.52" y2="204.91" gradientTransform="matrix(1, 0, 0, 1, 0, 0)" xlink:href="#dh"/><linearGradient id="ei" x1="885.26" y1="200.07" x2="867.73" y2="201.62" gradientUnits="userSpaceOnUse"><stop offset="0.01" stop-color="#2d6481"/><stop offset="0.24" stop-color="#265e7d"/><stop offset="0.64" stop-color="#1c7283"/><stop offset="0.93" stop-color="#2a94b7"/></linearGradient><linearGradient id="ej" x1="718.72" y1="204.82" x2="822.32" y2="204.82" gradientUnits="userSpaceOnUse"><stop offset="0.01" stop-color="#e89613"/><stop offset="0.26" stop-color="#efc16f"/><stop offset="0.55" stop-color="#e89613"/><stop offset="0.96" stop-color="#e89613"/></linearGradient><linearGradient id="ek" x1="821.53" y1="200.43" x2="719.75" y2="209.43" xlink:href="#bl"/><linearGradient id="el" x1="711.07" y1="194.86" x2="901.34" y2="221.22" gradientUnits="userSpaceOnUse"><stop offset="0.01" stop-color="#e89613"/><stop offset="0.55" stop-color="#e89613"/><stop offset="0.96" stop-color="#e89613"/></linearGradient><linearGradient id="em" x1="730.28" y1="219.55" x2="729.81" y2="231.12" xlink:href="#ej"/><linearGradient id="en" x1="807.82" y1="222.35" x2="807.26" y2="232.84" xlink:href="#ej"/><linearGradient id="eo" x1="772.01" y1="176.41" x2="772.01" y2="184.37" xlink:href="#bt"/><linearGradient id="ep" x1="505.7" y1="-733.33" x2="510.97" y2="-733.33" gradientTransform="matrix(0.96, -0.52, 0.49, 0.91, 642.21, 1103.42)" xlink:href="#bu"/><linearGradient id="eq" x1="578.89" y1="-686.88" x2="583.41" y2="-686.88" gradientTransform="matrix(1.02, -0.45, 0.52, 1.16, 533.3, 1239.6)" xlink:href="#bu"/><linearGradient id="er" x1="762.85" y1="178.9" x2="767.54" y2="178.9" xlink:href="#bu"/><linearGradient id="es" x1="758.82" y1="171.61" x2="767.8" y2="178.05" xlink:href="#ca"/><linearGradient id="et" x1="757.58" y1="175.19" x2="758.11" y2="155.22" gradientUnits="userSpaceOnUse"><stop offset="0" stop-color="#c9c9c8"/><stop offset="0.19" stop-color="#f0f0ef"/><stop offset="0.29" stop-color="#fff"/><stop offset="1" stop-color="#c9c9c8"/></linearGradient><linearGradient id="eu" x1="750.49" y1="132.7" x2="769.81" y2="164.84" xlink:href="#ca"/><linearGradient id="ev" x1="801.11" y1="304.24" x2="776.75" y2="63.74" gradientUnits="userSpaceOnUse"><stop offset="0.04" stop-color="#29235c"/><stop offset="0.06" stop-color="#282760"/><stop offset="0.24" stop-color="#224f90"/><stop offset="0.37" stop-color="#1e68ad"/><stop offset="0.45" stop-color="#1d71b8"/><stop offset="0.51" stop-color="#1e73b9" stop-opacity="0.98"/><stop offset="0.57" stop-color="#2078bd" stop-opacity="0.9"/><stop offset="0.64" stop-color="#2480c3" stop-opacity="0.78"/><stop offset="0.7" stop-color="#298ccc" stop-opacity="0.62"/><stop offset="0.77" stop-color="#309bd7" stop-opacity="0.4"/><stop offset="0.82" stop-color="#36a9e1" stop-opacity="0.2"/></linearGradient><linearGradient id="ew" x1="1070.03" y1="159.78" x2="801.82" y2="196" gradientUnits="userSpaceOnUse"><stop offset="0" stop-color="#efd93f"/><stop offset="0.6" stop-color="#f4a15b"/><stop offset="0.89" stop-color="#f4c45b" stop-opacity="0"/></linearGradient><radialGradient id="ex" cx="1014.76" cy="-726.09" r="36.2" gradientTransform="matrix(0.09, 0.97, -0.36, 0.23, 363.85, -583.08)" gradientUnits="userSpaceOnUse"><stop offset="0.01" stop-color="#f32400"/><stop offset="0.17" stop-color="#f32400" stop-opacity="0.86"/><stop offset="0.52" stop-color="#f32400" stop-opacity="0.51"/><stop offset="1" stop-color="#f32400" stop-opacity="0"/></radialGradient><radialGradient id="ey" cx="-432.53" cy="-1106.02" r="31.62" gradientTransform="matrix(0.09, 0.35, -0.36, 0.08, 351.16, 467.27)" xlink:href="#ex"/><linearGradient id="ez" x1="-364.67" y1="153.17" x2="618.19" y2="153.17" gradientUnits="userSpaceOnUse"><stop offset="0" stop-color="#132749"/><stop offset="0.75" stop-color="#295491"/><stop offset="0.79" stop-color="#295491" stop-opacity="0.97"/><stop offset="0.83" stop-color="#295491" stop-opacity="0.89"/><stop offset="0.88" stop-color="#295491" stop-opacity="0.76"/><stop offset="0.92" stop-color="#295491" stop-opacity="0.57"/><stop offset="0.96" stop-color="#295491" stop-opacity="0.32"/><stop offset="1" stop-color="#295491" stop-opacity="0.03"/><stop offset="1" stop-color="#295491" stop-opacity="0"/></linearGradient><radialGradient id="fa" cx="-110.38" cy="-1032.31" r="31.62" gradientTransform="matrix(0.09, 0.35, -0.36, 0.08, 469.02, 352.35)" xlink:href="#ex"/></defs><g class="f"><g class="g"><rect class="h" x="-286.6" y="-0.1" width="1493.7" height="303.42"/><path class="i" d="M1017.7,58a.6.6,0,0,1-1.2,0,.6.6,0,0,1,1.2,0Z"/><path class="i" d="M1139.2,88.5a.6.6,0,1,1-1.2,0,.6.6,0,1,1,1.2,0Z"/><circle class="j" cx="562.4" cy="43.5" r="0.6"/><path class="i" d="M568.1,118.4a.6.6,0,1,1-1.2,0,.6.6,0,1,1,1.2,0Z"/><path class="k" d="M829.8,145.2a.6.6,0,1,1-.6-.6A.6.6,0,0,1,829.8,145.2Z"/><path class="k" d="M1054,95.2a.6.6,0,1,1-.6-.6A.6.6,0,0,1,1054,95.2Z"/><path class="k" d="M893.5,114.2a.6.6,0,0,1-1.2,0,.6.6,0,0,1,1.2,0Z"/><path class="k" d="M1019.2,87.2a.6.6,0,0,1-1.2,0,.6.6,0,0,1,1.2,0Z"/><path class="l" d="M740.7,120.1a.6.6,0,0,1-1.2,0,.6.6,0,0,1,1.2,0Z"/><path class="l" d="M705.3,76.4a.5.5,0,0,1-.6.6c-.3,0-.5-.2-.5-.6a.6.6,0,0,1,.5-.6A.6.6,0,0,1,705.3,76.4Z"/><path class="l" d="M892.9,23.9c0,.3-.2.5-.6.5a.5.5,0,0,1-.5-.5c0-.4.2-.6.5-.6A.5.5,0,0,1,892.9,23.9Z"/><path class="l" d="M885.9,63.6a.6.6,0,0,1-.6.6.6.6,0,0,1-.6-.6.6.6,0,0,1,.6-.6A.5.5,0,0,1,885.9,63.6Z"/><path class="l" d="M1062.9,94.6a.6.6,0,0,1-.6.6.6.6,0,0,1,0-1.2A.6.6,0,0,1,1062.9,94.6Z"/><path class="l" d="M934.9,19a.6.6,0,1,1-.6-.6A.6.6,0,0,1,934.9,19Z"/><path class="m" d="M869.5,150.8a.6.6,0,0,1-1.2,0,.6.6,0,0,1,1.2,0Z"/><circle class="n" cx="1087.4" cy="32.3" r="0.6"/><path class="k" d="M683,113.8c0,.4-.2.6-.5.6a.5.5,0,0,1-.6-.6.6.6,0,0,1,.6-.6A.6.6,0,0,1,683,113.8Z"/><circle class="n" cx="1170.8" cy="27.1" r="0.6"/><path class="k" d="M492.4,160.3a.6.6,0,0,1-.6.6.6.6,0,0,1,0-1.2A.6.6,0,0,1,492.4,160.3Z"/><path class="k" d="M840.1,39.7a.6.6,0,1,1-1.2,0,.6.6,0,1,1,1.2,0Z"/><path class="k" d="M889.1,81.6a.6.6,0,0,1-1.2,0,.6.6,0,1,1,1.2,0Z"/><path class="k" d="M767.7,108.1a.6.6,0,1,1-.6-.6A.6.6,0,0,1,767.7,108.1Z"/><path class="k" d="M780.9,25a.6.6,0,0,1-.6.6.6.6,0,1,1,0-1.2A.6.6,0,0,1,780.9,25Z"/><path class="k" d="M631.2,58.8a.6.6,0,0,1-.6.6.6.6,0,0,1,0-1.2A.6.6,0,0,1,631.2,58.8Z"/><path class="k" d="M741.3,98.8a.6.6,0,0,1-.6.6.6.6,0,0,1,0-1.2A.6.6,0,0,1,741.3,98.8Z"/><path class="k" d="M673.3,51.6a.6.6,0,0,1-.6.6.6.6,0,0,1,0-1.2A.6.6,0,0,1,673.3,51.6Z"/><path class="i" d="M1094.8,69.1a.6.6,0,0,1-1.2,0,.6.6,0,0,1,1.2,0Z"/><circle class="n" cx="642" cy="26.5" r="0.6"/><path class="k" d="M1189,193.1a.6.6,0,0,1-.6.6.6.6,0,0,1,0-1.2A.6.6,0,0,1,1189,193.1Z"/><path class="m" d="M1047.3,82.3a.6.6,0,1,1-.6-.6A.6.6,0,0,1,1047.3,82.3Z"/><path class="m" d="M863.3,24.4a.6.6,0,0,1-.6.6.5.5,0,0,1-.6-.6c0-.3.2-.5.6-.5A.6.6,0,0,1,863.3,24.4Z"/><path class="o" d="M978.4,89.8a.6.6,0,0,1-.6.6.6.6,0,0,1,0-1.2A.6.6,0,0,1,978.4,89.8Z"/><path class="o" d="M726.9,18.4a.6.6,0,1,1-.6-.6A.6.6,0,0,1,726.9,18.4Z"/><path class="m" d="M1012.1,46.2a.6.6,0,0,1-.6.6.6.6,0,0,1,0-1.2A.6.6,0,0,1,1012.1,46.2Z"/><path class="m" d="M924.3,72.7a.6.6,0,0,1-.6.6.6.6,0,0,1,0-1.2A.6.6,0,0,1,924.3,72.7Z"/><path class="m" d="M843.7,77.8a.6.6,0,0,1-.6.6.6.6,0,0,1,0-1.2A.6.6,0,0,1,843.7,77.8Z"/><path class="m" d="M1122.3,16.2a.6.6,0,0,1-1.2,0,.6.6,0,0,1,1.2,0Z"/><path class="m" d="M950.5,57.4a.6.6,0,1,1-.6-.6A.6.6,0,0,1,950.5,57.4Z"/><path class="m" d="M809.1,92.7c0,.3-.2.5-.6.5a.6.6,0,0,1-.6-.5.6.6,0,0,1,.6-.6A.5.5,0,0,1,809.1,92.7Z"/><path class="k" d="M1163.1,183.8a.6.6,0,1,1-1.2,0,.6.6,0,0,1,1.2,0Z"/><path class="k" d="M1179.2,89.1a.6.6,0,0,1-.5.6.6.6,0,1,1,0-1.2A.6.6,0,0,1,1179.2,89.1Z"/><path class="m" d="M1182.8,127.1a.5.5,0,0,1-.6.6.6.6,0,0,1-.6-.6.6.6,0,0,1,.6-.6A.6.6,0,0,1,1182.8,127.1Z"/><path class="m" d="M1196.9,113.7a.6.6,0,0,1-1.2,0,.6.6,0,1,1,1.2,0Z"/><path class="m" d="M1027.9,86.5a.6.6,0,1,1-.6-.6A.6.6,0,0,1,1027.9,86.5Z"/><circle class="p" cx="753.1" cy="127.8" r="0.6"/><path class="m" d="M924.9,88.7a.6.6,0,0,1-1.2,0,.6.6,0,0,1,1.2,0Z"/><path class="k" d="M1151.7,77.6a.6.6,0,1,1-.6-.6A.6.6,0,0,1,1151.7,77.6Z"/><circle class="p" cx="704.1" cy="46.8" r="0.6"/><circle class="q" cx="730" cy="21.9" r="99.4"/><circle class="r" cx="730" cy="21.9" r="39.1" transform="translate(538.4 726.6) rotate(-76.5)"/><circle class="s" cx="730" cy="21.9" r="27.6" transform="translate(592.8 739.2) rotate(-80.9)"/><polygon class="t" points="425.3 303.3 1207.1 303.3 1207.2 208 427 211.4 425.3 303.3"/><g class="u"><path class="v" d="M1207.1,209.4l-76-8.1a514.3,514.3,0,0,0-106.7-.2l-7.6.8a478,478,0,0,1-84.5,1.2l-29.5-2.2C789.6,192,772,212.5,649.6,207.8c-12.3-.5-57.6-2-69.4-1.5l-70.1,3.1a281.9,281.9,0,0,1-55.1-2.9l-28-4.4-1.1,19.6,117.8-4.9a1065.8,1065.8,0,0,1,123.5,2h0a371.7,371.7,0,0,0,53.8-.1l91.1-6.9a436.3,436.3,0,0,1,53.7-.6l150.4,8h.3a304.2,304.2,0,0,0,41.6-.9c44.7-4,93.3-5.9,149.1,1.9Z"/></g><g class="w"><path class="x" d="M426.4,221.6l47.1,5.4a297.9,297.9,0,0,0,73.5-1.4l5.6-.8a330.5,330.5,0,0,1,65.4-2.4l24.4,1.5c102.5,6.8,119.8-13.9,252.3-12.5,14.6.2,70.8.5,86.1-.4l96.6-5.9a518.1,518.1,0,0,1,83.8,1.4l45.9,4.8V185.8l-177.4,11.8a1514.1,1514.1,0,0,1-155.5,2.6h0a420.7,420.7,0,0,0-59.5,2l-91.4,9.5a365.5,365.5,0,0,1-48.9,1.9L553.1,210h-.2a185.5,185.5,0,0,0-29.9,1.7c-30.7,4.3-61.7,6.7-96.2,1.7Z"/></g><path class="y" d="M1156.9,254l50.2,33.4v-1.1l-43-28.5h5.2l37.8,24.7V282l-36.8-24,13,4,23.8,15.3v-1.4l-20-12.8,20,6.2v-.7l-22-6.7-12.3-7.9h33l1.3.8v-2.4l-13.5-7.9,13.5,3.9v-.6l-15.3-4.4-27.5-16.1,1.2-5.1h4.9l36.7,20.8v-.8l-9.9-5.6.4.2h9.5v-1.4l-30.4-16.7h-73l51.9,34.5Zm50.2-17.9h-10.8l-14.8-8.3h10.4Zm-30.5-16.8,14.1,7.8h-10.4l-13.7-7.8Zm-19.6,30-41.4-26.9,10.6,3,31.7,20.3Zm-27.7-23.1,17.4,5,12.8,8-1.4,5.5Zm34.3,27-4.8-3.1.8-3.3,9.9,6.4Zm17.7,7.5-11.5-3.5-4.9-3.2h5.9Zm23.1-7.5h-32.9l-11.6-7.4,1.4-6.1h15.3l9.6,2.7Zm-20-11.9-7.7-2.1-13.4-8,.5-2Zm-24.8-22,4.2,2.5-1.1,4.6-12-7.1h-3.5l15,8.9-.6,2.5h-14.7l-19.1-5.4-9.3-6Zm-42.8,0,7.9,5.1-9.4-2.6-3.7-2.5Zm-6.6,2.9h4.6l41.8,27.3h-5.1Z"/><path class="z" d="M898.5,227.1h0l11.2,18.7.5.8,6,9.9.3.6,27.8,46.2H946l-5.3-8.7H954l-.4-.5,3.6,5.4.7,1.2,1.7,2.6H969l-1.7-2.6h12l1.8,2.6h4.8l-1.9-2.6h38.7l2.2,2.6h2.3l-2.3-2.6h7.1l2.2,2.6h9.5l-2.4-2.6-1-1.1L998.6,254l-.8-.9-31.5-34.4H904.7l17.6,27.1H911.1l-5.4-9h10.7l-.4-.7H905.3l-5.1-8.3h10.4l-.5-.7H899.8l-4.7-7.8h10l-.4-.6H893.5l.4.6Zm19.5,30h11.6l6.9,10.5H924.4Zm6.9,11.5H937l-.3-.6,7.8,12H931.9Zm15.2,24.9L932.5,281h12.6l8.2,12.5Zm15.4,1-24-36.8h5.6l16.2,6.8,15.6,21.7-7,8.3Zm4-54.9,16.2,6.1,6.3,7.4H949.1l-7.8-10.7,3-2.8Zm-6-8.4,5.5-5,15.7,18.4L960,239.1Zm29.9,37.9h-17l-8-3.4L949.7,254h33l6.8,7.8Zm7.1-6,21.3,24.8-18.1-7.5L985,269.7Zm-16.7,17.3-2.5,3-12-16.4,6.5,2.7Zm-21.4-17.1-14.7-6.2-2.1-3.1h10.1Zm26-16.5,8.7,3.2,2.8,3.1h-6Zm-37.9-5.5-8.9-12.1,5.4,2,5.9,7.9Zm4.7,11.8H935l-2.1-3.1,6.1-5.5Zm21.3,46.4-2.9-4.2,6.3-7.6,8.5,11.8Zm16.6,0-10.8-14.7,3.1-3.7h17.8l19.8,8.3,8.7,10.2Zm40.9.1-7.6-8.8,10.8,4.5,3.7,4.3Zm-23.4-41.8,33.4,36.7h-6l-32.7-36.7Zm26.5,36.5-12-5-23.6-27.4,3.3-4Zm-36.7-33.6-5.8-6.7h6l2.8,3.2Zm-22.2-38.5L993,249.5h-5.1l-24.2-27.3Zm18.9,27.1-9.6-3.6-17.6-20.4,3.3-2.9Zm-27.2-30,2.2,2.5-3,2.6-4.3-5.1Zm-6.8,0,5.1,6-6,5.4H937.5l-6.6-2.5-6.5-8.9Zm-29.1,0h-3.1l5.1,7.1-12.3-4.6-1.7-2.5Zm-15.8,2.9h4.9l13.5,5.1,11.6,16.1-6.7,6.1h-5.4Zm14.6,24.4v-.2l4.3,6.7.6.9,1.9,3-.4-.7H917.5l-5.9-9.7Z"/><path class="aa" d="M738.8,303.3h1.8l15.4-8.5h13.3l.5-.3-9.2,5.2-2.1,1.1-4.3,2.5h9.5l4.3-2.5h12l-4.2,2.5h4.7l4.2-2.5h38.9l-3.9,2.5h2.2l3.9-2.5h7l-3.8,2.5h9.5l3.7-2.5,1.8-1.1L912.8,254l1.2-.8,52-34.5H892.9l-31.7,17.4-.9.5-16.8,9.2-1.4.8-17.7,9.7-1,.6-19.8,10.8-1.7,1L756,293.9l-1.7.9h0Zm43.1-3.6h-12l7.5-4.3,24.8-7.6Zm59.3-4.3-6.6,4.3h-7l13.6-8.8Zm.1-5.9-16,10.2H786.6l25-14.8,12.1-3.7h17.7Zm.4-19.7-18,10.7-9.7,3,27.7-16.4Zm.1-5.2-37.1,21.7-27.1,8.3h-6.4l65.1-36.8h5.6Zm56.4-11.4h-33l18.2-10.8,9.7-2.7h15.2l1.5,6.1Zm.6.8h6l-4.9,3.2-11.6,3.5Zm-37.6-.8H851l5.5-3.1,19.5-5.6Zm-1.4.8-15.9,9.3v-6.1l5.6-3.2Zm4,0h33.1l-12.4,7.9-23.6,7.2h-17v-3.3Zm-2.9,15.8,21.7-6.7-39,24.9v-7.5Zm25.5-7.8,12.9-4-55.8,36.4v-5Zm-36.5,32.6h-6l56.4-36.8h5.3ZM906,253.2h-5.9l9.9-6.4.8,3.3Zm4.1-14,12.8-8,17.5-5-28.9,18.5Zm2.5,10.1-.8-3.6,31.7-20.3,10.5-3Zm5.5.2H913l41.8-27.3h4.6Zm40-30.2-3.8,2.5-9.4,2.6,8-5.1Zm-48,0h41.1l-9.3,6-19.1,5.4H908l-.6-2.5,15-8.9h-3.5L907,226.4l-1.2-4.6Zm-3.8,11.9-13.3,8-7.8,2.1,20.6-12.1Zm-.9-3.9-27.6,16.1-21.4,6.1H851l48.3-27.3h4.8Zm-12.3-8h10l-13.9,7.8H879Zm-15.4,8.5h10.4l-14.8,8.3H862.6Zm-16.4,9H872l-15.9,9H844.9Zm-17.8,9.8h11.2l.4-.2-12,6.8-1.5.8-4.1,2.3H825.8Zm-40,22.1h12.1l1.7-.9H805.1l19.2-10.5H836l1.4-.8-42.1,23.7H782.6Zm-22.7,12.4h12.8l-22.4,12.6H758Z"/><path class="ab" d="M1035.4,303.3l2.3-2.6h7l-2.2,2.6h2.2l2.2-2.6h38.8l-1.9,2.6h4.7l1.9-2.6h12l-1.8,2.6h9.5l1.6-2.6.8-1.2,3.2-4.9h13.2l-5.2,8.7h1.7l34-56.7.2-.3,5.7-9.5h0l10.5-17.5.4-.6h-11.3l-.4.6h10l-4.7,7.8h-10.3l5.4-8.4h-61.6l-31.5,34.4-.7.9-41.8,45.6-1,1.1-2.4,2.6Zm10.3-3.7h-7l3.8-4.3,10.7-4.5Zm40.8-.1h-38.6l8.7-10.2,19.9-8.3h17.7l3.1,3.7Zm23.7-59.9h15.2l3,2.8-7.9,10.7h-32.9l6.4-7.4Zm-15.3,5,15.8-18.4,5.4,5-6.5,7.9Zm29.6,8.5,6.2-8.6,6.1,5.5-2.2,3.1Zm9.6.9-2.2,3.1-14.7,6.2,6.7-9.3Zm-5-12.7-2.4-2.2,6-7.9,5.3-2Zm-43.4,11.8h-5.9l2.7-3.1,8.7-3.2Zm1.2.9h33l-8.6,11.7-8,3.4h-17l-6.1-7.3Zm23.4,13-11.9,16.4-2.6-3,8.1-10.7Zm-25.6,2.7-8.8,10.7-18,7.5,21.2-24.8Zm18.4,29.8h-11.9l8.5-11.8,6.3,7.6Zm11-5h-6.4l-6.9-8.3,15.5-21.7,16.2-6.8h5.6Zm15.5-1h-13.2l8.5-13.1-.4.6h12.7Zm8.2-13.5h-12.6l7.4-11.4h12.1Zm7.5-12.4h-12.1l6.8-10.5h11.6Zm6.8-11.3h-11.5l1.5-2.3.5-.9,4.3-6.5H1158Zm6.4-10.5h-11.1l-.5.7,6.3-9.7h10.7Zm10.9-18-5,8.3h-10.7l5.4-8.3Zm-25.8,21.7h-5.5l-6.6-6.1,11.5-16.1,13.5-5.1h4.9Zm14-30.2-1.6,2.5-12.3,4.6,5-7.1h8.9Zm-12.4,0-6.5,8.9-6.6,2.5h-14.7l-5.9-5.4,5.1-6Zm-35.5,0h5.2l-4.4,5.1-2.9-2.6Zm0,6-17.5,20.4-9.7,3.6,23.9-26.9Zm-8.3-3.1h4.6l-24.3,27.3h-5.1ZM1079.1,254h5.9l-5.8,6.7-3-3.5Zm-1,7.9-23.6,27.4-11.9,5,32.2-36.4Zm-9-4.1h5.2l-32.7,36.7h-6Z"/><path class="ac" d="M457.9,303.3l98.8-42.1s33.2-8.9,40.2-11.2,12.1-6.7,32.6-8.8,61.4-15.1,61.4-15.1l234.2-16.9-318.8,1.4-181-1.3-53.4,94Z"/><polygon class="ad" points="508.9 -0.1 513.7 -0.1 513.7 18.3 507.9 51.3 495.5 66.5 465.9 83.5 460.7 81.7 460.7 49.1 484 4.9 491.5 -0.1 508.9 -0.1"/><polygon class="ae" points="508.9 -0.1 522.4 -0.1 533.2 8.3 547.1 36.5 592.5 64.6 634.1 106.7 696.2 144.5 615 113.4 548.1 76.7 538.5 60.8 530.4 56.5 531.8 35 516.5 42.2 507.9 51.3 502.7 24 509.3 4.9 508.9 -0.1"/><path class="af" d="M512.7,17.3l10.5,11,16.7,5.3,16.3,22.9,29.7,26s-21.1-4.4-22.1-5.9-18.6-20.1-18.6-20.1L528.4,41.7l-20.5,9.6-5.2-27.2L509.3,5Z"/><polygon class="ag" points="510.5 36.2 532.1 36.2 530.6 56.3 538.8 60.6 554.5 87.4 579.8 128 562.9 144.5 486.9 237.6 460.7 231 460.7 82.6 487.6 60.1 510.5 36.2"/><polygon class="ah" points="615 111.5 690 140.7 696.2 144.5 723.9 152.1 786 176 745.9 168.3 674.7 155.9 658 165.9 625.5 182.7 636 220.4 594 170.3 588.2 137.8 579.6 129.6 548.1 76.7 590.1 93.3 615 111.5"/><path class="ai" d="M542.8,48.4s13,12.9,20.6,18.2,66.1,46.8,66.1,46.8L548.1,76.6l-9.6-15.7-8.6-4.4L531.8,36Z"/><path class="aj" d="M1167.2,197.4l1.4.8a2.4,2.4,0,0,1,1.1,1.3,2.9,2.9,0,0,1-.3,1.8l-1.6,2.7a2.2,2.2,0,0,1-3,.8l-1.4-.9h0a.4.4,0,0,1-.2-.7v-.5a6.4,6.4,0,0,1,3.3-5.1h0A.6.6,0,0,1,1167.2,197.4Z"/><path class="ak" d="M1164.3,199.8c-.9,1.4-1,2.8-.8,3s1.4-.6,2.3-1.9,1.2-2.7.8-2.9S1165.1,198.5,1164.3,199.8Z"/><path class="al" d="M1166.6,198,1077.9,37.4l-25.4,115.1,111,50.3s.5.7,2.4-2.2S1166.7,198,1166.6,198Z"/><path class="am" d="M1167.3,202v4.6h-1V202a.5.5,0,0,1,.5-.5h0A.5.5,0,0,1,1167.3,202Z"/><path class="an" d="M1168.7,208.1h-5.1a1.5,1.5,0,0,1,1.5-1.5h2.1A1.5,1.5,0,0,1,1168.7,208.1Z"/><path class="ao" d="M903.7,199.1h0a6.2,6.2,0,0,1,3.2,5v.5a.6.6,0,0,1-.1.8h-.1l-1.4.8a2.2,2.2,0,0,1-3-.8l-1.6-2.7a2.8,2.8,0,0,1-.3-1.8,2.4,2.4,0,0,1,1.1-1.3l1.4-.7A.5.5,0,0,1,903.7,199.1Z"/><path class="ak" d="M905.8,201.3c.9,1.3,1.1,2.7.8,3s-1.4-.7-2.2-2-1.2-2.6-.8-2.9S905,199.9,905.8,201.3Z"/><path class="ap" d="M903.6,199.4,992.2,38.9l25.5,115L906.6,204.3s-.4.6-2.4-2.2S903.4,199.5,903.6,199.4Z"/><path class="am" d="M903.3,202.9h0a.6.6,0,0,1,.6.5V208h-1.1v-4.6A.5.5,0,0,1,903.3,202.9Z"/><path class="aq" d="M902.9,208H905a1.6,1.6,0,0,1,1.5,1.6h-5.1A1.6,1.6,0,0,1,902.9,208Z"/><polygon class="ar" points="900.9 208.6 884.7 217.3 1183.2 217.3 1170 207.2 900.9 208.6"/><path class="as" d="M1156.8,213.4c0,2.9-54.5,5.3-121.7,5.3s-121.7-2.4-121.7-5.3,54.5-5.4,121.7-5.4S1156.8,210.4,1156.8,213.4Z"/><path class="at" d="M911.8-19.3H901.2V210.6h1.2V197.7h9.4v12.9h58.4V-19.3Zm0,215.8h-9.4V182.3h9.4Zm0-15.4h-9.4V166.9h9.4Zm0-28.9v13.5h-9.4V151.5h9.4Zm0-1.9h-9.4V136.1h9.4Zm0-15.4h-9.4V120.6h9.4Zm0-15.4h-9.4V105.2h9.4Zm0-24.5v9h-9.4V89.8h9.4Zm0-6.4h-9.4V74.4h9.4Zm0-15.4h-9.4V59h9.4Zm0-15.4h-9.4V43.6h9.4Zm0-19.9v4.5h-9.4V28.1h9.4Zm0-10.9h-9.4V12.7h9.4Zm0-15.5h-9.4V-2.7h9.4Zm0-15.4h-9.4V-18.1h9.4Zm35.8,177.8H934.4l-4.3-4.3V153.4h27.1v11Zm9.6-7.8v30.6l-8.7-8.7V174.8Zm-23.6,8.7V188l-3.5,3.5V171.3Zm.8-157.5h13.2l9.6,9.6v11H930.1V21.7ZM930.1,20V-.2l3.5,3.5V16.5Zm28.6,75V85.6l4.9,4.9V95Zm4.9,1.2v4.6l-4.9,4.9V96.2Zm-4.9-12.3V50.2l5.5-5.5V89.4Zm-1.5-1.5-8.7-8.7V60.4l8.7-8.6Zm6.4-43.3v4.5l-4.9,4.9V39.1Zm-4.9-1.2V28.4l4.9,4.9v4.6Zm0-11.1V-7l5.5-5.5V32.2Zm-1.5-1.6-8.7-8.7V3.3l8.7-8.7ZM926.8,37.9h-8.4V33.3l8.4-8.3Zm0,1.2V52l-8.4-8.4V39.1Zm3.3,0h27.1v11l-9.6,9.5H934.4l-4.3-4.3Zm3.5,21.3V73.7l-3.5,3.5V56.9Zm.8,14.1h13.2l9.6,9.5V95H930.1V78.8ZM926.8,95h-8.4V90.5l8.4-8.4Zm0,1.2v13l-8.4-8.4V96.2Zm3.3,0h27.1v11l-9.6,9.6H934.4l-4.3-4.4Zm27.1,12.7v30.6l-8.7-8.7V117.6Zm-23.6,8.7v13.2l-3.5,3.5V114.1Zm.8,14.1h13.2l9.6,9.5v11H930.1V136Zm-7.6,20.5h-8.4v-4.5l8.4-8.4Zm0,1.2v12.9l-8.4-8.4v-4.5Zm31.9,0h4.9v4.5l-4.9,4.9Zm0-1.2v-9.4l4.9,4.9v4.5Zm0-11.1V107.3l5.5-5.4v44.7Zm4.9-159.2v4.5l-4.9,4.9v-9.4Zm-6.4,0v11l-9.6,9.5H934.4l-4.3-4.3V-18.1Zm-38.8,0h8.4V-5.2l-8.4-8.4ZM913-12.7h4.6l9.2,9.2V23.3l-9.2,9.2H913Zm0,57.1h4.6l9.2,9.3V80.4l-9.2,9.3H913Zm0,57.2h4.6l9.2,9.2v26.8l-9.2,9.2H913ZM913,204V158.8h4.6l9.2,9.2v26.8l-9.2,9.2Zm5.4,5.4v-4.6l8.4-8.3v12.9Zm11.7,0V193.2l4.3-4.4h13.2l9.6,9.6v11Zm33.5,0h-4.9v-9.5l4.9,4.9Zm-4.9-11.1V164.5l5.5-5.5v44.7ZM969,204h-4.3V158.8H969Zm0-57.2h-4.3V101.6H969Zm0-57.1h-4.3V44.4H969Zm0-57.2h-4.3V-12.7H969Z"/><path class="at" d="M1167.9-19.3h-67.8V210.6h58.4V197.7h9.4v12.9h1.2V-19.3Zm-16,1.2v4.5l-8.4,8.4V-18.1Zm-11.7,0V-1.9l-4.3,4.3h-13.2l-9.6-9.5v-11Zm-4.3,192h-13.2l-9.6-9.5v-11h27.1v16.2Zm4.3-2.6v20.2l-3.5-3.5V174.8Zm-18.4,3.5V188l-8.7,8.7V166.1Zm-10.2-148-5.5,5.4V-12.5l5.5,5.5Zm1.5-32.2,8.7,8.7V16.5l-8.7,8.7Zm-1.5,89.3-5.5,5.5V44.7l5.5,5.5Zm1.5-32.1,8.7,8.6V73.7l-8.7,8.7ZM1106.7,95V90.5l4.9-4.9V95Zm4.9,1.2v9.5l-4.9-4.9V96.2Zm-4.9-52.6V39.1h4.9v9.4Zm0-5.7V33.3l4.9-4.9v9.5Zm-.6,64,5.5,5.4v33.8l-5.5,5.5Zm7,7,8.7,8.7v13.2l-8.7,8.7Zm-1.5,33.9v9.4h-4.9v-4.5Zm-4.9,10.6h4.9v9.4l-4.9-4.9Zm36.8,0h8.4v4.5l-8.4,8.4Zm0-1.2V139.3l8.4,8.4v4.5Zm-3.3,0h-27.1v-11l9.6-9.5h13.2l4.3,4.3Zm-3.5-21.4V117.6l3.5-3.5v20.2Zm-.8-14h-13.2l-9.6-9.6v-11h27.1v16.2Zm7.6-20.6h8.4v4.6l-8.4,8.4Zm0-1.2V82.1l8.4,8.4V95Zm-3.3,0h-27.1V84l9.6-9.5h13.2l4.3,4.3Zm-3.5-21.3V60.4l3.5-3.5V77.2Zm-.8-14.1h-13.2l-9.6-9.5v-11h27.1V55.3Zm7.6-20.5h8.4v4.5l-8.4,8.4Zm0-1.2V25l8.4,8.3v4.6Zm-3.3,0h-27.1v-11l9.6-9.6h13.2l4.3,4.4Zm-3.5-21.4V3.3l3.5-3.5V20Zm-30-34.6h4.9v9.4l-4.9-4.9Zm-5.4,5.4h4.3V32.5h-4.3Zm0,57.1h4.3V89.7h-4.3Zm0,57.2h4.3v45.2h-4.3Zm0,102.4V158.8h4.3V204Zm4.8-45,5.5,5.5v33.8l-5.5,5.4Zm.6,50.4v-4.6l4.9-4.9v9.5Zm6.4,0v-11l9.6-9.6h13.2l4.3,4.4v16.2Zm38.8,0h-8.4V196.5l8.4,8.3Zm5.4-5.4h-4.6l-9.2-9.2V168l9.2-9.2h4.6Zm0-57.2h-4.6l-9.2-9.2V110.8l9.2-9.2h4.6Zm0-57.1h-4.6l-9.2-9.3V53.7l9.2-9.3h4.6Zm0-57.2h-4.6l-9.2-9.2V-3.5l9.2-9.2h4.6Zm10.6,164h-9.4V182.3h9.4Zm0-15.4h-9.4V166.9h9.4Zm0-15.4h-9.4V151.5h9.4Zm0-15.4h-9.4V136.1h9.4Zm0-15.4h-9.4V120.6h9.4Zm0-15.4h-9.4V105.2h9.4Zm0-15.5h-9.4V89.8h9.4Zm0-15.4h-9.4V74.4h9.4Zm0-15.4h-9.4V59h9.4Zm0-15.4h-9.4V43.6h9.4Zm0-15.4h-9.4V28.1h9.4Zm0-15.4h-9.4V12.7h9.4Zm0-15.5h-9.4V-2.7h9.4Zm0-15.4h-9.4V-18.1h9.4Z"/><polygon class="au" points="904.8 97.8 911.8 95 970.2 95 966.5 97.8 904.8 97.8"/><polygon class="av" points="904.8 157 911.8 152.2 932.3 152.2 929.1 157 904.8 157"/><polygon class="aw" points="904.8 36.1 911.8 39.1 966.5 38.9 970.2 36.1 904.8 36.1"/><polygon class="ax" points="1103.6 97.8 1110.7 95 1169.1 95 1165.3 97.8 1103.6 97.8"/><polygon class="ay" points="1142 157 1138.7 152.2 1158.4 152.2 1165.3 157 1142 157"/><polygon class="az" points="1103.6 36.1 1110.7 39.1 1165.3 38.9 1169.1 36.1 1103.6 36.1"/><path class="ba" d="M1043.6,138.1c0,4.7-3.8,70.5-8.5,70.5s-8.5-65.8-8.5-70.5a8.5,8.5,0,1,1,17,0Z"/><path class="bb" d="M1073.8-21.4c-2.3-25.5-6.6-49.7-12.4-65-9,.2-26.3,7.5-26.3,7.5s-17.3-7.3-26.3-7.5c-5.8,15.3-10.1,39.5-12.4,65s3.1,163.1,4,174.2c2.8,11.8,34.7,11.3,34.7,11.3s31.9.5,34.8-11.3C1070.8,141.7,1076.1,4,1073.8-21.4Z"/><path class="bc" d="M997.5,21.5c0,4.7,3.6,127.9,8.3,127.9s5.6-123.6,5.6-128.3a8.6,8.6,0,0,0-8.6-8.5C998.1,12.6,997.5,16.8,997.5,21.5Z"/><path class="bd" d="M943.8,195.7l62-53.2V23.2a3.1,3.1,0,0,0-5.9-1l-56.1,121Z"/><path class="be" d="M1072.6,21.5c0,4.7-3.5,127.9-8.2,127.9s-5.6-123.6-5.6-128.3a8.5,8.5,0,0,1,8.5-8.5C1072,12.6,1072.6,16.8,1072.6,21.5Z"/><path class="bf" d="M1126.4,195.7l-62-53.2V23.2a3.1,3.1,0,0,1,5.9-1l56.1,121Z"/><path class="bg" d="M952,145.1c0,4.7-3.9,70.4-8.6,70.4s-8.5-65.7-8.5-70.4a8.6,8.6,0,1,1,17.1,0Z"/><path class="bh" d="M1135.3,145.1c0,4.7-3.8,70.4-8.5,70.4s-8.6-65.7-8.6-70.4a8.6,8.6,0,1,1,17.1,0Z"/><circle class="bi" cx="1035.1" cy="54.4" r="14.5"/><circle class="bj" cx="1035.1" cy="53.9" r="11.4"/><circle class="bk" cx="1035.1" cy="90.4" r="14.5"/><circle class="bl" cx="1035.1" cy="89.8" r="11.4"/><polygon class="bm" points="1041.4 128.1 1035.1 128.1 1035.1 128.1 1028.8 128.1 1017.7 142.6 1017.7 164 1021.4 166.1 1035.1 166.1 1035.1 166.1 1048.8 166.1 1052.6 164 1052.6 142.6 1041.4 128.1"/><polygon class="bn" points="1041.4 128.1 1035.1 128.1 1035.1 128.1 1028.8 128.1 1017.7 142.6 1017.7 164 1021.4 166.1 1035.1 166.1 1035.1 166.1 1048.8 166.1 1052.6 164 1052.6 142.6 1041.4 128.1"/><polygon class="bo" points="1040.9 128.8 1035.1 128.8 1035.1 128.8 1029.4 128.8 1019.1 143 1019.1 164.1 1022.5 166.1 1035.1 166.1 1035.1 166.1 1047.7 166.1 1051.2 164.1 1051.2 143 1040.9 128.8"/><circle class="bp" cx="1035.1" cy="53.1" r="9"/><circle class="bq" cx="1035.1" cy="89" r="9"/><path class="br" d="M1126.8,136.5a11.3,11.3,0,0,0-3.2.6L1074.1,30.4c.4-23.6.5-43.6-.3-51.8-2.2-24.8-6.3-48.6-11.9-63.8l-.9-2.6h0c-10.4-31.5-23.4-38-25.9-41.2h0c-2.4,3.2-15.5,9.6-25.8,41.1h0l-1.1,3.1h0c-5.5,15.3-9.6,38.8-11.8,63.4-.7,8.2-.7,28.1-.2,51.7L946.6,137.1a10.7,10.7,0,0,0-3.2-.6,8.5,8.5,0,0,0-8.5,8.6c0,4.7,3.8,70.4,8.5,70.4,1.9,0,3.7-10.8,5.1-23.9l51.6-44.2c.1,2.6.2,4.5.3,5.4,1.3,5.7,9.3,8.5,17.3,9.9V164l3.7,2.1h6.9c1.6,19.7,4,42.5,6.8,42.5s5.2-22.8,6.8-42.5h6.9l3.8-2.1v-1.3c7.9-1.4,15.9-4.2,17.3-9.9,0-.9.1-2.8.3-5.4l51.5,44.2c1.4,13.1,3.2,23.9,5.1,23.9,4.7,0,8.5-65.7,8.5-70.4A8.5,8.5,0,0,0,1126.8,136.5Z"/><polygon class="bs" points="603.5 128.7 592 121 662.8 151.6 620.2 122.5 633.6 128.2 676.2 148.7 786 176 786.4 176.1 810.4 189.4 844.8 208.9 749.2 192.2 761.2 202.3 727.3 209 698.1 217.1 680.9 209 680.9 215.2 667 211.8 644.1 209 652.7 220.4 647.7 227.8 636 220.4 617.4 182.2 625.5 182.2 603 148.7 610.2 148.7 649.4 161.7 645.5 152.1 603.5 128.7"/><polygon class="bs" points="555.5 153.6 580 127.8 588.6 137.8 599.9 177 648.3 228.1 609.7 237.5 572.6 237.5 487.4 267.9 459.7 266.9 460.7 231.8 497.5 242.8 555.5 153.6"/><polygon class="bt" points="487 174.2 491.3 217.9 511.4 133 522.5 127.8 530.1 133 533.5 174.8 547.5 122.7 547.4 96.6 580 127.8 561.8 215.5 487.4 267.9 458 266.8 460.7 190.5 473.1 156.1 487 174.2"/><polygon class="ac" points="335.3 209.5 425.2 209.6 371.7 303.9 217.5 303.9 335.3 209.5"/><polygon class="ad" points="460.7 48.9 443.5 55 425.9 72 385.5 88.8 361 109.8 337 147.4 288.8 171.1 271.3 224.3 270 266.8 312.5 282.3 339.8 267.8 358 273.5 413 272 421.5 265.5 461.3 266.5 460.7 263 460.7 48.9"/><polygon class="ag" points="460.7 82.5 455.3 84.3 443.8 80.5 434.5 74.6 425.9 72 385.5 88.8 359.9 111.4 375.5 138.4 422 144.6 448.3 128.1 460.7 190.5 460.7 82.5"/><polygon class="bt" points="460.7 191.5 455 208.3 443.8 228.1 438.8 243.5 429.5 261.7 426.3 265.6 483.5 267.8 460.7 191.5"/><rect class="e" x="465.7" y="-24.9" width="710.6" height="381.49"/><rect class="e" x="465.7" y="-24.9" width="710.6" height="381.49"/><rect class="e" x="465.7" y="-24.9" width="710.6" height="381.49"/><rect class="e" x="465.7" y="-24.9" width="710.6" height="381.49"/><rect class="e" x="465.7" y="-24.9" width="710.6" height="381.49"/><rect class="e" x="465.7" y="-24.9" width="710.6" height="381.49"/><rect class="e" x="465.7" y="-24.9" width="710.6" height="381.49"/><rect class="e" x="465.7" y="-24.9" width="710.6" height="381.49"/><rect class="e" x="465.7" y="-24.9" width="710.6" height="381.49"/><rect class="e" x="465.7" y="-24.9" width="710.6" height="381.49"/><polygon class="ac" points="680.9 215.2 680.9 209 698.1 217.1 727.3 209 761.2 202.3 749.2 192.2 844.8 208.9 810.4 189.4 786.4 176.1 860.1 202.3 899.9 209.1 899.5 209.3 843.5 216.6 787.8 218.5 783.9 230.2 760.7 237.2 676.2 237.2 656.3 235.9 652.7 220.4 644.1 209 667 211.8 680.9 215.2"/><rect class="e" x="465.7" y="-24.9" width="710.6" height="381.49"/><polygon class="bu" points="615 111.5 664.5 130.8 621.2 119.2 594.9 113.4 583.9 101 574.8 102.4 562 100 548.1 76.6 598.3 99.3 615 111.5"/><path class="bv" d="M904.8-24.3v243h61.7v-243Zm6,6.9L927.7-.5v14L910.8,30.4H906V-17.4Zm48.7-.9-16.9,17h-14l-16.9-17v-4.8h47.8Zm5.7,48.7h-4.8L943.5,13.5V-.5l16.9-16.9h4.8Zm0,12.7V90.9h-4.8L943.5,74V60l16.9-16.9Zm0,60.4v47.8h-4.8l-16.9-16.9v-14l16.9-16.9Zm-4.8,108.3-16.9-16.9v-14L960.4,164h4.8v47.8Zm-48.7.9,16.9-17h14l16.9,17v4.8H911.7ZM906,164h4.8l16.9,16.9v14l-16.9,16.9H906Zm5.7-5.7h47.8v4.8L942.6,180h-14l-16.9-16.9Zm0-1.3v-4.8l16.9-16.9h14l16.9,16.9V157Zm-.9-5.7H906V103.5h4.8l16.9,16.9v14Zm.9-53.5h47.8v4.8l-16.9,16.9h-14l-16.9-16.9Zm0-1.2V91.8l16.9-17h14l16.9,17v4.8Zm-.9-5.7H906V43.1h4.8L927.7,60V74Zm.9-53.5h47.8v4.8L942.6,59.1h-14L911.7,42.2Zm0-1.3V31.3l16.9-16.9h14l16.9,16.9v4.8Z"/><rect class="bv" x="952.7" y="-23.1" width="1.7" height="241.78" transform="translate(1907.1 195.6) rotate(180)"/><rect class="bv" x="920.6" y="-23.1" width="3.5" height="241.78" transform="translate(1844.6 195.6) rotate(180)"/><rect class="bv" x="960.1" y="-23.1" width="0.6" height="241.78" transform="translate(1920.8 195.6) rotate(180)"/><rect class="bv" x="772.7" y="96.6" width="243" height="1.26" transform="translate(991.4 -797) rotate(90)"/><rect class="bv" x="893.5" y="8.3" width="11.2" height="1.26" transform="translate(1798.3 17.8) rotate(180)"/><rect class="bv" x="893.5" y="24.6" width="11.2" height="1.26" transform="translate(1798.3 50.4) rotate(180)"/><rect class="bv" x="893.5" y="40.9" width="11.2" height="1.26" transform="translate(1798.3 83) rotate(180)"/><rect class="bv" x="893.5" y="57.2" width="11.2" height="1.26" transform="translate(1798.3 115.6) rotate(180)"/><rect class="bv" x="893.5" y="73.5" width="11.2" height="1.26" transform="translate(1798.3 148.2) rotate(180)"/><rect class="bv" x="893.5" y="89.8" width="11.2" height="1.26" transform="translate(1798.3 180.8) rotate(180)"/><rect class="bv" x="893.5" y="106.1" width="11.2" height="1.26" transform="translate(1798.3 213.4) rotate(180)"/><rect class="bv" x="893.5" y="122.4" width="11.2" height="1.26" transform="translate(1798.3 246) rotate(180)"/><rect class="bv" x="893.5" y="138.7" width="11.2" height="1.26" transform="translate(1798.3 278.6) rotate(180)"/><rect class="bv" x="893.5" y="155" width="11.2" height="1.26" transform="translate(1798.3 311.2) rotate(180)"/><rect class="bv" x="893.5" y="171.3" width="11.2" height="1.26" transform="translate(1798.3 343.8) rotate(180)"/><rect class="bv" x="893.5" y="187.6" width="11.2" height="1.26" transform="translate(1798.3 376.4) rotate(180)"/><rect class="bv" x="893.5" y="203.9" width="11.2" height="1.26" transform="translate(1798.3 409) rotate(180)"/><path class="bv" d="M1103.8-24.3v243h61.7v-243Zm60.5,6.9V30.4h-4.8l-16.9-16.9V-.5l16.9-16.9Zm-53.5-5.7h47.8v4.8l-16.9,17h-14l-16.9-17Zm-5.7,5.7h4.8L1126.8-.5v14l-16.9,16.9h-4.8Zm4.8,60.5L1126.8,60V74l-16.9,16.9h-4.8V43.1Zm0,60.4,16.9,16.9v14l-16.9,16.9h-4.8V103.5Zm-4.8,108.3V164h4.8l16.9,16.9v14l-16.9,16.9Zm53.5,5.7h-47.8v-4.8l16.9-17h14l16.9,17Zm5.7-5.7h-4.8l-16.9-16.9v-14l16.9-16.9h4.8Zm-5.7-48.7L1141.7,180h-14l-16.9-16.9v-4.8h47.8Zm-47.8-6.1v-4.8l16.9-16.9h14l16.9,16.9V157Zm31.8-22.6v-14l16.9-16.9h4.8v47.8h-4.8Zm16-31.8-16.9,16.9h-14l-16.9-16.9V97.8h47.8Zm-47.8-6V91.8l16.9-17h14l16.9,17v4.8ZM1142.6,74V60l16.9-16.9h4.8V90.9h-4.8Zm16-31.8-16.9,16.9h-14l-16.9-16.9V37.4h47.8Zm-47.8-6.1V31.3l16.9-16.9h14l16.9,16.9v4.8Z"/><rect class="bv" x="1115.9" y="-23.1" width="1.7" height="241.78"/><rect class="bv" x="1146.3" y="-23.1" width="3.5" height="241.78"/><rect class="bv" x="1109.6" y="-23.1" width="0.6" height="241.78"/><rect class="bv" x="1054.6" y="96.6" width="243" height="1.26" transform="translate(1273.3 -1078.9) rotate(90)"/><rect class="bv" x="1165.5" y="8.3" width="11.2" height="1.26"/><rect class="bv" x="1165.5" y="24.6" width="11.2" height="1.26"/><rect class="bv" x="1165.5" y="40.9" width="11.2" height="1.26"/><rect class="bv" x="1165.5" y="57.2" width="11.2" height="1.26"/><rect class="bv" x="1165.5" y="73.5" width="11.2" height="1.26"/><rect class="bv" x="1165.5" y="89.8" width="11.2" height="1.26"/><rect class="bv" x="1165.5" y="106.1" width="11.2" height="1.26"/><rect class="bv" x="1165.5" y="122.4" width="11.2" height="1.26"/><rect class="bv" x="1165.5" y="138.7" width="11.2" height="1.26"/><rect class="bv" x="1165.5" y="155" width="11.2" height="1.26"/><rect class="bv" x="1165.5" y="171.3" width="11.2" height="1.26"/><rect class="bv" x="1165.5" y="187.6" width="11.2" height="1.26"/><rect class="bv" x="1165.5" y="203.9" width="11.2" height="1.26"/><path class="bw" d="M904.8-24.3H893.5v243h1.3V205.1h10v13.6h61.7v-243Zm0,228.2h-10V188.8h10Zm0-16.3h-10V172.5h10Zm0-30.6v14.3h-10V156.2h10Zm0-2h-10V139.9h10Zm0-16.3h-10V123.6h10Zm0-16.3h-10V107.3h10Zm0-25.8v9.5h-10V91h10Zm0-6.8h-10V74.7h10Zm0-16.3h-10V58.4h10Zm0-16.3h-10V42.1h10Zm0-21.1v4.8h-10V25.8h10Zm0-11.5h-10V9.5h10Zm0-16.3h-10V-6.8h10Zm0-16.3h-10V-23.1h10Zm37.8,188h-14l-4.6-4.6V158.3h28.7v11.6Zm10.1-8.3V204l-9.2-9.1v-14Zm-25,9.2v14l-3.7,3.7V177.2Zm.9-166.5h14l10.1,10.1V36.1H924V19ZM924,17.2V-4.2l3.7,3.7v14Zm30.4,79.4v-10l5.1,5.2v4.8Zm5.1,1.2v4.8l-5.1,5.2v-10Zm-5.1-13V49.1l5.7-5.8V90.6Zm-1.7-1.6L943.5,74V60l9.2-9.2Zm6.8-45.8v4.8l-5.1,5.2v-10Zm-5.1-1.3V26.2l5.1,5.1v4.8Zm0-11.7V-11.3l5.7-5.8V30.2Zm-1.7-1.7-9.2-9.2V-.5l9.2-9.1ZM920.6,36.1h-8.9V31.3l8.9-8.8Zm0,1.3V51l-8.9-8.8V37.4Zm3.4,0h28.7V49L942.6,59.1h-14L924,54.5ZM927.7,60V74L924,77.7V56.3Zm.9,14.8h14l10.1,10.1V96.6H924V79.4Zm-8,21.8h-8.9V91.8l8.9-8.9Zm0,1.2v13.7l-8.9-8.9V97.8Zm3.4,0h28.7v11.7l-10.1,10h-14L924,115Zm28.7,13.4v32.4l-9.2-9.2v-14Zm-25,9.2v14l-3.7,3.7V116.7Zm.9,14.9h14l10.1,10.1V157H924V139.9Zm-8,21.7h-8.9v-4.8l8.9-8.8Zm0,1.3v13.6l-8.9-8.8v-4.8Zm33.8,0h5.1v4.8l-5.1,5.1Zm0-1.3V147l5.1,5.2V157Zm0-11.7V109.6l5.7-5.8V151Zm5.1-168.4v4.8l-5.1,5.2v-10Zm-6.8,0v11.7L942.6-1.3h-14L924-5.9V-23.1Zm-41,0h8.9V-9.4l-8.9-8.9ZM906-17.4h4.8l9.8,9.8V20.7l-9.8,9.7H906Zm0,60.5h4.8l9.8,9.7V81.1l-9.8,9.8H906Zm0,60.4h4.8l9.8,9.8v28.3l-9.8,9.7H906Zm0,108.3V164h4.8l9.8,9.7V202l-9.8,9.8Zm5.7,5.7v-4.8l8.9-8.9v13.7Zm12.3,0V200.3l4.6-4.6h14l10.1,10.1v11.7Zm35.5,0h-5.1v-10l5.1,5.2Zm-5.1-11.8V170l5.7-5.8v47.3Zm10.8,6.1h-4.5V164h4.5Zm0-60.5h-4.5V103.5h4.5Zm0-60.4h-4.5V43.1h4.5Zm0-60.5h-4.5V-17.4h4.5Z"/><path class="bx" d="M1175.5-24.3h-71.7v243h61.7V205.1h10v13.6h1.3v-243Zm-16.9,1.2v4.8l-8.9,8.9V-23.1Zm-12.3,0V-5.9l-4.6,4.6h-14l-10.1-10.1V-23.1ZM1141.7,180h-14l-10.1-10.1V158.3h28.7v17.1Zm4.6-2.8v21.4l-3.7-3.7v-14Zm-19.5,3.7v14l-9.2,9.1V171.7ZM1115.9,24.4l-5.7,5.8V-17.1l5.7,5.8Zm1.7-34,9.2,9.1v14l-9.2,9.2Zm-1.7,94.4-5.7,5.8V43.3l5.7,5.8Zm1.7-34,9.2,9.2V74l-9.2,9.2Zm-6.8,45.8V91.8l5.1-5.2v10Zm5.1,1.2v10l-5.1-5.2V97.8Zm-5.1-55.6V37.4h5.1v10Zm0-6.1V31.3l5.1-5.1v9.9Zm-.6,67.7,5.7,5.8v35.7l-5.7,5.7Zm7.4,7.4,9.2,9.2v14l-9.2,9.2Zm-1.7,35.8v10h-5.1v-4.8Zm-5.1,11.3h5.1v9.9l-5.1-5.1Zm38.9,0h8.9v4.8l-8.9,8.8Zm0-1.3V143.4l8.9,8.8V157Zm-3.4,0h-28.7V145.4l10.1-10.1h14l4.6,4.6Zm-3.7-22.6v-14l3.7-3.7v21.4Zm-.9-14.9h-14l-10.1-10V97.8h28.7V115Zm8-21.7h8.9v4.8l-8.9,8.9Zm0-1.2V82.9l8.9,8.9v4.8Zm-3.4,0h-28.7V84.9l10.1-10.1h14l4.6,4.6ZM1142.6,74V60l3.7-3.7V77.7Zm-.9-14.9h-14L1117.6,49V37.4h28.7V54.5Zm8-21.7h8.9v4.8l-8.9,8.8Zm0-1.3V22.5l8.9,8.8v4.8Zm-3.4,0h-28.7V24.5l10.1-10.1h14l4.6,4.6Zm-3.7-22.6V-.5l3.7-3.7V17.2Zm-31.8-36.6h5.1v10l-5.1-5.2Zm-5.7,5.7h4.5V30.4h-4.5Zm0,60.5h4.5V90.9h-4.5Zm0,60.4h4.5v47.8h-4.5Zm0,108.3V164h4.5v47.8Zm5.1-47.6,5.7,5.8v35.7l-5.7,5.8Zm.6,53.3v-4.8l5.1-5.2v10Zm6.8,0V205.8l10.1-10.1h14l4.6,4.6v17.2Zm41,0h-8.9V203.8l8.9,8.9Zm5.7-5.7h-4.8l-9.8-9.8V173.7l9.8-9.7h4.8Zm0-60.5h-4.8l-9.8-9.7V113.3l9.8-9.8h4.8Zm0-60.4h-4.8l-9.8-9.8V52.8l9.8-9.7h4.8Zm0-60.5h-4.8l-9.8-9.7V-7.6l9.8-9.8h4.8Zm11.2,173.5h-10V188.8h10Zm0-16.3h-10V172.5h10Zm0-16.3h-10V156.2h10Zm0-16.3h-10V139.9h10Zm0-16.3h-10V123.6h10Zm0-16.3h-10V107.3h10Zm0-16.3h-10V91h10Zm0-16.3h-10V74.7h10Zm0-16.3h-10V58.4h10Zm0-16.3h-10V42.1h10Zm0-16.3h-10V25.8h10Zm0-16.3h-10V9.5h10Zm0-16.3h-10V-6.8h10Zm0-16.3h-10V-23.1h10Z"/><polygon class="by" points="1183.2 217.3 884.7 217.3 869.9 223.6 1191.6 223.6 1183.2 217.3"/><path class="bz" d="M1192.9,201.2l3.1,1.7h.2a4.6,4.6,0,0,1,1.6,6.4l-3.5,6.1a4.8,4.8,0,0,1-6.5,1.7l-3.2-1.8h0a1.3,1.3,0,0,1-.4-1.6l7.1-12.1A1.2,1.2,0,0,1,1192.9,201.2Z"/><path class="am" d="M1191.8,211.1v10h-2.2v-10a1.1,1.1,0,0,1,1.1-1.1h0A1.1,1.1,0,0,1,1191.8,211.1Z"/><path class="ca" d="M1196.3,224.5h-11.2a3.4,3.4,0,0,1,3.4-3.4h4.4A3.4,3.4,0,0,1,1196.3,224.5Z"/><path class="cb" d="M877.7,201.7l7.1,12.1a1.3,1.3,0,0,1-.4,1.6h0l-3.2,1.8a4.8,4.8,0,0,1-6.5-1.7l-3.6-6.1a4.7,4.7,0,0,1,1.7-6.4h.2l3.1-1.7A1.2,1.2,0,0,1,877.7,201.7Z"/><path class="cc" d="M878.3,210h0a1.1,1.1,0,0,1,1.1,1.1v10h-2.2v-10A1.1,1.1,0,0,1,878.3,210Z"/><path class="cd" d="M876.1,221.1h4.4a3.3,3.3,0,0,1,3.3,3.4H872.7A3.4,3.4,0,0,1,876.1,221.1Z"/><path class="ce" d="M773.3,250c-.2.9-57.2,53.3-57.2,53.3H901.8l-25.3-51.1-9.7-7H855.5l-65.7,6Z"/><polygon class="cf" points="1191.3 201.7 1046.1 -0.1 952 145.1 1184.2 213.8 1191.3 201.7"/><polygon class="cg" points="877.6 201.6 1022.9 -0.2 1117 145 884.8 213.7 877.6 201.6"/><ellipse class="ch" cx="867.8" cy="205.5" rx="61.1" ry="59.5" transform="translate(621.8 1062.7) rotate(-87.3)"/><path class="ci" d="M811.9,149.7c0-.4-1-22.7-1-22.7s-.6-3.4,4-3.5,40.3-.6,40.3-.6,2.9-.3,2.9,4.3v23.3s-.1,1.9-1.7,2-43.2-.5-43.2-.5S811.9,152,811.9,149.7Z"/><path class="ci" d="M760.7,149.4c0-.4,3-22.1,3-22.1s.4-3.5,4.5-3.4,35.7-.3,35.7-.3,2.5-.3,2.7,3,.6,23.1.6,23.1-.1,1.9-1.7,2-43.5,0-43.5,0S760.7,151.8,760.7,149.4Z"/><polygon class="cj" points="864.1 172.1 872.5 180.1 873 185.6 863.9 185.6 864.1 172.1"/><path class="ck" d="M863.1,123.4c-.2-6.8-3.7-6-3.7-6l-97.6.9c-3.5-.2-4.5,4.5-4.5,4.5l-8.8,62.4,93.7,1.5,22.1-1.7S863.3,130.3,863.1,123.4Zm-57.6,28.3c-1.6.2-43.5,0-43.5,0s-1.3.1-1.3-2.3c0-.4,3-22.1,3-22.1s.4-3.5,4.5-3.4,35.7-.3,35.7-.3,2.5-.3,2.7,3,.6,23.1.6,23.1S807.1,151.6,805.5,151.7Zm52.6-1.2s-.1,1.9-1.7,2-43.2-.5-43.2-.5-1.3,0-1.3-2.3c0-.4-1-22.7-1-22.7s-.6-3.4,4-3.5,40.3-.6,40.3-.6,2.9-.3,2.9,4.3Z"/><path class="cl" d="M744.5,170.9s6.1-13.5,6.6-14.4,102.1,0,102.1,0,1-.1,1.6,1.5,5.8,19.8,5.8,19.8l-8.6,9.7-49.4,2.8-51.3-3.6-15-1.7Z"/><path class="cm" d="M758.4,135.7a3.9,3.9,0,0,0,1.7,1.7H760a9.4,9.4,0,0,0-.4,1.6c-.7,5,3.7,9.8,9.8,10.8h1.7a15.1,15.1,0,0,0,3-.2c4.1-.8,7.3-3.6,7.9-7.4a4.3,4.3,0,0,0,0-1.6h0a4.1,4.1,0,0,0,2.2-1.1c1.8-1.7,1.8-4.9,0-6a2.7,2.7,0,0,0-2.1-.2H782a5.2,5.2,0,0,0-.2-1.1l-.3-.8A12.2,12.2,0,0,0,776,125a3.7,3.7,0,0,0-2.3-2.2h-.2l-.2.3-.4,1h-.6l-1.5-1.3-.3,1.4a11.9,11.9,0,0,0-7.2,4.6l-.5.7-.6,1a2.2,2.2,0,0,0-2.1-.5C758.1,130.5,757.1,133.5,758.4,135.7Zm4.9-.9a3.6,3.6,0,0,0,.1,1.8c.1.2.1.4.2.6s-.1-.4-.2-.6A3.6,3.6,0,0,1,763.3,134.8Z"/><path class="cn" d="M773.3,123.1c.3,0,.9.5,1.5,1.5a1.8,1.8,0,0,1,.5.7,17.7,17.7,0,0,1,2.8,8c.3,4.9-.2,10.5-2.4,13.3a11.8,11.8,0,0,1-4.6,3.4,15.1,15.1,0,0,0,3-.2c4.1-.8,7.3-3.6,7.9-7.4a8.1,8.1,0,0,0,.1-1.6.1.1,0,0,1-.1-.1,4.1,4.1,0,0,0,2.2-1.1c1.8-1.7,1.8-4.9,0-6a2.7,2.7,0,0,0-2.1-.2H782a5.2,5.2,0,0,0-.2-1.1l-.3-.8A12.2,12.2,0,0,0,776,125a3.7,3.7,0,0,0-2.3-2.2h-.2Z"/><path class="co" d="M774.4,151.3a2.2,2.2,0,0,0,0-2c-.5-.9-4.5-1.8-5.6-2a14.3,14.3,0,0,0-3.8.3,1.5,1.5,0,0,0-.8,1.1Z"/><path class="cp" d="M776.3,150.4a66.4,66.4,0,0,0-8.8-2.7c-5.1-1.1-6.9.4-7.2.7s-.5,2.4,0,2.5,5.8-.5,8,.5,4.5,2.3,5.1,3.2.6.6,1.1.4a12.7,12.7,0,0,0,2.8-2.4C777.7,152.1,777.6,151.5,776.3,150.4Z"/><path class="cq" d="M760.3,150.9a32.5,32.5,0,0,1,6.3-.2,15.2,15.2,0,0,1,7.9,4.3c.4.9.4,2.3,1.4,2.9s5.1,2.4,5.1,2.9-1,1.2-1.6,2.4-.6,14.1,0,17.7-29.3-.6-29.3-.6.8-18.8,1.5-21S758.2,151.1,760.3,150.9Z"/><path class="cr" d="M781,160.8s-2.1,1.8-2.3,2.6-.2,8.7-.4,9.4S783,179,783,179s6.3,1.4,8,0,2.7-5.2.3-6.8-7.3-8.4-7.9-9.3-2.1-2.4-2.4-2.1"/><path class="cs" d="M780.3,177.7s1.3-6.6-4-6.8H736.7s-4.9.5-5,5.4,5.2,3.5,5.2,3.5l43.5.8Z"/><path class="ct" d="M769.8,173.9a10.2,10.2,0,0,1,3.4,1.4c1.2,1,2.7,3,2.4,3.4s-1.7.5-1.9.2-3.8-3.5-4.4-3.6S769.3,173.8,769.8,173.9Z"/><path class="cu" d="M749.5,119.3a5.8,5.8,0,0,0,1.6,1.8h0a8.8,8.8,0,0,0-.5,1.5c-.9,5,3.2,10,9.4,11.2h.1l1.5.2a10.1,10.1,0,0,0,3-.1c4.2-.6,7.5-3.3,8.2-7a4.3,4.3,0,0,0,.1-1.6h0a4.3,4.3,0,0,0,2.2-1c1.9-1.7,2-4.9.3-6a2.4,2.4,0,0,0-2.1-.3h0l-.3-1.1a1.9,1.9,0,0,0-.2-.8,11.9,11.9,0,0,0-5.3-6.7,2.9,2.9,0,0,0-2.1-2.3h-.3v.3l-.5,1H764l-1.6-1.4-.3,1.4a12,12,0,0,0-7.4,4.3l-.5.6-.6,1a2.3,2.3,0,0,0-2.1-.5C749.5,114,748.4,117,749.5,119.3Zm5-.7a5.4,5.4,0,0,0,0,1.8c.1.2.1.4.2.6s-.1-.4-.2-.6A5.4,5.4,0,0,1,754.5,118.6Z"/><path class="cv" d="M765,107.3c.3,0,.9.6,1.5,1.6a4.3,4.3,0,0,1,.4.7,17.5,17.5,0,0,1,2.4,8.1c.1,4.9-.6,10.5-2.9,13.2a12,12,0,0,1-4.8,3.2,10.1,10.1,0,0,0,3-.1c4.2-.6,7.5-3.3,8.2-7a4.3,4.3,0,0,0,.1-1.6h0a4.3,4.3,0,0,0,2.2-1c1.9-1.7,2-4.9.3-6a2.4,2.4,0,0,0-2.1-.3h0l-.3-1.1a1.9,1.9,0,0,0-.2-.8,11.9,11.9,0,0,0-5.3-6.7,2.9,2.9,0,0,0-2.1-2.3h-.3Z"/><path class="cw" d="M780.6,124.2a17.3,17.3,0,0,1-10.7,12c-3.3,1.3-19.6-3.2-22-7a16.8,16.8,0,0,1-2.5-13.3c2.3-9.4,11.9-15,21.6-12.7S782.8,114.9,780.6,124.2Z"/><path class="cx" d="M747.6,115.7a.4.4,0,0,1-.2-.5c0-.1,3.3-9.9,13.2-11.3.2,0,.5.2.5.4s-.1.5-.4.6c-9.3,1.3-12.4,10.5-12.4,10.5a.5.5,0,0,1-.6.4Z"/><path class="cx" d="M762.5,104.6a.4.4,0,0,1-.2-.4.5.5,0,0,1,.5-.5l2.3.2a.5.5,0,0,1,.5.5c0,.2-.3.4-.5.4h-2.6Z"/><path class="cy" d="M748.1,131.2a3.4,3.4,0,0,1,.4-1.3c.3-.5,4-2.1,6.6-2.2s6.5,2.1,7.9,3.5a20,20,0,0,1,2.8,3.9c.2.6.2,1.1-.2,1.4s-9.3-2.6-9.3-2.6Z"/><path class="cz" d="M747,132.7s-.1-1.1.7-1.3,2.4-1.2,6.5-.6,8.5,2.5,10.6,4.5,1.9,2.1,1.9,2.5-.8.6-.8.6l-7-1.8Z"/><path class="da" d="M725.1,159.9a42.7,42.7,0,0,1-3.9,5.3c-2.3,2.5-3.1,8.5-3.3,9.8s-1.4,3-4,2.5-4.1-1-4.5-2.9.5-13.3,1.2-16.2,5-7.5,5.9-8.2a10,10,0,0,1,4.4-1.5C722.1,148.8,725.7,156.5,725.1,159.9Z"/><path class="db" d="M744.1,134.1l-4.9,1.4c-2.1.6-7.5,6.2-8.8,7.6s-5,3.4-5.8,4-3.9,1.4-4.7,2.5,2.5,9.9,4.2,10.2,4.8-1.2,6.2-2.9,15.1-19.6,15.1-19.6l-1.3-3.2"/><path class="dc" d="M724.1,177.3s2.4-2.8,2-4.1-.6-5.2.8-7.5,2.7-9.9,2.9-14.3,4.7-12.1,10.3-15.1,6.9-4.7,13-3.9,9.7,2.2,12.4,5,3.7,9.5,1.6,12.9-8.5,16.6-8.5,19.5-.6,8.9-.6,8.9S729.8,181.5,724.1,177.3Z"/><polygon class="dd" points="753.2 170.6 759.1 171.2 758.7 176.9 752.4 176.7 753.2 170.6"/><path class="de" d="M755.2,131.1l-22.9-5.9a3.4,3.4,0,0,0-4.2,2.8l-5.4,45.8a3.5,3.5,0,0,0,2.4,3.8l23.3,6.9a3.4,3.4,0,0,0,4.3-2.9l5.1-46.9A3.3,3.3,0,0,0,755.2,131.1Z"/><polyline class="df" points="745.2 183.6 741.4 184.1 725.4 179.5 724.8 177.5 726.5 162.7 731.7 148.4 740.6 149.5 743.6 164.9 740.8 181.1 745.2 183.6"/><polygon class="dg" points="754.4 129.6 748 128.1 744.7 130.5 750.9 132.2 753.5 130.7 755.4 131.1 754.4 129.6"/><polygon class="dh" points="738.4 125.7 732.9 124.4 730 127 735.4 127.9 737.7 126.6 739.4 127 738.4 125.7"/><ellipse class="di" cx="748.7" cy="130.1" rx="0.6" ry="1.2" transform="translate(485.1 842.8) rotate(-79.6)"/><ellipse class="dj" cx="732.6" cy="166.5" rx="8.1" ry="4.4" transform="translate(436.1 856.9) rotate(-79.6)"/><ellipse class="dk" cx="732.4" cy="166.5" rx="7.3" ry="3.9" transform="translate(436 856.6) rotate(-79.6)"/><ellipse class="dl" cx="732.1" cy="166.5" rx="6.8" ry="3.2" transform="translate(435.8 856.3) rotate(-79.6)"/><ellipse class="dm" cx="733.2" cy="126.3" rx="0.5" ry="1.1" transform="translate(476.2 824.5) rotate(-79.6)"/><path class="dn" d="M755.2,131.1l-1.4-.4c-.6,5.2-6.7,51.3-6.9,53.4l1.5.4a3.4,3.4,0,0,0,4.3-2.9l5.1-46.9A3.3,3.3,0,0,0,755.2,131.1Z"/><path class="do" d="M709.8,181.4a10.3,10.3,0,0,0-2,1.1,4.6,4.6,0,0,0-.8,2,1.6,1.6,0,0,0,1.4,1.4c.8.2.5-1.3.9-1.9S711.6,182.3,709.8,181.4Z"/><path class="dp" d="M717,176.8a4.8,4.8,0,0,0-.2,2.5c.4,1.1,1.9,3.6.7,4.7s-6.7.5-7.6.5-.9-2.1,0-3.1.9-3.9,1-4.8S716.3,175.4,717,176.8Z"/><path class="dq" d="M798.4,176.8s-.9-4.8,3.5-5,41.8,0,41.8,0,3.3-.3,3.5,1.5-8,11.7-8,11.7h-14Z"/><path class="dr" d="M813.9,137.5a4.5,4.5,0,0,0,2.1,1.7h0a5.7,5.7,0,0,0-.3,1.8c-.3,5.6,5,10.5,11.9,10.9h1.9a16.5,16.5,0,0,0,3.2-.6c4.5-1.4,7.8-4.8,8-9a10.9,10.9,0,0,0-.1-1.8h0a4.5,4.5,0,0,0,2.2-1.4c1.9-2.1,1.5-5.7-.6-6.6a2.6,2.6,0,0,0-2.3,0h-.1c-.1-.4-.3-.8-.4-1.2l-.4-.9a13.1,13.1,0,0,0-6.8-6.5,3.5,3.5,0,0,0-2.7-2.2h-.3v.4l-.3,1.2h-.7l-1.9-1.3v1.6a13.6,13.6,0,0,0-7.5,5.8l-.4.9-.6,1.1a2.7,2.7,0,0,0-2.4-.2C813.1,131.8,812.3,135.2,813.9,137.5Zm5.4-1.5a3.4,3.4,0,0,0,.3,2l.3.6-.3-.6A3.4,3.4,0,0,1,819.3,136Z"/><path class="ds" d="M829.1,122c.3,0,1,.5,1.8,1.5a4.6,4.6,0,0,0,.7.7,21.4,21.4,0,0,1,3.8,8.5c.8,5.5,1,11.7-1.2,15a12.7,12.7,0,0,1-4.7,4.3,16.5,16.5,0,0,0,3.2-.6c4.5-1.4,7.8-4.8,8-9a10.9,10.9,0,0,0-.1-1.8h0a4.5,4.5,0,0,0,2.2-1.4c1.9-2.1,1.5-5.7-.6-6.6a2.6,2.6,0,0,0-2.3,0h-.1c-.1-.4-.3-.8-.4-1.2l-.4-.9a13.1,13.1,0,0,0-6.8-6.5,3.5,3.5,0,0,0-2.7-2.2h-.3Z"/><path class="dt" d="M805.7,132.3a22.2,22.2,0,0,0,7.7,18.8c3.5,2.9,24.8,4.2,29.3.8a21.8,21.8,0,0,0,8.5-14.9c1.2-12.1-8-22.9-20.5-24.2S807,120.2,805.7,132.3Z"/><path class="cx" d="M808.9,140c-.2,0-.5-.2-.5-.4s-3.1-12.8,6.6-20.9a.6.6,0,0,1,.9.1.6.6,0,0,1-.1.8c-9.1,7.7-6.3,19.5-6.3,19.7a.6.6,0,0,1-.4.7Z"/><path class="cx" d="M817.5,118.1a.6.6,0,0,1-.3-1.1l2.7-1.4c.3-.2.6,0,.8.3a.7.7,0,0,1-.3.8l-2.6,1.4C817.7,118.1,817.6,118.2,817.5,118.1Z"/><path class="du" d="M844.6,153s.2-2.2-.6-2.7a115.5,115.5,0,0,0-17.2-4.5c-4.9-.6-11.5,3.4-13,4.2s-1.8,1.2-1.7,2.4,12.3.8,14,1.3S843.1,155.9,844.6,153Z"/><path class="dv" d="M847,157a6.2,6.2,0,0,0,.3-2.9c-.2-1.2-11.5-2.8-15-3.3s-15.5,0-19.9,1.3c-2.6.6-2.4,2.7-2,3.4s5.5,1.6,13.3,1.5a142.4,142.4,0,0,1,18,1.2C845.7,158.6,847.1,159.4,847,157Z"/><path class="dw" d="M808.7,156.5a76.7,76.7,0,0,1-8.2,3c-3.7,1.1-6.5,8.8-8.1,11.5s-6.4,12.1-5.9,13.4,1.9,2.4,5.8,2.5,4.8,0,6.2-.8,6.1-8.2,6.3-8.7S818.2,159.2,808.7,156.5Z"/><path class="dx" d="M849.3,182s.6-22.9-.9-24.4-24.6-5.6-38-2.1c0,0-3.9,1.2-5.1,8.2s-1.2,21.2-1.2,21.2Z"/><path class="dy" d="M806.8,186.5s1.8-34.2,2.7-35.9a2.8,2.8,0,0,1,3-2l28.6-.5c.9,0,1.9.9,2,3s2.1,34.8,2.1,34.8Z"/><path class="dz" d="M839.3,148.2h1.8s1.8-.1,2.3,3,2.3,34.7,2.3,34.7h-4.3Z"/><polygon class="ea" points="838.4 148.2 838 149.5 831.3 149.7 830.8 148.3 832.3 146.5 839.6 146.5 840.6 148.2 838.4 148.2"/><polygon class="eb" points="819.8 148.5 819.4 149.9 812.7 150.1 812.1 148.6 813.7 146.8 821 146.8 822 148.4 819.8 148.5"/><ellipse class="ec" cx="816.3" cy="147.5" rx="1.4" ry="0.3" transform="translate(-5.2 32.5) rotate(-2.3)"/><ellipse class="ed" cx="835" cy="147.2" rx="1.4" ry="0.3"/><path class="ee" d="M716.1,249.8c0,19.2,5.1,31.3,13.6,34.8,1.8,0,8.5-.6,10.5-2.4,5.9-5.2,8.3-18,8.3-32.4s-.7-27.6-6.5-33c-2-1.9-11.2-1.3-13.2-1.3C721.3,220,716.1,230.5,716.1,249.8Z"/><path class="ef" d="M746.9,256s11,4.6,16.9,0,9.6-3.8,11.6-2.1,8.6,11.6,25.1,5.1,26.4-3.8,26.4-3.8l3-20.4-83,.4Z"/><polygon class="eg" points="835.3 233.6 821.7 240.2 709.8 235.9 704.8 230.1 835.3 233.6"/><path class="eh" d="M825.2,254.8c0,19.2,5.2,31.3,13.6,34.8,1.9,0,8.6-.6,10.5-2.4,5.9-5.2,8.3-18,8.3-32.4s-.6-27.6-6.4-33c-2.1-1.9-11.3-1.4-13.2-1.4C830.4,225,825.2,235.5,825.2,254.8Z"/><path class="ei" d="M844.3,255.5c0,14.5,1.4,26.8,5,26.8s6.5-11.8,6.5-26.3-1.5-27.8-5.1-27.8S844.3,241,844.3,255.5Z"/><path class="ej" d="M844.3,255.4c0,10.7,1,19.7,3.4,19.7s4.5-8.6,4.5-19.3-1.1-20.5-3.5-20.5S844.3,244.8,844.3,255.4Z"/><path class="ek" d="M844.4,251.2l5.7,1.1V259l-5.7.7V259c-.1-.8-.1-2.4-.1-4s.1-1.7.1-2.2Z"/><ellipse class="el" cx="850.1" cy="255.6" rx="1.3" ry="3.4"/><path class="em" d="M861.5,231.2c0,13.7,3.6,22.3,9.6,24.8,1.3,0,6.1-.5,7.5-1.7,4.2-3.8,5.9-12.8,5.9-23.1s-.5-19.6-4.6-23.4c-1.5-1.4-8-1-9.4-1C865.2,210,861.5,217.5,861.5,231.2Z"/><path class="en" d="M875,231.7c0,10.4,1,19,3.6,19s4.6-8.3,4.6-18.6-1.1-19.7-3.7-19.7S875,221.4,875,231.7Z"/><path class="eo" d="M875,231.7c0,7.6.7,14,2.4,14s3.2-6.2,3.2-13.8-.7-14.5-2.5-14.5S875,224.1,875,231.7Z"/><path class="ep" d="M875.1,228.7l4,.7v4.8l-4,.5v-.5a21.8,21.8,0,0,1-.1-2.8c0-.7.1-1.2.1-1.6Z"/><ellipse class="el" cx="879.1" cy="231.8" rx="0.9" ry="2.4"/><polygon class="eq" points="835.3 233.6 704.8 230.1 704.8 183.8 835.3 185.1 835.3 233.6"/><polygon class="er" points="835.3 185.1 873 185.6 873 207.1 868.5 233.6 855.3 238.6 835.3 233.6 835.3 185.1"/><path class="es" d="M873.5,169.5l3.3-.3c.8,0,1.1,0,1.1.3s-1.6,2-2.1,2.1S873,170.4,873.5,169.5Z"/><path class="et" d="M876,170.9a15.5,15.5,0,0,1,2.7-2,2.3,2.3,0,0,1,2,.4,1.5,1.5,0,0,1,.4,1.6c-.2.2-.3.8-.6,1a16.9,16.9,0,0,1-2.8,1.2C877.3,173.2,875.8,171.6,876,170.9Z"/><path class="eu" d="M877.9,172.8a7.4,7.4,0,0,1,2.2-1.1,3.3,3.3,0,0,1,2.1.4c.6.4.3,2.2,0,2.4a11.6,11.6,0,0,1-3.8.6C878,175,878.1,173,877.9,172.8Z"/><path class="ev" d="M878.6,174.9l2.8-.5c1,0,1.7.4,1.8.9s0,1.5-.3,1.6-3.2.2-3.9.6S877.9,175.3,878.6,174.9Z"/><path class="ew" d="M868.6,174.9s.6-2.8,1.7-3.8,2.3-2.2,4.2-1.2,4.1,2.8,4.1,5,1.3,2.6-.8,4.8a7.1,7.1,0,0,1-4,2.3S868.9,179.2,868.6,174.9Z"/><path class="ex" d="M867.8,174.4a22.6,22.6,0,0,1,4.1.8c1.8.7,4.6.8,4.6,4.4s.3,4.7-1.3,6.2-5.4,4.7-6.5,4.9a7.7,7.7,0,0,1-7.6-2.3c-3.3-3.3-2.2-5,.8-8.1S865.8,174.5,867.8,174.4Z"/><path class="ey" d="M848.4,157.6s4.2-.4,7.1,1.7,10.7,13.1,12.5,15.4-.6,11.2-5.5,13.4-13.4-9.1-14.1-9.9S841.6,160.5,848.4,157.6Z"/><circle class="ez" cx="712.4" cy="222.5" r="3.6"/><circle class="fa" cx="712.2" cy="222.5" r="3"/><circle class="fb" cx="712.2" cy="222.5" r="2.8"/><circle class="fc" cx="831.5" cy="226.2" r="3.6"/><circle class="fa" cx="831.3" cy="226.2" r="3"/><circle class="fd" cx="831.3" cy="226.2" r="2.8"/><polygon class="fe" points="699.6 228.4 699.4 239.7 729.3 241.2 728.9 228.9 699.6 228.4"/><polygon class="fa" points="700 228.9 700 239.2 728.5 240.4 728.1 229.5 700 228.9"/><polygon class="ff" points="700.5 229.3 700.5 238.9 727.5 240 727.1 229.9 700.5 229.3"/><path class="fg" d="M835.1,204.5c0,18.8,5.1,30.7,13.3,34.1,1.8,0,8.4-.7,10.3-2.4,5.7-5.1,8.1-17.5,8.1-31.7s-.7-26.9-6.3-32.2c-2-1.8-11-1.3-12.9-1.3C840.2,175.4,835.1,185.7,835.1,204.5Z"/><path class="fh" d="M853.8,205.3c0,14.1,1.3,26.1,4.8,26.1s6.4-11.5,6.4-25.7-1.5-27.1-5-27.1S853.8,191.1,853.8,205.3Z"/><path class="fi" d="M853.8,205.2c0,10.4.9,19.2,3.3,19.2s4.4-8.4,4.4-18.9-1.1-19.9-3.5-19.9S853.8,194.8,853.8,205.2Z"/><path class="fj" d="M853.9,201.1l5.5,1v6.6l-5.6.6v-6.7C853.8,201.8,853.9,201.3,853.9,201.1Z"/><ellipse class="el" cx="859.4" cy="205.4" rx="1.3" ry="3.3"/><path class="fk" d="M868.1,198s-1,1.1-.3,2,5.2,2,5.2,2v3s8.8-2.5,10.9-3.5,1.1-2.9,1-3.5-3.9-.4-5.5-.4l-6.4-.3A31.3,31.3,0,0,0,868.1,198Z"/><path class="fl" d="M718.7,184.7v37.5a1.8,1.8,0,0,0,1.7,1.7l99.3,2.8a1.8,1.8,0,0,0,1.8-1.7l.8-40.3a1.7,1.7,0,0,0-1.7-1.7H720.5A1.7,1.7,0,0,0,718.7,184.7Z"/><path class="fm" d="M720.8,186.2v34.9a1.3,1.3,0,0,0,1.2,1.3l96.2,2.5a1.2,1.2,0,0,0,1.3-1.2l.8-37.4a1.3,1.3,0,0,0-1.2-1.3H722A1.2,1.2,0,0,0,720.8,186.2Z"/><path class="fn" d="M724.9,190v26.2c0,.5.5.9,1.1,1l88.5,3.1a1,1,0,0,0,1.1-.9l.5-29.4c.1-.5-.4-1-1.1-1H726A1.1,1.1,0,0,0,724.9,190Z"/><path class="fo" d="M724.6,222.4s-.1,2.3.3,2.5,9.6.9,10.4.6-.6-1.4-.5-2.8Z"/><path class="fp" d="M802.1,224.5s0,2.4.4,2.6,9.5.9,10.4.6-.5-1.6-.4-2.9Z"/><path class="fq" d="M713.6,183.9s-2.7-7.9,2.4-7.7,111.5,0,111.5,0,3,1.1,3.7,8.8Z"/><path class="fr" d="M768.7,176.5a24.7,24.7,0,0,1,4.3,1.1c.4.5,1.3.2,1.6-.2a2.7,2.7,0,0,0,.4-1.3,9,9,0,0,0-2-1,16.1,16.1,0,0,0-4-.5A1.9,1.9,0,0,0,768.7,176.5Z"/><path class="fs" d="M767.8,177.4a8.1,8.1,0,0,1,2.5.5,5,5,0,0,1,1.5.9c.2.2,1.4,0,1.5-.7a1.2,1.2,0,0,0-.3-1.2l-4.1-1.5C768.7,175.4,767.3,176.3,767.8,177.4Z"/><path class="ft" d="M762.8,177.9l2.1,2a2.2,2.2,0,0,0,2.1.6c.7-.2.6-1,.3-1.1a5.3,5.3,0,0,1-1.3-1.3S763.5,176.2,762.8,177.9Z"/><path class="fu" d="M761.5,172.7s4.7.8,5.5.8,3.2,0,3.1,1-2.6,3.6-4.3,3.6-8.2-1.9-9.3-2.6,1.7-.2.6-.7S759.6,171.9,761.5,172.7Z"/><path class="fv" d="M762.7,160.9s.3.3-.3,2.5-.2,3.4.3,5.6.2,3.8-.4,4.7a7.1,7.1,0,0,1-5.4,2.5c-2.3-.1-3.6-4.4-3.4-6.4s-.8-6.5-.8-8.2,0-6.1,1.2-6.2S760.9,156.8,762.7,160.9Z"/><path class="fw" d="M765,136.9s4.6,4.7,4.7,7.8-1.9,9.6-3.4,11.2-3.6,4.5-3.7,5.3-2.7,2.1-5.6,1.2-3.7-4-3.5-5.7,3.9-10.4,4.1-12.6,1.8-5.6,3.2-6.2S762.3,135.7,765,136.9Z"/><path class="fx" d="M883.9,201.5c2-1,1.1-2.9,1-3.5s-3.9-.4-5.5-.4l-6.4-.3v-9.5l2.2-2c1.4-1.3,1.4-2.4,1.3-5a6.9,6.9,0,0,0,1.3-1.1c1-1,1.2-1.6,1.2-2.2h0c.7-.4,3.5-.4,3.9-.6s.4-1.1.3-1.6a1.2,1.2,0,0,0-1-.8h0c.3-.2.6-2,0-2.4a3.8,3.8,0,0,0-1.5-.5c.2-.2.2-.6.4-.7a1.5,1.5,0,0,0-.4-1.6,2.3,2.3,0,0,0-2-.4l-.8.5c-.1-.2-.4-.2-1.1-.2l-3.3.3h0c-1.3-.1-2.2.8-3.2,1.6a7.5,7.5,0,0,0-1.6,3.4h-.9l-3.8-5c-.3-16.7-.8-41.5-.9-46-.2-6.8-3.7-6-3.7-6H842.6a24.1,24.1,0,0,0-11.9-4.7,23.3,23.3,0,0,0-17.1,5l-32.7.3A18,18,0,0,0,767,103.2c-9.7-2.3-19.3,3.3-21.6,12.7a17.2,17.2,0,0,0,2,12.6l-.6.4-7.4-1.9h0l-1-1.3-5.5-1.3-.9.8a3.4,3.4,0,0,0-3.9,2.8L726,146.2l-1.4.9c-.7.4-2.5.9-3.7,1.6h0a10,10,0,0,0-4.4,1.5c-.9.7-5.3,5.4-5.9,8.2s-1.6,14.4-1.2,16.2a2.6,2.6,0,0,0,1.5,2h0c-.1.9-.1,3.8-1,4.8h-.1a10.3,10.3,0,0,0-2,1.1,2.6,2.6,0,0,0-.6,1.4h-2.4v44.7h-5.2l-.2,11.3,17.1.9a86.6,86.6,0,0,0-.4,9.2c0,19.2,5.1,31.3,13.6,34.8,1.8,0,8.5-.6,10.5-2.4,5-4.4,7.4-14.1,8.1-25.7,3.1,1.1,10.9,3.1,15.5-.5s9.6-3.8,11.6-2.1,8.6,11.6,25.1,5.1c12.6-4.9,21.3-4.5,24.7-4.1.1,19.2,5.2,31.2,13.6,34.7,1.9,0,8.6-.6,10.5-2.4,5.9-5.2,8.3-18,8.3-32.4,0-6-.1-11.7-.6-16.9l4.6-1.7c.8,10.8,4.3,17.6,9.5,19.8,1.3,0,6.1-.5,7.5-1.7,4.2-3.8,5.9-12.8,5.9-23.1s-.5-19.6-4.6-23.4c-1-1-4.5-1-6.9-1V205S881.8,202.5,883.9,201.5Zm-26.3-49.6a1.3,1.3,0,0,1-.7.5h0A1.3,1.3,0,0,0,857.6,151.9Zm-50.7-1.2-.5.7Zm48.1,1.9h0Zm-8.4-.1h0Zm-40.6-.9h0Zm-84.8,13.6a37.7,37.7,0,0,0,3-4l-1.5,12.6a3.6,3.6,0,0,0,.6,2.5h-5.9a2.1,2.1,0,0,0,.5-1.2C718.1,173.7,718.9,167.7,721.2,165.2Z"/><path class="fy" d="M883.9,201.5c2-1,1.1-2.9,1-3.5s-3.9-.4-5.5-.4l-6.4-.3v-9.5l2.2-2c1.4-1.3,1.4-2.4,1.3-5a6.9,6.9,0,0,0,1.3-1.1c1-1,1.2-1.6,1.2-2.2h0c.7-.4,3.5-.4,3.9-.6s.4-1.1.3-1.6a1.2,1.2,0,0,0-1-.8h0c.3-.2.6-2,0-2.4a3.8,3.8,0,0,0-1.5-.5c.2-.2.2-.6.4-.7a1.5,1.5,0,0,0-.4-1.6,2.3,2.3,0,0,0-2-.4l-.8.5c-.1-.2-.4-.2-1.1-.2l-3.3.3h0c-1.3-.1-2.2.8-3.2,1.6a7.5,7.5,0,0,0-1.6,3.4h-.9l-3.8-5c-.3-16.7-.8-41.5-.9-46-.2-6.8-3.7-6-3.7-6H842.6a24.1,24.1,0,0,0-11.9-4.7,23.3,23.3,0,0,0-17.1,5l-32.7.3A18,18,0,0,0,767,103.2c-9.7-2.3-19.3,3.3-21.6,12.7a17.2,17.2,0,0,0,2,12.6l-.6.4-7.4-1.9h0l-1-1.3-5.5-1.3-.9.8a3.4,3.4,0,0,0-3.9,2.8L726,146.2l-1.4.9c-.7.4-2.5.9-3.7,1.6h0a10,10,0,0,0-4.4,1.5c-.9.7-5.3,5.4-5.9,8.2s-1.6,14.4-1.2,16.2a2.6,2.6,0,0,0,1.5,2h0c-.1.9-.1,3.8-1,4.8h-.1a10.3,10.3,0,0,0-2,1.1,2.6,2.6,0,0,0-.6,1.4h-2.4v44.7h-5.2l-.2,11.3,17.1.9a86.6,86.6,0,0,0-.4,9.2c0,19.2,5.1,31.3,13.6,34.8,1.8,0,8.5-.6,10.5-2.4,5-4.4,7.4-14.1,8.1-25.7,3.1,1.1,10.9,3.1,15.5-.5s9.6-3.8,11.6-2.1,8.6,11.6,25.1,5.1c12.6-4.9,21.3-4.5,24.7-4.1.1,19.2,5.2,31.2,13.6,34.7,1.9,0,8.6-.6,10.5-2.4,5.9-5.2,8.3-18,8.3-32.4,0-6-.1-11.7-.6-16.9l4.6-1.7c.8,10.8,4.3,17.6,9.5,19.8,1.3,0,6.1-.5,7.5-1.7,4.2-3.8,5.9-12.8,5.9-23.1s-.5-19.6-4.6-23.4c-1-1-4.5-1-6.9-1V205S881.8,202.5,883.9,201.5Zm-26.3-49.6a1.3,1.3,0,0,1-.7.5h0A1.3,1.3,0,0,0,857.6,151.9Zm-50.7-1.2-.5.7Zm48.1,1.9h0Zm-8.4-.1h0Zm-40.6-.9h0Zm-84.8,13.6a37.7,37.7,0,0,0,3-4l-1.5,12.6a3.6,3.6,0,0,0,.6,2.5h-5.9a2.1,2.1,0,0,0,.5-1.2C718.1,173.7,718.9,167.7,721.2,165.2Z"/><ellipse class="fz" cx="713.3" cy="234.3" rx="13.4" ry="36.2" transform="translate(445.9 935.8) rotate(-87.3)"/><ellipse class="ga" cx="712.4" cy="222.4" rx="11.7" ry="11.4" transform="translate(456.8 923.6) rotate(-87.3)"/><rect class="gb" x="-364.7" y="-0.1" width="982.9" height="306.46"/><ellipse class="gc" cx="831.6" cy="226.7" rx="11.7" ry="11.4" transform="translate(566.1 1046.7) rotate(-87.3)"/></g></g></svg>