<svg xmlns="http://www.w3.org/2000/svg" xmlns:xlink="http://www.w3.org/1999/xlink" viewBox="0 0 1200 300"><defs><style>.a{mask:url(#a);filter:url(#o);}.b,.d{mix-blend-mode:multiply;}.b{fill:url(#c);}.c{mask:url(#d);filter:url(#r);}.d{fill:url(#f);}.e{fill:none;}.bw,.ce,.db,.f{isolation:isolate;}.g{clip-path:url(#g);}.h{fill:#66cae9;}.i{fill:url(#h);}.j{fill:url(#i);}.k{fill:url(#j);}.l{fill:url(#k);}.m{fill:url(#l);}.n{fill:url(#m);}.o{mask:url(#n);}.p,.r{mix-blend-mode:overlay;}.bg,.bh,.cf,.dc,.p,.r{opacity:0.5;}.p{fill:url(#p);}.q{mask:url(#q);}.r{fill:url(#s);}.s,.t{opacity:0.18;}.s{fill:url(#t);}.t{fill:url(#u);}.u{fill:#7a995b;}.v{fill:#5b4940;}.w{fill:#cea67c;}.x{fill:#e0b892;}.y{fill:#604848;}.z{fill:#896b4a;}.aa{fill:#d1a969;}.ab{fill:#756149;}.ac{fill:url(#v);}.ad{fill:#b2b19e;}.ae{fill:#889097;}.af{fill:url(#w);}.ag{fill:url(#x);}.ah{fill:url(#y);}.ai{fill:#704e48;}.aj{fill:#602b2b;fill-rule:evenodd;opacity:0.6;}.ak{fill:#493642;}.al{fill:url(#z);}.am{fill:url(#aa);}.an{fill:url(#ab);}.ao{fill:url(#ac);}.ap{fill:url(#ad);}.aq{fill:url(#ae);}.ar{fill:url(#af);}.as{fill:url(#ag);}.at{fill:url(#ah);}.au{fill:url(#ai);}.av{fill:url(#aj);}.aw{fill:url(#ak);}.ax{fill:url(#al);}.ay{fill:url(#am);}.az{fill:url(#an);}.ba{fill:url(#ao);}.bb{fill:url(#ap);}.bc{fill:url(#aq);}.bd{fill:url(#ar);}.be{fill:url(#as);}.bf{fill:url(#at);}.bg{fill:url(#au);}.bh{fill:url(#av);}.bi{fill:#594337;}.bj{fill:#edb6a4;}.bk{fill:#7f5c55;}.bl{fill:#5b423f;}.bm{fill:url(#aw);}.bn{fill:url(#ax);}.bo{fill:url(#ay);}.bp{fill:url(#az);}.bq,.br{opacity:0.25;}.bq{fill:url(#ba);}.br{fill:#fffcfa;}.bs{fill:url(#bb);}.bt{fill:url(#bc);}.bu{fill:url(#bd);}.bv{fill:url(#be);}.bw,.ce,.db{opacity:0.35;}.bw{fill:url(#bf);}.bx{fill:url(#bg);}.by{fill:url(#bh);}.bz{fill:url(#bi);}.ca{fill:url(#bj);}.cb{fill:url(#bk);}.cc{fill:url(#bl);}.cd{fill:url(#bm);}.ce{fill:url(#bn);}.cf{fill:url(#bo);}.cg{fill:#fff;}.ch{fill:url(#bp);}.ci{fill:url(#bq);}.cj{fill:url(#br);}.ck{fill:url(#bs);}.cl{fill:url(#bt);}.cm{fill:url(#bu);}.cn{fill:url(#bv);}.co{fill:url(#bw);}.cp{fill:url(#bx);}.cq{fill:url(#by);}.cr{fill:url(#bz);}.cs{fill:url(#ca);}.ct{fill:url(#cb);}.cu{fill:url(#cc);}.cv{fill:url(#cd);}.cw{fill:url(#ce);}.cx{fill:url(#cf);}.cy{fill:url(#cg);}.cz{fill:url(#ch);}.da{fill:url(#ci);}.db{fill:url(#cj);}.dc{fill:url(#ck);}.dd{fill:url(#cl);}.de{fill:url(#cm);}.df{fill:url(#cn);}.dg{fill:url(#co);}.dh{fill:url(#cp);}.di{fill:url(#cq);}.dj{fill:url(#cr);}.dk{fill:url(#cs);}.dl{fill:url(#ct);}.dm{fill:url(#cu);}.dn{fill:url(#cv);}.do{fill:url(#cw);}.dp{fill:url(#cx);}.dq{fill:url(#cy);}.dr{fill:url(#cz);}.ds{fill:url(#da);}.dt{fill:url(#db);}.du{fill:#79868e;}.dv{fill:url(#dc);}.dw{fill:url(#dd);}.dx{fill:url(#de);}.dy{fill:url(#df);}.dz{fill:url(#dg);}.ea{fill:url(#dh);}.eb{fill:url(#di);}.ec{fill:url(#dj);}.ed{fill:url(#dk);}.ee{fill:url(#dl);}.ef{fill:url(#dm);}.eg{fill:url(#dn);}.eh{fill:url(#do);}.ei{fill:url(#dp);}.ej{fill:#5b5959;}.ek{fill:url(#dq);}.el{fill:url(#dr);}.em{fill:url(#ds);}.en{fill:url(#dt);}.eo{fill:url(#du);}.ep{fill:url(#dv);}.eq{fill:url(#dw);}.er{fill:url(#dx);}.es{fill:url(#dy);}.et{fill:url(#dz);}.eu{fill:url(#ea);}.ev{fill:url(#eb);}.ew{opacity:0.62;fill:url(#ec);}.ex{fill:url(#ed);}.ey{fill:url(#ee);}.ez{fill:url(#ef);}.fa{fill:url(#eg);}.fb{fill:url(#eh);}.fc{fill:url(#ei);}.fd{fill:url(#ej);}.fe{fill:url(#ek);}.ff{fill:url(#el);}.fg{fill:url(#em);}.fh{filter:url(#e);}.fi{filter:url(#b);}</style><filter id="b" x="423.04" y="-8342" width="783.16" height="32766" filterUnits="userSpaceOnUse" color-interpolation-filters="sRGB"><feFlood flood-color="#fff" result="bg"/><feBlend in="SourceGraphic" in2="bg"/></filter><mask id="a" x="423.04" y="-8342" width="783.16" height="32766" maskUnits="userSpaceOnUse"><g class="fi"/></mask><linearGradient id="c" x1="5333.27" y1="260.56" x2="4553.04" y2="260.56" gradientTransform="matrix(-1, -0.06, -0.06, 1, 5773.12, 229.38)" gradientUnits="userSpaceOnUse"><stop offset="0"/><stop offset="1" stop-color="#fff"/></linearGradient><filter id="e" x="423.48" y="-8342" width="784.47" height="32766" filterUnits="userSpaceOnUse" color-interpolation-filters="sRGB"><feFlood flood-color="#fff" result="bg"/><feBlend in="SourceGraphic" in2="bg"/></filter><mask id="d" x="423.48" y="-8342" width="784.47" height="32766" maskUnits="userSpaceOnUse"><g class="fh"/></mask><linearGradient id="f" x1="2760.14" y1="274.36" x2="1979.13" y2="274.36" gradientTransform="matrix(-1, -0.03, -0.06, 1, 3206.92, -8.04)" gradientUnits="userSpaceOnUse"><stop offset="0" stop-color="#fff"/><stop offset="1"/></linearGradient><clipPath id="g"><rect class="e" width="1200" height="300"/></clipPath><radialGradient id="h" cx="868.93" cy="11.58" r="138.11" gradientUnits="userSpaceOnUse"><stop offset="0.01" stop-color="#f39200"/><stop offset="0.21" stop-color="#f6af45" stop-opacity="0.73"/><stop offset="0.42" stop-color="#f9cb87" stop-opacity="0.47"/><stop offset="0.61" stop-color="#fce2ba" stop-opacity="0.27"/><stop offset="0.78" stop-color="#fef2e0" stop-opacity="0.12"/><stop offset="0.91" stop-color="#fffbf7" stop-opacity="0.03"/><stop offset="1" stop-color="#fff" stop-opacity="0"/></radialGradient><radialGradient id="i" cx="868.93" cy="11.58" r="54.37" gradientTransform="translate(677.4 -836.1) rotate(76.5)" gradientUnits="userSpaceOnUse"><stop offset="0.01" stop-color="#f39200"/><stop offset="0.05" stop-color="#f5a62f" stop-opacity="0.81"/><stop offset="0.09" stop-color="#f7b95a" stop-opacity="0.65"/><stop offset="0.14" stop-color="#f9ca82" stop-opacity="0.49"/><stop offset="0.19" stop-color="#fbd8a4" stop-opacity="0.36"/><stop offset="0.25" stop-color="#fce4c1" stop-opacity="0.24"/><stop offset="0.32" stop-color="#fdeed8" stop-opacity="0.15"/><stop offset="0.39" stop-color="#fef6e9" stop-opacity="0.08"/><stop offset="0.49" stop-color="#fffbf6" stop-opacity="0.04"/><stop offset="0.63" stop-color="#fffefd" stop-opacity="0.01"/><stop offset="1" stop-color="#fff" stop-opacity="0"/></radialGradient><linearGradient id="j" x1="868.93" y1="49.92" x2="868.93" y2="-26.76" gradientTransform="translate(742.8 -848.2) rotate(80.9)" gradientUnits="userSpaceOnUse"><stop offset="0" stop-color="#fcea10"/><stop offset="0.63" stop-color="#fac328"/><stop offset="0.99" stop-color="#f9b233"/></linearGradient><linearGradient id="k" x1="827.68" y1="8.59" x2="827.68" y2="148.16" gradientUnits="userSpaceOnUse"><stop offset="0" stop-color="#f8f4c7" stop-opacity="0.3"/><stop offset="1" stop-color="#f8f4c7" stop-opacity="0"/></linearGradient><linearGradient id="l" x1="1006.11" y1="4.11" x2="1006.11" y2="54.44" gradientUnits="userSpaceOnUse"><stop offset="0" stop-color="#f8f4c7" stop-opacity="0.2"/><stop offset="1" stop-color="#f8f4c7" stop-opacity="0"/></linearGradient><linearGradient id="m" x1="2376.28" y1="355.92" x2="2376.28" y2="241.99" gradientTransform="matrix(-1, -0.06, -0.06, 1, 3204.97, 85.6)" gradientUnits="userSpaceOnUse"><stop offset="0" stop-color="#ccad6e"/><stop offset="1" stop-color="#e2bf81"/></linearGradient><filter id="o" x="423.04" y="197.85" width="783.67" height="23.36" filterUnits="userSpaceOnUse" color-interpolation-filters="sRGB"><feFlood flood-color="#fff" result="bg"/><feBlend in="SourceGraphic" in2="bg"/></filter><mask id="n" x="423.04" y="197.85" width="783.67" height="23.36" maskUnits="userSpaceOnUse"><g class="a"><path class="b" d="M1206.2,208.9l-75.8-8.2a517.2,517.2,0,0,0-107-.2l-7.6.8a473.1,473.1,0,0,1-84.9,1.3l-29.5-2.3c-113.5-8.9-131.2,11.7-254,6.9-12.3-.4-57.8-1.9-69.6-1.4l-70.4,3a275.6,275.6,0,0,1-55.2-2.8l-28.1-4.5L423,221.2l118.1-5a1097.7,1097.7,0,0,1,124,2.1h0a373.1,373.1,0,0,0,53.9-.1l91.4-6.9a439.3,439.3,0,0,1,53.9-.6l150.9,8h.2a304.9,304.9,0,0,0,41.7-.9c44.9-4,92.5-6,148.5,1.8Z"/></g></mask><linearGradient id="p" x1="5333.26" y1="260.56" x2="4551.91" y2="260.56" gradientTransform="matrix(-1, -0.06, -0.06, 1, 5773.12, 229.38)" gradientUnits="userSpaceOnUse"><stop offset="0" stop-color="#fff"/><stop offset="1" stop-color="#fff"/></linearGradient><filter id="r" x="423.48" y="185.24" width="784.47" height="42.94" filterUnits="userSpaceOnUse" color-interpolation-filters="sRGB"><feFlood flood-color="#fff" result="bg"/><feBlend in="SourceGraphic" in2="bg"/></filter><mask id="q" x="423.48" y="185.24" width="784.47" height="42.94" maskUnits="userSpaceOnUse"><g class="c"><path class="d" d="M423.5,221.1l47.2,5.4a299.3,299.3,0,0,0,73.7-1.3l5.7-.8a325.3,325.3,0,0,1,65.6-2.5l24.5,1.5c102.8,6.8,120.2-13.9,253.1-12.5,14.6.2,71,.5,86.3-.4l96.9-6a533.4,533.4,0,0,1,84.1,1.5l45.9,4.7,1.5-25.5-179.3,11.9a1552.5,1552.5,0,0,1-156,2.5h0a439.1,439.1,0,0,0-59.7,2l-91.6,9.6a386.7,386.7,0,0,1-49.1,1.9l-121.7-3.6h-.2a175.9,175.9,0,0,0-30,1.7c-30.8,4.2-61.9,6.7-96.5,1.6Z"/></g></mask><linearGradient id="s" x1="2760.14" y1="274.38" x2="1978.95" y2="274.38" gradientTransform="matrix(-1, -0.03, -0.06, 1, 3206.92, -8.04)" xlink:href="#p"/><linearGradient id="t" x1="927.04" y1="201.86" x2="941.08" y2="403.42" gradientUnits="userSpaceOnUse"><stop offset="0.16" stop-color="#1d1d1b"/><stop offset="0.61" stop-color="#1d1d1b"/><stop offset="0.75" stop-color="#1d1d1b" stop-opacity="0.84"/><stop offset="0.92" stop-color="#1d1d1b" stop-opacity="0.36"/><stop offset="1" stop-color="#1d1d1b" stop-opacity="0"/></linearGradient><linearGradient id="u" x1="1153.63" y1="186.06" x2="1167.67" y2="387.62" xlink:href="#t"/><linearGradient id="v" x1="3131.8" y1="110.17" x2="3134.98" y2="88.6" gradientTransform="translate(4299.2 301) rotate(180)" gradientUnits="userSpaceOnUse"><stop offset="0" stop-color="#889097"/><stop offset="1" stop-color="#4c5963"/></linearGradient><linearGradient id="w" x1="3133.11" y1="96.66" x2="3133.95" y2="90.95" xlink:href="#v"/><linearGradient id="x" x1="1647.67" y1="108.73" x2="1650.84" y2="87.17" gradientTransform="matrix(1, 0, 0, -1, -746.9, 301)" xlink:href="#v"/><linearGradient id="y" x1="1648.98" y1="95.23" x2="1649.82" y2="89.52" gradientTransform="matrix(1, 0, 0, -1, -746.9, 301)" xlink:href="#v"/><linearGradient id="z" x1="936.2" y1="96.97" x2="936.2" y2="94.29" gradientUnits="userSpaceOnUse"><stop offset="0.45" stop-color="#7f5c55"/><stop offset="0.59" stop-color="#7b5954"/><stop offset="0.75" stop-color="#6e504f"/><stop offset="0.91" stop-color="#594148"/><stop offset="1" stop-color="#493642"/></linearGradient><linearGradient id="aa" x1="917.19" y1="156.45" x2="917.19" y2="151.75" gradientUnits="userSpaceOnUse"><stop offset="0.18" stop-color="#7f5c55"/><stop offset="0.4" stop-color="#7b5954"/><stop offset="0.63" stop-color="#6e504f"/><stop offset="0.86" stop-color="#594148"/><stop offset="1" stop-color="#493642"/></linearGradient><linearGradient id="ab" x1="936.2" y1="35.4" x2="936.2" y2="37.85" gradientUnits="userSpaceOnUse"><stop offset="0" stop-color="#7f5c55"/><stop offset="0.51" stop-color="#7d5b54"/><stop offset="0.69" stop-color="#765652"/><stop offset="0.82" stop-color="#6b4e4e"/><stop offset="0.93" stop-color="#5a4248"/><stop offset="1" stop-color="#493642"/></linearGradient><linearGradient id="ac" x1="1135.7" y1="96.97" x2="1135.7" y2="94.29" xlink:href="#z"/><linearGradient id="ad" x1="1151.4" y1="156.36" x2="1151.4" y2="151.74" xlink:href="#aa"/><linearGradient id="ae" x1="1135.7" y1="35.4" x2="1135.7" y2="37.85" xlink:href="#ab"/><linearGradient id="af" x1="1037.17" y1="212.83" x2="1035.18" y2="163.43" gradientUnits="userSpaceOnUse"><stop offset="0" stop-color="#fad643"/><stop offset="0.06" stop-color="#fbd849"/><stop offset="0.14" stop-color="#fcdc59"/><stop offset="0.23" stop-color="#fee474"/><stop offset="0.25" stop-color="#ffe67b"/><stop offset="0.28" stop-color="#f4d86b"/><stop offset="0.35" stop-color="#e5c655"/><stop offset="0.43" stop-color="#dab844"/><stop offset="0.52" stop-color="#d2ad38"/><stop offset="0.65" stop-color="#cda831"/><stop offset="1" stop-color="#cca62f"/></linearGradient><linearGradient id="ag" x1="994.73" y1="37.79" x2="1073.54" y2="37.79" gradientUnits="userSpaceOnUse"><stop offset="0" stop-color="#fad643"/><stop offset="0.1" stop-color="#fbd849"/><stop offset="0.23" stop-color="#fcdc59"/><stop offset="0.37" stop-color="#fee474"/><stop offset="0.4" stop-color="#ffe67b"/><stop offset="1" stop-color="#cca62f"/></linearGradient><linearGradient id="ah" x1="2100.38" y1="80.41" x2="2135.71" y2="79.05" gradientTransform="matrix(-1, 0, 0, 1, 3112.6, 0)" gradientUnits="userSpaceOnUse"><stop offset="0" stop-color="#603813"/><stop offset="0.18" stop-color="#663e18"/><stop offset="0.4" stop-color="#754c24"/><stop offset="1" stop-color="#42210b"/></linearGradient><linearGradient id="ai" x1="924.39" y1="154.76" x2="1098.84" y2="-11" gradientUnits="userSpaceOnUse"><stop offset="0" stop-color="#805b10"/><stop offset="0.03" stop-color="#896319"/><stop offset="0.11" stop-color="#9e742c"/><stop offset="0.19" stop-color="#ab7e38"/><stop offset="0.27" stop-color="#af823c"/><stop offset="0.61" stop-color="#916922"/></linearGradient><linearGradient id="aj" x1="1055.97" y1="80.41" x2="1091.31" y2="79.05" gradientTransform="matrix(1, 0, 0, 1, 0, 0)" xlink:href="#ah"/><linearGradient id="ak" x1="1148.67" y1="148.64" x2="986.88" y2="19.43" xlink:href="#ai"/><linearGradient id="al" x1="930.35" y1="176.01" x2="973.48" y2="173.7" xlink:href="#ag"/><linearGradient id="am" x1="1115.89" y1="175.77" x2="1154.71" y2="174.28" xlink:href="#ag"/><linearGradient id="an" x1="1022.73" y1="53.39" x2="1049.34" y2="53.39" xlink:href="#ai"/><linearGradient id="ao" x1="1034.13" y1="42.15" x2="1034.13" y2="64.33" gradientUnits="userSpaceOnUse"><stop offset="0" stop-color="#273b4d"/><stop offset="1" stop-color="#634845"/></linearGradient><linearGradient id="ap" x1="1022.73" y1="89.46" x2="1049.34" y2="89.46" xlink:href="#ai"/><linearGradient id="aq" x1="1034.13" y1="78.22" x2="1034.13" y2="100.4" xlink:href="#ao"/><linearGradient id="ar" x1="1034.05" y1="164.72" x2="1034.46" y2="105.35" gradientUnits="userSpaceOnUse"><stop offset="0" stop-color="#c9c9c8"/><stop offset="0.2" stop-color="#f0f0ef"/><stop offset="0.3" stop-color="#fff"/><stop offset="1" stop-color="#c9c9c8"/></linearGradient><linearGradient id="as" x1="1034.34" y1="116.61" x2="1033.97" y2="182.56" gradientTransform="matrix(1, 0, 0, 1, 0, 0)" xlink:href="#ah"/><linearGradient id="at" x1="1034.05" y1="164.73" x2="1034.46" y2="106.5" xlink:href="#ai"/><linearGradient id="au" x1="1025.88" y1="56.45" x2="1054.58" y2="41.14" gradientUnits="userSpaceOnUse"><stop offset="0.04" stop-color="#a2e6ed"/><stop offset="0.19" stop-color="#85d7e5"/><stop offset="0.37" stop-color="#68c9de"/><stop offset="0.47" stop-color="#5dc3db"/><stop offset="0.55" stop-color="#5bbfd7"/><stop offset="0.64" stop-color="#55b2cb"/><stop offset="0.73" stop-color="#4b9db6"/><stop offset="0.82" stop-color="#3d809a"/><stop offset="0.89" stop-color="#30657f"/></linearGradient><linearGradient id="av" x1="1025.88" y1="92.53" x2="1054.58" y2="77.21" xlink:href="#au"/><linearGradient id="aw" x1="3105.07" y1="113.4" x2="3111.96" y2="66.59" xlink:href="#v"/><linearGradient id="ax" x1="3107.94" y1="84.09" x2="3109.77" y2="71.69" xlink:href="#v"/><linearGradient id="ay" x1="1672.91" y1="113.4" x2="1679.81" y2="66.59" gradientTransform="matrix(1, 0, 0, -1, -800, 301)" xlink:href="#v"/><linearGradient id="az" x1="1675.78" y1="84.09" x2="1677.61" y2="71.69" gradientTransform="matrix(1, 0, 0, -1, -800, 301)" xlink:href="#v"/><linearGradient id="ba" x1="803.98" y1="228.36" x2="770.74" y2="329.72" gradientUnits="userSpaceOnUse"><stop offset="0" stop-color="#1d1d1b" stop-opacity="0"/><stop offset="0.16" stop-color="#1d1d1b"/><stop offset="0.61" stop-color="#1d1d1b"/><stop offset="0.75" stop-color="#1d1d1b" stop-opacity="0.84"/><stop offset="0.92" stop-color="#1d1d1b" stop-opacity="0.36"/><stop offset="1" stop-color="#1d1d1b" stop-opacity="0"/></linearGradient><linearGradient id="bb" x1="870.9" y1="177.85" x2="861.83" y2="178.65" gradientUnits="userSpaceOnUse"><stop offset="0" stop-color="#50c6ef"/><stop offset="0.24" stop-color="#33b3db"/><stop offset="0.64" stop-color="#3fbff2"/><stop offset="0.93" stop-color="#50c6ef"/></linearGradient><linearGradient id="bc" x1="863.69" y1="146.33" x2="744.14" y2="156.9" gradientUnits="userSpaceOnUse"><stop offset="0" stop-color="#f9b233"/><stop offset="0.24" stop-color="#efbb48"/><stop offset="0.64" stop-color="#e29823"/><stop offset="0.94" stop-color="#f9b233"/></linearGradient><linearGradient id="bd" x1="801.92" y1="158.04" x2="792.53" y2="199.52" gradientUnits="userSpaceOnUse"><stop offset="0" stop-color="#f9b233"/><stop offset="0.12" stop-color="#e5a82e"/><stop offset="0.64" stop-color="#c47b12"/><stop offset="0.94" stop-color="#f9b233"/></linearGradient><linearGradient id="be" x1="934.71" y1="230.88" x2="962.7" y2="230.88" gradientTransform="translate(-112.1 -283.9) rotate(11.8)" gradientUnits="userSpaceOnUse"><stop offset="0" stop-color="#a16552"/><stop offset="0.2" stop-color="#935848"/><stop offset="0.5" stop-color="#935848"/><stop offset="0.6" stop-color="#9c604e"/><stop offset="0.73" stop-color="#a16552"/><stop offset="1" stop-color="#966444"/></linearGradient><linearGradient id="bf" x1="4671.66" y1="-55.41" x2="4685.78" y2="-55.41" gradientTransform="matrix(-0.99, -0.15, -0.15, 0.99, 5395.37, 884.71)" gradientUnits="userSpaceOnUse"><stop offset="0" stop-color="#4e3f3f"/><stop offset="0.44" stop-color="#4e3f3f" stop-opacity="0.7"/><stop offset="0.74" stop-color="#4e3f3f" stop-opacity="0.2"/><stop offset="0.91" stop-color="#4e3f3f" stop-opacity="0"/></linearGradient><linearGradient id="bg" x1="767.53" y1="149.7" x2="767.79" y2="147.38" gradientUnits="userSpaceOnUse"><stop offset="0.1" stop-color="#6b3930"/><stop offset="0.45" stop-color="#774338"/><stop offset="0.79" stop-color="#7c483c"/></linearGradient><linearGradient id="bh" x1="758.19" y1="150.54" x2="775.72" y2="150.54" gradientUnits="userSpaceOnUse"><stop offset="0" stop-color="#e6e6e6"/><stop offset="0.41" stop-color="#e6e6e6"/><stop offset="0.54" stop-color="#ededed"/><stop offset="0.73" stop-color="#f2f2f2"/><stop offset="1" stop-color="#fff"/></linearGradient><linearGradient id="bi" x1="756.81" y1="187.13" x2="768.47" y2="157.43" gradientUnits="userSpaceOnUse"><stop offset="0" stop-color="#012a4a"/><stop offset="0.32" stop-color="#012a4a"/><stop offset="0.39" stop-color="#012d4f"/><stop offset="0.66" stop-color="#01375e"/><stop offset="0.88" stop-color="#013a63"/><stop offset="1" stop-color="#013a63"/></linearGradient><linearGradient id="bj" x1="783.24" y1="178.4" x2="784.45" y2="161.43" gradientUnits="userSpaceOnUse"><stop offset="0" stop-color="#012a4a"/><stop offset="0.41" stop-color="#012a4a"/><stop offset="0.45" stop-color="#012d4f"/><stop offset="0.6" stop-color="#01375e"/><stop offset="0.73" stop-color="#013a63"/><stop offset="1" stop-color="#013a63"/></linearGradient><linearGradient id="bk" x1="754.48" y1="168.63" x2="754.23" y2="176.15" gradientUnits="userSpaceOnUse"><stop offset="0" stop-color="#8c6b3e"/><stop offset="0.46" stop-color="#8a683d"/><stop offset="0.8" stop-color="#825e38"/><stop offset="1" stop-color="#7a5534"/></linearGradient><linearGradient id="bl" x1="767.26" y1="175.83" x2="773.86" y2="175.83" gradientUnits="userSpaceOnUse"><stop offset="0" stop-color="#fff"/><stop offset="1" stop-color="#c9c9c8"/></linearGradient><linearGradient id="bm" x1="970" y1="223.01" x2="997.99" y2="223.01" gradientTransform="translate(-138.3 -338.5) rotate(14.2)" xlink:href="#be"/><linearGradient id="bn" x1="4635.98" y1="-61.27" x2="4650.1" y2="-61.27" gradientTransform="matrix(-0.98, -0.19, -0.19, 0.98, 5313.68, 1066.64)" xlink:href="#bf"/><linearGradient id="bo" x1="1569.71" y1="215.78" x2="1611.04" y2="217.05" gradientTransform="matrix(-0.97, -0.23, -0.23, 0.97, 2355.26, 276.21)" gradientUnits="userSpaceOnUse"><stop offset="0.04" stop-color="#bbe8ef"/><stop offset="0.07" stop-color="#b5e5ee"/><stop offset="0.25" stop-color="#85d3e4"/><stop offset="0.39" stop-color="#68c7dd"/><stop offset="0.47" stop-color="#5dc3db"/><stop offset="0.55" stop-color="#5bbfd7"/><stop offset="0.64" stop-color="#55b2cb"/><stop offset="0.73" stop-color="#4b9db6"/><stop offset="0.82" stop-color="#3d809a"/><stop offset="0.89" stop-color="#30657f"/></linearGradient><linearGradient id="bp" x1="743.15" y1="130.46" x2="793.81" y2="133.19" gradientUnits="userSpaceOnUse"><stop offset="0.04" stop-color="#878787"/><stop offset="0.1" stop-color="#838383"/><stop offset="0.16" stop-color="#767676"/><stop offset="0.22" stop-color="#626261"/><stop offset="0.28" stop-color="#454544"/><stop offset="0.29" stop-color="#3c3c3b"/><stop offset="0.34" stop-color="#40403f"/><stop offset="0.38" stop-color="#4d4d4c"/><stop offset="0.43" stop-color="#626261"/><stop offset="0.47" stop-color="#7f7f7e"/><stop offset="0.52" stop-color="#a4a4a3"/><stop offset="0.55" stop-color="#c9c9c8"/><stop offset="0.74" stop-color="#878787"/></linearGradient><radialGradient id="bq" cx="753.76" cy="131.69" r="7.57" gradientUnits="userSpaceOnUse"><stop offset="0.01" stop-color="#878787"/><stop offset="1" stop-color="#575756"/></radialGradient><linearGradient id="br" x1="708.83" y1="175.44" x2="719.35" y2="149.87" gradientUnits="userSpaceOnUse"><stop offset="0" stop-color="#c9c9c8"/><stop offset="0.22" stop-color="#f0f0ef"/><stop offset="0.34" stop-color="#fff"/><stop offset="1" stop-color="#c9c9c8"/></linearGradient><linearGradient id="bs" x1="724.93" y1="134.59" x2="737.86" y2="156.1" xlink:href="#br"/><linearGradient id="bt" x1="751.86" y1="133.37" x2="724.16" y2="219.84" xlink:href="#br"/><linearGradient id="bu" x1="759.68" y1="173.21" x2="738" y2="172.77" xlink:href="#bp"/><linearGradient id="bv" x1="1497.7" y1="189.39" x2="1560.69" y2="185.78" gradientTransform="matrix(-1, -0.07, -0.07, 1, 2260.03, 77.46)" gradientUnits="userSpaceOnUse"><stop offset="0.06" stop-color="#dcdcdc"/><stop offset="0.1" stop-color="#dadada"/><stop offset="0.19" stop-color="#ededed"/><stop offset="0.46" stop-color="#f6f6f6"/></linearGradient><linearGradient id="bw" x1="1515.24" y1="217.37" x2="1515.24" y2="183.79" gradientTransform="matrix(-1, -0.07, -0.07, 1, 2260.03, 77.46)" gradientUnits="userSpaceOnUse"><stop offset="0.04" stop-color="#878787"/><stop offset="0.09" stop-color="#9a9a9a"/><stop offset="0.19" stop-color="#ccc"/><stop offset="0.22" stop-color="#dadada"/><stop offset="1" stop-color="#eee"/></linearGradient><linearGradient id="bx" x1="1497.21" y1="165.2" x2="1526.18" y2="156.75" gradientTransform="matrix(-1, -0.07, -0.07, 1, 2260.03, 77.46)" gradientUnits="userSpaceOnUse"><stop offset="0.04" stop-color="#878787"/><stop offset="0.09" stop-color="#9a9a9a"/><stop offset="0.19" stop-color="#ccc"/><stop offset="0.22" stop-color="#dadada"/></linearGradient><linearGradient id="by" x1="1513.76" y1="162.33" x2="1538.76" y2="155.04" xlink:href="#bx"/><radialGradient id="bz" cx="2945.81" cy="-394.26" r="1.21" gradientTransform="matrix(0, -0.81, -0.41, 0, 586.24, 2529.86)" gradientUnits="userSpaceOnUse"><stop offset="0.01" stop-color="#3c3c3b"/><stop offset="1"/></radialGradient><linearGradient id="ca" x1="1524.19" y1="191.67" x2="1526.72" y2="218.41" gradientTransform="matrix(-0.11, -1.01, -0.99, 0.11, 1094.68, 1678.03)" gradientUnits="userSpaceOnUse"><stop offset="0" stop-color="#dadada"/><stop offset="0.27" stop-color="#878787"/><stop offset="0.35" stop-color="#9a9a9a"/><stop offset="0.53" stop-color="#ccc"/><stop offset="0.57" stop-color="#dadada"/><stop offset="1" stop-color="#eee"/></linearGradient><radialGradient id="cb" cx="3319.9" cy="-294.56" r="1.57" gradientTransform="matrix(0, -2.01, -4.15, 0, -491.39, 6833.16)" xlink:href="#bz"/><linearGradient id="cc" x1="1519.82" y1="207.35" x2="1515.81" y2="167.41" gradientTransform="matrix(-0.11, -0.99, -0.99, 0.11, 1094.22, 1654.3)" xlink:href="#bw"/><radialGradient id="cd" cx="2965.35" cy="-395.65" r="1.05" gradientTransform="matrix(0, -0.81, -0.41, 0, 570.18, 2541.98)" xlink:href="#bz"/><linearGradient id="ce" x1="1710.53" y1="190.8" x2="1757.44" y2="188.11" gradientTransform="matrix(-1, -0.07, -0.07, 1, 2473.57, 93.23)" gradientUnits="userSpaceOnUse"><stop offset="0" stop-color="#9d9d9c"/><stop offset="0.02" stop-color="#aaa"/><stop offset="0.1" stop-color="#dadada"/><stop offset="0.19" stop-color="#ededed"/><stop offset="0.46" stop-color="#f6f6f6"/></linearGradient><linearGradient id="cf" x1="705.02" y1="183.09" x2="708.56" y2="183.09" xlink:href="#bl"/><linearGradient id="cg" x1="707.84" y1="177.4" x2="715.77" y2="183.09" xlink:href="#br"/><linearGradient id="ch" x1="821.1" y1="170.69" x2="821.1" y2="181.47" gradientUnits="userSpaceOnUse"><stop offset="0" stop-color="#8c6b3e"/><stop offset="0.24" stop-color="#8b683d"/><stop offset="0.41" stop-color="#865e3a"/><stop offset="0.47" stop-color="#845a38"/><stop offset="1" stop-color="#7a5534"/></linearGradient><linearGradient id="ci" x1="906.89" y1="198.33" x2="937.91" y2="198.33" gradientTransform="translate(-68.4 -162) rotate(6.3)" xlink:href="#be"/><linearGradient id="cj" x1="4694.55" y1="-89.4" x2="4710.21" y2="-89.4" gradientTransform="matrix(-1, -0.05, -0.05, 1, 5525.52, 475.05)" xlink:href="#bf"/><linearGradient id="ck" x1="833.48" y1="118.85" x2="816.07" y2="158.09" gradientTransform="matrix(1, 0, 0, 1, 0, 0)" xlink:href="#bo"/><linearGradient id="cl" x1="805.12" y1="148.18" x2="896.21" y2="153.1" xlink:href="#bp"/><radialGradient id="cm" cx="824.83" cy="151.83" r="13.13" xlink:href="#bq"/><linearGradient id="cn" x1="787.23" y1="154.2" x2="807.01" y2="187.1" xlink:href="#br"/><linearGradient id="co" x1="823.96" y1="155.99" x2="826.72" y2="200.23" xlink:href="#br"/><linearGradient id="cp" x1="806.13" y1="167.81" x2="883.22" y2="163.39" gradientTransform="matrix(1, 0, 0, 1, 0, 0)" xlink:href="#bv"/><linearGradient id="cq" x1="843.7" y1="166.17" x2="809.61" y2="168.49" gradientTransform="matrix(1, 0, 0, 1, 0, 0)" xlink:href="#ce"/><linearGradient id="cr" x1="832.29" y1="153.91" x2="840.22" y2="125.05" gradientUnits="userSpaceOnUse"><stop offset="0.04" stop-color="#878787"/><stop offset="0.1" stop-color="#9a9a9a"/><stop offset="0.22" stop-color="#ccc"/><stop offset="0.25" stop-color="#dadada"/></linearGradient><linearGradient id="cs" x1="813.61" y1="154.26" x2="821.53" y2="125.41" xlink:href="#cr"/><radialGradient id="ct" cx="2339.28" cy="231.03" r="1.05" gradientTransform="translate(-1620.3 87.3) scale(1.04 0.26)" xlink:href="#bz"/><radialGradient id="cu" cx="2388.26" cy="291.62" r="1.05" gradientTransform="translate(-1652.6 71.4) scale(1.04 0.26)" xlink:href="#bz"/><radialGradient id="cv" cx="739.85" cy="252.04" r="84.92" gradientTransform="translate(822.7 -487.8) rotate(90) scale(1 0.33)" gradientUnits="userSpaceOnUse"><stop offset="0" stop-color="#1d1d1b"/><stop offset="0.48" stop-color="#1d1d1b"/><stop offset="0.69" stop-color="#292b29"/><stop offset="0.9" stop-color="#393d3b"/></radialGradient><linearGradient id="cw" x1="745.01" y1="247.61" x2="828.22" y2="247.61" gradientUnits="userSpaceOnUse"><stop offset="0" stop-color="#1d1d1b"/><stop offset="0.48" stop-color="#1d1d1b"/><stop offset="0.9" stop-color="#1e1e1e"/></linearGradient><linearGradient id="cx" x1="816" y1="240.17" x2="706.96" y2="226.01" gradientUnits="userSpaceOnUse"><stop offset="0" stop-color="#e09419"/><stop offset="0.26" stop-color="#efc16f"/><stop offset="0.55" stop-color="#e89613"/><stop offset="0.94" stop-color="#f9b233"/></linearGradient><radialGradient id="cy" cx="849.35" cy="257.06" r="84.92" gradientTransform="translate(933.9 -592.3) rotate(90) scale(1 0.33)" gradientUnits="userSpaceOnUse"><stop offset="0" stop-color="#575756"/><stop offset="0.39" stop-color="#303332"/><stop offset="0.41" stop-color="#313433"/><stop offset="0.54" stop-color="#373b39"/><stop offset="0.9" stop-color="#393d3b"/></radialGradient><radialGradient id="cz" cx="846.36" cy="253.3" r="51.33" gradientTransform="matrix(0.03, 1, -0.26, 0.01, 890.1, -594.5)" gradientUnits="userSpaceOnUse"><stop offset="0" stop-color="#76a181"/><stop offset="0.39" stop-color="#5c7762"/><stop offset="0.41" stop-color="#5f7c66"/><stop offset="0.46" stop-color="#698d72"/><stop offset="0.53" stop-color="#71987b"/><stop offset="0.63" stop-color="#759f80"/><stop offset="0.9" stop-color="#76a181"/></radialGradient><linearGradient id="da" x1="834.67" y1="254.85" x2="849.93" y2="254.85" xlink:href="#bc"/><linearGradient id="db" x1="848.25" y1="255.28" x2="834.25" y2="254.77" gradientTransform="matrix(1, 0, 0, 1, 0, 0)" xlink:href="#cy"/><radialGradient id="dc" cx="878.24" cy="232.65" r="60.31" gradientTransform="translate(954.7 -645.6) rotate(90) scale(1 0.33)" xlink:href="#cy"/><radialGradient id="dd" cx="876.12" cy="229.99" r="36.46" gradientTransform="matrix(0.03, 1, -0.26, 0.01, 913, -647.4)" xlink:href="#cz"/><linearGradient id="de" x1="862.86" y1="231.01" x2="880.88" y2="231.11" xlink:href="#bc"/><linearGradient id="df" x1="877.46" y1="231.39" x2="867.52" y2="231.03" gradientTransform="matrix(1, 0, 0, 1, 0, 0)" xlink:href="#cy"/><linearGradient id="dg" x1="702.77" y1="208.17" x2="833.74" y2="208.17" xlink:href="#bc"/><linearGradient id="dh" x1="873.56" y1="208.67" x2="831.9" y2="212.35" gradientUnits="userSpaceOnUse"><stop offset="0.03" stop-color="#f9b233"/><stop offset="0.4" stop-color="#efbb48"/><stop offset="0.64" stop-color="#e29823"/><stop offset="0.94" stop-color="#f9b233"/></linearGradient><linearGradient id="di" x1="871.94" y1="169.75" x2="876.45" y2="169.75" xlink:href="#bl"/><linearGradient id="dj" x1="874.51" y1="170.33" x2="879.7" y2="170.33" xlink:href="#bl"/><linearGradient id="dk" x1="876.45" y1="172.73" x2="881.09" y2="172.73" xlink:href="#bl"/><linearGradient id="dl" x1="876.81" y1="175.34" x2="881.75" y2="175.34" xlink:href="#bl"/><linearGradient id="dm" x1="876.52" y1="171.2" x2="861.92" y2="184.49" xlink:href="#br"/><linearGradient id="dn" x1="857.96" y1="181.37" x2="960.51" y2="190.49" xlink:href="#br"/><linearGradient id="do" x1="837.99" y1="144.73" x2="868.28" y2="195.13" xlink:href="#br"/><linearGradient id="dp" x1="715.24" y1="222.13" x2="705.74" y2="221.9" xlink:href="#ao"/><linearGradient id="dq" x1="707.44" y1="222.01" x2="712.99" y2="222.01" gradientUnits="userSpaceOnUse"><stop offset="0" stop-color="#d32a33"/><stop offset="0.08" stop-color="#d53038"/><stop offset="0.19" stop-color="#d94147"/><stop offset="0.31" stop-color="#e15d5f"/><stop offset="0.37" stop-color="#e56e6e"/><stop offset="0.39" stop-color="#e56c6d"/><stop offset="0.79" stop-color="#e14349"/><stop offset="1" stop-color="#e0333b"/></linearGradient><linearGradient id="dr" x1="834.67" y1="225.83" x2="825.17" y2="225.6" xlink:href="#ao"/><linearGradient id="ds" x1="826.88" y1="225.72" x2="832.42" y2="225.72" xlink:href="#dq"/><linearGradient id="dt" x1="726.43" y1="234.59" x2="690.19" y2="233.18" xlink:href="#ao"/><linearGradient id="du" x1="698.42" y1="234.23" x2="725.51" y2="234.23" gradientUnits="userSpaceOnUse"><stop offset="0" stop-color="#d32a33"/><stop offset="0.07" stop-color="#d53038"/><stop offset="0.16" stop-color="#d94147"/><stop offset="0.27" stop-color="#e15d5f"/><stop offset="0.32" stop-color="#e56e6e"/><stop offset="0.38" stop-color="#e3585b"/><stop offset="0.45" stop-color="#e2474d"/><stop offset="0.54" stop-color="#e13c42"/><stop offset="0.66" stop-color="#e0353d"/><stop offset="1" stop-color="#e0333b"/></linearGradient><radialGradient id="dv" cx="858.68" cy="206.6" r="82.9" gradientTransform="translate(926.6 -652.1) rotate(90) scale(1 0.33)" xlink:href="#cy"/><radialGradient id="dw" cx="855.76" cy="202.93" r="50.12" gradientTransform="matrix(0.03, 1, -0.26, 0.01, 886.14, -653.92)" xlink:href="#cz"/><linearGradient id="dx" x1="845.32" y1="204.18" x2="857.63" y2="204.48" xlink:href="#bc"/><linearGradient id="dy" x1="857.61" y1="204.87" x2="843.94" y2="204.36" gradientTransform="matrix(1, 0, 0, 1, 0, 0)" xlink:href="#cy"/><linearGradient id="dz" x1="883.8" y1="199.51" x2="866.22" y2="201.06" gradientUnits="userSpaceOnUse"><stop offset="0.01" stop-color="#2d6481"/><stop offset="0.24" stop-color="#265e7d"/><stop offset="0.64" stop-color="#1c7283"/><stop offset="0.93" stop-color="#2a94b7"/></linearGradient><linearGradient id="ea" x1="716.75" y1="204.28" x2="820.67" y2="204.28" gradientUnits="userSpaceOnUse"><stop offset="0.01" stop-color="#e89613"/><stop offset="0.26" stop-color="#efc16f"/><stop offset="0.55" stop-color="#e89613"/><stop offset="0.96" stop-color="#e89613"/></linearGradient><linearGradient id="eb" x1="819.87" y1="199.87" x2="717.77" y2="208.89" xlink:href="#bc"/><linearGradient id="ec" x1="709.06" y1="194.28" x2="899.93" y2="220.73" gradientUnits="userSpaceOnUse"><stop offset="0.01" stop-color="#e89613"/><stop offset="0.55" stop-color="#e89613"/><stop offset="0.96" stop-color="#e89613"/></linearGradient><linearGradient id="ed" x1="728.34" y1="219.05" x2="727.87" y2="230.66" xlink:href="#ea"/><linearGradient id="ee" x1="806.13" y1="221.86" x2="805.56" y2="232.39" xlink:href="#ea"/><linearGradient id="ef" x1="770.2" y1="175.77" x2="770.2" y2="183.76" xlink:href="#bk"/><linearGradient id="eg" x1="733.01" y1="-658.76" x2="738.3" y2="-658.76" gradientTransform="matrix(0.96, -0.52, 0.49, 0.91, 385.81, 1152.95)" xlink:href="#bl"/><linearGradient id="eh" x1="768.73" y1="-539.84" x2="773.28" y2="-539.84" gradientTransform="matrix(1.02, -0.45, 0.52, 1.16, 261.87, 1154.03)" xlink:href="#bl"/><linearGradient id="ei" x1="761.01" y1="178.27" x2="765.71" y2="178.27" xlink:href="#bl"/><linearGradient id="ej" x1="756.96" y1="170.96" x2="765.97" y2="177.42" xlink:href="#br"/><linearGradient id="ek" x1="755.72" y1="174.55" x2="756.26" y2="154.52" gradientUnits="userSpaceOnUse"><stop offset="0" stop-color="#c9c9c8"/><stop offset="0.19" stop-color="#f0f0ef"/><stop offset="0.29" stop-color="#fff"/><stop offset="1" stop-color="#c9c9c8"/></linearGradient><linearGradient id="el" x1="748.61" y1="131.93" x2="767.99" y2="164.16" xlink:href="#br"/><linearGradient id="em" x1="-364.48" y1="149.23" x2="621.45" y2="149.23" gradientUnits="userSpaceOnUse"><stop offset="0" stop-color="#43a5d6"/><stop offset="0.75" stop-color="#66cae9"/><stop offset="0.78" stop-color="#66cae9" stop-opacity="0.98"/><stop offset="0.82" stop-color="#66cae9" stop-opacity="0.93"/><stop offset="0.85" stop-color="#66cae9" stop-opacity="0.85"/><stop offset="0.88" stop-color="#66cae9" stop-opacity="0.73"/><stop offset="0.91" stop-color="#66cae9" stop-opacity="0.57"/><stop offset="0.95" stop-color="#66cae9" stop-opacity="0.38"/><stop offset="0.98" stop-color="#66cae9" stop-opacity="0.17"/><stop offset="1" stop-color="#66cae9" stop-opacity="0"/></linearGradient></defs><g class="f"><g class="g"><rect class="h" x="-291.8" y="-1.3" width="1498.5" height="304.37"/><circle class="i" cx="868.9" cy="11.6" r="138.1"/><circle class="j" cx="868.9" cy="11.6" r="54.4" transform="translate(654.9 853.8) rotate(-76.5)"/><circle class="k" cx="868.9" cy="11.6" r="38.3" transform="translate(719.9 867.7) rotate(-80.9)"/><path class="l" d="M1203.9,6.9a30.2,30.2,0,0,0-5.7-8.9h-42.1l-1.6,1.8c.1-.6.1-1.2.2-1.8h-484a24.7,24.7,0,0,0,1.8,11.1c-4.9-4.6-14.5-.3-14.3,6.5-4.9-16-27.5-20.9-41.6-12.1s-20.6,26.3-21.3,43a12.2,12.2,0,1,0-16.6,18l.9.7c-9.4-2.7-19.3-5.5-28.7-3s-17.7,12.3-14.8,21.6c-8.8-4.9-21.6,3.8-20.2,13.9-11.1-11.5-33.8-6.9-39.6,8.1a51.1,51.1,0,0,0-27.6,3.2,95.7,95.7,0,0,0,56.3,2.8c5.6,8.7,20.2,9.3,26.5,1.1,9.8,11.6,31.7,7.9,37.1-6.2,23,19.4,64.2,7.8,73.8-20.7,10.5,14.2,34.7,14.8,46,1.3a21.9,21.9,0,0,0,42.5,4.3c25.4,29,77.7,27.2,101.1-3.4a49.9,49.9,0,0,0,69.2,13.9,50.7,50.7,0,0,0,15.4-16.2c8.8,12.6,28.4,15.6,40.6,6.4,16.1,16.3,46.7,14.2,60.3-4.3a40.9,40.9,0,0,0,77.3,1.7c4.6,9.4,19.2,11.7,26.5,4.1,11.6,20,44.4,22.1,58.5,3.9a55.1,55.1,0,0,0,26.9,16.9V1.1C1204.2,2.7,1203,4.7,1203.9,6.9Z"/><path class="m" d="M966-2a62.5,62.5,0,0,0-8.2,15.7C952.7,7,946.1.4,937.7-.9S919.5,5,921.2,13.4c-6-2.9-12.3-5.9-19-5.5s-11.7,6.3-14.4,13a13.4,13.4,0,0,0-15.7-4.6A15.7,15.7,0,0,0,862.4,30c-1.6-4.4-7.4-6.2-11.8-4.4s-7,6.3-7.9,10.9c-3.8-2.9-8.5-3.7-12.6-.8a39.5,39.5,0,0,1-4.7,3.3,14.9,14.9,0,0,1-6.6.9h-13c-1,1.9,1.1,3.8,3,4.6a38.9,38.9,0,0,0,30.3,0c6,5.5,17.1,3.5,20.7-3.8a18.2,18.2,0,0,0,17.9-1.1c9.5,14.2,31.1,21.9,44.1,6.8,2.4,10.4,15.2,16.1,25.4,13s17.2-13,19.4-23.5c-1.3,6.3,19.6,13.2,23.6,13.9,11.4,1.9,19.8-2.7,30-6.9a8.1,8.1,0,0,0,8.6,7.6,7.7,7.7,0,0,0,6.3-3.6,22.6,22.6,0,0,0,15.9,8.7,41.3,41.3,0,0,0,18.4-2.7c10-3.5,21.3-9.6,29-16.9a27.5,27.5,0,0,0,51.3.4,21.1,21.1,0,0,0,40.2,8.4,35.1,35.1,0,0,0,16.8,13.1V-2Z"/><polygon class="n" points="422.4 303 1206.7 303 1206.7 207.5 424.1 210.9 422.4 303"/><g class="o"><path class="p" d="M1206.7,208.9l-76.3-8.2a517.2,517.2,0,0,0-107-.2l-7.6.8a473.1,473.1,0,0,1-84.9,1.3l-29.5-2.3c-113.5-8.9-131.2,11.7-254,6.9-12.3-.4-57.8-1.9-69.6-1.4l-70.4,3a275.6,275.6,0,0,1-55.2-2.8l-28.1-4.5L423,221.2l118.1-5a1097.7,1097.7,0,0,1,124,2.1h0a373.1,373.1,0,0,0,53.9-.1l91.4-6.9a439.3,439.3,0,0,1,53.9-.6l150.9,8h.2a304.9,304.9,0,0,0,41.7-.9c44.9-4,93.7-5.9,149.6,1.9Z"/></g><g class="q"><path class="r" d="M423.5,221.1l47.2,5.4a299.3,299.3,0,0,0,73.7-1.3l5.7-.8a325.3,325.3,0,0,1,65.6-2.5l24.5,1.5c102.8,6.8,120.2-13.9,253.1-12.5,14.6.2,71,.5,86.3-.4l96.9-6a533.4,533.4,0,0,1,84.1,1.5l46.1,4.7V185.2l-178,11.9a1552.5,1552.5,0,0,1-156,2.5h0a439.1,439.1,0,0,0-59.7,2l-91.6,9.6a386.7,386.7,0,0,1-49.1,1.9l-121.7-3.6h-.2a175.9,175.9,0,0,0-30,1.7c-30.8,4.2-61.9,6.7-96.5,1.6Z"/></g><path class="s" d="M882.7,303l1.6-12.7,14.2-.3-.5,7.2v1.1l-.4,4.7h11.3l-1-.6.2-4.3,12.8-.3V303h5.1v-5.3l40.8-.8.9,6.1h2.4l-1-6.1h7.3l.8,4.2-2.8,2h2.5l1.3-1,.2,1h.9l-.3-1.2,6.4-.2.3,1.4h1.8l-1.4-6.4-.2-1.1-9.3-43.6-.2-.8-7-32.9h-65l-.5,6.8H892.6l.9-6.8h-1.4l-.9,6.8v.6L890,234v.4l-1.2,8.6v.2l-1.3,10h0L886,264.2v.4l-3.3,24.7h0L880.9,303Zm42.2-74.7,4.1,2,.3,7.7-4.3,2.1Zm.1,12.8,5.3-2.6h16.1l12.3,5.8,1.1,7.1-34.6.3Zm.2,11.3,34.7-.3,1.1,7.5-11.8,7.1-17.9.2-6-3.1Zm36.7-.4h6.2l.6,3.1-5.8,3.4Zm2.9,32.7-13.3-7-1.1-10.4,10.8-6.5Zm-3-33.4-1-6.2,6.6,3.1.6,3ZM925.4,265l4.8,2.6.3,10.4-4.9,2.9Zm.4,31.6-.2-14.3,6.1-3.7,18.7-.2,14.6,7.7,1.4,9.8Zm37.3-36.9,6.5-3.9,6.3,34.8-8.7-4.6Zm5.7,36.1-1.3-8.4,7.8,4.2.7,4.1Zm14.2-5.1h-6.2l-6.6-35.2h5.5Zm-14.4-69.1,5.4,26h-5.3l-4.8-26.1Zm-5.3.1,4.7,25.8-7.3-3.4-3.1-19.5Zm-1.2-2.9.4,2.3-5,2.6-.8-4.9Zm-3.5,24.3-11.3-5.2-.8-7.7,9.5-4.8ZM955,218.8l.8,5.7-10.3,5.2H930l-5.2-2.4v-8.6Zm-34.2,77.9L908,297l.2-4.2,12.6-7.6Zm.1-12.9L907,292.1h-6.8l2.6-36h6l12.1,6.4Zm0-22.4-11-5.8.2-3.1h10.8Zm0-9.8H910.1v-3l10.8-5.5Zm-9.3-32.8H921v6.8l-9.5-4.4Zm-6.3,2.8h5.2l10.5,4.9v15.6l-11.8,6h-5.8Zm-13.9,12.8h11.5v-.7H891.5l1-8.1h11.1v-.3l-1.4,18.2V243H890.3Zm-1.2,9.4h12l-.7,8v1.4H889ZM888.9,254h12.5l-.8,10.1-13,.2Zm-1.4,11h13l-.9,11.9v-.9l-13.5.2ZM886,277.1l13.6-.2-1,12.1-14.1.2Z"/><path class="t" d="M1133.8,250.6l34.4,41.4.8,1,8.4,10h1.6l-4.4-5.3h5.8l4.6,5.4h.8l-4.5-5.2,11.8,4.8.4.4h3.2l-1.5-.6-8.7-9.7,20.2-.4v-1.1l-21.1.4-8.1-9.1,5.3-7.6,16.5-.2,7.4,2.7v-4.8l-13.3-12.9,4.4-6.2h5.1l3.8,3.4v-1.2l-4.8-4.4h4.8v-.7h-5.6l-.5-.4-.8-.8-8.2-7.4h10.3l4.8,4.3v-1.2l-13.4-11.7-.4-.4-16.7-14.6h-1.1l7.1,6.3h-9.6l-6.9-6.3h-58.8l26.3,31.7Zm28.3-13.3,7.3,2.5,9.8,9.7-31,.2-6-6.7,5.5-5.6Zm-6.7-7.7,1.8-1.9,11.2,11.1-5.8-2Zm19.5,12,14.5,5,3,2.8h-9.5Zm-27.8,8.9,5.4,6.1-8.6-3.1-2.5-3Zm-6.3-.7-2.5-2.8,3-3.1,5.1,5.8Zm.6-7.8-15.1-16.9,13.3,4.5,6.8,7.3Zm-1,.9-3.3,3.4-21.2-24.7,8.1,2.7Zm25.6,44.5-27.9-33.3h5l28.5,33.3Zm-22.1-33.2,9.6,3.5,21.8,24.8-3.2,4.6Zm47.8,46.9-10.5-4.3-3.4-4h6.6Zm-8.2-9.4h-6.6l-3.3-3.8,2.9-4.2Zm-7.2-10.5-20-22.4,15.9,5.9,8.9,9.6Zm-3.7-17.1-17.3-6.4-6.4-7.2,31.1-.3,10.7,10.6-2.2,3.1Zm34.1,12.5-7-2.6-9.6-9.6,1.7-2.4Zm-14.4-18-8.6-8.4h9.5l3,2.9Zm8.8-17.4h-10.2l-8.8-8h10Zm-18.2-16.1,8.4,7.4h-9.9l-8.1-7.5Zm-14.9-3.7,26.8,24.6h-5l-15.9-5.4-15-14.7,4.5-4.6Zm-8.2-2.6,2.3,2.2-4.1,4.2-6.6-6.4Zm-11.7,0,8.2,8.1-2.3,2.3h-13.9l-14.5-4.9-4.9-5.5Zm-29,0,4.1,4.7L1116,221l-1.9-2.2Zm-8.3,2.6h4.4l21.4,25.1h-4.9Z"/><path class="u" d="M455.1,303l99.1-42.1s33.3-9,40.3-11.3,12.1-6.7,32.7-8.8,61.7-15.1,61.7-15.1l234.9-17L604,210.1l-181.6-1.3-1.6,2.9-52,91.3Z"/><polygon class="v" points="506.3 -1.3 511 -1.3 511 17.2 505.3 50.2 492.8 65.6 463.1 82.6 457.9 91.7 457.9 48.1 481.3 3.8 488.8 -1.3 506.3 -1.3"/><polygon class="w" points="506.3 -1.3 519.8 -1.3 530.7 7.1 544.6 35.4 590.1 63.6 631.9 105.8 694.2 143.7 612.7 112.5 545.6 75.7 535.9 59.8 527.8 55.5 529.2 34 513.9 41.1 505.3 50.2 500 22.9 506.7 3.8 506.3 -1.3"/><path class="x" d="M510.1,16.2l10.5,11,16.8,5.3,16.3,23,29.8,26s-21.2-4.4-22.2-5.8-18.7-20.2-18.7-20.2L525.9,40.7l-20.6,9.6L500,22.9l6.7-19.1Z"/><polygon class="y" points="507.9 35.1 529.5 35.1 528.1 55.3 536.2 59.6 552 86.4 577.4 127.2 560.4 143.7 484.2 237.2 457.9 230.5 457.9 81.7 484.9 59.1 507.9 35.1"/><polygon class="z" points="612.7 110.6 687.9 139.9 694.2 143.7 722 151.4 784.3 175.3 744 167.7 672.6 155.2 655.8 165.3 623.2 182 633.8 219.9 591.6 169.6 585.8 137 577.2 128.9 545.6 75.7 587.7 92.4 612.7 110.6"/><path class="aa" d="M540.3,47.4s13,12.9,20.6,18.2,66.3,47,66.3,47L545.5,75.7l-9.6-15.8-8.6-4.4,1.9-20.6Z"/><polygon class="ab" points="552.7 152.8 577.2 126.9 585.8 137 597.1 176.2 645.5 227.3 606.9 236.7 569.8 236.7 484.6 267 456.9 266.1 457.9 231 494.7 242 552.7 152.8"/><path class="ac" d="M1166.6,196.9l1.5.7a2.7,2.7,0,0,1,1,1.3,2.2,2.2,0,0,1-.2,1.8l-1.6,2.7a2.2,2.2,0,0,1-3,.8l-1.5-.8h0a.5.5,0,0,1-.2-.8v-.4a6.3,6.3,0,0,1,3.3-5.1h0A.4.4,0,0,1,1166.6,196.9Z"/><path class="ad" d="M1163.7,199.3a4.3,4.3,0,0,0-.8,3c.4.2,1.4-.6,2.3-2s1.2-2.6.8-2.9S1164.5,197.9,1163.7,199.3Z"/><path class="ae" d="M1166.7,201.4v4.7h-1v-4.7a.5.5,0,0,1,.5-.5h0A.5.5,0,0,1,1166.7,201.4Z"/><path class="af" d="M1168.2,207.6H1163a1.5,1.5,0,0,1,1.6-1.5h2A1.5,1.5,0,0,1,1168.2,207.6Z"/><path class="ag" d="M902.3,198.5h0a6,6,0,0,1,3.2,5.1v.5a.6.6,0,0,1-.2.7h0l-1.5.9a2.3,2.3,0,0,1-3-.8l-1.6-2.8a2.5,2.5,0,0,1-.3-1.7,2.1,2.1,0,0,1,1.1-1.3l1.4-.8A.5.5,0,0,1,902.3,198.5Z"/><path class="ad" d="M904.4,200.7c.9,1.4,1.1,2.7.8,3s-1.4-.6-2.2-2-1.2-2.6-.8-2.8S903.6,199.4,904.4,200.7Z"/><path class="ae" d="M901.9,202.3h0a.6.6,0,0,1,.6.6v4.6h-1.1v-4.6A.6.6,0,0,1,901.9,202.3Z"/><path class="ah" d="M901.5,207.5h2.1a1.5,1.5,0,0,1,1.5,1.5H900A1.5,1.5,0,0,1,901.5,207.5Z"/><polygon class="ai" points="899.5 208 883.2 216.8 1182.7 216.8 1169.5 206.7 899.5 208"/><path class="aj" d="M1156.2,212.8c0,3-54.6,5.4-122.1,5.4s-122-2.4-122-5.4,54.6-5.3,122-5.3S1156.2,209.9,1156.2,212.8Z"/><path class="ak" d="M910.5-20.5H899.8V210H901V197.2h9.5V210H969V-20.5Zm0,216.5H901V181.7h9.5Zm0-15.5H901V166.2h9.5Zm0-29V165H901V150.8h9.5Zm0-1.9H901V135.3h9.5Zm0-15.5H901V119.8h9.5Zm0-15.5H901V104.4h9.5Zm0-24.4v9H901V88.9h9.5Zm0-6.5H901V73.4h9.5Zm0-15.5H901V58h9.5Zm0-15.4H901V42.5h9.5Zm0-20v4.5H901V27h9.5Zm0-10.9H901V11.6h9.5Zm0-15.5H901V-3.9h9.5Zm0-15.5H901V-19.3h9.5Zm6.6-14.2h8.4V-6.4l-8.4-8.4ZM911.7-14h4.5l9.3,9.3V22.2l-9.3,9.2h-4.5ZM928.8-1.4l3.5,3.5V15.4l-3.5,3.5ZM917.1,36.8V32.3l8.4-8.5v13Zm8.4,1.2V51l-8.4-8.5V38Zm-13.8,5.4h4.5l9.3,9.2V79.5l-9.3,9.3h-4.5Zm17.1,12.5,3.5,3.5V72.7l-3.5,3.5ZM917.1,94.2V89.6l8.4-8.4v13Zm8.4,1.1v13l-8.4-8.4V95.3Zm-13.8,5.4h4.5l9.3,9.3v26.9l-9.3,9.2h-4.5Zm17.1,12.6,3.5,3.5v13.3l-3.5,3.5Zm-11.7,38.2v-4.6l8.4-8.4v13Zm8.4,1.2v13l-8.4-8.5v-4.5Zm-13.8,50.8V158.1h4.5l9.3,9.2v26.9l-9.3,9.3Zm17.1-32.9,3.5,3.5v13.3l-3.5,3.5Zm-11.7,38.2v-4.5l8.4-8.4v12.9Zm38.8,0H928.8V192.6l4.3-4.4h13.3l9.5,9.6Zm0-12.7-8.7-8.7V174.1l8.7-8.7Zm0-32.4-9.5,9.6H933.1l-4.3-4.4V152.7h27.1Zm0-12.2H928.8V135.2l4.3-4.3h13.3l9.5,9.6Zm0-12.7-8.7-8.7V116.8l8.7-8.7Zm0-32.4-9.5,9.6H933.1l-4.3-4.4V95.3h27.1Zm0-12.2H928.8V77.9l4.3-4.4h13.3l9.5,9.6Zm0-12.8-8.7-8.7V59.4l8.7-8.7Zm0-32.4-9.5,9.6H933.1l-4.3-4.3V38h27.1Zm0-12.2H928.8V20.6l4.3-4.4h13.3l9.5,9.6Zm0-12.7-8.7-8.7V2.1l8.7-8.7Zm0-32.4-9.5,9.6H933.1l-4.3-4.4V-19.3h27.1Zm1.6-11h4.9v4.5l-4.9,4.9Zm0,46.6,4.9,5v4.5h-4.9Zm0,10.7h4.9v4.5l-4.9,5Zm0,46.7,4.9,4.9v4.6h-4.9Zm0,10.6h4.9v4.6l-4.9,4.9Zm0,46.7,4.9,4.9v4.6h-4.9Zm0,10.7h4.9v4.5l-4.9,5Zm4.9,56.1h-4.9v-9.4l4.9,4.9Zm.6-5.6-5.5-5.5V163.8l5.5-5.4Zm0-57.4-5.5-5.4V106.5L963,101Zm0-57.3L957.5,83V49.1l5.5-5.4Zm0-57.4-5.5-5.4V-8.2l5.5-5.5Zm4.8,172.4h-4.3V158.1h4.3Zm0-57.4h-4.3V100.7h4.3Zm0-57.3h-4.3V43.4h4.3Zm0-57.4h-4.3V-14h4.3Z"/><path class="ak" d="M1167.3-20.5h-68V210h58.6V197.2h9.4V210h1.2V-20.5Zm-16,1.2v4.5l-8.4,8.4V-19.3Zm-11.7,0V-3.1l-4.4,4.4H1122l-9.6-9.6v-11Zm-4.4,192.6H1122l-9.6-9.6v-11h27.2v16.2Zm4.4-2.7v20.3l-3.5-3.5V174.1Zm-18.5,3.5v13.3l-8.7,8.7V165.4ZM1110.8,25.7l-5.5,5.4V-13.7l5.5,5.5Zm1.6-32.3,8.7,8.7V15.4l-8.7,8.7ZM1110.8,83l-5.5,5.5V43.7l5.5,5.4Zm1.6-32.3,8.7,8.7V72.7l-8.7,8.7Zm-6.5,43.5V89.6l4.9-4.9v9.5Zm4.9,1.1v9.5l-4.9-4.9V95.3Zm-4.9-52.8V38h4.9v9.5Zm0-5.7V32.3l4.9-5v9.5Zm-.6,64.2,5.5,5.5v33.9l-5.5,5.4Zm7.1,7.1,8.7,8.7v13.3l-8.7,8.7Zm-1.6,33.9v9.5h-4.9v-4.6Zm-4.9,10.7h4.9v9.5l-4.9-5Zm37,0h8.4v4.5l-8.4,8.5Zm0-1.2v-13l8.4,8.4v4.6Zm-3.3,0h-27.2v-11l9.6-9.6h13.2l4.4,4.3Zm-3.5-21.4V116.8l3.5-3.5v20.3Zm-.9-14.1H1122l-9.6-9.6V95.3h27.2v16.3Zm7.7-20.7h8.4v4.6l-8.4,8.4Zm0-1.1v-13l8.4,8.4v4.6Zm-3.3,0h-27.2V83.1l9.6-9.6h13.2l4.4,4.4Zm-3.5-21.5V59.4l3.5-3.5V76.2Zm-.9-14.1H1122l-9.6-9.6V38h27.2V54.3Zm7.7-20.6h8.4v4.5l-8.4,8.5Zm0-1.2v-13l8.4,8.5v4.5Zm-3.3,0h-27.2v-11l9.6-9.6h13.2l4.4,4.4Zm-3.5-21.4V2.1l3.5-3.5V18.9Zm-30.2-34.7h4.9v9.4l-4.9-4.9Zm-5.4,5.3h4.3V31.4h-4.3Zm0,57.4h4.3V88.8h-4.3Zm0,57.3h4.3v45.4h-4.3Zm0,102.8V158.1h4.3v45.4Zm4.8-45.1,5.5,5.4v33.9l-5.5,5.5Zm.6,50.4v-4.5l4.9-4.9v9.4Zm6.5,0v-11l9.6-9.6h13.2l4.4,4.4v16.2Zm38.9,0h-8.4V195.9l8.4,8.4Zm5.4-5.3h-4.6l-9.2-9.3V167.3l9.2-9.2h4.6Zm0-57.4h-4.6l-9.2-9.2V110l9.2-9.3h4.6Zm0-57.3h-4.6l-9.2-9.3V52.6l9.2-9.2h4.6Zm0-57.4h-4.6l-9.2-9.2V-4.7l9.2-9.3h4.6ZM1167.3,196h-9.4V181.7h9.4Zm0-15.5h-9.4V166.2h9.4Zm0-15.5h-9.4V150.8h9.4Zm0-15.4h-9.4V135.3h9.4Zm0-15.5h-9.4V119.8h9.4Zm0-15.5h-9.4V104.4h9.4Zm0-15.4h-9.4V88.9h9.4Zm0-15.5h-9.4V73.4h9.4Zm0-15.5h-9.4V58h9.4Zm0-15.4h-9.4V42.5h9.4Zm0-15.5h-9.4V27h9.4Zm0-15.4h-9.4V11.6h9.4Zm0-15.5h-9.4V-3.9h9.4Zm0-15.5h-9.4V-19.3h9.4Z"/><polygon class="al" points="903.4 96.9 910.5 94.2 969 94.2 965.3 96.9 903.4 96.9"/><polygon class="am" points="903.4 156.4 910.5 151.5 931 151.5 927.8 156.4 903.4 156.4"/><polygon class="an" points="903.4 35 910.5 38 965.3 37.8 969 35 903.4 35"/><polygon class="ao" points="1102.9 96.9 1110 94.2 1168.5 94.2 1164.8 96.9 1102.9 96.9"/><polygon class="ap" points="1141.3 156.3 1138 151.5 1157.8 151.5 1164.8 156.3 1141.3 156.3"/><polygon class="aq" points="1102.9 35 1110 38 1164.8 37.8 1168.5 35 1102.9 35"/><path class="ar" d="M1042.7,137.4c0,4.7-3.8,70.6-8.6,70.6s-8.5-65.9-8.5-70.6a8.6,8.6,0,1,1,17.1,0Z"/><path class="as" d="M1073-22.7c-2.3-25.5-6.6-49.9-12.5-65.1-9,.1-26.4,7.4-26.4,7.4s-17.3-7.3-26.4-7.4c-5.8,15.2-10.1,39.6-12.4,65.1s3.1,163.7,4,174.8c2.8,11.8,34.8,11.3,34.8,11.3s32.1.5,34.9-11.3C1069.9,141,1075.3,2.8,1073-22.7Z"/><path class="at" d="M996.4,20.4c0,4.7,3.6,128.3,8.3,128.3s5.6-124,5.6-128.7a8.6,8.6,0,0,0-8.5-8.6C997,11.4,996.4,15.7,996.4,20.4Z"/><path class="au" d="M942.5,195.1l62.2-53.4V22.1a3,3,0,0,0-5.9-1L942.5,142.4Z"/><path class="av" d="M1071.8,20.4c0,4.7-3.6,128.3-8.3,128.3s-5.6-124-5.6-128.7a8.6,8.6,0,0,1,8.5-8.6C1071.2,11.4,1071.8,15.7,1071.8,20.4Z"/><path class="aw" d="M1125.7,195.1l-62.2-53.4V22.1a3,3,0,0,1,5.9-1l56.3,121.3Z"/><path class="ax" d="M950.7,144.3c0,4.7-3.8,70.7-8.5,70.7s-8.6-66-8.6-70.7a8.6,8.6,0,0,1,8.6-8.5A8.5,8.5,0,0,1,950.7,144.3Z"/><path class="ay" d="M1134.6,144.3c0,4.7-3.8,70.7-8.5,70.7s-8.6-66-8.6-70.7a8.6,8.6,0,0,1,17.1,0Z"/><circle class="az" cx="1034.1" cy="53.4" r="14.6"/><circle class="ba" cx="1034.1" cy="52.9" r="11.4"/><circle class="bb" cx="1034.1" cy="89.5" r="14.6"/><circle class="bc" cx="1034.1" cy="88.9" r="11.4"/><polygon class="bd" points="1040.4 127.3 1034.1 127.3 1034.1 127.3 1027.8 127.3 1016.6 141.8 1016.6 163.4 1020.4 165.4 1034.1 165.4 1034.1 165.4 1047.9 165.4 1051.6 163.4 1051.6 141.8 1040.4 127.3"/><polygon class="be" points="1040.4 127.3 1034.1 127.3 1034.1 127.3 1027.8 127.3 1016.6 141.8 1016.6 163.4 1020.4 165.4 1034.1 165.4 1034.1 165.4 1047.9 165.4 1051.6 163.4 1051.6 141.8 1040.4 127.3"/><polygon class="bf" points="1039.9 128.1 1034.1 128.1 1034.1 128.1 1028.4 128.1 1018 142.3 1018 163.4 1021.5 165.4 1034.1 165.4 1034.1 165.4 1046.8 165.4 1050.2 163.4 1050.2 142.3 1039.9 128.1"/><circle class="bg" cx="1034.1" cy="52" r="9.1"/><circle class="bh" cx="1034.1" cy="88.1" r="9.1"/><polygon class="bi" points="484.2 173.4 488.5 217 508.6 132.2 519.7 126.9 527.3 132.2 530.7 173.9 544.7 121.9 544.6 95.8 577.2 126.9 559 214.7 484.6 267 455.2 266 457.9 189.7 470.3 155.2 484.2 173.4"/><polygon class="ab" points="601.1 127.9 589.6 120.2 660.6 150.9 617.9 121.7 631.3 127.4 674 148 784.3 175.3 784.6 175.4 808.7 188.8 843.2 208.4 747.4 191.6 759.4 201.7 725.3 208.4 696.1 216.6 678.8 208.4 678.8 214.7 664.9 211.3 641.9 208.4 650.5 219.9 645.5 227.3 633.8 219.9 615.1 181.6 623.2 181.6 600.7 148 607.9 148 647.2 161 643.3 151.4 601.1 127.9"/><rect class="e" x="462.9" y="-26.2" width="712.9" height="382.69"/><rect class="e" x="462.9" y="-26.2" width="712.9" height="382.69"/><rect class="e" x="462.9" y="-26.2" width="712.9" height="382.69"/><rect class="e" x="462.9" y="-26.2" width="712.9" height="382.69"/><rect class="e" x="462.9" y="-26.2" width="712.9" height="382.69"/><rect class="e" x="462.9" y="-26.2" width="712.9" height="382.69"/><rect class="e" x="462.9" y="-26.2" width="712.9" height="382.69"/><rect class="e" x="462.9" y="-26.2" width="712.9" height="382.69"/><rect class="e" x="462.9" y="-26.2" width="712.9" height="382.69"/><rect class="e" x="462.9" y="-26.2" width="712.9" height="382.69"/><polygon class="u" points="678.8 214.7 678.8 208.4 696.1 216.6 725.3 208.4 759.4 201.7 747.4 191.6 843.2 208.4 808.7 188.8 784.6 175.4 858.6 201.7 898.5 208.6 898.1 208.8 841.9 216 786 218 782.1 229.7 758.9 236.7 674 236.7 654.1 235.5 650.5 219.9 641.9 208.4 664.9 211.3 678.8 214.7"/><rect class="e" x="462.9" y="-26.2" width="712.9" height="382.69"/><polygon class="bj" points="612.7 110.6 662.4 130 618.9 118.4 592.5 112.5 581.5 100.1 572.4 101.5 559.5 99.1 545.5 75.6 595.9 98.4 612.7 110.6"/><path class="bk" d="M893.4-25.6h-1.3V218.2h1.3V204.6h10v13.6h61.9V-25.6H893.4Zm10,228.9h-10V188.2h10Zm0-16.3h-10V171.9h10Zm0-30.7v14.3h-10V155.5h10Zm0-2h-10V139.2h10Zm0-16.4h-10V122.8h10Zm0-16.3h-10V106.5h10Zm0-25.9v9.5h-10V90.1h10Zm0-6.8h-10V73.8h10Zm0-16.4h-10V57.4h10Zm0-16.3h-10V41.1h10Zm0-21.2v4.8h-10V24.7h10Zm0-11.5h-10V8.4h10Zm0-16.4h-10V-8h10Zm0-16.3h-10V-24.3h10ZM958.3,217h-5.2V206.9l5.2,5.2Zm-5.2-11.8V169.4l5.8-5.8V211Zm-1.6-1.7-9.3-9.2v-14l9.3-9.3Zm1.6-94.8,5.8-5.8v47.4l-5.8-5.8Zm-1.6,34.2-9.3-9.3v-14l9.3-9.2Zm1.6-94.8,5.8-5.8V89.7l-5.8-5.8Zm-1.6,34.1L942.2,73V59l9.3-9.2Zm1.6-94.7,5.8-5.8V29.1l-5.8-5.8Zm-1.6,34.1-9.3-9.2V-1.7l9.3-9.2Zm6.8,8.6V35h-5.2V25Zm0,6.1v4.8l-5.2,5.2v-10Zm0,54.6v4.8h-5.2v-10Zm0,6v4.9l-5.2,5.1v-10Zm0,54.6v4.8h-5.2v-10Zm0,6.1v4.8l-5.2,5.2v-10Zm5.7,53.6h-4.5V163.3H964Zm0-60.6h-4.5v-48H964ZM964,90h-4.5V42H964Zm0-60.7h-4.5V-18.6H964Zm-5.7-53.6v4.8l-5.2,5.2v-10Zm-35.6,0h28.8v11.6L941.3-2.5h-14l-4.6-4.6Zm0,18.9,3.7,3.7V12.4l-3.7,3.7Zm0,23.3,4.6-4.6h14l10.2,10.1V35H922.7Zm0,18.4h28.8V48L941.3,58.1h-14l-4.6-4.6Zm0,19,3.7,3.7V73l-3.7,3.7Zm0,23.2,4.6-4.6h14L951.5,84V95.7H922.7Zm0,18.4h28.8v11.7l-10.2,10.1h-14l-4.6-4.6Zm0,19,3.7,3.7v14l-3.7,3.7Zm0,23.2,4.6-4.6h14l10.2,10.1v11.7H922.7Zm0,18.5h28.8v11.7l-10.2,10.1h-14l-4.6-4.6Zm0,18.9,3.7,3.8v14l-3.7,3.7Zm0,23.3,4.6-4.6h14l10.2,10.1V217H922.7ZM919.2,217h-8.9v-4.9l8.9-8.9Zm0-45.7-8.9-8.9v-4.8h8.9Zm0-15h-8.9v-4.8l8.9-8.9Zm0-45.7-8.9-8.8V96.9h8.9Zm0-14.9h-8.9V90.9l8.9-8.9Zm0-45.7-8.9-8.9V36.3h8.9Zm0-15h-8.9V30.2l8.9-8.9Zm-8.9-59.3h8.9v13.7l-8.9-8.9Zm-5.7,5.7h4.9l9.7,9.8V19.6l-9.7,9.7h-4.9Zm0,60.6h4.9l9.7,9.8V80.2L909.5,90h-4.9Zm0,60.6h4.9l9.7,9.8v28.4l-9.7,9.8h-4.9Zm0,60.7h4.9l9.7,9.8v28.4l-9.7,9.7h-4.9Z"/><path class="bk" d="M1175-25.6h-71.9V218.2H1165V204.6h10v13.6h1.2V-25.6Zm-66.2,236.8h-4.5V163.3h4.5Zm0-60.6h-4.5v-48h4.5Zm0-60.6h-4.5V42h4.5Zm0-60.7h-4.5V-18.6h4.5Zm6.4,187.7H1110v-4.9l5.2-5.2Zm0-11.8-5.8,5.8V163.6l5.8,5.8Zm0-37.6-5.2-5.2v-4.8h5.2Zm0-11.3H1110v-4.8l5.2-5.2Zm0-11.8-5.8,5.8V102.9l5.8,5.8Zm0-37.6-5.2-5.1V96.9h5.2Zm0-11.2H1110V90.9l5.2-5.2Zm0-11.8-5.8,5.8V42.3l5.8,5.8Zm0-37.6-5.2-5.2V36.3h5.2Zm0-11.3H1110V30.2l5.2-5.2Zm0-11.7-5.8,5.8V-18.3l5.8,5.8Zm0-37.6-5.2-5.2v-4.8h5.2Zm1.7,3.4,9.2,9.2V12.4l-9.2,9.2Zm0,60.7,9.2,9.2V73l-9.2,9.2Zm0,60.6,9.2,9.2v14l-9.2,9.3Zm0,60.6,9.2,9.3v14l-9.2,9.2Zm28.7,46h-28.7V205.3l10.1-10.1h14l4.6,4.6Zm0-19-3.7-3.7v-14l3.7-3.8Zm0-23.2-4.6,4.6h-14l-10.1-10.1V157.6h28.7Zm0-18.5h-28.7V144.6l10.1-10.1h14l4.6,4.6Zm0-19-3.7-3.7v-14l3.7-3.7Zm0-23.2-4.6,4.6h-14l-10.1-10.1V96.9h28.7Zm0-18.4h-28.7V84L1127,73.9h14l4.6,4.6Zm0-19-3.7-3.7V59l3.7-3.7Zm0-23.2-4.6,4.6h-14L1116.9,48V36.3h28.7Zm0-18.5h-28.7V23.4L1127,13.3h14l4.6,4.6Zm0-18.9-3.7-3.7V-1.7l3.7-3.7Zm0-23.2L1141-2.5h-14l-10.1-10.2V-24.3h28.7Zm3.5-17.2h8.9v4.8l-8.9,8.9Zm0,45.6,8.9,8.9V35h-8.9Zm0,15h8.9v4.8l-8.9,8.9Zm0,45.7,8.9,8.9v4.8h-8.9Zm0,14.9h8.9v4.9l-8.9,8.8Zm0,45.7,8.9,8.9v4.8h-8.9Zm0,15h8.9v4.8l-8.9,8.9ZM1158,217h-8.9V203.2l8.9,8.9Zm5.7-5.8h-4.8l-9.8-9.7V173.1l9.8-9.8h4.8Zm0-60.6h-4.8l-9.8-9.8V112.4l9.8-9.8h4.8Zm0-60.6h-4.8l-9.8-9.8V51.8l9.8-9.8h4.8Zm0-60.7h-4.8l-9.8-9.7V-8.8l9.8-9.8h4.8Zm11.3,174h-10V188.2h10Zm0-16.3h-10V171.9h10Zm0-16.4h-10V155.5h10Zm0-16.3h-10V139.2h10Zm0-16.4h-10V122.8h10Zm0-16.3h-10V106.5h10Zm0-16.4h-10V90.1h10Zm0-16.3h-10V73.8h10Zm0-16.4h-10V57.4h10Zm0-16.3h-10V41.1h10Zm0-16.4h-10V24.7h10Zm0-16.3h-10V8.4h10Zm0-16.4h-10V-8h10Zm0-16.3h-10V-24.3h10Z"/><polygon class="bl" points="1182.7 216.8 883.2 216.8 868.4 223.1 1191.1 223.1 1182.7 216.8"/><path class="bm" d="M1192.4,200.7l3.2,1.7h.1a4.8,4.8,0,0,1,1.7,6.5l-3.6,6a4.8,4.8,0,0,1-6.5,1.8l-3.2-1.8h0a1.1,1.1,0,0,1-.4-1.6l7.1-12.1A1.3,1.3,0,0,1,1192.4,200.7Z"/><path class="ae" d="M1191.3,210.6v10h-2.2v-10a1.1,1.1,0,0,1,1.1-1.1h0A1.1,1.1,0,0,1,1191.3,210.6Z"/><path class="bn" d="M1195.8,224h-11.2a3.4,3.4,0,0,1,3.4-3.4h4.5A3.4,3.4,0,0,1,1195.8,224Z"/><path class="bo" d="M876.2,201.1l7.1,12.1a1.1,1.1,0,0,1-.4,1.6h0l-3.2,1.8a4.9,4.9,0,0,1-6.5-1.8l-3.6-6a4.8,4.8,0,0,1,1.7-6.5h.2l3.1-1.7A1.3,1.3,0,0,1,876.2,201.1Z"/><path class="ae" d="M876.8,209.5h0a1.1,1.1,0,0,1,1.1,1.1v10h-2.2v-10A1.1,1.1,0,0,1,876.8,209.5Z"/><path class="bp" d="M874.6,220.6H879a3.4,3.4,0,0,1,3.4,3.4H871.2A3.4,3.4,0,0,1,874.6,220.6Z"/><path class="bq" d="M771.5,249.6c-.3.9-70.8,53.4-70.8,53.4H834.6l40.5-51.2-9.8-7H853.9l-65.9,6Z"/><path class="br" d="M810.2,149c0-.4-1-22.8-1-22.8s-.6-3.4,4-3.5,40.5-.6,40.5-.6,2.8-.3,2.8,4.3v23.4s-.1,1.9-1.6,2-43.3-.5-43.3-.5S810.3,151.3,810.2,149Z"/><path class="br" d="M758.9,148.7c0-.4,3-22.2,3-22.2s.4-3.5,4.5-3.4,35.8-.3,35.8-.3,2.5-.3,2.7,3,.6,23.2.6,23.2-.1,1.9-1.7,2-43.6,0-43.6,0S758.9,151.1,758.9,148.7Z"/><polygon class="bs" points="862.6 171.4 871 179.5 871.5 185 862.4 185 862.6 171.4"/><path class="bt" d="M861.6,122.6c-.2-6.9-3.7-6-3.7-6l-97.9.9c-3.6-.2-4.5,4.5-4.5,4.5l-8.9,62.6,94,1.5,22.2-1.7S861.7,129.5,861.6,122.6ZM803.8,151c-1.6.2-43.6,0-43.6,0s-1.3.1-1.3-2.3c0-.4,3-22.2,3-22.2s.4-3.5,4.5-3.4,35.8-.3,35.8-.3,2.5-.3,2.7,3,.6,23.2.6,23.2S805.4,150.9,803.8,151Zm52.7-1.2s-.1,1.9-1.6,2-43.3-.5-43.3-.5-1.3,0-1.4-2.3c0-.4-1-22.8-1-22.8s-.6-3.4,4-3.5,40.5-.6,40.5-.6,2.8-.3,2.8,4.3Z"/><path class="bu" d="M742.6,170.2s6.1-13.5,6.7-14.4,102.3,0,102.3,0,1.1-.1,1.6,1.5,5.9,19.9,5.9,19.9l-8.7,9.7-49.5,2.8-51.4-3.6-15.1-1.7Z"/><path class="bv" d="M756.5,134.9a4.3,4.3,0,0,0,1.7,1.8h0a8.3,8.3,0,0,0-.4,1.5c-.8,5.1,3.6,9.9,9.8,10.8h1.7l2.9-.2c4.2-.9,7.4-3.7,8-7.4a8.6,8.6,0,0,0,.1-1.6h0a4.2,4.2,0,0,0,2.1-1.2c1.8-1.7,1.8-4.9,0-5.9a2.4,2.4,0,0,0-2.1-.3h0l-.3-1.2-.3-.8a12.2,12.2,0,0,0-5.5-6.5,3.7,3.7,0,0,0-2.3-2.2h-.2l-.2.3-.4,1h-.6l-1.6-1.3-.2,1.4a11.9,11.9,0,0,0-7.2,4.6,1.8,1.8,0,0,0-.5.7,3.3,3.3,0,0,0-.6,1,2.4,2.4,0,0,0-2.1-.5C756.2,129.7,755.3,132.8,756.5,134.9Zm5-.8a3.7,3.7,0,0,0,.1,1.8.8.8,0,0,0,.2.5.8.8,0,0,1-.2-.5A3.7,3.7,0,0,1,761.5,134.1Z"/><path class="bw" d="M771.5,122.3c.3,0,.9.5,1.5,1.5a1.8,1.8,0,0,1,.5.7,18.1,18.1,0,0,1,2.8,8c.3,5-.2,10.6-2.4,13.4a11.8,11.8,0,0,1-4.6,3.4l2.9-.2c4.2-.9,7.4-3.7,8-7.4a8.6,8.6,0,0,0,.1-1.6h0a4.2,4.2,0,0,0,2.1-1.2c1.8-1.7,1.8-4.9,0-5.9a2.7,2.7,0,0,0-2.1-.3h0l-.3-1.2-.3-.8a12.2,12.2,0,0,0-5.5-6.5,3.7,3.7,0,0,0-2.3-2.2h-.3Z"/><path class="bx" d="M772.6,150.5a1.9,1.9,0,0,0,0-1.9c-.5-.9-4.5-1.9-5.6-2a11,11,0,0,0-3.8.3c-.7.2-.8,1.1-.8,1.1Z"/><path class="by" d="M774.5,149.7a52.3,52.3,0,0,0-8.8-2.7c-5.1-1.1-7,.3-7.2.7s-.5,2.4,0,2.5,5.7-.5,8,.5,4.5,2.3,5.1,3.2.6.6,1.1.4a16.1,16.1,0,0,0,2.8-2.4C775.9,151.4,775.8,150.8,774.5,149.7Z"/><path class="bz" d="M758.5,150.2a25.1,25.1,0,0,1,6.2-.2,15.1,15.1,0,0,1,8,4.3c.4.9.4,2.3,1.4,2.9s5.1,2.4,5.2,2.9-1.1,1.2-1.7,2.4-.6,14.2.1,17.8-29.5-.6-29.5-.6.8-18.9,1.5-21S756.4,150.4,758.5,150.2Z"/><path class="ca" d="M779.3,160.1s-2.2,1.8-2.4,2.6-.2,8.7-.4,9.5,4.8,6.1,4.8,6.1,6.3,1.5,8,0,2.7-5.1.3-6.8-7.4-8.4-8-9.3-2.1-2.3-2.3-2.1"/><path class="cb" d="M778.5,177.1s1.3-6.7-4-6.8-39.8,0-39.8,0-4.9.4-5,5.4,5.3,3.5,5.3,3.5l43.6.8Z"/><path class="cc" d="M767.9,173.3a10.4,10.4,0,0,1,3.5,1.4c1.1.9,2.7,2.9,2.4,3.3a2.4,2.4,0,0,1-2,.3c-.2-.3-3.7-3.5-4.3-3.6S767.5,173.2,767.9,173.3Z"/><path class="cd" d="M747.6,118.5a3.9,3.9,0,0,0,1.7,1.7c0,.1-.1.1-.1.2a8.8,8.8,0,0,0-.5,1.5c-.9,5,3.3,10,9.4,11.2h.1l1.6.2a13.7,13.7,0,0,0,2.9-.2c4.2-.6,7.6-3.3,8.3-7a4.2,4.2,0,0,0,.1-1.6h0a4.7,4.7,0,0,0,2.2-1c1.9-1.7,2-4.9.3-6a2.4,2.4,0,0,0-2.1-.3h-.1a3.6,3.6,0,0,0-.2-1.1,2.9,2.9,0,0,0-.2-.9,12.2,12.2,0,0,0-5.3-6.7c-.1-.2-.6-1.9-2.1-2.3h-.3v.3l-.5,1.1h-.6l-1.5-1.4-.3,1.5a11.4,11.4,0,0,0-7.4,4.2l-.6.7-.6,1a2.5,2.5,0,0,0-2.1-.6C747.6,113.2,746.5,116.2,747.6,118.5Zm5-.7a5.4,5.4,0,0,0,0,1.8,1.4,1.4,0,0,1,.2.6,1.4,1.4,0,0,0-.2-.6A5.4,5.4,0,0,1,752.6,117.8Z"/><path class="ce" d="M763.2,106.4a4.7,4.7,0,0,1,1.4,1.6,5.6,5.6,0,0,1,.5.8,19.3,19.3,0,0,1,2.4,8.1c.1,4.9-.6,10.5-3,13.3a11.1,11.1,0,0,1-4.7,3.1,9.3,9.3,0,0,0,2.9-.1c4.2-.6,7.6-3.3,8.3-7a4.2,4.2,0,0,0,.1-1.6h0a4.7,4.7,0,0,0,2.2-1c1.9-1.7,2-4.9.3-6a2.4,2.4,0,0,0-2.1-.3h-.1a3.6,3.6,0,0,0-.2-1.1,2.9,2.9,0,0,0-.2-.9,12.2,12.2,0,0,0-5.3-6.7,3.8,3.8,0,0,0-2.1-2.3h-.3Z"/><path class="cf" d="M778.8,123.4a17.4,17.4,0,0,1-10.7,12.1c-3.4,1.3-19.6-3.3-22.1-7a17.2,17.2,0,0,1-2.5-13.5c2.3-9.3,12-15,21.7-12.7S781,114.1,778.8,123.4Z"/><path class="cg" d="M774.4,128.4c.2,0,.4,0,.5-.2s5.6-8.7.5-17.4a.5.5,0,0,0-.7-.1c-.2.1-.2.4-.1.6,4.8,8.1-.4,16.3-.5,16.4a.4.4,0,0,0,.2.6Z"/><path class="cg" d="M773.7,109.8h.4a.5.5,0,0,0,.1-.7l-1.6-1.8a.5.5,0,0,0-.7.7l1.6,1.7C773.5,109.7,773.6,109.7,773.7,109.8Z"/><path class="ch" d="M746.2,130.5a4.3,4.3,0,0,1,.4-1.4c.3-.5,4-2.1,6.7-2.2s6.5,2.1,7.8,3.6a18.8,18.8,0,0,1,2.9,3.8c.2.7.2,1.2-.2,1.4s-9.3-2.5-9.3-2.5Z"/><path class="ci" d="M745.1,132s-.1-1.1.7-1.4,2.5-1.2,6.6-.6,8.5,2.6,10.6,4.6,1.9,2.1,1.8,2.5-.7.5-.7.5l-7-1.8Z"/><path class="cj" d="M723.1,159.2a33.3,33.3,0,0,1-3.9,5.3c-2.2,2.6-3,8.5-3.2,9.8s-1.5,3-4.1,2.6-4.1-1-4.5-2.9.5-13.4,1.2-16.3,5-7.5,5.9-8.2a8.9,8.9,0,0,1,4.4-1.5C720.1,148.1,723.8,155.8,723.1,159.2Z"/><path class="ck" d="M742.2,133.3l-4.9,1.4c-2.1.6-7.6,6.3-8.8,7.6s-5.1,3.5-5.9,4-3.9,1.4-4.7,2.6,2.5,9.9,4.3,10.3,4.7-1.3,6.1-3,15.2-19.7,15.2-19.7l-1.3-3.2"/><path class="cl" d="M722.2,176.7s2.4-2.8,2-4.2a12,12,0,0,1,.7-7.5c1.4-2.4,2.8-9.9,2.9-14.3s4.8-12.1,10.4-15.1,6.9-4.8,13.1-3.9,9.6,2.1,12.4,5,3.7,9.5,1.6,12.9-8.5,16.7-8.5,19.5-.7,8.9-.7,8.9S727.8,180.9,722.2,176.7Z"/><polygon class="cm" points="751.3 170 757.3 170.5 756.8 176.2 750.5 176 751.3 170"/><path class="cn" d="M753.4,130.3l-23.1-5.9a3.3,3.3,0,0,0-4.1,2.8l-5.4,46a3.3,3.3,0,0,0,2.4,3.8l23.3,6.9a3.4,3.4,0,0,0,4.3-2.9l5.2-47A3.6,3.6,0,0,0,753.4,130.3Z"/><polyline class="co" points="743.4 183 739.5 183.5 723.4 178.9 722.8 176.8 724.6 162 729.8 147.6 738.7 148.8 741.7 164.2 738.9 180.4 743.4 183"/><polygon class="cp" points="752.5 128.8 746.1 127.3 742.8 129.7 749 131.4 751.6 129.9 753.5 130.3 752.5 128.8"/><polygon class="cq" points="736.5 124.9 730.9 123.6 728.1 126.2 733.5 127.1 735.7 125.8 737.5 126.2 736.5 124.9"/><ellipse class="cr" cx="746.8" cy="129.3" rx="0.6" ry="1.2" transform="translate(484.4 840.3) rotate(-79.6)"/><ellipse class="cs" cx="730.7" cy="165.9" rx="8.1" ry="4.4" transform="translate(435.2 854.4) rotate(-79.6)"/><ellipse class="ct" cx="730.4" cy="165.8" rx="7.3" ry="3.9" transform="translate(435 854.1) rotate(-79.6)"/><ellipse class="cu" cx="730.2" cy="165.8" rx="6.8" ry="3.2" transform="translate(434.9 853.9) rotate(-79.6)"/><ellipse class="cv" cx="731.3" cy="125.5" rx="0.5" ry="1.1" transform="translate(475.4 821.9) rotate(-79.6)"/><path class="cw" d="M753.4,130.3l-1.5-.4c-.6,5.2-6.6,51.5-6.9,53.6l1.5.4a3.4,3.4,0,0,0,4.3-2.9l5.2-47A3.6,3.6,0,0,0,753.4,130.3Z"/><path class="cx" d="M707.8,180.8a10.3,10.3,0,0,0-2,1.1,3.7,3.7,0,0,0-.8,2,1.7,1.7,0,0,0,1.4,1.4c.8.2.5-1.4.9-2S709.6,181.7,707.8,180.8Z"/><path class="cy" d="M715,176.1a4.3,4.3,0,0,0-.1,2.5c.3,1.2,1.9,3.7.6,4.8s-6.7.5-7.6.5-.9-2.2,0-3.2.9-3.9,1-4.7S714.3,174.7,715,176.1Z"/><path class="cz" d="M796.6,176.2s-.8-4.9,3.6-5h41.9s3.4-.4,3.5,1.5-8,11.7-8,11.7h-14Z"/><path class="da" d="M812.2,136.8a5.2,5.2,0,0,0,2.1,1.7h0a5.7,5.7,0,0,0-.3,1.8c-.3,5.6,5.1,10.5,12,10.9h1.9a11.9,11.9,0,0,0,3.2-.5c4.5-1.4,7.8-4.8,8-9a10.9,10.9,0,0,0-.1-1.8h0a4.1,4.1,0,0,0,2.2-1.5c1.9-2.1,1.5-5.6-.6-6.6a2.6,2.6,0,0,0-2.3,0h-.1l-.4-1.2-.4-.9a13.1,13.1,0,0,0-6.8-6.5,3.5,3.5,0,0,0-2.7-2.2h-.3v.4l-.4,1.2h-.6l-1.9-1.3-.2,1.6a13.4,13.4,0,0,0-7.4,5.9,2.2,2.2,0,0,0-.5.8l-.6,1.1a2.5,2.5,0,0,0-2.3-.2C811.4,131,810.6,134.5,812.2,136.8Zm5.4-1.5a6.9,6.9,0,0,0,.3,2l.3.5-.3-.5A6.9,6.9,0,0,1,817.6,135.3Z"/><path class="db" d="M827.5,121.2c.3,0,1,.5,1.8,1.5l.6.7a20.1,20.1,0,0,1,3.9,8.6c.8,5.4,1,11.7-1.2,15a11.9,11.9,0,0,1-4.7,4.2,11.9,11.9,0,0,0,3.2-.5c4.5-1.4,7.8-4.8,8-9a10.9,10.9,0,0,0-.1-1.8h0a4.1,4.1,0,0,0,2.2-1.5c1.9-2.1,1.5-5.6-.6-6.6a2.6,2.6,0,0,0-2.3,0h-.1l-.4-1.2-.4-.9a13.1,13.1,0,0,0-6.8-6.5,3.5,3.5,0,0,0-2.7-2.2h-.3Z"/><path class="dc" d="M804,131.5a22,22,0,0,0,7.8,18.9c3.4,2.9,24.8,4.2,29.3.8a21.1,21.1,0,0,0,8.5-15c1.2-12.1-7.9-22.9-20.5-24.2S805.3,119.4,804,131.5Z"/><path class="cg" d="M821.9,114.3l.5-.5c.1,0,12.9-2.7,20.7,7.3a.6.6,0,0,1-.9.7c-7.4-9.4-19.4-6.9-19.5-6.8s-.7-.2-.7-.5S821.9,114.4,821.9,114.3Z"/><path class="cg" d="M843.6,123.5c0-.2.2-.3.3-.4a.5.5,0,0,1,.8.2l1.4,2.7a.6.6,0,0,1-.3.8c-.3.2-.6,0-.8-.3l-1.3-2.6A.6.6,0,0,1,843.6,123.5Z"/><path class="dd" d="M843,152.2s.2-2.1-.6-2.6a114.1,114.1,0,0,0-17.3-4.5c-4.8-.6-11.5,3.4-13,4.2s-1.8,1.2-1.6,2.4,12.2.8,14,1.3S841.5,155.2,843,152.2Z"/><path class="de" d="M845.5,156.3a6.8,6.8,0,0,0,.2-2.9c-.2-1.2-11.5-2.8-15-3.3s-15.6,0-20,1.3c-2.6.6-2.4,2.7-2,3.4s5.6,1.6,13.3,1.5a146.1,146.1,0,0,1,18.2,1.2C844.2,158,845.5,158.7,845.5,156.3Z"/><path class="df" d="M807,155.8a73.3,73.3,0,0,1-8.3,3c-3.6,1.1-6.5,8.9-8,11.6s-6.4,12.1-6,13.4,1.9,2.3,5.9,2.5,4.8,0,6.2-.8,6.1-8.2,6.3-8.7S816.5,158.5,807,155.8Z"/><path class="dg" d="M847.7,181.4s.7-23-.8-24.5-24.8-5.6-38.2-2.1c0,0-4,1.2-5.1,8.2s-1.2,21.3-1.2,21.3Z"/><path class="dh" d="M805.1,185.9s1.8-34.3,2.7-36,1.6-1.9,3.1-2l28.6-.5c.9,0,1.9.9,2,2.9s2.2,35,2.2,35Z"/><path class="di" d="M837.7,147.4h1.8s1.8-.1,2.3,3,2.3,34.8,2.3,34.8h-4.3Z"/><polygon class="dj" points="836.8 147.5 836.4 148.8 829.7 149 829.1 147.6 830.7 145.7 838 145.7 839 147.4 836.8 147.5"/><polygon class="dk" points="818.1 147.8 817.7 149.2 811 149.4 810.5 147.9 812 146.1 819.4 146.1 820.3 147.7 818.1 147.8"/><ellipse class="dl" cx="814.6" cy="146.8" rx="1.4" ry="0.3" transform="translate(-5.2 32.4) rotate(-2.3)"/><ellipse class="dm" cx="833.4" cy="146.5" rx="1.4" ry="0.3"/><path class="dn" d="M714.1,249.4c0,19.3,5.1,31.4,13.6,34.9,1.9,0,8.6-.6,10.6-2.4,5.9-5.3,8.3-18,8.3-32.5s-.7-27.7-6.5-33.1c-2-1.9-11.3-1.4-13.2-1.4C719.3,219.5,714.1,230.1,714.1,249.4Z"/><path class="do" d="M745,255.6s11,4.7,16.9,0,9.7-3.8,11.7-2.1,8.6,11.7,25.2,5.2,26.4-3.8,26.4-3.8l3-20.5-83.2.3Z"/><polygon class="dp" points="833.7 233.1 820 239.8 707.8 235.5 702.8 229.6 833.7 233.1"/><path class="dq" d="M823.6,254.4c0,19.3,5.1,31.4,13.6,34.9,1.9,0,8.6-.6,10.6-2.3,5.9-5.3,8.3-18.1,8.3-32.6s-.7-27.7-6.5-33.1c-2-1.9-11.3-1.3-13.2-1.3C828.8,224.5,823.6,235.1,823.6,254.4Z"/><path class="dr" d="M842.8,255.1c0,14.6,1.3,26.9,4.9,26.9s6.6-11.8,6.6-26.4-1.6-27.9-5.2-27.9S842.8,240.6,842.8,255.1Z"/><path class="ds" d="M842.8,255.1c0,10.7.9,19.7,3.4,19.7s4.4-8.7,4.4-19.4-1-20.5-3.5-20.5S842.8,244.3,842.8,255.1Z"/><path class="dt" d="M842.8,250.8l5.7,1.1v6.8l-5.7.6v-.7a26.1,26.1,0,0,1,0-4v-3.8Z"/><ellipse class="du" cx="848.5" cy="255.2" rx="1.3" ry="3.4"/><path class="dv" d="M859.9,230.7c0,13.8,3.7,22.4,9.7,24.9,1.3,0,6.1-.5,7.5-1.7,4.2-3.8,5.9-12.8,5.9-23.2s-.4-19.6-4.6-23.5c-1.4-1.3-8-.9-9.4-.9C863.6,209.5,859.9,217,859.9,230.7Z"/><path class="dw" d="M873.6,231.3c0,10.3.9,19,3.5,19s4.6-8.3,4.6-18.7-1.1-19.8-3.6-19.8S873.6,220.9,873.6,231.3Z"/><path class="dx" d="M873.6,231.2c0,7.6.6,14.1,2.4,14.1s3.1-6.2,3.1-13.8-.7-14.6-2.5-14.6S873.6,223.6,873.6,231.2Z"/><path class="dy" d="M873.6,228.2l4,.8v4.8l-4,.5v-.5a13.7,13.7,0,0,1,0-2.9v-2.7Z"/><ellipse class="du" cx="877.6" cy="231.4" rx="0.9" ry="2.4"/><polygon class="dz" points="833.7 233.1 702.8 229.6 702.8 183.2 833.7 184.5 833.7 233.1"/><polygon class="ea" points="833.7 184.5 871.5 185 871.5 206.5 867 233.1 853.8 238.1 833.7 233.1 833.7 184.5"/><path class="eb" d="M872,168.9l3.3-.4c.8,0,1.1,0,1.2.4a7,7,0,0,1-2.1,2.1C873.9,171.1,871.5,169.8,872,168.9Z"/><path class="ec" d="M874.5,170.2a11.9,11.9,0,0,1,2.7-1.9,2.2,2.2,0,0,1,2.1.4,1.5,1.5,0,0,1,.3,1.5c-.2.3-.3.9-.6,1.1l-2.8,1.2C875.8,172.5,874.3,171,874.5,170.2Z"/><path class="ed" d="M876.5,172.2a11.9,11.9,0,0,1,2.1-1.2,3.3,3.3,0,0,1,2.1.4c.7.4.3,2.2,0,2.5a15.1,15.1,0,0,1-3.7.6C876.5,174.4,876.6,172.4,876.5,172.2Z"/><path class="ee" d="M877.2,174.3a14.5,14.5,0,0,1,2.7-.5c1,0,1.7.3,1.8.8s.1,1.6-.3,1.7-3.2.2-3.9.6S876.5,174.7,877.2,174.3Z"/><path class="ef" d="M867.1,174.3s.6-2.9,1.7-3.8,2.3-2.3,4.2-1.3,4.2,2.9,4.2,5.1,1.2,2.6-.8,4.8a7.5,7.5,0,0,1-4.1,2.3S867.4,178.6,867.1,174.3Z"/><path class="eg" d="M866.2,173.8a16.2,16.2,0,0,1,4.2.8c1.8.6,4.7.8,4.7,4.4s.2,4.7-1.4,6.2-5.4,4.7-6.5,4.9a7.7,7.7,0,0,1-7.6-2.3c-3.4-3.3-2.3-5,.8-8.1S864.2,173.8,866.2,173.8Z"/><path class="eh" d="M846.9,156.9s4.1-.4,7,1.7,10.8,13.2,12.6,15.5-.6,11.2-5.5,13.4-13.5-9.1-14.1-9.9S840,159.8,846.9,156.9Z"/><circle class="ei" cx="710.4" cy="222" r="3.7"/><circle class="ej" cx="710.2" cy="222" r="3"/><circle class="ek" cx="710.2" cy="222" r="2.8"/><circle class="el" cx="829.9" cy="225.7" r="3.7"/><circle class="ej" cx="829.6" cy="225.7" r="3"/><circle class="em" cx="829.6" cy="225.7" r="2.8"/><polygon class="en" points="697.5 227.9 697.4 239.2 727.4 240.8 727 228.5 697.5 227.9"/><polygon class="ej" points="698 228.5 698 238.8 726.5 240 726.1 229 698 228.5"/><polygon class="eo" points="698.4 228.9 698.4 238.5 725.5 239.6 725.1 229.4 698.4 228.9"/><path class="ep" d="M833.5,204c0,18.8,5.1,30.7,13.3,34.1,1.8,0,8.4-.6,10.3-2.3,5.8-5.2,8.2-17.7,8.2-31.8s-.7-27.1-6.4-32.3c-2-1.9-11-1.3-12.9-1.3C838.6,174.8,833.5,185.1,833.5,204Z"/><path class="eq" d="M852.2,204.7c0,14.2,1.4,26.2,4.9,26.2s6.4-11.5,6.4-25.7S862,178,858.4,178,852.2,190.5,852.2,204.7Z"/><path class="er" d="M852.2,204.6c0,10.5,1,19.3,3.4,19.3s4.3-8.4,4.3-18.9-1-20-3.4-20S852.2,194.2,852.2,204.6Z"/><path class="es" d="M852.3,200.5l5.6,1v6.7l-5.6.6v-.7c-.1-.8-.1-2.3-.1-3.9a18.6,18.6,0,0,0,.1-2.2Z"/><ellipse class="du" cx="857.9" cy="204.8" rx="1.3" ry="3.3"/><path class="et" d="M866.6,197.4s-1,1.1-.3,2,5.2,2.1,5.2,2.1v2.9s8.9-2.5,10.9-3.5,1.2-2.8,1-3.5-3.9-.3-5.5-.4l-6.4-.2A28.8,28.8,0,0,0,866.6,197.4Z"/><path class="eu" d="M716.7,184.1v37.6a1.8,1.8,0,0,0,1.7,1.7l99.7,2.8a1.8,1.8,0,0,0,1.8-1.7l.8-40.4a1.8,1.8,0,0,0-1.8-1.7H718.5A1.7,1.7,0,0,0,716.7,184.1Z"/><path class="ev" d="M718.8,185.6v35a1.3,1.3,0,0,0,1.2,1.3l96.6,2.5a1.2,1.2,0,0,0,1.2-1.2l.8-37.5a1.2,1.2,0,0,0-1.2-1.3H720A1.3,1.3,0,0,0,718.8,185.6Z"/><path class="ew" d="M722.9,189.4v26.3a1,1,0,0,0,1.1.9l88.8,3.2a1,1,0,0,0,1.2-.9l.5-29.5a1.1,1.1,0,0,0-1.1-1H724.1A1.1,1.1,0,0,0,722.9,189.4Z"/><path class="ex" d="M722.6,221.9s0,2.3.3,2.5,9.6.9,10.5.6-.6-1.4-.5-2.8Z"/><path class="ey" d="M800.3,224s.1,2.4.5,2.6,9.6.9,10.4.6-.5-1.5-.4-2.9Z"/><path class="ez" d="M711.6,183.3s-2.7-7.9,2.4-7.7,111.9,0,111.9,0,3,1.1,3.6,8.8Z"/><path class="fa" d="M766.8,175.9s3.9.6,4.4,1.1,1.3.1,1.6-.2.5-1.2.4-1.3l-2-1.1a21.5,21.5,0,0,0-4-.4A2,2,0,0,0,766.8,175.9Z"/><path class="fb" d="M766,176.8a8.1,8.1,0,0,1,2.5.5c.8.4,1.4.6,1.5.9s1.3-.1,1.5-.7a1.5,1.5,0,0,0-.3-1.3l-4.1-1.4A1.6,1.6,0,0,0,766,176.8Z"/><path class="fc" d="M761,177.2l2.1,2a2.1,2.1,0,0,0,2.1.7.7.7,0,0,0,.3-1.1c-.2,0-1.3-1.3-1.3-1.3S761.7,175.5,761,177.2Z"/><path class="fd" d="M759.7,172.1s4.6.8,5.5.8,3.2-.1,3.1,1-2.6,3.6-4.3,3.6-8.2-1.9-9.4-2.6,1.8-.2.6-.7S757.8,171.2,759.7,172.1Z"/><path class="fe" d="M760.8,160.3s.3.2-.2,2.4-.3,3.4.3,5.7a6.2,6.2,0,0,1-.4,4.7,7.7,7.7,0,0,1-5.5,2.5c-2.2-.1-3.6-4.4-3.4-6.4s-.8-6.6-.8-8.3,0-6.1,1.2-6.2S759,156.1,760.8,160.3Z"/><path class="ff" d="M763.1,136.2s4.7,4.7,4.8,7.7-1.9,9.7-3.4,11.3-3.7,4.5-3.8,5.4-2.7,2-5.6,1.1-3.7-4-3.5-5.7,3.9-10.4,4.1-12.6,1.8-5.7,3.2-6.3S760.4,134.9,763.1,136.2Z"/><polygon class="u" points="332.4 208.7 422.4 208.8 368.8 303 214.7 303 332.4 208.7"/><polygon class="v" points="459.3 47.6 440.7 54.2 423 71.2 382.7 87.9 358.2 108.9 334.2 146.6 285.9 170.2 268.4 223.5 267.2 265.9 309.7 281.4 336.9 266.9 355.2 272.7 410.2 271.2 418.7 264.7 458.5 265.6 457.9 262.2 459.3 47.6"/><polygon class="y" points="457.9 81.7 452.4 83.4 440.9 79.7 431.7 73.8 423 71.2 382.7 87.9 357.1 110.6 372.7 137.6 419.2 143.7 445.4 127.3 457.9 189.7 457.9 81.7"/><polygon class="bi" points="457.9 190.7 452.2 207.5 440.9 227.3 435.9 242.7 426.7 260.9 423.5 264.8 480.7 267 457.9 190.7"/><rect class="fg" x="-364.5" y="-4.1" width="985.9" height="306.62"/></g></g></svg>