<svg xmlns="http://www.w3.org/2000/svg" viewBox="0 0 642.8 687.54"><defs><style>.cls-1{isolation:isolate;}.cls-2{fill:#dfdbd6;}.cls-3{fill:#c7c0b9;}.cls-4{fill:#c5813d;}.cls-5{fill:#e5e4e3;}.cls-16,.cls-6{fill:#fff;}.cls-7{fill:#dab187;}.cls-8{fill:#f4f4f4;}.cls-9{fill:#9d3c35;}.cls-10{fill:#792b27;}.cls-11{fill:#e7bd44;}.cls-12{fill:#c49c36;}.cls-13{fill:#2d5554;}.cls-14{fill:#1e3938;}.cls-15{fill:#c1966f;}.cls-16{mix-blend-mode:soft-light;}.cls-17{fill:#976856;}.cls-18{fill:#f0dcb8;}.cls-19{fill:#4c403f;}.cls-20{fill:#d56c71;}.cls-21{fill:#5b535f;}.cls-22{opacity:0.31;}.cls-23,.cls-24{fill:none;stroke-linecap:round;stroke-miterlimit:10;}.cls-23{stroke:#e5e4e3;stroke-width:1.73px;}.cls-24{stroke:#c5813d;stroke-width:3.47px;}.cls-25{fill:#918b85;}</style></defs><g class="cls-1"><g id="Capa_3" data-name="Capa 3"><path class="cls-2" d="M0,687.54c.3-5.58.69-12.6,1.27-21,.84-11.76,2-26.18,4.38-43,1.21-8.38,2.69-17.33,4.79-26.78.48-2.36,1.09-4.75,1.67-7.17.29-1.21.59-2.43.88-3.65l1-3.85c.7-2.57,1.42-5.32,2.13-7.46.36-1.15.71-2.3,1.07-3.46l.54-1.74a2.86,2.86,0,0,1,.19-.6l.08-.23.16-.46.32-.91A422.22,422.22,0,0,1,44.47,505.8a463.08,463.08,0,0,1,39.15-62.6A497.34,497.34,0,0,1,135,384.15l7.21-6.91c1.21-1.15,2.38-2.32,3.63-3.46l3.78-3.4,7.56-6.81c2.51-2.18,5-4.21,7.47-6.33,10.23-8.75,20.94-16.94,31.85-24.77a612,612,0,0,1,67.87-41.62c11.63-6.28,23.16-11.65,33.8-17.56,13.72-7.62,21.54-15.83,31.75-26.51,4.23,5.79,6.8,13.52,9.68,20.5.88,2.15-28.87,21.92-31.07,23.35-11,7.08-22.23,13.25-32.81,19.94a585.45,585.45,0,0,0-62.25,44.14c-9.81,8.08-19.34,16.44-28.33,25.25-2.33,2.25-4.74,4.52-7,6.76l-6.46,6.67-3.22,3.31c-1.07,1.12-2.12,2.31-3.17,3.45l-6.3,6.91a460.74,460.74,0,0,0-44,57.89,421.45,421.45,0,0,0-31.81,59.34,375.77,375.77,0,0,0-19.49,56.47l-.23.83-.11.42-.06.21c0-.1-.15.5.05-.17L63,583.82c-.28,1.18-.56,2.36-.84,3.52-.62,2.47-.95,4.35-1.35,6.34-.19,1-.39,2-.59,2.94s-.35,2.09-.53,3.12c-.34,2.06-.73,4.08-1,6.13-1.25,8.1-2,16-2.58,23.39-1.13,14.88-1.3,28.21-1.34,39.3,0,7.36,0,13.74.11,19Z"/><path class="cls-3" d="M340.16,272.27s-8.08,3.08-21.71,9.55a581.28,581.28,0,0,0-54.82,29.87c-11,6.75-22.68,14.44-34.69,23s-24.32,18.13-36.59,28.49S167.94,384.9,156.2,397a468.21,468.21,0,0,0-33.34,38.41,412.47,412.47,0,0,0-28.42,41.92,365.11,365.11,0,0,0-22,43.59,359.66,359.66,0,0,0-15,42.92,343.85,343.85,0,0,0-8.64,39.71c-1.08,6.19-1.69,12.2-2.43,17.87q-.39,4.29-.75,8.34c-.26,2.7-.49,5.32-.6,7.88-.27,5.1-.6,9.86-.62,14.28s-.23,8.47-.11,12.14.1,6.93.14,9.78.25,5.26.34,7.23c.19,3.92.35,6.52.35,6.52H20.16s0-1.71,0-5.88c0-2.09,0-4.65,0-7.67s.2-6.49.32-10.38.4-8.19.7-12.86S22,641,22.49,635.64c.24-2.7.6-5.47,1-8.32l1.2-8.79c1-6,2-12.3,3.43-18.8a362.52,362.52,0,0,1,11-41.51,378.06,378.06,0,0,1,42.79-88.71,426.66,426.66,0,0,1,31.28-42,482.29,482.29,0,0,1,35.91-37.79c12.53-11.75,25.4-22.68,38.29-32.66s25.78-19,38.3-27.14,24.61-15.33,36-21.61A582.68,582.68,0,0,1,318,280.85C332,275,340.16,272.27,340.16,272.27Z"/><path class="cls-4" d="M374.46,407l-51.39-8.45a52.15,52.15,0,0,1-42.88-59.74L301.7,207.91A52.16,52.16,0,0,1,361.44,165l51.39,8.45a52.15,52.15,0,0,1,42.88,59.74L434.2,364.13A52.16,52.16,0,0,1,374.46,407Z"/><path class="cls-4" d="M325,528.07c-3.25-12.06-6.56-20.58-4.51-33,1.59-9.67,6-15.85-7.58-21.39a27.62,27.62,0,0,0-7.7-1.87,27.67,27.67,0,0,1,4.06,1.27c13.58,5.54,9.18,11.72,7.58,21.39-2.05,12.41,1.26,20.94,4.51,33,2.53,9.42,2.09,21.36-6.13,26.62-3.8,2.43-8.55,2.86-13,2.37,1,.23,2.1.41,3.17.55,4.62.58,9.58.19,13.51-2.32C327.13,549.44,327.57,537.5,325,528.07Z"/><path class="cls-5" d="M321.4,527.48c-3.25-12.06-6.56-20.59-4.51-33,1.6-9.67,6-15.85-7.58-21.39a27.67,27.67,0,0,0-4.06-1.27,30.09,30.09,0,0,0-22.8,4A33.1,33.1,0,0,0,268,498.91c-1.57,11.37,2.54,22.67,6.58,33.41,1.52,4,3.07,8.11,5.52,11.66,4.88,7,13.12,11.37,21.62,12.44l.47.05c4.49.49,9.24.06,13-2.37C323.49,548.84,323.93,536.9,321.4,527.48Z"/><path class="cls-6" d="M273,406.4c-5.54,10.72-14.3,19-19.18,29.75-6.84,15.1-10.09,32.65-11,49.12-.43,7.86-.22,16,2.78,23.24s9.26,13.62,17,14.81c4.24.65,8.56-.24,12.65-1.52A68.81,68.81,0,0,0,306,502a160.07,160.07,0,0,0,20-27.55c5.14-9.26,9.12-17,20-20.69,10.63-3.63,22.25-.56,33.11,2.35,4.68,1.25,9.53,2.49,14.31,1.74,8.32-1.31,14.49-8.21,19.64-14.87,11.67-15.11,33.42-40.62,32.4-61-.75-15-17.61-23-31.87-27.8C392,347,373,342.7,350.76,339.05c-14.77-2.42-28.6-7.29-43.72-9.5a3.9,3.9,0,0,0-2.12.09,3.55,3.55,0,0,0-1.55,1.85c-2.81,5.89-3,12.65-5,18.86-3.4,10.6-11.71,18.74-15.27,29.24C280,388.74,277.6,397.47,273,406.4Z"/><path class="cls-4" d="M258.93,486.21c2.58,1.67,4.52,4.15,7,6,4.51,3.34,10.31,4.22,15.7,5.8s11,4.45,13,9.73A11,11,0,0,1,291,519.87c-3.95,3-9.33,2.88-14.18,3.89-2.47.51-4.88,1.35-7.37,1.71C260.83,526.73,252,522,246.92,515c-4-5.55-8.91-17.2-6.66-24.28S253.42,482.64,258.93,486.21Z"/><path class="cls-7" d="M243.43,503.65c.89,2.07,3.11,3,4.88,4.2l1.15.63A42.71,42.71,0,0,0,272,513.64a46.42,46.42,0,0,0,10.38-1.72c-10.48,5.3-23.87,4.07-33.53-2.47l-1.11-.77c-1.68-1.39-3.86-2.75-4.33-5Z"/><path class="cls-7" d="M248.67,515a40.46,40.46,0,0,0,34.25,2.45c-10.2,6.73-25.11,5.65-34.25-2.45Z"/><path class="cls-7" d="M277.6,457.8c-3.17-.85-6.38-1.88-9-3.92a20,20,0,0,1-5.39-7.46,34.23,34.23,0,0,1-2.51-22c-4,2.61-6,7.56-6.17,12.33s1.1,9.47,2.39,14.06c1.63,5.83,3.57,12.1,8.47,15.64,3.06,2.21,6.89,3,10.62,3.62a112.42,112.42,0,0,0,39.86-.93c8.93-1.83,18.59-2.31,25.46-9,.56-.55,1.12-1.4.67-2-4.78,1.92-10.21,1.29-15.25,1.93-3.77.48-7.56,1.49-11.36,1.7A120.71,120.71,0,0,1,277.6,457.8Z"/><path class="cls-7" d="M383.84,399.16c-4.59,9.7-7.12,20.23-11.06,30.21s-9.67,19.78-18.75,25.49c6.09,1.33,12.5-1.66,16.75-6.23s6.66-10.5,8.68-16.4c3.19-9.36,5.58-19,9.36-28.12a64.78,64.78,0,0,1,9.82-16.9c2.27-2.71,13.51-9.82,10.47-13.47C402.76,366.1,385.79,395.06,383.84,399.16Z"/><path class="cls-8" d="M397.73,389.7c2.8-7.4,6.83-14.49,12.91-19.53,6.5-5.38,15.67-8,23.64-5.25,8.93,3.12,14.41,12,18.31,20.64,9.72,21.54,8.53,42.24,13.6,64.38,7.67,33.5,17.79,82.5-13.51,107.69-13.31,10.71-36.9,5.81-44.64-9.42-2.49-4.91-3.3-10.48-4.07-15.94l-3.24-22.84c-.55-3.88-1.48-7.9-1.65-11.82-.11-2.69.24-5.53-2-7.61a19.93,19.93,0,0,0-1.88-1.4c-3.32-2.47-4.69-6.86-4.7-11s1.13-8.17,1.91-12.22c1.05-5.43.6-11.12.08-16.58-.62-6.5-1-13-1.08-19.55-.07-12.87,1.41-25.84,5.73-38C397.35,390.73,397.54,390.21,397.73,389.7Z"/><path class="cls-5" d="M401.59,562.8c.14-21.81,3-40.82-3.15-61.74a22.11,22.11,0,0,1-1.36-6.82,18.78,18.78,0,0,1,2.14-7c4.15-9.12,8.44-18.34,15-25.94s15.65-13.53,25.66-14c-7.5,7.46-9,19.49-10.92,29.88q-4,21.29-8,42.57C417.6,537.29,415.57,551.74,401.59,562.8Z"/><path class="cls-4" d="M466.79,555.9,463,550.31l3.6-7.62,4.6-58.3a11.2,11.2,0,0,1,.5-1.89l5.85-22.1,7.08-26.77,1.17-4.42a9.74,9.74,0,0,0,.72-2.7c-.22-2-6.82-3.52-8.67-3.95a23.72,23.72,0,0,0-11.48-.06,39.4,39.4,0,0,0-4.95,1.77,56.16,56.16,0,0,0-13.69,8.41,76,76,0,0,0-15.17,17.23,119.83,119.83,0,0,0-13.51,29.21,214.75,214.75,0,0,0-8.73,44.37s-2.86,23.07-7.08,29c0,0-8.76,23.11,13.84,31.51Z"/><path class="cls-7" d="M435.38,457.41a118,118,0,0,1,13.9-19.73c3.77-4.32,6.49-8.52,11.83-10.72,12.77-5.27,29-3.31,38.3,6.88,10,10.91,9.92,27.59,7.21,42.12a156.93,156.93,0,0,1-32.78,70.35,217.29,217.29,0,0,1-59.1-18.63c1.93-12,3.62-24,6.82-35.77A149.57,149.57,0,0,1,435.38,457.41Z"/><path class="cls-7" d="M464,556.32c1-.1,1.9-.24,2.81-.42-1.81,6.73-8.14,13.9-12.14,19.6-6.57,9.39-19.89,10.73-31.16,9.76-4.14-.35-8.39-1.44-11.51-4.19-10.58-9.36-3.71-28.18.15-39.12C424.4,549.44,448.57,558,464,556.32Z"/><path class="cls-4" d="M402.86,371.32c-5,6.05-7.14,14-8,21.76-.41,3.78-.23,8.28,2.89,10.46a11.75,11.75,0,0,0,3.63,1.45c12.65,3.44,25.68,6.92,38.71,5.46a47.49,47.49,0,0,0,14.24-3.83,12.65,12.65,0,0,0,5.22-3.72c2.12-2.92,1.81-6.93,1-10.45-2.45-10.83-8.29-22.65-19-26.94C428.24,360.21,412.78,359.3,402.86,371.32Z"/><path class="cls-7" d="M400.71,384.79c6.71-14,24.4-22.29,39.21-16.41a24.38,24.38,0,0,1,12,9.24,32.93,32.93,0,0,0-26.8-7.3c-9.56,1.65-17.84,7.27-24.38,14.47Z"/><path class="cls-7" d="M403.23,391.69c11-12,29.78-16.65,45.14-11.13a14.88,14.88,0,0,1,5.77,3.93,19.26,19.26,0,0,0-6.26-2.3c-15.47-2.61-31.3,1.45-44.65,9.5Z"/><path class="cls-7" d="M405.7,398.57c7.4-.54,17.82-1.28,25-2.35s17.53-3.05,24.75-4.51a70.9,70.9,0,0,1-49.79,6.86Z"/><path class="cls-8" d="M309.26,182.1c-.73-4.78-1.45-10.79,2-12-4.63-4.85-8.59-10.37-12.76-15.65-17.66-22.38-39.55-41-61.29-59.43-4.45-3.78-9.14-7.69-14.83-9s-12.67.84-14.82,6.27c-1.71,4.34,0,9.19,1.75,13.52,13.06,32.75,30.32,55.64,53.51,81.69,9.13,10.26,18.33,20.62,25.23,32.49,2.55,4.39,4.81,9,8.18,12.81s8.14,6.75,13.21,6.5c14.09-.68,30.22-9.31,35.76-22.7-9.59-2.46-18.58-6.33-25.45-13.31A38.72,38.72,0,0,1,309.26,182.1Z"/><path class="cls-8" d="M401.2,225.16l-35.31-4.82a179.34,179.34,0,0,1-20.7-3.73,25.66,25.66,0,0,0,1.94-8.37c.32-5.29-1.78-9.58-5-13.35-11.47-1.38-25.41-6.44-34.25,4.76-3.17,4-4.4,9.33-5.4,14.45-7.75,39.78-3.22,78.25-2.71,118.24.11,8.24.63,17.46,6.66,23.07,3.69,3.43,8.77,4.81,13.64,6.08,19.84,5.18,40.29,10.4,60.62,7.7,5-.67,10.31-2,13.88-5.61a27.16,27.16,0,0,0,4.27-6.43c17.47-32.67,29.9-65.19,41.41-100.47,2.26-7,4.56-14.32,3.57-21.56a29.13,29.13,0,0,0-5.71-13.29,36.59,36.59,0,0,1-16.23,4.73C415,227,408.05,226.09,401.2,225.16Z"/><path class="cls-2" d="M384.27,198.33c-13.35-2-26.14-2.37-39.48-3.18-.87-.06-1.76-.15-2.67-.26,3.23,3.77,5.33,8.06,5,13.35a25.66,25.66,0,0,1-1.94,8.37,179.34,179.34,0,0,0,20.7,3.73l35.31,4.82c6.85.93,13.77,1.87,20.67,1.4a36.59,36.59,0,0,0,16.23-4.73c-.61-.83-1.24-1.63-1.91-2.4C423.35,204.67,403.06,201.1,384.27,198.33Z"/><path class="cls-8" d="M563,150.77c.26-2.58.24-5.37-1.2-7.52-2.72-4.08-8.75-3.78-13.5-2.59C515.17,149,491,177.57,460,191.76q-3.82,6.59-7.63,13.17c-3.12,5.39-6.35,10.91-11.2,14.82-5.38,4.35-12.36,6.33-19.26,6.81a71.72,71.72,0,0,1-11.63-.3c1.23,7.06,4.7,14.05,8.9,17.64,9.79,8.37,24.5,6.69,36.89,3.18A178,178,0,0,0,544.61,189C553.69,177.86,561.63,165.05,563,150.77Z"/><circle class="cls-2" cx="330.58" cy="308.43" r="18.74" transform="translate(-21.37 24.63) rotate(-4.13)"/><circle class="cls-2" cx="389.23" cy="315.07" r="18.74" transform="translate(-66.82 108.22) rotate(-14.59)"/><path class="cls-7" d="M435.79,358.38h-.05c-10.72-1.8-19.39-8.19-26.36-13.32l-3-2.16c-8-5.74-15.81-11.9-23.24-18.33a12.13,12.13,0,0,1,15.88-18.35c6.87,6,14.11,11.65,21.51,17l3.2,2.34c4,2.93,8.05,5.93,11.91,7.64A12.12,12.12,0,0,1,454,346.87c-1.67,5.21-4.72,8.77-9,10.6A16.31,16.31,0,0,1,435.79,358.38Z"/><path class="cls-5" d="M240.56,111.85c5.45-5.2,9.31-11.55,14.32-17Q252.51,92.4,250,90c-4.47-4.3-12.71-9.17-14.89-15.36-4.8-13.58,12.49-27.31,9.16-41.38-.92-3.86-4.86-7.3-8.66-6.16a47.68,47.68,0,0,1-12.36,22.8q-4.53-18.22-9.07-36.44c-1-4-2.12-8.25-5.12-11.1s-8.5-3.46-10.95-.13C196.57,4.4,196.75,7.32,197,10q1.35,14.52,2.71,29c-13.18-3.5-13.56-22.69-23.42-32.11A9.39,9.39,0,0,0,172,4.31c-4.49-1-8.66,3.54-9.09,8.12s1.72,9,3.81,13c-4-3.6-11.19-.7-12.69,4.44s1.76,10.78,6.43,13.41c-3.69.71-5.79,5-5.45,8.7s2.48,7,4.54,10.17c8.73,13.23,18.36,27.22,33.12,33A133,133,0,0,0,207.89,134C218.14,128.79,238.48,113.84,240.56,111.85Z"/><path class="cls-7" d="M222.06,153.74a166.51,166.51,0,0,0,44.7-33.8c1.48-1.58,3-3.39,3.05-5.55s-1.25-3.79-2.51-5.37a187.74,187.74,0,0,0-12.42-14.16c-5,5.44-8.87,11.79-14.32,17-2.08,2-22.42,16.94-32.67,22.14A131.92,131.92,0,0,0,222.06,153.74Z"/><path class="cls-5" d="M642.8,107.24c.23-5.35-5.7-10.41-10.6-8.26,3.28-3.21,6.72-6.67,7.78-11.14s-1.45-10.1-6-10.6A9.39,9.39,0,0,0,629,78.3c-12.35,5.77-18.85,23.83-32.46,22.93l11.86-26.64c1.09-2.43,2.19-5.14,1.38-7.67-1.26-3.94-6.67-5.13-10.42-3.38s-6.17,5.4-8.4,8.87Q580.88,88.23,570.74,104a47.7,47.7,0,0,1-4.4-25.56c-3.24-2.3-8.08-.3-10.18,3.07-7.66,12.26,4.33,30.81-4.57,42.14-4.05,5.16-13.41,7.13-19,9.78q-6.23,2.92-12.21,6.3l.26.41c4.25,6.89,6.36,14.72,11.3,21.45a83.83,83.83,0,0,0,28.94,24.83,133.25,133.25,0,0,0,24.44-29.72c15.83-.77,29.43-10.94,41.94-20.68,3-2.31,6-4.76,7.55-8.19s.89-8.13-2.37-10C637.68,116.89,642.57,112.58,642.8,107.24Z"/><path class="cls-7" d="M520.62,140.18l-.26-.41q-5.21,2.92-10.22,6.16c-1.69,1.1-3.48,2.37-4.09,4.29s.21,4.26,1.11,6.23a166.52,166.52,0,0,0,31.54,46.34,133.15,133.15,0,0,0,22.16-16.33,83.83,83.83,0,0,1-28.94-24.83C527,154.9,524.87,147.07,520.62,140.18Z"/><rect class="cls-9" x="330.23" y="256.82" width="14.04" height="15.67" transform="translate(21.43 554.55) rotate(-80.67)"/><path class="cls-2" d="M332.09,258.45l12,2-1.71,10.43-12-2,1.71-10.43m-2.86-4-.56,3.42L327,268.32l-.57,3.42,3.43.56,12,2,3.42.56.56-3.42L347.55,261l.57-3.42-3.43-.56-12-2-3.42-.56Z"/><path class="cls-10" d="M332.81,259.44l10.33,1.7-1.44,8.73-10.33-1.7,1.44-8.73m-.72-1-1.71,10.43,12,2,1.71-10.43-12-2Z"/><rect class="cls-11" x="360.55" y="261.8" width="14.04" height="15.67" transform="translate(41.91 588.63) rotate(-80.67)"/><path class="cls-2" d="M362.41,263.43l12,2-1.72,10.43-12-2,1.72-10.43m-2.86-4-.56,3.42-1.72,10.43-.56,3.42,3.42.57,12,2,3.42.57.56-3.42L377.87,266l.56-3.42L375,262l-12-2-3.42-.56Z"/><path class="cls-12" d="M363.12,264.42l10.33,1.7L372,274.85l-10.33-1.7,1.43-8.73m-.71-1-1.72,10.43,12,2,1.72-10.43-12-2Z"/><rect class="cls-13" x="390.87" y="266.78" width="14.04" height="15.67" transform="translate(62.4 622.73) rotate(-80.67)"/><path class="cls-2" d="M392.72,268.41l12,2-1.71,10.43-12-2,1.71-10.44m-2.85-4-.57,3.42-1.71,10.43L387,281.7l3.42.57,12,2,3.42.56.56-3.42L408.19,271l.56-3.42-3.42-.56-12-2-3.42-.56Z"/><path class="cls-14" d="M393.44,269.41l10.33,1.69-1.43,8.73L392,278.13l1.44-8.72m-.72-1L391,278.85l12,2,1.71-10.43-12-2Z"/><path class="cls-7" d="M333.69,359.65a127,127,0,0,0,17.7,2,122.3,122.3,0,0,0,13.26-.55c8.4-.7,16.93-1.79,24.82-4.9a40.27,40.27,0,0,0,15.87-10.88q.54,2.86,1,5.75a6,6,0,0,1,.1,1.58,6.39,6.39,0,0,1-.45,1.53,11.28,11.28,0,0,1-2.21,3.73c-.93,1-1.63,2.22-2.51,3.27a36.9,36.9,0,0,1-7.05,6.68c-4.8,3.41-10.49,5.31-16.08,7.17-7.46,2.49-15.08,5-22.94,5.06A53.94,53.94,0,0,1,340.85,378a121.51,121.51,0,0,1-28.76-12.21c-4.49-2.56-8.71-6-13.35-8.2-1.58-.77-3.43-.66-3.83-2.44s1.54-5.84,2-7.65a1,1,0,0,1,.39-.65.89.89,0,0,1,.56,0c5,.94,7.92,4.3,12.28,6.39C317.53,356.75,325.68,358.33,333.69,359.65Z"/><path class="cls-7" d="M278.17,355.46c-7.83-1.28-13.57-6.37-14.75-13.42A12.14,12.14,0,0,1,284,331.45c12.87-.81,24.72-10.43,36.25-29.34a12.14,12.14,0,0,1,20.72,12.64c-16.68,27.34-36.51,41.15-58.92,41A22.9,22.9,0,0,1,278.17,355.46Z"/><path class="cls-15" d="M305.44,350.39s-7.69,2.79-10.56,3.86a2.48,2.48,0,0,0,.27,1.53S302.29,355.92,305.44,350.39Z"/><path class="cls-2" d="M347.13,208.24c.49-8.19-4.8-14-11.12-19.15a6.23,6.23,0,0,1-.64.91c-3.17,3.71-10,3.08-15.23-1.41-4.91-4.2-6.69-10.29-4.29-14.1l-.08-.05a59.42,59.42,0,0,1-4.52-4.31c-3.44,1.18-2.72,7.19-2,12a38.72,38.72,0,0,0,10.48,21.2c6.87,7,15.86,10.85,25.45,13.31A25.66,25.66,0,0,0,347.13,208.24Z"/><path class="cls-15" d="M320.14,188.59c5.24,4.49,12.06,5.12,15.23,1.41a6.23,6.23,0,0,0,.64-.91c-1.22-1-2.47-2-3.72-2.9-5.37-4.06-11.31-7.35-16.44-11.7C313.45,178.3,315.23,184.39,320.14,188.59Z"/><path class="cls-2" d="M454.25,194.17c-1.27.49-2.71,1-4.25,1.4.44,4.21-4.28,9.36-11.36,12-7.77,2.93-15.42,1.75-17.08-2.64a5.19,5.19,0,0,1-.24-.94,22.67,22.67,0,0,0-8.44,6.22c-3.11,4.07-3.67,10.07-2.64,16a71.72,71.72,0,0,0,11.63.3c6.9-.48,13.88-2.46,19.26-6.81,4.85-3.91,8.08-9.43,11.2-14.82q3.81-6.59,7.63-13.17C458.08,192.61,456.18,193.43,454.25,194.17Z"/><path class="cls-15" d="M438.64,207.6c7.08-2.67,11.8-7.82,11.36-12C441.62,198,429.86,200,421.32,204a5.19,5.19,0,0,0,.24.94C423.22,209.35,430.87,210.53,438.64,207.6Z"/><path class="cls-7" d="M401.83,200.7l-52.53-8.63a7.37,7.37,0,0,1-6.06-8.44h0a7.37,7.37,0,0,1,8.44-6.06l52.53,8.63a7.37,7.37,0,0,1,6.06,8.45h0A7.36,7.36,0,0,1,401.83,200.7Z"/><path class="cls-7" d="M399.89,212.53l-46-7.57-6.49-1.06a7.37,7.37,0,0,1-6.06-8.44h0a7.36,7.36,0,0,1,8.44-6.06L402.27,198a7.37,7.37,0,0,1,6.06,8.44h0A7.38,7.38,0,0,1,399.89,212.53Z"/><path class="cls-9" d="M400.1,252.11a11.28,11.28,0,0,1-11.08-13,11.18,11.18,0,0,1,11.06-9.4,11.22,11.22,0,0,1,0,22.44Z"/><path class="cls-2" d="M400.08,231.4a9.09,9.09,0,0,1,1.55.13,9.48,9.48,0,0,1-1.53,18.84,9.09,9.09,0,0,1-1.55-.13,9.48,9.48,0,0,1,1.53-18.84m0-3.46A13,13,0,0,0,398,253.67a13.64,13.64,0,0,0,2.11.17,13,13,0,0,0,2.09-25.73,12.51,12.51,0,0,0-2.11-.17Z"/><path class="cls-10" d="M400.08,232.27a9.57,9.57,0,0,1,1.41.11,8.62,8.62,0,0,1-1.39,17.13,8.39,8.39,0,0,1-1.41-.12,8.62,8.62,0,0,1,1.39-17.12m0-.87a9.48,9.48,0,0,0-1.53,18.84,9.09,9.09,0,0,0,1.55.13,9.48,9.48,0,0,0,1.53-18.84,9.09,9.09,0,0,0-1.55-.13Z"/><path class="cls-16" d="M403.27,245.06a4,4,0,1,0-4.61,3.31A4,4,0,0,0,403.27,245.06Z"/><path class="cls-16" d="M400.41,246.13a1.52,1.52,0,1,0-1.75,1.26A1.52,1.52,0,0,0,400.41,246.13Z"/><path class="cls-2" d="M356.72,242.41h-.12l-29.49-4.85a.74.74,0,0,1-.61-.84l2.67-16.24a.74.74,0,0,1,.72-.62H330l29.5,4.85a.78.78,0,0,1,.48.29.72.72,0,0,1,.12.55l-2.66,16.24A.74.74,0,0,1,356.72,242.41Z"/><path class="cls-2" d="M329.89,220.58l29.5,4.85-2.67,16.24-29.49-4.84,2.66-16.25m0-1.46a1.47,1.47,0,0,0-1.44,1.23l-2.67,16.24a1.46,1.46,0,0,0,.26,1.09,1.42,1.42,0,0,0,.95.59l29.5,4.85.24,0a1.47,1.47,0,0,0,1.44-1.23l2.67-16.24a1.46,1.46,0,0,0-.26-1.09,1.42,1.42,0,0,0-.95-.59l-29.5-4.85-.24,0Z"/><path class="cls-15" d="M344.77,180.23s23.69,32.1,64.57,11.94Z"/><path class="cls-17" d="M342.59,102a43.54,43.54,0,0,0-2.94,11.15c0,.26-.07.53-.1.79a58.45,58.45,0,0,1-3.24,13.55,14.61,14.61,0,0,1-5.82-5.73c-4.65-7.67-1.43-18.65,5.7-20.45a8.67,8.67,0,0,1,6.42.65S342.6,102,342.59,102Z"/><path class="cls-18" d="M342.59,102a43.54,43.54,0,0,0-2.94,11.15c0,.26-.07.53-.1.79a58.45,58.45,0,0,1-3.24,13.55,14.61,14.61,0,0,1-5.82-5.73c-4.65-7.67-1.43-18.65,5.7-20.45a8.67,8.67,0,0,1,6.42.65S342.6,102,342.59,102Z"/><path class="cls-17" d="M441.66,135.43a14.57,14.57,0,0,1-7,4.15,58.48,58.48,0,0,1,.14-13.93c0-.26.07-.53.1-.79a43.56,43.56,0,0,0-.16-11.57,8.67,8.67,0,0,1,6.39.92C447.58,117.69,448,129.13,441.66,135.43Z"/><path class="cls-18" d="M441.66,135.43a14.57,14.57,0,0,1-7,4.15,58.48,58.48,0,0,1,.14-13.93c0-.26.07-.53.1-.79a43.56,43.56,0,0,0-.16-11.57,8.67,8.67,0,0,1,6.39.92C447.58,117.69,448,129.13,441.66,135.43Z"/><path class="cls-17" d="M419.84,137.91a12.43,12.43,0,0,0-2.66,10.4,27.64,27.64,0,0,1,.74,8.14c-2,16.42-19.22,27.81-38.41,25.45s-33.11-17.59-31.09-34a28.2,28.2,0,0,1,2.69-7.72,12.38,12.38,0,0,0-.05-10.73,20.27,20.27,0,0,1-1-2.52,18.93,18.93,0,0,1-.75-8.1c1.34-10.9,11.71-18.6,23.17-17.19a21.66,21.66,0,0,1,10.22,4.06,12.44,12.44,0,0,0,12.19,1.5,21.51,21.51,0,0,1,10.9-1.45c11.45,1.41,19.65,11.39,18.31,22.3a19,19,0,0,1-2.7,7.67A20,20,0,0,1,419.84,137.91Z"/><path class="cls-18" d="M419.84,137.91a12.43,12.43,0,0,0-2.66,10.4,27.64,27.64,0,0,1,.74,8.14c-2,16.42-19.22,27.81-38.41,25.45s-33.11-17.59-31.09-34a28.2,28.2,0,0,1,2.69-7.72,12.38,12.38,0,0,0-.05-10.73,20.27,20.27,0,0,1-1-2.52,18.93,18.93,0,0,1-.75-8.1c1.34-10.9,11.71-18.6,23.17-17.19a21.66,21.66,0,0,1,10.22,4.06,12.44,12.44,0,0,0,12.19,1.5,21.51,21.51,0,0,1,10.9-1.45c11.45,1.41,19.65,11.39,18.31,22.3a19,19,0,0,1-2.7,7.67A20,20,0,0,1,419.84,137.91Z"/><path class="cls-19" d="M365,153.66a2,2,0,0,0-2.26,2c.15,9,7.65,16.78,17.76,18s19.29-4.53,21.61-13.18a2,2,0,0,0-1.71-2.5Z"/><path class="cls-20" d="M369.49,169a21.74,21.74,0,0,0,22.87,2.82c-.83-5.14-5.55-4.56-11-5.23S371.54,164.23,369.49,169Z"/><path class="cls-17" d="M443.91,110.83a10.9,10.9,0,0,0-9.74-.63,48.76,48.76,0,0,0-1.34-5.08c-.38-1.23-.82-2.44-1.3-3.64-4.87-12.29-14.28-23.15-25.92-28.69l.56-6.56L397.73,70l-.93-.22c-.58-.12-1.15-.23-1.73-.33l-.54-5.08-.16-1.49c-.39,0-.78-.08-1.15-.09-7.39-.31-11.85,5.88-12.56,6.95-12.64,2.55-24.39,10.8-32.1,21.53-.76,1-1.47,2.12-2.14,3.22a50.59,50.59,0,0,0-2.54,4.61l-.27-.2a10.89,10.89,0,0,0-9.32-1.55c-9.06,2.28-13.15,16.24-7.24,26a18.18,18.18,0,0,0,8,7.55l-.18.47a34.42,34.42,0,0,0-1.67,7.18c-2.09,17,8.62,33.07,25.74,41.7a59.91,59.91,0,0,0,12.63,4.65,64,64,0,0,0,6.89,1.3l.55.07c28.12,3.47,53.2-12.29,56-35.18a34.24,34.24,0,0,0,.11-7.36c0-.17,0-.34-.05-.51a18.14,18.14,0,0,0,9.56-5.39C452.72,129.78,452.13,115.24,443.91,110.83ZM342.59,102a43.54,43.54,0,0,0-2.94,11.15c0,.26-.07.53-.1.79a58.45,58.45,0,0,1-3.24,13.55,14.61,14.61,0,0,1-5.82-5.73c-4.65-7.67-1.43-18.65,5.7-20.45a8.67,8.67,0,0,1,6.42.65S342.6,102,342.59,102Zm78.82,33.73a20,20,0,0,1-1.57,2.2,12.43,12.43,0,0,0-2.66,10.4,27.64,27.64,0,0,1,.74,8.14c-2,16.42-19.22,27.81-38.41,25.45s-33.11-17.59-31.09-34a28.2,28.2,0,0,1,2.69-7.72,12.38,12.38,0,0,0-.05-10.73,20.27,20.27,0,0,1-1-2.52,18.93,18.93,0,0,1-.75-8.1c1.34-10.9,11.71-18.6,23.17-17.19a21.66,21.66,0,0,1,10.22,4.06,12.44,12.44,0,0,0,12.19,1.5,21.51,21.51,0,0,1,10.9-1.45c11.45,1.41,19.65,11.39,18.31,22.3A19,19,0,0,1,421.41,135.71Zm20.25-.28a14.57,14.57,0,0,1-7,4.15,58.48,58.48,0,0,1,.14-13.93c0-.26.07-.53.1-.79a43.56,43.56,0,0,0-.16-11.57,8.67,8.67,0,0,1,6.39.92C447.58,117.69,448,129.13,441.66,135.43Z"/><rect class="cls-19" x="377.47" y="138.15" width="3.36" height="7.64" rx="1.68" transform="translate(59.67 390.65) rotate(-58.42)"/><rect class="cls-19" x="387.87" y="139.43" width="3.36" height="7.64" rx="1.68" transform="translate(370.28 557.86) rotate(-107.53)"/><path class="cls-19" d="M367.89,129.11h0a5.83,5.83,0,0,1-5.26-6.37l.23-1.88a5.85,5.85,0,0,1,6.65-4.91h0a5.85,5.85,0,0,1,5.25,6.38l-.23,1.88A5.84,5.84,0,0,1,367.89,129.11Z"/><path class="cls-21" d="M369.51,116l-.81,6.58a3,3,0,0,0,5.95.74l.11-.94A5.85,5.85,0,0,0,369.51,116Z"/><ellipse class="cls-6" cx="369.04" cy="119.71" rx="1.89" ry="2" transform="translate(205.11 471.35) rotate(-82.98)"/><path class="cls-19" d="M403.6,133.51h0a5.85,5.85,0,0,1-5.26-6.37l.23-1.88a5.85,5.85,0,0,1,6.65-4.91h0a5.86,5.86,0,0,1,5.26,6.38l-.24,1.88A5.84,5.84,0,0,1,403.6,133.51Z"/><path class="cls-21" d="M405.22,120.35l-.81,6.58a3,3,0,0,0,5.95.74l.12-.94A5.86,5.86,0,0,0,405.22,120.35Z"/><ellipse class="cls-6" cx="404.75" cy="124.11" rx="1.89" ry="2" transform="translate(232.08 510.66) rotate(-82.98)"/><g class="cls-22"><circle class="cls-16" cx="388.18" cy="123.68" r="71.67"/></g><ellipse class="cls-16" cx="392.57" cy="75.09" rx="16.04" ry="32.63" transform="translate(254.82 450.29) rotate(-80.67)"/><path class="cls-16" d="M412.28,72.31c-.56,3.43-8.22,5-17.12,3.56S379.52,70.45,380.09,67s8.23-5,17.12-3.57S412.85,68.87,412.28,72.31Z"/><path class="cls-7" d="M399.8,53c67.26,32.71,46,90.44,46,90.44-22.05,50.67-74,37.14-74,37.14-49.37-6.77-50.6-67.86-50.6-67.86l-3.75-.62A71.67,71.67,0,1,0,399.8,53Z"/><ellipse class="cls-15" cx="448.18" cy="140.3" rx="26.55" ry="12.15" transform="translate(203.5 541.15) rotate(-75.98)"/><ellipse class="cls-8" cx="452.13" cy="140.95" rx="23.75" ry="10.87" transform="translate(205.87 545.48) rotate(-75.98)"/><line class="cls-23" x1="448.79" y1="127.61" x2="460.94" y2="130.62"/><line class="cls-23" x1="445.37" y1="132.5" x2="461.6" y2="136.14"/><line class="cls-23" x1="443.36" y1="138.65" x2="461.69" y2="141.55"/><line class="cls-23" x1="442.44" y1="144.62" x2="460.19" y2="146.8"/><line class="cls-23" x1="441.83" y1="150.38" x2="458.13" y2="152.03"/><line class="cls-23" x1="442.66" y1="155.79" x2="455.42" y2="156.51"/><path class="cls-15" d="M345.64,190.32s21.81,18.61,60.22,9.9C405.86,200.22,373,216.91,345.64,190.32Z"/><path class="cls-24" d="M441.25,442.37s47.66,17,61.42,17.2"/><path class="cls-24" d="M433.89,456.62s40.77,18.28,67.88,18.61"/><path class="cls-24" d="M425.26,473s46,22.38,72.2,18.32"/><path class="cls-24" d="M421.94,483.49s31.78,19.7,73.59,19.54"/><path class="cls-24" d="M417.09,498.24s34.25,19.43,71.67,18"/><path class="cls-24" d="M415,510.86s33.93,18.85,66.39,17.08"/><path class="cls-24" d="M408,548.21s22,15.16,51.42,14.14"/><path class="cls-24" d="M404,558.69s23.24,14.94,48.25,12.43"/><path class="cls-24" d="M404.59,569.22s10.74,10.43,39.91,10.68"/><path class="cls-25" d="M353,228.87l-1-.6,1.17-1.94a.44.44,0,0,1,.25-.17.43.43,0,0,1,.31,0l.25.15a.44.44,0,0,1,.13.56Z"/><path class="cls-25" d="M353,228.87l-.49-.3,1.39-2.3.13.07a.48.48,0,0,1,.17.26.45.45,0,0,1,0,.3Z"/><path class="cls-25" d="M353.39,230.21a11.34,11.34,0,0,1-1.94,2.67,11.59,11.59,0,0,1-18.38-2.43,4,4,0,0,1-.36-1.44,1.61,1.61,0,0,1,.27-1,.6.6,0,0,1,.08-.08l.09-.07a1.49,1.49,0,0,1,.55-.07,1.29,1.29,0,0,1,.54.15,18.91,18.91,0,0,1,2.66,1.53l.38.24.44.23.12.07.1.07.12.06.15.07.31.14.18.07.49.19.16,0,.16.06.47.14,0,0a5.73,5.73,0,0,0,.69.16l.65.13h.09l.44.05h0l0,0c.43,0,.85,0,1.27,0h.25l.31.07H344l.42,0h.19l.3-.05.11,0,.4-.07a10.63,10.63,0,0,0,1.75-.51h0a4.3,4.3,0,0,0,.64-.26,1.17,1.17,0,0,0,.3-.14l.25-.09h0l.51-.28a11.67,11.67,0,0,0,2.49-1.94l.22-.28.08,0,.05,0h0a1.52,1.52,0,0,1,.87-.27,1.56,1.56,0,0,1,.86.4,1.36,1.36,0,0,1,.28.46,1.24,1.24,0,0,1,.06.54A4,4,0,0,1,353.39,230.21Z"/><path class="cls-25" d="M353.5,227.63a11.1,11.1,0,0,1-1.79,2.61l-.31.33a11.55,11.55,0,0,1-9.53,3.42,11.44,11.44,0,0,1-4.91-1.7,11.62,11.62,0,0,1-3.68-3.67,2.43,2.43,0,0,0-.2-.35c-.07-.12-.09-.14-.13-.22L333,228l.09-.07a1.52,1.52,0,0,1,.56-.08,1.42,1.42,0,0,1,.53.16,18.61,18.61,0,0,1,2.67,1.53c.12.08.24.16.37.23l.44.24h0l.09.05.14.09.12.06.15.07.31.14.18.07.31.12.18.07.16,0,.16.06.47.14,0,0,.18.07c.19,0,.38.1.57.13l.57.11h.17l.27,0H342l.05,0,.24,0h.18l.07,0h1l.23.07H344l.42,0h.19l.3-.05.11,0,.11,0,.28,0,.23-.08.27-.1.13,0,.11,0,.24-.09.26-.09.51-.18.27-.09.17-.06.22-.08.2-.06.11,0,.25-.09h0l.19-.11.15-.09.17-.06.22-.13.12,0,.29-.18.18-.13.27-.19.17-.13.27-.22.16-.13.29-.25.1-.09.05,0,.39-.38.22-.3.08,0,.05,0h0a1.27,1.27,0,0,1,1.72.14Z"/><path class="cls-25" d="M334.23,228a2,2,0,0,0-.91.32,1.92,1.92,0,0,0-.63.73,1.54,1.54,0,0,1,.27-1A.3.3,0,0,1,333,228a.31.31,0,0,1,.09-.07,1.52,1.52,0,0,1,.56-.08A1.29,1.29,0,0,1,334.23,228Z"/></g></g></svg>