<svg xmlns="http://www.w3.org/2000/svg" xmlns:xlink="http://www.w3.org/1999/xlink" viewBox="0 0 134.69 116.74"><defs><style>.cls-1{isolation:isolate;}.cls-2{mix-blend-mode:multiply;fill:url(#Degradado_sin_nombre_9);}.cls-3{mix-blend-mode:lighten;opacity:0.2;}.cls-4{fill:#a3773a;}.cls-5{fill:#775729;}.cls-6{fill:#f7d667;}.cls-7{fill:#f3b53f;}</style><linearGradient id="Degradado_sin_nombre_9" x1="-1589.59" y1="253.33" x2="-1462.4" y2="253.33" gradientTransform="translate(1455.34 -658.88) rotate(-17.53)" gradientUnits="userSpaceOnUse"><stop offset="0.14" stop-color="#fff" stop-opacity="0"/><stop offset="1" stop-opacity="0.4"/></linearGradient></defs><g class="cls-1"><g id="Capa_3" data-name="Capa 3"><path class="cls-2" d="M131.25,5.16a2.8,2.8,0,0,0-1.57-.63l-.91,0,0,.08-1-.07a3.82,3.82,0,0,0-1.85.37,2.05,2.05,0,0,0-1.06,1.08l-1.1,4.2-.16,0,0,0c-.26.08-.51.16-.75.25a11,11,0,0,0-2.68,1.41s0,.06,0,.09a8.3,8.3,0,0,0-1.1,1,35.54,35.54,0,0,0-2.65,3.84,37.85,37.85,0,0,1-3.21,4,49.92,49.92,0,0,1-8.29,7.08c-4,2.73-8.33,5.18-12.57,7.72-.73.44-1.49.86-2.27,1.26a65.34,65.34,0,0,1-10,4c-3.42,1.09-6.94,2.15-10.51,2.93a106.27,106.27,0,0,1-24.28,2.42c-1.58-.1-3.12-.14-4.7-.27Q33.63,45.3,26.63,45c-2.32-.1-4.66-.22-7-.24h-.37l.13-.05a12.94,12.94,0,0,0-3.46.39,10.63,10.63,0,0,0-3,1.26,1.73,1.73,0,0,0-.37.4,3.59,3.59,0,0,0-.28.44,4.27,4.27,0,0,0,.65,4,1.13,1.13,0,0,1,0-.18l.07.11a16.57,16.57,0,0,0,5.29,4.66A87.68,87.68,0,0,0,47.79,64a108.84,108.84,0,0,0,32.83-1.66,93.53,93.53,0,0,0,29.23-11.11C118.3,46.1,125,39.87,129.33,33a36.39,36.39,0,0,0,5.2-13.14,11,11,0,0,0-.91-6.62,4.33,4.33,0,0,0-1.55-1.87,6.63,6.63,0,0,0-1.42-.77l1-4.24A1.27,1.27,0,0,0,131.25,5.16Z"/><g class="cls-3"><path class="cls-4" d="M79.48,107.35l-1.59-5.45,10.75-3.14a2.09,2.09,0,0,1,1.51.21,2,2,0,0,1,1,1.17l.41,1.4a2.15,2.15,0,0,1-.21,1.51,2.12,2.12,0,0,1-1.17,1Z"/><path class="cls-5" d="M79.48,107.35l-.79-2.74,12.75-3.72.22.71a2.11,2.11,0,0,1-.21,1.5,2.13,2.13,0,0,1-1.17,1Z"/><path class="cls-6" d="M1.51,46.38a57.29,57.29,0,0,0,58.81,70.28,56.45,56.45,0,0,0,16-3.21,20.2,20.2,0,0,0,7-4.23,5.9,5.9,0,0,0,2.06-4.8,7.57,7.57,0,0,0-1.76-4.32,7.37,7.37,0,0,0-2.9-1.68c-3,1.69-6.85,1.29-10.16,1.12a52.3,52.3,0,0,1-15.73-3.13c-5.31-2-11.17-4.34-15.77-7.69a28.65,28.65,0,0,1-7-6.79c-.79-1-1.55-1.93-2.31-2.85a81.76,81.76,0,0,1-7.54-9.87,85.46,85.46,0,0,1-5.79-11.95,14,14,0,0,1-.62-9.09A2.65,2.65,0,0,1,15.1,46a7,7,0,0,0,0-1.45,2.76,2.76,0,0,1-.28-.39l0-.05a4.79,4.79,0,0,1-.88-2.33,26.16,26.16,0,0,0-2-2,12.11,12.11,0,0,0-3.29-2.27A7.63,7.63,0,0,0,5,39.94,19.17,19.17,0,0,0,1.51,46.38Z"/><path class="cls-7" d="M12.89,39.28a2.73,2.73,0,0,1-.68-.18,23.4,23.4,0,0,1-2-1.22A4.08,4.08,0,0,0,9,37.55c-.18,1-.41,1.9-.59,2.84a57.31,57.31,0,0,0,34.14,63.32l.09,0a58.2,58.2,0,0,0,32.59,3.51c1.74-.32,3.46-.73,5.17-1.21.47-.13,5-1.33,4.94-1.64a7.68,7.68,0,0,0-1.74-4.31,7.38,7.38,0,0,0-4.44-1.9,46.83,46.83,0,0,0-5,.1A43.14,43.14,0,0,1,68.82,98a45.56,45.56,0,0,1-10.29-2.35c-4.19-1.48-8.21-3.41-12.29-5.19-.71-.3-1.4-.64-2.08-1a40.35,40.35,0,0,1-7.38-5.28A66.18,66.18,0,0,1,30.37,78a56.19,56.19,0,0,1-10-16.77c-.38-1.22-.79-2.39-1.13-3.64q-1.49-5.44-3.28-10.82c-.6-1.78-1.18-3.59-1.88-5.34A9.41,9.41,0,0,0,12.89,39.28Z"/><path class="cls-5" d="M14,41.21A9.24,9.24,0,0,0,4.92,39.9a7.57,7.57,0,0,1,4.21-2.64,3.52,3.52,0,0,1,.56,0,2.09,2.09,0,0,1,.56.06,6.73,6.73,0,0,1,2.3,1.57A6.93,6.93,0,0,1,14,41.21Z"/></g><path class="cls-4" d="M99.49,13.73,94,12.38,96.64,1.5A2.06,2.06,0,0,1,97.57.3,2.12,2.12,0,0,1,99.07,0l1.42.35a2.16,2.16,0,0,1,1.2.94A2.1,2.1,0,0,1,102,2.82Z"/><path class="cls-5" d="M99.49,13.73l-2.77-.68L99.88.14l.72.17a2.15,2.15,0,0,1,1.2.93,2.13,2.13,0,0,1,.26,1.5Z"/><path class="cls-6" d="M7.69,50.75A57.31,57.31,0,0,0,98,35a56.85,56.85,0,0,0,5.23-15.47,20.08,20.08,0,0,0-.18-8.17A6,6,0,0,0,99.9,7.16a7.59,7.59,0,0,0-4.62-.63,7.21,7.21,0,0,0-2.9,1.67c0,3.42-2.32,6.58-4.12,9.36A52.64,52.64,0,0,1,77.68,29.61c-4.37,3.61-9.34,7.5-14.55,9.81a28.17,28.17,0,0,1-9.36,2.64c-1.23.21-2.45.38-3.63.58a81.28,81.28,0,0,1-12.32,1.59,84,84,0,0,1-13.25-1,14,14,0,0,1-8.18-4,2.65,2.65,0,0,1-2.22-.46,7.08,7.08,0,0,0-1.26-.74,1.83,1.83,0,0,1-.47,0h-.06a4.79,4.79,0,0,1-2.46-.41,27.73,27.73,0,0,0-2.76.69,12.21,12.21,0,0,0-3.62,1.72,7.64,7.64,0,0,0,.33,4.36A19.22,19.22,0,0,0,7.69,50.75Z"/><path class="cls-7" d="M7.24,37.34a2.63,2.63,0,0,1-.5.5A20.45,20.45,0,0,1,4.68,39a4,4,0,0,0-.88.87c.73.64,1.44,1.31,2.17,1.94a57.21,57.21,0,0,0,22.77,11.9,57.17,57.17,0,0,0,25.69.76A57.25,57.25,0,0,0,77.86,43.88l.09-.06A57.73,57.73,0,0,0,92.73,27.09a57.47,57.47,0,0,0,4.56-9.73q.88-2.5,1.54-5.08c.12-.47,1.33-5,1-5.1a7.61,7.61,0,0,0-4.6-.65,7.4,7.4,0,0,0-3.87,2.89A44.65,44.65,0,0,0,89,13.82a45.11,45.11,0,0,1-2.89,4.49A46.15,46.15,0,0,1,78.92,26c-3.38,2.89-7.06,5.41-10.65,8.05-.61.46-1.25.88-1.91,1.29a40.21,40.21,0,0,1-8.26,3.75,66.36,66.36,0,0,1-8.61,2.43,56,56,0,0,1-19.53.3c-1.25-.29-2.47-.51-3.72-.84q-5.47-1.44-11-2.57c-1.85-.38-3.7-.78-5.56-1.05A9.85,9.85,0,0,0,7.24,37.34Z"/><path class="cls-5" d="M9.48,37.32a9.29,9.29,0,0,0-5.7,7.23,7.67,7.67,0,0,1-.18-5,4.06,4.06,0,0,1,.26-.51,2.15,2.15,0,0,1,.33-.46,6.83,6.83,0,0,1,5.29-1.3Z"/></g></g></svg>