<svg width="1380" height="300" viewBox="0 0 1380 300" fill="none" xmlns="http://www.w3.org/2000/svg">
<g clip-path="url(#clip0_5322_15184)">
<path d="M1386.57 -464.059H9.88446V453.729H1386.57V-464.059Z" fill="#B4C47B"/>
<path d="M166.147 280.359L162.824 -322.499H136.337L103.48 283.498L166.147 280.359Z" fill="#90A157"/>
<path d="M245.169 235.46L279.989 -277.087L313.379 -275.729L322.189 238.673L245.169 235.46Z" fill="#90A157"/>
<path d="M521.973 238.03L505.636 -275.453L538.989 -277.399L598.92 233.552L521.973 238.03Z" fill="#90A157"/>
<path d="M662.138 232.891L725.612 -276.903L758.854 -273.654L738.865 240.417L662.138 232.891Z" fill="#90A157"/>
<path d="M884.481 232.891L947.937 -276.903L981.197 -273.654L961.208 240.417L884.481 232.891Z" fill="#90A157"/>
<path d="M1056.11 232.891L1119.58 -276.903L1152.82 -273.654L1132.83 240.417L1056.11 232.891Z" fill="#90A157"/>
<path d="M785.965 325.019L759.496 -58.1209L780.367 -345.572L730.201 -351.409L700.905 -58.1209L689.304 329.956L785.965 325.019Z" fill="#6C8F3A"/>
<path d="M710.615 110.586L675.39 34.2263H671.554L704.099 133.659L710.615 110.586Z" fill="#6C8F3A"/>
<path d="M1081.62 330.892L1054.07 -68.1255L1075.8 -367.508L1023.56 -373.565L993.037 -68.1255L980.959 336.05L1081.62 330.892Z" fill="#6C8F3A"/>
<path d="M1003.15 107.576L966.476 28.0591H962.474L996.377 131.622L1003.15 107.576Z" fill="#6C8F3A"/>
<path d="M1331.31 330.892L1303.76 -68.1255L1325.5 -367.508L1273.24 -373.565L1242.73 -68.1255L1230.65 336.05L1331.31 330.892Z" fill="#6C8F3A"/>
<path d="M1252.84 107.576L1216.17 28.0591H1212.15L1246.07 131.622L1252.84 107.576Z" fill="#6C8F3A"/>
<path d="M519.752 278.615L536.162 -330.447H478.011V-91.4367L435.26 280.359L519.752 278.615Z" fill="#6C8F3A"/>
<path d="M245.168 273.054L233.659 -336.119L175.563 -333.457L186.522 -94.7039L160.842 278.652L245.168 273.054Z" fill="#6C8F3A"/>
<path d="M1037.66 -171.853C1037.66 -171.853 1048.8 2.52632 1144.56 7.51908C1240.33 12.5118 1269.27 -108.251 1269.27 -108.251" stroke="#6C8F3A" stroke-width="2" stroke-miterlimit="10"/>
<path d="M372.924 259.874L391.078 -97.5495V-308.182H438.785L435.591 -55.937L440.676 259.874H372.924Z" fill="#388234"/>
<path d="M392.95 37.5674L358.221 -11.8279H352.825L389.701 48.1771L392.95 37.5674Z" fill="#388234"/>
<path d="M341.077 -307.429L363.012 -187.621L406.791 -15.2052L404.68 22.8095L352.825 -182.61L334.267 -307.429H341.077Z" fill="#388234"/>
<path d="M420.135 57.9608L508.482 -87.123H518.1L420.135 110.605V57.9608Z" fill="#388234"/>
<path d="M772.658 284.654L787.049 -36.4432L789.71 -383.147L839.95 -388.984L847.457 -19.5926L869.466 289.628L772.658 284.654Z" fill="#388234"/>
<path d="M848.118 69.8921L883.398 -6.59631H887.253L854.653 93.0203L848.118 69.8921Z" fill="#388234"/>
<path d="M464.63 139.974C464.63 139.974 502.938 121.288 513.878 127.456C524.818 133.623 502.149 143.113 502.149 143.113C502.149 143.113 518.32 146.601 524.176 154.384C524.176 154.384 538.86 133.825 547.396 136.211C555.931 138.598 545.083 154.384 545.083 154.384C545.083 154.384 564.852 145.206 567.11 147.041C569.368 148.877 558.85 162.166 558.85 162.166C558.85 162.166 571.203 166.04 576.398 172.207C579.169 160.808 577.921 151.685 582.253 151.685C586.585 151.685 587.87 166.15 587.87 166.15C587.87 166.15 610.264 152.034 612.779 153.411C615.294 154.787 609.787 162.166 609.787 162.166C609.787 162.166 628.73 164.424 625.977 168.206C624.644 170.234 622.876 171.94 620.8 173.198C620.8 173.198 640.992 186.616 640.992 197.813L710.743 207.964C710.743 207.964 729.466 182.743 734.037 182.266C738.608 181.789 731.394 196.712 731.394 196.712C731.394 196.712 765.462 182.138 773.392 184.542C781.321 186.947 768.564 196.712 768.564 196.712L783.028 201.741C783.028 201.741 781.982 187.295 785.782 187.295C789.581 187.295 793.344 204.164 793.344 204.164C793.344 204.164 818.822 201.741 831.212 202.09C843.602 202.439 823.631 213.104 823.631 213.104C823.631 213.104 849.109 223.181 847.035 226.393C844.961 229.605 840.5 228.945 840.5 228.945C840.5 228.945 863.096 237.59 863.096 244.822C863.096 252.055 853.129 251.027 853.129 251.027C853.129 251.027 875.56 265.124 882.076 276.486C892.355 266.849 903.717 259.966 905.443 263.068C907.168 266.17 892.704 281.516 892.704 281.516C892.704 281.516 914.033 279.276 914.033 282.36C914.033 285.444 906.691 289.702 906.691 289.702L932.848 303.671V312.5H464.63V139.974Z" fill="#6C8F3A"/>
<path d="M103.48 105.723C103.48 105.723 141.715 87.0547 152.729 93.2039C163.742 99.3531 141.018 108.88 141.018 108.88C141.018 108.88 157.171 112.349 163.045 120.132C163.045 120.132 177.729 99.5917 186.265 101.978C194.8 104.364 183.934 120.132 183.934 120.132C183.934 120.132 203.703 110.954 205.96 112.79C208.218 114.625 197.7 127.915 197.7 127.915C197.7 127.915 210.054 131.769 215.23 137.937C218.002 126.556 216.772 117.434 221.104 117.434C225.436 117.434 226.611 131.879 226.611 131.879C226.611 131.879 249.005 117.782 251.538 119.159C254.071 120.536 248.546 127.915 248.546 127.915C248.546 127.915 267.471 130.172 264.717 133.954C263.38 135.972 261.62 137.676 259.559 138.946C259.559 138.946 279.751 152.364 279.751 163.543L349.502 173.712C349.502 173.712 368.207 148.491 372.796 148.014C377.385 147.537 370.153 162.46 370.153 162.46C370.153 162.46 404.221 147.886 412.132 150.309C420.044 152.732 407.323 162.46 407.323 162.46L421.769 167.508C421.769 167.508 420.741 153.062 424.522 153.062C428.304 153.062 432.103 169.913 432.103 169.913C432.103 169.913 457.563 167.508 469.953 167.857C482.343 168.206 462.39 178.87 462.39 178.87C462.39 178.87 487.85 188.929 485.794 192.16C483.738 195.39 479.241 194.693 479.241 194.693C479.241 194.693 501.965 203.302 501.965 210.534C501.965 217.766 491.98 216.72 491.98 216.72C491.98 216.72 514.429 230.835 520.927 242.198C531.224 232.561 542.568 225.677 544.294 228.779C546.019 231.882 531.555 247.135 531.555 247.135C531.555 247.135 552.884 245.043 552.884 248.145C552.884 251.247 545.542 255.487 545.542 255.487L571.735 269.419V278.248H103.48V105.723Z" fill="#388234"/>
<path d="M1381.57 83.1263C1381.57 83.1263 1343.26 64.4585 1332.34 70.6261C1321.42 76.7936 1344.05 86.2835 1344.05 86.2835C1344.05 86.2835 1327.9 89.7527 1322.03 97.5539C1322.03 97.5539 1307.34 76.9955 1298.81 79.3817C1290.27 81.768 1301.12 97.5539 1301.12 97.5539C1301.12 97.5539 1281.35 88.376 1279.09 90.2116C1276.84 92.0472 1287.35 105.337 1287.35 105.337C1287.35 105.337 1275 109.21 1269.82 115.359C1267.05 103.978 1268.28 94.8556 1263.95 94.8556C1259.62 94.8556 1258.44 109.32 1258.44 109.32C1258.44 109.32 1236.05 95.2044 1233.52 96.5811C1230.98 97.9577 1236.51 105.337 1236.51 105.337C1236.51 105.337 1217.58 107.594 1220.34 111.376C1221.67 113.394 1223.43 115.098 1225.49 116.369C1225.49 116.369 1205.3 129.787 1205.3 140.984L1135.55 151.134C1135.55 151.134 1116.85 125.914 1112.26 125.436C1107.67 124.959 1114.9 139.882 1114.9 139.882C1114.9 139.882 1080.83 125.308 1072.92 127.731C1065.01 130.154 1077.86 139.846 1077.86 139.846L1063.41 144.893C1063.41 144.893 1064.44 130.447 1060.66 130.447C1056.88 130.447 1053.08 147.298 1053.08 147.298C1053.08 147.298 1027.62 144.893 1015.23 145.242C1002.84 145.591 1022.79 156.256 1022.79 156.256C1022.79 156.256 997.332 166.315 999.388 169.545C1001.44 172.776 1005.94 172.078 1005.94 172.078C1005.94 172.078 983.217 180.687 983.217 187.919C983.217 195.151 993.202 194.105 993.202 194.105C993.202 194.105 970.753 208.221 964.255 219.583C953.957 209.946 942.614 203.063 940.888 206.165C939.163 209.267 953.627 224.612 953.627 224.612C953.627 224.612 932.279 222.373 932.279 225.457C932.279 228.541 939.622 232.799 939.622 232.799L913.428 246.731V255.56H1381.57V83.1263Z" fill="#388234"/>
<path d="M1026.19 123.417C1026.19 123.417 1062.33 131.879 1067.03 164.882C1037.92 163.102 1026.19 123.417 1026.19 123.417Z" fill="#CC6127"/>
<path d="M1074.06 125.932C1074.06 125.932 1098.71 155.117 1080.12 183.807C1061.96 152.86 1074.06 125.932 1074.06 125.932Z" fill="#CC6127"/>
<path d="M1097.43 146.655C1097.43 146.655 1116.15 179.953 1092.51 204.641C1080.5 170.83 1097.43 146.655 1097.43 146.655Z" fill="#CC6127"/>
<path d="M1114.81 170.646C1114.81 170.646 1129.92 205.724 1103.8 227.787C1095.43 192.893 1114.81 170.646 1114.81 170.646Z" fill="#CC6127"/>
<path d="M1016.77 168.701C1016.77 168.701 1050.2 153.044 1074.41 177.163C1039.44 189.406 1016.77 168.701 1016.77 168.701Z" fill="#CC6127"/>
<path d="M1032.74 188.837C1032.74 188.837 1067.21 175.639 1089.64 201.466C1053.85 211.084 1032.74 188.837 1032.74 188.837Z" fill="#CC6127"/>
<path d="M1042.98 209.083C1042.98 209.083 1077.45 195.904 1099.89 221.712C1064.04 231.349 1042.98 209.083 1042.98 209.083Z" fill="#CC6127"/>
<path d="M1044.16 141.534C1044.16 141.534 1081.95 172.041 1109.49 242.711" stroke="#0E2B14" stroke-width="0.58" stroke-miterlimit="10"/>
<path d="M420.209 76.0048C420.209 76.0048 385.682 89.6063 385.847 122.959C414.39 116.975 420.209 76.0048 420.209 76.0048Z" fill="#CC6127"/>
<path d="M373.218 85.4387C373.218 85.4387 353.027 117.91 375.641 143.59C389.096 110.311 373.218 85.4387 373.218 85.4387Z" fill="#CC6127"/>
<path d="M353.118 109.338C353.118 109.338 339.425 145.003 366.408 166.002C373.383 130.796 353.118 109.338 353.118 109.338Z" fill="#CC6127"/>
<path d="M339.407 135.605C339.407 135.605 329.55 172.5 358.589 190.544C361.819 154.805 339.407 135.605 339.407 135.605Z" fill="#CC6127"/>
<path d="M436.123 119.434C436.123 119.434 400.77 108.788 380.322 136.175C416.685 143.168 436.123 119.434 436.123 119.434Z" fill="#CC6127"/>
<path d="M423.238 141.68C423.238 141.68 387.205 133.641 368.813 162.441C405.598 166.754 423.238 141.68 423.238 141.68Z" fill="#CC6127"/>
<path d="M416.116 163.176C416.116 163.176 380.083 155.155 361.691 183.955C398.476 188.269 416.116 163.176 416.116 163.176Z" fill="#CC6127"/>
<path d="M405.065 96.5256C405.065 96.5256 372.117 132.209 355.156 206.128" stroke="#0E2B14" stroke-width="0.58" stroke-miterlimit="10"/>
<path d="M718.27 183.055C718.27 183.055 683.743 196.675 683.889 230.009C712.433 224.025 718.27 183.055 718.27 183.055Z" fill="#CC6127"/>
<path d="M671.26 192.508C671.26 192.508 651.069 224.961 673.683 250.641C687.138 217.38 671.26 192.508 671.26 192.508Z" fill="#CC6127"/>
<path d="M651.161 216.407C651.161 216.407 637.486 252.072 664.45 273.053C671.426 237.865 651.161 216.407 651.161 216.407Z" fill="#CC6127"/>
<path d="M637.449 242.637C637.449 242.637 627.61 279.551 656.631 297.576C659.862 261.856 637.449 242.637 637.449 242.637Z" fill="#CC6127"/>
<path d="M734.166 226.485C734.166 226.485 698.831 215.839 678.364 243.225C714.745 250.219 734.166 226.485 734.166 226.485Z" fill="#CC6127"/>
<path d="M721.298 248.713C721.298 248.713 685.266 240.692 666.855 269.492C703.64 273.842 721.298 248.713 721.298 248.713Z" fill="#CC6127"/>
<path d="M714.158 270.171C714.158 270.171 678.144 262.131 659.733 290.931C696.518 295.336 714.158 270.171 714.158 270.171Z" fill="#CC6127"/>
<path d="M703.126 203.595C703.126 203.595 670.086 239.279 653.198 313.179" stroke="#0E2B14" stroke-width="0.58" stroke-miterlimit="10"/>
<path d="M816.968 126.996C816.968 126.996 851.496 140.616 851.349 173.95C822.714 167.966 816.968 126.996 816.968 126.996Z" fill="#CC6127"/>
<path d="M863.959 136.449C863.959 136.449 884.15 168.902 861.555 194.582C848.081 161.322 863.959 136.449 863.959 136.449Z" fill="#CC6127"/>
<path d="M884.059 160.349C884.059 160.349 897.752 196.014 870.769 217.013C863.794 181.807 884.059 160.349 884.059 160.349Z" fill="#CC6127"/>
<path d="M897.77 186.598C897.77 186.598 907.627 223.512 878.589 241.537C875.358 205.798 897.77 186.598 897.77 186.598Z" fill="#CC6127"/>
<path d="M813.94 192.674C813.94 192.674 849.972 184.634 868.383 213.434C831.58 217.766 813.94 192.674 813.94 192.674Z" fill="#CC6127"/>
<path d="M821.062 214.186C821.062 214.186 857.094 206.146 875.505 234.946C838.72 239.278 821.062 214.186 821.062 214.186Z" fill="#CC6127"/>
<path d="M832.112 147.536C832.112 147.536 865.06 183.22 882.021 257.139" stroke="#0E2B14" stroke-width="0.58" stroke-miterlimit="10"/>
<path d="M858.471 274.411L874.569 222.446C869.888 218.62 864.847 215.258 859.517 212.406L853.423 236.599L856.855 211.047C850.54 207.915 843.881 205.53 837.013 203.944L835.728 273.897L826.385 202.09C814.805 200.83 803.089 201.903 791.931 205.247L812.361 267.913L784.662 207.762L783.928 208.055C777.56 210.657 771.521 214.002 765.939 218.023L788.26 254.991L758.891 223.694C753.204 228.772 748.2 234.565 744.004 240.93L798.429 291.647L738.809 249.833C733.578 260.153 730.316 271.358 729.191 282.873L770.381 295.869L728.732 290.363C728.585 297.87 729.325 305.368 730.935 312.701L758.468 313.124L732.458 318.887C733.399 322.127 734.514 325.313 735.799 328.432C755.275 376.157 808.378 399.451 854.396 380.636C900.413 361.821 921.908 307.929 902.414 260.277C897.594 248.455 890.461 237.715 881.434 228.687L858.471 274.411Z" fill="#0E2B14"/>
<path d="M1259.86 187.68L1276.54 133.824C1271.69 129.855 1266.47 126.369 1260.94 123.417L1254.62 148.454L1258.3 122.003C1251.75 118.774 1244.85 116.311 1237.74 114.661L1236.42 187.093L1226.78 112.807C1214.79 111.494 1202.66 112.605 1191.11 116.074L1212.26 180.944L1183.53 118.718L1182.78 119.011C1176.18 121.699 1169.92 125.162 1164.13 129.327L1187.24 167.617L1156.79 135.201C1150.89 140.457 1145.71 146.454 1141.35 153.043L1197.72 205.559L1135.99 162.276C1130.57 172.943 1127.19 184.528 1126.02 196.436L1168.7 209.872L1125.58 204.2C1125.44 211.968 1126.21 219.725 1127.9 227.31L1156.48 227.769L1129.55 233.735C1130.53 237.083 1131.68 240.38 1133 243.61C1153.19 292.95 1208.15 317.143 1255.8 297.649C1303.45 278.156 1325.66 222.446 1305.47 173.051C1300.49 160.804 1293.11 149.681 1283.75 140.341L1259.86 187.68Z" fill="#0E2B14"/>
<path d="M1098.38 313.564L1123.14 -173.671V-460.81H1188.18L1183.83 -116.951L1190.75 313.564H1098.38Z" fill="#2C6629"/>
<path d="M1125.71 10.5296L1078.34 -56.7993H1070.98L1121.27 24.9939L1125.71 10.5296Z" fill="#2C6629"/>
<path d="M1162.75 38.3198L1283.2 -159.463H1296.31L1162.75 110.072V38.3198Z" fill="#2C6629"/>
<path d="M864.51 313.564L872.256 -227.141L864.51 -461.25H934.445L949.625 -22.8602L980.371 312.261L864.51 313.564Z" fill="#2C6629"/>
<path d="M903.736 97.9392L825.265 -36.4432L817.868 -32.3132L886.188 120.168L903.736 97.9392Z" fill="#2C6629"/>
<path d="M560.208 318.575L590.972 -126.974L566.706 -461.25L625.041 -468.024L659.127 -126.974L672.6 324.32L560.208 318.575Z" fill="#2C6629"/>
<path d="M647.82 69.2129L688.79 -19.5922H693.251L655.401 96.049L647.82 69.2129Z" fill="#2C6629"/>
<path d="M13.4639 318.575L44.2282 -126.974L19.9435 -461.25L78.2964 -468.024L112.365 -126.974L125.856 324.32L13.4639 318.575Z" fill="#2C6629"/>
<path d="M101.076 69.2129L142.028 -19.5922H146.506L108.639 96.049L101.076 69.2129Z" fill="#2C6629"/>
<path d="M251.575 307.378L297.225 -104.598L293.206 -325.216L308.459 -468.795H351.448L341.812 -329.328L357.799 -113.813V307.378H251.575Z" fill="#2C6629"/>
<path d="M308.074 -0.318464L235.201 -144.172L211.559 -249.92H206.199L222.719 -140.74L292.563 46.5621L308.074 -0.318464Z" fill="#2C6629"/>
<path d="M1002.6 231.037L1019.49 209.652C1014.51 203.58 1008.4 198.531 1001.5 194.784L992.798 212.663L996.341 192.27C987.325 188.404 977.503 186.792 967.724 187.571L969.119 223.401L959.427 188.819C949.182 191.039 939.692 195.892 931.894 202.898L950.139 229.789L929.177 205.779C924.161 210.943 920.097 216.952 917.173 223.529L925.763 231.845L916.053 226.118C912.239 235.9 911.028 246.506 912.54 256.896C914.051 267.287 918.233 277.108 924.677 285.399C931.12 293.689 939.604 300.166 949.3 304.197C958.996 308.227 969.571 309.672 979.993 308.392C990.415 307.111 1000.33 303.148 1008.76 296.89C1017.19 290.633 1023.85 282.294 1028.1 272.69C1032.34 263.086 1034.02 252.545 1032.97 242.098C1031.92 231.65 1028.18 221.653 1022.11 213.085L1002.6 231.037Z" fill="#4D7306"/>
<path d="M89.5669 141.057C159.098 143.131 222.426 217.472 254.769 220.225C287.111 222.979 337.369 171.344 393.134 188.562C448.899 205.779 464.777 273.843 464.777 273.843L101.333 292.492L89.5669 141.057Z" fill="#B89309"/>
<path d="M375.935 183.734L379.698 278.266" stroke="#B5A53A" stroke-miterlimit="10"/>
<path d="M405.91 192.214L386.967 277.881" stroke="#B5A53A" stroke-miterlimit="10"/>
<path d="M393.318 277.568L436.766 218.665" stroke="#B5A53A" stroke-miterlimit="10"/>
<path d="M372.723 278.615L338.287 189.112" stroke="#B5A53A" stroke-miterlimit="10"/>
<path d="M119.744 146.197L116.935 292.492" stroke="#B5A53A" stroke-miterlimit="10"/>
<path d="M126.811 291.189L157.263 162.515" stroke="#B5A53A" stroke-miterlimit="10"/>
<path d="M136.337 291.189L194.58 186.139" stroke="#B5A53A" stroke-miterlimit="10"/>
<path d="M105.812 -471.676L77.1951 -255.427L153.794 371.018H-7.47998V-246.469L1.82638 -471.676H105.812Z" fill="#0E2B14"/>
<path d="M155.244 -5.91772C187.623 -2.61369 159.961 77.8579 138.614 77.087C117.266 76.316 124.571 -9.05656 155.244 -5.91772Z" fill="#967C1C"/>
<path d="M219.158 100.252C241.699 109.925 203.703 161.597 188.523 156.255C173.342 150.914 197.774 91.0923 219.158 100.252Z" fill="#5D701E"/>
<path d="M155.244 -5.91772C155.244 -5.91772 88.4837 291.776 81.4535 378.305C130.188 254.881 219.122 100.252 219.122 100.252" stroke="#0E2B14" stroke-width="0.75" stroke-miterlimit="10"/>
<path d="M642.295 148.822L642.589 150.658L638.918 151.208C638.735 151.235 638.55 151.188 638.402 151.077C638.254 150.967 638.155 150.803 638.128 150.621V150.621V150.144C638.113 150.053 638.116 149.96 638.137 149.871C638.158 149.781 638.198 149.697 638.253 149.623C638.308 149.549 638.377 149.487 638.457 149.441C638.536 149.395 638.624 149.365 638.716 149.354L642.295 148.822Z" fill="#7D551F"/>
<path d="M642.295 148.822L642.442 149.74L638.073 150.401V150.162C638.047 149.979 638.094 149.794 638.204 149.646C638.314 149.498 638.478 149.4 638.661 149.373L642.295 148.822Z" fill="#AC752C"/>
<path d="M643.617 146.949C646.511 146.35 649.505 146.435 652.36 147.197C655.216 147.958 657.854 149.376 660.066 151.336C662.278 153.296 664.002 155.746 665.1 158.489C666.199 161.233 666.643 164.195 666.396 167.14C666.268 168.952 665.865 170.735 665.203 172.426C664.845 173.16 664.353 173.82 663.753 174.372C663.34 174.762 662.812 175.007 662.248 175.07H662.046H661.881C661.614 174.915 661.383 174.706 661.202 174.457C661.022 174.207 660.897 173.921 660.834 173.62C660.417 171.993 660.129 170.336 659.972 168.664V168.664C659.953 168.416 659.916 168.171 659.861 167.929V167.929C659.861 167.672 659.861 167.415 659.715 167.14V166.92V166.699C659.715 166.699 659.715 166.571 659.715 166.498C659.706 166.406 659.706 166.314 659.715 166.222C659.715 166.057 659.623 165.873 659.568 165.708C659.529 165.607 659.498 165.503 659.476 165.396L659.201 164.589C659.162 164.512 659.131 164.432 659.109 164.35L658.999 164.093C658.907 163.854 658.797 163.597 658.687 163.359C658.534 163.001 658.362 162.652 658.173 162.312C658.007 161.982 657.824 161.67 657.64 161.358C657.631 161.316 657.631 161.272 657.64 161.229V161.229C657.512 161.028 657.383 160.826 657.237 160.624C656.847 160.049 656.424 159.497 655.97 158.972L655.695 158.678L655.438 158.403L655.291 158.256L654.85 157.797L654.612 157.577L654.263 157.246L654.116 157.136L653.602 156.696C652.828 156.068 652.006 155.504 651.142 155.007V155.007C650.812 154.823 650.482 154.64 650.133 154.475L649.656 154.254L649.252 154.071L648.389 153.722C646.764 153.128 645.066 152.757 643.341 152.621H642.772H642.625H642.442C641.982 152.449 641.581 152.15 641.285 151.758C641.002 151.309 640.868 150.782 640.9 150.253V150.253C640.922 149.956 641.011 149.667 641.16 149.41C641.309 149.152 641.516 148.932 641.763 148.766C642.253 148.042 642.883 147.424 643.617 146.949V146.949Z" fill="#FFD54F"/>
<path d="M640.239 149.519C641.921 149.114 643.652 148.953 645.379 149.042H646.095C651.111 149.449 655.761 151.832 659.02 155.667C662.28 159.501 663.883 164.474 663.478 169.49C663.358 171.003 663.05 172.496 662.56 173.932C662.504 174.144 662.436 174.352 662.358 174.556L662.193 174.942H662.009H661.826C661.564 174.784 661.337 174.574 661.16 174.324C660.983 174.075 660.86 173.791 660.798 173.492C660.372 171.867 660.083 170.209 659.935 168.536V168.536L659.825 167.801C659.825 167.545 659.825 167.269 659.66 167.012V166.847V166.645V166.443V166.168L659.348 165.544C659.325 165.443 659.295 165.345 659.256 165.25L659.091 164.736L658.98 164.442L658.889 164.185C658.866 164.103 658.835 164.023 658.797 163.947C658.705 163.69 658.595 163.451 658.485 163.213L658.393 163.029C658.265 162.735 658.118 162.46 657.971 162.185C657.824 161.909 657.659 161.616 657.494 161.359V161.23V161.102L657.255 160.716L657.09 160.478L656.87 160.147L656.686 159.927V159.817L656.429 159.486L656.19 159.193L655.897 158.826L655.621 158.532L655.364 158.256L655.218 158.11L654.777 157.651L654.538 157.43L654.19 157.1L654.043 156.99L653.896 156.861L653.529 156.549L653.217 156.311L652.85 156.017L652.648 155.889L652.501 155.778L652.152 155.54L651.785 155.301L651.491 155.118L651.051 154.861L650.647 154.622L650.372 154.494L650.041 154.31L649.729 154.163H649.564L649.16 153.98L648.83 153.851L648.554 153.741L648.279 153.649L647.894 153.502H647.673L647.159 153.337H646.811L646.297 153.19H645.929L645.397 153.062H645.048L644.443 152.952H644.112L643.231 152.86H642.662H642.515H642.332C641.874 152.693 641.478 152.393 641.194 151.997C640.821 151.713 640.534 151.331 640.366 150.893C640.197 150.456 640.153 149.98 640.239 149.519V149.519Z" fill="#FFB300"/>
<path d="M660.834 173.473C661.205 173.855 661.67 174.133 662.183 174.278C662.695 174.423 663.237 174.43 663.753 174.299C663.344 174.691 662.812 174.931 662.248 174.978H662.046H661.881C661.608 174.818 661.373 174.601 661.192 174.341C661.011 174.081 660.889 173.785 660.834 173.473V173.473Z" fill="#7D551F"/>
<path d="M660.834 173.473C661.289 173.909 661.853 174.213 662.467 174.354V174.592C662.467 174.721 662.357 174.867 662.302 174.977H662.119H661.935C661.653 174.821 661.409 174.606 661.219 174.346C661.029 174.087 660.898 173.789 660.834 173.473V173.473Z" fill="#AC752C"/>
<path d="M770.785 186.194H674.601V116.13H759.276C762.329 116.13 765.256 117.343 767.414 119.501C769.573 121.66 770.785 124.587 770.785 127.639V186.194Z" fill="#D1B283"/>
<path d="M664.377 186.194V126.336C664.377 124.994 664.641 123.666 665.155 122.426C665.67 121.187 666.423 120.061 667.373 119.113C668.322 118.165 669.449 117.414 670.69 116.902C671.93 116.39 673.259 116.128 674.601 116.13C677.308 116.13 679.904 117.206 681.818 119.12C683.732 121.034 684.807 123.629 684.807 126.336V186.194H664.377Z" fill="#B58B68"/>
<path d="M776.567 220.74C774.559 221.255 772.49 221.49 770.418 221.437C768.491 221.529 766.16 221.566 763.535 221.603H760.763C760.451 221.621 760.139 221.621 759.827 221.603H757.697C757.147 221.603 756.596 221.603 756.045 221.603C749.584 221.603 742.205 221.456 734.918 221.18L728.457 220.85C724.786 220.648 721.114 220.409 717.609 220.134C705.861 219.124 696.885 217.619 696.279 215.38C696.279 215.38 695.673 202.88 695.435 186.213C695.435 185.607 695.435 185.02 695.435 184.377C695.435 181.899 695.435 179.329 695.435 176.704C695.435 174.483 695.435 172.207 695.435 169.913C695.435 150.621 696.316 129.53 698.941 116.094C700.024 110.495 701.437 106.237 703.236 103.997C703.424 103.765 703.626 103.544 703.842 103.336C705.366 101.986 707.027 100.799 708.798 99.7938C711.495 98.1444 714.341 96.7495 717.297 95.627C719.025 94.9534 720.79 94.3774 722.583 93.9016C723.629 93.6446 724.694 93.3693 725.795 93.1857C726.897 93.0021 728.126 92.7452 729.32 92.6167C729.87 92.6167 730.421 92.5065 730.99 92.4515C733.232 92.2769 735.484 92.2769 737.726 92.4515C739.9 92.6408 742.063 92.941 744.206 93.351C746.826 93.8738 749.408 94.5729 751.934 95.4435C754.475 96.2974 756.958 97.3153 759.368 98.4905C763.56 100.489 767.539 102.906 771.244 105.704C771.317 105.745 771.385 105.795 771.446 105.851C771.515 105.923 771.588 105.991 771.666 106.053C773.502 108.237 774.878 119.655 775.796 134.523C775.796 135.312 775.906 136.101 775.943 136.909C776.108 139.479 776.237 142.177 776.365 144.894C776.586 149.758 776.769 154.769 776.916 159.854C777.797 189.205 777.522 219.785 776.567 220.74Z" fill="#A16552"/>
<path d="M765.682 197.739C765.682 197.739 768.583 139.956 767.004 129.034C765.425 118.112 756.211 110.274 739.287 110.99C722.363 111.706 717.517 123.05 716.581 130.631C715.645 138.212 711.239 206.275 717.535 219.968C723.831 233.662 736.075 232.138 736.075 232.138L760.561 222.685L765.682 197.739Z" fill="#F5DCB4"/>
<path opacity="0.35" d="M720.215 174.189L706.283 170.077C709.202 158.754 711.203 147.213 712.267 135.568C712.723 130.981 712.803 126.365 712.506 121.765L708.706 115.726L699.987 196.748L738.02 195.83L715.48 182.063L720.215 174.189Z" fill="black"/>
<path d="M801.678 157.375C799.138 158.764 796.43 159.819 793.62 160.514L792.684 160.735C791.919 160.714 791.167 160.541 790.47 160.226C789.774 159.911 789.147 159.459 788.627 158.899C783.989 154.709 779.872 149.976 776.365 144.802C775.668 143.829 775.026 142.966 774.53 142.03C773.318 140.194 772.364 138.708 771.85 137.753L771.685 137.423C771.149 135.94 770.786 134.4 770.602 132.834C770.602 132.834 770.602 132.834 770.602 132.834C770.51 132.191 770.418 131.512 770.345 130.815C770.345 130.705 770.345 130.594 770.345 130.484C769.914 126.411 769.687 122.319 769.666 118.223C769.574 111.192 770.088 105.135 771.354 105.686C771.427 105.727 771.495 105.776 771.556 105.833C771.625 105.905 771.699 105.972 771.777 106.034C779.119 113.267 803.183 149.905 804.817 153.08C805.386 154.53 803.936 156.054 801.678 157.375Z" fill="#A16552"/>
<path d="M813.536 190.342L804.174 194.857L801.219 196.307C801.219 196.307 790.518 172.225 788.645 158.953C788.177 156.736 788.246 154.439 788.847 152.254C789.035 151.722 789.365 151.252 789.802 150.895C794.684 147.224 798.98 152.364 801.696 157.375C802.928 159.673 803.971 162.067 804.817 164.534L813.536 190.342Z" fill="#A16552"/>
<path d="M752.723 101.849C750.682 102.074 748.628 102.166 746.574 102.124C740.375 102.051 734.209 101.206 728.218 99.6095C726.236 99.0955 724.198 98.4531 722.124 97.7739V97.6271L722.455 93.9559L723.042 87.6232L723.446 83.383L723.868 78.9042L724.345 73.8931V73.1405L724.602 70.2403V69.7998L725.098 64.55L731.559 69.6713L739.911 76.2793L740.627 76.8484L743.38 79.0327L744.335 79.7853L749.75 84.0622L750.41 84.5945L750.796 87.8251L751.732 95.5345L752.723 101.849Z" fill="#A16552"/>
<path opacity="0.35" d="M804.156 194.913L801.201 196.363C801.201 196.363 790.499 172.28 788.627 159.009C783.989 154.819 779.872 150.086 776.365 144.912C776.586 149.776 776.769 154.787 776.916 159.872C776.145 156.586 775.282 153.025 774.456 149.556C773.41 145.15 772.401 140.892 771.611 137.533C771.171 135.697 770.804 134.119 770.528 132.944C770.198 131.641 770.014 130.815 769.978 130.631L770.271 130.925C770.914 131.604 772.474 133.219 774.456 135.385C774.934 135.881 775.429 136.431 775.943 137C780.55 141.848 784.842 146.986 788.792 152.382C789.82 153.979 790.811 155.54 791.729 157.1C792.353 158.165 792.977 159.339 793.565 160.643C798.594 171.05 802.522 187.809 804.156 194.913Z" fill="black"/>
<path opacity="0.35" d="M748.006 89.459C739.599 94.2866 725.759 92.2858 725.759 92.2858C725.759 92.2858 725.759 96.6177 723.226 96.3424C719.426 95.9569 713.956 99.8667 708.761 99.775C711.459 98.1256 714.304 96.7306 717.26 95.6082C718.988 94.9345 720.753 94.3585 722.546 93.8827L724.382 73.6914L724.712 70.0203C730.935 72.6635 755.421 85.2005 748.006 89.459Z" fill="black"/>
<path d="M706.247 37.0535C705.564 39.5418 705.212 42.1092 705.2 44.6894V45.2218C705.221 48.3423 704.87 51.4541 704.154 54.4914C702.426 53.8139 700.924 52.6623 699.822 51.169C696.151 46.4516 697.344 38.889 701.933 37.1085C703.324 36.5566 704.874 36.5566 706.265 37.1085L706.247 37.0535Z" fill="#A16552"/>
<path d="M706.247 37.0535C705.564 39.5418 705.212 42.1092 705.2 44.6894V45.2218C705.221 48.3423 704.87 51.4541 704.154 54.4914C702.426 53.8139 700.924 52.6623 699.822 51.169C696.151 46.4516 697.344 38.889 701.933 37.1085C703.324 36.5566 704.874 36.5566 706.265 37.1085L706.247 37.0535Z" fill="#F5DCB4"/>
<path d="M774.769 51.1872C773.674 52.6876 772.17 53.841 770.437 54.5096C769.72 51.4723 769.369 48.3604 769.39 45.2399C769.4 45.0626 769.4 44.8849 769.39 44.7076C769.382 42.1198 769.024 39.5451 768.326 37.0532C769.717 36.5013 771.266 36.5013 772.658 37.0532C777.247 38.8888 778.495 46.4697 774.769 51.1872Z" fill="#A16552"/>
<path d="M774.769 51.1872C773.674 52.6876 772.17 53.841 770.437 54.5096C769.72 51.4723 769.369 48.3604 769.39 45.2399C769.4 45.0626 769.4 44.8849 769.39 44.7076C769.382 42.1198 769.024 39.5451 768.326 37.0532C769.717 36.5013 771.266 36.5013 772.658 37.0532C777.247 38.8888 778.495 46.4697 774.769 51.1872Z" fill="#F5DCB4"/>
<path d="M760.488 54.6199C759.81 55.6619 759.375 56.8432 759.216 58.0762C759.057 59.3091 759.178 60.562 759.57 61.7419C760.213 63.4567 760.603 65.2561 760.726 67.0834C760.726 78.0968 750.245 87.1279 737.304 87.1279C724.364 87.1279 713.882 78.1519 713.882 67.0834C713.997 65.2548 714.387 63.4541 715.039 61.7419C715.43 60.562 715.551 59.3091 715.392 58.0762C715.233 56.8432 714.799 55.6619 714.121 54.6199C713.798 54.1077 713.509 53.5741 713.258 53.0229C712.491 51.3534 712.097 49.537 712.102 47.6997C712.145 45.9085 712.54 44.1434 713.265 42.5051C713.991 40.8667 715.032 39.3874 716.329 38.1516C717.626 36.9157 719.154 35.9476 720.826 35.3025C722.497 34.6574 724.279 34.3479 726.071 34.3918C728.563 34.3806 731.016 35.0129 733.193 36.2274C734.446 36.9403 735.863 37.3151 737.304 37.3151C738.746 37.3151 740.163 36.9403 741.416 36.2274C743.592 35.0105 746.045 34.3781 748.538 34.3918C752.154 34.308 755.656 35.6621 758.274 38.1571C760.893 40.652 762.415 44.0839 762.507 47.6997C762.512 49.537 762.117 51.3534 761.35 53.0229C761.099 53.5741 760.811 54.1077 760.488 54.6199V54.6199Z" fill="#A16552"/>
<path d="M760.488 54.6199C759.81 55.6619 759.375 56.8432 759.216 58.0762C759.057 59.3091 759.178 60.562 759.57 61.7419C760.213 63.4567 760.603 65.2561 760.726 67.0834C760.726 78.0968 750.245 87.1279 737.304 87.1279C724.364 87.1279 713.882 78.1519 713.882 67.0834C713.997 65.2548 714.387 63.4541 715.039 61.7419C715.43 60.562 715.551 59.3091 715.392 58.0762C715.233 56.8432 714.799 55.6619 714.121 54.6199C713.798 54.1077 713.509 53.5741 713.258 53.0229C712.491 51.3534 712.097 49.537 712.102 47.6997C712.145 45.9085 712.54 44.1434 713.265 42.5051C713.991 40.8667 715.032 39.3874 716.329 38.1516C717.626 36.9157 719.154 35.9476 720.826 35.3025C722.497 34.6574 724.279 34.3479 726.071 34.3918C728.563 34.3806 731.016 35.0129 733.193 36.2274C734.446 36.9403 735.863 37.3151 737.304 37.3151C738.746 37.3151 740.163 36.9403 741.416 36.2274C743.592 35.0105 746.045 34.3781 748.538 34.3918C752.154 34.308 755.656 35.6621 758.274 38.1571C760.893 40.652 762.415 44.0839 762.507 47.6997C762.512 49.537 762.117 51.3534 761.35 53.0229C761.099 53.5741 760.811 54.1077 760.488 54.6199V54.6199Z" fill="#F5DCB4"/>
<path d="M725.428 69.5614C725.237 69.5626 725.047 69.6043 724.873 69.6838C724.699 69.7633 724.543 69.8788 724.417 70.0226C724.29 70.1665 724.195 70.3356 724.139 70.5187C724.082 70.7018 724.065 70.8948 724.088 71.085C724.796 74.0729 726.491 76.7346 728.9 78.6393C731.308 80.544 734.289 81.5802 737.359 81.5802C740.43 81.5802 743.411 80.544 745.819 78.6393C748.228 76.7346 749.923 74.0729 750.631 71.085C750.654 70.8948 750.637 70.7018 750.58 70.5187C750.524 70.3356 750.429 70.1665 750.302 70.0226C750.176 69.8788 750.02 69.7633 749.846 69.6838C749.671 69.6043 749.482 69.5626 749.291 69.5614H725.428Z" fill="#573C31"/>
<path d="M729.595 79.3818C731.904 80.8339 734.577 81.6043 737.304 81.6043C740.032 81.6043 742.705 80.8339 745.014 79.3818C744.041 76.041 740.957 76.812 737.304 76.812C733.652 76.812 730.568 76.041 729.595 79.3818Z" fill="#E6646E"/>
<path d="M774.255 34.6674C773.216 34.2121 772.085 34.0081 770.952 34.0719C769.82 34.1357 768.719 34.4654 767.738 35.0345C767.361 33.9294 766.926 32.8449 766.435 31.7855C766.068 30.9962 765.682 30.2069 765.279 29.4543C762.617 24.5982 758.928 20.3821 754.467 17.1009C751.797 15.1428 748.844 13.6017 745.711 12.5304L745.546 8.14331L740.241 11.3556H739.617C739.213 11.3556 738.828 11.3556 738.442 11.2638L737.653 7.92305L737.433 6.9502H737.323H736.662C735.003 7.17492 733.425 7.80722 732.07 8.79059C730.716 9.77396 729.625 11.0778 728.897 12.5854C720.509 15.6177 713.54 21.6459 709.33 29.5094C708.908 30.262 708.523 31.0513 708.174 31.8406C707.675 32.8966 707.24 33.9815 706.871 35.0895L706.669 34.9794C705.705 34.4602 704.635 34.1672 703.541 34.1227C702.447 34.0781 701.357 34.2833 700.354 34.7225C694.517 36.9619 693.012 46.5619 697.674 52.5459C699.136 54.5878 701.204 56.1165 703.585 56.9145C703.576 57.0245 703.576 57.135 703.585 57.2449C703.232 58.8547 703.053 60.4979 703.053 62.1459C703.053 73.4898 711.313 83.2 723.244 87.6054C723.357 87.6562 723.474 87.6991 723.593 87.7338C726.425 88.7666 729.37 89.4568 732.367 89.7897C733.92 89.9812 735.483 90.0793 737.047 90.0834H737.415C737.873 90.0834 738.332 90.0834 738.773 90.0834C740.261 90.0576 741.745 89.9288 743.215 89.6979C745.274 89.4391 747.307 89.0031 749.291 88.3946C749.915 88.2111 750.527 88.0092 751.126 87.7889C763.278 83.512 771.758 73.655 771.758 62.1826C771.757 60.5346 771.579 58.8914 771.226 57.2816C771.234 57.1717 771.234 57.0612 771.226 56.9512C773.604 56.1477 775.671 54.62 777.136 52.5826C781.652 46.5068 780.073 36.9068 774.255 34.6674ZM706.246 37.0536C705.564 39.5419 705.212 42.1094 705.2 44.6896V45.2219C705.219 48.3423 704.868 51.4539 704.154 54.4916C702.426 53.814 700.924 52.6624 699.822 51.1692C696.151 46.4518 697.344 38.8892 701.933 37.1087C703.316 36.5484 704.863 36.5484 706.246 37.1087V37.0536ZM761.314 53.0048C761.057 53.5554 760.763 54.0694 760.451 54.6017C759.772 55.6432 759.337 56.8246 759.178 58.0577C759.019 59.2909 759.14 60.5441 759.533 61.7237C760.178 63.4317 760.568 65.2254 760.69 67.0469C760.582 70.5692 759.524 73.9969 757.628 76.9667C755.731 79.9364 753.066 82.3377 749.915 83.9158C749.322 84.2428 748.709 84.531 748.079 84.7786C746.202 85.6415 744.222 86.2585 742.187 86.6141C740.541 86.9256 738.869 87.0793 737.194 87.073C736.397 87.0826 735.601 87.0458 734.808 86.9629C734.404 86.9629 734.019 86.9629 733.633 86.8344C733.337 86.8109 733.043 86.7679 732.752 86.7059C732.388 86.658 732.026 86.5906 731.669 86.504L730.623 86.2654L729.485 85.9717L728.567 85.678L727.044 85.1089C726.524 84.9028 726.015 84.67 725.52 84.4114C724.825 84.072 724.151 83.692 723.501 83.2734C723.213 83.1238 722.936 82.952 722.675 82.7594C722.216 82.4474 721.794 82.117 721.372 81.7866C720.949 81.4562 720.711 81.2726 720.417 81.0156L719.94 80.5751C719.186 79.8638 718.486 79.0968 717.847 78.2806C717.578 77.9257 717.321 77.577 717.076 77.2344C716.832 76.8917 716.556 76.4512 716.25 75.9128C715.993 75.4722 715.755 75.05 715.534 74.5911C715.314 74.1322 715.351 74.1689 715.277 73.967C714.96 73.2471 714.696 72.5047 714.488 71.746C714.48 71.6912 714.48 71.6355 714.488 71.5808C714.387 71.2559 714.308 70.9248 714.25 70.5895C714.207 70.4393 714.176 70.2858 714.158 70.1306C714.158 69.7268 714.029 69.323 713.993 68.9008C713.974 68.7362 713.974 68.5699 713.993 68.4052C713.993 67.9647 713.993 67.5241 713.993 67.0836C714.106 65.2608 714.496 63.4658 715.149 61.7604C715.537 60.58 715.655 59.3278 715.497 58.0955C715.338 56.8632 714.905 55.682 714.231 54.6384C713.905 54.1281 713.616 53.5943 713.368 53.0415C712.593 51.3739 712.193 49.5571 712.194 47.7183C712.285 44.0992 713.81 40.6645 716.433 38.169C719.055 35.6736 722.562 34.3216 726.181 34.4104H727.154L728.09 34.5205C728.404 34.5441 728.717 34.587 729.026 34.649C729.769 34.7986 730.5 35.0072 731.21 35.2731C731.437 35.3491 731.658 35.4411 731.871 35.5484C732.369 35.7361 732.848 35.9696 733.303 36.246L734.184 36.6498C734.735 36.8928 735.315 37.0655 735.909 37.1637V37.1637C737.796 37.5046 739.742 37.1802 741.416 36.246L741.728 36.0624C743.822 34.9419 746.163 34.3615 748.538 34.3737C750.329 34.3298 752.111 34.6392 753.783 35.2843C755.454 35.9294 756.983 36.8975 758.28 38.1334C759.577 39.3693 760.618 40.8486 761.343 42.487C762.069 44.1253 762.464 45.8904 762.507 47.6816C762.516 49.5252 762.122 51.3486 761.35 53.0231L761.314 53.0048ZM774.732 51.1692C773.631 52.6645 772.129 53.8167 770.4 54.4916C769.686 51.4539 769.334 48.3423 769.353 45.2219C769.363 45.0446 769.363 44.8669 769.353 44.6896C769.345 42.1019 768.987 39.5271 768.289 37.0352C769.678 36.4739 771.231 36.4739 772.621 37.0352C777.246 38.8892 778.495 46.4701 774.768 51.1876L774.732 51.1692Z" fill="#A16552"/>
<path d="M731.473 59.5373L731.466 59.5541C731.209 60.1165 731.457 60.7808 732.019 61.0377L734.64 62.2351C735.203 62.4921 735.867 62.2444 736.124 61.6819L736.132 61.6652C736.389 61.1027 736.141 60.4384 735.578 60.1815L732.957 58.9841C732.395 58.7272 731.73 58.9749 731.473 59.5373Z" fill="#573C31"/>
<path d="M741.67 59.0506L739.049 60.248C738.486 60.505 738.238 61.1693 738.495 61.7318L738.503 61.7484C738.76 62.3109 739.424 62.5586 739.987 62.3017L742.608 61.1043C743.17 60.8474 743.418 60.1831 743.161 59.6206L743.154 59.6039C742.897 59.0415 742.232 58.7937 741.67 59.0506Z" fill="#573C31"/>
<path d="M725.263 53.023C724.75 53.0377 724.238 52.951 723.758 52.768C723.278 52.5849 722.839 52.3091 722.466 51.9562C722.092 51.6033 721.792 51.1803 721.583 50.7114C721.373 50.2425 721.257 49.7369 721.243 49.2234V47.9568C721.272 46.9182 721.711 45.9332 722.465 45.2176C723.218 44.5021 724.224 44.1141 725.263 44.1388V44.1388C726.302 44.1141 727.308 44.5021 728.062 45.2176C728.815 45.9332 729.254 46.9182 729.283 47.9568V49.2234C729.269 49.7369 729.153 50.2425 728.944 50.7114C728.734 51.1803 728.434 51.6033 728.06 51.9562C727.687 52.3091 727.248 52.5849 726.768 52.768C726.288 52.951 725.777 53.0377 725.263 53.023V53.023Z" fill="#573C31"/>
<path d="M725.263 44.1388V48.5809C725.311 49.0809 725.543 49.545 725.915 49.8828C726.286 50.2206 726.771 50.4078 727.273 50.4078C727.775 50.4078 728.259 50.2206 728.631 49.8828C729.003 49.545 729.235 49.0809 729.283 48.5809V47.9568C729.254 46.9182 728.815 45.9332 728.061 45.2176C727.308 44.5021 726.302 44.1141 725.263 44.1388V44.1388Z" fill="#573C31"/>
<path d="M725.281 47.9569C726.021 47.9569 726.621 47.3899 726.621 46.6904C726.621 45.9909 726.021 45.4238 725.281 45.4238C724.541 45.4238 723.941 45.9909 723.941 46.6904C723.941 47.3899 724.541 47.9569 725.281 47.9569Z" fill="white"/>
<path d="M749.291 53.023C748.777 53.0377 748.266 52.951 747.786 52.768C747.306 52.5849 746.867 52.3091 746.493 51.9562C746.12 51.6033 745.82 51.1803 745.61 50.7114C745.4 50.2425 745.285 49.7369 745.271 49.2234V47.9568C745.3 46.9182 745.739 45.9332 746.492 45.2176C747.246 44.5021 748.252 44.1141 749.291 44.1388V44.1388C749.804 44.1266 750.315 44.2157 750.794 44.401C751.273 44.5863 751.711 44.8642 752.082 45.2188C752.454 45.5733 752.752 45.9976 752.96 46.4674C753.167 46.9373 753.28 47.4433 753.292 47.9568V49.2234C753.263 50.2572 752.826 51.2374 752.076 51.9496C751.326 52.6617 750.325 53.0477 749.291 53.023V53.023Z" fill="#573C31"/>
<path d="M749.291 44.1388V48.5809C749.291 49.1116 749.502 49.6205 749.877 49.9957C750.252 50.3709 750.761 50.5817 751.292 50.5817C751.822 50.5817 752.331 50.3709 752.706 49.9957C753.082 49.6205 753.292 49.1116 753.292 48.5809V47.9568C753.28 47.4433 753.167 46.9372 752.96 46.4674C752.752 45.9976 752.454 45.5733 752.083 45.2188C751.711 44.8642 751.273 44.5863 750.794 44.401C750.315 44.2157 749.804 44.1266 749.291 44.1388V44.1388Z" fill="#573C31"/>
<path d="M749.346 47.9569C750.086 47.9569 750.686 47.3899 750.686 46.6904C750.686 45.9909 750.086 45.4238 749.346 45.4238C748.606 45.4238 748.006 45.9909 748.006 46.6904C748.006 47.3899 748.606 47.9569 749.346 47.9569Z" fill="white"/>
<path opacity="0.35" d="M738.663 89.9911C738.222 89.9911 737.763 89.9911 737.304 89.9911H736.937C735.373 89.987 733.81 89.8889 732.257 89.6974C729.26 89.3645 726.315 88.6743 723.483 87.6416C711.404 83.3096 702.979 73.5076 702.979 62.0537C702.98 60.4056 703.158 58.7625 703.511 57.1527C703.503 57.0427 703.503 56.9322 703.511 56.8223C701.131 56.0243 699.062 54.4955 697.601 52.4536C692.883 46.4697 694.444 36.8696 700.281 34.6302C701.284 34.191 702.374 33.9859 703.468 34.0304C704.562 34.075 705.631 34.3679 706.595 34.8872L706.797 34.9973C707.166 33.8893 707.602 32.8043 708.1 31.7483C708.449 30.959 708.835 30.1697 709.257 29.4171C713.466 21.5536 720.436 15.5254 728.824 12.4931C729.552 10.9855 730.642 9.68173 731.997 8.69836C733.352 7.71499 734.929 7.08263 736.589 6.85791H737.249L735.799 37.2183C733.786 36.5009 731.659 36.1526 729.522 36.1904C726.658 36.631 725.263 37.8791 724.015 43.9732C724.015 44.1017 724.015 44.2302 723.923 44.3771C723.409 46.8367 722.895 49.3698 722.455 51.958C721.005 60.732 720.619 70.1302 723.923 78.684C724.934 81.3732 726.563 83.7875 728.677 85.7326C731.446 88.2124 734.956 89.7093 738.663 89.9911V89.9911Z" fill="black"/>
<path opacity="0.3" d="M813.536 190.342L804.174 194.858L801.219 196.308C801.219 196.308 790.518 172.225 788.646 158.954C784.007 154.764 779.89 150.031 776.384 144.857C776.604 149.721 776.788 154.732 776.935 159.816C777.816 189.186 777.54 219.785 776.586 220.739C774.578 221.254 772.509 221.489 770.437 221.437C770.381 222.169 770.069 222.858 769.556 223.382C769.115 223.603 760.58 225.952 756.211 227.164C756.157 227.282 756.114 227.405 756.082 227.531C759.297 226.711 762.567 226.128 765.866 225.787C766.105 226.136 764.655 228.247 764.03 228.559C763.406 228.871 757.698 230.394 753.256 231.661C747.763 233.742 741.827 234.374 736.02 233.496L734.423 234.047C734.147 233.441 733.835 232.817 733.523 232.212C732.055 229.109 730.311 225.236 728.512 220.978C725.074 212.977 722.179 204.753 719.848 196.363C718.997 193.229 718.328 190.048 717.847 186.836C717.838 186.659 717.838 186.481 717.847 186.304C717.756 185.698 717.701 185.111 717.627 184.468C717.554 183.826 717.627 183.661 717.535 183.275C717.409 181.878 717.372 180.474 717.425 179.072C717.461 177.205 717.752 175.353 718.288 173.565C718.412 173.183 718.56 172.809 718.728 172.445C719.181 171.244 719.893 170.158 720.813 169.263C721.733 168.369 722.839 167.688 724.052 167.269C740.572 161.432 746.079 133.292 747.106 116.093C747.217 114.368 747.29 112.771 747.308 111.302C747.308 109.008 747.308 107.08 747.18 105.612C747.086 104.435 746.927 103.265 746.703 102.106C746.078 99.1272 745.288 96.1857 744.335 93.2952C744.133 92.6344 743.931 91.992 743.729 91.2761C743.527 90.5602 743.399 90.1747 743.233 89.5873C742.958 88.6696 742.683 87.66 742.426 86.6321C741.967 84.925 741.526 83.1078 741.122 81.1254C743.533 80.58 745.729 79.3341 747.434 77.5443C749.139 75.7546 750.277 73.5009 750.704 71.0664C750.727 70.8762 750.71 70.6832 750.654 70.5001C750.597 70.317 750.502 70.148 750.376 70.0041C750.249 69.8602 750.094 69.7447 749.919 69.6652C749.745 69.5857 749.556 69.5441 749.364 69.5429H739.415C739.195 67.2484 739.03 64.7704 738.92 62.0905V60.4201C738.92 58.5845 738.828 56.5837 738.92 54.5095C738.896 48.2616 739.933 42.0549 741.985 36.1538C744.531 28.8382 748.918 22.3016 754.724 17.174C759.185 20.4552 762.875 24.6712 765.536 29.5273C765.939 30.2799 766.325 31.0693 766.692 31.8585C767.183 32.918 767.618 34.0024 767.995 35.1075C768.976 34.5384 770.077 34.2086 771.21 34.1448C772.342 34.0811 773.473 34.2851 774.512 34.7404C780.33 36.9798 781.854 46.5799 777.192 52.5638C775.726 54.6013 773.659 56.1289 771.281 56.9324C771.29 57.0424 771.29 57.1529 771.281 57.2629C771.634 58.8727 771.813 60.5158 771.813 62.1638C771.813 73.6362 763.333 83.4933 751.181 87.7701L752.118 95.4795C754.659 96.3335 757.142 97.3513 759.552 98.5266C763.743 100.525 767.722 102.942 771.428 105.74C771.501 105.781 771.568 105.831 771.63 105.887C771.699 105.959 771.772 106.027 771.85 106.089C779.192 113.321 803.257 149.959 804.89 153.135C805.625 154.603 804.174 156.127 801.917 157.449C803.148 159.747 804.192 162.141 805.037 164.607L813.536 190.342Z" fill="#F0D09C"/>
<path d="M709.22 144.214C707.568 153.227 705.953 162.863 703.97 170.316C703.193 173.827 701.958 177.221 700.299 180.412C699.827 181.268 699.206 182.033 698.464 182.669C694.792 185.643 690.938 185.514 688.313 182.119C686.306 179.116 685.175 175.614 685.046 172.005C684.293 164.167 691.69 121.728 700.795 107.154C702.722 104.052 704.723 102.216 706.742 102.216C717.058 102.216 713.093 123.105 709.22 144.214Z" fill="#A16552"/>
<path d="M738.608 174.721L735.891 183.899L735.799 184.211L735.561 185.019C735.561 185.019 690.222 191.113 688.295 182.155C686.844 175.272 688.295 171.931 692.058 170.628C694.829 169.618 698.886 169.729 703.989 170.353C712.744 171.344 724.657 173.84 738.608 174.721Z" fill="#A16552"/>
<path d="M740.92 215.104C749.07 211.433 751.75 204.513 754.137 202.549C754.797 202.127 758.469 202.255 756.633 205.926L750.392 218.059L740.92 215.104Z" fill="#A16552"/>
<path d="M759.35 213.507C759.35 213.507 759.093 215.049 758.652 217.178C758.652 217.38 758.652 217.582 758.524 217.802C758.303 218.959 758.028 220.244 757.698 221.584C757.698 221.767 757.606 221.969 757.551 222.171C757.519 222.363 757.476 222.553 757.422 222.74C757.33 223.125 757.22 223.529 757.129 223.915C756.835 225.034 756.523 226.099 756.192 227.09C756.139 227.209 756.096 227.331 756.064 227.457C755.742 228.932 754.972 230.272 753.861 231.294L753.2 231.588C747.708 233.669 741.772 234.301 735.964 233.423L735.854 232.101L734.918 221.088L734.771 219.252C736.729 217.712 738.789 216.308 740.939 215.049L741.269 214.884C741.728 214.663 742.187 214.443 742.609 214.205C743.493 213.681 744.531 213.48 745.546 213.636C747.788 214.075 750.084 214.174 752.356 213.929C754.045 213.929 755.715 213.709 757 213.617C758.285 213.525 759.35 213.507 759.35 213.507Z" fill="#A16552"/>
<path d="M763.975 228.559C763.553 228.779 757.642 230.394 753.2 231.661C750.465 232.45 748.263 233.037 748.263 233.037L749.18 228.999L756.064 227.531C759.278 226.711 762.548 226.128 765.847 225.787C766.086 226.117 764.636 228.246 763.975 228.559Z" fill="#A16552"/>
<path d="M755.22 218.537C762.14 217.197 772.474 214.976 772.933 215.325C773.392 215.673 772.823 217.803 772.199 218.115C771.575 218.427 756.303 222.593 756.303 222.593L755.22 218.537Z" fill="#A16552"/>
<path d="M752.081 214.701C758.982 213.361 769.335 211.14 769.794 211.488C770.253 211.837 769.665 213.966 769.06 214.278C768.454 214.59 753.164 218.757 753.164 218.757L752.081 214.701Z" fill="#A16552"/>
<path d="M770.418 221.437C770.363 222.169 770.051 222.858 769.537 223.383C769.097 223.603 760.561 225.953 756.193 227.164L753.641 227.862L752.962 225.567L752.485 223.732L757.349 222.759L760.58 222.116L763.461 221.547C765.668 220.988 767.925 220.644 770.198 220.52C770.437 220.703 770.455 221.033 770.418 221.437Z" fill="#A16552"/>
<path d="M735.964 233.46L734.367 234.011C726.548 236.764 692.571 248.218 689.212 240.857C681.87 224.925 695.692 226.522 718.985 222.685C721.996 222.19 725.153 221.602 728.457 220.85C730.513 220.409 732.624 219.914 734.771 219.344L734.918 221.18L735.854 232.194L735.964 233.46Z" fill="#A16552"/>
<path d="M762.232 182.761L760.543 182.871C758.377 182.981 754.375 183.183 750.19 183.44C744.261 183.752 737.929 184.101 735.799 184.248H735.047C735.04 184.168 735.04 184.088 735.047 184.009C734.934 182.297 735.195 180.58 735.813 178.979C736.432 177.378 737.391 175.931 738.626 174.739C739.158 174.262 744.812 172.335 748.997 170.573C761.387 165.268 764.765 174.042 765.334 178.392C765.468 178.887 765.491 179.405 765.401 179.909C765.311 180.413 765.111 180.891 764.814 181.309C764.517 181.727 764.132 182.073 763.686 182.324C763.239 182.575 762.742 182.725 762.232 182.761V182.761Z" fill="#A16552"/>
<path d="M752.558 173.455C752.558 173.455 756.761 174.813 756.541 183.073" stroke="#5E3B31" stroke-width="0.5" stroke-miterlimit="10" stroke-linecap="round"/>
<path d="M757.037 172.39C757.037 172.39 761.24 173.749 761.02 181.99" stroke="#5E3B31" stroke-width="0.5" stroke-miterlimit="10" stroke-linecap="round"/>
<path d="M748.887 174.905C748.887 174.905 750.41 176.098 750.19 183.422" stroke="#5E3B31" stroke-width="0.5" stroke-miterlimit="10" stroke-linecap="round"/>
<path d="M744.169 176.557C745.02 178.722 745.23 181.086 744.775 183.367" stroke="#5E3B31" stroke-width="0.5" stroke-miterlimit="10" stroke-linecap="round"/>
<path d="M646.994 177.364C644.921 176.601 643.216 175.079 642.222 173.106C641.742 172.151 641.463 171.107 641.403 170.04C641.343 168.973 641.503 167.904 641.873 166.901C642.627 165.057 644.026 163.55 645.809 162.662C647.593 161.774 649.638 161.565 651.565 162.074C651.927 162.165 652.283 162.282 652.629 162.423C654.654 163.029 656.356 164.415 657.359 166.275C658.363 168.136 658.586 170.319 657.98 172.344C657.374 174.369 655.988 176.071 654.128 177.074C652.267 178.078 650.084 178.301 648.059 177.695V177.695C647.694 177.618 647.338 177.508 646.994 177.364V177.364ZM643.984 167.691C643.72 168.403 643.607 169.162 643.652 169.92C643.696 170.678 643.896 171.419 644.241 172.096C644.972 173.569 646.24 174.706 647.783 175.272L648.591 175.529C649.982 175.908 651.464 175.77 652.761 175.138C654.058 174.507 655.081 173.426 655.64 172.096C656.139 170.587 656.02 168.941 655.308 167.52C654.595 166.099 653.348 165.018 651.84 164.515L651.032 164.258C649.641 163.878 648.159 164.017 646.862 164.649C645.566 165.28 644.543 166.361 643.984 167.691V167.691Z" fill="#BCBCBC"/>
<path opacity="0.2" d="M648.334 175.419L648.664 175.529C650.056 175.909 651.538 175.77 652.834 175.139C654.131 174.508 655.154 173.426 655.713 172.097C656.213 170.588 656.093 168.942 655.381 167.521C654.669 166.099 653.422 165.019 651.913 164.516L651.106 164.259C650.145 164.039 649.148 164.039 648.187 164.259C648.334 163.451 648.481 162.662 648.664 161.909C649.659 161.798 650.665 161.86 651.638 162.093C652.001 162.184 652.356 162.301 652.703 162.442C654.769 163.151 656.468 164.652 657.429 166.613C658.389 168.575 658.531 170.838 657.824 172.905C657.137 174.595 655.902 176.005 654.318 176.911C652.734 177.816 650.892 178.163 649.087 177.897C648.771 177.092 648.52 176.264 648.334 175.419V175.419Z" fill="white"/>
<path d="M671.15 156.237H650.06V183.514H671.15V156.237Z" fill="white"/>
<path opacity="0.15" d="M654.704 156.237H650.06V183.514H654.704V156.237Z" fill="black"/>
<path opacity="0.15" d="M661.734 170.115L664.671 173.125L664.414 177.108H658.925L658.43 173.125L661.734 170.115Z" fill="black"/>
<path d="M661.55 155.595V170.922" stroke="#3D3C3A" stroke-width="0.66" stroke-miterlimit="10"/>
<path d="M895.494 162.277C895.494 162.277 901.258 171.62 889.088 171.454C876.918 171.289 882.664 189.718 860.875 181.018" stroke="#D0D8DB" stroke-width="0.52" stroke-miterlimit="10"/>
<path d="M878.937 160.771H830.845V178.411H878.937V160.771Z" fill="#C8D6DB"/>
<path d="M913.887 64.8989H795.896C793.24 64.8989 791.087 67.0521 791.087 69.7081V162.533C791.087 165.189 793.24 167.342 795.896 167.342H913.887C916.543 167.342 918.696 165.189 918.696 162.533V69.7081C918.696 67.0521 916.543 64.8989 913.887 64.8989Z" fill="#E4EEF3"/>
<path opacity="0.7" d="M914.033 67.8538H799.438C796.863 67.8538 794.776 69.9412 794.776 72.5161V162.68C794.776 165.255 796.863 167.342 799.438 167.342H914.033C916.608 167.342 918.696 165.255 918.696 162.68V72.5161C918.696 69.9412 916.608 67.8538 914.033 67.8538Z" fill="#C8D6DB"/>
<path d="M886.114 175.198H823.264V178.41H886.114V175.198Z" fill="#A9B8BD"/>
<path d="M909.812 178.411H800.907V183.789H909.812V178.411Z" fill="#E4EEF3"/>
<path d="M795.088 178.411H706.834V183.789H795.088V178.411Z" fill="#E4EEF3"/>
<path d="M950.653 191.609H617.515V326.45H950.653V191.609Z" fill="#573C31"/>
<path opacity="0.2" d="M934.794 207.303H633.393V313.069H934.794V207.303Z" fill="#002232"/>
<path opacity="0.2" d="M950.653 191.205H617.515V198.143H950.653V191.205Z" fill="#002232"/>
<path d="M964.42 182.743H603.509V192.674H964.42V182.743Z" fill="#573C31"/>
<path d="M758.615 37.5855H747.125C745.884 37.5886 744.665 37.9131 743.588 38.5276C742.51 39.1421 741.61 40.0254 740.975 41.0914C740.613 40.9225 740.23 40.7992 739.837 40.7243C739.377 40.6432 738.91 40.6064 738.442 40.6141C736.515 40.4611 734.576 40.6855 732.734 41.2749C732.112 40.1608 731.204 39.2329 730.104 38.5875C729.003 37.942 727.75 37.6024 726.474 37.6038H714.984C713.808 37.6039 712.65 37.8938 711.613 38.4476C710.576 39.0015 709.691 39.8023 709.036 40.7793L706.852 35.0523L706.136 34.6852L705.292 34.3732L708.449 42.3396C708.018 43.0658 707.801 43.8997 707.825 44.7442V51.1871C707.83 53.0842 708.586 54.9022 709.927 56.2437C711.269 57.5852 713.087 58.341 714.984 58.3458H726.474C728.372 58.341 730.19 57.5852 731.531 56.2437C732.873 54.9022 733.628 53.0842 733.633 51.1871V44.7442C733.633 44.1246 733.553 43.5077 733.395 42.9086C735.015 42.4105 736.717 42.2297 738.406 42.3763C738.772 42.3467 739.14 42.3467 739.507 42.3763C739.768 42.4195 740.021 42.4999 740.26 42.6149C740.07 43.2651 739.971 43.9384 739.966 44.6157V51.0586C739.971 52.9557 740.726 54.7737 742.068 56.1152C743.409 57.4567 745.228 58.2124 747.125 58.2173H758.615C760.512 58.2124 762.33 57.4567 763.672 56.1152C765.013 54.7737 765.769 52.9557 765.774 51.0586V44.6157C765.769 43.671 765.582 42.7361 765.223 41.8623L769.408 34.2263L768.491 34.5384L767.72 34.9422L764.306 40.3021C763.629 39.4428 762.764 38.7508 761.777 38.2797C760.791 37.8086 759.709 37.5711 758.615 37.5855V37.5855ZM731.834 51.1687C731.837 51.8741 731.7 52.5731 731.432 53.2255C731.163 53.8779 730.769 54.4709 730.271 54.9706C729.773 55.4702 729.181 55.8667 728.53 56.1372C727.878 56.4077 727.18 56.5469 726.474 56.5469H714.984C713.56 56.5421 712.197 55.9733 711.193 54.9652C710.188 53.9571 709.624 52.5919 709.624 51.1687V44.7258C709.624 44.0219 709.762 43.325 710.032 42.6747C710.301 42.0244 710.696 41.4335 711.194 40.9358C711.691 40.4381 712.282 40.0433 712.933 39.7739C713.583 39.5046 714.28 39.366 714.984 39.366H726.474C727.178 39.366 727.875 39.5046 728.526 39.7739C729.176 40.0433 729.767 40.4381 730.264 40.9358C730.762 41.4335 731.157 42.0244 731.426 42.6747C731.696 43.325 731.834 44.0219 731.834 44.7258V51.1687ZM763.975 51.1687C763.975 52.5919 763.411 53.9571 762.406 54.9652C761.402 55.9733 760.039 56.5421 758.615 56.5469H747.125C745.701 56.5421 744.338 55.9733 743.333 54.9652C742.329 53.9571 741.765 52.5919 741.765 51.1687V44.7258C741.765 44.0219 741.903 43.325 742.173 42.6747C742.442 42.0244 742.837 41.4335 743.335 40.9358C743.832 40.4381 744.423 40.0433 745.074 39.7739C745.724 39.5046 746.421 39.366 747.125 39.366H758.615C759.319 39.366 760.016 39.5046 760.666 39.7739C761.317 40.0433 761.908 40.4381 762.405 40.9358C762.903 41.4335 763.298 42.0244 763.567 42.6747C763.837 43.325 763.975 44.0219 763.975 44.7258V51.1687Z" fill="#333333"/>
<path opacity="0.35" d="M726.475 39.3662H714.984C714.28 39.3662 713.583 39.5048 712.933 39.7742C712.282 40.0436 711.692 40.4384 711.194 40.9361C710.696 41.4338 710.301 42.0247 710.032 42.675C709.763 43.3252 709.624 44.0222 709.624 44.7261V51.169C709.624 52.5922 710.188 53.9574 711.193 54.9655C712.197 55.9736 713.561 56.5423 714.984 56.5472H715.883C715.865 56.2844 715.865 56.0207 715.883 55.7579V49.315C715.883 48.6096 716.023 47.9111 716.293 47.2596C716.564 46.6081 716.96 46.0165 717.46 45.5185C717.959 45.0206 718.552 44.6262 719.205 44.3579C719.857 44.0896 720.556 43.9528 721.262 43.9552H731.853C731.666 42.6679 731.017 41.4925 730.028 40.6482C729.038 39.8039 727.775 39.3483 726.475 39.3662V39.3662Z" fill="white"/>
<path opacity="0.37" d="M758.615 39.366H747.125C746.421 39.366 745.724 39.5046 745.074 39.774C744.423 40.0433 743.832 40.4381 743.335 40.9358C742.837 41.4336 742.442 42.0244 742.173 42.6747C741.903 43.325 741.765 44.022 741.765 44.7259V51.1687C741.765 52.592 742.329 53.9572 743.334 54.9653C744.338 55.9733 745.701 56.5421 747.125 56.547H748.006C747.988 56.2842 747.988 56.0205 748.006 55.7577V49.3148C748.006 48.6094 748.145 47.9109 748.415 47.2594C748.686 46.6079 749.082 46.0162 749.582 45.5183C750.082 45.0203 750.675 44.6259 751.327 44.3577C751.98 44.0894 752.679 43.9525 753.384 43.9549H763.975C763.789 42.6708 763.143 41.498 762.157 40.6541C761.171 39.8102 759.913 39.3525 758.615 39.366V39.366Z" fill="white"/>
<path d="M891.046 225H677V292.953H891.046V225Z" fill="#573C31"/>
<path d="M719.584 266.776C719.552 267.24 719.304 267.56 718.84 267.736C718.392 267.912 717.576 268 716.392 268C715.208 268 714.216 267.896 713.416 267.688C712.632 267.464 712.24 267.184 712.24 266.848C712.24 266.464 712.952 264.016 714.376 259.504C715.8 254.976 716.616 252.368 716.824 251.68C716.904 251.472 717.544 251.304 718.744 251.176C719.96 251.032 721.256 250.96 722.632 250.96C724.024 250.96 724.792 251.2 724.936 251.68C727.96 261.728 729.472 266.832 729.472 266.992C729.472 267.152 729.376 267.312 729.184 267.472C728.736 267.824 727.848 268 726.52 268C723.688 268 722.24 267.664 722.176 266.992L722.008 265.432H719.704L719.584 266.776ZM721.504 260.872L721.144 256.552H720.616L720.208 260.872H721.504Z" fill="#D1B283"/>
<path d="M732.811 267.592C732.427 267.416 732.011 267.152 731.563 266.8C731.131 266.448 730.771 266.032 730.483 265.552C729.811 264.4 729.475 262.896 729.475 261.04C729.475 259.888 729.659 258.864 730.027 257.968C730.395 257.056 730.843 256.352 731.371 255.856C731.899 255.36 732.507 254.952 733.195 254.632C734.299 254.12 735.403 253.864 736.507 253.864C738.363 253.864 739.651 254.008 740.371 254.296C741.107 254.584 741.475 255.072 741.475 255.76C741.475 256.448 741.347 257.184 741.091 257.968C740.851 258.736 740.531 259.12 740.131 259.12C740.003 259.12 739.611 258.984 738.955 258.712C738.315 258.44 737.755 258.304 737.275 258.304C736.811 258.304 736.451 258.496 736.195 258.88C735.955 259.248 735.835 259.976 735.835 261.064C735.835 262.136 735.947 262.872 736.171 263.272C736.395 263.656 736.739 263.848 737.203 263.848C737.683 263.848 738.275 263.688 738.979 263.368C739.683 263.048 740.075 262.888 740.155 262.888C740.459 262.888 740.747 263.248 741.019 263.968C741.307 264.688 741.451 265.328 741.451 265.888C741.451 266.752 741.003 267.36 740.107 267.712C739.211 268.048 737.995 268.216 736.459 268.216C734.939 268.216 733.723 268.008 732.811 267.592Z" fill="#D1B283"/>
<path d="M746.006 267.592C745.622 267.416 745.206 267.152 744.758 266.8C744.326 266.448 743.966 266.032 743.678 265.552C743.006 264.4 742.67 262.896 742.67 261.04C742.67 259.888 742.854 258.864 743.222 257.968C743.59 257.056 744.038 256.352 744.566 255.856C745.094 255.36 745.702 254.952 746.39 254.632C747.494 254.12 748.598 253.864 749.702 253.864C751.558 253.864 752.846 254.008 753.566 254.296C754.302 254.584 754.67 255.072 754.67 255.76C754.67 256.448 754.542 257.184 754.286 257.968C754.046 258.736 753.726 259.12 753.326 259.12C753.198 259.12 752.806 258.984 752.15 258.712C751.51 258.44 750.95 258.304 750.47 258.304C750.006 258.304 749.646 258.496 749.39 258.88C749.15 259.248 749.03 259.976 749.03 261.064C749.03 262.136 749.142 262.872 749.366 263.272C749.59 263.656 749.934 263.848 750.398 263.848C750.878 263.848 751.47 263.688 752.174 263.368C752.878 263.048 753.27 262.888 753.35 262.888C753.654 262.888 753.942 263.248 754.214 263.968C754.502 264.688 754.646 265.328 754.646 265.888C754.646 266.752 754.198 267.36 753.302 267.712C752.406 268.048 751.19 268.216 749.654 268.216C748.134 268.216 746.918 268.008 746.006 267.592Z" fill="#D1B283"/>
<path d="M763.498 268.216C762.298 268.216 761.266 268.112 760.402 267.904C759.538 267.696 758.754 267.328 758.05 266.8C756.594 265.744 755.866 263.776 755.866 260.896C755.866 258.336 756.61 256.504 758.098 255.4C759.49 254.376 761.29 253.864 763.498 253.864C764.442 253.864 765.25 253.912 765.922 254.008C766.594 254.088 767.274 254.272 767.962 254.56C768.666 254.848 769.226 255.24 769.642 255.736C770.074 256.232 770.426 256.92 770.698 257.8C770.97 258.664 771.106 259.696 771.106 260.896C771.106 263.328 770.418 265.16 769.042 266.392C767.666 267.608 765.818 268.216 763.498 268.216ZM762.658 263.536C762.77 264.112 762.882 264.456 762.994 264.568C763.122 264.68 763.282 264.736 763.474 264.736C763.682 264.736 763.842 264.68 763.954 264.568C764.082 264.456 764.194 264.112 764.29 263.536C764.402 262.96 764.458 262.24 764.458 261.376C764.458 260.496 764.434 259.824 764.386 259.36C764.354 258.88 764.306 258.512 764.242 258.256C764.194 258 764.122 257.8 764.026 257.656C763.882 257.448 763.706 257.344 763.498 257.344C763.306 257.344 763.146 257.408 763.018 257.536C762.89 257.648 762.77 258 762.658 258.592C762.546 259.168 762.49 259.992 762.49 261.064C762.49 262.136 762.546 262.96 762.658 263.536Z" fill="#D1B283"/>
<path d="M777.359 268.216C775.567 268.216 774.311 267.752 773.591 266.824C772.887 265.896 772.535 264.28 772.535 261.976V255.448C772.535 255.128 773.007 254.824 773.951 254.536C774.895 254.232 775.887 254.08 776.927 254.08C778.319 254.08 779.015 254.44 779.015 255.16V261.256C779.015 262.472 779.063 263.36 779.159 263.92C779.255 264.464 779.495 264.736 779.879 264.736C780.391 264.736 780.647 264.52 780.647 264.088V255.448C780.647 255.112 781.143 254.8 782.135 254.512C783.127 254.224 784.207 254.08 785.375 254.08C786.543 254.08 787.127 254.392 787.127 255.016V267.376C787.127 267.6 786.623 267.76 785.615 267.856C784.607 267.952 783.615 268 782.639 268C781.663 268 781.167 267.872 781.151 267.616L780.911 266.056H780.719C780.575 266.632 780.287 267.104 779.855 267.472C779.631 267.664 779.295 267.84 778.847 268C778.415 268.144 777.919 268.216 777.359 268.216Z" fill="#D1B283"/>
<path d="M803.273 260.032V267.424C803.273 267.6 802.817 267.744 801.905 267.856C800.993 267.952 800.049 268 799.073 268C798.113 268 797.489 267.96 797.201 267.88C796.929 267.784 796.793 267.632 796.793 267.424V259.792C796.793 259.072 796.761 258.6 796.697 258.376C796.649 258.152 796.601 257.952 796.553 257.776C796.441 257.472 796.241 257.32 795.953 257.32C795.505 257.32 795.281 257.536 795.281 257.968V267.424C795.281 267.6 794.825 267.744 793.913 267.856C793.017 267.952 792.081 268 791.105 268C790.145 268 789.521 267.96 789.233 267.88C788.945 267.784 788.801 267.632 788.801 267.424V255.592C788.801 255.256 789.257 254.92 790.169 254.584C791.097 254.248 792.073 254.08 793.097 254.08C794.121 254.08 794.697 254.376 794.825 254.968L795.041 256.024H795.209C795.673 255.096 796.473 254.448 797.609 254.08C798.073 253.936 798.585 253.864 799.145 253.864C800.761 253.864 801.849 254.352 802.409 255.328C802.985 256.288 803.273 257.856 803.273 260.032Z" fill="#D1B283"/>
<path d="M814.381 267.784C814.093 268.056 813.437 268.192 812.413 268.192C811.389 268.192 810.541 268.128 809.869 268C809.197 267.856 808.557 267.584 807.949 267.184C806.781 266.4 806.197 264.768 806.197 262.288V258.544H804.997C804.821 258.544 804.669 258.36 804.541 257.992C804.413 257.624 804.349 257.12 804.349 256.48C804.349 255.84 804.445 255.28 804.637 254.8C804.845 254.304 805.109 254.056 805.429 254.056H806.197V251.152C806.197 250.656 806.677 250.256 807.637 249.952C808.613 249.648 809.565 249.496 810.493 249.496C811.949 249.496 812.677 249.856 812.677 250.576V254.056H814.453C814.869 254.056 815.077 254.656 815.077 255.856C815.077 256.64 814.981 257.288 814.789 257.8C814.613 258.296 814.381 258.544 814.093 258.544H812.677V262.936C812.677 263.368 812.861 263.68 813.229 263.872C813.597 264.048 813.917 264.136 814.189 264.136C814.477 264.136 814.653 264.272 814.717 264.544C814.781 264.816 814.813 265.224 814.813 265.768C814.813 266.84 814.669 267.512 814.381 267.784Z" fill="#D1B283"/>
<path d="M823.127 255.592V267.424C823.127 267.6 822.663 267.744 821.735 267.856C820.823 267.952 819.879 268 818.903 268C817.943 268 817.319 267.96 817.031 267.88C816.759 267.784 816.623 267.632 816.623 267.424V256.024C816.623 255.672 817.071 255.328 817.967 254.992C818.879 254.64 819.871 254.464 820.943 254.464C822.399 254.464 823.127 254.84 823.127 255.592ZM819.863 249.28C820.919 249.28 821.743 249.44 822.335 249.76C822.943 250.064 823.247 250.624 823.247 251.44C823.247 252.88 822.127 253.6 819.887 253.6C817.647 253.6 816.527 252.88 816.527 251.44C816.527 250 817.639 249.28 819.863 249.28Z" fill="#D1B283"/>
<path d="M839.39 260.032V267.424C839.39 267.6 838.934 267.744 838.022 267.856C837.11 267.952 836.166 268 835.19 268C834.23 268 833.606 267.96 833.318 267.88C833.046 267.784 832.91 267.632 832.91 267.424V259.792C832.91 259.072 832.878 258.6 832.814 258.376C832.766 258.152 832.718 257.952 832.67 257.776C832.558 257.472 832.358 257.32 832.07 257.32C831.622 257.32 831.398 257.536 831.398 257.968V267.424C831.398 267.6 830.942 267.744 830.03 267.856C829.134 267.952 828.198 268 827.222 268C826.262 268 825.638 267.96 825.35 267.88C825.062 267.784 824.918 267.632 824.918 267.424V255.592C824.918 255.256 825.374 254.92 826.286 254.584C827.214 254.248 828.19 254.08 829.214 254.08C830.238 254.08 830.814 254.376 830.942 254.968L831.158 256.024H831.326C831.79 255.096 832.59 254.448 833.726 254.08C834.19 253.936 834.702 253.864 835.262 253.864C836.878 253.864 837.966 254.352 838.526 255.328C839.102 256.288 839.39 257.856 839.39 260.032Z" fill="#D1B283"/>
<path d="M849.083 266.416V265.024H848.891C848.827 265.104 848.715 265.208 848.555 265.336C848.395 265.448 847.995 265.608 847.355 265.816C846.731 266.024 846.019 266.128 845.219 266.128C844.435 266.128 843.771 266.008 843.227 265.768C842.683 265.528 842.259 265.232 841.955 264.88C841.651 264.512 841.411 264.024 841.235 263.416C840.963 262.472 840.827 261.192 840.827 259.576C840.827 257.72 841.219 256.296 842.003 255.304C842.307 254.904 842.755 254.568 843.347 254.296C843.955 254.008 844.603 253.864 845.291 253.864C845.979 253.864 846.547 253.944 846.995 254.104C847.443 254.248 847.779 254.424 848.003 254.632C848.451 255.08 848.707 255.472 848.771 255.808L848.795 256.024H848.987L849.203 255.088C849.363 254.416 850.627 254.08 852.995 254.08C854.051 254.08 854.691 254.24 854.915 254.56C855.043 254.752 855.123 254.936 855.155 255.112C855.187 255.272 855.203 255.52 855.203 255.856V265.912C855.203 267.8 854.587 269.24 853.355 270.232C852.123 271.224 850.315 271.72 847.931 271.72C845.403 271.72 843.683 271.472 842.771 270.976C842.371 270.752 842.171 270.52 842.171 270.28C842.171 269.896 842.323 269.248 842.627 268.336C842.947 267.424 843.243 266.968 843.515 266.968C843.579 266.968 843.803 267.024 844.187 267.136C845.403 267.456 846.387 267.616 847.139 267.616C847.907 267.616 848.419 267.52 848.675 267.328C848.947 267.136 849.083 266.832 849.083 266.416ZM848.123 263.392C848.299 263.392 848.443 263.328 848.555 263.2C848.667 263.072 848.723 262.928 848.723 262.768V257.824C848.659 257.488 848.483 257.32 848.195 257.32C847.587 257.32 847.283 258.32 847.283 260.32C847.283 261.248 847.355 261.992 847.499 262.552C847.659 263.112 847.867 263.392 848.123 263.392Z" fill="#D1B283"/>
<path d="M853.166 118.718C853.166 118.718 853.349 116.093 849.99 113.211C845.181 109.081 844.612 108.164 848.614 108.806C851.264 109.391 853.669 110.783 855.497 112.789" fill="#E4EEF3"/>
<path d="M859.425 120.26C858.846 119.639 858.178 119.107 857.443 118.681C856.734 118.255 855.998 117.875 855.24 117.543C854.636 117.174 853.98 116.896 853.294 116.717L853.184 116.846C853.16 116.899 853.13 116.948 853.092 116.993L852.854 117.305L852.744 117.433L852.634 117.562C852.634 117.672 852.468 117.764 852.395 117.855C852.322 117.947 851.881 118.443 851.606 118.718L851.477 118.865L851.257 119.085L851.092 119.232L850.927 119.379L850.67 119.618H850.578L850.468 119.709L850.211 119.93L849.825 120.223L849.513 120.443L849.256 120.627L848.816 120.902C848.527 121.103 848.226 121.287 847.916 121.453C847.352 121.774 846.77 122.062 846.172 122.316L845.383 122.609L844.979 122.756L844.631 122.866L844.153 123.013H844.025C843.646 123.246 843.35 123.593 843.18 124.005C843.18 124.005 843.18 124.005 843.18 124.005C843.09 124.276 843.053 124.563 843.07 124.849C843.051 125.014 843.051 125.18 843.07 125.345C843.094 125.467 843.137 125.585 843.199 125.693C843.402 126.049 843.719 126.327 844.098 126.483C844.868 126.792 845.692 126.942 846.521 126.923C849.126 126.88 851.687 126.241 854.007 125.054C856.327 123.867 858.343 122.164 859.902 120.076L859.425 120.26Z" fill="#E4EEF3"/>
<path d="M855.24 117.543C854.636 117.174 853.98 116.896 853.295 116.717L853.184 116.846C853.161 116.899 853.13 116.948 853.093 116.993L852.983 117.121L852.854 117.286L852.744 117.415L852.634 117.543L852.524 117.69L852.395 117.837L852.157 118.112L852.028 118.222L851.789 118.498L851.643 118.645L851.514 118.791L851.275 119.012L851.129 119.159L850.963 119.305L850.706 119.526H850.615L850.505 119.618L850.248 119.838L850.009 120.021L849.862 120.131L849.55 120.352L849.293 120.517L849.073 120.645L848.852 120.792L848.54 120.994L848.375 121.104L847.953 121.343L847.659 121.508L847.237 121.728L846.944 121.875L846.485 122.077L846.191 122.206L845.695 122.408H845.493L845.09 122.536L844.741 122.665L844.245 122.793H844.135C843.766 123.033 843.478 123.378 843.309 123.784C843.309 123.784 843.309 123.784 843.309 123.784C843.219 124.056 843.181 124.343 843.199 124.629C843.18 124.793 843.18 124.96 843.199 125.124C844.748 125.142 846.293 124.944 847.788 124.537L848.394 124.353C851.914 123.273 854.984 121.068 857.131 118.076L857.351 117.764C856.433 118.094 855.754 117.819 855.24 117.543Z" fill="#E4EEF3"/>
<path d="M860.086 119.893L856.782 118.718L852.836 117.341L852.964 117.158L853.074 117.029C853.111 116.985 853.142 116.935 853.166 116.883L853.423 116.534L853.588 116.295L853.882 115.818L853.992 115.653L854.176 115.359L854.341 115.047C854.341 114.918 854.469 114.79 854.543 114.68C854.58 114.571 854.63 114.466 854.69 114.368L854.855 114.019C854.855 114.019 854.855 114.019 854.855 113.927C854.896 113.852 854.927 113.772 854.946 113.689L855.075 113.358L855.167 113.138C855.167 113.138 855.167 113.009 855.167 112.936C855.17 112.875 855.17 112.814 855.167 112.752V112.642C855.169 112.6 855.169 112.557 855.167 112.514L855.424 111.706L855.534 111.284C855.534 111.082 855.626 110.899 855.662 110.697V110.568C855.662 110.348 855.754 110.109 855.791 109.871C855.801 109.791 855.801 109.711 855.791 109.632C855.791 109.632 855.791 109.485 855.791 109.393C855.791 109.302 855.791 109.21 855.791 109.118V108.641C855.791 108.531 855.791 108.439 855.791 108.329C855.791 108.219 855.791 108.145 855.791 108.053C855.791 107.962 855.791 107.723 855.791 107.558V106.805C855.791 106.567 855.791 106.328 855.791 106.089C855.791 105.869 855.791 105.649 855.791 105.429C855.601 103.937 855.528 102.434 855.571 100.931C855.566 100.657 855.619 100.384 855.727 100.131C855.834 99.878 855.994 99.6504 856.195 99.463L856.342 99.3712H856.507C857.009 99.3034 857.52 99.4068 857.957 99.6648C858.589 100.032 859.143 100.519 859.59 101.097C861.475 103.896 862.482 107.194 862.482 110.568C862.482 113.943 861.475 117.24 859.59 120.04L860.086 119.893Z" fill="#E4EEF3"/>
<path d="M856.782 118.718C858.726 116.022 859.837 112.815 859.978 109.493C860.118 106.172 859.281 102.883 857.571 100.032C857.461 99.8668 857.351 99.7016 857.259 99.5364L857.039 99.2244H856.874L856.727 99.3162C856.526 99.5037 856.367 99.7312 856.259 99.9841C856.152 100.237 856.098 100.51 856.103 100.785C856.06 102.287 856.134 103.791 856.323 105.282V105.282C856.341 105.502 856.341 105.723 856.323 105.943C856.323 106.181 856.323 106.42 856.323 106.658V107.062V107.154V107.503C856.323 107.668 856.323 107.833 856.323 107.998C856.323 108.164 856.323 108.182 856.323 108.274C856.323 108.366 856.323 108.476 856.323 108.586V108.751C856.323 108.861 856.323 108.953 856.323 109.045C856.323 109.136 856.323 109.192 856.323 109.283C856.331 109.363 856.331 109.443 856.323 109.522C856.323 109.742 856.323 109.981 856.195 110.219V110.476C856.195 110.678 856.103 110.88 856.066 111.064L855.956 111.486C855.956 111.761 855.791 112.037 855.699 112.294C855.701 112.336 855.701 112.379 855.699 112.422V112.551C855.699 112.551 855.699 112.679 855.699 112.753C855.696 112.814 855.696 112.875 855.699 112.936C855.676 113.013 855.646 113.086 855.607 113.156V113.156L855.479 113.487C855.456 113.563 855.425 113.637 855.387 113.707C855.387 113.707 855.387 113.707 855.387 113.817L855.222 114.148C855.165 114.248 855.116 114.352 855.075 114.46C855.075 114.57 854.946 114.698 854.873 114.827L854.708 115.139L854.543 115.433L854.432 115.598L854.139 116.075L853.974 116.314L853.717 116.662C853.693 116.715 853.662 116.765 853.625 116.809L853.515 116.938C853.478 117.003 853.435 117.064 853.386 117.121V117.121L856.782 118.718Z" fill="#E4EEF3"/>
<path d="M852.836 117.341C854.621 117.987 856.293 118.91 857.792 120.076C860.031 122.315 860.875 122.994 859.627 129.694C859.573 129.942 859.536 130.194 859.517 130.447C859.389 131.548 859.26 134.375 863.647 127.84C868.934 119.984 861.444 117.763 861.444 117.763C858.642 116.983 855.701 116.839 852.836 117.341Z" fill="#E4EEF3"/>
<path d="M453.011 378.948C453.011 378.948 1008.11 218.408 1386.24 203.705V451.508H453.011V378.948Z" fill="#12381A"/>
<path d="M1305.14 345.43C1305.14 345.43 1199.78 180.742 1176.23 166.388C1152.68 152.034 1057.85 140.213 1057.85 140.213L1158.11 188.287L1280.69 380.306L1305.14 345.43Z" fill="#967C1C"/>
<path d="M1269.27 330.36C1269.27 330.36 1159.25 214.021 1089.73 195.445C1129.66 240.876 1260.31 343.429 1260.31 343.429L1269.27 330.36Z" fill="#967C1C"/>
<path d="M1288.56 386.491C1288.56 386.491 1189.98 158.421 1181.5 54.0322C1222.87 103.134 1314.9 386.491 1314.9 386.491H1288.56Z" fill="#967C1C"/>
<path d="M1217.53 455.748H1391.36L1385.41 -5.16473L1357.27 -481.882H1289.39L1278.54 -13.0761L1217.53 455.748Z" fill="#0E2B14"/>
<path d="M1283.2 76.8671L1223.24 -13.076L1217.53 0.305305L1283.2 118.516V76.8671Z" fill="#0E2B14"/>
<path d="M1369.94 132.834L1417.42 71.0301L1413.29 65.3398L1365.27 115.947L1369.94 132.834Z" fill="#0E2B14"/>
<path d="M1347.85 -88.4998L1532.55 -380.43L1561.97 -480.854H1572.82L1544.94 -370.371L1365.27 7.5191L1347.85 -88.4998Z" fill="#0E2B14"/>
<path d="M-9.77441 268.96L411.49 247.281L943.715 334.086V451.875H-11.3163L-9.77441 268.96Z" fill="#1C5727"/>
<path d="M1.82629 286.306L633.723 337.408L1236.18 455.748H1.82629V286.306Z" fill="#12381A"/>
<path d="M1454 338.528L1496.37 201.502C1484.03 191.422 1470.74 182.564 1456.68 175.051L1440.64 238.764L1449.82 171.472C1433.17 163.213 1415.61 156.911 1397.51 152.694L1394.11 336.949L1369.71 148.05C1339.19 144.716 1308.3 147.544 1278.89 156.365L1332.69 321.402L1259.58 163.083L1257.74 163.836C1240.97 170.687 1225.07 179.498 1210.37 190.085L1269.11 287.48L1191.66 205.008C1176.69 218.397 1163.5 233.66 1152.42 250.42L1295.85 383.977L1138.8 273.842C1125.03 300.982 1116.44 330.451 1113.47 360.738L1222.02 394.99L1112.31 380.581C1111.96 400.324 1113.93 420.04 1118.2 439.319L1190.91 440.457L1122.41 455.637C1124.9 464.167 1127.83 472.561 1131.2 480.785C1182.6 606.265 1322.38 667.811 1443.58 618.251C1564.78 568.69 1621.39 426.8 1570.07 301.376C1557.37 270.194 1538.55 241.871 1514.73 218.077L1454 338.528Z" fill="#091A07"/>
<path d="M-48.3216 335.225L-89.7322 201.54C-77.6927 191.706 -64.7279 183.063 -51.0199 175.731L-28.993 251.816L-44.1549 172.17C-27.9073 164.133 -10.7836 158.004 6.8741 153.906L20.5675 361.95L33.9855 149.391C63.746 146.149 93.8544 148.901 122.534 157.486L91.0719 253.964L141.348 164.02L143.184 164.755C159.551 171.465 175.066 180.091 189.404 190.453L93.8069 351.836L207.613 204.99C222.234 218.047 235.104 232.941 245.903 249.301L180.061 317.695L259.192 272.173C272.632 298.644 281.011 327.392 283.899 356.939L113.521 402.829L285.037 376.305C285.42 395.539 283.523 414.75 279.384 433.538L208.457 434.658L275.29 449.471C272.861 457.788 270 465.974 266.718 473.994C216.644 596.427 80.187 656.468 -37.9873 608.101C-156.162 559.734 -211.633 421.331 -161.54 298.898C-149.172 268.507 -130.841 240.902 -107.629 217.711L-48.3216 335.225Z" fill="#091A07"/>
<path d="M136.557 -40.4811C189.936 -19.7758 105.536 103.832 69.6691 92.5981C33.802 81.3644 85.9691 -60.1034 136.557 -40.4811Z" fill="#091A07"/>
<path d="M219.067 36.6866C252.823 63.5961 164.293 133.587 141.018 117.452C117.743 101.317 187.073 11.2088 219.067 36.6866Z" fill="#091A07"/>
<path d="M131.932 -30.4773C-2.81776 183.257 1.82626 437.209 1.82626 437.209C1.82626 437.209 69.4488 149.684 217.69 39.6783" stroke="#091A07" stroke-width="2" stroke-miterlimit="10"/>
<path d="M1327.74 -22.7683C1287.98 -7.3495 1350.83 84.7046 1377.53 76.3527C1404.24 68.0008 1365.4 -37.3795 1327.74 -22.7683Z" fill="#091A07"/>
<path d="M1267.9 93.5161C1234.14 120.426 1322.67 190.398 1345.94 174.281C1369.22 158.165 1299.96 68.0383 1267.9 93.5161Z" fill="#091A07"/>
<path d="M1355.03 26.3519C1489.78 240.086 1485.14 494.111 1485.14 494.111C1485.14 494.111 1417.44 206.569 1269.27 96.5627" stroke="#091A07" stroke-width="2" stroke-miterlimit="10"/>
<path d="M-20.6043 23.0669C-63.4283 53.8311 -109.318 71.9299 -128.775 46.5806C-163.926 0.691206 -115.559 -72.7318 -72.4593 -123.045L-63.8321 -58.2307L-63.1162 -133.71C-39.4006 -160.142 -19.4846 -177.984 -19.4846 -177.984C0.879474 -187.774 21.7417 -196.493 43.0167 -204.104L39.8228 -171.064L52.9472 -207.665C60.6566 -210.326 68.7515 -212.97 77.1951 -215.521L61.7212 -171.1L90.6131 -219.357C112.32 -225.498 134.441 -230.068 156.804 -233.033L150.6 -207.757L166.936 -234.171C186.779 -236.306 206.805 -236.072 226.593 -233.473C227.455 -214.53 216.772 -192.264 199.61 -170.127L151.628 -174.937L189.954 -158.416C178.547 -145.574 166.183 -133.614 152.968 -122.641L66.0715 -130.534L139.88 -112.05C122.164 -98.3085 103.164 -86.3094 83.1424 -76.2194L13.8861 -105.882L66.2 -68.7302C59.0596 -53.1278 42.9066 -32.9365 22.6602 -13.2408L-10.5821 -22.4187L14.8773 -5.89849C9.3706 -0.795589 3.55184 4.2155 -2.37706 9.06142L-58.2703 -29.9078L-20.6043 23.0669Z" fill="#091A07"/>
<path d="M1282.03 -164.713L1233.3 -147.551C1236.97 -142.319 1240.64 -137.088 1244.58 -131.893L1262.17 -139.07L1247.48 -128.057C1261.05 -110.79 1275.95 -94.618 1292.05 -79.6896L1331.99 -120.99L1299.1 -73.2651C1300.18 -72.2922 1301.27 -71.3194 1302.37 -70.3649C1316.32 -58.1974 1331.03 -46.9345 1346.42 -36.6454L1366.98 -66.4734L1350.46 -33.9654C1360 -27.7428 1369.62 -22.0526 1379.2 -16.9313L1396.9 -58.0482L1386.14 -13.2968C1401.89 -5.23101 1418.28 1.52233 1435.13 6.89448L1433.72 -22.7133L1441.3 8.63824C1467.28 16.0723 1491.84 18.789 1513.37 16.4027C1512.39 -22.0525 1494.24 -67.8134 1461.97 -112.198L1421.26 -90.4828L1457.51 -118.2C1448.74 -129.785 1439.34 -140.888 1429.37 -151.461L1407.86 -133.766L1426.21 -154.765C1417.65 -163.685 1408.47 -172.398 1398.68 -180.903C1395.38 -183.785 1392.05 -186.575 1388.69 -189.328L1359.73 -152.947L1379.63 -196.597C1356.68 -214.646 1331.81 -230.097 1305.47 -242.67L1295.56 -200.268L1296.31 -246.837C1277.03 -255.38 1256.83 -261.657 1236.1 -265.542L1235.72 -241.202L1229.73 -266.588C1215.91 -268.755 1201.86 -269.144 1187.94 -267.744C1188.26 -257.638 1189.56 -247.587 1191.83 -237.733L1218.48 -233.492L1193.15 -232.263C1199.48 -207.537 1211.51 -181.179 1228.43 -154.948L1282.03 -164.713Z" fill="#091A07"/>
<path d="M560.011 270.794C565.857 269.481 568.819 260.51 566.629 250.758C564.438 241.005 557.923 234.163 552.078 235.476C546.232 236.79 543.269 245.76 545.46 255.513C547.65 265.265 554.165 272.107 560.011 270.794Z" fill="#967C1C"/>
<path d="M537.983 299.177C543.172 296.181 543.326 286.735 538.328 278.078C533.33 269.422 525.073 264.833 519.884 267.829C514.695 270.824 514.541 280.27 519.539 288.927C524.536 297.583 532.794 302.172 537.983 299.177Z" fill="#5D701E"/>
<path d="M520.853 270.282C537.566 294.914 551.103 321.557 561.144 349.579H571.68C571.68 349.579 565.109 270.777 553.178 239.15" stroke="#0E2B14" stroke-width="0.75" stroke-miterlimit="10"/>
<path d="M662.339 172.371C662.297 172.359 662.253 172.359 662.211 172.371V172.206V172.096C662.211 172.096 662.211 172.096 662.302 172.096L662.339 172.371Z" fill="#33231E"/>
<path d="M661.348 175.768H661.11C660.889 175.768 660.467 175.768 660.375 175.548C660.284 175.327 660.375 175.401 660.485 175.346C660.596 175.291 661.055 175.07 661.311 174.868C661.588 174.663 661.809 174.392 661.954 174.079C662.068 173.85 662.137 173.6 662.156 173.345C662.174 173.211 662.174 173.075 662.156 172.941C662.147 172.819 662.147 172.696 662.156 172.574C662.13 172.509 662.13 172.437 662.156 172.372C662.193 172.353 662.234 172.343 662.275 172.343C662.317 172.343 662.358 172.353 662.394 172.372C662.523 172.372 662.596 172.537 662.67 172.647C662.762 172.823 662.836 173.008 662.89 173.198C663.018 173.745 662.926 174.321 662.635 174.802C662.343 175.282 661.874 175.629 661.33 175.768H661.348Z" fill="#33231E"/>
</g>
<defs>
<clipPath id="clip0_5322_15184">
<rect width="1380" height="300" fill="white"/>
</clipPath>
</defs>
</svg>
