<svg width="1380" height="300" viewBox="0 0 1380 300" fill="none" xmlns="http://www.w3.org/2000/svg">
<g clip-path="url(#clip0_5322_15491)">
<path d="M1387.22 -464.854H8.21997V454.481H1387.22V-464.854Z" fill="#238A80"/>
<path d="M164.746 280.82L161.418 -323.055H134.886L101.974 283.964L164.746 280.82Z" fill="#006B5E"/>
<path d="M243.901 235.845L278.781 -277.567L312.226 -276.207L321.052 239.063L243.901 235.845Z" fill="#006B5E"/>
<path d="M521.173 238.419L504.809 -275.931L538.217 -277.88L598.25 233.933L521.173 238.419Z" fill="#006B5E"/>
<path d="M661.574 233.271L725.155 -277.384L758.453 -274.129L738.43 240.809L661.574 233.271Z" fill="#006B5E"/>
<path d="M884.292 233.271L947.855 -277.384L981.172 -274.129L961.148 240.809L884.292 233.271Z" fill="#006B5E"/>
<path d="M1056.21 233.271L1119.79 -277.384L1153.09 -274.129L1133.06 240.809L1056.21 233.271Z" fill="#006B5E"/>
<path d="M785.611 325.554L759.097 -58.2316L780.003 -346.168L729.752 -352.015L700.406 -58.2316L688.786 330.5L785.611 325.554Z" fill="#005248"/>
<path d="M710.133 110.76L674.849 34.2716H671.006L703.606 133.872L710.133 110.76Z" fill="#005248"/>
<path d="M1081.77 331.438L1054.17 -68.2529L1075.94 -368.14L1023.61 -374.208L993.031 -68.2529L980.933 336.604L1081.77 331.438Z" fill="#005248"/>
<path d="M1003.16 107.745L966.425 28.0941H962.417L996.377 131.832L1003.16 107.745Z" fill="#005248"/>
<path d="M1331.88 331.438L1304.28 -68.2529L1326.05 -368.14L1273.7 -374.208L1243.15 -68.2529L1231.05 336.604L1331.88 331.438Z" fill="#005248"/>
<path d="M1253.28 107.745L1216.54 28.0941H1212.51L1246.49 131.832L1253.28 107.745Z" fill="#005248"/>
<path d="M518.948 279.073L535.386 -331.017H477.136V-91.6035L434.314 280.819L518.948 279.073Z" fill="#005248"/>
<path d="M243.901 273.502L232.372 -336.698L174.178 -334.032L185.155 -94.876L159.432 279.11L243.901 273.502Z" fill="#005248"/>
<path d="M1037.73 -172.156C1037.73 -172.156 1048.89 2.51804 1144.81 7.51923C1240.74 12.5204 1269.73 -108.446 1269.73 -108.446" stroke="#1C5727" stroke-width="2" stroke-miterlimit="10"/>
<path d="M371.873 260.3L390.057 -97.7263V-308.714H437.844L434.645 -56.0436L439.738 260.3H371.873Z" fill="#003B34"/>
<path d="M391.933 37.6183L357.145 -11.8604H351.739L388.678 48.2458L391.933 37.6183Z" fill="#003B34"/>
<path d="M339.972 -307.96L361.944 -187.95L405.796 -15.2435L403.682 22.8354L351.739 -182.93L333.15 -307.96H339.972Z" fill="#003B34"/>
<path d="M419.163 58.0458L507.658 -87.2828H517.293L419.163 110.779V58.0458Z" fill="#003B34"/>
<path d="M772.28 285.122L786.695 -36.5173L789.361 -383.806L839.686 -389.653L847.206 -19.6383L869.252 290.104L772.28 285.122Z" fill="#003B34"/>
<path d="M847.868 69.9977L883.207 -6.61975H887.068L854.414 93.1649L847.868 69.9977Z" fill="#003B34"/>
<path d="M463.733 140.198C463.733 140.198 502.106 121.48 513.064 127.658C524.023 133.836 501.315 143.342 501.315 143.342C501.315 143.342 517.514 146.835 523.379 154.631C523.379 154.631 538.088 134.038 546.638 136.428C555.188 138.819 544.322 154.631 544.322 154.631C544.322 154.631 564.124 145.438 566.386 147.276C568.647 149.115 558.112 162.427 558.112 162.427C558.112 162.427 570.486 166.307 575.689 172.485C578.466 161.066 577.215 151.928 581.555 151.928C585.894 151.928 587.181 166.417 587.181 166.417C587.181 166.417 609.613 152.278 612.132 153.657C614.651 155.036 609.135 162.427 609.135 162.427C609.135 162.427 628.11 164.689 625.352 168.476C624.017 170.508 622.246 172.217 620.167 173.478C620.167 173.478 640.392 186.918 640.392 198.134L710.262 208.302C710.262 208.302 729.016 183.039 733.594 182.561C738.173 182.082 730.947 197.031 730.947 197.031C730.947 197.031 765.072 182.432 773.016 184.841C780.959 187.249 768.18 197.031 768.18 197.031L782.669 202.069C782.669 202.069 781.621 187.599 785.427 187.599C789.233 187.599 793.002 204.496 793.002 204.496C793.002 204.496 818.523 202.069 830.934 202.418C843.345 202.768 823.34 213.45 823.34 213.45C823.34 213.45 848.861 223.545 846.783 226.762C844.705 229.98 840.237 229.318 840.237 229.318C840.237 229.318 862.871 237.978 862.871 245.222C862.871 252.467 852.887 251.437 852.887 251.437C852.887 251.437 875.356 265.558 881.883 276.94C892.18 267.287 903.561 260.392 905.29 263.499C907.018 266.606 892.529 281.977 892.529 281.977C892.529 281.977 913.895 279.734 913.895 282.823C913.895 285.912 906.54 290.178 906.54 290.178L932.741 304.17V313.014H463.733V140.198Z" fill="#005248"/>
<path d="M101.974 105.888C101.974 105.888 140.273 87.1892 151.305 93.3487C162.337 99.5083 139.575 109.051 139.575 109.051C139.575 109.051 155.755 112.526 161.639 120.322C161.639 120.322 176.348 99.7473 184.898 102.138C193.448 104.528 182.563 120.322 182.563 120.322C182.563 120.322 202.365 111.129 204.627 112.967C206.888 114.806 196.353 128.118 196.353 128.118C196.353 128.118 208.727 131.979 213.912 138.157C216.689 126.757 215.457 117.619 219.796 117.619C224.135 117.619 225.312 132.09 225.312 132.09C225.312 132.09 247.744 117.969 250.281 119.348C252.818 120.727 247.284 128.118 247.284 128.118C247.284 128.118 266.241 130.38 263.483 134.167C262.143 136.189 260.38 137.896 258.316 139.168C258.316 139.168 278.541 152.609 278.541 163.807L348.411 173.993C348.411 173.993 367.147 148.73 371.744 148.251C376.34 147.773 369.096 162.722 369.096 162.722C369.096 162.722 403.222 148.123 411.146 150.55C419.071 152.977 406.329 162.722 406.329 162.722L420.8 167.778C420.8 167.778 419.77 153.308 423.558 153.308C427.345 153.308 431.151 170.187 431.151 170.187C431.151 170.187 456.654 167.778 469.065 168.128C481.476 168.477 461.489 179.16 461.489 179.16C461.489 179.16 486.992 189.235 484.932 192.472C482.873 195.708 478.368 195.009 478.368 195.009C478.368 195.009 501.131 203.632 501.131 210.877C501.131 218.121 491.129 217.073 491.129 217.073C491.129 217.073 513.616 231.212 520.125 242.594C530.439 232.941 541.802 226.046 543.531 229.153C545.259 232.26 530.77 247.54 530.77 247.54C530.77 247.54 552.136 245.444 552.136 248.551C552.136 251.658 544.781 255.906 544.781 255.906L571.019 269.861V278.705H101.974V105.888Z" fill="#003B34"/>
<path d="M1382.22 83.254C1382.22 83.254 1343.85 64.5547 1332.91 70.7327C1321.97 76.9106 1344.64 86.4165 1344.64 86.4165C1344.64 86.4165 1328.46 89.8916 1322.58 97.7059C1322.58 97.7059 1307.87 77.1128 1299.32 79.5031C1290.77 81.8934 1301.63 97.7059 1301.63 97.7059C1301.63 97.7059 1281.83 88.5126 1279.57 90.3513C1277.31 92.1899 1287.84 105.502 1287.84 105.502C1287.84 105.502 1275.47 109.382 1270.28 115.541C1267.51 104.141 1268.74 95.0031 1264.4 95.0031C1260.06 95.0031 1258.88 109.492 1258.88 109.492C1258.88 109.492 1236.45 95.3524 1233.92 96.7315C1231.38 98.1105 1236.91 105.502 1236.91 105.502C1236.91 105.502 1217.96 107.763 1220.71 111.551C1222.05 113.573 1223.82 115.279 1225.88 116.552C1225.88 116.552 1205.65 129.993 1205.65 141.209L1135.79 151.377C1135.79 151.377 1117.05 126.113 1112.45 125.635C1107.86 125.157 1115.1 140.106 1115.1 140.106C1115.1 140.106 1080.97 125.507 1073.05 127.934C1065.13 130.361 1078 140.069 1078 140.069L1063.53 145.125C1063.53 145.125 1064.56 130.655 1060.77 130.655C1056.98 130.655 1053.17 147.534 1053.17 147.534C1053.17 147.534 1027.67 145.125 1015.26 145.475C1002.85 145.824 1022.84 156.507 1022.84 156.507C1022.84 156.507 997.333 166.583 999.393 169.819C1001.45 173.055 1005.96 172.356 1005.96 172.356C1005.96 172.356 983.194 180.979 983.194 188.224C983.194 195.468 993.196 194.42 993.196 194.42C993.196 194.42 970.71 208.559 964.201 219.941C953.886 210.288 942.523 203.393 940.794 206.5C939.066 209.608 953.555 224.979 953.555 224.979C953.555 224.979 932.171 222.736 932.171 225.825C932.171 228.914 939.526 233.179 939.526 233.179L913.288 247.135V255.979H1382.22V83.254Z" fill="#003B34"/>
<path d="M1026.24 123.612C1026.24 123.612 1062.44 132.089 1067.15 165.148C1037.99 163.365 1026.24 123.612 1026.24 123.612Z" fill="#006B5E"/>
<path d="M1074.19 126.132C1074.19 126.132 1098.88 155.367 1080.26 184.105C1062.07 153.105 1074.19 126.132 1074.19 126.132Z" fill="#006B5E"/>
<path d="M1097.6 146.89C1097.6 146.89 1116.35 180.244 1092.67 204.974C1080.64 171.106 1097.6 146.89 1097.6 146.89Z" fill="#006B5E"/>
<path d="M1115.01 170.921C1115.01 170.921 1130.14 206.058 1103.98 228.159C1095.59 193.206 1115.01 170.921 1115.01 170.921Z" fill="#006B5E"/>
<path d="M1016.81 168.973C1016.81 168.973 1050.29 153.289 1074.54 177.449C1039.51 189.713 1016.81 168.973 1016.81 168.973Z" fill="#006B5E"/>
<path d="M1032.8 189.143C1032.8 189.143 1067.33 175.923 1089.8 201.793C1053.95 211.428 1032.8 189.143 1032.8 189.143Z" fill="#006B5E"/>
<path d="M1043.06 209.423C1043.06 209.423 1077.59 196.222 1100.06 222.073C1064.15 231.726 1043.06 209.423 1043.06 209.423Z" fill="#006B5E"/>
<path d="M1044.24 141.76C1044.24 141.76 1082.1 172.319 1109.68 243.108" stroke="#0E2B14" stroke-width="0.58" stroke-miterlimit="10"/>
<path d="M419.237 76.1202C419.237 76.1202 384.651 89.7448 384.817 123.153C413.408 117.159 419.237 76.1202 419.237 76.1202Z" fill="#006B5E"/>
<path d="M372.167 85.5702C372.167 85.5702 351.941 118.096 374.594 143.819C388.071 110.484 372.167 85.5702 372.167 85.5702Z" fill="#006B5E"/>
<path d="M352.033 109.51C352.033 109.51 338.317 145.235 365.345 166.27C372.332 131.004 352.033 109.51 352.033 109.51Z" fill="#006B5E"/>
<path d="M338.298 135.822C338.298 135.822 328.425 172.779 357.513 190.853C360.749 155.054 338.298 135.822 338.298 135.822Z" fill="#006B5E"/>
<path d="M435.178 119.623C435.178 119.623 399.765 108.959 379.283 136.392C415.707 143.397 435.178 119.623 435.178 119.623Z" fill="#006B5E"/>
<path d="M422.271 141.907C422.271 141.907 386.177 133.853 367.754 162.702C404.601 167.023 422.271 141.907 422.271 141.907Z" fill="#006B5E"/>
<path d="M415.137 163.439C415.137 163.439 379.043 155.404 360.62 184.252C397.467 188.573 415.137 163.439 415.137 163.439Z" fill="#006B5E"/>
<path d="M404.068 96.676C404.068 96.676 371.063 132.42 354.074 206.463" stroke="#0E2B14" stroke-width="0.58" stroke-miterlimit="10"/>
<path d="M717.8 183.351C717.8 183.351 683.215 196.994 683.362 230.384C711.953 224.39 717.8 183.351 717.8 183.351Z" fill="#006B5E"/>
<path d="M670.712 192.82C670.712 192.82 650.486 225.328 673.139 251.051C686.616 217.734 670.712 192.82 670.712 192.82Z" fill="#006B5E"/>
<path d="M650.578 216.76C650.578 216.76 636.88 252.485 663.89 273.501C670.877 238.254 650.578 216.76 650.578 216.76Z" fill="#006B5E"/>
<path d="M636.844 243.035C636.844 243.035 626.988 280.01 656.058 298.066C659.294 262.285 636.844 243.035 636.844 243.035Z" fill="#006B5E"/>
<path d="M733.723 226.855C733.723 226.855 698.329 216.19 677.828 243.623C714.27 250.629 733.723 226.855 733.723 226.855Z" fill="#006B5E"/>
<path d="M720.834 249.12C720.834 249.12 684.741 241.085 666.299 269.934C703.146 274.292 720.834 249.12 720.834 249.12Z" fill="#006B5E"/>
<path d="M713.682 270.614C713.682 270.614 677.607 262.561 659.165 291.41C696.012 295.823 713.682 270.614 713.682 270.614Z" fill="#006B5E"/>
<path d="M702.631 203.926C702.631 203.926 669.535 239.67 652.619 313.695" stroke="#0E2B14" stroke-width="0.58" stroke-miterlimit="10"/>
<path d="M816.666 127.198C816.666 127.198 851.251 140.841 851.104 174.231C822.421 168.237 816.666 127.198 816.666 127.198Z" fill="#006B5E"/>
<path d="M863.736 136.667C863.736 136.667 883.961 169.175 861.327 194.898C847.831 161.582 863.736 136.667 863.736 136.667Z" fill="#006B5E"/>
<path d="M883.869 160.607C883.869 160.607 897.586 196.332 870.557 217.367C863.57 182.101 883.869 160.607 883.869 160.607Z" fill="#006B5E"/>
<path d="M897.604 186.9C897.604 186.9 907.478 223.876 878.39 241.932C875.154 206.133 897.604 186.9 897.604 186.9Z" fill="#006B5E"/>
<path d="M813.632 192.986C813.632 192.986 849.725 184.933 868.167 213.782C831.302 218.121 813.632 192.986 813.632 192.986Z" fill="#006B5E"/>
<path d="M820.766 214.535C820.766 214.535 856.859 206.481 875.301 235.33C838.454 239.669 820.766 214.535 820.766 214.535Z" fill="#006B5E"/>
<path d="M831.835 147.772C831.835 147.772 864.839 183.516 881.828 257.56" stroke="#0E2B14" stroke-width="0.58" stroke-miterlimit="10"/>
<path d="M858.238 274.862L874.363 222.809C869.675 218.977 864.625 215.609 859.286 212.752L853.182 236.986L856.62 211.391C850.295 208.253 843.624 205.865 836.744 204.276L835.457 274.347L826.098 202.419C814.498 201.156 802.763 202.232 791.586 205.581L812.051 268.353L784.305 208.1L783.57 208.394C777.19 211 771.142 214.351 765.551 218.378L787.909 255.409L758.49 224.06C752.794 229.145 747.781 234.949 743.578 241.325L798.095 292.127L738.375 250.242C733.135 260.58 729.867 271.804 728.74 283.339L770 296.356L728.281 290.84C728.133 298.36 728.874 305.871 730.487 313.217L758.067 313.64L732.013 319.413C732.956 322.658 734.073 325.85 735.36 328.974C754.868 376.78 808.061 400.113 854.156 381.266C900.252 362.42 921.783 308.436 902.256 260.704C897.427 248.863 890.282 238.104 881.24 229.061L858.238 274.862Z" fill="#001210"/>
<path d="M1260.3 187.984L1277.01 134.038C1272.16 130.062 1266.92 126.57 1261.39 123.612L1255.06 148.692L1258.74 122.197C1252.18 118.962 1245.27 116.494 1238.14 114.842L1236.82 187.396L1227.17 112.985C1215.16 111.67 1203.01 112.783 1191.44 116.258L1212.62 181.236L1183.85 118.905L1183.09 119.2C1176.48 121.891 1170.21 125.36 1164.41 129.533L1187.56 167.888L1157.06 135.417C1151.15 140.682 1145.96 146.689 1141.6 153.289L1198.06 205.893L1136.23 162.537C1130.8 173.222 1127.41 184.827 1126.24 196.755L1168.99 210.214L1125.8 204.532C1125.66 212.313 1126.43 220.084 1128.12 227.681L1156.75 228.141L1129.77 234.117C1130.75 237.471 1131.91 240.773 1133.23 244.009C1153.46 293.432 1208.5 317.666 1256.24 298.139C1303.97 278.612 1326.22 222.809 1305.99 173.33C1301.01 161.063 1293.61 149.921 1284.24 140.565L1260.3 187.984Z" fill="#001210"/>
<path d="M1098.55 314.081L1123.36 -173.976V-461.599H1188.5L1184.14 -117.161L1191.07 314.081H1098.55Z" fill="#002823"/>
<path d="M1125.93 10.5344L1078.47 -56.9081H1071.1L1121.48 25.0231L1125.93 10.5344Z" fill="#002823"/>
<path d="M1163.03 38.3719L1283.69 -159.745H1296.82L1163.03 110.246V38.3719Z" fill="#002823"/>
<path d="M864.287 314.08L872.046 -227.537L864.287 -462.042H934.341L949.546 -22.9115L980.344 312.775L864.287 314.08Z" fill="#002823"/>
<path d="M903.58 98.0921L824.976 -36.5171L817.567 -32.3801L886.002 120.358L903.58 98.0921Z" fill="#002823"/>
<path d="M559.472 319.1L590.288 -127.201L565.981 -462.041L624.414 -468.826L658.558 -127.201L672.054 324.855L559.472 319.1Z" fill="#002823"/>
<path d="M647.232 69.3171L688.271 -19.6378H692.739L654.826 96.1985L647.232 69.3171Z" fill="#002823"/>
<path d="M11.8057 319.1L42.6218 -127.201L18.2962 -462.041L76.7475 -468.826L110.873 -127.201L124.388 324.855L11.8057 319.1Z" fill="#002823"/>
<path d="M99.5652 69.3171L140.586 -19.6378H145.072L107.141 96.1985L99.5652 69.3171Z" fill="#002823"/>
<path d="M250.318 307.884L296.046 -104.787L292.019 -325.777L307.298 -469.598H350.36L340.707 -329.896L356.722 -114.018V307.884H250.318Z" fill="#002823"/>
<path d="M306.912 -0.331774L233.917 -144.428L210.235 -250.354H204.866L221.414 -140.99L291.376 46.6279L306.912 -0.331774Z" fill="#002823"/>
<path d="M1002.61 231.414L1019.53 209.994C1014.54 203.911 1008.42 198.853 1001.51 195.1L992.792 213.009L996.341 192.581C987.309 188.71 977.471 187.094 967.676 187.874L969.073 223.765L959.365 189.125C949.102 191.349 939.596 196.209 931.785 203.227L950.061 230.164L929.064 206.114C924.039 211.286 919.968 217.305 917.039 223.894L925.644 232.223L915.917 226.486C912.097 236.286 910.884 246.909 912.398 257.317C913.912 267.725 918.101 277.563 924.555 285.867C931.01 294.172 939.508 300.66 949.22 304.697C958.932 308.734 969.526 310.182 979.965 308.899C990.405 307.616 1000.33 303.647 1008.78 297.379C1017.22 291.11 1023.9 282.758 1028.15 273.138C1032.4 263.517 1034.08 252.959 1033.03 242.493C1031.98 232.028 1028.23 222.015 1022.16 213.432L1002.61 231.414Z" fill="#002823"/>
<path d="M88.0368 141.283C157.686 143.361 221.12 217.827 253.517 220.585C285.915 223.343 336.257 171.621 392.116 188.868C447.975 206.115 463.88 274.292 463.88 274.292L99.8227 292.973L88.0368 141.283Z" fill="#004E4E"/>
<path d="M374.888 184.031L378.657 278.723" stroke="#00ABAB" stroke-miterlimit="10"/>
<path d="M404.914 192.526L385.939 278.337" stroke="#00ABAB" stroke-miterlimit="10"/>
<path d="M392.3 278.024L435.822 219.021" stroke="#00ABAB" stroke-miterlimit="10"/>
<path d="M371.67 279.072L337.177 189.418" stroke="#00ABAB" stroke-miterlimit="10"/>
<path d="M118.265 146.431L115.452 292.973" stroke="#00ABAB" stroke-miterlimit="10"/>
<path d="M125.344 291.667L155.847 162.776" stroke="#00ABAB" stroke-miterlimit="10"/>
<path d="M134.886 291.668L193.227 186.441" stroke="#00ABAB" stroke-miterlimit="10"/>
<path d="M104.309 -472.484L75.6442 -255.871L152.372 371.631H-9.17377V-246.898L0.148298 -472.484H104.309Z" fill="#001210"/>
<path d="M153.825 -5.93992C186.259 -2.63031 158.55 77.9771 137.166 77.2048C115.782 76.4326 123.1 -9.08405 153.825 -5.93992Z" fill="#001210"/>
<path d="M217.847 100.408C240.426 110.098 202.365 161.857 187.16 156.506C171.954 151.156 196.427 91.2334 217.847 100.408Z" fill="#174520"/>
<path d="M153.824 -5.94067C153.824 -5.94067 86.952 292.255 79.9099 378.93C128.727 255.298 217.81 100.408 217.81 100.408" stroke="#0E2B14" stroke-width="0.75" stroke-miterlimit="10"/>
<path d="M641.698 149.06L641.992 150.899L638.314 151.45C638.132 151.477 637.946 151.43 637.798 151.319C637.65 151.209 637.551 151.045 637.524 150.862V150.862V150.384C637.508 150.293 637.511 150.2 637.533 150.11C637.554 150.021 637.593 149.936 637.649 149.862C637.704 149.789 637.773 149.727 637.853 149.68C637.932 149.634 638.021 149.604 638.112 149.593L641.698 149.06Z" fill="#7D551F"/>
<path d="M641.698 149.06L641.845 149.979L637.469 150.641V150.402C637.442 150.219 637.489 150.034 637.6 149.886C637.71 149.737 637.874 149.639 638.057 149.612L641.698 149.06Z" fill="#AC752C"/>
<path d="M643.021 147.184C645.921 146.584 648.919 146.67 651.78 147.432C654.64 148.195 657.283 149.615 659.499 151.579C661.714 153.543 663.441 155.996 664.542 158.744C665.642 161.492 666.087 164.459 665.839 167.409C665.711 169.225 665.308 171.01 664.644 172.705C664.286 173.439 663.793 174.1 663.192 174.654C662.779 175.045 662.249 175.29 661.684 175.353H661.482H661.316C661.049 175.198 660.817 174.989 660.637 174.738C660.456 174.488 660.331 174.202 660.268 173.9C659.851 172.27 659.562 170.61 659.404 168.936V168.936C659.385 168.688 659.348 168.442 659.294 168.2V168.2C659.294 167.943 659.294 167.685 659.147 167.409V167.189V166.968C659.147 166.968 659.147 166.839 659.147 166.766C659.138 166.674 659.138 166.582 659.147 166.49C659.147 166.325 659.055 166.141 659 165.975C658.96 165.874 658.93 165.769 658.908 165.663L658.632 164.854C658.593 164.777 658.562 164.697 658.54 164.615L658.43 164.357C658.338 164.118 658.227 163.861 658.117 163.622C657.964 163.264 657.792 162.914 657.602 162.574C657.437 162.243 657.253 161.93 657.069 161.618C657.059 161.575 657.059 161.531 657.069 161.489V161.489C656.94 161.287 656.812 161.084 656.664 160.882C656.274 160.306 655.85 159.754 655.396 159.227L655.12 158.933L654.863 158.657L654.715 158.51L654.274 158.051L654.035 157.83L653.686 157.499L653.539 157.389L653.024 156.947C652.249 156.319 651.425 155.754 650.56 155.256V155.256C650.229 155.072 649.898 154.888 649.549 154.723L649.071 154.502L648.666 154.318L647.802 153.969C646.174 153.374 644.473 153.003 642.746 152.866H642.176H642.029H641.845C641.384 152.694 640.982 152.394 640.686 152.001C640.403 151.552 640.268 151.024 640.3 150.494V150.494C640.322 150.196 640.411 149.907 640.561 149.649C640.71 149.391 640.917 149.171 641.164 149.004C641.655 148.279 642.287 147.661 643.021 147.184V147.184Z" fill="#FFD54F"/>
<path d="M639.638 149.759C641.322 149.353 643.056 149.192 644.787 149.281H645.504C650.529 149.689 655.186 152.076 658.451 155.917C661.717 159.758 663.322 164.739 662.916 169.764C662.796 171.279 662.487 172.774 661.997 174.213C661.94 174.425 661.873 174.634 661.794 174.838L661.629 175.224H661.445H661.261C660.999 175.066 660.772 174.856 660.595 174.606C660.417 174.356 660.294 174.072 660.231 173.772C659.805 172.144 659.516 170.484 659.367 168.808V168.808L659.257 168.072C659.257 167.815 659.257 167.539 659.092 167.281V167.116V166.914V166.711V166.436L658.779 165.81C658.757 165.71 658.726 165.612 658.687 165.516L658.521 165.001L658.411 164.707L658.319 164.45C658.297 164.367 658.266 164.287 658.227 164.211C658.135 163.953 658.025 163.714 657.915 163.475L657.823 163.292C657.694 162.997 657.547 162.722 657.4 162.446C657.253 162.17 657.087 161.876 656.922 161.618V161.49V161.361L656.683 160.975L656.517 160.736L656.297 160.405L656.113 160.184V160.074L655.855 159.743L655.616 159.449L655.322 159.081L655.046 158.787L654.789 158.511L654.642 158.364L654.201 157.904L653.962 157.684L653.612 157.353L653.465 157.242L653.318 157.114L652.95 156.801L652.638 156.562L652.27 156.268L652.068 156.139L651.921 156.029L651.571 155.79L651.204 155.551L650.909 155.367L650.468 155.109L650.064 154.87L649.788 154.742L649.457 154.558L649.144 154.411H648.979L648.574 154.227L648.243 154.098L647.968 153.988L647.692 153.896L647.306 153.749H647.085L646.57 153.583H646.221L645.706 153.436H645.338L644.805 153.308H644.456L643.849 153.197H643.518L642.635 153.105H642.065H641.918H641.734C641.276 152.938 640.879 152.637 640.594 152.241C640.221 151.956 639.934 151.574 639.765 151.135C639.596 150.697 639.552 150.221 639.638 149.759V149.759Z" fill="#FFB300"/>
<path d="M660.268 173.753C660.64 174.136 661.106 174.414 661.619 174.559C662.132 174.704 662.675 174.712 663.192 174.581C662.782 174.973 662.25 175.213 661.684 175.261H661.482H661.316C661.043 175.101 660.807 174.883 660.626 174.622C660.445 174.362 660.323 174.065 660.268 173.753V173.753Z" fill="#7D551F"/>
<path d="M660.268 173.753C660.724 174.19 661.289 174.495 661.905 174.636V174.875C661.905 175.003 661.794 175.151 661.739 175.261H661.555H661.371C661.089 175.105 660.844 174.889 660.654 174.628C660.463 174.368 660.332 174.069 660.268 173.753V173.753Z" fill="#AC752C"/>
<path d="M770.405 186.495H674.058V116.313H758.876C761.934 116.313 764.866 117.528 767.028 119.69C769.19 121.852 770.405 124.784 770.405 127.842V186.495Z" fill="#D1B283"/>
<path d="M663.817 186.495V126.536C663.817 125.192 664.082 123.861 664.597 122.62C665.112 121.378 665.866 120.251 666.818 119.301C667.769 118.351 668.898 117.599 670.14 117.086C671.383 116.574 672.714 116.311 674.058 116.313C676.769 116.313 679.37 117.39 681.287 119.308C683.204 121.225 684.281 123.825 684.281 126.536V186.495H663.817Z" fill="#B58B68"/>
<path d="M776.196 221.099C774.185 221.615 772.112 221.851 770.037 221.798C768.106 221.89 765.771 221.927 763.142 221.964H760.365C760.053 221.982 759.74 221.982 759.428 221.964H757.295C756.743 221.964 756.192 221.964 755.64 221.964C749.168 221.964 741.776 221.816 734.477 221.541L728.005 221.21C724.327 221.007 720.65 220.768 717.138 220.493C705.371 219.481 696.38 217.974 695.773 215.73C695.773 215.73 695.166 203.209 694.927 186.514C694.927 185.907 694.927 185.319 694.927 184.675C694.927 182.193 694.927 179.619 694.927 176.99C694.927 174.765 694.927 172.485 694.927 170.186C694.927 150.862 695.81 129.736 698.439 116.277C699.524 110.669 700.94 106.403 702.741 104.16C702.93 103.927 703.132 103.706 703.348 103.498C704.875 102.145 706.539 100.956 708.313 99.9492C711.015 98.297 713.865 96.8998 716.826 95.7754C718.557 95.1007 720.325 94.5236 722.121 94.0471C723.169 93.7897 724.236 93.5138 725.339 93.33C726.442 93.1461 727.674 92.8887 728.869 92.76C729.421 92.76 729.972 92.6497 730.542 92.5945C732.788 92.4197 735.044 92.4197 737.29 92.5945C739.468 92.7841 741.634 93.0849 743.781 93.4955C746.405 94.0192 748.991 94.7195 751.521 95.5916C754.067 96.447 756.554 97.4665 758.968 98.6438C763.167 100.645 767.153 103.066 770.864 105.87C770.937 105.911 771.005 105.96 771.067 106.017C771.135 106.089 771.209 106.157 771.287 106.219C773.126 108.407 774.505 119.844 775.424 134.737C775.424 135.528 775.534 136.318 775.571 137.127C775.737 139.701 775.865 142.404 775.994 145.125C776.215 149.998 776.399 155.017 776.546 160.111C777.428 189.511 777.152 220.143 776.196 221.099Z" fill="#A16552"/>
<path d="M765.293 198.061C765.293 198.061 768.198 140.18 766.617 129.239C765.036 118.299 755.806 110.448 738.853 111.165C721.9 111.882 717.046 123.245 716.109 130.839C715.171 138.433 710.758 206.611 717.065 220.327C723.371 234.044 735.635 232.518 735.635 232.518L760.163 223.048L765.293 198.061Z" fill="#F5DCB4"/>
<path opacity="0.35" d="M719.749 174.47L705.794 170.352C708.717 159.009 710.721 147.449 711.788 135.785C712.244 131.19 712.324 126.565 712.027 121.958L708.221 115.908L699.487 197.067L737.584 196.148L715.005 182.358L719.749 174.47Z" fill="black"/>
<path d="M801.35 157.628C798.805 159.019 796.092 160.076 793.278 160.773L792.34 160.993C791.575 160.973 790.821 160.799 790.123 160.484C789.425 160.168 788.798 159.716 788.277 159.155C783.631 154.958 779.507 150.217 775.994 145.034C775.296 144.059 774.652 143.195 774.156 142.257C772.942 140.419 771.986 138.929 771.471 137.973L771.306 137.642C770.769 136.156 770.405 134.614 770.221 133.045C770.221 133.045 770.221 133.045 770.221 133.045C770.129 132.402 770.037 131.722 769.963 131.023C769.963 130.913 769.963 130.802 769.963 130.692C769.532 126.612 769.304 122.513 769.283 118.41C769.191 111.368 769.706 105.3 770.975 105.852C771.048 105.893 771.115 105.942 771.177 105.999C771.246 106.071 771.32 106.138 771.398 106.201C778.752 113.445 802.857 150.145 804.494 153.326C805.064 154.779 803.611 156.305 801.35 157.628Z" fill="#A16552"/>
<path d="M813.227 190.65L803.85 195.173L800.89 196.626C800.89 196.626 790.17 172.503 788.295 159.209C787.825 156.988 787.895 154.687 788.497 152.498C788.685 151.965 789.016 151.495 789.453 151.137C794.344 147.46 798.647 152.608 801.368 157.628C802.601 159.93 803.647 162.328 804.494 164.799L813.227 190.65Z" fill="#A16552"/>
<path d="M752.312 102.008C750.267 102.233 748.21 102.325 746.153 102.284C739.943 102.21 733.767 101.364 727.766 99.7649C725.78 99.2501 723.739 98.6066 721.662 97.9263V97.7792L721.993 94.1019L722.581 87.7584L722.985 83.5111L723.408 79.0247L723.886 74.0052V73.2513L724.144 70.3462V69.9049L724.64 64.6464L731.112 69.7762L739.478 76.3954L740.195 76.9654L742.953 79.1535L743.909 79.9073L749.334 84.1914L749.995 84.7246L750.382 87.9607L751.319 95.6831L752.312 102.008Z" fill="#A16552"/>
<path opacity="0.35" d="M803.832 195.229L800.871 196.681C800.871 196.681 790.152 172.558 788.277 159.264C783.631 155.068 779.507 150.326 775.994 145.143C776.215 150.016 776.399 155.036 776.546 160.129C775.774 156.837 774.909 153.27 774.082 149.795C773.034 145.383 772.023 141.117 771.232 137.752C770.791 135.913 770.423 134.332 770.147 133.155C769.816 131.85 769.632 131.022 769.596 130.839L769.89 131.133C770.533 131.813 772.096 133.431 774.082 135.601C774.56 136.097 775.056 136.649 775.571 137.219C780.186 142.075 784.485 147.221 788.442 152.627C789.472 154.226 790.465 155.789 791.384 157.352C792.009 158.419 792.634 159.595 793.223 160.901C798.261 171.326 802.195 188.113 803.832 195.229Z" fill="black"/>
<path opacity="0.35" d="M747.587 89.5975C739.166 94.4332 725.302 92.4291 725.302 92.4291C725.302 92.4291 725.302 96.7683 722.765 96.4925C718.959 96.1064 713.479 100.023 708.276 99.9309C710.978 98.2787 713.828 96.8814 716.789 95.7571C718.52 95.0823 720.288 94.5053 722.084 94.0287L723.923 73.8033L724.254 70.126C730.487 72.7737 755.015 85.3318 747.587 89.5975Z" fill="black"/>
<path d="M705.757 37.1034C705.073 39.5959 704.721 42.1677 704.709 44.7523V45.2855C704.73 48.4113 704.378 51.5284 703.661 54.5708C701.93 53.8921 700.426 52.7385 699.322 51.2428C695.644 46.5174 696.839 38.942 701.436 37.1585C702.83 36.6057 704.382 36.6057 705.775 37.1585L705.757 37.1034Z" fill="#A16552"/>
<path d="M705.757 37.1034C705.073 39.5959 704.721 42.1677 704.709 44.7523V45.2855C704.73 48.4113 704.378 51.5284 703.661 54.5708C701.93 53.8921 700.426 52.7385 699.322 51.2428C695.644 46.5174 696.839 38.942 701.436 37.1585C702.83 36.6057 704.382 36.6057 705.775 37.1585L705.757 37.1034Z" fill="#F5DCB4"/>
<path d="M774.395 51.2609C773.298 52.7638 771.791 53.9192 770.055 54.5889C769.338 51.5465 768.986 48.4293 769.007 45.3036C769.017 45.126 769.017 44.948 769.007 44.7704C768.999 42.1783 768.64 39.5992 767.941 37.1031C769.335 36.5503 770.887 36.5503 772.28 37.1031C776.877 38.9418 778.127 46.5355 774.395 51.2609Z" fill="#A16552"/>
<path d="M774.395 51.2609C773.298 52.7638 771.791 53.9192 770.055 54.5889C769.338 51.5465 768.986 48.4293 769.007 45.3036C769.017 45.126 769.017 44.948 769.007 44.7704C768.999 42.1783 768.64 39.5992 767.941 37.1031C769.335 36.5503 770.887 36.5503 772.28 37.1031C776.877 38.9418 778.127 46.5355 774.395 51.2609Z" fill="#F5DCB4"/>
<path d="M760.09 54.6997C759.411 55.7434 758.975 56.9268 758.816 58.1618C758.657 59.3968 758.778 60.6519 759.17 61.8337C759.814 63.5514 760.205 65.3538 760.329 67.1842C760.329 78.2162 749.83 87.2625 736.867 87.2625C723.905 87.2625 713.406 78.2714 713.406 67.1842C713.52 65.3526 713.911 63.5488 714.564 61.8337C714.956 60.6519 715.077 59.3968 714.918 58.1618C714.759 56.9268 714.324 55.7434 713.645 54.6997C713.321 54.1866 713.032 53.6521 712.781 53.1C712.012 51.4277 711.617 49.6082 711.622 47.7678C711.665 45.9736 712.061 44.2055 712.788 42.5644C713.514 40.9233 714.557 39.4415 715.856 38.2036C717.156 36.9656 718.686 35.9959 720.361 35.3497C722.035 34.7035 723.82 34.3935 725.615 34.4375C728.111 34.4263 730.568 35.0596 732.749 36.2761C734.004 36.9902 735.423 37.3657 736.867 37.3657C738.311 37.3657 739.731 36.9902 740.986 36.2761C743.165 35.0572 745.623 34.4238 748.12 34.4375C751.742 34.3535 755.249 35.7099 757.873 38.2091C760.496 40.7082 762.021 44.1459 762.112 47.7678C762.117 49.6082 761.722 51.4277 760.954 53.1C760.702 53.6521 760.413 54.1866 760.09 54.6997V54.6997Z" fill="#A16552"/>
<path d="M760.09 54.6997C759.411 55.7434 758.975 56.9268 758.816 58.1618C758.657 59.3968 758.778 60.6519 759.17 61.8337C759.814 63.5514 760.205 65.3538 760.329 67.1842C760.329 78.2162 749.83 87.2625 736.867 87.2625C723.905 87.2625 713.406 78.2714 713.406 67.1842C713.52 65.3526 713.911 63.5488 714.564 61.8337C714.956 60.6519 715.077 59.3968 714.918 58.1618C714.759 56.9268 714.324 55.7434 713.645 54.6997C713.321 54.1866 713.032 53.6521 712.781 53.1C712.012 51.4277 711.617 49.6082 711.622 47.7678C711.665 45.9736 712.061 44.2055 712.788 42.5644C713.514 40.9233 714.557 39.4415 715.856 38.2036C717.156 36.9656 718.686 35.9959 720.361 35.3497C722.035 34.7035 723.82 34.3935 725.615 34.4375C728.111 34.4263 730.568 35.0596 732.749 36.2761C734.004 36.9902 735.423 37.3657 736.867 37.3657C738.311 37.3657 739.731 36.9902 740.986 36.2761C743.165 35.0572 745.623 34.4238 748.12 34.4375C751.742 34.3535 755.249 35.7099 757.873 38.2091C760.496 40.7082 762.021 44.1459 762.112 47.7678C762.117 49.6082 761.722 51.4277 760.954 53.1C760.702 53.6521 760.413 54.1866 760.09 54.6997V54.6997Z" fill="#F5DCB4"/>
<path d="M724.971 69.666C724.779 69.6672 724.59 69.709 724.415 69.7886C724.24 69.8682 724.084 69.9839 723.958 70.128C723.831 70.2722 723.736 70.4415 723.679 70.6249C723.623 70.8083 723.605 71.0016 723.629 71.1921C724.338 74.1851 726.036 76.8513 728.448 78.7592C730.861 80.6671 733.847 81.7051 736.922 81.7051C739.998 81.7051 742.984 80.6671 745.397 78.7592C747.809 76.8513 749.507 74.1851 750.216 71.1921C750.239 71.0016 750.222 70.8083 750.165 70.6249C750.109 70.4415 750.014 70.2722 749.887 70.128C749.76 69.9839 749.605 69.8682 749.43 69.7886C749.255 69.709 749.066 69.6672 748.874 69.666H724.971Z" fill="#33231E"/>
<path d="M729.145 79.5032C731.458 80.9577 734.135 81.7294 736.867 81.7294C739.6 81.7294 742.277 80.9577 744.59 79.5032C743.615 76.1568 740.526 76.9291 736.867 76.9291C733.208 76.9291 730.119 76.1568 729.145 79.5032Z" fill="#E6646E"/>
<path d="M773.88 34.7126C772.839 34.2565 771.706 34.0521 770.572 34.116C769.438 34.1799 768.335 34.5103 767.352 35.0803C766.975 33.9733 766.539 32.887 766.047 31.8258C765.679 31.0352 765.293 30.2445 764.889 29.4907C762.223 24.6264 758.527 20.4032 754.059 17.1165C751.384 15.155 748.427 13.6113 745.288 12.5382L745.123 8.14373L739.809 11.3614H739.184C738.78 11.3614 738.393 11.3614 738.007 11.2695L737.217 7.9231L736.996 6.94861H736.886H736.224C734.562 7.17371 732.982 7.80707 731.625 8.79211C730.267 9.77714 729.175 11.0831 728.446 12.5933C720.044 15.6307 713.062 21.6691 708.846 29.5459C708.423 30.2998 708.037 31.0904 707.688 31.881C707.188 32.9388 706.752 34.0255 706.382 35.1354L706.18 35.0251C705.214 34.505 704.143 34.2115 703.047 34.1669C701.951 34.1223 700.859 34.3278 699.855 34.7677C694.008 37.0109 692.5 46.6271 697.17 52.6212C698.634 54.6665 700.706 56.1979 703.091 56.9973C703.082 57.1074 703.082 57.2181 703.091 57.3282C702.737 58.9407 702.558 60.5866 702.558 62.2375C702.558 73.6005 710.832 83.327 722.783 87.7399C722.896 87.7908 723.013 87.8338 723.132 87.8685C725.969 88.903 728.92 89.5944 731.921 89.9279C733.477 90.1197 735.042 90.218 736.61 90.2221H736.978C737.437 90.2221 737.897 90.2221 738.338 90.2221C739.829 90.1963 741.315 90.0672 742.788 89.8359C744.85 89.5767 746.886 89.14 748.874 88.5305C749.499 88.3466 750.112 88.1444 750.712 87.9237C762.884 83.6396 771.379 73.7659 771.379 62.2742C771.379 60.6234 771.2 58.9774 770.846 57.365C770.855 57.2548 770.855 57.1442 770.846 57.034C773.228 56.2291 775.298 54.6989 776.766 52.658C781.29 46.572 779.708 36.9557 773.88 34.7126ZM705.757 37.1028C705.073 39.5953 704.721 42.1671 704.709 44.7517V45.2849C704.728 48.4106 704.376 51.5274 703.661 54.5702C701.93 53.8915 700.426 52.738 699.322 51.2422C695.644 46.5168 696.839 38.9415 701.436 37.158C702.822 36.5968 704.371 36.5968 705.757 37.158V37.1028ZM760.917 53.0809C760.66 53.6325 760.365 54.1473 760.053 54.6805C759.373 55.7238 758.937 56.9071 758.777 58.1424C758.618 59.3776 758.74 60.6329 759.134 61.8146C759.779 63.5254 760.17 65.3221 760.292 67.1467C760.185 70.6749 759.125 74.1084 757.225 77.0832C755.325 80.058 752.655 82.4633 749.499 84.0441C748.905 84.3716 748.291 84.6603 747.66 84.9083C745.78 85.7727 743.796 86.3907 741.758 86.747C740.11 87.059 738.435 87.2129 736.757 87.2066C735.959 87.2162 735.161 87.1793 734.367 87.0963C733.962 87.0963 733.576 87.0963 733.19 86.9676C732.893 86.944 732.598 86.901 732.307 86.8389C731.942 86.7909 731.58 86.7234 731.223 86.6366L730.174 86.3976L729.035 86.1034L728.115 85.8092L726.589 85.2392C726.069 85.0328 725.559 84.7996 725.063 84.5405C724.367 84.2006 723.692 83.8199 723.04 83.4006C722.752 83.2507 722.475 83.0786 722.213 82.8857C721.753 82.5732 721.331 82.2422 720.908 81.9112C720.485 81.5803 720.246 81.3964 719.951 81.139L719.473 80.6977C718.718 79.9852 718.017 79.2169 717.377 78.3994C717.108 78.0439 716.85 77.6946 716.605 77.3514C716.36 77.0081 716.084 76.5669 715.778 76.0275C715.52 75.5862 715.281 75.1633 715.061 74.7037C714.84 74.244 714.877 74.2807 714.803 74.0785C714.485 73.3574 714.221 72.6138 714.013 71.8537C714.004 71.7989 714.004 71.7431 714.013 71.6882C713.911 71.3628 713.832 71.0311 713.774 70.6953C713.731 70.5448 713.7 70.3911 713.682 70.2357C713.682 69.8312 713.553 69.4267 713.516 69.0038C713.497 68.8388 713.497 68.6722 713.516 68.5073C713.516 68.066 713.516 67.6247 713.516 67.1835C713.629 65.3576 714.02 63.5596 714.675 61.8513C715.063 60.6689 715.182 59.4146 715.023 58.1802C714.864 56.9458 714.431 55.7627 713.755 54.7173C713.428 54.2061 713.139 53.6714 712.891 53.1176C712.115 51.4473 711.713 49.6274 711.714 47.7855C711.806 44.1603 713.333 40.7198 715.96 38.2201C718.587 35.7205 722.1 34.3662 725.725 34.4551H726.699L727.637 34.5654C727.952 34.589 728.265 34.632 728.575 34.6942C729.32 34.844 730.051 35.053 730.763 35.3193C730.99 35.3955 731.211 35.4876 731.425 35.5951C731.923 35.7831 732.404 36.017 732.859 36.2938L733.742 36.6983C734.294 36.9418 734.874 37.1147 735.47 37.2131V37.2131C737.36 37.5546 739.309 37.2297 740.986 36.2938L741.298 36.1099C743.396 34.9876 745.741 34.4062 748.12 34.4184C749.914 34.3744 751.699 34.6843 753.374 35.3305C755.048 35.9767 756.579 36.9465 757.878 38.1844C759.177 39.4224 760.22 40.9042 760.947 42.5453C761.673 44.1864 762.069 45.9545 762.112 47.7487C762.122 49.5955 761.727 51.4219 760.954 53.0993L760.917 53.0809ZM774.358 51.2422C773.256 52.7401 771.751 53.8942 770.019 54.5702C769.303 51.5274 768.951 48.4106 768.97 45.2849C768.98 45.1073 768.98 44.9293 768.97 44.7517C768.962 42.1596 768.603 39.5805 767.904 37.0844C769.296 36.5221 770.852 36.5221 772.243 37.0844C776.877 38.9415 778.127 46.5352 774.395 51.2606L774.358 51.2422Z" fill="#A16552"/>
<path d="M731.026 59.6256L731.019 59.6423C730.761 60.2057 731.01 60.8711 731.573 61.1285L734.199 62.3279C734.762 62.5853 735.428 62.3372 735.685 61.7737L735.693 61.757C735.95 61.1935 735.702 60.5282 735.138 60.2708L732.513 59.0714C731.949 58.814 731.284 59.0621 731.026 59.6256Z" fill="#33231E"/>
<path d="M741.24 59.1377L738.614 60.3371C738.051 60.5945 737.803 61.2599 738.06 61.8233L738.068 61.84C738.325 62.4035 738.991 62.6516 739.554 62.3942L742.18 61.1948C742.743 60.9375 742.991 60.272 742.734 59.7086L742.726 59.6919C742.469 59.1285 741.804 58.8803 741.24 59.1377Z" fill="#33231E"/>
<path d="M724.806 53.0996C724.291 53.1142 723.779 53.0274 723.298 52.8441C722.817 52.6607 722.378 52.3844 722.004 52.0309C721.63 51.6774 721.329 51.2537 721.119 50.784C720.909 50.3143 720.793 49.8079 720.779 49.2935V48.0248C720.808 46.9844 721.248 45.9978 722.002 45.281C722.757 44.5642 723.765 44.1756 724.806 44.2003V44.2003C725.846 44.1756 726.854 44.5642 727.609 45.281C728.363 45.9978 728.803 46.9844 728.832 48.0248V49.2935C728.818 49.8079 728.703 50.3143 728.492 50.784C728.282 51.2537 727.982 51.6774 727.608 52.0309C727.234 52.3844 726.794 52.6607 726.313 52.8441C725.832 53.0274 725.32 53.1142 724.806 53.0996V53.0996Z" fill="#33231E"/>
<path d="M724.806 44.2003V48.6499C724.853 49.1507 725.086 49.6157 725.459 49.954C725.831 50.2924 726.316 50.4799 726.819 50.4799C727.322 50.4799 727.807 50.2924 728.179 49.954C728.551 49.6157 728.784 49.1507 728.832 48.6499V48.0248C728.803 46.9844 728.363 45.9978 727.609 45.281C726.854 44.5642 725.846 44.1756 724.806 44.2003V44.2003Z" fill="#33231E"/>
<path d="M724.824 48.0253C725.565 48.0253 726.166 47.4573 726.166 46.7566C726.166 46.0559 725.565 45.4879 724.824 45.4879C724.083 45.4879 723.482 46.0559 723.482 46.7566C723.482 47.4573 724.083 48.0253 724.824 48.0253Z" fill="white"/>
<path d="M748.874 53.0996C748.359 53.1142 747.847 53.0274 747.366 52.8441C746.886 52.6607 746.446 52.3844 746.072 52.0309C745.698 51.6774 745.397 51.2537 745.187 50.784C744.977 50.3143 744.861 49.8079 744.847 49.2935V48.0248C744.876 46.9844 745.316 45.9978 746.071 45.281C746.825 44.5642 747.833 44.1756 748.874 44.2003V44.2003C749.388 44.1881 749.9 44.2774 750.38 44.463C750.86 44.6486 751.298 44.927 751.67 45.2821C752.043 45.6373 752.341 46.0623 752.549 46.5329C752.757 47.0035 752.87 47.5105 752.882 48.0248V49.2935C752.853 50.329 752.415 51.3109 751.664 52.0243C750.913 52.7376 749.909 53.1243 748.874 53.0996V53.0996Z" fill="#33231E"/>
<path d="M748.874 44.2003V48.6499C748.874 49.1815 749.085 49.6912 749.461 50.0671C749.837 50.4429 750.346 50.6541 750.878 50.6541C751.41 50.6541 751.919 50.4429 752.295 50.0671C752.671 49.6912 752.882 49.1815 752.882 48.6499V48.0248C752.87 47.5104 752.757 47.0035 752.549 46.5329C752.341 46.0623 752.043 45.6373 751.67 45.2821C751.298 44.9269 750.86 44.6486 750.38 44.463C749.9 44.2774 749.388 44.1881 748.874 44.2003V44.2003Z" fill="#33231E"/>
<path d="M748.929 48.0253C749.67 48.0253 750.271 47.4573 750.271 46.7566C750.271 46.0559 749.67 45.4879 748.929 45.4879C748.188 45.4879 747.587 46.0559 747.587 46.7566C747.587 47.4573 748.188 48.0253 748.929 48.0253Z" fill="white"/>
<path opacity="0.35" d="M738.228 90.1302C737.787 90.1302 737.327 90.1302 736.867 90.1302H736.499C734.932 90.126 733.366 90.0278 731.811 89.836C728.81 89.5025 725.859 88.8112 723.022 87.7767C710.924 83.4374 702.484 73.6189 702.484 62.1456C702.485 60.4947 702.663 58.8488 703.017 57.2363C703.009 57.1262 703.009 57.0155 703.017 56.9053C700.632 56.106 698.561 54.5747 697.097 52.5293C692.371 46.5353 693.934 36.919 699.781 34.6758C700.786 34.2359 701.878 34.0305 702.973 34.0751C704.069 34.1197 705.141 34.4131 706.106 34.9332L706.309 35.0436C706.678 33.9337 707.114 32.8469 707.614 31.7891C707.963 30.9984 708.349 30.2078 708.772 29.454C712.989 21.5772 719.97 15.5388 728.373 12.5014C729.102 10.9912 730.194 9.68527 731.551 8.70024C732.908 7.71521 734.488 7.08179 736.15 6.85669H736.812L735.36 37.2683C733.342 36.5496 731.212 36.2008 729.071 36.2387C726.203 36.68 724.806 37.9302 723.555 44.0346C723.555 44.1633 723.555 44.2921 723.463 44.4391C722.948 46.903 722.434 49.4403 721.992 52.0329C720.54 60.8217 720.154 70.2357 723.463 78.8039C724.476 81.4977 726.107 83.916 728.225 85.8644C730.999 88.3484 734.515 89.8478 738.228 90.1302V90.1302Z" fill="black"/>
<path opacity="0.3" d="M813.227 190.651L803.85 195.174L800.89 196.626C800.89 196.626 790.17 172.503 788.295 159.209C783.649 155.012 779.525 150.271 776.013 145.088C776.233 149.961 776.417 154.98 776.564 160.074C777.447 189.492 777.171 220.143 776.215 221.099C774.204 221.615 772.131 221.85 770.055 221.798C769.999 222.531 769.687 223.221 769.173 223.747C768.731 223.967 760.182 226.321 755.806 227.534C755.752 227.653 755.709 227.776 755.677 227.902C758.896 227.081 762.172 226.497 765.477 226.155C765.716 226.505 764.263 228.619 763.638 228.932C763.013 229.244 757.295 230.771 752.845 232.039C747.343 234.124 741.398 234.757 735.58 233.878L733.981 234.429C733.705 233.823 733.392 233.198 733.08 232.591C731.609 229.483 729.862 225.604 728.06 221.338C724.616 213.324 721.716 205.086 719.381 196.682C718.528 193.542 717.859 190.356 717.377 187.139C717.368 186.961 717.368 186.783 717.377 186.606C717.285 185.999 717.23 185.41 717.157 184.767C717.083 184.123 717.157 183.958 717.065 183.572C716.938 182.172 716.901 180.766 716.954 179.361C716.991 177.492 717.281 175.636 717.819 173.845C717.943 173.463 718.091 173.088 718.26 172.724C718.713 171.521 719.426 170.433 720.348 169.537C721.269 168.64 722.377 167.958 723.592 167.539C740.14 161.692 745.656 133.505 746.686 116.276C746.796 114.548 746.87 112.948 746.888 111.478C746.888 109.179 746.888 107.249 746.759 105.778C746.666 104.599 746.506 103.427 746.281 102.266C745.656 99.282 744.864 96.3355 743.909 93.4402C743.707 92.7782 743.505 92.1347 743.303 91.4176C743.1 90.7005 742.972 90.3144 742.806 89.726C742.53 88.8067 742.255 87.7954 741.997 86.7658C741.537 85.0558 741.096 83.2355 740.692 81.2497C743.107 80.7034 745.306 79.4554 747.014 77.6627C748.722 75.8699 749.861 73.6124 750.29 71.1738C750.313 70.9833 750.296 70.79 750.239 70.6066C750.182 70.4232 750.087 70.2538 749.961 70.1097C749.834 69.9656 749.678 69.8499 749.503 69.7703C749.329 69.6907 749.139 69.6489 748.947 69.6477H738.982C738.761 67.3494 738.596 64.8672 738.485 62.1827V60.5095C738.485 58.6709 738.393 56.6667 738.485 54.589C738.461 48.3305 739.5 42.1134 741.556 36.2023C744.106 28.8744 748.501 22.3268 754.316 17.1904C758.784 20.4772 762.48 24.7004 765.146 29.5647C765.551 30.3185 765.937 31.1092 766.304 31.8998C766.796 32.961 767.232 34.0473 767.61 35.1542C768.592 34.5842 769.695 34.2538 770.83 34.19C771.964 34.1261 773.097 34.3304 774.137 34.7865C779.966 37.0297 781.492 46.6459 776.822 52.64C775.353 54.6809 773.283 56.2111 770.901 57.016C770.91 57.1262 770.91 57.2369 770.901 57.347C771.255 58.9595 771.434 60.6054 771.434 62.2562C771.434 73.7479 762.94 83.6216 750.768 87.9057L751.705 95.6281C754.251 96.4835 756.738 97.5031 759.152 98.6803C763.351 100.682 767.336 103.103 771.048 105.906C771.121 105.947 771.189 105.997 771.25 106.053C771.319 106.126 771.393 106.193 771.471 106.256C778.826 113.5 802.931 150.2 804.567 153.381C805.303 154.852 803.85 156.378 801.589 157.702C802.822 160.004 803.867 162.402 804.714 164.873L813.227 190.651Z" fill="#F0D09C"/>
<path d="M708.736 144.445C707.081 153.473 705.463 163.126 703.477 170.591C702.698 174.108 701.462 177.508 699.8 180.704C699.327 181.562 698.704 182.328 697.961 182.965C694.284 185.944 690.422 185.815 687.793 182.414C685.783 179.406 684.65 175.898 684.52 172.283C683.766 164.431 691.176 121.921 700.296 107.322C702.227 104.215 704.231 102.376 706.253 102.376C716.587 102.376 712.615 123.3 708.736 144.445Z" fill="#A16552"/>
<path d="M738.173 175.004L735.452 184.197L735.36 184.51L735.121 185.319C735.121 185.319 689.705 191.423 687.775 182.45C686.322 175.555 687.775 172.209 691.544 170.904C694.32 169.892 698.384 170.003 703.495 170.628C712.266 171.621 724.199 174.121 738.173 175.004Z" fill="#A16552"/>
<path d="M740.489 215.455C748.653 211.777 751.338 204.845 753.728 202.878C754.39 202.455 758.067 202.584 756.228 206.261L749.977 218.415L740.489 215.455Z" fill="#A16552"/>
<path d="M758.95 213.855C758.95 213.855 758.692 215.399 758.251 217.532C758.251 217.734 758.251 217.937 758.122 218.157C757.902 219.316 757.626 220.603 757.295 221.945C757.295 222.129 757.203 222.331 757.148 222.533C757.116 222.726 757.073 222.916 757.019 223.103C756.927 223.489 756.817 223.894 756.725 224.28C756.431 225.402 756.118 226.468 755.787 227.461C755.733 227.579 755.69 227.702 755.658 227.829C755.336 229.306 754.565 230.648 753.452 231.671L752.79 231.966C747.288 234.05 741.342 234.684 735.525 233.804L735.415 232.48L734.477 221.448L734.33 219.61C736.291 218.067 738.355 216.66 740.508 215.399L740.839 215.234C741.298 215.013 741.758 214.792 742.181 214.553C743.066 214.029 744.106 213.828 745.123 213.983C747.369 214.424 749.669 214.523 751.944 214.278C753.636 214.278 755.309 214.057 756.596 213.965C757.883 213.873 758.95 213.855 758.95 213.855Z" fill="#A16552"/>
<path d="M763.583 228.931C763.16 229.152 757.24 230.77 752.79 232.039C750.051 232.829 747.844 233.418 747.844 233.418L748.764 229.372L755.659 227.901C758.878 227.08 762.154 226.496 765.459 226.155C765.698 226.486 764.245 228.619 763.583 228.931Z" fill="#A16552"/>
<path d="M754.813 218.893C761.745 217.551 772.096 215.326 772.556 215.675C773.016 216.024 772.446 218.157 771.82 218.47C771.195 218.783 755.898 222.956 755.898 222.956L754.813 218.893Z" fill="#A16552"/>
<path d="M751.669 215.051C758.582 213.708 768.952 211.484 769.412 211.833C769.871 212.182 769.283 214.315 768.676 214.628C768.07 214.94 752.753 219.114 752.753 219.114L751.669 215.051Z" fill="#A16552"/>
<path d="M770.037 221.798C769.981 222.531 769.669 223.222 769.154 223.747C768.713 223.968 760.163 226.321 755.787 227.535L753.231 228.234L752.551 225.935L752.073 224.097L756.946 223.122L760.182 222.479L763.068 221.909C765.279 221.349 767.539 221.004 769.816 220.879C770.055 221.063 770.074 221.394 770.037 221.798Z" fill="#A16552"/>
<path d="M735.525 233.842L733.925 234.393C726.093 237.151 692.059 248.624 688.694 241.251C681.339 225.292 695.184 226.891 718.517 223.049C721.533 222.552 724.695 221.964 728.005 221.21C730.064 220.769 732.179 220.272 734.33 219.702L734.477 221.541L735.415 232.573L735.525 233.842Z" fill="#A16552"/>
<path d="M761.836 183.057L760.145 183.167C757.975 183.278 753.967 183.48 749.775 183.737C743.836 184.05 737.492 184.399 735.36 184.546H734.606C734.599 184.467 734.599 184.387 734.606 184.307C734.492 182.592 734.754 180.873 735.374 179.269C735.993 177.665 736.954 176.216 738.191 175.022C738.724 174.544 744.387 172.613 748.58 170.848C760.991 165.534 764.374 174.323 764.944 178.681C765.078 179.176 765.101 179.695 765.011 180.2C764.921 180.705 764.72 181.184 764.423 181.603C764.126 182.021 763.74 182.368 763.293 182.62C762.846 182.871 762.348 183.021 761.836 183.057V183.057Z" fill="#A16552"/>
<path d="M752.147 173.735C752.147 173.735 756.357 175.096 756.137 183.37" stroke="#5E3B31" stroke-width="0.5" stroke-miterlimit="10" stroke-linecap="round"/>
<path d="M756.633 172.669C756.633 172.669 760.844 174.03 760.623 182.285" stroke="#5E3B31" stroke-width="0.5" stroke-miterlimit="10" stroke-linecap="round"/>
<path d="M748.469 175.188C748.469 175.188 749.995 176.383 749.775 183.719" stroke="#5E3B31" stroke-width="0.5" stroke-miterlimit="10" stroke-linecap="round"/>
<path d="M743.744 176.842C744.596 179.011 744.807 181.379 744.351 183.663" stroke="#5E3B31" stroke-width="0.5" stroke-miterlimit="10" stroke-linecap="round"/>
<path d="M646.405 177.651C644.328 176.886 642.62 175.361 641.624 173.385C641.143 172.429 640.864 171.383 640.804 170.314C640.744 169.245 640.904 168.175 641.275 167.171C642.03 165.323 643.431 163.814 645.218 162.924C647.004 162.034 649.053 161.825 650.983 162.335C651.346 162.426 651.702 162.543 652.049 162.684C654.078 163.291 655.782 164.679 656.787 166.543C657.792 168.407 658.016 170.594 657.409 172.622C656.802 174.651 655.414 176.355 653.55 177.36C651.686 178.366 649.5 178.589 647.471 177.982V177.982C647.106 177.905 646.749 177.795 646.405 177.651V177.651ZM643.389 167.961C643.125 168.675 643.012 169.435 643.056 170.195C643.101 170.954 643.302 171.696 643.647 172.374C644.379 173.849 645.649 174.988 647.195 175.555L648.004 175.812C649.398 176.193 650.882 176.054 652.181 175.421C653.48 174.789 654.505 173.706 655.065 172.374C655.565 170.862 655.446 169.214 654.732 167.79C654.019 166.366 652.769 165.284 651.259 164.78L650.45 164.523C649.056 164.142 647.571 164.281 646.273 164.914C644.974 165.546 643.949 166.629 643.389 167.961V167.961Z" fill="#BCBCBC"/>
<path opacity="0.2" d="M647.747 175.702L648.078 175.812C649.471 176.193 650.956 176.054 652.255 175.421C653.554 174.789 654.578 173.706 655.138 172.374C655.639 170.862 655.519 169.214 654.806 167.79C654.092 166.366 652.843 165.284 651.332 164.78L650.523 164.523C649.561 164.302 648.562 164.302 647.6 164.523C647.747 163.714 647.894 162.923 648.078 162.169C649.074 162.058 650.082 162.12 651.056 162.353C651.42 162.445 651.776 162.561 652.123 162.703C654.192 163.413 655.895 164.916 656.857 166.881C657.818 168.846 657.961 171.113 657.253 173.183C656.564 174.876 655.328 176.289 653.741 177.196C652.154 178.103 650.309 178.451 648.501 178.184C648.185 177.378 647.933 176.548 647.747 175.702V175.702Z" fill="white"/>
<path d="M670.601 156.489H649.475V183.811H670.601V156.489Z" fill="white"/>
<path opacity="0.15" d="M654.127 156.489H649.475V183.811H654.127V156.489Z" fill="black"/>
<path opacity="0.15" d="M661.169 170.389L664.111 173.405L663.854 177.395H658.356L657.859 173.405L661.169 170.389Z" fill="black"/>
<path d="M660.985 155.845V171.198" stroke="#3D3C3A" stroke-width="0.66" stroke-miterlimit="10"/>
<path d="M895.324 162.538C895.324 162.538 901.097 171.897 888.907 171.731C876.717 171.566 882.472 190.026 860.647 181.311" stroke="#D0D8DB" stroke-width="0.52" stroke-miterlimit="10"/>
<path d="M878.739 161.03H830.566V178.699H878.739V161.03Z" fill="#949FA3"/>
<path d="M913.748 64.9961H795.558C792.897 64.9961 790.74 67.1529 790.74 69.8134V162.795C790.74 165.456 792.897 167.612 795.558 167.612H913.748C916.408 167.612 918.565 165.456 918.565 162.795V69.8134C918.565 67.1529 916.408 64.9961 913.748 64.9961Z" fill="#ADB7BA"/>
<path opacity="0.7" d="M913.895 67.9557H799.106C796.527 67.9557 794.436 70.0466 794.436 72.6259V162.941C794.436 165.521 796.527 167.612 799.106 167.612H913.895C916.474 167.612 918.565 165.521 918.565 162.941V72.6259C918.565 70.0466 916.474 67.9557 913.895 67.9557Z" fill="#949FA3"/>
<path d="M885.928 175.481H822.972V178.699H885.928V175.481Z" fill="#A9B8BD"/>
<path d="M909.666 178.699H800.577V184.086H909.666V178.699Z" fill="#ADB7BA"/>
<path d="M794.749 178.699H706.345V184.086H794.749V178.699Z" fill="#ADB7BA"/>
<path d="M950.576 191.92H616.876V326.989H950.576V191.92Z" fill="#33231E"/>
<path opacity="0.2" d="M934.69 207.64H632.78V313.584H934.69V207.64Z" fill="#002232"/>
<path opacity="0.2" d="M950.576 191.515H616.876V198.465H950.576V191.515Z" fill="#002232"/>
<path d="M964.366 183.039H602.846V192.986H964.366V183.039Z" fill="#33231E"/>
<path d="M758.214 37.6364H746.704C745.461 37.6395 744.241 37.9647 743.161 38.5802C742.082 39.1956 741.18 40.0805 740.544 41.1483C740.181 40.9791 739.798 40.8556 739.405 40.7805C738.943 40.6993 738.475 40.6624 738.007 40.6702C736.076 40.5169 734.134 40.7417 732.289 41.3321C731.666 40.2161 730.757 39.2867 729.654 38.6401C728.552 37.9936 727.297 37.6534 726.019 37.6548H714.509C713.331 37.6549 712.171 37.9452 711.132 38.5C710.093 39.0548 709.207 39.857 708.552 40.8357L706.364 35.099L705.646 34.7313L704.801 34.4187L707.963 42.3986C707.531 43.126 707.314 43.9613 707.338 44.8072V51.261C707.343 53.1613 708.1 54.9824 709.444 56.3261C710.787 57.6699 712.609 58.4269 714.509 58.4318H726.019C727.919 58.4269 729.74 57.6699 731.084 56.3261C732.428 54.9824 733.185 53.1613 733.19 51.261V44.8072C733.189 44.1866 733.109 43.5686 732.951 42.9685C734.574 42.4696 736.278 42.2885 737.97 42.4353C738.338 42.4057 738.706 42.4057 739.074 42.4353C739.335 42.4786 739.589 42.5591 739.827 42.6743C739.637 43.3256 739.538 44.0001 739.533 44.6785V51.1322C739.538 53.0326 740.295 54.8537 741.639 56.1974C742.983 57.5411 744.804 58.2982 746.704 58.3031H758.214C760.114 58.2982 761.936 57.5411 763.279 56.1974C764.623 54.8537 765.38 53.0326 765.385 51.1322V44.6785C765.38 43.7322 765.193 42.7958 764.833 41.9205L769.026 34.2716L768.106 34.5842L767.334 34.9887L763.914 40.3576C763.237 39.4969 762.37 38.8038 761.382 38.3319C760.393 37.86 759.309 37.622 758.214 37.6364V37.6364ZM731.388 51.2426C731.39 51.9492 731.253 52.6493 730.985 53.3028C730.716 53.9563 730.321 54.5504 729.822 55.0509C729.323 55.5514 728.73 55.9485 728.078 56.2195C727.425 56.4904 726.726 56.6299 726.019 56.6299H714.509C713.083 56.625 711.718 56.0553 710.711 55.0455C709.705 54.0357 709.14 52.6682 709.14 51.2426V44.7888C709.14 44.0838 709.279 43.3856 709.549 42.7342C709.818 42.0828 710.214 41.4909 710.712 40.9924C711.211 40.4938 711.803 40.0984 712.454 39.8286C713.106 39.5588 713.804 39.4199 714.509 39.4199H726.019C726.724 39.4199 727.422 39.5588 728.074 39.8286C728.725 40.0984 729.317 40.4938 729.815 40.9924C730.314 41.4909 730.709 42.0828 730.979 42.7342C731.249 43.3856 731.388 44.0838 731.388 44.7888V51.2426ZM763.583 51.2426C763.583 52.6682 763.018 54.0357 762.012 55.0455C761.005 56.0553 759.64 56.625 758.214 56.6299H746.704C745.278 56.625 743.913 56.0553 742.907 55.0455C741.9 54.0357 741.335 52.6682 741.335 51.2426V44.7888C741.335 44.0838 741.474 43.3856 741.744 42.7342C742.014 42.0828 742.409 41.4909 742.908 40.9924C743.406 40.4938 743.998 40.0984 744.649 39.8286C745.301 39.5588 745.999 39.4199 746.704 39.4199H758.214C758.919 39.4199 759.617 39.5588 760.269 39.8286C760.92 40.0984 761.512 40.4938 762.011 40.9924C762.509 41.4909 762.905 42.0828 763.174 42.7342C763.444 43.3856 763.583 44.0838 763.583 44.7888V51.2426Z" fill="#333333"/>
<path opacity="0.35" d="M726.019 39.4202H714.509C713.804 39.4202 713.106 39.559 712.454 39.8289C711.803 40.0987 711.211 40.4941 710.713 40.9927C710.214 41.4912 709.819 42.0831 709.549 42.7345C709.279 43.3859 709.14 44.084 709.14 44.7891V51.2428C709.14 52.6685 709.705 54.036 710.711 55.0458C711.718 56.0555 713.083 56.6253 714.509 56.6301H715.41C715.392 56.3669 715.392 56.1027 715.41 55.8395V49.3858C715.41 48.6792 715.549 47.9795 715.82 47.3269C716.091 46.6743 716.488 46.0816 716.989 45.5828C717.489 45.084 718.083 44.689 718.737 44.4203C719.391 44.1515 720.091 44.0144 720.797 44.0169H731.406C731.219 42.7274 730.569 41.55 729.578 40.7043C728.587 39.8586 727.322 39.4022 726.019 39.4202V39.4202Z" fill="white"/>
<path opacity="0.37" d="M758.214 39.42H746.704C745.999 39.42 745.301 39.5588 744.65 39.8286C743.998 40.0984 743.406 40.4939 742.908 40.9924C742.409 41.491 742.014 42.0829 741.744 42.7343C741.474 43.3857 741.335 44.0838 741.335 44.7889V51.2426C741.335 52.6682 741.9 54.0357 742.907 55.0455C743.913 56.0553 745.278 56.625 746.704 56.6299H747.587C747.568 56.3667 747.568 56.1025 747.587 55.8393V49.3855C747.587 48.6789 747.726 47.9793 747.997 47.3267C748.268 46.6741 748.665 46.0814 749.166 45.5826C749.666 45.0838 750.26 44.6888 750.914 44.42C751.567 44.1513 752.267 44.0142 752.974 44.0166H763.583C763.396 42.7304 762.749 41.5555 761.762 40.7102C760.774 39.8649 759.514 39.4065 758.214 39.42V39.42Z" fill="white"/>
<path d="M891.407 225H677V293.068H891.407V225Z" fill="#33231E"/>
<path d="M718.584 267.776C718.552 268.24 718.304 268.56 717.84 268.736C717.392 268.912 716.576 269 715.392 269C714.208 269 713.216 268.896 712.416 268.688C711.632 268.464 711.24 268.184 711.24 267.848C711.24 267.464 711.952 265.016 713.376 260.504C714.8 255.976 715.616 253.368 715.824 252.68C715.904 252.472 716.544 252.304 717.744 252.176C718.96 252.032 720.256 251.96 721.632 251.96C723.024 251.96 723.792 252.2 723.936 252.68C726.96 262.728 728.472 267.832 728.472 267.992C728.472 268.152 728.376 268.312 728.184 268.472C727.736 268.824 726.848 269 725.52 269C722.688 269 721.24 268.664 721.176 267.992L721.008 266.432H718.704L718.584 267.776ZM720.504 261.872L720.144 257.552H719.616L719.208 261.872H720.504ZM731.811 268.592C731.427 268.416 731.011 268.152 730.563 267.8C730.131 267.448 729.771 267.032 729.483 266.552C728.811 265.4 728.475 263.896 728.475 262.04C728.475 260.888 728.659 259.864 729.027 258.968C729.395 258.056 729.843 257.352 730.371 256.856C730.899 256.36 731.507 255.952 732.195 255.632C733.299 255.12 734.403 254.864 735.507 254.864C737.363 254.864 738.651 255.008 739.371 255.296C740.107 255.584 740.475 256.072 740.475 256.76C740.475 257.448 740.347 258.184 740.091 258.968C739.851 259.736 739.531 260.12 739.131 260.12C739.003 260.12 738.611 259.984 737.955 259.712C737.315 259.44 736.755 259.304 736.275 259.304C735.811 259.304 735.451 259.496 735.195 259.88C734.955 260.248 734.835 260.976 734.835 262.064C734.835 263.136 734.947 263.872 735.171 264.272C735.395 264.656 735.739 264.848 736.203 264.848C736.683 264.848 737.275 264.688 737.979 264.368C738.683 264.048 739.075 263.888 739.155 263.888C739.459 263.888 739.747 264.248 740.019 264.968C740.307 265.688 740.451 266.328 740.451 266.888C740.451 267.752 740.003 268.36 739.107 268.712C738.211 269.048 736.995 269.216 735.459 269.216C733.939 269.216 732.723 269.008 731.811 268.592ZM745.006 268.592C744.622 268.416 744.206 268.152 743.758 267.8C743.326 267.448 742.966 267.032 742.678 266.552C742.006 265.4 741.67 263.896 741.67 262.04C741.67 260.888 741.854 259.864 742.222 258.968C742.59 258.056 743.038 257.352 743.566 256.856C744.094 256.36 744.702 255.952 745.39 255.632C746.494 255.12 747.598 254.864 748.702 254.864C750.558 254.864 751.846 255.008 752.566 255.296C753.302 255.584 753.67 256.072 753.67 256.76C753.67 257.448 753.542 258.184 753.286 258.968C753.046 259.736 752.726 260.12 752.326 260.12C752.198 260.12 751.806 259.984 751.15 259.712C750.51 259.44 749.95 259.304 749.47 259.304C749.006 259.304 748.646 259.496 748.39 259.88C748.15 260.248 748.03 260.976 748.03 262.064C748.03 263.136 748.142 263.872 748.366 264.272C748.59 264.656 748.934 264.848 749.398 264.848C749.878 264.848 750.47 264.688 751.174 264.368C751.878 264.048 752.27 263.888 752.35 263.888C752.654 263.888 752.942 264.248 753.214 264.968C753.502 265.688 753.646 266.328 753.646 266.888C753.646 267.752 753.198 268.36 752.302 268.712C751.406 269.048 750.19 269.216 748.654 269.216C747.134 269.216 745.918 269.008 745.006 268.592ZM762.498 269.216C761.298 269.216 760.266 269.112 759.402 268.904C758.538 268.696 757.754 268.328 757.05 267.8C755.594 266.744 754.866 264.776 754.866 261.896C754.866 259.336 755.61 257.504 757.098 256.4C758.49 255.376 760.29 254.864 762.498 254.864C763.442 254.864 764.25 254.912 764.922 255.008C765.594 255.088 766.274 255.272 766.962 255.56C767.666 255.848 768.226 256.24 768.642 256.736C769.074 257.232 769.426 257.92 769.698 258.8C769.97 259.664 770.106 260.696 770.106 261.896C770.106 264.328 769.418 266.16 768.042 267.392C766.666 268.608 764.818 269.216 762.498 269.216ZM761.658 264.536C761.77 265.112 761.882 265.456 761.994 265.568C762.122 265.68 762.282 265.736 762.474 265.736C762.682 265.736 762.842 265.68 762.954 265.568C763.082 265.456 763.194 265.112 763.29 264.536C763.402 263.96 763.458 263.24 763.458 262.376C763.458 261.496 763.434 260.824 763.386 260.36C763.354 259.88 763.306 259.512 763.242 259.256C763.194 259 763.122 258.8 763.026 258.656C762.882 258.448 762.706 258.344 762.498 258.344C762.306 258.344 762.146 258.408 762.018 258.536C761.89 258.648 761.77 259 761.658 259.592C761.546 260.168 761.49 260.992 761.49 262.064C761.49 263.136 761.546 263.96 761.658 264.536ZM776.359 269.216C774.567 269.216 773.311 268.752 772.591 267.824C771.887 266.896 771.535 265.28 771.535 262.976V256.448C771.535 256.128 772.007 255.824 772.951 255.536C773.895 255.232 774.887 255.08 775.927 255.08C777.319 255.08 778.015 255.44 778.015 256.16V262.256C778.015 263.472 778.063 264.36 778.159 264.92C778.255 265.464 778.495 265.736 778.879 265.736C779.391 265.736 779.647 265.52 779.647 265.088V256.448C779.647 256.112 780.143 255.8 781.135 255.512C782.127 255.224 783.207 255.08 784.375 255.08C785.543 255.08 786.127 255.392 786.127 256.016V268.376C786.127 268.6 785.623 268.76 784.615 268.856C783.607 268.952 782.615 269 781.639 269C780.663 269 780.167 268.872 780.151 268.616L779.911 267.056H779.719C779.575 267.632 779.287 268.104 778.855 268.472C778.631 268.664 778.295 268.84 777.847 269C777.415 269.144 776.919 269.216 776.359 269.216ZM802.273 261.032V268.424C802.273 268.6 801.817 268.744 800.905 268.856C799.993 268.952 799.049 269 798.073 269C797.113 269 796.489 268.96 796.201 268.88C795.929 268.784 795.793 268.632 795.793 268.424V260.792C795.793 260.072 795.761 259.6 795.697 259.376C795.649 259.152 795.601 258.952 795.553 258.776C795.441 258.472 795.241 258.32 794.953 258.32C794.505 258.32 794.281 258.536 794.281 258.968V268.424C794.281 268.6 793.825 268.744 792.913 268.856C792.017 268.952 791.081 269 790.105 269C789.145 269 788.521 268.96 788.233 268.88C787.945 268.784 787.801 268.632 787.801 268.424V256.592C787.801 256.256 788.257 255.92 789.169 255.584C790.097 255.248 791.073 255.08 792.097 255.08C793.121 255.08 793.697 255.376 793.825 255.968L794.041 257.024H794.209C794.673 256.096 795.473 255.448 796.609 255.08C797.073 254.936 797.585 254.864 798.145 254.864C799.761 254.864 800.849 255.352 801.409 256.328C801.985 257.288 802.273 258.856 802.273 261.032ZM813.381 268.784C813.093 269.056 812.437 269.192 811.413 269.192C810.389 269.192 809.541 269.128 808.869 269C808.197 268.856 807.557 268.584 806.949 268.184C805.781 267.4 805.197 265.768 805.197 263.288V259.544H803.997C803.821 259.544 803.669 259.36 803.541 258.992C803.413 258.624 803.349 258.12 803.349 257.48C803.349 256.84 803.445 256.28 803.637 255.8C803.845 255.304 804.109 255.056 804.429 255.056H805.197V252.152C805.197 251.656 805.677 251.256 806.637 250.952C807.613 250.648 808.565 250.496 809.493 250.496C810.949 250.496 811.677 250.856 811.677 251.576V255.056H813.453C813.869 255.056 814.077 255.656 814.077 256.856C814.077 257.64 813.981 258.288 813.789 258.8C813.613 259.296 813.381 259.544 813.093 259.544H811.677V263.936C811.677 264.368 811.861 264.68 812.229 264.872C812.597 265.048 812.917 265.136 813.189 265.136C813.477 265.136 813.653 265.272 813.717 265.544C813.781 265.816 813.813 266.224 813.813 266.768C813.813 267.84 813.669 268.512 813.381 268.784ZM822.128 256.592V268.424C822.128 268.6 821.664 268.744 820.736 268.856C819.824 268.952 818.88 269 817.904 269C816.944 269 816.32 268.96 816.032 268.88C815.76 268.784 815.624 268.632 815.624 268.424V257.024C815.624 256.672 816.072 256.328 816.968 255.992C817.88 255.64 818.872 255.464 819.944 255.464C821.4 255.464 822.128 255.84 822.128 256.592ZM818.864 250.28C819.92 250.28 820.744 250.44 821.336 250.76C821.944 251.064 822.248 251.624 822.248 252.44C822.248 253.88 821.128 254.6 818.888 254.6C816.648 254.6 815.528 253.88 815.528 252.44C815.528 251 816.64 250.28 818.864 250.28ZM838.39 261.032V268.424C838.39 268.6 837.934 268.744 837.022 268.856C836.11 268.952 835.166 269 834.19 269C833.23 269 832.606 268.96 832.318 268.88C832.046 268.784 831.91 268.632 831.91 268.424V260.792C831.91 260.072 831.878 259.6 831.814 259.376C831.766 259.152 831.718 258.952 831.67 258.776C831.558 258.472 831.358 258.32 831.07 258.32C830.622 258.32 830.398 258.536 830.398 258.968V268.424C830.398 268.6 829.942 268.744 829.03 268.856C828.134 268.952 827.198 269 826.222 269C825.262 269 824.638 268.96 824.35 268.88C824.062 268.784 823.918 268.632 823.918 268.424V256.592C823.918 256.256 824.374 255.92 825.286 255.584C826.214 255.248 827.19 255.08 828.214 255.08C829.238 255.08 829.814 255.376 829.942 255.968L830.158 257.024H830.326C830.79 256.096 831.59 255.448 832.726 255.08C833.19 254.936 833.702 254.864 834.262 254.864C835.878 254.864 836.966 255.352 837.526 256.328C838.102 257.288 838.39 258.856 838.39 261.032ZM848.083 267.416V266.024H847.891C847.827 266.104 847.715 266.208 847.555 266.336C847.395 266.448 846.995 266.608 846.355 266.816C845.731 267.024 845.019 267.128 844.219 267.128C843.435 267.128 842.771 267.008 842.227 266.768C841.683 266.528 841.259 266.232 840.955 265.88C840.651 265.512 840.411 265.024 840.235 264.416C839.963 263.472 839.827 262.192 839.827 260.576C839.827 258.72 840.219 257.296 841.003 256.304C841.307 255.904 841.755 255.568 842.347 255.296C842.955 255.008 843.603 254.864 844.291 254.864C844.979 254.864 845.547 254.944 845.995 255.104C846.443 255.248 846.779 255.424 847.003 255.632C847.451 256.08 847.707 256.472 847.771 256.808L847.795 257.024H847.987L848.203 256.088C848.363 255.416 849.627 255.08 851.995 255.08C853.051 255.08 853.691 255.24 853.915 255.56C854.043 255.752 854.123 255.936 854.155 256.112C854.187 256.272 854.203 256.52 854.203 256.856V266.912C854.203 268.8 853.587 270.24 852.355 271.232C851.123 272.224 849.315 272.72 846.931 272.72C844.403 272.72 842.683 272.472 841.771 271.976C841.371 271.752 841.171 271.52 841.171 271.28C841.171 270.896 841.323 270.248 841.627 269.336C841.947 268.424 842.243 267.968 842.515 267.968C842.579 267.968 842.803 268.024 843.187 268.136C844.403 268.456 845.387 268.616 846.139 268.616C846.907 268.616 847.419 268.52 847.675 268.328C847.947 268.136 848.083 267.832 848.083 267.416ZM847.123 264.392C847.299 264.392 847.443 264.328 847.555 264.2C847.667 264.072 847.723 263.928 847.723 263.768V258.824C847.659 258.488 847.483 258.32 847.195 258.32C846.587 258.32 846.283 259.32 846.283 261.32C846.283 262.248 846.355 262.992 846.499 263.552C846.659 264.112 846.867 264.392 847.123 264.392Z" fill="#594B38"/>
<path d="M852.924 118.906C852.924 118.906 853.108 116.277 849.743 113.39C844.926 109.253 844.356 108.333 848.364 108.977C851.02 109.563 853.428 110.957 855.259 112.967" fill="#ADB7BA"/>
<path d="M859.194 120.45C858.614 119.828 857.944 119.295 857.208 118.869C856.498 118.442 855.761 118.061 855.002 117.729C854.396 117.359 853.74 117.08 853.053 116.901L852.943 117.03C852.919 117.083 852.888 117.132 852.851 117.177L852.612 117.49L852.501 117.618L852.391 117.747C852.391 117.857 852.226 117.949 852.152 118.041C852.078 118.133 851.637 118.63 851.361 118.906L851.233 119.053L851.012 119.273L850.846 119.42L850.681 119.567L850.424 119.806H850.332L850.221 119.898L849.964 120.119L849.578 120.413L849.265 120.634L849.008 120.818L848.567 121.094C848.277 121.295 847.976 121.479 847.666 121.645C847.1 121.966 846.517 122.255 845.919 122.509L845.128 122.803L844.724 122.951L844.374 123.061L843.896 123.208H843.768C843.388 123.442 843.092 123.789 842.922 124.201C842.922 124.201 842.922 124.201 842.922 124.201C842.831 124.473 842.794 124.76 842.811 125.047C842.792 125.212 842.792 125.378 842.811 125.543C842.835 125.666 842.878 125.784 842.94 125.892C843.144 126.249 843.461 126.528 843.841 126.683C844.612 126.993 845.438 127.143 846.268 127.124C848.878 127.081 851.443 126.441 853.767 125.252C856.09 124.063 858.11 122.357 859.672 120.266L859.194 120.45Z" fill="#ADB7BA"/>
<path d="M855.002 117.729C854.396 117.359 853.74 117.08 853.053 116.901L852.943 117.03C852.919 117.083 852.888 117.132 852.851 117.177L852.74 117.306L852.612 117.471L852.501 117.6L852.391 117.729L852.281 117.876L852.152 118.023L851.913 118.299L851.784 118.409L851.545 118.685L851.398 118.832L851.269 118.979L851.03 119.2L850.883 119.347L850.718 119.494L850.46 119.715H850.369L850.258 119.806L850.001 120.027L849.762 120.211L849.615 120.321L849.302 120.542L849.045 120.707L848.824 120.836L848.603 120.983L848.291 121.186L848.125 121.296L847.702 121.535L847.408 121.7L846.985 121.921L846.691 122.068L846.232 122.27L845.937 122.399L845.441 122.601H845.239L844.834 122.73L844.485 122.859L843.988 122.987H843.878C843.509 123.227 843.22 123.574 843.051 123.98C843.051 123.98 843.051 123.98 843.051 123.98C842.96 124.253 842.923 124.54 842.94 124.826C842.921 124.991 842.921 125.158 842.94 125.323C844.492 125.34 846.039 125.142 847.537 124.734L848.144 124.55C851.67 123.468 854.745 121.259 856.896 118.262L857.116 117.949C856.197 118.28 855.517 118.005 855.002 117.729Z" fill="#ADB7BA"/>
<path d="M859.856 120.082L856.547 118.906L852.593 117.527L852.722 117.343L852.832 117.214C852.87 117.169 852.9 117.12 852.924 117.067L853.182 116.718L853.347 116.479L853.641 116.001L853.752 115.835L853.936 115.541L854.101 115.228C854.101 115.1 854.23 114.971 854.303 114.861C854.341 114.752 854.391 114.647 854.45 114.548L854.616 114.199C854.616 114.199 854.616 114.199 854.616 114.107C854.658 114.032 854.689 113.951 854.708 113.868L854.837 113.537L854.928 113.316C854.928 113.316 854.928 113.187 854.928 113.114C854.932 113.053 854.932 112.991 854.928 112.93V112.82C854.931 112.777 854.931 112.734 854.928 112.691L855.186 111.882L855.296 111.459C855.296 111.257 855.388 111.073 855.425 110.871V110.742C855.425 110.521 855.517 110.282 855.554 110.043C855.564 109.964 855.564 109.884 855.554 109.804C855.554 109.804 855.554 109.657 855.554 109.565C855.554 109.473 855.554 109.381 855.554 109.289V108.811C855.554 108.701 855.554 108.609 855.554 108.499C855.554 108.388 855.554 108.315 855.554 108.223C855.554 108.131 855.554 107.892 855.554 107.727V106.973C855.554 106.734 855.554 106.495 855.554 106.256C855.554 106.035 855.554 105.814 855.554 105.594C855.364 104.1 855.29 102.594 855.333 101.089C855.328 100.814 855.382 100.541 855.489 100.287C855.597 100.034 855.757 99.8058 855.958 99.6181L856.105 99.5261H856.271C856.774 99.4583 857.286 99.5618 857.723 99.8203C858.356 100.188 858.912 100.675 859.36 101.254C861.247 104.059 862.256 107.362 862.256 110.742C862.256 114.122 861.247 117.426 859.36 120.23L859.856 120.082Z" fill="#ADB7BA"/>
<path d="M856.546 118.906C858.494 116.206 859.607 112.993 859.748 109.666C859.888 106.339 859.05 103.044 857.337 100.189C857.227 100.023 857.116 99.8577 857.025 99.6922L856.804 99.3796H856.638L856.491 99.4716C856.29 99.6594 856.13 99.8873 856.023 100.141C855.915 100.394 855.862 100.667 855.866 100.943C855.823 102.448 855.897 103.954 856.087 105.447V105.447C856.105 105.668 856.105 105.889 856.087 106.109C856.087 106.348 856.087 106.587 856.087 106.826V107.231V107.323V107.672C856.087 107.838 856.087 108.003 856.087 108.168C856.087 108.334 856.087 108.352 856.087 108.444C856.087 108.536 856.087 108.647 856.087 108.757V108.922C856.087 109.033 856.087 109.125 856.087 109.217C856.087 109.308 856.087 109.364 856.087 109.456C856.094 109.535 856.094 109.615 856.087 109.695C856.087 109.915 856.087 110.154 855.958 110.393V110.651C855.958 110.853 855.866 111.055 855.829 111.239L855.719 111.662C855.719 111.938 855.554 112.214 855.462 112.471C855.464 112.514 855.464 112.557 855.462 112.6V112.728C855.462 112.728 855.462 112.857 855.462 112.931C855.459 112.992 855.459 113.053 855.462 113.115C855.439 113.191 855.408 113.265 855.37 113.335V113.335L855.241 113.666C855.218 113.743 855.187 113.817 855.149 113.887C855.149 113.887 855.149 113.887 855.149 113.997L854.984 114.328C854.927 114.429 854.878 114.533 854.836 114.641C854.836 114.751 854.708 114.88 854.634 115.008L854.469 115.321L854.303 115.615L854.193 115.781L853.899 116.259L853.733 116.498L853.476 116.847C853.452 116.9 853.421 116.949 853.384 116.994L853.274 117.123C853.237 117.188 853.194 117.25 853.145 117.307V117.307L856.546 118.906Z" fill="#ADB7BA"/>
<path d="M852.593 117.526C854.381 118.174 856.057 119.099 857.558 120.266C859.801 122.509 860.647 123.19 859.396 129.901C859.342 130.149 859.305 130.401 859.286 130.655C859.157 131.758 859.029 134.589 863.423 128.044C868.719 120.174 861.217 117.949 861.217 117.949C858.41 117.168 855.463 117.023 852.593 117.526Z" fill="#ADB7BA"/>
<path d="M452.094 379.575C452.094 379.575 1008.13 218.764 1386.89 204.037V452.257H452.094V379.575Z" fill="#003B34"/>
<path d="M1305.66 346.001C1305.66 346.001 1200.12 181.035 1176.53 166.657C1152.94 152.278 1057.95 140.437 1057.95 140.437L1158.38 188.592L1281.17 380.935L1305.66 346.001Z" fill="#001210"/>
<path d="M1269.73 330.905C1269.73 330.905 1159.52 214.37 1089.89 195.763C1129.88 241.27 1260.76 343.996 1260.76 343.996L1269.73 330.905Z" fill="#001210"/>
<path d="M1289.06 387.131C1289.06 387.131 1190.3 158.676 1181.81 54.1108C1223.25 103.295 1315.44 387.131 1315.44 387.131H1289.06Z" fill="#001210"/>
<path d="M1217.9 456.504H1392.02L1386.07 -5.18596L1357.88 -482.707H1289.88L1279.02 -13.1106L1217.9 456.504Z" fill="#001210"/>
<path d="M1283.69 76.9841L1223.62 -13.1108L1217.9 0.293092L1283.69 118.704V76.9841Z" fill="#001210"/>
<path d="M1370.57 133.045L1418.13 71.1371L1413.99 65.4373L1365.9 116.129L1370.57 133.045Z" fill="#001210"/>
<path d="M1348.45 -88.6615L1533.45 -381.084L1562.93 -481.678H1573.79L1545.86 -371.008L1365.9 7.51937L1348.45 -88.6615Z" fill="#001210"/>
<path d="M-11.4721 269.401L410.503 247.686L943.626 334.637V452.624H-13.0165L-11.4721 269.401Z" fill="#006B5E"/>
<path d="M0.148132 286.777L633.111 337.965L1236.58 456.505H0.148132V286.777Z" fill="#003B34"/>
<path d="M1454.78 339.087L1497.21 201.83C1484.85 191.733 1471.54 182.86 1457.46 175.335L1441.39 239.155L1450.58 171.749C1433.9 163.476 1416.32 157.164 1398.18 152.94L1394.78 337.505L1370.35 148.288C1339.77 144.948 1308.83 147.781 1279.37 156.617L1333.26 321.932L1260.02 163.346L1258.19 164.1C1241.39 170.963 1225.46 179.788 1210.73 190.393L1269.57 287.953L1191.99 205.342C1176.99 218.753 1163.78 234.042 1152.68 250.83L1296.36 384.612L1139.04 274.292C1125.25 301.478 1116.64 330.996 1113.67 361.335L1222.41 395.644L1112.51 381.211C1112.15 400.987 1114.13 420.737 1118.41 440.048L1191.24 441.188L1122.62 456.394C1125.12 464.938 1128.06 473.346 1131.43 481.584C1182.91 607.275 1322.93 668.926 1444.33 619.282C1565.74 569.638 1622.45 427.508 1571.04 301.872C1558.31 270.638 1539.46 242.267 1515.6 218.433L1454.78 339.087Z" fill="#091A07"/>
<path d="M-50.0842 335.777L-91.5647 201.867C-79.5048 192.016 -66.5182 183.359 -52.7871 176.015L-30.723 252.228L-45.9104 172.448C-29.6354 164.397 -12.4828 158.258 5.20462 154.153L18.9211 362.548L32.3618 149.63C62.1725 146.383 92.3316 149.14 121.059 157.739L89.5445 254.379L139.906 164.284L141.744 165.02C158.139 171.742 173.68 180.382 188.042 190.761L92.2841 352.417L206.282 205.323C220.928 218.402 233.82 233.321 244.636 249.709L178.683 318.218L257.948 272.619C271.411 299.135 279.805 327.932 282.697 357.529L112.031 403.495L283.837 376.927C284.221 396.193 282.32 415.437 278.174 434.256L207.128 435.378L274.074 450.216C271.64 458.548 268.774 466.747 265.487 474.781C215.328 597.42 78.6412 657.563 -39.7325 609.114C-158.106 560.665 -213.671 422.029 -163.493 299.39C-151.105 268.947 -132.743 241.295 -109.492 218.065L-50.0842 335.777Z" fill="#091A07"/>
<path d="M135.107 -40.5625C188.575 -19.8222 104.033 103.994 68.1055 92.7413C32.1779 81.4886 84.4329 -60.2179 135.107 -40.5625Z" fill="#091A07"/>
<path d="M217.755 36.7356C251.568 63.6905 162.889 133.799 139.575 117.637C116.26 101.475 185.707 11.2148 217.755 36.7356Z" fill="#091A07"/>
<path d="M130.473 -30.5419C-4.50357 183.553 0.14828 437.933 0.14828 437.933C0.14828 437.933 67.8849 149.924 216.376 39.7321" stroke="#091A07" stroke-width="2" stroke-miterlimit="10"/>
<path d="M1328.29 -22.8192C1288.47 -7.37437 1351.43 84.835 1378.18 76.4691C1404.93 68.1031 1366.02 -37.455 1328.29 -22.8192Z" fill="#091A07"/>
<path d="M1268.35 93.6615C1234.54 120.616 1323.22 190.707 1346.53 174.563C1369.85 158.42 1300.48 68.1407 1268.35 93.6615Z" fill="#091A07"/>
<path d="M1355.64 26.3838C1490.61 240.479 1485.96 494.933 1485.96 494.933C1485.96 494.933 1418.15 206.905 1269.73 96.713" stroke="#091A07" stroke-width="2" stroke-miterlimit="10"/>
<path d="M-22.3202 23.0934C-65.2164 53.9096 -111.183 72.0389 -130.673 46.6468C-165.884 0.680014 -117.435 -72.8669 -74.2627 -123.265L-65.6209 -58.3413L-64.9039 -133.948C-41.1482 -160.424 -21.1986 -178.296 -21.1986 -178.296C-0.800186 -188.103 20.0973 -196.837 41.4081 -204.461L38.2088 -171.365L51.3553 -208.028C59.0778 -210.694 67.1863 -213.341 75.6442 -215.897L60.1442 -171.401L89.0849 -219.74C110.829 -225.89 132.987 -230.468 155.387 -233.438L149.173 -208.12L165.537 -234.578C185.413 -236.717 205.473 -236.483 225.294 -233.879C226.158 -214.904 215.457 -192.601 198.265 -170.427L150.202 -175.244L188.594 -158.696C177.167 -145.832 164.782 -133.852 151.545 -122.86L64.5018 -130.767L138.435 -112.251C120.689 -98.4867 101.657 -86.4674 81.6015 -76.3603L12.2284 -106.073L64.6306 -68.8586C57.4781 -53.2298 41.2978 -33.0044 21.0173 -13.2755L-12.2811 -22.4688L13.2213 -5.9208C7.70527 -0.80929 1.87669 4.21026 -4.06222 9.06435L-60.0498 -29.9706L-22.3202 23.0934Z" fill="#091A07"/>
<path d="M1282.51 -165.004L1233.69 -147.813C1237.37 -142.572 1241.05 -137.332 1245 -132.129L1262.62 -139.318L1247.91 -128.286C1261.49 -110.99 1276.42 -94.7904 1292.55 -79.8369L1332.56 -121.207L1299.61 -73.4015C1300.7 -72.427 1301.78 -71.4525 1302.88 -70.4964C1316.86 -58.3084 1331.6 -47.0265 1347.01 -36.72L1367.61 -66.5984L1351.06 -34.0355C1360.62 -27.8024 1370.25 -22.1026 1379.85 -16.9727L1397.58 -58.1589L1386.8 -13.3321C1402.58 -5.25264 1418.99 1.51209 1435.88 6.89331L1434.46 -22.7645L1442.05 8.64001C1468.07 16.0866 1492.67 18.8079 1514.24 16.4176C1513.27 -22.1026 1495.08 -67.9406 1462.76 -112.4L1421.97 -90.6482L1458.29 -118.412C1449.5 -130.017 1440.09 -141.139 1430.1 -151.729L1408.55 -134.004L1426.94 -155.039C1418.36 -163.974 1409.17 -172.702 1399.36 -181.221C1396.05 -184.108 1392.72 -186.903 1389.36 -189.661L1360.34 -153.218L1380.27 -196.942C1357.29 -215.021 1332.38 -230.498 1305.99 -243.093L1296.06 -200.619L1296.82 -247.266C1277.51 -255.824 1257.27 -262.111 1236.51 -266.002L1236.12 -241.622L1230.13 -267.05C1216.28 -269.221 1202.21 -269.611 1188.26 -268.209C1188.58 -258.085 1189.89 -248.017 1192.16 -238.146L1218.86 -233.899L1193.48 -232.667C1199.83 -207.9 1211.87 -181.497 1228.82 -155.222L1282.51 -165.004Z" fill="#091A07"/>
<path d="M559.275 271.239C565.13 269.923 568.098 260.938 565.904 251.169C563.709 241.4 557.183 234.546 551.328 235.862C545.472 237.177 542.504 246.163 544.699 255.932C546.893 265.701 553.419 272.554 559.275 271.239Z" fill="#001210"/>
<path d="M537.209 299.669C542.407 296.668 542.562 287.206 537.555 278.535C532.549 269.864 524.277 265.267 519.08 268.268C513.883 271.269 513.728 280.731 518.734 289.402C523.74 298.073 532.012 302.67 537.209 299.669Z" fill="#174520"/>
<path d="M520.051 270.725C536.791 295.399 550.351 322.087 560.41 350.156H570.964C570.964 350.156 564.381 271.222 552.43 239.541" stroke="#0E2B14" stroke-width="0.75" stroke-miterlimit="10"/>
<path d="M661.775 172.649C661.733 172.637 661.689 172.637 661.647 172.649V172.484V172.374C661.647 172.374 661.647 172.374 661.739 172.374L661.775 172.649Z" fill="#33231E"/>
<path d="M660.783 176.052H660.544C660.323 176.052 659.9 176.052 659.808 175.831C659.717 175.611 659.808 175.684 659.919 175.629C660.029 175.574 660.489 175.353 660.746 175.151C661.023 174.945 661.244 174.673 661.39 174.36C661.504 174.131 661.573 173.881 661.592 173.625C661.61 173.491 661.61 173.355 661.592 173.22C661.583 173.098 661.583 172.975 661.592 172.853C661.566 172.788 661.566 172.715 661.592 172.65C661.629 172.631 661.67 172.621 661.711 172.621C661.753 172.621 661.794 172.631 661.831 172.65C661.96 172.65 662.033 172.816 662.107 172.926C662.199 173.102 662.273 173.287 662.327 173.478C662.456 174.026 662.364 174.603 662.071 175.084C661.779 175.565 661.31 175.913 660.765 176.052H660.783Z" fill="#33231E"/>
</g>
<defs>
<clipPath id="clip0_5322_15491">
<rect width="1380" height="300" fill="white"/>
</clipPath>
</defs>
</svg>
