<svg id="Capa_3" data-name="Capa 3" xmlns="http://www.w3.org/2000/svg" xmlns:xlink="http://www.w3.org/1999/xlink" viewBox="0 0 1380 300"><defs><style>.cls-1,.cls-12,.cls-14,.cls-28,.cls-32,.cls-33,.cls-45,.cls-6,.cls-8{fill:none;}.cls-2{clip-path:url(#clip-path);}.cls-3{fill:#458780;}.cls-4{fill:#2d695e;}.cls-5{fill:#215148;}.cls-6{stroke:#2d562c;}.cls-12,.cls-14,.cls-28,.cls-32,.cls-33,.cls-45,.cls-6,.cls-8{stroke-miterlimit:10;}.cls-45,.cls-6{stroke-width:3.75px;}.cls-7{fill:#163a34;}.cls-14,.cls-8{stroke:#162a16;}.cls-8{stroke-width:1.09px;}.cls-9{fill:#041210;}.cls-10{fill:#0c2723;}.cls-11{fill:#1f4d4d;}.cls-12{stroke:#4ca7a9;stroke-width:1.88px;}.cls-13{fill:#244424;}.cls-14{stroke-width:1.41px;}.cls-15{fill:#775729;}.cls-16{fill:#a3773a;}.cls-17{fill:#f7d667;}.cls-18{fill:#f3b53f;}.cls-19{fill:#cbb288;}.cls-20{fill:#ad8c6d;}.cls-21{fill:#976856;}.cls-22{fill:#f0dcb8;}.cls-23,.cls-40{opacity:0.35;}.cls-24{fill:#31241f;}.cls-25{fill:#d56c71;}.cls-26,.cls-30,.cls-40,.cls-41{fill:#fff;}.cls-27{fill:#ead0a1;opacity:0.3;}.cls-28{stroke:#593d33;stroke-linecap:round;stroke-width:0.81px;}.cls-29{fill:#bcbcbc;}.cls-30,.cls-38{opacity:0.2;}.cls-31{opacity:0.15;}.cls-32{stroke:#3d3c3a;stroke-width:1.07px;}.cls-33{stroke:#d0d7da;stroke-width:0.85px;}.cls-34,.cls-36{fill:#959ea1;}.cls-35{fill:#aeb6b9;}.cls-36{opacity:0.7;}.cls-37{fill:#abb7bb;}.cls-38{fill:#092131;}.cls-39{fill:#333;}.cls-41{opacity:0.37;}.cls-42{font-size:25.95px;fill:#574c3a;font-family:TitanOne, Titan One;}.cls-43{letter-spacing:-0.03em;}.cls-44{fill:#0d1a09;}.cls-45{stroke:#0d1a09;}</style><clipPath id="clip-path"><rect class="cls-1" width="1380" height="300"/></clipPath></defs><g class="cls-2"><path class="cls-1" d="M1146.25-18.51V324.93h-45l.08-1.55H982l-.15,5.28c-6.06,0-11.82.09-17.31.25-13.53.38-25.4,1.16-36,2.23-8.79.89-16.69,2-23.92,3.2a92.18,92.18,0,0,0,2.32-9.92l-44.72.51,0-1.1H704.45l-7,1.66-6.62,1.58-7.3,1.75Q674.68,331,666,333.05l.09,2.87-9.82-.5h0L654,336l-.31-.69-49.29-2.52h0l-35.91-1.84h0l-8.78-.46-8.48-.43.43-6.2h-98.1v-.45H172.77l-10,5.77,5.55-5.77H107l.37,12.54-10.54-.54-5.06-.26-5.94-.3L69.61,334h0L18,331.34l-15.5-.79-5.69-.29L-7.54,330l.46-6.65H-19V278.7l-9.95.51V-16.43l-3.16-2.05,3.16.87,10,2.75v-.7H8.36q4.48-4.56,8.6-9.11l-.63,9.11H247l.86-12.54,4.67,12.54H456.35l3-5-.57,5H474l.08-.16,5.52-11.16-.74,11.32h611.32l.33-2.64.76-6.1,5.37,8.74h49.44Z"/><path class="cls-3" d="M1395.46,59.52V286.64l-.48-3.7v40.44h-57l.1,1.38h0l2.66,8.16-2.47-5.35-1.94-4.2h-71.75q2.39,6.09,4.65,11.81c-3-3.09-7-7.11-11.83-11.81H1243.1l5.5,8.62c-2.38-.94-4.79-1.81-7.23-2.64l-.69,5.29-3.75-3-.11,3.54-1.73-1.61-10.93-10.18h-28.52l0,1.55h-94.4l.08-1.55H982l-.15,5.28c-6.06,0-11.82.09-17.31.25-13.53.38-25.4,1.16-36,2.23-8.79.89-16.69,2-23.92,3.2a92.18,92.18,0,0,0,2.32-9.92l-44.72.51,0-1.1H704.45l-7,1.66-6.62,1.58-7.3,1.75Q674.68,331,666,333.05l.09,2.87-9.82-.5h0L654,336l-.31-.69-49.29-2.52h0l-35.91-1.84h0l-8.78-.46-8.48-.43.43-6.2h-98.1v-.45H172.77l-10,5.77,5.55-5.77H107l.37,12.54-10.54-.54-5.06-.26-5.94-.3L69.61,334h0L18,331.34l-15.5-.79-5.69-.29L-7.54,330l.46-6.65h-4.44V-15.56H8.36q4.48-4.56,8.6-9.11l-.63,9.11H247l.86-12.54,4.67,12.54H456.35l3-5-.57,5H474l.08-.16,5.52-11.16-.74,11.32h611.32l.33-2.64.76-6.1,5.37,8.74h49.44l.16-3v3h183.68a21.23,21.23,0,0,1,5.74-3.26c7.32-2.84,14.68-1.25,21.61,3.26H1369L1367.29-25q8.06,5,16.13,9.45h3.78L1393-27.8l.2,3.36.52,8.88H1395V27.88l.39,30.47Q1395.43,59,1395.46,59.52Z"/><polygon class="cls-4" points="148.52 290.98 130.49 291.88 124.71 292.17 123.49 292.23 116.92 292.56 110.49 292.89 106.05 293.11 105.11 293.16 98.42 293.49 84.47 294.19 84.76 288.83 85.59 273.31 87.64 235.66 87.71 234.49 88.96 211.36 90.92 175.28 91.63 162.08 92.21 151.51 94.57 107.99 95.86 83.92 96.45 73.19 96.91 64.81 98.25 39.98 98.39 37.18 100.42 0 100.72 -5.53 101.26 -15.56 146.83 -15.56 146.91 0 146.93 2.92 147.19 49.76 147.25 61.02 147.44 95.7 147.59 123.45 147.59 124.2 147.88 175.4 147.93 183.71 148.06 207.33 148.11 216.38 148.24 239.72 148.28 247.52 148.4 268.76 148.4 270.08 148.51 288.83 148.51 288.88 148.52 290.98"/><polygon class="cls-4" points="307.99 248.37 243.9 245.7 229.27 245.09 230.47 227.48 236.7 135.81 245.93 0 246.98 -15.56 247.84 -28.1 252.51 -15.56 303.47 -15.56 303.73 0 306.78 177.8 307.25 205.05 307.99 248.37"/><polygon class="cls-4" points="590.82 243.15 557.11 245.1 547.67 245.65 540.72 246.05 530.87 246.63 516.22 247.48 512.16 247.71 511.55 228.11 509.31 157.66 504.29 0 503.8 -15.56 560.48 -15.56 562.3 0 569.69 62.99 582.52 172.4 590.82 243.15"/><path class="cls-4" d="M744.17-15.56,743.57,0l-6.11,157.11-.08,2.09-.12,3h0l-.37,9.66-.11,2.85s0,0,0,0l-.2,5.12-.12,3-.24,6.21-.29,7.48,0,.36,0,.94-.15,3.86,0,1-.32,8.1-1.53,39.46-7-.68-14-1.38h-.18l-26.62-2.61-6.31-.62-3.82-.37-4-.4-8.53-.83-5.68-.56-2.24-.22,1-7.82L658.85,215l.57-4.62,2.38-19.09L676.39,74.1l1.82-14.63L685.62,0l1.62-13,.31-2.53Z"/><polygon class="cls-4" points="971.4 -15.56 970.8 0 969.27 39.22 968.75 52.64 967.5 84.86 967.4 87.47 964.9 151.76 963.98 175.38 963.6 185.16 963.45 188.99 963.4 189.9 963.15 196.47 963.13 196.83 963.11 197.77 962.92 202.6 962.65 209.36 962.6 210.7 961.97 226.97 961.07 250.16 954.61 249.53 930.23 247.14 912.01 245.35 886.67 242.87 883.82 242.59 882.65 242.48 882.78 241.45 884.65 226.38 886.62 210.7 887.17 206.27 887.62 202.6 888.23 197.77 888.34 196.83 888.38 196.47 889.21 189.9 889.32 188.99 889.8 185.16 891.01 175.38 899.36 108.33 900.27 101.02 901.96 87.47 902.28 84.86 912.85 0 914.78 -15.56 971.4 -15.56"/><polygon class="cls-4" points="1146.81 -15.56 1146.24 -1.23 1146.2 0 1145.74 11.95 1140.02 158.84 1139.92 161.26 1139.57 170.48 1138.98 185.69 1138.11 207.91 1137.87 214.3 1137.45 225 1136.99 236.86 1136.92 238.64 1136.77 242.51 1136.59 247.15 1136.47 250.16 1135.3 250.05 1110.67 247.63 1105.22 247.1 1091.12 245.72 1077.35 244.37 1058.07 242.48 1059.84 228.24 1061.51 214.83 1061.92 211.57 1064.02 194.7 1064.78 188.59 1066.15 177.51 1066.74 172.71 1066.9 171.48 1067.62 165.74 1069.3 152.27 1069.42 151.23 1069.7 149.05 1070.38 143.5 1088.24 0 1090.19 -15.56 1090.52 -18.2 1091.28 -24.3 1096.65 -15.56 1146.09 -15.56 1146.24 -18.51 1146.24 -15.56 1146.81 -15.56"/><path class="cls-5" d="M781.09,323.83H704.45l-7,1.66-6.62,1.58-7.3,1.75.15-5,0-.45.08-2.7h0l.51-17,.11-3.67.05-1.82.52-17.51.07-2.33.54-18,.18-6,.26-8.87.16-5.1.12-4h0l.28-9.64s0,0,0,0l.37-12.32.09-3,2.87-95.94.86-28.72h0L693.39,0l.43-14.33,0-1.23h63.79L758.72,0l9,130.12.09,1.2h0l4,57.66.21,3,.31,4.44,0,.36.07.94.23,3.31.1,1.52.42,6.12.14,2,.63,9.14.45,6.54.41,5.83h0l.37,5.38,1,13.86.36,5.25,2,29.72.08,1.09.27,3.91.31,4.5.28,4.07.29,4.16.15,2.27.66,9.55.24,3.42.28,4Z"/><polygon class="cls-5" points="704.96 117.47 668.96 39.43 665.03 39.43 698.3 141.06 704.96 117.47"/><path class="cls-5" d="M1082.81,323.38H982l.12-4.08.1-3.32.36-11.82.12-4.16,1-34.26,0-1.35,1.6-53.69.06-2.12.18-6,0-1.46.11-3.37v-1.3l.14-4.39h0L986,189l2.29-76.63h0l.89-29.93h0L991.65,0l.47-15.56h67.29L1060.48,0l9.91,143.5.39,5.7.11,1.52.16,2.39,1.8,26.09h0l.21,2.95.31,4.44.74,10.81,1.07,15.4.18,2.75,1.21,17.43.78,11.38.25,3.54,1.23,17.83L1081.2,300Z"/><polygon class="cls-5" points="1003.94 114.4 966.45 33.12 962.36 33.12 997.01 138.97 1003.94 114.4"/><path class="cls-5" d="M1338.28,327.58l-1.94-4.2h-71.75q2.39,6.09,4.65,11.81c-3-3.09-7-7.11-11.83-11.81H1243.1l5.5,8.62c-2.38-.94-4.79-1.81-7.23-2.64l-.69,5.29-3.75-3h0l.06-2.15h0l.18-6.08.25-8.42,0-.44.3-10,.13-4.52,1-34.26.2-6.53.1-3.36.24-8,.28-9.25.4-13.53,1.11-37.24v0l.16-5.16.27-9.21,1.83-61h0l.24-8,.65-21.9h0l1.11-37.23.84-27.9h0L1246.83,0l.47-15.56h67.29L1315.66,0l6.55,94.89,1.25,18.07h0l2.53,36.6.44,6.33,1.73,25.09,2.44,35.4,3.41,49.35,2.37,34.26,1.61,23.38.1,1.38h0Z"/><polygon class="cls-5" points="1259.12 114.4 1221.63 33.12 1217.54 33.12 1252.19 138.97 1259.12 114.4"/><polygon class="cls-5" points="518.12 -15.56 517.7 0 513.36 160.99 511.55 228.11 510.9 251.8 510.28 275.28 510.2 278.1 509.9 288.83 509.89 289.2 506.1 289.28 453.58 290.36 423.56 290.98 423.81 288.83 424.13 285.9 425.97 270.04 426.93 261.68 428.7 246.3 430.07 234.33 436.68 176.85 454.21 24.39 457.02 0 458.81 -15.56 474.01 -15.56 474.09 -15.72 479.61 -26.88 478.87 -15.56 518.12 -15.56"/><polygon class="cls-5" points="229.27 283.5 205.09 285.11 149.26 288.83 148.51 288.88 143.09 289.24 143.13 288.83 144.13 274.27 144.4 270.29 145.63 252.28 146.28 243.03 148.11 216.38 148.83 205.84 150.27 185 150.8 177.16 154.71 120.31 155.02 115.89 157.15 84.89 159.55 50 162.98 0 164.05 -15.56 223.62 -15.56 223.91 0 226.37 129.93 228.2 226.6 228.78 257.36 228.83 260.42 228.94 265.94 229.27 283.5"/><path class="cls-6" d="M1224.24-15.56A111.84,111.84,0,0,1,1202.72,0a95.71,95.71,0,0,1-12.2,5.69l-.49.2a101,101,0,0,1-41.57,6.25c-.74,0-1.48-.09-2.21-.15l-.51,0a74.58,74.58,0,0,1-22.81-5.63c-1.82-.76-3.61-1.6-5.35-2.51A74.78,74.78,0,0,1,1111,0a84.27,84.27,0,0,1-8.88-6.59,99.45,99.45,0,0,1-9.3-9q-1.2-1.29-2.34-2.64"/><polygon class="cls-7" points="429.08 270.04 359.83 270.04 360.38 259.17 363.3 201.79 363.7 193.88 363.77 192.61 364.56 176.95 364.87 170.95 365.06 167.25 365.46 159.33 366.19 144.99 366.51 138.66 367.68 115.54 371.3 44.45 371.98 31 373.56 0 374.35 -15.56 424.48 -15.56 424.73 0 425.3 35.42 426.04 81.25 427.59 177.53 428.47 232.19 428.7 246.3 428.95 262.01 429.08 270.04"/><polygon class="cls-7" points="380.31 42.85 344.8 -7.63 339.29 -7.63 376.98 53.69 380.31 42.85"/><polygon class="cls-7" points="394.45 -11.09 393.83 0 392.29 27.76 385.28 0 381.35 -15.56 393.31 -15.56 394.45 -11.09"/><polygon class="cls-7" points="474.01 -15.56 466.3 0 454.21 24.39 426.04 81.25 408.09 117.48 408.09 63.68 425.3 35.42 446.87 0 456.35 -15.56 459.38 -20.53 458.81 -15.56 474.01 -15.56"/><path class="cls-7" d="M867.31,300.45l-4.72-.24-4.06-.21-40.29-2.06-30.14-1.55-2.35-.12-6.59-.34-10.78-.55.4-8.95.09-2,.26-5.72,1.27-28.46.35-7.66.72-16.22.25-5.41.46-10.27.1-2.28.26-5.82.07-1.52.15-3.31,0-.94v-.36L773,192l.14-3,.21-4.73,1-21.7,1.46-32.44L781.62,0l.7-15.56h62.5L845.93,0l.64,9,2.86,40.16.61,8.55.19,2.69h0l.32,4.48.61,8.55v0l.2,2.77,1.5,21.13,2.21,31.13h0l1.72,24.3.14,1.95.44,6.2,1.72,24.17.28,3.83.06.91.47,6.57,0,.36.06.94.31,4.26,0,.57.38,5.37.19,2.73.39,5.46.49,6.81.08,1.22.16,2.19.44,6.14.89,12.55v.19l.93,13.06.64,9,.3,4.21,1.06,14.9.09,1.21.88,12.36Z"/><polygon class="cls-7" points="845.5 75.88 881.55 -2.28 885.49 -2.28 852.16 99.51 845.5 75.88"/><path class="cls-5" d="M932.08,314.81v9H453.58V147.5s39.15-19.09,50.32-12.79-12,16-12,16,10.12,2.18,17.38,6.95a22.62,22.62,0,0,1,4.05,3.33s0,0,0,0a13.4,13.4,0,0,1,1,1.23s14.94-21,23.72-18.57c8.62,2.38-1.94,18-2.35,18.56.56-.25,20.23-9.36,22.48-7.45s-8.44,15.46-8.44,15.46a60.67,60.67,0,0,1,12.08,5.49,24.18,24.18,0,0,1,5.84,4.76c2.83-11.64,1.57-21,6-21s5.72,14.77,5.72,14.77,1.19-.75,3.06-1.89c6.32-3.86,20.43-12.21,22.41-11.12,2.58,1.4-3,8.95-3,8.95s19.34,2.3,16.53,6.17a16.85,16.85,0,0,1-5.28,5.1s20.58,13.72,20.58,25.15l25.71,3.75.94.13,2,.3,7.06,1,15.72,2.29,1.82.26,7.79,1.14,9.56,1.39.61.09s3.52-4.74,7.91-10.19c1.11-1.39,2.29-2.83,3.48-4.24,1.4-1.68,2.82-3.33,4.19-4.83l.86-.94c.11-.12.23-.24.33-.36,3-3.22,5.66-5.55,7-5.69,2-.21,1.79,2.52.87,5.69,0,.12-.07.24-.11.36-.09.31-.19.62-.29.94-.57,1.7-1.26,3.44-1.86,4.83-.73,1.73-1.32,2.94-1.32,2.94s2.89-1.24,7.21-2.94l2.48-1c3.16-1.22,6.82-2.58,10.56-3.86l2.82-.94,1.11-.36c7.9-2.53,15.49-4.35,18.74-3.36,2.22.68,2.85,1.92,2.59,3.36a1.55,1.55,0,0,1-.08.36,4.65,4.65,0,0,1-.34.94,18.61,18.61,0,0,1-3.75,4.83,40.1,40.1,0,0,1-3.35,2.94l8.25,2.88.85.3,5.67,2a62.34,62.34,0,0,1,0-8.1,18,18,0,0,1,.9-4.83,4.85,4.85,0,0,1,.47-.94,2.54,2.54,0,0,1,.29-.36,1.53,1.53,0,0,1,1.15-.55h.16a2,2,0,0,1,1.08.54,3.05,3.05,0,0,1,.36.36,7.71,7.71,0,0,1,.74.94,22.25,22.25,0,0,1,1.78,3.53l0,.07q.24.6.48,1.23a81.86,81.86,0,0,1,2.5,8.1c.39,1.49.61,2.46.61,2.46s1.57-.15,4.13-.36c1.57-.14,3.51-.3,5.69-.47s4.82-.36,7.46-.54c4.62-.3,9.55-.57,14-.7l2.73-.05c1.7,0,3.28,0,4.7,0a13,13,0,0,1,1.85.16c3.85.63,2.29,2.93-.58,5.28l-.28.22c-.93.75-2,1.48-3,2.17l-1.53,1c-2.28,1.42-4.18,2.43-4.18,2.43l1.18.48.94.38c.73.3,1.63.67,2.63,1.1,1.44.61,3.1,1.34,4.83,2.12l1.79.82,1.17.56,1,.48.53.27.36.17.41.2c1.15.58,2.26,1.16,3.29,1.74,3.82,2.12,6.51,4.12,5.77,5.27-2.11,3.3-6.68,2.59-6.68,2.59s4.19,1.59,9,4c1.48.73,3,1.55,4.53,2.41l.13.08c5,2.93,9.53,6.45,9.53,9.7,0,7.39-10.2,6.33-10.2,6.33s4.8,3,10.64,7.4l1.83,1.39.49.38c.57.45,1.15.9,1.73,1.37,5.14,4.13,10.42,9,13.62,13.51.33.47.64.93.92,1.39l.35.59c.21-.2.42-.4.64-.59.86-.8,1.73-1.57,2.6-2.32,7.46-6.46,14.91-11.16,18.56-11.54,1-.11,1.74.12,2.09.74s0,1.76-.68,3.17a34.39,34.39,0,0,1-2.6,4.08c-1.42,2-3.09,4-4.65,5.87-2.72,3.22-5.09,5.73-5.09,5.73a141.83,141.83,0,0,1,16.08-.76c3.27.12,5.73.57,5.73,1.62,0,1.86-2.63,4.17-4.78,5.73-.69.51-1.32.93-1.81,1.25s-.92.57-.92.57l3,1.59,3.77,2Z"/><path class="cls-7" d="M84.47,112.51s39.15-19.1,50.32-12.8-12,16-12,16,16.51,3.56,22.48,11.51c0,0,14.94-21,23.72-18.56s-2.36,18.56-2.36,18.56,20.2-9.39,22.49-7.45-8.44,15.46-8.44,15.46,12.62,3.95,17.92,10.24c2.83-11.63,1.57-21,6-21s5.72,14.78,5.72,14.78,22.9-14.42,25.47-13-3,9-3,9,19.34,2.3,16.53,6.17a17,17,0,0,1-5.28,5.1s20.58,13.72,20.58,25.15L335.83,182s19.12-25.76,23.8-26.25-2.7,14.77-2.7,14.77,34.82-14.9,42.91-12.43-4.92,12.43-4.92,12.43l14.77,5.15s-1.05-14.77,2.82-14.77,7.74,17.24,7.74,17.24,26-2.47,38.69-2.11-7.74,11.25-7.74,11.25,26,10.29,23.92,13.59-6.69,2.59-6.69,2.59,23.22,8.79,23.22,16.18-10.2,6.33-10.2,6.33,22.93,14.42,29.58,26c10.52-9.85,22.12-16.88,23.88-13.72s-13,18.86-13,18.86,21.81-2.28,21.81.86-7.51,7.55-7.51,7.55L563,279.82v9H84.47Z"/><path class="cls-7" d="M1390.69,89.42s-39.15-19.1-50.32-12.8,12,16,12,16-16.51,3.56-22.48,11.51c0,0-14.94-21-23.73-18.56s2.36,18.56,2.36,18.56-20.2-9.39-22.49-7.45,8.45,15.46,8.45,15.46-12.62,3.94-17.92,10.24c-2.84-11.63-1.57-21-6-21s-5.72,14.78-5.72,14.78-22.9-14.42-25.48-13,3.06,9,3.06,9-19.35,2.3-16.53,6.17a16.9,16.9,0,0,0,5.27,5.1s-20.57,13.72-20.57,25.15l-71.23,10.37s-19.12-25.76-23.81-26.25,2.7,14.77,2.7,14.77-34.82-14.9-42.91-12.43,4.92,12.43,4.92,12.43l-14.77,5.15s1.06-14.77-2.81-14.77-7.74,17.24-7.74,17.24-26-2.47-38.69-2.12,7.74,11.26,7.74,11.26-26,10.29-23.92,13.59,6.68,2.59,6.68,2.59-23.21,8.79-23.21,16.18,10.2,6.33,10.2,6.33-22.94,14.42-29.59,26c-10.51-9.85-22.12-16.88-23.88-13.72s13,18.86,13,18.86-21.81-2.28-21.81.86,7.51,7.55,7.51,7.55L912.2,256.73v9h478.49Z"/><path class="cls-4" d="M1027.49,130.59s36.94,8.63,41.74,42.37C1039.47,171.15,1027.49,130.59,1027.49,130.59Z"/><path class="cls-4" d="M1076.41,133.16s25.19,29.83,6.2,59.15C1064.05,160.67,1076.41,133.16,1076.41,133.16Z"/><path class="cls-4" d="M1100.29,154.34s19.14,34-5,59.26C1083,179,1100.29,154.34,1100.29,154.34Z"/><path class="cls-4" d="M1118.06,178.85s15.44,35.85-11.24,58.4C1098.25,201.59,1118.06,178.85,1118.06,178.85Z"/><path class="cls-4" d="M1017.86,176.87s34.16-16,58.91,8.64C1041,198,1017.86,176.87,1017.86,176.87Z"/><path class="cls-4" d="M1034.19,197.44s35.23-13.48,58.12,12.91C1055.76,220.18,1034.19,197.44,1034.19,197.44Z"/><path class="cls-4" d="M1044.59,218.14s35.23-13.48,58.12,12.91C1066.16,240.89,1044.59,218.14,1044.59,218.14Z"/><path class="cls-8" d="M1045.85,149.1s38.63,31.19,66.76,103.4"/><path class="cls-4" d="M408.17,82.12S372.89,96,373,130.11C402.22,124,408.17,82.12,408.17,82.12Z"/><path class="cls-4" d="M360.15,91.78S339.56,125,362.62,151.2C376.37,117.2,360.15,91.78,360.15,91.78Z"/><path class="cls-4" d="M339.6,116.2s-14,36.45,13.58,57.91C360.31,138.13,339.6,116.2,339.6,116.2Z"/><path class="cls-4" d="M325.59,143s-10.07,37.72,19.61,56.14C348.49,162.66,325.59,143,325.59,143Z"/><path class="cls-4" d="M424.43,126.51s-36.12-10.87-57,17.11C404.58,150.77,424.43,126.51,424.43,126.51Z"/><path class="cls-4" d="M411.27,149.23s-36.82-8.21-55.63,21.23C393.23,174.87,411.27,149.23,411.27,149.23Z"/><path class="cls-4" d="M404,171.23s-36.82-8.22-55.63,21.22C386,196.87,404,171.23,404,171.23Z"/><path class="cls-8" d="M392.7,103.11s-33.68,36.47-51,112"/><path class="cls-4" d="M712.78,191.54s-35.29,13.91-35.13,48C706.83,233.41,712.78,191.54,712.78,191.54Z"/><path class="cls-4" d="M664.76,201.19s-20.59,33.17,2.47,59.42C681,226.61,664.76,201.19,664.76,201.19Z"/><path class="cls-4" d="M644.21,225.62s-14,36.45,13.58,57.9C664.92,247.54,644.21,225.62,644.21,225.62Z"/><path class="cls-4" d="M630.2,252.45s-10.07,37.72,19.61,56.15C653.1,272.07,630.2,252.45,630.2,252.45Z"/><path class="cls-4" d="M729,235.92S692.92,225.05,672,253C709.18,260.18,729,235.92,729,235.92Z"/><path class="cls-4" d="M715.88,258.64s-36.82-8.21-55.63,21.23C697.84,284.29,715.88,258.64,715.88,258.64Z"/><path class="cls-4" d="M708.6,280.64s-36.82-8.21-55.63,21.22C690.56,306.28,708.6,280.64,708.6,280.64Z"/><path class="cls-8" d="M697.31,212.52s-33.68,36.47-51,112"/><path class="cls-4" d="M813.66,134.25s35.29,13.91,35.13,48C819.62,176.12,813.66,134.25,813.66,134.25Z"/><path class="cls-4" d="M861.69,143.9s20.58,33.18-2.47,59.42C845.46,169.33,861.69,143.9,861.69,143.9Z"/><path class="cls-4" d="M882.23,168.33s14,36.45-13.58,57.9C861.52,190.26,882.23,168.33,882.23,168.33Z"/><path class="cls-4" d="M896.25,195.16s10.07,37.72-19.61,56.15C873.34,214.78,896.25,195.16,896.25,195.16Z"/><path class="cls-4" d="M810.57,201.36s36.82-8.21,55.63,21.22C828.6,227,810.57,201.36,810.57,201.36Z"/><path class="cls-4" d="M817.85,223.35s36.82-8.21,55.63,21.23C835.88,249,817.85,223.35,817.85,223.35Z"/><path class="cls-8" d="M829.13,155.23s33.69,36.48,51,112"/><path class="cls-9" d="M908.08,316q-.33,3.74-.94,7.4c0,.15,0,.3-.08.45s-.06.4-.1.59l-44.72.51,0-1.1H725.74c0-.15-.07-.3-.1-.45-.31-1.45-.59-2.89-.83-4.34-.17-1-.33-2-.47-3.06-.26-2-.47-3.92-.6-5.88-.22-3-.3-5.94-.25-8.89l3.38.44L746,304.16l20.1,2.64-8.39-2.64L744.46,300l-17.59-5.54-2.93-.92a95.64,95.64,0,0,1,2.93-15.85,93.72,93.72,0,0,1,6.89-17.86l31.7,22.22,3.41,2.39,2.84,2,7.14,5,6.9,4.84,5.32,3.73,3.64,2.55L792,300l-3.87-3.61-9.52-8.87-1.17-1.09-8.28-7.71-3.67-3.42-26.39-24.58A89.92,89.92,0,0,1,754.3,233.1L765.46,245l4.94,5.26,6.05,6.45,7.87,8.39-8.23-13.64-5.34-8.85h0l-5.29-8.75-4-6.55A87.58,87.58,0,0,1,771.72,221h0c.72-.39,1.45-.76,2.18-1.12,2-1,4-1.88,6-2.72l.74-.29,4.41,9.55.2.43,6.67,14.46,17.08,37-12.4-38-4.51-13.83-.18-.56-1.66-5.09-2.12-6.51c1.78-.53,3.57-1,5.36-1.42s3.74-.81,5.62-1.13c2.39-.39,4.79-.69,7.18-.89l1-.08a89,89,0,0,1,12.65,0,.49.49,0,0,1,.17,0c1.08.07,2.15.17,3.22.28v0l.28,2.16.42,3.3,0,.11.23,1.75.19,1.51.34,2.59.09.76.14,1,.27,2.12.41,3.12.27,2.12.29,2.23,6.54,50.47.87-47.4.09-5v-.35l.05-2.7v-.63l0-1.86v0l0-1.42,0-1.58v-.89l0-2,0-1.84,0-1.86v-.25l.07-3.7c2.37.55,4.73,1.2,7.05,1.94.38.11.77.24,1.15.37q2.29.75,4.54,1.63c.85.33,1.7.67,2.54,1l.89.4c1.17.5,2.33,1,3.47,1.59l.65.31-.39,2.91-.46,3.39-.1.78-2.23,16.51-.16,1.21-.18,1.31.62-2.46,3.93-15.62.43-1.73.84-3.3.4-1.61c1,.51,1.9,1,2.83,1.58.64.37,1.28.75,1.91,1.14s1.2.73,1.79,1.12,1.1.7,1.64,1.07c1.28.86,2.54,1.74,3.77,2.67s2.33,1.76,3.46,2.69l-1.2,3.88-1.3,4.21-1.6,5.17-4.13,13.32-1.17,3.78-1.94,6.29-5.12,16.52L863,271.17l.51-1,1.43-2.83h0l10-19.91,1.33-2.63,3.33-6.61c1.07,1.07,2.12,2.16,3.13,3.28q.54.57,1,1.14h0q.76.85,1.5,1.74a98.34,98.34,0,0,1,15.79,26.13c.29.7.56,1.41.83,2.11.5,1.3,1,2.6,1.41,3.91q.55,1.66,1,3.33c.65,2.2,1.23,4.41,1.71,6.62.38,1.65.7,3.31,1,5,.42,2.45.73,4.9.95,7.35.05.42.08.83.11,1.25.06.72.11,1.44.14,2.16s.08,1.33.09,2A93.09,93.09,0,0,1,908.08,316Z"/><path class="cls-9" d="M1266.3,196.27l17-55.06a99.46,99.46,0,0,0-15.95-10.63l-6.44,25.6,3.64-27a96.12,96.12,0,0,0-21-7.52l-1.35,74-9.84-75.91a92.35,92.35,0,0,0-36.46,3.33l21.62,66.31-29.36-63.6-.78.3a92.14,92.14,0,0,0-19,10.54L1192,175.75l-31.08-33.13a93.47,93.47,0,0,0-15.77,18.25l57.61,53.66-63.1-44.23a98.37,98.37,0,0,0-10.17,34.9l43.61,13.73L1129,213.15a100.66,100.66,0,0,0,2.37,23.62l29.21.46-27.52,6.1a101.76,101.76,0,0,0,3.53,10.1c20.62,50.41,76.81,75.14,125.49,55.22s71.44-76.93,50.82-127.34a101.18,101.18,0,0,0-22.2-33.44Z"/><path class="cls-10" d="M1195.66,324.93h-94.4l.08-1.55,1.19-23.38,1.74-34.26,1-18.64.18-3.65.37-7.32h0l.16-3.07.71-13.92.5-9.87.5-9.93v0l1.43-28,.81-16,.56-11.05,6.45-126.91.69-13.56.2-3.81,0-.94.75-14.62h27.52l.16-3v3h43.93L1190.43,0l.08,5.09v.6l1,61.1v.78l.49,30.66v0l.6,37.08.25,15.82.57,35.4h0l.32,19.58,0,2.1.13,8.21.23,14.22.27,16.46.3,18.61v.89h0l.48,29.76,0,1.1,0,2.5.16,10,.16,10.18,0,1.36,0,1.82Z"/><polygon class="cls-10" points="1129.19 15.22 1124.65 29.99 1116.88 17.37 1106.2 0 1102.15 -6.59 1096.65 -15.56 1107.54 -15.56 1117.82 -0.94 1118.48 0 1122.92 6.32 1129.19 15.22"/><polygon class="cls-10" points="1232.7 -15.56 1229.17 -8.44 1225.48 -0.97 1224.99 0 1191.74 67.13 1191.52 67.57 1187.92 74.82 1167.05 116.96 1167.05 43.62 1190.03 5.89 1190.51 5.09 1193.61 0 1203.09 -15.56 1232.7 -15.56"/><path class="cls-10" d="M980.66,323.59l-73.7.83-44.72.51,0-1.1v-.45l.11-7.4.17-11.82.05-4V300l.16-11.6,0-2,.22-15.26,0-1.39.11-7.68.24-16.84v-.19l.17-11.7.1-7,0-1.07,0-2.48.06-3.73,0-3.85.07-4.55.11-8.1.07-4.83,0-.94v-.36l.1-6.57V189l0-3.83.22-14.88s0,0,0,0l0-2,.09-5.72v-1.19h0l.17-11.44.11-7.62.81-56.86L866.08,57l.2-14.22.18-12.36L866.9,0l.22-15.56h82.43L951,0l7.79,84.86.24,2.61,5.9,64.29,2.16,23.62.9,9.78.35,3.83.09.91.57,6.22,0,.35,0,.36.09.94.44,4.83.74,8.1.89,9.63h0l4.16,45.4,0,.21L978.5,300l.38,4.16L980,316l.33,3.57.35,3.83Z"/><polygon class="cls-10" points="902.34 104.56 899.36 108.33 884.4 127.26 869.48 93.96 866.55 87.45 865.67 85.46 860.53 73.98 855.55 62.88 854.83 61.26 853.55 58.41 849.42 49.2 827.38 0 820.4 -15.56 832.21 -15.56 841.28 0 846.57 9.04 863.19 37.52 866.28 42.8 869.13 47.69 890.84 84.86 892.36 87.47 900.27 101.02 902.34 104.56"/><polygon class="cls-10" points="666.12 335.92 656.3 335.42 656.28 335.42 653.73 335.28 604.44 332.76 604.42 332.76 568.52 330.92 568.51 330.92 559.73 330.46 551.25 330.03 551.67 323.83 551.71 323.38 553.32 300 554 290.24 554 290.23 554.09 288.83 554.53 282.5 554.77 279.02 555.01 275.59 556.36 256 557.11 245.1 561.9 175.72 569.69 62.99 574.03 0 575.11 -15.56 655.62 -15.56 655.69 -13.05 656.08 0 657.26 39.48 658.26 72.89 661.8 191.31 662.24 206.04 662.38 210.83 663.35 243.26 663.74 256.12 663.74 256.13 664.12 269 664.28 274.42 664.46 280.25 664.73 289.23 665.05 300 665.05 300.52 665.11 302.27 665.53 316.49 665.75 323.38 665.76 323.83 666.03 333.05 666.12 335.92"/><polygon class="cls-10" points="687.22 -15.56 686.35 -12.89 682.13 0 669.11 39.74 667.13 45.81 658.26 72.89 648.53 102.62 640.78 75.19 657.26 39.48 675.47 0 681.12 -12.24 682.65 -15.56 687.22 -15.56"/><path class="cls-10" d="M107.33,335.92l-10.54-.54-5.06-.26-5.94-.3L69.61,334h0L18,331.34l-15.5-.79-5.69-.29L-7.54,330l.46-6.65,1.68-24.31v0l.06-.86,0-.48v0l1.37-19.77L0,220.86,15.25,0l1.08-15.56h80.5L97.29,0l0,.38h0L98.4,37.18l.07,2.32.91,30.37.09,3,.51,17,.47,15.67,1.45,48.5.09,3.16h0l.16,5.36h0l.07,2.26.16,5.29,1.11,37.11h0l1.94,65,.49,16.54.08,2.46,0,1.82.21,6.89.06,2.16.15,5.07.09,2.85.36,12.22h0l0,1.07Z"/><polygon class="cls-10" points="128.44 -15.56 123.34 0 121.36 6.08 108.2 46.27 101.17 67.75 99.47 72.92 98.33 76.42 95.86 83.92 89.75 102.62 84.72 84.8 82.01 75.19 94.79 47.49 98.25 39.98 98.47 39.5 116.69 0 123.86 -15.56 128.44 -15.56"/><polygon class="cls-10" points="344.38 -15.56 344.38 318.59 235.82 318.59 235.91 317.71 237.88 300 238.38 295.4 239.12 288.83 239.55 284.97 241.73 265.28 243.9 245.7 245.7 229.41 254 154.5 268.19 26.47 271.12 0 272.84 -15.56 344.38 -15.56"/><polygon class="cls-10" points="293.57 4.14 277.72 52.03 268.19 26.47 258.32 0 252.51 -15.56 283.59 -15.56 291.47 0 293.57 4.14"/><path class="cls-10" d="M1003.41,240.57l17.27-21.86a62.26,62.26,0,0,0-18.39-15.19l-8.89,18.27L997,201a61.67,61.67,0,0,0-29.2-4.76l1.42,36.63-9.91-35.35a61.71,61.71,0,0,0-28.05,14.4l18.49,27.44-21.48-24.55A62.25,62.25,0,0,0,916,232.9l8.78,8.5-9.88-5.87a62,62,0,1,0,108.41-13.32Z"/><path class="cls-11" d="M70.26,148.62c71.05,2.11,135.77,78.09,168.84,80.9s84.42-50,141.4-32.36,73.16,87.23,73.16,87.23l-371.44,19Z"/><line class="cls-12" x1="362.91" y1="192.24" x2="366.76" y2="288.84"/><line class="cls-12" x1="393.56" y1="200.9" x2="374.19" y2="288.46"/><line class="cls-12" x1="380.69" y1="288.12" x2="425.08" y2="227.94"/><line class="cls-12" x1="359.63" y1="289.2" x2="324.45" y2="197.73"/><line class="cls-12" x1="101.08" y1="153.87" x2="98.22" y2="303.39"/><line class="cls-12" x1="108.32" y1="302.05" x2="139.43" y2="170.55"/><line class="cls-12" x1="118.04" y1="302.05" x2="177.57" y2="194.7"/><path class="cls-9" d="M107,323.38l.37,12.54-10.54-.54-5.06-.26-5.94-.3L69.61,334h0L18,331.34l-15.5-.79-5.69-.29L-7.54,330l.46-6.65H-19V278.7l-9.95.51V-17.61l10,2.75v-.7H8.36q4.48-4.56,8.6-9.11l-.63,9.11H87.08L89,0l1.54,12.55h0l4.27,34.93,2.12,17.32.84,6.93.58,4.68L100,89.94l1.85,15.14h0l4.55,37.14h0l.85,7,.85,7,4.31,35.23h0l7.53,61.6h0l1,7.75,1.31,10.67,1.24,10.18.88,7.22.2,1.59.21,1.75.76,6.19.2,1.64.14,1.16,1,7.72,1.77,14.5Z"/><path class="cls-9" d="M137.38-1.6c33.09,3.39,4.82,85.62-17,84.83S106-4.81,137.38-1.6Z"/><path class="cls-13" d="M202.69,106.91c23.05,9.88-15.78,62.7-31.31,57.23S180.84,97.55,202.69,106.91Z"/><path class="cls-14" d="M202.69,106.91s-6.49,11.28-17,30.23c-4.28,7.75-9.23,16.79-14.68,26.86-3.28,6.09-6.76,12.56-10.37,19.36-1,1.93-2.07,3.9-3.12,5.89q-4.26,8-8.73,16.59h0l-.77,1.47h0c-8.71,16.7-17.91,34.71-27.19,53.43-1.78,3.59-3.56,7.22-5.35,10.86a1.19,1.19,0,0,1-.08.16q-4.14,8.46-8.26,17.05c-.4.82-.79,1.64-1.18,2.46-.3.63-.6,1.25-.89,1.87h0c-1.08,2.28-2.16,4.55-3.24,6.84-.39.81-.77,1.63-1.16,2.44l-2,4.17Q94.82,315,91,323.38q-2.61,5.73-5.18,11.44"/><path class="cls-14" d="M69.6,334h0q.83-5.19,1.75-10.61c1-6.05,2.1-12.31,3.23-18.72.27-1.55.55-3.1.83-4.66,1.45-8.18,3-16.6,4.59-25.2.08-.4.15-.8.22-1.21q2.05-11,4.24-22.37,1.44-7.5,2.92-15.1c.1-.55.21-1.09.32-1.63v0c3.21-16.46,6.55-33.15,9.91-49.65,1.06-5.22,2.12-10.43,3.18-15.59.3-1.49.61-3,.92-4.45.14-.71.28-1.42.43-2.12h0c.55-2.66,1.09-5.3,1.64-7.93,0-.12,0-.24.07-.35q1.26-6.11,2.52-12.12h0c3-14.42,6-28.38,8.75-41.56q1.94-9.09,3.77-17.64C128.22,39.57,135.38,7.38,137,0c.24-1,.36-1.6.36-1.6"/><path class="cls-15" d="M734.75,159l.25,1.65-3.25.48a.62.62,0,0,1-.7-.52h0l-.06-.42a.61.61,0,0,1,.52-.7Z"/><path class="cls-16" d="M734.75,159l.13.82-3.86.58,0-.21a.61.61,0,0,1,.52-.7Z"/><path class="cls-17" d="M735.91,157.36a16.27,16.27,0,0,1,4.77-.29,16.76,16.76,0,0,1,15.37,18.07,17,17,0,0,1-1.06,4.67,6,6,0,0,1-1.28,1.73,2.32,2.32,0,0,1-1.33.6h-.18l-.16,0a2,2,0,0,1-.92-1.29,27.32,27.32,0,0,1-.75-4.38h0c0-.22-.06-.43-.1-.64v0c0-.23-.09-.46-.14-.69l0-.21,0-.18a1.16,1.16,0,0,0,0-.18c0-.09,0-.16-.06-.24s-.09-.31-.13-.47l-.09-.27c-.07-.24-.15-.47-.24-.71a1.43,1.43,0,0,0-.08-.22l-.09-.22c-.08-.22-.18-.43-.27-.65,0,0,0,0,0,0l0-.06c-.14-.31-.29-.62-.45-.92s-.32-.57-.48-.84l-.07-.11,0,0c-.11-.18-.23-.36-.35-.54l0-.06-.05-.06a16.21,16.21,0,0,0-1.13-1.46,3,3,0,0,0-.24-.26,2.73,2.73,0,0,0-.23-.25l0,0a.86.86,0,0,0-.13-.14l-.39-.4-.2-.19-.33-.29-.12-.11c-.15-.14-.3-.26-.46-.39a17,17,0,0,0-2.17-1.49l0,0q-.43-.26-.9-.48l-.42-.2-.35-.16-.07,0c-.25-.11-.5-.21-.77-.3a16.65,16.65,0,0,0-4.46-1l-.5,0h0l-.13,0-.08,0,0,0h-.05a2.06,2.06,0,0,1-1-.77,2.1,2.1,0,0,1-.35-1.32h0a1.75,1.75,0,0,1,.76-1.32A6,6,0,0,1,735.91,157.36Z"/><path class="cls-18" d="M732.93,159.63h0a17.35,17.35,0,0,1,4.54-.42l.63,0a16.77,16.77,0,0,1,14.56,22c-.06.19-.12.37-.19.55s-.09.23-.13.34h-.17l-.16,0a2,2,0,0,1-.92-1.29,27.22,27.22,0,0,1-.75-4.37h0c0-.21-.06-.43-.1-.64v0c0-.24-.08-.47-.13-.7l0-.06,0-.15,0-.18,0-.18-.06-.24-.14-.47c0-.08,0-.17-.08-.26l-.15-.45-.09-.26-.08-.22-.09-.23-.27-.64s0,0,0,0l0-.06c0-.05,0-.11-.08-.16-.12-.26-.24-.51-.38-.76l-.41-.73-.07-.11-.06-.11,0,0c-.07-.11-.14-.22-.22-.33l-.13-.21,0,0,0-.07-.2-.28-.16-.21-.07-.09-.22-.29-.22-.27-.26-.31-.23-.26-.24-.25,0,0a.86.86,0,0,0-.13-.14l-.39-.4-.2-.19-.33-.29-.12-.11-.13-.11-.33-.28c-.09-.06-.18-.14-.27-.21l-.33-.25-.17-.12-.13-.1-.32-.21-.32-.21a2.26,2.26,0,0,0-.26-.16l-.38-.23,0,0-.36-.2-.23-.13-.3-.15-.27-.13-.16-.07-.35-.16-.06,0L740,163l-.24-.1-.24-.09-.35-.12-.19-.07-.46-.14-.31-.09-.46-.12-.32-.08-.47-.1-.31-.06-.53-.08-.21,0h-.08l-.78-.09-.5,0h0a.41.41,0,0,1-.13,0l-.08,0h0l-.05,0a2,2,0,0,1-1-.76A2.22,2.22,0,0,1,732.93,159.63Z"/><path class="cls-15" d="M751.12,180.79a2.7,2.7,0,0,0,2.59.75,2.32,2.32,0,0,1-1.33.6h-.18l-.16,0A2,2,0,0,1,751.12,180.79Z"/><path class="cls-16" d="M751.12,180.79a3,3,0,0,0,1.46.78c0,.08-.06.15-.08.22s-.09.23-.13.35h-.17l-.16,0A2,2,0,0,1,751.12,180.79Z"/><path class="cls-19" d="M848.28,192h-85V130.12h74.82a10.17,10.17,0,0,1,10.17,10.17Z"/><path class="cls-20" d="M754.26,192V139.15a9,9,0,0,1,9-9h0a9,9,0,0,1,9,9V192Z"/><path class="cls-21" d="M853.39,222.57c-.26.26-2.25.46-5.43.6-1.7.08-3.76.13-6.08.17h-2.45c-.28,0-.55,0-.83,0h-1.88c-.49,0-1,0-1.46,0-5.71,0-12.23-.13-18.67-.39-1.91-.08-3.83-.18-5.71-.27-3.32-.18-6.55-.39-9.58-.65-10.39-.88-18.32-2.22-18.85-4.19,0,0-.54-11-.75-25.77V192c0-.52,0-1,0-1.57,0-2.19-.05-4.46-.05-6.78q0-3,0-6c.06-17.05.78-35.7,3.1-47.56,1-5,2.2-8.71,3.79-10.69,0,0,0,0,0,0a6.32,6.32,0,0,1,.54-.59,26.65,26.65,0,0,1,4.38-3.13A45.37,45.37,0,0,1,801,112a43.35,43.35,0,0,1,4.67-1.52c.92-.25,1.86-.47,2.84-.65s2.06-.37,3.11-.49c.49-.06,1-.11,1.48-.14a35.78,35.78,0,0,1,5.95,0s0,0,0,0a53.46,53.46,0,0,1,5.73.79,50.84,50.84,0,0,1,6.83,1.85,59.07,59.07,0,0,1,6.57,2.68,62.31,62.31,0,0,1,10.49,6.39l.18.13c.06.06.13.11.19.18,1.66,1.93,2.84,12,3.65,25.16,0,.68.1,1.37.13,2.09.15,2.28.26,4.65.38,7.07.19,4.28.35,8.73.48,13.22C854.48,194.71,854.24,221.73,853.39,222.57Z"/><path class="cls-22" d="M843.77,202.24s2.57-51.06,1.17-60.72-9.53-16.57-24.48-15.94-19.25,10.66-20.08,17.36-4.72,66.85.84,78.95,16.39,10.75,16.39,10.75l21.63-8.36Z"/><path class="cls-23" d="M803.59,181.43l-12.31-3.63a192.34,192.34,0,0,0,5.29-30.49,76.19,76.19,0,0,0,.22-12.2l-3.37-5.34-7.69,71.6,33.6-.82L799.42,188.4Z"/><path class="cls-21" d="M875.58,166.58a29.15,29.15,0,0,1-7.12,2.76,7.88,7.88,0,0,1-.82.19c-.91.2-2.16-.42-3.59-1.55-3.32-2.61-7.62-8-10.83-12.46-.62-.86-1.19-1.69-1.69-2.45-1.07-1.61-1.92-2.94-2.37-3.78,0-.08-.1-.19-.15-.29v0a18.11,18.11,0,0,1-1-4s0,0,0-.05c-.08-.57-.16-1.17-.23-1.8a2.19,2.19,0,0,1,0-.28,108.27,108.27,0,0,1-.6-10.83c-.08-6.23.37-11.57,1.49-11.08l.18.13c.06.06.13.11.19.18,6.46,6.37,27.76,38.76,29.15,41.55C878.86,164.05,877.58,165.41,875.58,166.58Z"/><path class="cls-21" d="M886,195.7l-8.27,4L875.16,201s-9.46-21.27-11.11-33a12.42,12.42,0,0,1,.18-5.92,2.51,2.51,0,0,1,.84-1.2c4.32-3.31,8.1,1.28,10.51,5.72a42.87,42.87,0,0,1,2.76,6.31Z"/><path class="cls-21" d="M832.32,117.52a42.9,42.9,0,0,1-5.43.24,66.31,66.31,0,0,1-16.15-2.22q-2.64-.69-5.39-1.69l0-.13.29-3.24.52-5.6.35-3.76v0l.38-4,.42-4.45.06-.65.23-2.57,0-.38.44-4.64L813.8,89l7.38,5.84.63.5,2.44,1.93.84.67,4.79,3.78.58.47.34,2.85.83,6.81Z"/><path class="cls-23" d="M877.77,199.7,875.16,201s-9.46-21.27-11.11-33c-3.32-2.61-7.62-8-10.83-12.46.19,4.28.35,8.73.48,13.22-.68-2.9-1.44-6.05-2.17-9.12-.93-3.89-1.82-7.65-2.52-10.62v0c-.38-1.62-.71-3-1-4,0,0,0,0,0-.05-.29-1.15-.46-1.88-.49-2a1.57,1.57,0,0,1,.26.24c.57.6,1.95,2,3.7,3.94l1.31,1.43c4,4.33,9.12,10.14,11.39,13.61.91,1.39,1.78,2.79,2.59,4.16.56.95,1.11,2,1.64,3.12C872.86,178.62,876.39,193.47,877.77,199.7Z"/><path class="cls-23" d="M828.15,106.56c-7.43,4.27-19.65,2.51-19.65,2.51s0,3.81-2.24,3.58c-3.36-.35-8.19,3.11-12.78,3A45.37,45.37,0,0,1,801,112a43.35,43.35,0,0,1,4.67-1.52l1.67-17.8.29-3.22C813.06,91.73,834.71,102.8,828.15,106.56Z"/><path class="cls-21" d="M791.26,60.27a25.49,25.49,0,0,0-.93,6.75c0,.16,0,.32,0,.47a34.7,34.7,0,0,1-.93,8.19,8.63,8.63,0,0,1-3.83-2.94c-3.28-4.16-2.19-10.84,1.87-12.42a5.12,5.12,0,0,1,3.81-.07Z"/><path class="cls-22" d="M791.26,60.27a25.49,25.49,0,0,0-.93,6.75c0,.16,0,.32,0,.47a34.7,34.7,0,0,1-.93,8.19,8.63,8.63,0,0,1-3.83-2.94c-3.28-4.16-2.19-10.84,1.87-12.42a5.12,5.12,0,0,1,3.81-.07Z"/><path class="cls-21" d="M851.81,72.74A8.71,8.71,0,0,1,848,75.68a35.29,35.29,0,0,1-.92-8.19V67a25.7,25.7,0,0,0-.93-6.77,5.14,5.14,0,0,1,3.82.07C854,61.9,855.1,68.58,851.81,72.74Z"/><path class="cls-22" d="M851.81,72.74A8.71,8.71,0,0,1,848,75.68a35.29,35.29,0,0,1-.92-8.19V67a25.7,25.7,0,0,0-.93-6.77,5.14,5.14,0,0,1,3.82.07C854,61.9,855.1,68.58,851.81,72.74Z"/><path class="cls-21" d="M839.18,75.77a7.32,7.32,0,0,0-.8,6.29,16.46,16.46,0,0,1,1,4.73c0,9.78-9.27,17.71-20.7,17.71S798,96.57,798,86.79a16.46,16.46,0,0,1,1-4.73,7.33,7.33,0,0,0-.81-6.29,11.93,11.93,0,0,1-.76-1.41,11.21,11.21,0,0,1-1-4.7c0-6.49,5.53-11.76,12.35-11.76a12.75,12.75,0,0,1,6.29,1.64,7.36,7.36,0,0,0,7.27,0,12.75,12.75,0,0,1,6.29-1.64c6.82,0,12.35,5.27,12.35,11.76a11.17,11.17,0,0,1-1,4.7A10.69,10.69,0,0,1,839.18,75.77Z"/><path class="cls-22" d="M839.18,75.77a7.32,7.32,0,0,0-.8,6.29,16.46,16.46,0,0,1,1,4.73c0,9.78-9.27,17.71-20.7,17.71S798,96.57,798,86.79a16.46,16.46,0,0,1,1-4.73,7.33,7.33,0,0,0-.81-6.29,11.93,11.93,0,0,1-.76-1.41,11.21,11.21,0,0,1-1-4.7c0-6.49,5.53-11.76,12.35-11.76a12.75,12.75,0,0,1,6.29,1.64,7.36,7.36,0,0,0,7.27,0,12.75,12.75,0,0,1,6.29-1.64c6.82,0,12.35,5.27,12.35,11.76a11.17,11.17,0,0,1-1,4.7A10.69,10.69,0,0,1,839.18,75.77Z"/><path class="cls-24" d="M808.15,89A1.19,1.19,0,0,0,807,90.32c.74,5.24,5.71,9.29,11.73,9.29s11-4,11.72-9.29A1.18,1.18,0,0,0,829.24,89Z"/><path class="cls-25" d="M811.89,97.66a12.87,12.87,0,0,0,13.62,0c-.86-3-3.59-2.28-6.81-2.28S812.74,94.7,811.89,97.66Z"/><path class="cls-21" d="M856.13,65.72a5.05,5.05,0,0,0-.07-.68c0-.1,0-.21,0-.31s-.06-.37-.1-.54a9.36,9.36,0,0,0-.36-1.31.14.14,0,0,0,0-.06s0,0,0-.07,0-.14-.08-.22a5.85,5.85,0,0,0-.3-.68,6.54,6.54,0,0,0-.3-.59q-.17-.28-.36-.57a6.41,6.41,0,0,0-.39-.52c-.12-.15-.25-.29-.38-.43a2.12,2.12,0,0,0-.3-.3l-.18-.16a.08.08,0,0,0,0,0,2.48,2.48,0,0,0-.3-.25l-.29-.2-.25-.17a6.51,6.51,0,0,0-1-.49,8,8,0,0,0-1.31-.38,6.1,6.1,0,0,0-3,.1l-.06,0-.48.16h-.06l0,0-.22.09-.29.14-.32.17c-.34-1-.72-1.94-1.15-2.88-.33-.7-.67-1.38-1-2.05a33.49,33.49,0,0,0-9.55-10.91,28.33,28.33,0,0,0-7.74-4L826,34.7l-4.69,2.8-.55-.06-1-.07-.7-2.95-.19-.86h-.1l-.58,0c-4.37.36-6.54,4.32-6.86,5C804,41,797.73,46.68,794,53.54c-.37.67-.71,1.35-1,2.05a30.84,30.84,0,0,0-1.15,2.88h0l-.48-.25-.33-.14-.35-.13-.22-.07-.41-.11-.41-.07a3.93,3.93,0,0,0-.48-.06l-.47,0a7.25,7.25,0,0,0-2.6.51c-5.15,2-6.53,10.48-2.36,15.77a10.6,10.6,0,0,0,5.22,3.86c0,.1,0,.2-.07.29a20.15,20.15,0,0,0-.47,4.33c0,.36,0,.71,0,1.06a19.92,19.92,0,0,0,.24,2.21c0,.25.08.5.13.75a19.75,19.75,0,0,0,.61,2.32c.09.28.19.57.3.85a17.6,17.6,0,0,0,.71,1.68,1.63,1.63,0,0,0,.11.23,2.26,2.26,0,0,0,.11.22c.15.31.32.62.49.92s.41.73.64,1.08.46.7.7,1a25.15,25.15,0,0,0,4.39,4.74c.21.19.43.37.65.54.45.37.93.72,1.41,1l.5.35.28.19.46.29c.45.29.9.56,1.37.82.3.17.59.33.89.48l.88.44c.32.16.65.31,1,.45s.49.22.75.32l.76.31.42.16h0l.3.11a34.66,34.66,0,0,0,7.75,1.82,35.12,35.12,0,0,0,4.14.26h.32c.41,0,.82,0,1.2,0a33.76,33.76,0,0,0,3.93-.34,35.5,35.5,0,0,0,5.37-1.15c.55-.17,1.09-.35,1.6-.54a32.8,32.8,0,0,0,3.64-1.53c.39-.19.77-.39,1.14-.59l.31-.17.9-.52c.39-.24.78-.48,1.15-.73s.49-.33.72-.5l.64-.47L840,100a22.87,22.87,0,0,0,1.88-1.65c.2-.19.4-.38.59-.58s.46-.47.67-.71l.44-.49.52-.63.5-.63c.37-.49.72-1,1-1.5.17-.27.34-.54.5-.82s.31-.53.45-.8.25-.47.36-.71a.91.91,0,0,0,.07-.14c.12-.26.24-.51.35-.77a.14.14,0,0,0,0-.06c.1-.23.2-.46.29-.7s.19-.51.28-.78.17-.49.24-.75.15-.49.21-.75.13-.5.19-.76h0a.5.5,0,0,0,0-.12c.07-.31.13-.63.18-1,0-.15.05-.3.07-.45a2.34,2.34,0,0,0,0-.26c.06-.5.11-1,.13-1.51,0-.35,0-.71,0-1.07a20.16,20.16,0,0,0-.48-4.33,1.67,1.67,0,0,0-.06-.29,8.94,8.94,0,0,0,2.86-1.49c.19-.15.39-.31.59-.49l.48-.44.12-.12c.15-.15.31-.31.46-.48s.47-.54.71-.84l.3-.4c.2-.28.38-.56.55-.84a11.37,11.37,0,0,0,.88-1.91l.12-.34c.08-.25.16-.51.22-.77s.11-.43.15-.64c0,0,0,0,0-.07q.07-.39.12-.78a5.51,5.51,0,0,0,.06-.57h0l0-.41A11.5,11.5,0,0,0,856.13,65.72Zm-64.87-5.44a25.88,25.88,0,0,0-.92,6.74v.47a32.29,32.29,0,0,1-.24,4.29c0,.33-.08.65-.13,1-.07.49-.16,1-.25,1.46s-.2,1-.31,1.46l-.33-.13-.1,0-.1,0a4.11,4.11,0,0,1-.42-.21c-.16-.08-.32-.18-.48-.28s-.32-.22-.48-.34a3.57,3.57,0,0,1-.38-.3,7.13,7.13,0,0,1-.58-.53c-.16-.15-.32-.32-.48-.5s-.32-.37-.48-.57a3.65,3.65,0,0,1-.32-.45l0,0a2.11,2.11,0,0,1-.18-.27c-.08-.13-.16-.26-.23-.39a2.31,2.31,0,0,1-.18-.35l0,0c-.08-.16-.15-.32-.22-.48a6.46,6.46,0,0,1-.26-.69.19.19,0,0,1,0-.07s0,0,0,0a5.46,5.46,0,0,1-.19-.66c-.06-.24-.1-.49-.14-.73a0,0,0,0,1,0,0h0s0-.06,0-.09a2.71,2.71,0,0,1,0-.4.28.28,0,0,1,0-.09l0-.3c0-.18,0-.37,0-.55s0-.39,0-.58a2.43,2.43,0,0,1,0-.38.34.34,0,0,1,0-.1,1.5,1.5,0,0,1,0-.2,5.85,5.85,0,0,1,.17-.93,3.45,3.45,0,0,1,.12-.46l.06-.18a4.85,4.85,0,0,1,.29-.75,1.11,1.11,0,0,1,.07-.16,1.69,1.69,0,0,1,.13-.27,3.3,3.3,0,0,1,.18-.32,3.73,3.73,0,0,1,.25-.39l.15-.21a1.13,1.13,0,0,1,.1-.13l0-.06,0,0s0,0,0,0,.16-.18.24-.27a3,3,0,0,1,.25-.25,5.16,5.16,0,0,1,1.62-1,5.85,5.85,0,0,1,1-.29.51.51,0,0,1,.17,0l.44-.06a3.85,3.85,0,0,1,1,0,2.21,2.21,0,0,1,.46.07,2.58,2.58,0,0,1,.42.1l.39.13v0Zm48.14,26.5v0q0,.45,0,.9c0,.27,0,.55-.07.82a.22.22,0,0,1,0,.08c0,.29-.07.57-.12.85s-.1.51-.16.76-.09.37-.14.55,0,.22-.09.33,0,.17-.07.26,0,0,0,.06-.05.16-.08.24a.69.69,0,0,1-.05.13c0,.13-.09.26-.14.4s-.16.42-.25.63l-.06.13,0,.07c-.09.23-.2.44-.31.67l-.37.71c-.12.2-.23.4-.36.6s-.24.4-.38.59-.27.4-.42.6l-.23.31q-.28.38-.6.75a19.71,19.71,0,0,1-1.63,1.67,10.78,10.78,0,0,1-.9.77c-.23.19-.46.37-.7.54s-.49.35-.74.52l-.76.49-.8.45a15.73,15.73,0,0,1-1.54.76h0a22.35,22.35,0,0,1-3.84,1.34c-.45.11-.9.21-1.36.3a25.67,25.67,0,0,1-4.42.4l-.79,0h-.17l-.27,0c-.29,0-.59,0-.87-.06a1.36,1.36,0,0,1-.29,0l-.45,0-.24,0h-.06l-.37,0-.57-.1-.8-.15-.63-.14c-.25-.06-.5-.11-.74-.18l-.45-.12-.11,0h0l-.05,0-.72-.25c-.45-.16-.91-.32-1.35-.5,0,0,0,0-.06,0-.45-.2-.91-.39-1.35-.62a17.33,17.33,0,0,1-1.78-1,7.49,7.49,0,0,1-.73-.45c-.41-.28-.78-.57-1.15-.86a8.1,8.1,0,0,1-.85-.7l-.42-.39a17.7,17.7,0,0,1-1.85-2c-.24-.31-.47-.61-.68-.94s-.5-.76-.73-1.15l-.21-.38c-.14-.26-.28-.52-.41-.79h0c0-.09-.08-.17-.12-.27s-.08-.18-.11-.27a13.82,13.82,0,0,1-.69-2l0-.07a.25.25,0,0,1,0-.08c-.07-.24-.12-.48-.17-.72a1.46,1.46,0,0,1,0-.2c0-.12-.05-.23-.07-.36l-.09-.67c0-.19-.06-.38-.08-.58a.06.06,0,0,1,0,0v0a1.48,1.48,0,0,1,0-.21c0-.18,0-.38,0-.57s0-.39,0-.58a10.83,10.83,0,0,1,.3-2.26l.15-.62c.08-.31.18-.62.27-.93s.2-.62.3-.91.12-.37.16-.56h0c0-.15.07-.31.1-.47l0-.21c0-.13,0-.26,0-.39s0-.07,0-.11,0-.35,0-.52,0-.49,0-.74a.28.28,0,0,0,0-.09c0-.11,0-.22-.05-.33s0-.21,0-.31h0c0-.15-.07-.3-.11-.45l-.12-.39c0-.15-.1-.3-.16-.44l-.13-.33-.24-.47c-.08-.15-.17-.31-.27-.46s-.28-.46-.41-.7-.16-.3-.23-.45l-.12-.27-.24-.54c-.1-.24-.18-.48-.26-.73s-.09-.26-.12-.4a5.47,5.47,0,0,1-.15-.58,10.77,10.77,0,0,1-.27-2.43c0-.21,0-.42,0-.62a2.69,2.69,0,0,1,0-.4.76.76,0,0,1,0-.15.2.2,0,0,1,0-.11,4.34,4.34,0,0,1,.07-.52,3.71,3.71,0,0,1,.11-.58,4,4,0,0,1,.14-.57,4.91,4.91,0,0,1,.15-.51.19.19,0,0,1,0-.1s0,0,0-.06a8.85,8.85,0,0,1,.38-1,3.54,3.54,0,0,1,.25-.52c.07-.16.16-.32.25-.48s.2-.35.31-.52a8.39,8.39,0,0,1,.67-.93l.26-.33.49-.54.41-.41a8.8,8.8,0,0,1,.73-.64l.18-.14a4.59,4.59,0,0,1,.44-.33l.26-.18h0c.22-.16.46-.3.7-.44s.48-.27.73-.39l.1,0c.25-.12.51-.24.77-.34l.56-.21.43-.14.44-.13c.29-.08.59-.15.89-.21l.61-.1a14.47,14.47,0,0,1,1.88-.13c.29,0,.58,0,.86,0l.55.05.69.09a7,7,0,0,1,.91.18l.49.13c.32.09.64.2.94.31l.59.23a11.32,11.32,0,0,1,1.26.62l.1.05.09,0,.1,0,.09.05.4.18h0l.06,0,.24.1.06,0c.12,0,.24.09.37.12l.38.1.33.06h.13a7.69,7.69,0,0,0,1.26.13h.53l.47,0a3.55,3.55,0,0,0,.47-.08,6,6,0,0,0,.81-.21l.06,0,.42-.16.44-.19a3.61,3.61,0,0,0,.44-.22l.27-.15.3-.16.3-.14.07,0c.28-.12.56-.24.86-.35l.58-.2a9,9,0,0,1,.89-.25,1.22,1.22,0,0,1,.26-.06l.27-.06.54-.09.47-.06.62-.06h.05l.81,0c.31,0,.61,0,.92,0l.7.07h.19l.17,0,.58.1q.57.12,1.11.27l.57.19.56.21c.26.1.52.22.77.34l.1,0c.25.12.49.25.73.39s.28.16.41.25.28.17.41.27l.42.3.35.28h0l.29.25.43.39.11.1a1.89,1.89,0,0,1,.2.2l.1.11a2.68,2.68,0,0,1,.28.3l.26.31h0c.12.14.24.29.35.44s.23.31.33.46.21.32.31.48l.29.49.26.51c.16.34.31.69.44,1l.18.54c.08.27.15.53.22.8a11.6,11.6,0,0,1,.25,1.67c0,.28,0,.57,0,.86s0,.4,0,.6,0,.39-.05.58,0,.28,0,.42,0,.07,0,.1a0,0,0,0,1,0,0l-.09.5s0,.07,0,.11a11,11,0,0,1-.34,1.25,8.7,8.7,0,0,1-.44,1.1h0a14.72,14.72,0,0,1-.76,1.4c-.08.12-.16.25-.23.38s-.14.26-.2.4a4,4,0,0,0-.21.47,2.67,2.67,0,0,0-.14.36c0,.11-.07.21-.1.31s-.07.25-.1.37,0,0,0,0-.06.27-.08.4l0,.14c0,.13,0,.26,0,.39a7,7,0,0,0,.05,1.89,7.3,7.3,0,0,0,.28,1.14c.07.2.13.4.2.6.13.41.25.83.36,1.24,0,.21.11.41.15.62a3.15,3.15,0,0,1,.09.42,4.8,4.8,0,0,1,.09.5,4.61,4.61,0,0,1,.07.5,1.33,1.33,0,0,1,0,.28,3.52,3.52,0,0,1,0,.45ZM852,72.54l-.15.19a8,8,0,0,1-.65.75c-.09.11-.19.21-.29.31a1.74,1.74,0,0,1-.25.23,8.68,8.68,0,0,1-1,.8l-.33.22a4.77,4.77,0,0,1-.43.25l-.35.18-.53.21h0a34.46,34.46,0,0,1-.66-3.74h0a.89.89,0,0,1,0-.15c-.09-.66-.14-1.31-.18-2s-.07-1.54-.06-2.32c0-.16,0-.3,0-.47,0-.57,0-1.13-.06-1.7s-.1-1.14-.18-1.7-.13-.85-.21-1.27-.17-.85-.27-1.27-.14-.56-.22-.84h0a4.8,4.8,0,0,1,2.74-.23,5.3,5.3,0,0,1,1.07.31h0l.27.12h0a2.31,2.31,0,0,1,.35.18,1,1,0,0,1,.23.13c.12.07.24.16.35.24l.05,0a3.65,3.65,0,0,1,.36.31,6,6,0,0,1,.43.44h0a5.32,5.32,0,0,1,.36.47,4.6,4.6,0,0,1,.4.64l.23.45a6.86,6.86,0,0,1,.32.86c0,.12.08.25.11.37a5,5,0,0,1,.12.53c.06.31.11.63.14.95a1.49,1.49,0,0,1,0,.21,9.82,9.82,0,0,1-.1,2.29h0s0,.07,0,.1c0,.21-.08.43-.13.64s-.06.2-.09.31a8,8,0,0,1-.27.83c0,.09-.08.17-.11.26s-.12.26-.17.39a3.18,3.18,0,0,1-.16.32,8,8,0,0,1-.55.92A2.43,2.43,0,0,1,852,72.54Z"/><rect class="cls-24" x="814.6" y="78.83" width="1.99" height="4.52" rx="0.99" transform="translate(402.94 789.25) rotate(-65.45)"/><rect class="cls-24" x="819.54" y="80.1" width="4.52" height="1.99" rx="0.99" transform="translate(40.61 348.8) rotate(-24.55)"/><path class="cls-24" d="M808.06,74.36h0A3.46,3.46,0,0,1,804.51,71V69.88a3.46,3.46,0,0,1,3.55-3.36h0a3.46,3.46,0,0,1,3.55,3.36V71A3.46,3.46,0,0,1,808.06,74.36Z"/><path class="cls-24" d="M808.06,66.52v3.92a1.78,1.78,0,0,0,3.55,0v-.56A3.46,3.46,0,0,0,808.06,66.52Z"/><ellipse class="cls-26" cx="808.06" cy="68.76" rx="1.18" ry="1.12"/><path class="cls-24" d="M829.33,74.36h0A3.45,3.45,0,0,1,825.79,71V69.88a3.46,3.46,0,0,1,3.54-3.36h0a3.46,3.46,0,0,1,3.55,3.36V71A3.46,3.46,0,0,1,829.33,74.36Z"/><path class="cls-24" d="M829.33,66.52v3.92a1.78,1.78,0,0,0,3.55,0v-.56A3.46,3.46,0,0,0,829.33,66.52Z"/><ellipse class="cls-26" cx="829.33" cy="68.76" rx="1.18" ry="1.12"/><path class="cls-23" d="M819.9,107c-.39,0-.79,0-1.2,0h-.32a35,35,0,0,1-4.14-.26,34.53,34.53,0,0,1-7.75-1.82c-10.68-3.82-18.12-12.5-18.12-22.61a20.15,20.15,0,0,1,.47-4.33,1.67,1.67,0,0,1,.06-.29,10.64,10.64,0,0,1-5.22-3.86c-4.17-5.29-2.79-13.77,2.37-15.76a6.42,6.42,0,0,1,5.58.24l.18.1A25.56,25.56,0,0,1,793,55.59q.46-1.05,1-2c3.75-6.87,10.06-12.56,17.29-15,.33-.68,2.5-4.64,6.86-5,.2,0,.39,0,.59,0l-1.29,26.83s-3.6-1.24-5.54-.92c-2.53.39-3.77,1.49-4.93,6.87,0,.13-.05.25-.08.38-.46,2.15-.91,4.39-1.3,6.69-1.28,7.76-1.69,16.06,1.3,23.62a16,16,0,0,0,4.2,6.21A14.87,14.87,0,0,0,819.9,107Z"/><path class="cls-27" d="M886,195.7l-8.27,4L875.16,201s-9.46-21.27-11.11-33c-3.32-2.61-7.62-8-10.83-12.46.19,4.28.35,8.73.48,13.22.78,26,.54,53-.31,53.83-.26.26-2.25.46-5.43.6a2.64,2.64,0,0,1-.78,1.72c-.39.21-7.93,2.29-11.79,3.34a2.67,2.67,0,0,0-.11.34c4.41-.92,8.5-1.76,8.64-1.55s-1.07,2.19-1.65,2.46c-.38.18-5.6,1.64-9.52,2.74a30.27,30.27,0,0,1-15.23,1.58l-1.42.5c-.24-.54-.51-1.09-.79-1.69-1.3-2.75-2.84-6.16-4.43-9.92a172.16,172.16,0,0,1-7.65-21.75,75.19,75.19,0,0,1-1.77-8.42c0-.16-.05-.33-.07-.49-.08-.52-.13-1-.19-1.54s-.07-.71-.08-1.05a27.66,27.66,0,0,1-.1-3.72,18.16,18.16,0,0,1,.76-4.82c.12-.34.25-.68.39-1a7.75,7.75,0,0,1,4.71-4.59c14.58-5.14,19.43-30,20.37-45.2.09-1.53.16-2.94.18-4.23,0-2,0-3.73-.12-5a26.27,26.27,0,0,0-.42-3.1A71.27,71.27,0,0,0,824.8,110c-.18-.58-.36-1.16-.54-1.78s-.29-1-.43-1.49c-.25-.83-.49-1.71-.72-2.61-.4-1.51-.79-3.12-1.15-4.89a11.07,11.07,0,0,0,8.47-8.88A1.2,1.2,0,0,0,829.24,89h-8.79c-.19-2-.34-4.22-.44-6.59,0-.48,0-1,0-1.47,0-1.66-.08-3.39-.06-5.22a48.8,48.8,0,0,1,2.71-16.29,39.78,39.78,0,0,1,11.26-16.77,33.66,33.66,0,0,1,9.55,10.92q.54,1,1,2a30,30,0,0,1,1.15,2.89,6.38,6.38,0,0,1,5.76-.34c5.14,2,6.54,10.47,2.37,15.76a10.73,10.73,0,0,1-5.22,3.86c0,.1,0,.2.06.29a20.15,20.15,0,0,1,.47,4.33c0,10.14-7.49,18.85-18.23,22.63l.83,6.81a59.07,59.07,0,0,1,6.57,2.68,62.31,62.31,0,0,1,10.49,6.39l.18.13c.06.06.13.11.19.18,6.46,6.37,27.76,38.76,29.15,41.55.65,1.3-.63,2.66-2.63,3.83a42.87,42.87,0,0,1,2.76,6.31Z"/><path class="cls-21" d="M793.88,155c-1.46,8-2.88,16.48-4.64,23.07a36.4,36.4,0,0,1-3.27,8.92,7.38,7.38,0,0,1-1.62,2c-3.3,2.61-6.65,2.52-9-.48-1.45-1.85-2.5-4.82-2.89-8.94-.67-6.94,5.87-44.44,13.92-57.32,1.7-2.74,3.47-4.37,5.25-4.37C800.81,117.82,797.31,136.28,793.88,155Z"/><path class="cls-21" d="M819.85,181.94l-2.4,8.11-.08.26-.21.72s-40.06,5.4-41.77-2.52c0,0,0,0,0-.06-1.29-6.09,0-9,3.32-10.21,2.45-.87,6-.77,10.54-.22C797,178.93,807.52,181.13,819.85,181.94Z"/><path class="cls-21" d="M821.9,217.65c7.19-3.25,9.56-9.36,11.67-11.09.53-.44,3.75-.29,2.14,2.87l-5.52,10.72Z"/><path class="cls-21" d="M838.18,216.17s-.23,1.37-.62,3.32c0,.18-.06.36-.11.55-.19,1-.44,2.16-.73,3.33a5.11,5.11,0,0,1-.13.53,4.64,4.64,0,0,1-.11.51c-.08.34-.18.69-.26,1-.26,1-.54,1.93-.83,2.79a2.67,2.67,0,0,0-.11.34c-.62,1.76-1.29,3.07-1.95,3.39a6.29,6.29,0,0,1-.58.26,30.27,30.27,0,0,1-15.23,1.58l-.1-1.15-.83-9.69-.13-1.62a48.79,48.79,0,0,1,5.45-3.7l.29-.16c.41-.18.81-.37,1.19-.58a3.86,3.86,0,0,1,2.59-.51c1,.38,3.52.38,6,.26,1.49-.08,3-.19,4.1-.29S838.18,216.17,838.18,216.17Z"/><path class="cls-21" d="M842.27,229.48c-.38.18-5.6,1.64-9.52,2.74-2.42.69-4.37,1.22-4.37,1.22l.81-3.58c1.85-.38,4-.85,6.09-1.29,4.41-.92,8.5-1.76,8.64-1.55S842.85,229.21,842.27,229.48Z"/><path class="cls-21" d="M834.54,220.62c6.1-1.19,15.23-3.14,15.64-2.84s-.1,2.19-.64,2.47-14,4-14,4Z"/><path class="cls-21" d="M831.76,217.23c6.1-1.18,15.24-3.14,15.64-2.84s-.1,2.19-.64,2.47-14,4-14,4Z"/><path class="cls-21" d="M848,223.17a2.64,2.64,0,0,1-.78,1.72c-.39.21-7.93,2.29-11.79,3.34l-2.25.62-.54-2-.42-1.57,4.3-.86,2.85-.57,2.55-.5c3.23-.64,5.74-1.08,6-.91S848,222.83,848,223.17Z"/><path class="cls-21" d="M817.52,233.8l-1.42.5c-6.91,2.43-36.93,12.55-39.9,6-6.44-14.08,5.73-12.67,26.31-16.06,2.66-.44,5.45-.95,8.37-1.6,1.82-.39,3.68-.85,5.58-1.35l.13,1.62.83,9.69Z"/><path class="cls-21" d="M840.73,189l-1.5.1c-1.91.09-5.45.29-9.14.5l-12.72.71-.67,0a2,2,0,0,1,0-.22,10.38,10.38,0,0,1,3.16-8.18c.47-.42,5.47-2.12,9.17-3.7,10.94-4.67,13.93,3.09,14.43,6.91C843.92,188.67,841,189,840.73,189Z"/><path class="cls-28" d="M832.18,180.78s3.71,1.21,3.51,8.5"/><path class="cls-28" d="M836.14,179.83s3.71,1.21,3.51,8.5"/><path class="cls-28" d="M828.94,182.07s1.34,1,1.15,7.52"/><path class="cls-28" d="M824.77,183.57a10.72,10.72,0,0,1,.53,6"/><path class="cls-23" d="M839.23,189.1c-1.91.09-5.45.29-9.14.5l-12.72.71-.21.72s-40.06,5.4-41.77-2.52c0,0,0,0,0-.06-1.45-1.85-2.5-4.82-2.89-8.94-.67-6.94,5.87-44.44,13.92-57.32-4.35,14.42-10.84,39.88-7.85,55.41,0,.22.09.43.14.64,1,4,3.6,6.78,7.27,8.7,7.7,4.05,20,4.17,30.72,3.18l.76-.07c2.79-.27,5.48-.61,7.93-1,1.69-.24,3.28-.5,4.72-.74,2.22-.41,4.12-.78,5.55-1.07,1.9-.41,3-.67,3-.67Z"/><path class="cls-29" d="M748.8,177.29v0a4.34,4.34,0,0,0-.08-.52.59.59,0,0,0-.05-.23,2.47,2.47,0,0,0-.11-.47,4.35,4.35,0,0,0-.2-.61l-.06-.17c0-.08-.07-.17-.11-.25a6.72,6.72,0,0,0-.4-.75c-.09-.16-.19-.3-.29-.45s-.22-.3-.34-.44a5,5,0,0,0-.37-.42q-.15-.16-.3-.3a3.68,3.68,0,0,0-.37-.32,3,3,0,0,0-.35-.27.13.13,0,0,0-.06-.05l-.29-.2a3.45,3.45,0,0,0-.41-.25,7.64,7.64,0,0,0-1.12-.53,8.2,8.2,0,0,0-1-.3,6.93,6.93,0,0,0-.91-.16,2.7,2.7,0,0,0-.41,0,8,8,0,0,0-1.3,0,7.1,7.1,0,0,0-3.42,1.26,6.69,6.69,0,0,0-2.51,3.17,6.86,6.86,0,0,0,.3,5.48,7.45,7.45,0,0,0,1.78,2.31,7.81,7.81,0,0,0,2.44,1.46,8,8,0,0,0,1,.3,7.13,7.13,0,0,0,1.76.22c.2,0,.41,0,.61,0a7.45,7.45,0,0,0,3.49-1.15l.48-.34a7.46,7.46,0,0,0,.79-.7c.13-.14.25-.28.37-.43l.34-.47a3,3,0,0,0,.24-.38c.08-.14.16-.28.23-.43a4.56,4.56,0,0,0,.24-.55,6.69,6.69,0,0,0,.43-2.36Q748.83,177.61,748.8,177.29Zm-2,1.1a3.72,3.72,0,0,1-.08.57s0,0,0,.06,0,.17-.07.26-.06.2-.1.3a4.8,4.8,0,0,1-.83,1.4l0,0a4.17,4.17,0,0,1-.36.37,3.57,3.57,0,0,1-.37.31l-.16.12c-.12.08-.24.16-.37.23a3.21,3.21,0,0,1-.45.24,4.49,4.49,0,0,1-.61.23h-.05l-.3.08a1,1,0,0,1-.25.06,1.17,1.17,0,0,1-.26,0,.92.92,0,0,1-.29,0l-.54,0h-.06l-.62,0-.68-.12-.29-.08-.42-.14a5.72,5.72,0,0,1-3-2.59,2.25,2.25,0,0,1-.12-.21,4.84,4.84,0,0,1-.22-3.9,4.66,4.66,0,0,1,.54-1h0a5.09,5.09,0,0,1,3.12-2,3.07,3.07,0,0,1,.42-.07,1.24,1.24,0,0,1,.27,0,5,5,0,0,1,1,0l.21,0,.31.05.34.07a6.59,6.59,0,0,1,.72.22,4.91,4.91,0,0,1,.57.25l.07,0a5.64,5.64,0,0,1,.53.31,2.8,2.8,0,0,1,.35.25,2.69,2.69,0,0,1,.32.27,2.06,2.06,0,0,1,.3.29,5.08,5.08,0,0,1,.38.43l0,0a2.62,2.62,0,0,1,.24.34,5.18,5.18,0,0,1,.56,1.1,2.78,2.78,0,0,1,.12.38c0,.14.07.28.1.42s0,.23,0,.34a4,4,0,0,1,0,1.06Z"/><path class="cls-30" d="M740,182.51l.3.1h0a5.25,5.25,0,0,0,6.23-3,5.32,5.32,0,0,0-3.36-6.7,5.48,5.48,0,0,0-.72-.22,5.58,5.58,0,0,0-2.57,0c.12-.71.26-1.41.41-2.08a7.84,7.84,0,0,1,2.63.17,8,8,0,0,1,1,.3,7.3,7.3,0,0,1,4.52,9.25,7.18,7.18,0,0,1-7.71,4.41A16.21,16.21,0,0,1,740,182.51Z"/><rect class="cls-26" x="741.6" y="165.57" width="18.64" height="24.11"/><rect class="cls-31" x="741.6" y="165.57" width="4.11" height="24.11"/><polygon class="cls-31" points="751.92 177.82 754.51 180.48 754.29 184.01 749.44 184.01 749 180.48 751.92 177.82"/><line class="cls-32" x1="751.75" y1="165" x2="751.75" y2="178.54"/><path class="cls-33" d="M958.48,170.91s5.1,8.25-5.66,8.16-5.67,16.15-24.94,8.46"/><rect class="cls-34" x="901.35" y="169.57" width="42.5" height="15.58"/><rect class="cls-35" x="866.22" y="84.86" width="112.76" height="90.52" rx="4.25"/><rect class="cls-36" x="869.47" y="87.47" width="109.51" height="87.91" rx="4.13"/><rect class="cls-37" x="894.65" y="182.32" width="55.53" height="2.83"/><rect class="cls-35" x="874.89" y="185.16" width="96.24" height="4.75"/><rect class="cls-35" x="791.76" y="185.16" width="77.99" height="4.75"/><rect class="cls-24" x="712.84" y="196.83" width="294.38" height="119.15"/><rect class="cls-38" x="726.87" y="210.7" width="266.32" height="93.46"/><rect class="cls-38" x="712.84" y="196.47" width="294.38" height="6.13"/><rect class="cls-24" x="700.46" y="188.99" width="318.91" height="8.78"/><path class="cls-39" d="M847.07,57.85l-.06,0-.48.16h-.06l-.22.07-.33.18-.32.17h0l-3,4.74a6.31,6.31,0,0,0-5-2.51H827.38a6.32,6.32,0,0,0-5.44,3.11,3.23,3.23,0,0,0-.59-.22,2.6,2.6,0,0,0-.4-.1,6,6,0,0,0-1.25-.1,13,13,0,0,0-5,.58,6.31,6.31,0,0,0-5.47-3.27H799a6.31,6.31,0,0,0-5.25,2.82l-1.93-5.06-.48-.25-.15-.08-.18-.06-.35-.13-.22-.08h0l2.79,7a3.93,3.93,0,0,0-.55,2.13v5.69A6.33,6.33,0,0,0,799,79.05h10.15a6.34,6.34,0,0,0,6.33-6.32V67a6.05,6.05,0,0,0-.21-1.6,11.77,11.77,0,0,1,4.42-.46,5.08,5.08,0,0,1,1,.07,2.74,2.74,0,0,1,.66.22,6.41,6.41,0,0,0-.25,1.77v5.69a6.33,6.33,0,0,0,6.32,6.32h10.15l.52,0a6.33,6.33,0,0,0,5.8-6.3V67a6.39,6.39,0,0,0-.48-2.44ZM813.88,72.73a4.75,4.75,0,0,1-4.75,4.74H799a4.74,4.74,0,0,1-4.74-4.74V67A4.74,4.74,0,0,1,799,62.3h10.15a4.67,4.67,0,0,1,2.29.59l.37.22.36.27a2.56,2.56,0,0,1,.3.28l.11.11a3.88,3.88,0,0,1,.61.79,2.71,2.71,0,0,1,.21.37,4.18,4.18,0,0,1,.36,1,2.07,2.07,0,0,1,.08.42,4,4,0,0,1,.06.7Zm28.39,0a4.72,4.72,0,0,1-3.86,4.65,4.31,4.31,0,0,1-.88.09H827.38a4.74,4.74,0,0,1-4.74-4.74V67a4.74,4.74,0,0,1,4.74-4.74h10.15l.39,0,.38,0h0l.12,0a2.34,2.34,0,0,1,.38.09l.51.18a3.14,3.14,0,0,1,.61.3l.08,0,.16.1.36.27a1.29,1.29,0,0,1,.21.19,1.07,1.07,0,0,1,.19.18,4.12,4.12,0,0,1,.28.31,4.51,4.51,0,0,1,.46.68,3.88,3.88,0,0,1,.22.46s0,0,0,0a4.5,4.5,0,0,1,.16.48,2.25,2.25,0,0,1,.09.35.47.47,0,0,1,0,.17.28.28,0,0,1,0,.09,4,4,0,0,1,.06.7Z"/><path class="cls-40" d="M809.13,62.3H799A4.74,4.74,0,0,0,794.24,67v5.69A4.74,4.74,0,0,0,799,77.47h.78a5.36,5.36,0,0,1,0-.7V71.08a4.75,4.75,0,0,1,4.75-4.74h9.36A4.74,4.74,0,0,0,809.13,62.3Z"/><path class="cls-41" d="M837.53,62.3H827.38A4.75,4.75,0,0,0,822.63,67v5.69a4.75,4.75,0,0,0,4.75,4.74h.78a5.36,5.36,0,0,1,0-.7V71.08a4.74,4.74,0,0,1,4.74-4.74h9.37A4.74,4.74,0,0,0,837.53,62.3Z"/><rect class="cls-24" x="765.46" y="226.38" width="189.15" height="60.05"/><text class="cls-42" transform="translate(782.14 265.23)"><tspan class="cls-43">A</tspan><tspan x="18.24" y="0">ccounting</tspan></text><path class="cls-35" d="M921.07,132.42s.17-2.32-2.81-4.88c-4.24-3.65-4.73-4.45-1.21-3.88a11.62,11.62,0,0,1,6.09,3.52Z"/><path class="cls-35" d="M926.61,133.77a8.11,8.11,0,0,0-1.75-1.39,21,21,0,0,0-1.94-1,7.07,7.07,0,0,0-1.73-.73l-.09.12-.09.12a2.83,2.83,0,0,1-.2.28l0,0-.09.12-.1.12-.22.26a9.72,9.72,0,0,1-.68.76l-.12.12c-.07.07-.13.14-.2.2l-.14.13-.15.14,0,0-.22.2-.05,0-.09.08-.09.07-.23.2-.34.26-.27.2,0,0-.23.16h0l-.37.25c-.27.17-.53.33-.81.48a12.94,12.94,0,0,1-1.54.76l-.69.27h0l-.36.12-.31.1-.43.13h0a.36.36,0,0,0-.1.05l-.07,0,0,0,0,0a1.9,1.9,0,0,0-.74.87s0,0,0,0a1.73,1.73,0,0,0-.1.75,2,2,0,0,0,.07.43h0a1.48,1.48,0,0,0,.12.29,1.68,1.68,0,0,0,.8.71,5.46,5.46,0,0,0,2.13.39A15,15,0,0,0,926.81,134C926.75,133.92,926.68,133.85,926.61,133.77Z"/><path class="cls-35" d="M922.92,131.37a7.07,7.07,0,0,0-1.73-.73l-.09.12-.09.12a1.25,1.25,0,0,1-.09.12l-.11.16,0,0-.09.12-.1.12a1.27,1.27,0,0,0-.1.12,1.49,1.49,0,0,1-.12.14l-.2.24,0,0-.1.11-.22.24a1.59,1.59,0,0,1-.13.13,1.36,1.36,0,0,1-.12.12l-.19.2-.14.13-.15.14,0,0-.22.2-.05,0-.09.08-.09.07-.23.2-.21.16-.13.1-.27.2,0,0-.23.16h0l-.18.12-.2.13-.28.17-.15.09-.37.22-.25.14-.38.2-.27.13-.39.18-.26.11-.45.18-.17.06-.07,0h0l-.35.12-.32.11-.42.12h0l-.11.05-.06,0,0,0,0,0a1.9,1.9,0,0,0-.74.87s0,0,0,0a1.73,1.73,0,0,0-.1.75,2,2,0,0,0,.07.43h0a15,15,0,0,0,4-.52l.54-.15a15,15,0,0,0,7.72-5.57l.19-.27C924,131.87,923.44,131.62,922.92,131.37Z"/><path class="cls-35" d="M927.2,133.45l-2.92-1-3.5-1.23,0,0,.11-.16.09-.12a1.25,1.25,0,0,0,.09-.12l.23-.31c0-.07.09-.14.14-.21s.18-.28.26-.43l.09-.14,0,0,.15-.26c.06-.09.1-.19.16-.28l.16-.32.14-.28.14-.29,0-.1a1.54,1.54,0,0,0,.08-.19v0l.12-.29,0-.06s0,0,0-.06.05-.14.08-.2l.06-.17.06-.17,0,0,0-.11a.42.42,0,0,0,0-.1c.07-.24.15-.48.22-.73l.09-.36c0-.18.09-.35.13-.53V125a.08.08,0,0,1,0,0c0-.2.07-.41.11-.62l0-.21,0-.21c0-.07,0-.16,0-.25a.77.77,0,0,1,0-.15c0-.09,0-.18,0-.27a2.11,2.11,0,0,0,0-.25c0-.14,0-.29,0-.43s0-.15,0-.22v-.53c0-.21,0-.42,0-.63v0c0-.19,0-.39,0-.58h0a24.14,24.14,0,0,1-.2-4,1.76,1.76,0,0,1,.55-1.3l.13-.07h0l.14,0h0a2,2,0,0,1,1.28.26,5.18,5.18,0,0,1,1.46,1.26,15,15,0,0,1,0,16.75Z"/><path class="cls-35" d="M924.28,132.42A15,15,0,0,0,925,115.9c-.08-.15-.18-.29-.27-.44l-.18-.27-.15,0h0a.33.33,0,0,0-.13.07,1.78,1.78,0,0,0-.55,1.3,25.31,25.31,0,0,0,.2,4h0c0,.19,0,.39,0,.58v0c0,.22,0,.42,0,.64v.74l0,.44a1.94,1.94,0,0,1,0,.24,2.28,2.28,0,0,0,0,.27c0,.06,0,.1,0,.16l0,.25,0,.21,0,.21c0,.2-.07.41-.11.61,0,0,0,0,0,.05v0c0,.18-.08.36-.13.53l-.09.37c-.07.24-.14.48-.22.72a.49.49,0,0,1,0,.11l0,.1,0,0-.06.16-.06.17-.08.2,0,.06,0,.06-.12.3h0l-.09.2,0,.09c-.05.1-.1.2-.14.3l-.14.27-.16.33c-.06.09-.11.18-.16.27a3,3,0,0,1-.15.26l0,0-.09.14c-.08.15-.17.29-.26.43s-.1.14-.14.21l-.23.32a1.25,1.25,0,0,0-.09.12l-.09.12-.11.15,0,0Z"/><path class="cls-35" d="M920.78,131.19a16.18,16.18,0,0,1,4.39,2.43c2,2,2.73,2.57,1.58,8.5,0,.22-.07.43-.1.65-.11,1-.22,3.49,3.66-2.29,4.67-6.95-1.95-8.91-1.95-8.91A17.43,17.43,0,0,0,920.78,131.19Z"/><path class="cls-7" d="M1395.46,212.64v74l-.48-3.7v40.44h-57l.1,1.38h0l2.66,8.16-2.47-5.35-1.94-4.2h-71.75q2.39,6.09,4.65,11.81c-3-3.09-7-7.11-11.83-11.81H1243.1l5.5,8.62c-2.38-.94-4.79-1.81-7.23-2.64l-.69,5.29-3.75-3-.11,3.54-1.73-1.61-10.93-10.18h-28.52l0,1.55h-94.4l.08-1.55H982l-.15,5.28c-6.06,0-11.82.09-17.31.25-13.53.38-25.4,1.16-36,2.23-8.79.89-16.69,2-23.92,3.2a92.18,92.18,0,0,0,2.32-9.92l-44.72.51,0-1.1H704.45l1.9-.45q9.12-2.16,18.46-4.34L738,316l9-2.08q16.15-3.72,32.84-7.47L790,304.16,808.79,300l9.43-2.06h0q21.94-4.79,44.52-9.54l3.64-.76,5.78-1.21,6.69-1.39,4.51-.93q8.64-1.78,17.37-3.55l3.65-.75,9.56-1.92q20.17-4,40.65-8,10.35-2,20.76-4l1.15-.21c2.41-.45,4.82-.91,7.24-1.35l9.44-1.76c4.67-.85,9.34-1.71,14-2.55q13.68-2.49,27.44-4.88,21.42-3.75,42.94-7.29,6.75-1.11,13.51-2.19h0q7.14-1.16,14.28-2.27l3.33-.52q9.93-1.55,19.84-3l8.35-1.25c3.12-.46,6.23-.92,9.33-1.36l1.7-.25c2.19-.32,4.38-.64,6.56-.94q11.65-1.68,23.25-3.24l6.93-.93q4.72-.64,9.45-1.25,8.13-1.06,16.23-2.07,7.11-.9,14.2-1.74l4.25-.5,3.28-.39,8-.93q7.55-.87,15.05-1.67c1.85-.21,3.71-.41,5.56-.6q14-1.5,27.88-2.8,7.47-.72,14.88-1.36,8.55-.77,17-1.43c3.38-.28,6.74-.54,10.1-.79q22-1.66,43.42-2.77l6-.3,5.93-.28,4.77-.2,4.28-.18Z"/><path class="cls-9" d="M1264.59,323.38q2.39,6.09,4.65,11.81c-3-3.09-7-7.11-11.83-11.81H1243.1l-.8-1.24h0l-4.6-7.2-.26-.41L1228.17,300l-6.5-10.17-15.38-24.09-11.88-18.61-9.72-15.21-2.49-3.9-19.88-31.14-16.07-7.71-7.27-3.48-4.8-2.31-25.11-12-3.12-1.49-10.76-5.16-6-2.89-16.75-8-1.37-.66-1.75-.84-1.19-.58-2.53-1.21-5.72-2.74s2.1.26,5.75.75l4.09.56,1.08.15,1.9.26,1.3.19c3.67.52,7.92,1.15,12.57,1.86,7,1.08,15,2.36,23.33,3.82,9.9,1.76,20.27,3.75,30,5.93q3.21.72,6.32,1.47l1.2.29c14.33,3.47,26.68,7.35,33.38,11.44,3,1.83,7.34,6.08,12.6,12.09h0c8.48,9.7,19.38,24,31.14,40.3q4.25,5.88,8.61,12.06,3.1,4.4,6.25,8.9c3.52,5,7,10.12,10.56,15.23h0c.62.89,1.23,1.79,1.84,2.68,5.86,8.55,11.64,17.1,17.18,25.36,2,3,4,6,6,8.9.34.52.69,1,1,1.55,5.17,7.78,10,15.15,14.43,21.83Z"/><path class="cls-9" d="M1243.1,323.38l5.5,8.62c-2.38-.94-4.79-1.81-7.23-2.64l-.69,5.29-3.75-3h0c-.23-.17-.46-.36-.69-.55-3-2.43-6.19-5-9.5-7.69s-6.81-5.53-10.39-8.46-7-5.78-10.71-8.8l-.08-.06-7.32-6.06-3-2.5c-12.28-10.21-25.08-21-37.49-31.76q-5.82-5-11.48-10-4.92-4.32-9.66-8.57l-3.23-2.91q-2.43-2.19-4.79-4.35c-4.61-4.21-9-8.31-13.18-12.27q-4.61-4.38-8.75-8.49c-.65-.65-1.3-1.29-1.93-1.93-2.35-2.36-4.57-4.64-6.62-6.82s-3.79-4.07-5.46-6l-.2-.23.16,0q4,1.07,8.09,2.54,2.4.85,4.84,1.83l1.62.66c4.45,1.83,9,4,13.64,6.34q4.14,2.13,8.37,4.52t8.3,4.88q4.38,2.67,8.8,5.55,4.13,2.69,8.26,5.54l1.56,1.07,1.17.82c3.39,2.36,6.78,4.8,10.16,7.29,8.9,6.56,17.71,13.47,26.23,20.47l1.09.89h0c9.43,7.77,18.5,15.63,27,23.19,3.87,3.46,7.61,6.87,11.19,10.17l4.88,4.52,6.11,5.76,3.23,3.08c3.75,3.59,7.21,6.95,10.33,10Z"/><path class="cls-9" d="M1296.89,323.38h-32.3q-2.6-6.63-5.3-13.64-1.85-4.78-3.73-9.74c-2.53-6.64-5.11-13.49-7.71-20.48h0q-2.53-6.79-5.07-13.77c-.52-1.41-1-2.83-1.55-4.25q-1-2.81-2-5.64-3-8.39-6-16.93-2.21-6.25-4.36-12.56-2.28-6.65-4.52-13.32c-1.85-5.52-3.67-11.06-5.45-16.58q-2.24-6.9-4.37-13.78c-3.4-10.87-6.62-21.66-9.6-32.22-.09-.34-.19-.68-.28-1-2.57-9.14-4.94-18.11-7.08-26.82-2.07-8.39-3.92-16.54-5.51-24.37v0c-1.66-8.18-3-16-4.08-23.41-.74-5.28-1.32-10.35-1.71-15.15a85.22,85.22,0,0,1,5.29,7.12l.23.34c7.94,11.87,17.23,30.14,27.12,52.14q2.23,5,4.51,10.17c4.88,11.17,9.88,23.12,14.9,35.55q1.7,4.17,3.38,8.42c.32.79.64,1.59.95,2.39.68,1.69,1.35,3.39,2,5.1,4,10.18,8,20.59,12,31.06h0c1.37,3.59,2.73,7.2,4.08,10.8,5.41,14.43,10.72,28.89,15.8,43,3.46,9.6,6.83,19,10,28.15.73,2.05,1.44,4.09,2.16,6.11C1291.57,308.09,1294.3,315.91,1296.89,323.38Z"/><path class="cls-9" d="M1398.63,311.12l-3.17-24.48-.48-3.7v40.44h-57l.1,1.38h0l2.66,8.16-2.47-5.35-1.94-4.2h-71.75q2.39,6.09,4.65,11.81c-3-3.09-7-7.11-11.83-11.81H1243.1l5.5,8.62c-2.38-.94-4.79-1.81-7.23-2.64l.77-6,.16-1.24h0l1-8,.5-3.82,1.34-10.28,2.66-20.48h0l1.26-9.62h0l.53-4.14.35-2.68h0l.8-6.11,4.37-33.57,1.48-11.4h0l5.09-39.08,5.32-40.87,1-8h0l2.62-20.11h0l.31-2.38,1.09-8.36,4.05-31.07h0l8.07-62,1.16-8.9.15-6.66h44.39a21.23,21.23,0,0,1,5.74-3.26c7.32-2.84,14.68-1.25,21.61,3.26H1369L1367.29-25q8.06,5,16.13,9.45h3.78L1393-27.8l.2,3.36.52,8.88.87,14.73.37,28.71.39,30.47.09,6.78,0,1.68.27,21.11h0l.16,11.95h0l.23,17.72h0l1.75,136.14Z"/><polygon class="cls-9" points="1290.14 83.02 1228.87 -8.9 1223.03 4.76 1290.14 125.58 1290.14 83.02"/><path class="cls-9" d="M1404.86,106.27l-8.72,11.34h0l-.68.88-.48.62-4.28,5.57L1380,138.61l-1.22,1.59L1374,122.94l6-6.29,10.7-11.28,4.28-4.51.48-.5.45-.47h0l3.84-4Q1402.36,101.05,1404.86,106.27Z"/><path class="cls-9" d="M1387.2-15.56l-.78,1.64L1379.8,0l-2.87,6-2.9,6.1L1371.83,0l-.33-1.82L1369-15.56,1367.29-25q8.06,5,16.13,9.45Z"/><path class="cls-4" d="M807.94,323.83H704.45l-7,1.66-6.62,1.58-7.3,1.75Q674.68,331,666,333.05l.09,2.87-9.82-.5h0L654,336l-.31-.69-49.29-2.52h0l-35.91-1.84h0l-8.78-.46-8.48-.43.43-6.2h-98.1v-.45H172.77l-10,5.77,5.55-5.77H107l.37,12.54-10.54-.54-5.06-.26-5.94-.3L69.61,334h0L18,331.34l-15.5-.79-5.69-.29L-7.54,330l.46-6.65H-19V278.7l7.46-.39,4.91-.25,2.67-.14,2.36-.12L0,277.72l5.88-.3,34.41-1.77,39.63-2,.31,0,4.24-.22,1.13-.06,13.22-.68,6.61-.34,10-.51h0l6.7-.35,7.5-.38,5.72-.3,9-.46,2.93-.15,1.07-.06,74.85-3.85,5.69-.29,12.79-.66L344.39,260l3.94-.2,12.05-.62,5.19-.27,15.33-.79,18.36-.94,3.8.62,23.87,3.89,2,.33,18.11,3,6.52,1.06,56.7,9.25,42.27,6.89,2,.33,8.44,1.37,73.52,12,13.57,2.21,3.23.53,1.73.28,6.82,1.11,3.22.52,6.61,1.08,12.65,2.07,28.53,4.65,10.89,1.78,23.3,3.8L759.82,316l21,3.42,24.4,4Z"/><polygon class="cls-7" points="306.07 323.38 172.77 323.38 162.74 329.15 168.29 323.38 106.96 323.38 107.33 335.92 96.79 335.38 91.73 335.12 85.79 334.82 69.61 333.99 69.59 333.99 18.04 331.34 2.54 330.55 -3.15 330.26 -7.54 330.03 -7.08 323.38 -18.98 323.38 -18.98 297.09 -11.52 297.69 -5.34 298.19 -5.28 298.19 -5.25 298.2 0 298.62 4.53 298.99 17.04 300 29.73 301.03 74.59 304.66 98.75 306.61 106.47 307.23 108.16 307.37 117.88 308.16 126.76 308.88 178.23 313.04 189.2 313.93 235.91 317.71 246.84 318.59 258.72 319.55 306.07 323.38"/><path class="cls-44" d="M1198.21,323.38h-2.57l0,1.55h-69.38l.48-1.55q3.69-11.91,8.54-23.38,3.38-7.94,7.27-15.62l3.68,2.58,18.6,13,28.62,20.06,2.14,1.5Z"/><path class="cls-44" d="M1325.55,300l10.79,23.38h-71.75q2.39,6.09,4.65,11.81c-3-3.09-7-7.11-11.83-11.81H1243.1l5.5,8.62c-2.38-.94-4.79-1.81-7.23-2.64l-.69,5.29-3.75-3-.11,3.54-1.73-1.61-10.93-10.18-9.28-8.65-9.24-8.61-.08-.06-6.5-6.06-3.86-3.6-32.92-30.66-5.74-5.35q5.14-7.75,10.86-15.12,5-6.37,10.36-12.42,2.17-2.44,4.44-4.83,5.64-6,11.71-11.57c.91-.83,1.82-1.66,2.74-2.48l13.72,14.63,28.72,30.61,2.14,2.28,4,4.25,3.89,4.14h0L1269,291.1l6.71,7.15-19.62-32.51-5.31-8.8-11.08-18.37L1232.1,226,1224.3,213l-8.64-14.32,3.19-2.26A233.67,233.67,0,0,1,1240.61,183l.77-.42,1.11-.59c.71-.38,1.42-.76,2.14-1.13q8.31-4.32,17.1-8l2.35-1,2-.78,4.81,10.42,1.37,3L1288.6,220l20.89,45.24.24.53Z"/><path class="cls-44" d="M1390.7,249.89l4.28,33.05v40.44h-57l.1,1.38-.45-1.38L1330,300l-11.16-34.26-4.11-12.59-11.26-34.54-17.72-54.36q5.4-1.62,10.82-3c1.54-.39,3.08-.75,4.63-1.1a231.45,231.45,0,0,1,25.22-4.29c1.55-.18,3.11-.34,4.66-.49q11.76-1.09,23.5-1a238.36,238.36,0,0,1,23.92,1.37l1.49,11.51,5.93,45.77,3.29,25.44Z"/><path class="cls-44" d="M98.68,323.38l-7,11.74-5.94-.3L69.61,334h0L18,331.34l-15.5-.79L3,323.38,4.46,300l.07-1,1.35-21.57,3.06-48.56,4.51-71.74q8-.85,16-1.17A229.53,229.53,0,0,1,71,158.13c4.49.65,9,1.43,13.47,2.37,2.39.48,4.78,1,7.16,1.58,2.1.51,4.21,1,6.31,1.63,1,.25,2,.53,3,.81l.83.25a3.12,3.12,0,0,1,.5.14l1.72.5-1.56,4.79-1.7,5.22-3.06,9.39L89,211.36l-4.49,13.77-6.7,20.57-6,18.3,6.48-11.6,6.19-11.06,2.92-5.22.25-.45h0l12.31-22,3.54-6.33h0l8.9-15.91h0l10.78-19.28,1.92.76q6.36,2.59,12.48,5.54,5.28,2.52,10.36,5.3,1.19.63,2.34,1.29,3.71,2.06,7.29,4.25,7.62,4.62,14.78,9.78l-24.1,40.68h0l-2,3.3h0l-16.6,28-6.26,10.56-4.27,7.22-2.21,3.73h0l-4.4,7.44-1.12,1.9-3.25,5.47-1.6,2.71Z"/><path class="cls-44" d="M178.23,313l-9.94,10.34H107l.37,12.54-10.54-.54,9.3-12,.83-1.07h0l11-14.14,5.32-6.87,1-1.29,1.27-1.64,5-6.48,2.36-3.05,11.28-14.56,3.2-4.13,1.07-1.38,42.48-54.84a231.79,231.79,0,0,1,37.9,43.44h0c.42.61.82,1.22,1.23,1.83l-1.18,1.22h0l-5.58,5.8-18.16,18.88-3.57,3.72-8.56,8.9L190.77,300Z"/><path class="cls-44" d="M259.89,323.38H172.77l16.43-9.45L213.41,300l6.34-3.64,13.08-7.53,6.72-3.86h0l4.09-2.35q1.58,3.09,3,6.22c.95,2,1.86,4,2.75,6q1.13,2.57,2.2,5.16,3.76,9.13,6.79,18.59l.3,1C259.13,320.82,259.52,322.1,259.89,323.38Z"/><path class="cls-44" d="M135.43-1.68c-.07.55-.14,1.12-.23,1.68-2.76,18.45-13.57,40.33-27.14,58.89q-3.36,4.59-6.89,8.86l-1.79,2.12c-.54.63-1.09,1.26-1.63,1.87s-.86,1-1.3,1.45A137.55,137.55,0,0,1,84.72,84.8C72,95.9,59.33,102,49.93,99.08,28.14,92.25,38.15,38.35,60.72,0A135.07,135.07,0,0,1,71.31-15.56h64.06A49.1,49.1,0,0,1,135.43-1.68Z"/><path class="cls-44" d="M202.6,42c34.51,27.5-56,99-79.77,82.51S169.9,15.9,202.6,42Z"/><path class="cls-45" d="M201.2,45.07a325.71,325.71,0,0,0-44,39.82q-4.93,5.3-9.71,10.81-9.21,10.6-17.87,22-2.83,3.7-5.61,7.48c-5.76,7.82-11.34,15.86-16.73,24q-1.71,2.56-3.37,5.16a3.28,3.28,0,0,0-.2.31c-.56.86-1.12,1.73-1.67,2.6h0c-.34.52-.67,1-1,1.57-1,1.61-2,3.23-3,4.86q-3.57,5.74-7,11.56s0,0,0,0q-3.28,5.5-6.45,11.07-5.09,8.91-9.9,17.92c-12.77,23.82-24.19,48-34.28,71.38Q35,288,30.14,300c-.14.35-.28.69-.41,1-3.05,7.59-6,15.06-8.72,22.35q-1.52,4-3,8"/><path class="cls-45" d="M-9.22,323.38q1.71-11.78,3.82-24.31v0c0-.25.09-.51.13-.76,0,0,0-.06,0-.09q1.69-10,3.67-20.4c.51-2.69,1-5.4,1.58-8.13,2.61-13.18,5.57-26.82,8.94-40.81C14.57,205.4,21.32,180.94,29.42,156c6-18.72,12.86-37.74,20.51-56.87A799.16,799.16,0,0,1,90.52,12.56h0Q93.84,6.46,97.31.39h0L97.53,0c1-1.84,2.11-3.69,3.19-5.53q2.93-5,6-10,3.38-5.58,6.87-11.13"/><path class="cls-44" d="M1395.48,66.81a2.64,2.64,0,0,1,0,.29,33.81,33.81,0,0,1-.48,3.68,18,18,0,0,1-3.69,8.57,10.17,10.17,0,0,1-4.72,3.12,13.86,13.86,0,0,1-6.57.29c-22.84-4-59.23-53.59-57.38-82.76.41-6.41,2.66-11.83,7.31-15.56a21.23,21.23,0,0,1,5.74-3.26c7.32-2.84,14.68-1.25,21.61,3.26A59.14,59.14,0,0,1,1371.5-1.82c.45.59.91,1.2,1.35,1.82,1.41,1.93,2.77,4,4.08,6q1.59,2.54,3.07,5.21c7.7,13.84,13.2,30,15,43.43.17,1.25.3,2.47.39,3.67q.06.6.09,1.17A50.75,50.75,0,0,1,1395.48,66.81Z"/><path class="cls-44" d="M1274.51,100c-34.5,27.5,56,99,79.77,82.51S1307.22,74,1274.51,100Z"/><path class="cls-45" d="M1275.92,103.14c1,.75,2,1.51,3,2.28q5.4,4.11,10.66,8.55c.18.14.36.3.54.45A354.15,354.15,0,0,1,1326,149.57c1.71,1.93,3.41,3.87,5.1,5.84,7.63,8.89,15,18.2,22.07,27.82,7.24,9.83,14.19,20,20.86,30.39q3,4.71,6,9.49,4.71,7.62,9.22,15.37c.5.85,1,1.7,1.48,2.55,1.45,2.5,2.87,5,4.28,7.51l.48.85q1.23,2.18,2.43,4.37,3.63,6.58,7.13,13.22"/><path class="cls-45" d="M1363.57,31.39Q1372.15,45,1380,58.79q5.84,10.25,11.29,20.56,1.86,3.53,3.69,7.07l.48.94c.1.19.2.37.29.56h0c1.36,2.63,2.69,5.27,4,7.9q2.61,5.22,5.11,10.44"/><ellipse class="cls-9" cx="547.01" cy="263.15" rx="11.08" ry="18.49" transform="translate(-44.38 126.31) rotate(-12.66)"/><ellipse class="cls-13" cx="519.29" cy="294.19" rx="11.08" ry="18.49" transform="translate(-77.52 299.06) rotate(-30)"/><path class="cls-14" d="M544.06,248.86a178.56,178.56,0,0,1,6.73,24.48c.51,2.43,1,4.92,1.5,7.45.09.46.18.92.26,1.38q.63,3.3,1.21,6.66l.24,1.4h0c.56,3.23,1.09,6.5,1.6,9.76,1.24,8,2.33,16,3.26,23.38l.06.45q.42,3.41.81,6.63"/><path class="cls-14" d="M536.13,323.83c-.08-.15-.15-.3-.22-.45-2.39-4.81-4.74-9.3-7-13.42-2-3.61-3.87-6.95-5.63-10-2.59-4.42-4.91-8.18-6.82-11.17-3.35-5.25-5.43-8.15-5.43-8.15"/><path class="cls-1" d="M1395.46,59.52V286.64l-.48-3.7v40.44h-57l.1,1.38h0l2.66,8.16-2.47-5.35-1.94-4.2h-71.75q2.39,6.09,4.65,11.81c-3-3.09-7-7.11-11.83-11.81H1243.1l5.5,8.62c-2.38-.94-4.79-1.81-7.23-2.64l-.69,5.29-3.75-3-.11,3.54-1.73-1.61-10.93-10.18h-28.52l0,1.55h-94.4l.08-1.55H982l-.15,5.28c-6.06,0-11.82.09-17.31.25-13.53.38-25.4,1.16-36,2.23-8.79.89-16.69,2-23.92,3.2a92.18,92.18,0,0,0,2.32-9.92l-44.72.51,0-1.1H704.45l-7,1.66-6.62,1.58-7.3,1.75Q674.68,331,666,333.05l.09,2.87-9.82-.5h0L654,336l-.31-.69-49.29-2.52h0l-35.91-1.84h0l-8.78-.46-8.48-.43.43-6.2h-98.1v-.45H172.77l-10,5.77,5.55-5.77H107l.37,12.54-10.54-.54-5.06-.26-5.94-.3L69.61,334h0L18,331.34l-15.5-.79-5.69-.29L-7.54,330l.46-6.65h-4.44V-15.56H8.36q4.48-4.56,8.6-9.11l-.63,9.11H247l.86-12.54,4.67,12.54H456.35l3-5-.57,5H474l.08-.16,5.52-11.16-.74,11.32h611.32l.33-2.64.76-6.1,5.37,8.74h49.44l.16-3v3h183.68a21.23,21.23,0,0,1,5.74-3.26c7.32-2.84,14.68-1.25,21.61,3.26H1369L1367.29-25q8.06,5,16.13,9.45h3.78L1393-27.8l.2,3.36.52,8.88H1395V27.88l.39,30.47Q1395.43,59,1395.46,59.52Z"/><rect class="cls-1" x="-18.98" y="-15.56" width="1413.96" height="338.94"/></g></svg>